ply
format ascii 1.0
element vertex 1245
property float x
property float y
property float z
element face 2132
property list uchar int vertex_index
end_header
0.56673 1 1
1 1 0.56673
1 0.566794 1
1 1 0.56673
2 0.566789 1
2 1 0.566725
2 1 0.566725
3 0.566784 1
3 1 0.56672
3 1 0.56672
4 0.56678 1
4 1 0.566716
4 1 0.566716
5 0.566778 1
5 1 0.566714
5 1 0.566714
6 0.566777 1
6 1 0.566713
7 0.566777 1
7 1 0.566713
7 1 0.566713
8 0.566778 1
8 1 0.566714
8 1 0.566714
9 0.566779 1
9 1 0.566715
10 0.566781 1
10 1 0.566717
10 1 0.566717
11 0.566782 1
11 1 0.566718
11 1 0.566718
12 0.566784 1
12 1 0.56672
12 1 0.56672
13 0.566786 1
13 1 0.566722
13 1 0.566722
14 0.566787 1
14 1 0.566723
15 0.566789 1
15 1 0.566725
15 1 0.566725
16 0.56679 1
16 1 0.566726
16 1 0.566726
17 0.566791 1
17 1 0.566727
17 1 0.566727
18 0.566792 1
18 1 0.566728
18 1 0.566728
18.4333 1 1
0.549547 2 1
1 2 0.549547
2 2 0.54954
2 2 0.54954
3 2 0.549533
3 2 0.549533
4 2 0.549527
5 2 0.549522
6 2 0.549518
6 2 0.549518
7 2 0.549517
8 2 0.549516
8 2 0.549516
9 2 0.549517
9 2 0.549517
10 2 0.549518
11 2 0.549519
11 2 0.549519
12 2 0.54952
12 2 0.54952
13 2 0.549522
13 2 0.549522
14 2 0.549523
15 2 0.549525
16 2 0.549526
16 2 0.549526
17 2 0.549527
17 2 0.549527
18 2 0.549528
18.4505 2 1
0.530723 3 1
1 3 0.530723
1 3 0.530723
2 3 0.530713
2 3 0.530713
3 3 0.530702
3 3 0.530702
4 3 0.530691
5 3 0.530683
5 3 0.530683
6 3 0.530677
7 3 0.530673
7 3 0.530673
8 3 0.530672
9 3 0.530671
9 3 0.530671
10 3 0.530672
10 3 0.530672
11 3 0.530673
12 3 0.530674
13 3 0.530676
13 3 0.530676
14 3 0.530677
15 3 0.530678
15 3 0.530678
16 3 0.53068
17 3 0.530681
17 3 0.530681
18 3 0.530682
18.4693 3 1
0.509541 4 1
1 4 0.509541
2 4 0.509525
3 4 0.509506
4 4 0.509488
4 4 0.509488
5 4 0.509473
6 4 0.509463
6 4 0.509463
7 4 0.509457
8 4 0.509455
8 4 0.509455
9 4 0.509454
10 4 0.509454
11 4 0.509455
11 4 0.509455
12 4 0.509457
12 4 0.509457
13 4 0.509458
13 4 0.509458
14 4 0.50946
14 4 0.50946
15 4 0.509461
16 4 0.509463
17 4 0.509464
18 4 0.509465
18 4 0.509465
18.4905 4 1
0.484975 5 1
1 5 0.484975
1 5 0.484975
2 5 0.484945
2 5 0.484945
3 5 0.484909
3 5 0.484909
4 5 0.484876
4 5 0.484876
5 5 0.484852
5 5 0.484852
6 5 0.484836
6 5 0.484836
7 5 0.484828
7 5 0.484828
8 5 0.484824
9 5 0.484823
9 5 0.484823
10 5 0.484824
10 5 0.484824
11 5 0.484826
11 5 0.484826
12 5 0.484828
13 5 0.48483
13 5 0.48483
14 5 0.484831
14 5 0.484831
15 5 0.484833
15 5 0.484833
16 5 0.484834
17 5 0.484835
17 5 0.484835
18 5 0.484836
18 5 0.484836
18.5152 5 1
0.455394 6 1
1 6 0.455394
1 6 0.455394
2 6 0.45533
2 6 0.45533
3 6 0.455253
4 6 0.455191
4 6 0.455191
5 6 0.455148
5 6 0.455148
6 6 0.455124
6 6 0.455124
7 6 0.455113
7 6 0.455113
8 6 0.45511
8 6 0.45511
9 6 0.455111
9 6 0.455111
10 6 0.455113
10 6 0.455113
11 6 0.455116
11 6 0.455116
12 6 0.455118
12 6 0.455118
13 6 0.455121
14 6 0.455123
15 6 0.455125
15 6 0.455125
16 6 0.455126
17 6 0.455128
17 6 0.455128
18 6 0.455128
18 6 0.455128
18.5449 6 1
0.41793 7 1
1 7 0.41793
1 7 0.41793
2 7 0.417776
2 7 0.417776
3 7 0.41759
3 7 0.41759
4 7 0.417461
5 7 0.417388
6 7 0.417353
6 7 0.417353
7 7 0.417343
7 7 0.417343
8 7 0.417343
8 7 0.417343
9 7 0.417348
10 7 0.417353
10 7 0.417353
11 7 0.417357
11 7 0.417357
12 7 0.417362
12 7 0.417362
13 7 0.417365
13 7 0.417365
14 7 0.417368
14 7 0.417368
15 7 0.41737
15 7 0.41737
16 7 0.417371
16 7 0.417371
17 7 0.417373
18 7 0.417374
18 7 0.417374
18.5826 7 1
0.369298 8 1
1 8 0.369298
1 8 0.369298
2 8 0.368851
2 8 0.368851
3 8 0.368292
3 8 0.368292
4 8 0.367991
4 8 0.367991
5 8 0.367867
5 8 0.367867
6 8 0.367827
7 8 0.367827
8 8 0.367839
8 8 0.367839
9 8 0.367851
9 8 0.367851
10 8 0.367861
10 8 0.367861
11 8 0.367869
12 8 0.367875
12 8 0.367875
13 8 0.367879
13 8 0.367879
14 8 0.367883
15 8 0.367885
16 8 0.367887
17 8 0.367888
17 8 0.367888
18 8 0.367889
18.6321 8 1
0.642626 9 1
1 9 0.642626
2 9 0.64204
3 9 0.641806
3 9 0.641806
4 9 0.641978
4 9 0.641978
5 9 0.642102
6 9 0.642195
6 9 0.642195
7 9 0.642265
8 9 0.642307
9 9 0.642332
10 9 0.642346
11 9 0.642355
11 9 0.642355
12 9 0.642361
13 9 0.642365
14 9 0.642368
15 9 0.64237
15 9 0.64237
16 9 0.642372
16 9 0.642372
17 9 0.642373
17 9 0.642373
18 9 0.642374
18 9 0.642374
18.3576 9 1
0.611728 10 1
1 10 0.611727
2 10 0.610188
2 10 0.610188
3 10 0.60737
4 10 0.607226
5 10 0.607581
5 10 0.607581
6 10 0.607774
6 10 0.607774
7 10 0.607897
8 10 0.607959
9 10 0.607992
9 10 0.607992
10 10 0.608011
11 10 0.608022
11 10 0.608022
12 10 0.608029
13 10 0.608033
13 10 0.608033
14 10 0.608036
15 10 0.608039
15 10 0.608039
16 10 0.60804
17 10 0.608041
18 10 0.608042
18 10 0.608042
18.392 10 1
1 10.3883 1
2 10.3898 1
3 10.3926 1
4 10.3928 1
5 10.3924 1
6 10.3922 1
7 10.3921 1
8 10.392 1
9 10.392 1
10 10.392 1
11 10.392 1
12 10.392 1
13 10.392 1
14 10.392 1
15 10.392 1
16 10.392 1
17 10.392 1
18 10.392 1
1 0.581472 2
0.58141 1 2
2 0.581467 2
3 0.581463 2
4 0.58146 2
5 0.581458 2
6 0.581458 2
7 0.581459 2
8 0.58146 2
9 0.581462 2
10 0.581464 2
11 0.581466 2
12 0.581468 2
13 0.58147 2
14 0.581471 2
15 0.581473 2
16 0.581474 2
17 0.581476 2
18 0.581477 2
18.4186 1 2
0.564265 2 2
18.4357 2 2
0.545962 3 2
18.4541 3 2
0.525839 4 2
18.4742 4 2
0.503065 5 2
18.497 5 2
0.476429 6 2
18.5237 6 2
0.444022 7 2
0.41793 7 1
18.5562 7 2
0.40413 8 2
18.5964 8 2
0.693068 9 2
18.3063 9 2
0.693823 10 2
18.3155 10 2
1 10.3061 2
2 10.3087 2
3 10.3144 2
4 10.3156 2
5 10.3159 2
6 10.3158 2
7 10.3156 2
8 10.3156 2
9 10.3155 2
10 10.3155 2
11 10.3155 2
12 10.3155 2
13 10.3155 2
14 10.3155 2
15 10.3155 2
16 10.3155 2
17 10.3155 2
18 10.3155 2
1 0.59462 3
0.594564 1 3
0.58141 1 2
2 0.594615 3
3 0.594612 3
4 0.594609 3
5 0.594608 3
6 0.594609 3
7 0.59461 3
8 0.594611 3
9 0.594613 3
10 0.594616 3
11 0.594618 3
12 0.59462 3
13 0.594622 3
14 0.594624 3
15 0.594625 3
16 0.594627 3
17 0.594628 3
18 0.594629 3
18.4054 1 3
0.577988 2 3
0.564265 2 2
18.422 2 3
0.560737 3 3
18.4393 3 3
18.4541 3 2
0.542281 4 3
0.525839 4 2
18.4577 4 3
0.522067 5 3
0.503065 5 2
18.478 5 3
0.499418 6 3
0.476429 6 2
18.5006 6 3
0.473493 7 3
18.5265 7 3
0.444021 8 3
0.40413 8 2
18.5559 8 3
0.716687 9 3
0.693068 9 2
18.283 9 3
0.737765 10 3
18.2679 10 3
1 10.2618 3
2 10.2642 3
3 10.2652 3
4 10.2657 3
5 10.2674 3
6 10.2679 3
7 10.2678 3
8 10.2677 3
9 10.2677 3
10 10.2676 3
11 10.2676 3
12 10.2676 3
13 10.2676 3
14 10.2676 3
15 10.2676 3
16 10.2676 3
17 10.2676 3
18 10.2676 3
1 0.605885 4
0.605837 1 4
0.594564 1 3
2 0.605881 4
3 0.605878 4
4 0.605877 4
5 0.605876 4
6 0.605876 4
7 0.605877 4
8 0.605879 4
9 0.605881 4
10 0.605883 4
11 0.605885 4
12 0.605887 4
13 0.605889 4
14 0.605891 4
15 0.605893 4
16 0.605894 4
17 0.605895 4
18 0.605896 4
18.3942 1 4
0.590252 2 4
0.577988 2 3
18.4097 2 4
0.574401 3 4
18.4256 3 4
0.557898 4 4
0.542281 4 3
18.4421 4 4
0.540434 5 4
0.522067 5 3
18.4596 5 4
0.521733 6 4
0.499418 6 3
18.4783 6 4
0.501627 7 4
0.473493 7 3
18.4983 7 4
0.480481 8 4
0.444021 8 3
18.5193 8 4
0.458824 9 4
18.5409 9 4
1 10 3.47267
1 9.6497 4
2 9.65033 4
2 10 3.47563
3 9.65059 4
3 10 3.47689
4 9.65075 4
4 10 3.47747
5 9.6513 4
5 10 3.47973
6 9.65145 4
6 10 3.48032
6 10 3.48032
7 9.65141 4
7 10 3.48018
8 9.65137 4
8 10 3.48008
9 9.65133 4
9 10 3.48002
10 9.65131 4
10 10 3.47998
11 9.65129 4
11 10 3.47996
11 10 3.47996
12 9.65128 4
12 10 3.47994
13 9.65127 4
13 10 3.47993
13 10 3.47993
14 9.65127 4
14 10 3.47992
15 9.65126 4
15 10 3.47992
16 9.65126 4
16 10 3.47992
17 9.65126 4
17 10 3.47991
18 9.65126 4
18 10 3.47991
1 0.615198 5
0.615159 1 5
0.605837 1 4
2 0.615195 5
3 0.615192 5
4 0.615191 5
5 0.615191 5
6 0.615191 5
7 0.615192 5
8 0.615193 5
9 0.615195 5
10 0.615197 5
11 0.615199 5
12 0.615201 5
13 0.615203 5
14 0.615204 5
15 0.615206 5
16 0.615207 5
17 0.615208 5
18 0.615209 5
18.3848 1 5
0.600888 2 5
0.590252 2 4
18.3991 2 5
0.586654 3 5
0.574401 3 4
18.4133 3 5
0.572203 4 5
18.4278 4 5
0.557395 5 5
0.540434 5 4
18.4426 5 5
0.542188 6 5
0.521733 6 4
18.4578 6 5
0.526723 7 5
0.501627 7 4
18.4732 7 5
0.511626 8 5
18.4882 8 5
0.497435 9 5
18.5024 9 5
1 9.51133 5
2 9.51134 5
3 9.51137 5
4 9.51136 5
5 9.51139 5
6 9.51143 5
7 9.51144 5
8 9.51144 5
9 9.51142 5
10 9.51142 5
11 9.51141 5
12 9.5114 5
13 9.51139 5
14 9.51138 5
15 9.51138 5
16 9.51138 5
17 9.51138 5
18 9.51137 5
1 0.622655 6
0.622624 1 6
2 0.622652 6
3 0.622651 6
4 0.622649 6
5 0.622649 6
6 0.622649 6
7 0.62265 6
8 0.622651 6
9 0.622653 6
10 0.622654 6
11 0.622656 6
12 0.622657 6
13 0.622659 6
14 0.62266 6
15 0.622662 6
16 0.622663 6
17 0.622664 6
18 0.622665 6
18.3774 1 6
0.609883 2 6
18.3901 2 6
0.597377 3 6
0.586654 3 5
18.4026 3 6
0.584955 4 6
18.415 4 6
0.57258 5 6
18.4274 5 6
0.560317 6 6
0.542188 6 5
18.4396 6 6
0.54839 7 6
18.4515 7 6
0.537368 8 6
0.511626 8 5
18.4625 8 6
0.527669 9 6
0.497435 9 5
18.4722 9 6
1 9.47263 6
2 9.47259 6
3 9.4726 6
4 9.47258 6
5 9.47258 6
6 9.47257 6
7 9.47257 6
8 9.47257 6
9 9.47257 6
10 9.47259 6
11 9.47259 6
12 9.47258 6
13 9.47258 6
14 9.47257 6
15 9.47256 6
16 9.47256 6
17 9.47256 6
18 9.47256 6
1 0.628465 7
0.628442 1 7
2 0.628463 7
3 0.628461 7
4 0.62846 7
5 0.62846 7
6 0.62846 7
7 0.628461 7
8 0.628462 7
9 0.628463 7
10 0.628464 7
11 0.628465 7
12 0.628467 7
13 0.628468 7
14 0.628469 7
15 0.62847 7
16 0.628471 7
17 0.628472 7
18 0.628473 7
18.3716 1 7
0.617346 2 7
18.3826 2 7
0.606598 3 7
0.597377 3 6
18.3934 3 7
18.4026 3 6
0.596119 4 7
0.584955 4 6
18.4039 4 7
0.585923 5 7
0.57258 5 6
18.4141 5 7
0.576103 6 7
18.4239 6 7
0.566868 7 7
18.4331 7 7
0.558533 8 7
18.4414 8 7
0.543931 9 7
0.527669 9 6
18.456 9 7
1 9.45607 7
2 9.45604 7
3 9.45604 7
4 9.45603 7
5 9.45605 7
6 9.45605 7
7 9.45603 7
8 9.45602 7
9 9.45602 7
10 9.45603 7
11 9.45605 7
12 9.45605 7
13 9.45605 7
14 9.45605 7
15 9.45604 7
16 9.45604 7
17 9.45603 7
18 9.45603 7
1 0.63289 8
0.632874 1 8
2 0.632889 8
3 0.632887 8
4 0.632887 8
5 0.632886 8
6 0.632886 8
7 0.632887 8
8 0.632887 8
9 0.632888 8
10 0.632889 8
11 0.63289 8
12 0.632891 8
13 0.632892 8
14 0.632893 8
15 0.632894 8
16 0.632895 8
17 0.632895 8
18 0.632896 8
18.3671 1 8
0.623461 2 8
18.3765 2 8
0.614446 3 8
0.606598 3 7
18.3855 3 8
0.605794 4 8
18.3942 4 8
0.597536 5 8
18.4024 5 8
0.589757 6 8
18.4102 6 8
0.582474 7 8
18.4175 7 8
0.567226 8 8
18.4327 8 8
0.349506 9 8
18.6506 9 8
1 9.65049 8
2 9.65048 8
3 9.6505 8
4 9.65052 8
5 9.65055 8
6 9.65054 8
7 9.65053 8
8 9.65056 8
9 9.65057 8
10 9.65058 8
11 9.65058 8
12 9.6506 8
13 9.6506 8
14 9.65061 8
15 9.65061 8
16 9.65061 8
17 9.6506 8
18 9.6506 8
1 0.636199 9
0.636188 1 9
0.632874 1 8
2 0.636198 9
3 0.636197 9
4 0.636197 9
5 0.636196 9
6 0.636196 9
7 0.636196 9
8 0.636197 9
9 0.636197 9
10 0.636198 9
11 0.636199 9
12 0.6362 9
13 0.6362 9
14 0.636201 9
15 0.636202 9
16 0.636202 9
17 0.636203 9
18 0.636204 9
18.3638 1 9
0.628441 2 9
18.3716 2 9
0.621101 3 9
18.3789 3 9
0.614154 4 9
0.605794 4 8
18.3858 4 9
0.60763 5 9
0.597536 5 8
18.3924 5 9
0.601586 6 9
18.3984 6 9
0.595991 7 9
18.404 7 9
0.582308 8 9
18.4177 8 9
0.361743 9 9
18.6384 9 9
1 9.63826 9
2 9.63824 9
3 9.63827 9
4 9.63829 9
5 9.6383 9
6 9.6383 9
7 9.63832 9
8 9.63834 9
9 9.63834 9
10 9.63834 9
11 9.63834 9
12 9.63834 9
13 9.63836 9
14 9.63837 9
15 9.63837 9
16 9.63837 9
17 9.63837 9
18 9.63837 9
1 0.638638 10
0.638631 1 10
0.636188 1 9
2 0.638637 10
3 0.638636 10
4 0.638636 10
5 0.638635 10
6 0.638635 10
7 0.638635 10
8 0.638636 10
9 0.638636 10
10 0.638637 10
11 0.638637 10
12 0.638638 10
13 0.638638 10
14 0.638639 10
15 0.638639 10
16 0.63864 10
17 0.63864 10
18 0.638641 10
18.3614 1 10
0.632501 2 10
18.3675 2 10
0.626762 3 10
18.3732 3 10
0.621406 4 10
18.3786 4 10
0.616448 5 10
18.3835 5 10
0.611913 6 10
0.601586 6 9
18.3881 6 10
0.607725 7 10
18.3923 7 10
0.595321 8 10
0.582308 8 9
18.4047 8 10
0.371902 9 10
0.361743 9 9
18.6282 9 10
1 9.6281 10
2 9.62808 10
3 9.62812 10
4 9.62814 10
5 9.62815 10
6 9.62816 10
7 9.62817 10
8 9.62818 10
9 9.62818 10
10 9.62817 10
11 9.62817 10
12 9.62818 10
13 9.6282 10
14 9.62822 10
15 9.62822 10
16 9.62822 10
17 9.62822 10
18 9.62822 10
1 0.640411 11
0.640408 1 11
2 0.640411 11
3 0.64041 11
4 0.64041 11
5 0.64041 11
6 0.64041 11
7 0.64041 11
8 0.64041 11
9 0.64041 11
10 0.640411 11
11 0.640411 11
12 0.640411 11
13 0.640412 11
14 0.640412 11
15 0.640412 11
16 0.640413 11
17 0.640413 11
18 0.640414 11
18.3596 1 11
0.635833 2 11
18.3642 2 11
0.631622 3 11
18.3684 3 11
0.627758 4 11
18.3722 4 11
0.624235 5 11
18.3758 5 11
0.621045 6 11
0.611913 6 10
18.3789 6 11
0.618071 7 11
0.607725 7 10
18.3819 7 11
0.606724 8 11
0.595321 8 10
18.3933 8 11
0.380422 9 11
0.371902 9 10
18.6197 9 11
1 9.61958 11
2 9.61958 11
3 9.61963 11
4 9.61965 11
5 9.61966 11
6 9.61967 11
7 9.61967 11
8 9.61967 11
9 9.61965 11
10 9.61964 11
11 9.61965 11
12 9.61967 11
13 9.61968 11
14 9.61969 11
15 9.6197 11
16 9.6197 11
17 9.6197 11
18 9.6197 11
1 0.641679 12
0.641678 1 12
0.640408 1 11
2 0.641678 12
3 0.641678 12
4 0.641679 12
5 0.641678 12
6 0.641678 12
7 0.641678 12
8 0.641678 12
9 0.641679 12
10 0.641678 12
11 0.641679 12
12 0.641679 12
13 0.641679 12
14 0.64168 12
15 0.64168 12
16 0.64168 12
17 0.641681 12
18 0.641681 12
18.3583 1 12
0.638597 2 12
0.635833 2 11
18.3614 2 12
0.635848 3 12
18.3641 3 12
0.633398 4 12
0.627758 4 11
18.3666 4 12
0.631213 5 12
0.624235 5 11
18.3688 5 12
0.629253 6 12
0.621045 6 11
18.3707 6 12
0.627123 7 12
0.618071 7 11
18.3729 7 12
0.609988 8 12
18.39 8 12
0.387613 9 12
18.6125 9 12
1 9.61239 12
2 9.6124 12
3 9.61244 12
4 9.61247 12
5 9.61247 12
6 9.61247 12
7 9.61247 12
8 9.61246 12
9 9.61246 12
10 9.61246 12
11 9.61247 12
12 9.61247 12
13 9.61249 12
14 9.6125 12
15 9.61252 12
16 9.61252 12
17 9.61252 12
18 9.61252 12
1 0.64256 13
0.642559 1 13
2 0.642558 13
3 0.642561 13
4 0.642561 13
5 0.64256 13
6 0.642561 13
7 0.64256 13
8 0.642561 13
9 0.642561 13
10 0.64256 13
11 0.642561 13
12 0.642561 13
13 0.642562 13
14 0.642561 13
15 0.642562 13
16 0.642562 13
17 0.642562 13
18 0.642563 13
18.3574 1 13
0.640879 2 13
0.638597 2 12
18.3591 2 13
0.639502 3 13
18.3605 3 13
0.638366 4 13
0.633398 4 12
18.3616 4 13
0.637416 5 13
18.3626 5 13
0.636452 6 13
0.629253 6 12
18.3635 6 13
0.626054 7 13
0.627123 7 12
18.374 7 13
0.383062 8 13
18.617 8 13
0.392475 9 13
0.387613 9 12
18.6076 9 13
1 9.6075 13
2 9.60747 13
3 9.6071 13
4 9.60736 13
5 9.60754 13
6 9.60756 13
7 9.60749 13
8 9.60753 13
9 9.60756 13
10 9.6075 13
11 9.60753 13
12 9.60741 13
13 9.60753 13
14 9.60744 13
15 9.60755 13
16 9.60761 13
17 9.60761 13
18 9.60761 13
1 1 13.3574
0.642559 1 13
2 1 13.3574
3 1 13.3574
4 1 13.3574
5 1 13.3574
6 1 13.3574
7 1 13.3574
8 1 13.3574
9 1 13.3574
10 1 13.3574
11 1 13.3574
12 1 13.3574
13 1 13.3574
14 1 13.3574
15 1 13.3574
16 1 13.3574
17 1 13.3574
18 1 13.3574
1 2 13.3591
2 2 13.3591
3 2 13.3591
4 2 13.3591
5 2 13.3591
6 2 13.3591
7 2 13.3591
8 2 13.3591
9 2 13.3591
10 2 13.3591
11 2 13.3591
12 2 13.3591
13 2 13.3591
14 2 13.3591
15 2 13.3591
16 2 13.3591
17 2 13.3591
18 2 13.3591
0.639502 3 13
1 3 13.3605
2 3 13.3605
3 3 13.3605
4 3 13.3605
5 3 13.3605
6 3 13.3605
7 3 13.3605
8 3 13.3605
9 3 13.3605
10 3 13.3605
11 3 13.3605
12 3 13.3605
13 3 13.3605
14 3 13.3605
15 3 13.3605
16 3 13.3605
17 3 13.3605
18 3 13.3605
1 4 13.3616
2 4 13.3616
3 4 13.3616
4 4 13.3616
5 4 13.3616
6 4 13.3616
7 4 13.3616
8 4 13.3616
9 4 13.3616
10 4 13.3616
11 4 13.3616
12 4 13.3616
13 4 13.3616
14 4 13.3616
15 4 13.3616
16 4 13.3616
17 4 13.3616
18 4 13.3616
0.637416 5 13
1 5 13.3626
2 5 13.3626
3 5 13.3626
4 5 13.3626
5 5 13.3626
6 5 13.3626
7 5 13.3626
8 5 13.3626
9 5 13.3626
10 5 13.3626
11 5 13.3626
12 5 13.3626
13 5 13.3626
14 5 13.3626
15 5 13.3626
16 5 13.3626
17 5 13.3626
18 5 13.3626
1 6 13.3635
2 6 13.3635
3 6 13.3635
4 6 13.3635
5 6 13.3635
6 6 13.3635
7 6 13.3635
8 6 13.3635
9 6 13.3635
10 6 13.3635
11 6 13.3635
12 6 13.3635
13 6 13.3635
14 6 13.3635
15 6 13.3635
16 6 13.3635
17 6 13.3635
18 6 13.3635
0.626054 7 13
1 7 13.3739
2 7 13.3739
3 7 13.3739
4 7 13.3739
5 7 13.374
6 7 13.374
7 7 13.3739
8 7 13.374
8 7 13.374
9 7 13.374
10 7 13.374
11 7 13.3739
12 7 13.3739
13 7 13.3739
14 7 13.3739
15 7 13.374
16 7 13.374
17 7 13.374
18 7 13.374
1 8 13.6169
2 8 13.617
3 8 13.6168
4 8 13.6167
5 8 13.6169
6 8 13.617
7 8 13.6169
8 8 13.617
9 8 13.617
10 8 13.617
11 8 13.6169
12 8 13.6169
13 8 13.6169
14 8 13.6169
14 8 13.6169
15 8 13.617
16 8 13.617
17 8 13.617
18 8 13.617
0.392475 9 13
1 9 13.6075
2 9 13.6075
3 9 13.6071
4 9 13.6074
5 9 13.6076
6 9 13.6076
7 9 13.6075
8 9 13.6076
9 9 13.6076
10 9 13.6075
11 9 13.6076
12 9 13.6074
13 9 13.6076
14 9 13.6075
15 9 13.6076
16 9 13.6076
17 9 13.6076
18 9 13.6076
3 0 1 2
3 2 3 4
3 4 3 5
3 4 6 7
3 7 6 8
3 7 9 10
3 10 9 11
3 10 12 13
3 13 12 14
3 13 15 16
3 16 15 17
3 16 17 18
3 18 17 19
3 18 20 21
3 21 20 22
3 21 23 24
3 24 23 25
3 24 25 26
3 26 25 27
3 26 28 29
3 29 28 30
3 29 31 32
3 32 31 33
3 32 34 35
3 35 34 36
3 35 37 38
3 38 37 39
3 38 39 40
3 40 39 41
3 40 42 43
3 43 42 44
3 43 45 46
3 46 45 47
3 46 48 49
3 49 48 50
3 51 52 49
3 53 54 0
3 0 54 1
3 54 5 3
3 55 5 54
3 56 8 6
3 57 8 56
3 58 11 9
3 59 11 58
3 59 14 12
3 60 14 59
3 60 17 15
3 61 17 60
3 62 19 17
3 63 19 62
3 63 22 20
3 64 22 63
3 65 25 23
3 66 25 65
3 67 27 25
3 68 27 67
3 68 30 28
3 69 30 68
3 70 33 31
3 71 33 70
3 72 36 34
3 73 36 72
3 74 39 37
3 75 39 74
3 75 41 39
3 76 41 75
3 76 44 42
3 77 44 76
3 78 47 45
3 79 47 78
3 80 50 48
3 81 50 80
3 81 82 51
3 51 82 52
3 83 84 53
3 53 84 54
3 85 55 54
3 86 55 85
3 87 57 56
3 88 57 87
3 89 59 58
3 90 59 89
3 90 60 59
3 91 60 90
3 92 61 60
3 93 61 92
3 93 63 62
3 94 63 93
3 95 64 63
3 96 64 95
3 96 66 65
3 97 66 96
3 98 68 67
3 99 68 98
3 100 69 68
3 101 69 100
3 101 71 70
3 102 71 101
3 102 73 72
3 103 73 102
3 104 75 74
3 105 75 104
3 105 76 75
3 106 76 105
3 107 77 76
3 108 77 107
3 108 79 78
3 109 79 108
3 110 81 80
3 111 81 110
3 111 112 81
3 81 112 82
3 113 114 83
3 83 114 84
3 114 86 85
3 115 86 114
3 115 88 87
3 116 88 115
3 116 90 89
3 117 90 116
3 118 91 90
3 119 91 118
3 119 93 92
3 120 93 119
3 121 94 93
3 122 94 121
3 122 96 95
3 123 96 122
3 124 97 96
3 125 97 124
3 125 99 98
3 126 99 125
3 126 101 100
3 127 101 126
3 128 102 101
3 129 102 128
3 130 103 102
3 131 103 130
3 132 105 104
3 133 105 132
3 134 106 105
3 135 106 134
3 135 108 107
3 136 108 135
3 136 109 108
3 137 109 136
3 137 111 110
3 138 111 137
3 139 140 111
3 111 140 112
3 141 142 113
3 113 142 114
3 143 115 114
3 144 115 143
3 145 116 115
3 146 116 145
3 147 117 116
3 148 117 147
3 149 119 118
3 150 119 149
3 151 120 119
3 152 120 151
3 153 122 121
3 154 122 153
3 155 123 122
3 156 123 155
3 156 125 124
3 157 125 156
3 158 126 125
3 159 126 158
3 160 127 126
3 161 127 160
3 162 129 128
3 163 129 162
3 163 131 130
3 164 131 163
3 165 133 132
3 166 133 165
3 167 135 134
3 168 135 167
3 169 136 135
3 170 136 169
3 170 137 136
3 171 137 170
3 172 138 137
3 173 138 172
3 174 175 139
3 139 175 140
3 176 177 141
3 141 177 142
3 178 144 143
3 179 144 178
3 180 146 145
3 181 146 180
3 181 148 147
3 182 148 181
3 183 150 149
3 184 150 183
3 185 152 151
3 186 152 185
3 187 154 153
3 188 154 187
3 189 156 155
3 190 156 189
3 191 157 156
3 192 157 191
3 193 159 158
3 194 159 193
3 195 161 160
3 196 161 195
3 197 163 162
3 198 163 197
3 199 164 163
3 200 164 199
3 200 166 165
3 201 166 200
3 201 168 167
3 202 168 201
3 203 170 169
3 204 170 203
3 204 171 170
3 205 171 204
3 206 173 172
3 207 173 206
3 208 209 174
3 174 209 175
3 210 211 176
3 176 211 177
3 212 179 178
3 213 179 212
3 214 181 180
3 215 181 214
3 216 182 181
3 217 182 216
3 217 184 183
3 218 184 217
3 218 186 185
3 219 186 218
3 220 188 187
3 221 188 220
3 222 190 189
3 223 190 222
3 224 192 191
3 225 192 224
3 225 194 193
3 226 194 225
3 227 196 195
3 228 196 227
3 229 198 197
3 230 198 229
3 231 200 199
3 232 200 231
3 233 201 200
3 234 201 233
3 235 202 201
3 236 202 235
3 237 204 203
3 238 204 237
3 239 205 204
3 240 205 239
3 240 207 206
3 241 207 240
3 242 243 208
3 208 243 209
3 244 245 210
3 210 245 211
3 246 213 212
3 247 213 246
3 248 215 214
3 249 215 248
3 250 217 216
3 251 217 250
3 252 218 217
3 253 218 252
3 254 219 218
3 255 219 254
3 255 221 220
3 256 221 255
3 256 223 222
3 257 223 256
3 258 225 224
3 259 225 258
3 260 226 225
3 261 226 260
3 262 228 227
3 263 228 262
3 263 230 229
3 264 230 263
3 265 232 231
3 266 232 265
3 267 234 233
3 268 234 267
3 268 236 235
3 269 236 268
3 269 238 237
3 270 238 269
3 270 240 239
3 271 240 270
3 272 241 240
3 273 241 272
3 273 274 242
3 242 274 243
3 275 276 244
3 244 276 245
3 276 247 246
3 277 247 276
3 277 249 248
3 278 249 277
3 279 251 250
3 280 251 279
3 281 253 252
3 282 253 281
3 282 255 254
3 283 255 282
3 284 256 255
3 285 256 284
3 285 257 256
3 286 257 285
3 286 259 258
3 287 259 286
3 287 261 260
3 288 261 287
3 288 263 262
3 289 263 288
3 290 264 263
3 291 264 290
3 291 266 265
3 292 266 291
3 292 268 267
3 293 268 292
3 293 269 268
3 294 269 293
3 295 270 269
3 296 270 295
3 297 271 270
3 298 271 297
3 299 273 272
3 300 273 299
3 301 302 273
3 273 302 274
3 303 304 275
3 275 304 276
3 304 277 276
3 305 277 304
3 306 278 277
3 307 278 306
3 307 280 279
3 308 280 307
3 308 282 281
3 309 282 308
3 310 283 282
3 311 283 310
3 312 285 284
3 313 285 312
3 313 286 285
3 314 286 313
3 314 287 286
3 315 287 314
3 316 288 287
3 317 288 316
3 317 289 288
3 318 289 317
3 319 291 290
3 320 291 319
3 320 292 291
3 321 292 320
3 322 293 292
3 323 293 322
3 323 294 293
3 324 294 323
3 325 296 295
3 326 296 325
3 326 298 297
3 327 298 326
3 327 300 299
3 328 300 327
3 329 330 301
3 301 330 302
3 331 304 303
3 332 305 331
3 331 305 304
3 333 307 332
3 332 307 306
3 334 308 333
3 333 308 307
3 335 309 334
3 334 309 308
3 336 311 335
3 335 311 310
3 337 313 336
3 336 313 312
3 338 314 337
3 337 314 313
3 339 315 338
3 338 315 314
3 340 317 339
3 339 317 316
3 341 318 340
3 340 318 317
3 342 320 341
3 341 320 319
3 343 321 342
3 342 321 320
3 344 323 343
3 343 323 322
3 345 324 344
3 344 324 323
3 346 326 345
3 345 326 325
3 347 327 346
3 346 327 326
3 348 328 347
3 347 328 327
3 348 330 329
3 349 350 2
3 2 350 0
3 2 351 349
3 2 4 351
3 4 352 351
3 4 7 352
3 7 353 352
3 7 10 353
3 10 354 353
3 10 13 354
3 13 355 354
3 13 16 355
3 16 356 355
3 16 18 356
3 18 357 356
3 18 21 357
3 21 358 357
3 21 24 358
3 24 359 358
3 24 26 359
3 26 360 359
3 26 29 360
3 29 361 360
3 29 32 361
3 32 362 361
3 32 35 362
3 35 363 362
3 35 38 363
3 38 364 363
3 38 40 364
3 40 365 364
3 40 43 365
3 43 366 365
3 43 46 366
3 46 367 366
3 46 49 367
3 49 52 367
3 367 52 368
3 369 0 350
3 369 53 0
3 52 370 368
3 82 370 52
3 371 53 369
3 371 83 53
3 82 372 370
3 112 372 82
3 373 83 371
3 373 113 83
3 112 374 372
3 140 374 112
3 375 113 373
3 375 141 113
3 140 376 374
3 175 376 140
3 377 141 375
3 377 176 141
3 175 378 376
3 209 378 175
3 379 176 377
3 379 380 176
3 209 381 378
3 243 381 209
3 382 380 379
3 382 244 380
3 243 383 381
3 274 383 243
3 384 244 382
3 384 275 244
3 274 385 383
3 302 385 274
3 386 275 384
3 386 303 275
3 302 387 385
3 330 387 302
3 386 388 303
3 303 388 331
3 389 331 388
3 332 331 389
3 390 332 389
3 333 332 390
3 391 333 390
3 334 333 391
3 392 334 391
3 335 334 392
3 393 335 392
3 336 335 393
3 394 336 393
3 337 336 394
3 395 337 394
3 338 337 395
3 396 338 395
3 339 338 396
3 397 339 396
3 340 339 397
3 398 340 397
3 341 340 398
3 399 341 398
3 342 341 399
3 400 342 399
3 343 342 400
3 401 343 400
3 344 343 401
3 402 344 401
3 345 344 402
3 403 345 402
3 346 345 403
3 404 346 403
3 347 346 404
3 405 347 404
3 348 347 405
3 330 348 387
3 387 348 405
3 406 407 349
3 349 407 408
3 349 409 406
3 349 351 409
3 351 410 409
3 351 352 410
3 352 411 410
3 352 353 411
3 353 412 411
3 353 354 412
3 354 413 412
3 354 355 413
3 355 414 413
3 355 356 414
3 356 415 414
3 356 357 415
3 357 416 415
3 357 358 416
3 358 417 416
3 358 359 417
3 359 418 417
3 359 360 418
3 360 419 418
3 360 361 419
3 361 420 419
3 361 362 420
3 362 421 420
3 362 363 421
3 363 422 421
3 363 364 422
3 364 423 422
3 364 365 423
3 365 424 423
3 365 366 424
3 366 425 424
3 366 367 425
3 367 368 425
3 425 368 426
3 427 408 407
3 427 428 408
3 368 429 426
3 370 429 368
3 430 428 427
3 430 371 428
3 370 431 429
3 432 431 370
3 433 371 430
3 433 434 371
3 432 435 431
3 374 435 432
3 436 434 433
3 436 437 434
3 374 438 435
3 376 438 374
3 439 437 436
3 439 440 437
3 376 441 438
3 378 441 376
3 442 440 439
3 442 379 440
3 378 443 441
3 381 443 378
3 444 379 442
3 444 445 379
3 381 446 443
3 383 446 381
3 447 445 444
3 447 448 445
3 383 449 446
3 385 449 383
3 450 448 447
3 450 386 448
3 385 451 449
3 387 451 385
3 450 452 386
3 386 452 388
3 453 388 452
3 389 388 453
3 454 389 453
3 390 389 454
3 455 390 454
3 391 390 455
3 456 391 455
3 392 391 456
3 457 392 456
3 393 392 457
3 458 393 457
3 394 393 458
3 459 394 458
3 395 394 459
3 460 395 459
3 396 395 460
3 461 396 460
3 397 396 461
3 462 397 461
3 398 397 462
3 463 398 462
3 399 398 463
3 464 399 463
3 400 399 464
3 465 400 464
3 401 400 465
3 466 401 465
3 402 401 466
3 467 402 466
3 403 402 467
3 468 403 467
3 404 403 468
3 469 404 468
3 405 404 469
3 387 405 451
3 451 405 469
3 470 471 406
3 406 471 472
3 406 473 470
3 406 409 473
3 409 474 473
3 409 410 474
3 410 475 474
3 410 411 475
3 411 476 475
3 411 412 476
3 412 477 476
3 412 413 477
3 413 478 477
3 413 414 478
3 414 479 478
3 414 415 479
3 415 480 479
3 415 416 480
3 416 481 480
3 416 417 481
3 417 482 481
3 417 418 482
3 418 483 482
3 418 419 483
3 419 484 483
3 419 420 484
3 420 485 484
3 420 421 485
3 421 486 485
3 421 422 486
3 422 487 486
3 422 423 487
3 423 488 487
3 423 424 488
3 424 489 488
3 424 425 489
3 425 426 489
3 489 426 490
3 491 472 471
3 491 492 472
3 426 493 490
3 429 493 426
3 494 492 491
3 494 430 492
3 429 495 493
3 431 495 429
3 496 430 494
3 496 497 430
3 431 498 495
3 435 498 431
3 499 497 496
3 499 500 497
3 435 501 498
3 438 501 435
3 502 500 499
3 502 503 500
3 438 504 501
3 441 504 438
3 505 503 502
3 505 506 503
3 441 507 504
3 443 507 441
3 508 506 505
3 508 509 506
3 443 510 507
3 446 510 443
3 511 509 508
3 511 447 509
3 446 512 510
3 449 512 446
3 513 450 514
3 450 511 514
3 450 447 511
3 513 514 515
3 513 515 516
3 516 515 517
3 516 517 518
3 518 517 519
3 518 519 520
3 520 519 521
3 520 521 522
3 522 521 523
3 522 523 524
3 525 523 526
3 525 526 527
3 527 526 528
3 527 528 529
3 529 528 530
3 529 530 531
3 531 530 532
3 531 532 533
3 533 532 534
3 533 534 535
3 536 534 537
3 536 537 538
3 538 537 539
3 538 539 540
3 541 539 542
3 541 542 543
3 543 542 544
3 543 544 545
3 545 544 546
3 545 546 547
3 547 546 548
3 547 548 549
3 549 548 550
3 549 550 551
3 550 512 551
3 512 451 551
3 512 449 451
3 513 452 450
3 516 453 513
3 513 453 452
3 518 454 516
3 516 454 453
3 520 455 518
3 518 455 454
3 522 456 520
3 520 456 455
3 524 457 522
3 522 457 456
3 527 458 525
3 525 458 457
3 529 459 527
3 527 459 458
3 531 460 529
3 529 460 459
3 533 461 531
3 531 461 460
3 535 462 533
3 533 462 461
3 538 463 536
3 536 463 462
3 540 464 538
3 538 464 463
3 543 465 541
3 541 465 464
3 545 466 543
3 543 466 465
3 547 467 545
3 545 467 466
3 549 468 547
3 547 468 467
3 551 469 549
3 549 469 468
3 451 469 551
3 552 553 470
3 470 553 554
3 470 555 552
3 470 473 555
3 473 556 555
3 473 474 556
3 474 557 556
3 474 475 557
3 475 558 557
3 475 476 558
3 476 559 558
3 476 477 559
3 477 560 559
3 477 478 560
3 478 561 560
3 478 479 561
3 479 562 561
3 479 480 562
3 480 563 562
3 480 481 563
3 481 564 563
3 481 482 564
3 482 565 564
3 482 483 565
3 483 566 565
3 483 484 566
3 484 567 566
3 484 485 567
3 485 568 567
3 485 486 568
3 486 569 568
3 486 487 569
3 487 570 569
3 487 488 570
3 488 571 570
3 488 489 571
3 489 490 571
3 571 490 572
3 573 554 553
3 573 574 554
3 490 575 572
3 493 575 490
3 576 574 573
3 576 577 574
3 493 578 575
3 495 578 493
3 579 577 576
3 579 496 577
3 495 580 578
3 498 580 495
3 581 496 579
3 581 582 496
3 498 583 580
3 501 583 498
3 584 582 581
3 584 585 582
3 501 586 583
3 504 586 501
3 587 585 584
3 587 588 585
3 504 589 586
3 507 589 504
3 590 588 587
3 590 508 588
3 507 591 589
3 510 591 507
3 592 508 590
3 592 511 508
3 510 593 591
3 512 593 510
3 592 594 511
3 511 594 514
3 595 514 594
3 515 514 595
3 596 515 595
3 517 515 596
3 597 517 596
3 519 517 597
3 598 519 597
3 521 519 598
3 599 521 598
3 523 521 599
3 600 523 599
3 526 523 600
3 601 526 600
3 528 526 601
3 602 528 601
3 530 528 602
3 603 530 602
3 532 530 603
3 604 532 603
3 534 532 604
3 605 534 604
3 537 534 605
3 606 537 605
3 539 537 606
3 607 539 606
3 542 539 607
3 608 542 607
3 544 542 608
3 609 544 608
3 546 544 609
3 610 546 609
3 548 546 610
3 611 548 610
3 550 548 611
3 512 550 593
3 593 550 611
3 612 613 552
3 552 613 553
3 552 614 612
3 552 555 614
3 555 615 614
3 555 556 615
3 556 616 615
3 556 557 616
3 557 617 616
3 557 558 617
3 558 618 617
3 558 559 618
3 559 619 618
3 559 560 619
3 560 620 619
3 560 561 620
3 561 621 620
3 561 562 621
3 562 622 621
3 562 563 622
3 563 623 622
3 563 564 623
3 564 624 623
3 564 565 624
3 565 625 624
3 565 566 625
3 566 626 625
3 566 567 626
3 567 627 626
3 567 568 627
3 568 628 627
3 568 569 628
3 569 629 628
3 569 570 629
3 570 630 629
3 570 571 630
3 571 572 630
3 630 572 631
3 632 553 613
3 632 573 553
3 572 633 631
3 575 633 572
3 634 573 632
3 634 635 573
3 575 636 633
3 578 636 575
3 637 635 634
3 637 579 635
3 578 638 636
3 580 638 578
3 639 579 637
3 639 581 579
3 580 640 638
3 583 640 580
3 641 581 639
3 641 642 581
3 583 643 640
3 586 643 583
3 644 642 641
3 644 587 642
3 586 645 643
3 589 645 586
3 646 587 644
3 646 647 587
3 589 648 645
3 591 648 589
3 649 647 646
3 649 650 647
3 591 651 648
3 593 651 591
3 649 652 650
3 650 652 594
3 653 594 652
3 595 594 653
3 654 595 653
3 596 595 654
3 655 596 654
3 597 596 655
3 656 597 655
3 598 597 656
3 657 598 656
3 599 598 657
3 658 599 657
3 600 599 658
3 659 600 658
3 601 600 659
3 660 601 659
3 602 601 660
3 661 602 660
3 603 602 661
3 662 603 661
3 604 603 662
3 663 604 662
3 605 604 663
3 664 605 663
3 606 605 664
3 665 606 664
3 607 606 665
3 666 607 665
3 608 607 666
3 667 608 666
3 609 608 667
3 668 609 667
3 610 609 668
3 669 610 668
3 611 610 669
3 593 611 651
3 651 611 669
3 670 671 612
3 612 671 613
3 612 672 670
3 612 614 672
3 614 673 672
3 614 615 673
3 615 674 673
3 615 616 674
3 616 675 674
3 616 617 675
3 617 676 675
3 617 618 676
3 618 677 676
3 618 619 677
3 619 678 677
3 619 620 678
3 620 679 678
3 620 621 679
3 621 680 679
3 621 622 680
3 622 681 680
3 622 623 681
3 623 682 681
3 623 624 682
3 624 683 682
3 624 625 683
3 625 684 683
3 625 626 684
3 626 685 684
3 626 627 685
3 627 686 685
3 627 628 686
3 628 687 686
3 628 629 687
3 629 688 687
3 629 630 688
3 630 631 688
3 688 631 689
3 690 613 671
3 690 632 613
3 631 691 689
3 633 691 631
3 692 632 690
3 692 693 632
3 633 694 691
3 695 694 633
3 696 693 692
3 696 697 693
3 695 698 694
3 638 698 695
3 699 697 696
3 699 700 697
3 638 701 698
3 640 701 638
3 702 700 699
3 702 641 700
3 640 703 701
3 643 703 640
3 704 641 702
3 704 644 641
3 643 705 703
3 645 705 643
3 706 644 704
3 706 646 644
3 645 707 705
3 648 707 645
3 708 646 706
3 708 709 646
3 648 710 707
3 651 710 648
3 708 711 709
3 709 711 652
3 712 652 711
3 653 652 712
3 713 653 712
3 654 653 713
3 714 654 713
3 655 654 714
3 715 655 714
3 656 655 715
3 716 656 715
3 657 656 716
3 717 657 716
3 658 657 717
3 718 658 717
3 659 658 718
3 719 659 718
3 660 659 719
3 720 660 719
3 661 660 720
3 721 661 720
3 662 661 721
3 722 662 721
3 663 662 722
3 723 663 722
3 664 663 723
3 724 664 723
3 665 664 724
3 725 665 724
3 666 665 725
3 726 666 725
3 667 666 726
3 727 667 726
3 668 667 727
3 728 668 727
3 669 668 728
3 651 669 710
3 710 669 728
3 729 730 670
3 670 730 671
3 670 731 729
3 670 672 731
3 672 732 731
3 672 673 732
3 673 733 732
3 673 674 733
3 674 734 733
3 674 675 734
3 675 735 734
3 675 676 735
3 676 736 735
3 676 677 736
3 677 737 736
3 677 678 737
3 678 738 737
3 678 679 738
3 679 739 738
3 679 680 739
3 680 740 739
3 680 681 740
3 681 741 740
3 681 682 741
3 682 742 741
3 682 683 742
3 683 743 742
3 683 684 743
3 684 744 743
3 684 685 744
3 685 745 744
3 685 686 745
3 686 746 745
3 686 687 746
3 687 747 746
3 687 688 747
3 688 689 747
3 747 689 748
3 749 671 730
3 749 690 671
3 689 750 748
3 691 750 689
3 751 690 749
3 751 752 690
3 691 753 750
3 694 753 691
3 754 752 751
3 754 696 752
3 694 755 753
3 698 755 694
3 756 696 754
3 756 699 696
3 698 757 755
3 701 757 698
3 758 699 756
3 758 702 699
3 701 759 757
3 703 759 701
3 760 702 758
3 760 704 702
3 703 761 759
3 705 761 703
3 762 704 760
3 762 706 704
3 705 763 761
3 707 763 705
3 764 706 762
3 764 708 706
3 707 765 763
3 710 765 707
3 764 766 708
3 708 766 711
3 767 711 766
3 712 711 767
3 768 712 767
3 713 712 768
3 769 713 768
3 714 713 769
3 770 714 769
3 715 714 770
3 771 715 770
3 716 715 771
3 772 716 771
3 717 716 772
3 773 717 772
3 718 717 773
3 774 718 773
3 719 718 774
3 775 719 774
3 720 719 775
3 776 720 775
3 721 720 776
3 777 721 776
3 722 721 777
3 778 722 777
3 723 722 778
3 779 723 778
3 724 723 779
3 780 724 779
3 725 724 780
3 781 725 780
3 726 725 781
3 782 726 781
3 727 726 782
3 783 727 782
3 728 727 783
3 710 728 765
3 765 728 783
3 784 785 729
3 729 785 786
3 729 787 784
3 729 731 787
3 731 788 787
3 731 732 788
3 732 789 788
3 732 733 789
3 733 790 789
3 733 734 790
3 734 791 790
3 734 735 791
3 735 792 791
3 735 736 792
3 736 793 792
3 736 737 793
3 737 794 793
3 737 738 794
3 738 795 794
3 738 739 795
3 739 796 795
3 739 740 796
3 740 797 796
3 740 741 797
3 741 798 797
3 741 742 798
3 742 799 798
3 742 743 799
3 743 800 799
3 743 744 800
3 744 801 800
3 744 745 801
3 745 802 801
3 745 746 802
3 746 803 802
3 746 747 803
3 747 748 803
3 803 748 804
3 805 786 785
3 805 749 786
3 748 806 804
3 750 806 748
3 807 749 805
3 807 751 749
3 750 808 806
3 753 808 750
3 809 751 807
3 809 810 751
3 753 811 808
3 755 811 753
3 812 810 809
3 812 813 810
3 755 814 811
3 757 814 755
3 815 813 812
3 815 758 813
3 757 816 814
3 759 816 757
3 817 758 815
3 817 760 758
3 759 818 816
3 761 818 759
3 819 760 817
3 819 762 760
3 761 820 818
3 763 820 761
3 821 762 819
3 821 764 762
3 763 822 820
3 765 822 763
3 821 823 764
3 764 823 766
3 824 766 823
3 767 766 824
3 825 767 824
3 768 767 825
3 826 768 825
3 769 768 826
3 827 769 826
3 770 769 827
3 828 770 827
3 771 770 828
3 829 771 828
3 772 771 829
3 830 772 829
3 773 772 830
3 831 773 830
3 774 773 831
3 832 774 831
3 775 774 832
3 833 775 832
3 776 775 833
3 834 776 833
3 777 776 834
3 835 777 834
3 778 777 835
3 836 778 835
3 779 778 836
3 837 779 836
3 780 779 837
3 838 780 837
3 781 780 838
3 839 781 838
3 782 781 839
3 840 782 839
3 783 782 840
3 765 783 822
3 822 783 840
3 841 842 784
3 784 842 843
3 784 844 841
3 784 787 844
3 787 845 844
3 787 788 845
3 788 846 845
3 788 789 846
3 789 847 846
3 789 790 847
3 790 848 847
3 790 791 848
3 791 849 848
3 791 792 849
3 792 850 849
3 792 793 850
3 793 851 850
3 793 794 851
3 794 852 851
3 794 795 852
3 795 853 852
3 795 796 853
3 796 854 853
3 796 797 854
3 797 855 854
3 797 798 855
3 798 856 855
3 798 799 856
3 799 857 856
3 799 800 857
3 800 858 857
3 800 801 858
3 801 859 858
3 801 802 859
3 802 860 859
3 802 803 860
3 803 804 860
3 860 804 861
3 862 843 842
3 862 805 843
3 804 863 861
3 806 863 804
3 864 805 862
3 864 807 805
3 806 865 863
3 808 865 806
3 866 807 864
3 866 809 807
3 808 867 865
3 811 867 808
3 868 809 866
3 868 812 809
3 811 869 867
3 814 869 811
3 870 812 868
3 870 871 812
3 814 872 869
3 816 872 814
3 873 871 870
3 873 817 871
3 816 874 872
3 818 874 816
3 875 817 873
3 875 876 817
3 818 877 874
3 820 877 818
3 878 876 875
3 878 879 876
3 820 880 877
3 822 880 820
3 878 881 879
3 879 881 823
3 882 823 881
3 824 823 882
3 883 824 882
3 825 824 883
3 884 825 883
3 826 825 884
3 885 826 884
3 827 826 885
3 886 827 885
3 828 827 886
3 887 828 886
3 829 828 887
3 888 829 887
3 830 829 888
3 889 830 888
3 831 830 889
3 890 831 889
3 832 831 890
3 891 832 890
3 833 832 891
3 892 833 891
3 834 833 892
3 893 834 892
3 835 834 893
3 894 835 893
3 836 835 894
3 895 836 894
3 837 836 895
3 896 837 895
3 838 837 896
3 897 838 896
3 839 838 897
3 898 839 897
3 840 839 898
3 822 840 880
3 880 840 898
3 899 900 841
3 841 900 842
3 841 901 899
3 841 844 901
3 844 902 901
3 844 845 902
3 845 903 902
3 845 846 903
3 846 904 903
3 846 847 904
3 847 905 904
3 847 848 905
3 848 906 905
3 848 849 906
3 849 907 906
3 849 850 907
3 850 908 907
3 850 851 908
3 851 909 908
3 851 852 909
3 852 910 909
3 852 853 910
3 853 911 910
3 853 854 911
3 854 912 911
3 854 855 912
3 855 913 912
3 855 856 913
3 856 914 913
3 856 857 914
3 857 915 914
3 857 858 915
3 858 916 915
3 858 859 916
3 859 917 916
3 859 860 917
3 860 861 917
3 917 861 918
3 919 842 900
3 919 862 842
3 861 920 918
3 863 920 861
3 921 862 919
3 921 864 862
3 863 922 920
3 865 922 863
3 923 864 921
3 923 866 864
3 865 924 922
3 867 924 865
3 925 866 923
3 925 868 866
3 867 926 924
3 869 926 867
3 927 868 925
3 927 928 868
3 869 929 926
3 872 929 869
3 930 928 927
3 930 931 928
3 872 932 929
3 874 932 872
3 933 931 930
3 933 934 931
3 874 935 932
3 877 935 874
3 936 934 933
3 936 937 934
3 877 938 935
3 880 938 877
3 936 939 937
3 937 939 881
3 940 881 939
3 882 881 940
3 941 882 940
3 883 882 941
3 942 883 941
3 884 883 942
3 943 884 942
3 885 884 943
3 944 885 943
3 886 885 944
3 945 886 944
3 887 886 945
3 946 887 945
3 888 887 946
3 947 888 946
3 889 888 947
3 948 889 947
3 890 889 948
3 949 890 948
3 891 890 949
3 950 891 949
3 892 891 950
3 951 892 950
3 893 892 951
3 952 893 951
3 894 893 952
3 953 894 952
3 895 894 953
3 954 895 953
3 896 895 954
3 955 896 954
3 897 896 955
3 956 897 955
3 898 897 956
3 880 898 938
3 938 898 956
3 957 958 899
3 899 958 959
3 899 960 957
3 899 901 960
3 901 961 960
3 901 902 961
3 902 962 961
3 902 903 962
3 903 963 962
3 903 904 963
3 904 964 963
3 904 905 964
3 905 965 964
3 905 906 965
3 906 966 965
3 906 907 966
3 907 967 966
3 907 908 967
3 908 968 967
3 908 909 968
3 909 969 968
3 909 910 969
3 910 970 969
3 910 911 970
3 911 971 970
3 911 912 971
3 912 972 971
3 912 913 972
3 913 973 972
3 913 914 973
3 914 974 973
3 914 915 974
3 915 975 974
3 915 916 975
3 916 976 975
3 916 917 976
3 917 918 976
3 976 918 977
3 978 959 958
3 978 979 959
3 918 980 977
3 920 980 918
3 981 979 978
3 981 921 979
3 920 982 980
3 922 982 920
3 983 921 981
3 983 984 921
3 922 985 982
3 924 985 922
3 986 984 983
3 986 987 984
3 924 988 985
3 926 988 924
3 989 987 986
3 989 990 987
3 926 991 988
3 929 991 926
3 992 990 989
3 992 993 990
3 929 994 991
3 932 994 929
3 995 993 992
3 995 933 993
3 932 996 994
3 935 996 932
3 997 933 995
3 997 936 933
3 935 998 996
3 938 998 935
3 997 999 936
3 936 999 939
3 1000 939 999
3 940 939 1000
3 1001 940 1000
3 941 940 1001
3 1002 941 1001
3 942 941 1002
3 1003 942 1002
3 943 942 1003
3 1004 943 1003
3 944 943 1004
3 1005 944 1004
3 945 944 1005
3 1006 945 1005
3 946 945 1006
3 1007 946 1006
3 947 946 1007
3 1008 947 1007
3 948 947 1008
3 1009 948 1008
3 949 948 1009
3 1010 949 1009
3 950 949 1010
3 1011 950 1010
3 951 950 1011
3 1012 951 1011
3 952 951 1012
3 1013 952 1012
3 953 952 1013
3 1014 953 1013
3 954 953 1014
3 1015 954 1014
3 955 954 1015
3 1016 955 1015
3 956 955 1016
3 938 956 998
3 998 956 1016
3 1017 1018 957
3 957 1018 958
3 957 1019 1017
3 957 960 1019
3 960 1020 1019
3 960 961 1020
3 961 1021 1020
3 961 962 1021
3 962 1022 1021
3 962 963 1022
3 963 1023 1022
3 963 964 1023
3 964 1024 1023
3 964 965 1024
3 965 1025 1024
3 965 966 1025
3 966 1026 1025
3 966 967 1026
3 967 1027 1026
3 967 968 1027
3 968 1028 1027
3 968 969 1028
3 969 1029 1028
3 969 970 1029
3 970 1030 1029
3 970 971 1030
3 971 1031 1030
3 971 972 1031
3 972 1032 1031
3 972 973 1032
3 973 1033 1032
3 973 974 1033
3 974 1034 1033
3 974 975 1034
3 975 1035 1034
3 975 976 1035
3 976 977 1035
3 1035 977 1036
3 1037 958 1018
3 1037 1038 958
3 977 1039 1036
3 980 1039 977
3 1040 1038 1037
3 1040 981 1038
3 980 1041 1039
3 982 1041 980
3 1042 981 1040
3 1042 1043 981
3 982 1044 1041
3 985 1044 982
3 1045 1043 1042
3 1045 986 1043
3 985 1046 1044
3 988 1046 985
3 1047 986 1045
3 1047 1048 986
3 988 1049 1046
3 991 1049 988
3 1050 1048 1047
3 1050 1051 1048
3 991 1052 1049
3 994 1052 991
3 1053 1051 1050
3 1053 995 1051
3 994 1054 1052
3 996 1054 994
3 1055 995 1053
3 1055 1056 995
3 996 1057 1054
3 998 1057 996
3 1055 1058 1056
3 1056 1058 999
3 1059 999 1058
3 1000 999 1059
3 1060 1000 1059
3 1001 1000 1060
3 1061 1001 1060
3 1002 1001 1061
3 1062 1002 1061
3 1003 1002 1062
3 1063 1003 1062
3 1004 1003 1063
3 1064 1004 1063
3 1005 1004 1064
3 1065 1005 1064
3 1006 1005 1065
3 1066 1006 1065
3 1007 1006 1066
3 1067 1007 1066
3 1008 1007 1067
3 1068 1008 1067
3 1009 1008 1068
3 1069 1009 1068
3 1010 1009 1069
3 1070 1010 1069
3 1011 1010 1070
3 1071 1011 1070
3 1012 1011 1071
3 1072 1012 1071
3 1013 1012 1072
3 1073 1013 1072
3 1014 1013 1073
3 1074 1014 1073
3 1015 1014 1074
3 1075 1015 1074
3 1016 1015 1075
3 998 1016 1057
3 1057 1016 1075
3 1017 1076 1077
3 1076 1017 1078
3 1078 1017 1019
3 1078 1019 1079
3 1079 1019 1020
3 1079 1020 1080
3 1080 1020 1021
3 1080 1021 1081
3 1081 1021 1022
3 1081 1022 1082
3 1082 1022 1023
3 1082 1023 1083
3 1083 1023 1024
3 1083 1024 1084
3 1084 1024 1025
3 1084 1025 1085
3 1085 1025 1026
3 1085 1026 1086
3 1086 1026 1027
3 1086 1027 1087
3 1087 1027 1028
3 1087 1028 1088
3 1088 1028 1029
3 1088 1029 1089
3 1089 1029 1030
3 1089 1030 1090
3 1090 1030 1031
3 1090 1031 1091
3 1091 1031 1032
3 1091 1032 1092
3 1092 1032 1033
3 1092 1033 1093
3 1093 1033 1034
3 1093 1034 1094
3 1094 1034 1035
3 1035 1036 1094
3 1077 1076 1037
3 1037 1076 1095
3 1078 1095 1076
3 1078 1096 1095
3 1079 1096 1078
3 1079 1097 1096
3 1080 1097 1079
3 1080 1098 1097
3 1081 1098 1080
3 1081 1099 1098
3 1082 1099 1081
3 1082 1100 1099
3 1083 1100 1082
3 1083 1101 1100
3 1084 1101 1083
3 1084 1102 1101
3 1085 1102 1084
3 1085 1103 1102
3 1086 1103 1085
3 1086 1104 1103
3 1087 1104 1086
3 1087 1105 1104
3 1088 1105 1087
3 1088 1106 1105
3 1089 1106 1088
3 1089 1107 1106
3 1090 1107 1089
3 1090 1108 1107
3 1091 1108 1090
3 1091 1109 1108
3 1092 1109 1091
3 1092 1110 1109
3 1093 1110 1092
3 1093 1111 1110
3 1094 1111 1093
3 1094 1112 1111
3 1094 1036 1112
3 1112 1036 1039
3 1037 1095 1113
3 1113 1095 1114
3 1096 1114 1095
3 1096 1115 1114
3 1097 1115 1096
3 1097 1116 1115
3 1098 1116 1097
3 1098 1117 1116
3 1099 1117 1098
3 1099 1118 1117
3 1100 1118 1099
3 1100 1119 1118
3 1101 1119 1100
3 1101 1120 1119
3 1102 1120 1101
3 1102 1121 1120
3 1103 1121 1102
3 1103 1122 1121
3 1104 1122 1103
3 1104 1123 1122
3 1105 1123 1104
3 1105 1124 1123
3 1106 1124 1105
3 1106 1125 1124
3 1107 1125 1106
3 1107 1126 1125
3 1108 1126 1107
3 1108 1127 1126
3 1109 1127 1108
3 1109 1128 1127
3 1110 1128 1109
3 1110 1129 1128
3 1111 1129 1110
3 1111 1130 1129
3 1112 1130 1111
3 1112 1131 1130
3 1112 1039 1131
3 1131 1039 1041
3 1113 1114 1042
3 1042 1114 1132
3 1115 1132 1114
3 1115 1133 1132
3 1116 1133 1115
3 1116 1134 1133
3 1117 1134 1116
3 1117 1135 1134
3 1118 1135 1117
3 1118 1136 1135
3 1119 1136 1118
3 1119 1137 1136
3 1120 1137 1119
3 1120 1138 1137
3 1121 1138 1120
3 1121 1139 1138
3 1122 1139 1121
3 1122 1140 1139
3 1123 1140 1122
3 1123 1141 1140
3 1124 1141 1123
3 1124 1142 1141
3 1125 1142 1124
3 1125 1143 1142
3 1126 1143 1125
3 1126 1144 1143
3 1127 1144 1126
3 1127 1145 1144
3 1128 1145 1127
3 1128 1146 1145
3 1129 1146 1128
3 1129 1147 1146
3 1130 1147 1129
3 1130 1148 1147
3 1131 1148 1130
3 1131 1149 1148
3 1131 1041 1149
3 1149 1041 1044
3 1042 1132 1150
3 1150 1132 1151
3 1133 1151 1132
3 1133 1152 1151
3 1134 1152 1133
3 1134 1153 1152
3 1135 1153 1134
3 1135 1154 1153
3 1136 1154 1135
3 1136 1155 1154
3 1137 1155 1136
3 1137 1156 1155
3 1138 1156 1137
3 1138 1157 1156
3 1139 1157 1138
3 1139 1158 1157
3 1140 1158 1139
3 1140 1159 1158
3 1141 1159 1140
3 1141 1160 1159
3 1142 1160 1141
3 1142 1161 1160
3 1143 1161 1142
3 1143 1162 1161
3 1144 1162 1143
3 1144 1163 1162
3 1145 1163 1144
3 1145 1164 1163
3 1146 1164 1145
3 1146 1165 1164
3 1147 1165 1146
3 1147 1166 1165
3 1148 1166 1147
3 1148 1167 1166
3 1149 1167 1148
3 1149 1168 1167
3 1149 1044 1168
3 1168 1044 1046
3 1150 1151 1047
3 1047 1151 1169
3 1152 1169 1151
3 1152 1170 1169
3 1153 1170 1152
3 1153 1171 1170
3 1154 1171 1153
3 1154 1172 1171
3 1155 1172 1154
3 1155 1173 1172
3 1156 1173 1155
3 1156 1174 1173
3 1157 1174 1156
3 1157 1175 1174
3 1158 1175 1157
3 1158 1176 1175
3 1159 1176 1158
3 1159 1177 1176
3 1160 1177 1159
3 1160 1178 1177
3 1161 1178 1160
3 1161 1179 1178
3 1162 1179 1161
3 1162 1180 1179
3 1163 1180 1162
3 1163 1181 1180
3 1164 1181 1163
3 1164 1182 1181
3 1165 1182 1164
3 1165 1183 1182
3 1166 1183 1165
3 1166 1184 1183
3 1167 1184 1166
3 1167 1185 1184
3 1168 1185 1167
3 1168 1186 1185
3 1168 1046 1186
3 1186 1046 1049
3 1047 1169 1187
3 1187 1169 1188
3 1170 1188 1169
3 1170 1189 1188
3 1171 1189 1170
3 1171 1190 1189
3 1172 1190 1171
3 1172 1191 1190
3 1173 1191 1172
3 1173 1192 1191
3 1174 1192 1173
3 1174 1193 1192
3 1175 1193 1174
3 1175 1194 1193
3 1176 1194 1175
3 1176 1195 1194
3 1177 1196 1176
3 1177 1197 1196
3 1178 1197 1177
3 1178 1198 1197
3 1179 1198 1178
3 1179 1199 1198
3 1180 1199 1179
3 1180 1200 1199
3 1181 1200 1180
3 1181 1201 1200
3 1182 1201 1181
3 1182 1202 1201
3 1183 1202 1182
3 1183 1203 1202
3 1184 1203 1183
3 1184 1204 1203
3 1185 1204 1184
3 1185 1205 1204
3 1186 1205 1185
3 1186 1206 1205
3 1186 1049 1206
3 1206 1049 1052
3 1187 1188 1053
3 1053 1188 1207
3 1189 1207 1188
3 1189 1208 1207
3 1190 1208 1189
3 1190 1209 1208
3 1191 1209 1190
3 1191 1210 1209
3 1192 1210 1191
3 1192 1211 1210
3 1193 1211 1192
3 1193 1212 1211
3 1194 1212 1193
3 1194 1213 1212
3 1195 1213 1194
3 1195 1214 1213
3 1197 1214 1196
3 1197 1215 1214
3 1198 1215 1197
3 1198 1216 1215
3 1199 1216 1198
3 1199 1217 1216
3 1200 1217 1199
3 1200 1218 1217
3 1201 1218 1200
3 1201 1219 1218
3 1202 1219 1201
3 1202 1220 1219
3 1203 1221 1202
3 1203 1222 1221
3 1204 1222 1203
3 1204 1223 1222
3 1205 1223 1204
3 1205 1224 1223
3 1206 1224 1205
3 1206 1225 1224
3 1206 1052 1225
3 1225 1052 1054
3 1053 1207 1226
3 1226 1207 1227
3 1208 1227 1207
3 1208 1228 1227
3 1209 1228 1208
3 1209 1229 1228
3 1210 1229 1209
3 1210 1230 1229
3 1211 1230 1210
3 1211 1231 1230
3 1212 1231 1211
3 1212 1232 1231
3 1213 1232 1212
3 1213 1233 1232
3 1214 1233 1213
3 1214 1234 1233
3 1215 1234 1214
3 1215 1235 1234
3 1216 1235 1215
3 1216 1236 1235
3 1217 1236 1216
3 1217 1237 1236
3 1218 1237 1217
3 1218 1238 1237
3 1219 1238 1218
3 1219 1239 1238
3 1220 1239 1219
3 1220 1240 1239
3 1222 1240 1221
3 1222 1241 1240
3 1223 1241 1222
3 1223 1242 1241
3 1224 1242 1223
3 1224 1243 1242
3 1225 1243 1224
3 1225 1244 1243
3 1225 1054 1244
3 1244 1054 1057
3 1227 1058 1226
3 1228 1059 1227
3 1227 1059 1058
3 1229 1060 1228
3 1228 1060 1059
3 1230 1061 1229
3 1229 1061 1060
3 1231 1062 1230
3 1230 1062 1061
3 1232 1063 1231
3 1231 1063 1062
3 1233 1064 1232
3 1232 1064 1063
3 1234 1065 1233
3 1233 1065 1064
3 1235 1066 1234
3 1234 1066 1065
3 1236 1067 1235
3 1235 1067 1066
3 1237 1068 1236
3 1236 1068 1067
3 1238 1069 1237
3 1237 1069 1068
3 1239 1070 1238
3 1238 1070 1069
3 1240 1071 1239
3 1239 1071 1070
3 1241 1072 1240
3 1240 1072 1071
3 1242 1073 1241
3 1241 1073 1072
3 1243 1074 1242
3 1242 1074 1073
3 1244 1075 1243
3 1243 1075 1074
3 1057 1075 1244
