ply
format ascii 1.0
element vertex 1252
property float x
property float y
property float z
element face 2124
property list uchar int vertex_index
end_header
0.566916 1 1
1 1 0.566916
1 0.566934 1
1 1 0.566916
2 0.566933 1
2 1 0.566916
2 1 0.566916
3 0.566933 1
3 1 0.566915
4 0.566932 1
4 1 0.566915
4 1 0.566915
5 0.566932 1
5 1 0.566914
5 1 0.566914
6 0.566932 1
6 1 0.566914
7 0.566932 1
7 1 0.566914
8 0.566932 1
8 1 0.566915
9 0.566932 1
9 1 0.566915
10 0.566932 1
10 1 0.566915
10 1 0.566915
11 0.566933 1
11 1 0.566915
11 1 0.566915
12 0.566933 1
12 1 0.566915
13 0.566933 1
13 1 0.566915
14 0.566933 1
14 1 0.566915
15 0.566933 1
15 1 0.566916
15 1 0.566916
16 0.566933 1
16 1 0.566916
17 0.566933 1
17 1 0.566916
17 1 0.566916
18 0.566934 1
18 1 0.566916
18.4331 1 1
0.557908 2 1
1 2 0.557908
2 2 0.557907
2 2 0.557907
3 2 0.557906
3 2 0.557906
4 2 0.557906
4 2 0.557906
5 2 0.557905
6 2 0.557905
7 2 0.557905
7 2 0.557905
8 2 0.557905
8 2 0.557905
9 2 0.557905
10 2 0.557905
11 2 0.557905
12 2 0.557905
12 2 0.557905
13 2 0.557905
13 2 0.557905
14 2 0.557905
15 2 0.557905
16 2 0.557906
17 2 0.557906
17 2 0.557906
18 2 0.557906
18 2 0.557906
18.4421 2 1
0.548277 3 1
1 3 0.548277
2 3 0.548276
3 3 0.548274
4 3 0.548273
5 3 0.548272
6 3 0.548271
6 3 0.548271
7 3 0.548271
7 3 0.548271
8 3 0.548271
8 3 0.548271
9 3 0.548271
9 3 0.548271
10 3 0.548271
10 3 0.548271
11 3 0.548271
12 3 0.548271
13 3 0.548271
13 3 0.548271
14 3 0.548272
14 3 0.548272
15 3 0.548272
15 3 0.548272
16 3 0.548272
16 3 0.548272
17 3 0.548272
18 3 0.548272
18 3 0.548272
18.4517 3 1
0.537645 4 1
1 4 0.537645
1 4 0.537645
2 4 0.537642
2 4 0.537642
3 4 0.53764
4 4 0.537637
4 4 0.537637
5 4 0.537636
5 4 0.537636
6 4 0.537635
7 4 0.537634
8 4 0.537634
8 4 0.537634
9 4 0.537634
10 4 0.537634
10 4 0.537634
11 4 0.537635
12 4 0.537635
13 4 0.537635
13 4 0.537635
14 4 0.537635
14 4 0.537635
15 4 0.537635
15 4 0.537635
16 4 0.537635
16 4 0.537635
17 4 0.537635
17 4 0.537635
18 4 0.537635
18 4 0.537635
18.4624 4 1
0.525488 5 1
1 5 0.525488
1 5 0.525488
2 5 0.525483
2 5 0.525483
3 5 0.525477
4 5 0.525473
4 5 0.525473
5 5 0.525471
5 5 0.525471
6 5 0.525469
6 5 0.525469
7 5 0.525469
7 5 0.525469
8 5 0.525469
8 5 0.525469
9 5 0.525469
9 5 0.525469
10 5 0.525469
11 5 0.525469
11 5 0.525469
12 5 0.525469
12 5 0.525469
13 5 0.52547
13 5 0.52547
14 5 0.52547
14 5 0.52547
15 5 0.52547
15 5 0.52547
16 5 0.52547
16 5 0.52547
17 5 0.52547
18 5 0.52547
18.4745 5 1
0.510983 6 1
1 6 0.510983
2 6 0.510971
3 6 0.510959
4 6 0.510951
5 6 0.510947
6 6 0.510946
7 6 0.510945
8 6 0.510945
8 6 0.510945
9 6 0.510946
9 6 0.510946
10 6 0.510946
10 6 0.510946
11 6 0.510946
12 6 0.510947
13 6 0.510947
13 6 0.510947
14 6 0.510947
14 6 0.510947
15 6 0.510947
15 6 0.510947
16 6 0.510948
16 6 0.510948
17 6 0.510948
17 6 0.510948
18 6 0.510948
18.4891 6 1
0.492657 7 1
1 7 0.492657
1 7 0.492657
2 7 0.492625
3 7 0.492594
3 7 0.492594
4 7 0.492578
4 7 0.492578
5 7 0.492573
6 7 0.492573
7 7 0.492573
7 7 0.492573
8 7 0.492574
8 7 0.492574
9 7 0.492575
9 7 0.492575
10 7 0.492576
10 7 0.492576
11 7 0.492576
11 7 0.492576
12 7 0.492577
12 7 0.492577
13 7 0.492577
13 7 0.492577
14 7 0.492577
14 7 0.492577
15 7 0.492578
16 7 0.492578
17 7 0.492578
17 7 0.492578
18 7 0.492578
18 7 0.492578
18.5074 7 1
0.467822 8 1
1 8 0.467822
1 8 0.467822
2 8 0.467713
2 8 0.467713
3 8 0.46761
4 8 0.467575
4 8 0.467575
5 8 0.467573
5 8 0.467573
6 8 0.467577
6 8 0.467577
7 8 0.46758
8 8 0.467583
8 8 0.467583
9 8 0.467585
9 8 0.467585
10 8 0.467586
10 8 0.467586
11 8 0.467587
11 8 0.467587
12 8 0.467587
12 8 0.467587
13 8 0.467588
14 8 0.467588
14 8 0.467588
15 8 0.467588
15 8 0.467588
16 8 0.467588
16 8 0.467588
17 8 0.467589
17 8 0.467589
18 8 0.467589
18 8 0.467589
18.5324 8 1
0.426738 9 1
1 9 0.426738
2 9 0.426597
2 9 0.426597
3 9 0.42659
4 9 0.426673
4 9 0.426673
5 9 0.426721
5 9 0.426721
6 9 0.42674
6 9 0.42674
7 9 0.426749
8 9 0.426754
8 9 0.426754
9 9 0.426757
9 9 0.426757
10 9 0.426758
11 9 0.42676
12 9 0.42676
13 9 0.426761
13 9 0.426761
14 9 0.426761
14 9 0.426761
15 9 0.426762
16 9 0.426762
16 9 0.426762
17 9 0.426762
17 9 0.426762
18 9 0.426762
18.5732 9 1
0.652981 10 1
1 10 0.652981
2 10 0.652238
2 10 0.652238
3 10 0.650597
4 10 0.650247
4 10 0.650247
5 10 0.650309
5 10 0.650309
6 10 0.650324
6 10 0.650324
7 10 0.650329
7 10 0.650329
8 10 0.650331
9 10 0.650332
10 10 0.650333
11 10 0.650333
11 10 0.650333
12 10 0.650333
12 10 0.650333
13 10 0.650333
13 10 0.650333
14 10 0.650333
14 10 0.650333
15 10 0.650333
15 10 0.650333
16 10 0.650334
16 10 0.650334
17 10 0.650334
17 10 0.650334
18 10 0.650334
18 10 0.650334
18.3497 10 1
1 10.3392 1
2 10.3399 1
3 10.3416 1
4 10.342 1
5 10.342 1
6 10.3419 1
7 10.3419 1
8 10.3419 1
9 10.3419 1
10 10.3419 1
11 10.3419 1
12 10.3419 1
13 10.3419 1
14 10.3419 1
15 10.3419 1
16 10.3419 1
17 10.3419 1
18 10.3419 1
1 0.575201 2
0.575185 1 2
2 0.575201 2
3 0.575201 2
4 0.5752 2
5 0.5752 2
6 0.5752 2
7 0.5752 2
8 0.575201 2
9 0.575201 2
10 0.575201 2
11 0.575201 2
12 0.575201 2
13 0.575202 2
14 0.575202 2
15 0.575202 2
16 0.575202 2
17 0.575202 2
18 0.575202 2
18.4248 1 2
0.566363 2 2
0.557908 2 1
18.4336 2 2
0.557211 3 2
0.548277 3 1
18.4428 3 2
0.547412 4 2
0.537645 4 1
18.4526 4 2
0.536604 5 2
18.4634 5 2
0.524303 6 2
18.4757 6 2
0.509834 7 2
0.492657 7 1
18.4902 7 2
0.492561 8 2
0.467822 8 1
18.5075 8 2
0.469421 9 2
18.5304 9 2
1 10 1.56046
0.652981 10 1
1 9.66588 2
1 10 1.56046
2 9.66615 2
2 10 1.56132
3 9.66671 2
3 10 1.5632
3 10 1.5632
4 9.6668 2
4 10 1.56359
5 9.66675 2
5 10 1.56351
6 9.66673 2
6 10 1.56348
7 9.66672 2
7 10 1.56347
8 9.66672 2
8 10 1.56347
8 10 1.56347
9 9.66672 2
9 10 1.56347
10 9.66672 2
10 10 1.56347
11 9.66671 2
11 10 1.56347
11 10 1.56347
12 9.66671 2
12 10 1.56346
13 9.66671 2
13 10 1.56346
13 10 1.56346
14 9.66671 2
14 10 1.56346
14 10 1.56346
15 9.66671 2
15 10 1.56346
16 9.66671 2
16 10 1.56346
17 9.66671 2
17 10 1.56346
18 9.66671 2
18 10 1.56346
1 0.582919 3
0.582904 1 3
2 0.582919 3
3 0.582918 3
4 0.582918 3
5 0.582918 3
6 0.582918 3
7 0.582919 3
8 0.582919 3
9 0.582919 3
10 0.582919 3
11 0.58292 3
12 0.58292 3
13 0.58292 3
14 0.58292 3
15 0.58292 3
16 0.58292 3
17 0.58292 3
18 0.582921 3
18.4171 1 3
0.574527 2 3
0.566363 2 2
18.4255 2 3
0.566106 3 3
18.4339 3 3
0.557417 4 3
0.547412 4 2
18.4426 4 3
0.548277 5 3
0.536604 5 2
18.4517 5 3
0.538533 6 3
0.524303 6 2
18.4615 6 3
0.528142 7 3
0.509834 7 2
18.4718 7 3
0.517565 8 3
18.4824 8 3
0.506917 9 3
0.469421 9 2
18.493 9 3
1 9.5048 3
2 9.50478 3
3 9.50482 3
4 9.50486 3
5 9.50486 3
6 9.50485 3
7 9.50485 3
8 9.50485 3
9 9.50484 3
10 9.50484 3
11 9.50484 3
12 9.50484 3
13 9.50484 3
14 9.50484 3
15 9.50484 3
16 9.50484 3
17 9.50484 3
18 9.50484 3
1 0.589889 4
0.589876 1 4
0.582904 1 3
2 0.589889 4
3 0.589888 4
4 0.589888 4
5 0.589888 4
6 0.589889 4
7 0.589889 4
8 0.589889 4
9 0.589889 4
10 0.589889 4
11 0.58989 4
12 0.58989 4
13 0.58989 4
14 0.58989 4
15 0.58989 4
16 0.58989 4
17 0.589891 4
18 0.589891 4
18.4101 1 4
0.582132 2 4
18.4179 2 4
0.574581 3 4
0.566106 3 3
18.4254 3 4
0.567085 4 4
0.557417 4 3
18.4329 4 4
0.559592 5 4
0.548277 5 3
18.4404 5 4
0.552143 6 4
18.4478 6 4
0.544966 7 4
0.528142 7 3
18.455 7 4
0.538729 8 4
18.4612 8 4
0.533989 9 4
0.506917 9 3
18.466 9 4
1 9.46641 4
2 9.46637 4
3 9.46638 4
4 9.46642 4
5 9.46642 4
6 9.46642 4
7 9.46642 4
8 9.46642 4
9 9.46641 4
10 9.46641 4
11 9.46641 4
12 9.46641 4
13 9.46641 4
14 9.46641 4
15 9.46641 4
16 9.46641 4
17 9.46641 4
18 9.46641 4
1 0.59602 5
0.59601 1 5
0.589876 1 4
2 0.596019 5
3 0.596019 5
4 0.596019 5
5 0.596019 5
6 0.59602 5
7 0.59602 5
8 0.59602 5
9 0.59602 5
10 0.59602 5
11 0.596021 5
12 0.596021 5
13 0.596021 5
14 0.596021 5
15 0.596021 5
16 0.596021 5
17 0.596021 5
18 0.596022 5
18.404 1 5
0.589024 2 5
18.411 2 5
0.582405 3 5
0.574581 3 4
18.4176 3 5
0.576076 4 5
0.567085 4 4
18.4239 4 5
0.57006 5 5
0.559592 5 4
18.4299 5 5
0.564479 6 5
0.552143 6 4
18.4355 6 5
0.55961 7 5
18.4404 7 5
0.556013 8 5
0.538729 8 4
18.4439 8 5
0.55407 9 5
0.533989 9 4
18.4459 9 5
1 9.44594 5
2 9.44591 5
3 9.44593 5
4 9.44594 5
5 9.44595 5
6 9.44595 5
7 9.44595 5
8 9.44595 5
9 9.44595 5
10 9.44595 5
11 9.44595 5
12 9.44595 5
13 9.44595 5
14 9.44595 5
15 9.44595 5
16 9.44595 5
17 9.44595 5
18 9.44595 5
1 0.601291 6
0.601283 1 6
2 0.60129 6
3 0.60129 6
4 0.60129 6
5 0.601291 6
6 0.601291 6
7 0.601291 6
8 0.601291 6
9 0.601291 6
10 0.601291 6
11 0.601291 6
12 0.601292 6
13 0.601292 6
14 0.601292 6
15 0.601292 6
16 0.601292 6
17 0.601292 6
18 0.601292 6
18.3987 1 6
0.595128 2 6
18.4049 2 6
0.589446 3 6
18.4106 3 6
0.584204 4 6
18.4158 4 6
0.579456 5 6
0.57006 5 5
18.4205 5 6
0.575336 6 6
18.4247 6 6
0.572082 7 6
0.55961 7 5
18.4279 7 6
0.570087 8 6
18.4299 8 6
0.56954 9 6
0.55407 9 5
18.4305 9 6
1 9.43046 6
2 9.43044 6
3 9.43045 6
4 9.43046 6
5 9.43047 6
6 9.43048 6
7 9.43047 6
8 9.43047 6
9 9.43048 6
10 9.43048 6
11 9.43048 6
12 9.43048 6
13 9.43048 6
14 9.43048 6
15 9.43048 6
16 9.43048 6
17 9.43048 6
18 9.43048 6
1 0.605733 7
0.605727 1 7
0.601283 1 6
2 0.605733 7
3 0.605733 7
4 0.605733 7
5 0.605733 7
6 0.605733 7
7 0.605733 7
8 0.605733 7
9 0.605733 7
10 0.605733 7
11 0.605733 7
12 0.605733 7
13 0.605734 7
14 0.605734 7
15 0.605734 7
16 0.605734 7
17 0.605734 7
18 0.605734 7
18.3943 1 7
0.600428 2 7
18.3996 2 7
0.595658 3 7
0.589446 3 6
18.4043 3 7
0.591404 4 7
18.4086 4 7
0.58773 5 7
18.4123 5 7
0.584748 6 7
0.575336 6 6
18.4152 6 7
0.582635 7 7
0.572082 7 6
18.4174 7 7
0.581645 8 7
18.4183 8 7
0.581835 9 7
18.4182 9 7
1 9.41817 7
2 9.41815 7
3 9.41815 7
4 9.41816 7
5 9.41818 7
6 9.41818 7
7 9.41818 7
8 9.41818 7
9 9.41818 7
10 9.41818 7
11 9.41819 7
12 9.41819 7
13 9.41819 7
14 9.41818 7
15 9.41818 7
16 9.41818 7
17 9.41818 7
18 9.41818 7
1 0.609408 8
0.609404 1 8
0.605727 1 7
2 0.609408 8
3 0.609408 8
4 0.609408 8
5 0.609408 8
6 0.609408 8
7 0.609408 8
8 0.609408 8
9 0.609408 8
10 0.609408 8
11 0.609408 8
12 0.609409 8
13 0.609409 8
14 0.609409 8
15 0.609409 8
16 0.609409 8
17 0.609409 8
18 0.609409 8
18.3906 1 8
0.604957 2 8
0.600428 2 7
18.395 2 8
0.601054 3 8
0.595658 3 7
18.3989 3 8
0.597695 4 8
0.591404 4 7
18.4023 4 8
0.594934 5 8
0.58773 5 7
18.4051 5 8
0.592856 6 8
18.4071 6 8
0.591577 7 8
0.582635 7 7
18.4084 7 8
0.591253 8 8
18.4087 8 8
0.591862 9 8
0.581835 9 7
18.4082 9 8
1 9.40814 8
2 9.40813 8
3 9.40813 8
4 9.40814 8
5 9.40815 8
6 9.40815 8
7 9.40815 8
8 9.40815 8
9 9.40815 8
10 9.40815 8
11 9.40815 8
12 9.40816 8
13 9.40816 8
14 9.40816 8
15 9.40815 8
16 9.40815 8
17 9.40815 8
18 9.40815 8
1 0.612392 9
0.61239 1 9
0.609404 1 8
2 0.612393 9
3 0.612393 9
4 0.612393 9
5 0.612393 9
6 0.612393 9
7 0.612393 9
8 0.612393 9
9 0.612393 9
10 0.612393 9
11 0.612393 9
12 0.612393 9
13 0.612393 9
14 0.612393 9
15 0.612393 9
16 0.612393 9
17 0.612393 9
18 0.612393 9
18.3876 1 9
0.608771 2 9
18.3912 2 9
0.605688 3 9
0.601054 3 8
18.3943 3 9
0.603142 4 9
0.597695 4 8
18.3969 4 9
0.601172 5 9
18.3988 5 9
0.599836 6 9
0.592856 6 8
18.4002 6 9
0.599202 7 9
18.4008 7 9
0.599353 8 9
0.591253 8 8
18.4006 8 9
0.600229 9 9
18.3998 9 9
1 9.39977 9
2 9.39977 9
3 9.39977 9
4 9.39978 9
5 9.39978 9
6 9.39978 9
7 9.39978 9
8 9.39978 9
9 9.39978 9
10 9.39978 9
11 9.39978 9
12 9.39979 9
13 9.39979 9
14 9.39979 9
15 9.39979 9
16 9.39979 9
17 9.39979 9
18 9.39979 9
1 0.614763 10
0.614761 1 10
0.61239 1 9
2 0.614763 10
3 0.614763 10
4 0.614763 10
5 0.614763 10
6 0.614763 10
7 0.614763 10
8 0.614763 10
9 0.614763 10
10 0.614763 10
11 0.614763 10
12 0.614763 10
13 0.614763 10
14 0.614763 10
15 0.614763 10
16 0.614763 10
17 0.614763 10
18 0.614763 10
18.3852 1 10
0.611939 2 10
0.608771 2 9
18.3881 2 10
0.609629 3 10
0.605688 3 9
18.3904 3 10
0.60783 4 10
18.3922 4 10
0.606565 5 10
18.3934 5 10
0.605865 6 10
18.3941 6 10
0.605761 7 10
0.599202 7 9
18.3942 7 10
0.606287 8 10
18.3937 8 10
0.607362 9 10
18.3927 9 10
1 9.39264 10
2 9.39264 10
3 9.39264 10
4 9.39265 10
5 9.39264 10
6 9.39264 10
7 9.39265 10
8 9.39265 10
9 9.39265 10
10 9.39265 10
11 9.39265 10
12 9.39265 10
13 9.39265 10
14 9.39265 10
15 9.39265 10
16 9.39265 10
17 9.39265 10
18 9.39265 10
1 0.616588 11
0.616587 1 11
0.614761 1 10
2 0.616588 11
3 0.616588 11
4 0.616588 11
5 0.616588 11
6 0.616588 11
7 0.616588 11
8 0.616588 11
9 0.616588 11
10 0.616588 11
11 0.616588 11
12 0.616588 11
13 0.616588 11
14 0.616588 11
15 0.616588 11
16 0.616588 11
17 0.616588 11
18 0.616588 11
18.3834 1 11
0.614528 2 11
0.611939 2 10
18.3855 2 11
0.612953 3 11
18.387 3 11
0.611853 4 11
0.60783 4 10
18.3881 4 11
0.611235 5 11
0.606565 5 10
18.3888 5 11
0.611106 6 11
0.605865 6 10
18.3889 6 11
0.611469 7 11
18.3885 7 11
0.612323 8 11
0.606287 8 10
18.3877 8 11
0.613575 9 11
18.3864 9 11
1 9.38643 11
2 9.38642 11
3 9.38643 11
4 9.38644 11
5 9.38643 11
6 9.38643 11
7 9.38644 11
8 9.38644 11
9 9.38644 11
10 9.38644 11
11 9.38644 11
12 9.38644 11
13 9.38644 11
14 9.38644 11
15 9.38644 11
16 9.38644 11
17 9.38644 11
18 9.38644 11
1 0.617924 12
0.617923 1 12
2 0.617924 12
3 0.617924 12
4 0.617924 12
5 0.617923 12
6 0.617923 12
7 0.617923 12
8 0.617924 12
9 0.617924 12
10 0.617923 12
11 0.617923 12
12 0.617923 12
13 0.617923 12
14 0.617923 12
15 0.617924 12
16 0.617924 12
17 0.617924 12
18 0.617924 12
18.3821 1 12
0.616598 2 12
0.614528 2 11
18.3834 2 12
0.615729 3 12
0.612953 3 11
18.3843 3 12
0.615296 4 12
0.611853 4 11
18.3847 4 12
0.615291 5 12
0.611235 5 11
18.3847 5 12
0.615701 6 12
18.3843 6 12
0.616504 7 12
18.3835 7 12
0.617673 8 12
0.612323 8 11
18.3823 8 12
0.619107 9 12
0.613575 9 11
18.3809 9 12
1 9.38089 12
2 9.3809 12
3 9.38091 12
4 9.38091 12
5 9.38091 12
6 9.38091 12
7 9.38091 12
8 9.38091 12
9 9.3809 12
10 9.3809 12
11 9.38091 12
12 9.38091 12
13 9.38091 12
14 9.38091 12
15 9.38091 12
16 9.38091 12
17 9.38091 12
18 9.38091 12
1 0.618837 13
0.618836 1 13
2 0.618837 13
3 0.618838 13
4 0.618837 13
5 0.618836 13
6 0.618836 13
7 0.618837 13
8 0.618837 13
9 0.618837 13
10 0.618836 13
11 0.618836 13
12 0.618836 13
13 0.618837 13
14 0.618837 13
15 0.618837 13
16 0.618837 13
17 0.618837 13
18 0.618837 13
18.3821 1 12
18.3812 1 13
0.618208 2 13
18.3818 2 13
0.618012 3 13
18.382 3 13
0.618215 4 13
18.3818 4 13
0.618794 5 13
0.615291 5 12
18.3812 5 13
0.619719 6 13
18.3803 6 13
0.620947 7 13
18.3791 7 13
0.622431 8 13
0.617673 8 12
18.3776 8 13
0.624062 9 13
18.376 9 13
1 9.37594 13
2 9.37595 13
3 9.37595 13
4 9.37595 13
5 9.37595 13
6 9.37595 13
7 9.37595 13
8 9.37595 13
9 9.37595 13
10 9.37595 13
11 9.37595 13
12 9.37595 13
13 9.37595 13
14 9.37596 13
15 9.37596 13
16 9.37596 13
17 9.37596 13
18 9.37596 13
1 1 13.3812
2 1 13.3812
3 1 13.3812
4 1 13.3812
5 1 13.3812
6 1 13.3812
7 1 13.3812
8 1 13.3812
9 1 13.3812
10 1 13.3812
11 1 13.3812
12 1 13.3812
13 1 13.3812
14 1 13.3812
15 1 13.3812
16 1 13.3812
17 1 13.3812
18 1 13.3812
1 2 13.3818
2 2 13.3818
3 2 13.3818
4 2 13.3818
5 2 13.3818
6 2 13.3818
7 2 13.3818
8 2 13.3818
9 2 13.3818
10 2 13.3818
11 2 13.3818
12 2 13.3818
13 2 13.3818
14 2 13.3818
15 2 13.3818
16 2 13.3818
17 2 13.3818
18 2 13.3818
0.618012 3 13
1 3 13.382
2 3 13.382
3 3 13.382
4 3 13.382
5 3 13.382
6 3 13.382
7 3 13.382
8 3 13.382
9 3 13.382
10 3 13.382
11 3 13.382
12 3 13.382
13 3 13.382
14 3 13.382
15 3 13.382
16 3 13.382
17 3 13.382
18 3 13.382
1 4 13.3818
2 4 13.3818
3 4 13.3818
4 4 13.3818
5 4 13.3818
6 4 13.3818
7 4 13.3818
8 4 13.3818
9 4 13.3818
10 4 13.3818
11 4 13.3818
12 4 13.3818
13 4 13.3818
14 4 13.3818
15 4 13.3818
16 4 13.3818
17 4 13.3818
17 4 13.3818
18 4 13.3818
1 5 13.3812
2 5 13.3812
3 5 13.3812
4 5 13.3812
5 5 13.3812
6 5 13.3812
7 5 13.3812
8 5 13.3812
9 5 13.3812
10 5 13.3812
11 5 13.3812
12 5 13.3812
13 5 13.3812
14 5 13.3812
15 5 13.3812
16 5 13.3812
17 5 13.3812
18 5 13.3812
18 5 13.3812
0.619719 6 13
1 6 13.3803
2 6 13.3803
3 6 13.3803
4 6 13.3803
5 6 13.3803
6 6 13.3803
7 6 13.3803
8 6 13.3803
9 6 13.3803
10 6 13.3803
11 6 13.3803
12 6 13.3803
13 6 13.3803
14 6 13.3803
15 6 13.3803
16 6 13.3803
17 6 13.3803
18 6 13.3803
0.620947 7 13
1 7 13.379
2 7 13.379
3 7 13.379
4 7 13.3791
5 7 13.3791
6 7 13.3791
7 7 13.3791
8 7 13.3791
9 7 13.3791
10 7 13.3791
11 7 13.3791
12 7 13.3791
13 7 13.3791
14 7 13.3791
15 7 13.3791
16 7 13.3791
17 7 13.3791
18 7 13.3791
0.622431 8 13
1 8 13.3776
2 8 13.3776
3 8 13.3776
4 8 13.3776
5 8 13.3776
6 8 13.3776
7 8 13.3776
8 8 13.3776
9 8 13.3776
10 8 13.3776
11 8 13.3776
11 8 13.3776
12 8 13.3776
13 8 13.3776
14 8 13.3776
15 8 13.3776
16 8 13.3776
17 8 13.3776
18 8 13.3776
1 9 13.3759
2 9 13.3759
3 9 13.376
4 9 13.3759
5 9 13.3759
6 9 13.3759
7 9 13.3759
8 9 13.3759
9 9 13.3759
10 9 13.3759
11 9 13.3759
12 9 13.3759
13 9 13.376
14 9 13.376
15 9 13.376
16 9 13.376
17 9 13.376
18 9 13.376
3 0 1 2
3 2 3 4
3 4 3 5
3 4 6 7
3 7 6 8
3 7 8 9
3 9 8 10
3 9 11 12
3 12 11 13
3 12 14 15
3 15 14 16
3 15 16 17
3 17 16 18
3 17 18 19
3 19 18 20
3 19 20 21
3 21 20 22
3 21 22 23
3 23 22 24
3 23 25 26
3 26 25 27
3 26 28 29
3 29 28 30
3 29 30 31
3 31 30 32
3 31 32 33
3 33 32 34
3 33 34 35
3 35 34 36
3 35 37 38
3 38 37 39
3 38 39 40
3 40 39 41
3 40 42 43
3 43 42 44
3 44 45 43
3 46 47 0
3 0 47 1
3 47 5 3
3 48 5 47
3 49 8 6
3 50 8 49
3 51 10 8
3 52 10 51
3 53 13 11
3 54 13 53
3 54 16 14
3 55 16 54
3 55 18 16
3 56 18 55
3 57 20 18
3 58 20 57
3 59 22 20
3 60 22 59
3 60 24 22
3 61 24 60
3 61 27 25
3 62 27 61
3 62 30 28
3 63 30 62
3 64 32 30
3 65 32 64
3 66 34 32
3 67 34 66
3 67 36 34
3 68 36 67
3 68 39 37
3 69 39 68
3 69 41 39
3 70 41 69
3 71 44 42
3 72 44 71
3 73 74 44
3 44 74 45
3 75 76 46
3 46 76 47
3 76 48 47
3 77 48 76
3 77 50 49
3 78 50 77
3 78 52 51
3 79 52 78
3 79 54 53
3 80 54 79
3 80 55 54
3 81 55 80
3 82 56 55
3 83 56 82
3 84 58 57
3 85 58 84
3 86 60 59
3 87 60 86
3 88 61 60
3 89 61 88
3 90 62 61
3 91 62 90
3 91 63 62
3 92 63 91
3 92 65 64
3 93 65 92
3 94 67 66
3 95 67 94
3 96 68 67
3 97 68 96
3 98 69 68
3 99 69 98
3 100 70 69
3 101 70 100
3 101 72 71
3 102 72 101
3 103 104 73
3 73 104 74
3 105 106 75
3 75 106 76
3 107 77 76
3 108 77 107
3 109 78 77
3 110 78 109
3 110 79 78
3 111 79 110
3 112 80 79
3 113 80 112
3 114 81 80
3 115 81 114
3 115 83 82
3 116 83 115
3 116 85 84
3 117 85 116
3 118 87 86
3 119 87 118
3 119 89 88
3 120 89 119
3 121 91 90
3 122 91 121
3 122 92 91
3 123 92 122
3 123 93 92
3 124 93 123
3 125 95 94
3 126 95 125
3 127 97 96
3 128 97 127
3 129 99 98
3 130 99 129
3 131 101 100
3 132 101 131
3 133 102 101
3 134 102 133
3 135 136 103
3 103 136 104
3 137 138 105
3 105 138 106
3 139 108 107
3 140 108 139
3 141 110 109
3 142 110 141
3 142 111 110
3 143 111 142
3 144 113 112
3 145 113 144
3 146 115 114
3 147 115 146
3 148 116 115
3 149 116 148
3 150 117 116
3 151 117 150
3 152 119 118
3 153 119 152
3 154 120 119
3 155 120 154
3 155 122 121
3 156 122 155
3 157 123 122
3 158 123 157
3 159 124 123
3 160 124 159
3 161 126 125
3 162 126 161
3 163 128 127
3 164 128 163
3 165 130 129
3 166 130 165
3 167 132 131
3 168 132 167
3 168 134 133
3 169 134 168
3 169 170 135
3 135 170 136
3 171 172 137
3 137 172 138
3 172 140 139
3 173 140 172
3 173 142 141
3 174 142 173
3 174 143 142
3 175 143 174
3 175 145 144
3 176 145 175
3 176 147 146
3 177 147 176
3 177 149 148
3 178 149 177
3 178 151 150
3 179 151 178
3 180 153 152
3 181 153 180
3 182 155 154
3 183 155 182
3 184 156 155
3 185 156 184
3 185 158 157
3 186 158 185
3 186 160 159
3 187 160 186
3 188 162 161
3 189 162 188
3 190 164 163
3 191 164 190
3 192 166 165
3 193 166 192
3 194 168 167
3 195 168 194
3 196 169 168
3 197 169 196
3 197 198 169
3 169 198 170
3 199 200 171
3 171 200 172
3 201 173 172
3 202 173 201
3 202 174 173
3 203 174 202
3 204 175 174
3 205 175 204
3 206 176 175
3 207 176 206
3 207 177 176
3 208 177 207
3 208 178 177
3 209 178 208
3 210 179 178
3 211 179 210
3 212 181 180
3 213 181 212
3 214 183 182
3 215 183 214
3 216 185 184
3 217 185 216
3 218 186 185
3 219 186 218
3 220 187 186
3 221 187 220
3 222 189 188
3 223 189 222
3 224 191 190
3 225 191 224
3 225 193 192
3 226 193 225
3 226 195 194
3 227 195 226
3 228 197 196
3 229 197 228
3 230 231 197
3 197 231 198
3 232 233 199
3 199 233 200
3 234 202 201
3 235 202 234
3 236 203 202
3 237 203 236
3 237 205 204
3 238 205 237
3 239 207 206
3 240 207 239
3 241 208 207
3 242 208 241
3 243 209 208
3 244 209 243
3 244 211 210
3 245 211 244
3 246 213 212
3 247 213 246
3 248 215 214
3 249 215 248
3 250 217 216
3 251 217 250
3 252 219 218
3 253 219 252
3 254 221 220
3 255 221 254
3 255 223 222
3 256 223 255
3 257 225 224
3 258 225 257
3 259 226 225
3 260 226 259
3 261 227 226
3 262 227 261
3 263 229 228
3 264 229 263
3 265 266 230
3 230 266 231
3 267 268 232
3 232 268 233
3 268 235 234
3 269 235 268
3 270 237 236
3 271 237 270
3 271 238 237
3 272 238 271
3 273 240 239
3 274 240 273
3 275 242 241
3 276 242 275
3 277 244 243
3 278 244 277
3 278 245 244
3 279 245 278
3 280 247 246
3 281 247 280
3 282 249 248
3 283 249 282
3 283 251 250
3 284 251 283
3 284 253 252
3 285 253 284
3 285 255 254
3 286 255 285
3 287 256 255
3 288 256 287
3 289 258 257
3 290 258 289
3 290 260 259
3 291 260 290
3 292 262 261
3 293 262 292
3 294 264 263
3 295 264 294
3 295 296 265
3 265 296 266
3 297 298 267
3 267 298 268
3 298 269 268
3 299 269 298
3 300 271 270
3 301 271 300
3 301 272 271
3 302 272 301
3 303 274 273
3 304 274 303
3 305 276 275
3 306 276 305
3 307 278 277
3 308 278 307
3 309 279 278
3 310 279 309
3 310 281 280
3 311 281 310
3 311 283 282
3 312 283 311
3 312 284 283
3 313 284 312
3 314 285 284
3 315 285 314
3 316 286 285
3 317 286 316
3 318 288 287
3 319 288 318
3 320 290 289
3 321 290 320
3 322 291 290
3 323 291 322
3 324 293 292
3 325 293 324
3 326 295 294
3 327 295 326
3 328 329 295
3 295 329 296
3 330 298 297
3 331 299 330
3 330 299 298
3 332 301 331
3 331 301 300
3 333 302 332
3 332 302 301
3 334 304 333
3 333 304 303
3 335 306 334
3 334 306 305
3 336 308 335
3 335 308 307
3 337 310 336
3 336 310 309
3 338 311 337
3 337 311 310
3 339 312 338
3 338 312 311
3 340 313 339
3 339 313 312
3 341 315 340
3 340 315 314
3 342 317 341
3 341 317 316
3 343 319 342
3 342 319 318
3 344 321 343
3 343 321 320
3 345 323 344
3 344 323 322
3 346 325 345
3 345 325 324
3 347 327 346
3 346 327 326
3 347 329 328
3 348 349 2
3 2 349 0
3 2 350 348
3 2 4 350
3 4 351 350
3 4 7 351
3 7 352 351
3 7 9 352
3 9 353 352
3 9 12 353
3 12 354 353
3 12 15 354
3 15 355 354
3 15 17 355
3 17 356 355
3 17 19 356
3 19 357 356
3 19 21 357
3 21 358 357
3 21 23 358
3 23 359 358
3 23 26 359
3 26 360 359
3 26 29 360
3 29 361 360
3 29 31 361
3 31 362 361
3 31 33 362
3 33 363 362
3 33 35 363
3 35 364 363
3 35 38 364
3 38 365 364
3 38 40 365
3 40 366 365
3 40 43 366
3 43 45 366
3 366 45 367
3 368 0 349
3 368 369 0
3 45 370 367
3 74 370 45
3 371 369 368
3 371 372 369
3 74 373 370
3 104 373 74
3 374 372 371
3 374 375 372
3 104 376 373
3 136 376 104
3 377 375 374
3 377 137 375
3 136 378 376
3 170 378 136
3 379 137 377
3 379 171 137
3 170 380 378
3 198 380 170
3 381 171 379
3 381 382 171
3 198 383 380
3 231 383 198
3 384 382 381
3 384 385 382
3 231 386 383
3 266 386 231
3 387 385 384
3 387 267 385
3 266 388 386
3 296 388 266
3 389 390 391
3 390 387 391
3 390 267 387
3 392 391 393
3 392 393 394
3 394 393 395
3 394 395 396
3 397 395 398
3 397 398 399
3 399 398 400
3 399 400 401
3 401 400 402
3 401 402 403
3 403 402 404
3 403 404 405
3 405 404 406
3 405 406 407
3 408 406 409
3 408 409 410
3 410 409 411
3 410 411 412
3 412 411 413
3 412 413 414
3 415 413 416
3 415 416 417
3 417 416 418
3 417 418 419
3 420 418 421
3 420 421 422
3 423 421 424
3 423 424 425
3 425 424 426
3 425 426 427
3 427 426 428
3 427 428 429
3 429 428 430
3 429 430 431
3 430 388 431
3 388 329 431
3 388 296 329
3 389 330 390
3 394 331 392
3 392 331 330
3 396 332 394
3 394 332 331
3 399 333 397
3 397 333 332
3 401 334 399
3 399 334 333
3 403 335 401
3 401 335 334
3 405 336 403
3 403 336 335
3 407 337 405
3 405 337 336
3 410 338 408
3 408 338 337
3 412 339 410
3 410 339 338
3 414 340 412
3 412 340 339
3 417 341 415
3 415 341 340
3 419 342 417
3 417 342 341
3 422 343 420
3 420 343 342
3 425 344 423
3 423 344 343
3 427 345 425
3 425 345 344
3 429 346 427
3 427 346 345
3 431 347 429
3 429 347 346
3 329 347 431
3 432 433 348
3 348 433 349
3 348 434 432
3 348 350 434
3 350 435 434
3 350 351 435
3 351 436 435
3 351 352 436
3 352 437 436
3 352 353 437
3 353 438 437
3 353 354 438
3 354 439 438
3 354 355 439
3 355 440 439
3 355 356 440
3 356 441 440
3 356 357 441
3 357 442 441
3 357 358 442
3 358 443 442
3 358 359 443
3 359 444 443
3 359 360 444
3 360 445 444
3 360 361 445
3 361 446 445
3 361 362 446
3 362 447 446
3 362 363 447
3 363 448 447
3 363 364 448
3 364 449 448
3 364 365 449
3 365 450 449
3 365 366 450
3 366 367 450
3 450 367 451
3 452 349 433
3 452 453 349
3 367 454 451
3 370 454 367
3 455 453 452
3 455 371 453
3 370 456 454
3 373 456 370
3 457 371 455
3 457 458 371
3 373 459 456
3 376 459 373
3 460 458 457
3 460 461 458
3 376 462 459
3 378 462 376
3 463 461 460
3 463 464 461
3 378 465 462
3 380 465 378
3 466 464 463
3 466 467 464
3 380 468 465
3 383 468 380
3 469 467 466
3 469 384 467
3 383 470 468
3 386 470 383
3 471 384 469
3 471 472 384
3 386 473 470
3 388 473 386
3 471 474 472
3 472 474 391
3 475 391 474
3 393 391 475
3 476 393 475
3 395 393 476
3 477 395 476
3 398 395 477
3 478 398 477
3 400 398 478
3 479 400 478
3 402 400 479
3 480 402 479
3 404 402 480
3 481 404 480
3 406 404 481
3 482 406 481
3 409 406 482
3 483 409 482
3 411 409 483
3 484 411 483
3 413 411 484
3 485 413 484
3 416 413 485
3 486 416 485
3 418 416 486
3 487 418 486
3 421 418 487
3 488 421 487
3 424 421 488
3 489 424 488
3 426 424 489
3 490 426 489
3 428 426 490
3 491 428 490
3 430 428 491
3 388 430 473
3 473 430 491
3 492 493 432
3 432 493 494
3 432 495 492
3 432 434 495
3 434 496 495
3 434 435 496
3 435 497 496
3 435 436 497
3 436 498 497
3 436 437 498
3 437 499 498
3 437 438 499
3 438 500 499
3 438 439 500
3 439 501 500
3 439 440 501
3 440 502 501
3 440 441 502
3 441 503 502
3 441 442 503
3 442 504 503
3 442 443 504
3 443 505 504
3 443 444 505
3 444 506 505
3 444 445 506
3 445 507 506
3 445 446 507
3 446 508 507
3 446 447 508
3 447 509 508
3 447 448 509
3 448 510 509
3 448 449 510
3 449 511 510
3 449 450 511
3 450 451 511
3 511 451 512
3 513 494 493
3 513 452 494
3 451 514 512
3 454 514 451
3 515 452 513
3 515 516 452
3 454 517 514
3 456 517 454
3 518 516 515
3 518 519 516
3 456 520 517
3 459 520 456
3 521 519 518
3 521 522 519
3 459 523 520
3 462 523 459
3 524 522 521
3 524 463 522
3 462 525 523
3 465 525 462
3 526 463 524
3 526 527 463
3 465 528 525
3 468 528 465
3 529 527 526
3 529 469 527
3 468 530 528
3 470 530 468
3 531 469 529
3 531 532 469
3 470 533 530
3 473 533 470
3 531 534 532
3 532 534 474
3 535 474 534
3 475 474 535
3 536 475 535
3 476 475 536
3 537 476 536
3 477 476 537
3 538 477 537
3 478 477 538
3 539 478 538
3 479 478 539
3 540 479 539
3 480 479 540
3 541 480 540
3 481 480 541
3 542 481 541
3 482 481 542
3 543 482 542
3 483 482 543
3 544 483 543
3 484 483 544
3 545 484 544
3 485 484 545
3 546 485 545
3 486 485 546
3 547 486 546
3 487 486 547
3 548 487 547
3 488 487 548
3 549 488 548
3 489 488 549
3 550 489 549
3 490 489 550
3 551 490 550
3 491 490 551
3 473 491 533
3 533 491 551
3 552 553 492
3 492 553 554
3 492 555 552
3 492 495 555
3 495 556 555
3 495 496 556
3 496 557 556
3 496 497 557
3 497 558 557
3 497 498 558
3 498 559 558
3 498 499 559
3 499 560 559
3 499 500 560
3 500 561 560
3 500 501 561
3 501 562 561
3 501 502 562
3 502 563 562
3 502 503 563
3 503 564 563
3 503 504 564
3 504 565 564
3 504 505 565
3 505 566 565
3 505 506 566
3 506 567 566
3 506 507 567
3 507 568 567
3 507 508 568
3 508 569 568
3 508 509 569
3 509 570 569
3 509 510 570
3 510 571 570
3 510 511 571
3 511 512 571
3 571 512 572
3 573 554 553
3 573 513 554
3 512 574 572
3 514 574 512
3 575 513 573
3 575 576 513
3 514 577 574
3 517 577 514
3 578 576 575
3 578 579 576
3 517 580 577
3 520 580 517
3 581 579 578
3 581 582 579
3 520 583 580
3 523 583 520
3 584 582 581
3 584 585 582
3 523 586 583
3 525 586 523
3 587 585 584
3 587 526 585
3 525 588 586
3 528 588 525
3 589 526 587
3 589 590 526
3 528 591 588
3 530 591 528
3 592 590 589
3 592 593 590
3 530 594 591
3 533 594 530
3 592 595 593
3 593 595 534
3 596 534 595
3 535 534 596
3 597 535 596
3 536 535 597
3 598 536 597
3 537 536 598
3 599 537 598
3 538 537 599
3 600 538 599
3 539 538 600
3 601 539 600
3 540 539 601
3 602 540 601
3 541 540 602
3 603 541 602
3 542 541 603
3 604 542 603
3 543 542 604
3 605 543 604
3 544 543 605
3 606 544 605
3 545 544 606
3 607 545 606
3 546 545 607
3 608 546 607
3 547 546 608
3 609 547 608
3 548 547 609
3 610 548 609
3 549 548 610
3 611 549 610
3 550 549 611
3 612 550 611
3 551 550 612
3 533 551 594
3 594 551 612
3 613 614 552
3 552 614 553
3 552 615 613
3 552 555 615
3 555 616 615
3 555 556 616
3 556 617 616
3 556 557 617
3 557 618 617
3 557 558 618
3 558 619 618
3 558 559 619
3 559 620 619
3 559 560 620
3 560 621 620
3 560 561 621
3 561 622 621
3 561 562 622
3 562 623 622
3 562 563 623
3 563 624 623
3 563 564 624
3 564 625 624
3 564 565 625
3 565 626 625
3 565 566 626
3 566 627 626
3 566 567 627
3 567 628 627
3 567 568 628
3 568 629 628
3 568 569 629
3 569 630 629
3 569 570 630
3 570 631 630
3 570 571 631
3 571 572 631
3 631 572 632
3 633 553 614
3 633 573 553
3 572 634 632
3 574 634 572
3 635 573 633
3 635 575 573
3 574 636 634
3 577 636 574
3 637 575 635
3 637 578 575
3 577 638 636
3 580 638 577
3 639 578 637
3 639 640 578
3 580 641 638
3 583 641 580
3 642 640 639
3 642 584 640
3 583 643 641
3 586 643 583
3 644 584 642
3 644 645 584
3 586 646 643
3 588 646 586
3 647 645 644
3 647 589 645
3 588 648 646
3 591 648 588
3 649 589 647
3 649 650 589
3 591 651 648
3 594 651 591
3 649 652 650
3 650 652 595
3 653 595 652
3 596 595 653
3 654 596 653
3 597 596 654
3 655 597 654
3 598 597 655
3 656 598 655
3 599 598 656
3 657 599 656
3 600 599 657
3 658 600 657
3 601 600 658
3 659 601 658
3 602 601 659
3 660 602 659
3 603 602 660
3 661 603 660
3 604 603 661
3 662 604 661
3 605 604 662
3 663 605 662
3 606 605 663
3 664 606 663
3 607 606 664
3 665 607 664
3 608 607 665
3 666 608 665
3 609 608 666
3 667 609 666
3 610 609 667
3 668 610 667
3 611 610 668
3 669 611 668
3 612 611 669
3 594 612 651
3 651 612 669
3 670 671 613
3 613 671 672
3 613 673 670
3 613 615 673
3 615 674 673
3 615 616 674
3 616 675 674
3 616 617 675
3 617 676 675
3 617 618 676
3 618 677 676
3 618 619 677
3 619 678 677
3 619 620 678
3 620 679 678
3 620 621 679
3 621 680 679
3 621 622 680
3 622 681 680
3 622 623 681
3 623 682 681
3 623 624 682
3 624 683 682
3 624 625 683
3 625 684 683
3 625 626 684
3 626 685 684
3 626 627 685
3 627 686 685
3 627 628 686
3 628 687 686
3 628 629 687
3 629 688 687
3 629 630 688
3 630 689 688
3 630 631 689
3 631 632 689
3 689 632 690
3 691 672 671
3 691 633 672
3 632 692 690
3 634 692 632
3 693 633 691
3 693 694 633
3 634 695 692
3 636 695 634
3 696 694 693
3 696 637 694
3 636 697 695
3 638 697 636
3 698 637 696
3 698 639 637
3 638 699 697
3 641 699 638
3 700 639 698
3 700 701 639
3 641 702 699
3 643 702 641
3 703 701 700
3 703 704 701
3 643 705 702
3 646 705 643
3 706 704 703
3 706 647 704
3 646 707 705
3 648 707 646
3 708 647 706
3 708 649 647
3 648 709 707
3 651 709 648
3 708 710 649
3 649 710 652
3 711 652 710
3 653 652 711
3 712 653 711
3 654 653 712
3 713 654 712
3 655 654 713
3 714 655 713
3 656 655 714
3 715 656 714
3 657 656 715
3 716 657 715
3 658 657 716
3 717 658 716
3 659 658 717
3 718 659 717
3 660 659 718
3 719 660 718
3 661 660 719
3 720 661 719
3 662 661 720
3 721 662 720
3 663 662 721
3 722 663 721
3 664 663 722
3 723 664 722
3 665 664 723
3 724 665 723
3 666 665 724
3 725 666 724
3 667 666 725
3 726 667 725
3 668 667 726
3 727 668 726
3 669 668 727
3 651 669 709
3 709 669 727
3 728 729 670
3 670 729 730
3 670 731 728
3 670 673 731
3 673 732 731
3 673 674 732
3 674 733 732
3 674 675 733
3 675 734 733
3 675 676 734
3 676 735 734
3 676 677 735
3 677 736 735
3 677 678 736
3 678 737 736
3 678 679 737
3 679 738 737
3 679 680 738
3 680 739 738
3 680 681 739
3 681 740 739
3 681 682 740
3 682 741 740
3 682 683 741
3 683 742 741
3 683 684 742
3 684 743 742
3 684 685 743
3 685 744 743
3 685 686 744
3 686 745 744
3 686 687 745
3 687 746 745
3 687 688 746
3 688 747 746
3 688 689 747
3 689 690 747
3 747 690 748
3 749 730 729
3 749 750 730
3 690 751 748
3 692 751 690
3 752 750 749
3 752 753 750
3 692 754 751
3 695 754 692
3 755 753 752
3 755 756 753
3 695 757 754
3 697 757 695
3 758 756 755
3 758 759 756
3 697 760 757
3 699 760 697
3 761 759 758
3 761 700 759
3 699 762 760
3 702 762 699
3 763 700 761
3 763 764 700
3 702 765 762
3 705 765 702
3 766 764 763
3 766 706 764
3 705 767 765
3 707 767 705
3 768 706 766
3 768 769 706
3 707 770 767
3 709 770 707
3 768 771 769
3 769 771 710
3 772 710 771
3 711 710 772
3 773 711 772
3 712 711 773
3 774 712 773
3 713 712 774
3 775 713 774
3 714 713 775
3 776 714 775
3 715 714 776
3 777 715 776
3 716 715 777
3 778 716 777
3 717 716 778
3 779 717 778
3 718 717 779
3 780 718 779
3 719 718 780
3 781 719 780
3 720 719 781
3 782 720 781
3 721 720 782
3 783 721 782
3 722 721 783
3 784 722 783
3 723 722 784
3 785 723 784
3 724 723 785
3 786 724 785
3 725 724 786
3 787 725 786
3 726 725 787
3 788 726 787
3 727 726 788
3 709 727 770
3 770 727 788
3 789 790 728
3 728 790 791
3 728 792 789
3 728 731 792
3 731 793 792
3 731 732 793
3 732 794 793
3 732 733 794
3 733 795 794
3 733 734 795
3 734 796 795
3 734 735 796
3 735 797 796
3 735 736 797
3 736 798 797
3 736 737 798
3 737 799 798
3 737 738 799
3 738 800 799
3 738 739 800
3 739 801 800
3 739 740 801
3 740 802 801
3 740 741 802
3 741 803 802
3 741 742 803
3 742 804 803
3 742 743 804
3 743 805 804
3 743 744 805
3 744 806 805
3 744 745 806
3 745 807 806
3 745 746 807
3 746 808 807
3 746 747 808
3 747 748 808
3 808 748 809
3 810 791 790
3 810 749 791
3 748 811 809
3 751 811 748
3 812 749 810
3 812 813 749
3 751 814 811
3 754 814 751
3 815 813 812
3 815 816 813
3 754 817 814
3 757 817 754
3 818 816 815
3 818 758 816
3 757 819 817
3 760 819 757
3 820 758 818
3 820 821 758
3 760 822 819
3 762 822 760
3 823 821 820
3 823 763 821
3 762 824 822
3 765 824 762
3 825 763 823
3 825 826 763
3 765 827 824
3 767 827 765
3 828 826 825
3 828 768 826
3 767 829 827
3 770 829 767
3 828 830 768
3 768 830 771
3 831 771 830
3 772 771 831
3 832 772 831
3 773 772 832
3 833 773 832
3 774 773 833
3 834 774 833
3 775 774 834
3 835 775 834
3 776 775 835
3 836 776 835
3 777 776 836
3 837 777 836
3 778 777 837
3 838 778 837
3 779 778 838
3 839 779 838
3 780 779 839
3 840 780 839
3 781 780 840
3 841 781 840
3 782 781 841
3 842 782 841
3 783 782 842
3 843 783 842
3 784 783 843
3 844 784 843
3 785 784 844
3 845 785 844
3 786 785 845
3 846 786 845
3 787 786 846
3 847 787 846
3 788 787 847
3 770 788 829
3 829 788 847
3 848 849 789
3 789 849 850
3 789 851 848
3 789 792 851
3 792 852 851
3 792 793 852
3 793 853 852
3 793 794 853
3 794 854 853
3 794 795 854
3 795 855 854
3 795 796 855
3 796 856 855
3 796 797 856
3 797 857 856
3 797 798 857
3 798 858 857
3 798 799 858
3 799 859 858
3 799 800 859
3 800 860 859
3 800 801 860
3 801 861 860
3 801 802 861
3 802 862 861
3 802 803 862
3 803 863 862
3 803 804 863
3 804 864 863
3 804 805 864
3 805 865 864
3 805 806 865
3 806 866 865
3 806 807 866
3 807 867 866
3 807 808 867
3 808 809 867
3 867 809 868
3 869 850 849
3 869 870 850
3 809 871 868
3 811 871 809
3 872 870 869
3 872 873 870
3 811 874 871
3 814 874 811
3 875 873 872
3 875 815 873
3 814 876 874
3 817 876 814
3 877 815 875
3 877 818 815
3 817 878 876
3 819 878 817
3 879 818 877
3 879 820 818
3 819 880 878
3 822 880 819
3 881 820 879
3 881 882 820
3 822 883 880
3 824 883 822
3 884 882 881
3 884 825 882
3 824 885 883
3 827 885 824
3 886 825 884
3 886 828 825
3 827 887 885
3 829 887 827
3 886 888 828
3 828 888 830
3 889 830 888
3 831 830 889
3 890 831 889
3 832 831 890
3 891 832 890
3 833 832 891
3 892 833 891
3 834 833 892
3 893 834 892
3 835 834 893
3 894 835 893
3 836 835 894
3 895 836 894
3 837 836 895
3 896 837 895
3 838 837 896
3 897 838 896
3 839 838 897
3 898 839 897
3 840 839 898
3 899 840 898
3 841 840 899
3 900 841 899
3 842 841 900
3 901 842 900
3 843 842 901
3 902 843 901
3 844 843 902
3 903 844 902
3 845 844 903
3 904 845 903
3 846 845 904
3 905 846 904
3 847 846 905
3 829 847 887
3 887 847 905
3 906 907 848
3 848 907 908
3 848 909 906
3 848 851 909
3 851 910 909
3 851 852 910
3 852 911 910
3 852 853 911
3 853 912 911
3 853 854 912
3 854 913 912
3 854 855 913
3 855 914 913
3 855 856 914
3 856 915 914
3 856 857 915
3 857 916 915
3 857 858 916
3 858 917 916
3 858 859 917
3 859 918 917
3 859 860 918
3 860 919 918
3 860 861 919
3 861 920 919
3 861 862 920
3 862 921 920
3 862 863 921
3 863 922 921
3 863 864 922
3 864 923 922
3 864 865 923
3 865 924 923
3 865 866 924
3 866 925 924
3 866 867 925
3 867 868 925
3 925 868 926
3 927 908 907
3 927 928 908
3 868 929 926
3 871 929 868
3 930 928 927
3 930 872 928
3 871 931 929
3 874 931 871
3 932 872 930
3 932 933 872
3 874 934 931
3 876 934 874
3 935 933 932
3 935 936 933
3 876 937 934
3 878 937 876
3 938 936 935
3 938 939 936
3 878 940 937
3 880 940 878
3 941 939 938
3 941 881 939
3 880 942 940
3 883 942 880
3 943 881 941
3 943 944 881
3 883 945 942
3 885 945 883
3 946 944 943
3 946 886 944
3 885 947 945
3 887 947 885
3 946 948 886
3 886 948 888
3 949 888 948
3 889 888 949
3 950 889 949
3 890 889 950
3 951 890 950
3 891 890 951
3 952 891 951
3 892 891 952
3 953 892 952
3 893 892 953
3 954 893 953
3 894 893 954
3 955 894 954
3 895 894 955
3 956 895 955
3 896 895 956
3 957 896 956
3 897 896 957
3 958 897 957
3 898 897 958
3 959 898 958
3 899 898 959
3 960 899 959
3 900 899 960
3 961 900 960
3 901 900 961
3 962 901 961
3 902 901 962
3 963 902 962
3 903 902 963
3 964 903 963
3 904 903 964
3 965 904 964
3 905 904 965
3 887 905 947
3 947 905 965
3 966 967 906
3 906 967 907
3 906 968 966
3 906 909 968
3 909 969 968
3 909 910 969
3 910 970 969
3 910 911 970
3 911 971 970
3 911 912 971
3 912 972 971
3 912 913 972
3 913 973 972
3 913 914 973
3 914 974 973
3 914 915 974
3 915 975 974
3 915 916 975
3 916 976 975
3 916 917 976
3 917 977 976
3 917 918 977
3 918 978 977
3 918 919 978
3 919 979 978
3 919 920 979
3 920 980 979
3 920 921 980
3 921 981 980
3 921 922 981
3 922 982 981
3 922 923 982
3 923 983 982
3 923 924 983
3 924 984 983
3 924 925 984
3 925 926 984
3 984 926 985
3 986 907 967
3 986 987 907
3 926 988 985
3 929 988 926
3 989 987 986
3 989 990 987
3 929 991 988
3 931 991 929
3 992 990 989
3 992 993 990
3 931 994 991
3 934 994 931
3 995 993 992
3 995 996 993
3 934 997 994
3 937 997 934
3 998 996 995
3 998 938 996
3 937 999 997
3 940 999 937
3 1000 938 998
3 1000 941 938
3 940 1001 999
3 942 1001 940
3 1002 941 1000
3 1002 1003 941
3 942 1004 1001
3 945 1004 942
3 1005 1003 1002
3 1005 1006 1003
3 945 1007 1004
3 947 1007 945
3 1005 1008 1006
3 1006 1008 948
3 1009 948 1008
3 949 948 1009
3 1010 949 1009
3 950 949 1010
3 1011 950 1010
3 951 950 1011
3 1012 951 1011
3 952 951 1012
3 1013 952 1012
3 953 952 1013
3 1014 953 1013
3 954 953 1014
3 1015 954 1014
3 955 954 1015
3 1016 955 1015
3 956 955 1016
3 1017 956 1016
3 957 956 1017
3 1018 957 1017
3 958 957 1018
3 1019 958 1018
3 959 958 1019
3 1020 959 1019
3 960 959 1020
3 1021 960 1020
3 961 960 1021
3 1022 961 1021
3 962 961 1022
3 1023 962 1022
3 963 962 1023
3 1024 963 1023
3 964 963 1024
3 1025 964 1024
3 965 964 1025
3 947 965 1007
3 1007 965 1025
3 1026 1027 966
3 966 1027 967
3 966 1028 1026
3 966 968 1028
3 968 1029 1028
3 968 969 1029
3 969 1030 1029
3 969 970 1030
3 970 1031 1030
3 970 971 1031
3 971 1032 1031
3 971 972 1032
3 972 1033 1032
3 972 973 1033
3 973 1034 1033
3 973 974 1034
3 974 1035 1034
3 974 975 1035
3 975 1036 1035
3 975 976 1036
3 976 1037 1036
3 976 977 1037
3 977 1038 1037
3 977 978 1038
3 978 1039 1038
3 978 979 1039
3 979 1040 1039
3 979 980 1040
3 980 1041 1040
3 980 981 1041
3 981 1042 1041
3 981 982 1042
3 982 1043 1042
3 982 983 1043
3 983 1044 1043
3 983 984 1044
3 984 1045 1044
3 1044 1045 1046
3 1047 967 1027
3 1047 986 967
3 1045 1048 1046
3 988 1048 1045
3 1049 986 1047
3 1049 989 986
3 988 1050 1048
3 991 1050 988
3 1051 989 1049
3 1051 992 989
3 991 1052 1050
3 994 1052 991
3 1053 992 1051
3 1053 1054 992
3 994 1055 1052
3 997 1055 994
3 1056 1054 1053
3 1056 998 1054
3 997 1057 1055
3 999 1057 997
3 1058 998 1056
3 1058 1000 998
3 999 1059 1057
3 1001 1059 999
3 1060 1000 1058
3 1060 1061 1000
3 1001 1062 1059
3 1004 1062 1001
3 1063 1061 1060
3 1063 1005 1061
3 1004 1064 1062
3 1007 1064 1004
3 1063 1065 1005
3 1005 1065 1008
3 1066 1008 1065
3 1009 1008 1066
3 1067 1009 1066
3 1010 1009 1067
3 1068 1010 1067
3 1011 1010 1068
3 1069 1011 1068
3 1012 1011 1069
3 1070 1012 1069
3 1013 1012 1070
3 1071 1013 1070
3 1014 1013 1071
3 1072 1014 1071
3 1015 1014 1072
3 1073 1015 1072
3 1016 1015 1073
3 1074 1016 1073
3 1017 1016 1074
3 1075 1017 1074
3 1018 1017 1075
3 1076 1018 1075
3 1019 1018 1076
3 1077 1019 1076
3 1020 1019 1077
3 1078 1020 1077
3 1021 1020 1078
3 1079 1021 1078
3 1022 1021 1079
3 1080 1022 1079
3 1023 1022 1080
3 1081 1023 1080
3 1024 1023 1081
3 1082 1024 1081
3 1025 1024 1082
3 1007 1025 1064
3 1064 1025 1082
3 1026 1083 1027
3 1083 1026 1084
3 1084 1026 1028
3 1084 1028 1085
3 1085 1028 1029
3 1085 1029 1086
3 1086 1029 1030
3 1086 1030 1087
3 1087 1030 1031
3 1087 1031 1088
3 1088 1031 1032
3 1088 1032 1089
3 1089 1032 1033
3 1089 1033 1090
3 1090 1033 1034
3 1090 1034 1091
3 1091 1034 1035
3 1091 1035 1092
3 1092 1035 1036
3 1092 1036 1093
3 1093 1036 1037
3 1093 1037 1094
3 1094 1037 1038
3 1094 1038 1095
3 1095 1038 1039
3 1095 1039 1096
3 1096 1039 1040
3 1096 1040 1097
3 1097 1040 1041
3 1097 1041 1098
3 1098 1041 1042
3 1098 1042 1099
3 1099 1042 1043
3 1099 1043 1100
3 1100 1043 1044
3 1044 1046 1100
3 1027 1083 1047
3 1047 1083 1101
3 1084 1101 1083
3 1084 1102 1101
3 1085 1102 1084
3 1085 1103 1102
3 1086 1103 1085
3 1086 1104 1103
3 1087 1104 1086
3 1087 1105 1104
3 1088 1105 1087
3 1088 1106 1105
3 1089 1106 1088
3 1089 1107 1106
3 1090 1107 1089
3 1090 1108 1107
3 1091 1108 1090
3 1091 1109 1108
3 1092 1109 1091
3 1092 1110 1109
3 1093 1110 1092
3 1093 1111 1110
3 1094 1111 1093
3 1094 1112 1111
3 1095 1112 1094
3 1095 1113 1112
3 1096 1113 1095
3 1096 1114 1113
3 1097 1114 1096
3 1097 1115 1114
3 1098 1115 1097
3 1098 1116 1115
3 1099 1116 1098
3 1099 1117 1116
3 1100 1117 1099
3 1100 1118 1117
3 1100 1046 1118
3 1118 1046 1048
3 1047 1101 1119
3 1119 1101 1120
3 1102 1120 1101
3 1102 1121 1120
3 1103 1121 1102
3 1103 1122 1121
3 1104 1122 1103
3 1104 1123 1122
3 1105 1123 1104
3 1105 1124 1123
3 1106 1124 1105
3 1106 1125 1124
3 1107 1125 1106
3 1107 1126 1125
3 1108 1126 1107
3 1108 1127 1126
3 1109 1127 1108
3 1109 1128 1127
3 1110 1128 1109
3 1110 1129 1128
3 1111 1129 1110
3 1111 1130 1129
3 1112 1130 1111
3 1112 1131 1130
3 1113 1131 1112
3 1113 1132 1131
3 1114 1132 1113
3 1114 1133 1132
3 1115 1133 1114
3 1115 1134 1133
3 1116 1134 1115
3 1116 1135 1134
3 1117 1135 1116
3 1117 1136 1135
3 1118 1136 1117
3 1118 1137 1136
3 1118 1048 1137
3 1137 1048 1050
3 1119 1120 1051
3 1051 1120 1138
3 1121 1138 1120
3 1121 1139 1138
3 1122 1139 1121
3 1122 1140 1139
3 1123 1140 1122
3 1123 1141 1140
3 1124 1141 1123
3 1124 1142 1141
3 1125 1142 1124
3 1125 1143 1142
3 1126 1143 1125
3 1126 1144 1143
3 1127 1144 1126
3 1127 1145 1144
3 1128 1145 1127
3 1128 1146 1145
3 1129 1146 1128
3 1129 1147 1146
3 1130 1147 1129
3 1130 1148 1147
3 1131 1148 1130
3 1131 1149 1148
3 1132 1149 1131
3 1132 1150 1149
3 1133 1150 1132
3 1133 1151 1150
3 1134 1151 1133
3 1134 1152 1151
3 1135 1152 1134
3 1135 1153 1152
3 1136 1153 1135
3 1136 1154 1153
3 1137 1155 1136
3 1137 1156 1155
3 1137 1050 1156
3 1156 1050 1052
3 1051 1138 1053
3 1053 1138 1157
3 1139 1157 1138
3 1139 1158 1157
3 1140 1158 1139
3 1140 1159 1158
3 1141 1159 1140
3 1141 1160 1159
3 1142 1160 1141
3 1142 1161 1160
3 1143 1161 1142
3 1143 1162 1161
3 1144 1162 1143
3 1144 1163 1162
3 1145 1163 1144
3 1145 1164 1163
3 1146 1164 1145
3 1146 1165 1164
3 1147 1165 1146
3 1147 1166 1165
3 1148 1166 1147
3 1148 1167 1166
3 1149 1167 1148
3 1149 1168 1167
3 1150 1168 1149
3 1150 1169 1168
3 1151 1169 1150
3 1151 1170 1169
3 1152 1170 1151
3 1152 1171 1170
3 1153 1171 1152
3 1153 1172 1171
3 1154 1172 1153
3 1154 1173 1172
3 1156 1173 1155
3 1156 1174 1173
3 1156 1052 1175
3 1175 1052 1055
3 1053 1157 1176
3 1176 1157 1177
3 1158 1177 1157
3 1158 1178 1177
3 1159 1178 1158
3 1159 1179 1178
3 1160 1179 1159
3 1160 1180 1179
3 1161 1180 1160
3 1161 1181 1180
3 1162 1181 1161
3 1162 1182 1181
3 1163 1182 1162
3 1163 1183 1182
3 1164 1183 1163
3 1164 1184 1183
3 1165 1184 1164
3 1165 1185 1184
3 1166 1185 1165
3 1166 1186 1185
3 1167 1186 1166
3 1167 1187 1186
3 1168 1187 1167
3 1168 1188 1187
3 1169 1188 1168
3 1169 1189 1188
3 1170 1189 1169
3 1170 1190 1189
3 1171 1190 1170
3 1171 1191 1190
3 1172 1191 1171
3 1172 1192 1191
3 1173 1192 1172
3 1173 1193 1192
3 1174 1193 1173
3 1174 1194 1193
3 1175 1055 1194
3 1194 1055 1057
3 1176 1177 1195
3 1195 1177 1196
3 1178 1196 1177
3 1178 1197 1196
3 1179 1197 1178
3 1179 1198 1197
3 1180 1198 1179
3 1180 1199 1198
3 1181 1199 1180
3 1181 1200 1199
3 1182 1200 1181
3 1182 1201 1200
3 1183 1201 1182
3 1183 1202 1201
3 1184 1202 1183
3 1184 1203 1202
3 1185 1203 1184
3 1185 1204 1203
3 1186 1204 1185
3 1186 1205 1204
3 1187 1205 1186
3 1187 1206 1205
3 1188 1206 1187
3 1188 1207 1206
3 1189 1207 1188
3 1189 1208 1207
3 1190 1208 1189
3 1190 1209 1208
3 1191 1209 1190
3 1191 1210 1209
3 1192 1210 1191
3 1192 1211 1210
3 1193 1211 1192
3 1193 1212 1211
3 1194 1212 1193
3 1194 1213 1212
3 1194 1057 1213
3 1213 1057 1059
3 1195 1196 1214
3 1214 1196 1215
3 1197 1215 1196
3 1197 1216 1215
3 1198 1216 1197
3 1198 1217 1216
3 1199 1217 1198
3 1199 1218 1217
3 1200 1218 1199
3 1200 1219 1218
3 1201 1219 1200
3 1201 1220 1219
3 1202 1220 1201
3 1202 1221 1220
3 1203 1221 1202
3 1203 1222 1221
3 1204 1222 1203
3 1204 1223 1222
3 1205 1223 1204
3 1205 1224 1223
3 1206 1224 1205
3 1206 1225 1224
3 1207 1226 1206
3 1207 1227 1226
3 1208 1227 1207
3 1208 1228 1227
3 1209 1228 1208
3 1209 1229 1228
3 1210 1229 1209
3 1210 1230 1229
3 1211 1230 1210
3 1211 1231 1230
3 1212 1231 1211
3 1212 1232 1231
3 1213 1232 1212
3 1213 1233 1232
3 1213 1059 1233
3 1233 1059 1062
3 1214 1215 1063
3 1063 1215 1234
3 1216 1234 1215
3 1216 1235 1234
3 1217 1235 1216
3 1217 1236 1235
3 1218 1236 1217
3 1218 1237 1236
3 1219 1237 1218
3 1219 1238 1237
3 1220 1238 1219
3 1220 1239 1238
3 1221 1239 1220
3 1221 1240 1239
3 1222 1240 1221
3 1222 1241 1240
3 1223 1241 1222
3 1223 1242 1241
3 1224 1242 1223
3 1224 1243 1242
3 1225 1243 1224
3 1225 1244 1243
3 1227 1244 1226
3 1227 1245 1244
3 1228 1245 1227
3 1228 1246 1245
3 1229 1246 1228
3 1229 1247 1246
3 1230 1247 1229
3 1230 1248 1247
3 1231 1248 1230
3 1231 1249 1248
3 1232 1249 1231
3 1232 1250 1249
3 1233 1250 1232
3 1233 1251 1250
3 1233 1062 1251
3 1251 1062 1064
3 1234 1065 1063
3 1235 1066 1234
3 1234 1066 1065
3 1236 1067 1235
3 1235 1067 1066
3 1237 1068 1236
3 1236 1068 1067
3 1238 1069 1237
3 1237 1069 1068
3 1239 1070 1238
3 1238 1070 1069
3 1240 1071 1239
3 1239 1071 1070
3 1241 1072 1240
3 1240 1072 1071
3 1242 1073 1241
3 1241 1073 1072
3 1243 1074 1242
3 1242 1074 1073
3 1244 1075 1243
3 1243 1075 1074
3 1245 1076 1244
3 1244 1076 1075
3 1246 1077 1245
3 1245 1077 1076
3 1247 1078 1246
3 1246 1078 1077
3 1248 1079 1247
3 1247 1079 1078
3 1249 1080 1248
3 1248 1080 1079
3 1250 1081 1249
3 1249 1081 1080
3 1251 1082 1250
3 1250 1082 1081
3 1064 1082 1251
