ply
format ascii 1.0
element vertex 1259
property float x
property float y
property float z
element face 2136
property list uchar int vertex_index
end_header
0.566559 1 1
1 1 0.566559
1 0.566668 1
1 1 0.566559
2 0.566657 1
2 1 0.566548
3 0.566647 1
3 1 0.566538
4 0.566639 1
4 1 0.56653
4 1 0.56653
5 0.566633 1
5 1 0.566525
5 1 0.566525
6 0.566631 1
6 1 0.566522
7 0.56663 1
7 1 0.566522
7 1 0.566522
8 0.566631 1
8 1 0.566523
9 0.566634 1
9 1 0.566525
9 1 0.566525
10 0.566637 1
10 1 0.566528
10 1 0.566528
11 0.566641 1
11 1 0.566532
12 0.566644 1
12 1 0.566536
12 1 0.566536
13 0.566648 1
13 1 0.566539
13 1 0.566539
14 0.566652 1
14 1 0.566543
15 0.566655 1
15 1 0.566546
15 1 0.566546
16 0.566658 1
16 1 0.566549
17 0.566661 1
17 1 0.566553
17 1 0.566553
18 0.566663 1
18 1 0.566554
18.4334 1 1
0.544233 2 1
1 2 0.544233
1 2 0.544233
2 2 0.544219
2 2 0.544219
3 2 0.544205
4 2 0.544192
5 2 0.544182
6 2 0.544174
7 2 0.54417
8 2 0.544168
8 2 0.544168
9 2 0.544168
9 2 0.544168
10 2 0.544169
10 2 0.544169
11 2 0.544172
12 2 0.544175
13 2 0.544178
13 2 0.544178
14 2 0.544181
15 2 0.544184
16 2 0.544187
16 2 0.544187
17 2 0.54419
18 2 0.544192
18 2 0.544192
18.4558 2 1
0.519477 3 1
1 3 0.519477
1 3 0.519477
2 3 0.519458
3 3 0.519437
4 3 0.519416
4 3 0.519416
5 3 0.519397
5 3 0.519397
6 3 0.519383
6 3 0.519383
7 3 0.519374
8 3 0.519369
9 3 0.519367
10 3 0.519367
10 3 0.519367
11 3 0.519369
11 3 0.519369
12 3 0.519371
13 3 0.519374
13 3 0.519374
14 3 0.519377
15 3 0.51938
15 3 0.51938
16 3 0.519383
17 3 0.519386
17 3 0.519386
18 3 0.519388
18 3 0.519388
18.4806 3 1
0.491402 4 1
1 4 0.491402
1 4 0.491402
2 4 0.491373
2 4 0.491373
3 4 0.491337
3 4 0.491337
4 4 0.491301
4 4 0.491301
5 4 0.491271
5 4 0.491271
6 4 0.491248
6 4 0.491248
7 4 0.491232
7 4 0.491232
8 4 0.491224
8 4 0.491224
9 4 0.49122
9 4 0.49122
10 4 0.491219
10 4 0.491219
11 4 0.49122
12 4 0.491223
12 4 0.491223
13 4 0.491226
13 4 0.491226
14 4 0.491229
14 4 0.491229
15 4 0.491232
15 4 0.491232
16 4 0.491235
17 4 0.491238
17 4 0.491238
18 4 0.49124
18.5088 4 1
0.458704 5 1
1 5 0.458704
1 5 0.458704
2 5 0.458653
2 5 0.458653
3 5 0.458588
4 5 0.458525
4 5 0.458525
5 5 0.458473
5 5 0.458473
6 5 0.458435
6 5 0.458435
7 5 0.458411
7 5 0.458411
8 5 0.458399
8 5 0.458399
9 5 0.458394
10 5 0.458393
10 5 0.458393
11 5 0.458395
11 5 0.458395
12 5 0.458398
12 5 0.458398
13 5 0.458402
13 5 0.458402
14 5 0.458405
14 5 0.458405
15 5 0.458409
15 5 0.458409
16 5 0.458412
17 5 0.458415
18 5 0.458417
18 5 0.458417
18.5416 5 1
0.419326 6 1
1 6 0.419326
1 6 0.419326
2 6 0.419224
2 6 0.419224
3 6 0.419092
3 6 0.419092
4 6 0.418974
5 6 0.418883
5 6 0.418883
6 6 0.418822
6 6 0.418822
7 6 0.418788
8 6 0.418772
8 6 0.418772
9 6 0.418768
10 6 0.418769
10 6 0.418769
11 6 0.418773
12 6 0.418778
12 6 0.418778
13 6 0.418783
13 6 0.418783
14 6 0.418787
14 6 0.418787
15 6 0.418791
15 6 0.418791
16 6 0.418795
16 6 0.418795
17 6 0.418798
17 6 0.418798
18 6 0.418799
18.5812 6 1
0.370851 7 1
1 7 0.370851
1 7 0.370851
2 7 0.370631
2 7 0.370631
3 7 0.370345
3 7 0.370345
4 7 0.37012
4 7 0.37012
5 7 0.369961
5 7 0.369961
6 7 0.369866
7 7 0.369823
7 7 0.369823
8 7 0.36981
9 7 0.369811
10 7 0.369817
10 7 0.369817
11 7 0.369825
11 7 0.369825
12 7 0.369833
13 7 0.36984
14 7 0.369846
14 7 0.369846
15 7 0.369851
15 7 0.369851
16 7 0.369855
17 7 0.369858
18 7 0.36986
18 7 0.36986
18.6301 7 1
0.641974 8 1
1 8 0.641974
1 8 0.641974
2 8 0.64168
3 8 0.64152
3 8 0.64152
4 8 0.6415
5 8 0.641516
5 8 0.641516
6 8 0.641565
7 8 0.641625
8 8 0.641675
8 8 0.641675
9 8 0.641713
9 8 0.641713
10 8 0.641741
10 8 0.641741
11 8 0.64176
12 8 0.641774
12 8 0.641774
13 8 0.641785
13 8 0.641785
14 8 0.641792
15 8 0.641798
16 8 0.641803
16 8 0.641803
17 8 0.641806
17 8 0.641806
18 8 0.641808
18 8 0.641808
18.3582 8 1
0.630105 9 1
1 9 0.630105
1 9 0.630105
2 9 0.629052
3 9 0.62828
4 9 0.628243
4 9 0.628243
5 9 0.628255
5 9 0.628255
6 9 0.628336
7 9 0.628446
7 9 0.628446
8 9 0.628528
8 9 0.628528
9 9 0.628583
9 9 0.628583
10 9 0.62862
11 9 0.628646
12 9 0.628663
12 9 0.628663
13 9 0.628675
13 9 0.628675
14 9 0.628684
15 9 0.62869
15 9 0.62869
16 9 0.628694
16 9 0.628694
17 9 0.628697
17 9 0.628697
18 9 0.628699
18.3713 9 1
0.543039 10 1
1 10 0.543038
2 10 0.54105
2 10 0.54105
3 10 0.537798
3 10 0.537798
4 10 0.537608
5 10 0.537949
5 10 0.537949
6 10 0.538239
7 10 0.538484
8 10 0.538632
8 10 0.538632
9 10 0.538719
9 10 0.538719
10 10 0.538772
11 10 0.538805
12 10 0.538827
13 10 0.538841
13 10 0.538841
14 10 0.538851
14 10 0.538851
15 10 0.538858
15 10 0.538858
16 10 0.538862
16 10 0.538862
17 10 0.538865
18 10 0.538867
18 10 0.538867
18.4611 10 1
1 10.457 1
2 10.4589 1
3 10.4622 1
4 10.4624 1
5 10.4621 1
6 10.4618 1
7 10.4615 1
8 10.4614 1
9 10.4613 1
10 10.4612 1
11 10.4612 1
12 10.4612 1
13 10.4612 1
14 10.4611 1
15 10.4611 1
16 10.4611 1
17 10.4611 1
18 10.4611 1
1 0.584927 2
0.584822 1 2
0.566559 1 1
2 0.584917 2
3 0.584908 2
4 0.584901 2
5 0.584897 2
6 0.584895 2
7 0.584896 2
8 0.584898 2
9 0.584902 2
10 0.584906 2
11 0.584911 2
12 0.584915 2
13 0.584919 2
14 0.584923 2
15 0.584927 2
16 0.58493 2
17 0.584933 2
18 0.584935 2
18.4152 1 2
0.562319 2 2
0.544233 2 1
18.4377 2 2
0.537964 3 2
0.519477 3 1
18.4621 3 2
0.510906 4 2
0.491402 4 1
18.4892 4 2
0.480036 5 2
0.458704 5 1
18.5202 5 2
0.443725 6 2
0.419326 6 1
18.5566 6 2
0.400233 7 2
18.6004 7 2
0.687777 8 2
0.641974 8 1
18.3119 8 2
0.690719 9 2
0.630105 9 1
18.3093 9 2
0.639467 10 2
18.3678 10 2
1 10.3605 2
2 10.3628 2
3 10.3672 2
4 10.3683 2
5 10.3687 2
6 10.3685 2
7 10.3682 2
8 10.3681 2
9 10.368 2
10 10.3679 2
11 10.3679 2
12 10.3678 2
13 10.3678 2
14 10.3678 2
15 10.3678 2
16 10.3678 2
17 10.3678 2
18 10.3678 2
1 0.600808 3
0.600712 1 3
0.584822 1 2
2 0.600799 3
3 0.600791 3
4 0.600785 3
5 0.600782 3
6 0.600781 3
7 0.600783 3
8 0.600785 3
9 0.600789 3
10 0.600794 3
11 0.600799 3
12 0.600803 3
13 0.600808 3
14 0.600812 3
15 0.600816 3
16 0.600819 3
17 0.600822 3
18 0.600825 3
18.3993 1 3
0.57875 2 3
0.562319 2 2
18.4213 2 3
0.555518 3 3
18.4445 3 3
0.530304 4 3
0.510906 4 2
18.4698 4 3
0.502311 5 3
0.480036 5 2
18.4978 5 3
0.470519 6 3
0.443725 6 2
18.5297 6 3
0.434054 7 3
0.400233 7 2
18.5662 7 3
0.712979 8 3
18.2867 8 3
0.730284 9 3
18.2694 9 3
0.702603 10 3
0.639467 10 2
18.3002 10 3
1 10.2974 3
2 10.2985 3
3 10.2984 3
4 10.2989 3
5 10.3002 3
6 10.3005 3
7 10.3005 3
8 10.3003 3
9 10.3004 3
10 10.3003 3
11 10.3003 3
12 10.3002 3
13 10.3002 3
14 10.3002 3
15 10.3002 3
16 10.3002 3
17 10.3002 3
18 10.3002 3
1 0.613847 4
0.613763 1 4
2 0.613838 4
3 0.613831 4
4 0.613826 4
5 0.613824 4
6 0.613823 4
7 0.613825 4
8 0.613828 4
9 0.613832 4
10 0.613836 4
11 0.613841 4
12 0.613845 4
13 0.613849 4
14 0.613853 4
15 0.613857 4
16 0.61386 4
17 0.613864 4
18 0.613866 4
18.3862 1 4
0.592946 2 4
0.57875 2 3
18.4071 2 4
0.571344 3 4
0.555518 3 3
18.4287 3 4
0.54842 4 4
18.4516 4 4
0.523672 5 4
0.502311 5 3
18.4764 5 4
0.496555 6 4
0.470519 6 3
18.5035 6 4
0.466555 7 4
0.434054 7 3
18.5335 7 4
0.434321 8 4
0.712979 8 3
18.5654 8 4
0.722753 9 4
0.730284 9 3
18.2772 9 4
0.483177 10 4
0.702603 10 3
18.5367 10 4
1 10.5168 4
2 10.5262 4
3 10.5218 4
4 10.5214 4
5 10.5251 4
6 10.5294 4
7 10.5331 4
8 10.5338 4
9 10.5361 4
10 10.5368 4
11 10.5367 4
12 10.5367 4
13 10.5367 4
14 10.5367 4
15 10.5367 4
16 10.5367 4
17 10.5367 4
18 10.5367 4
1 0.624016 5
0.623947 1 5
2 0.624009 5
3 0.624003 5
4 0.623998 5
5 0.623996 5
6 0.623996 5
7 0.623997 5
8 0.624 5
9 0.624003 5
10 0.624007 5
11 0.624011 5
12 0.624015 5
13 0.624019 5
14 0.624022 5
15 0.624026 5
16 0.624029 5
17 0.624032 5
18 0.624034 5
18.376 1 5
0.60476 2 5
18.3952 2 5
0.585147 3 5
0.571344 3 4
18.4149 3 5
0.564741 4 5
0.54842 4 4
18.4353 4 5
0.543264 5 5
18.4567 5 5
0.520488 6 5
0.496555 6 4
18.4795 6 5
0.496041 7 5
0.466555 7 4
18.5039 7 5
0.461141 8 5
18.5386 8 5
0.301755 9 5
18.6982 9 5
1 10 4.84649
1 9.88166 5
2 9.88618 5
2 10 4.85438
3 9.88408 5
3 10 4.85074
4 9.88387 5
4 10 4.85038
5 9.88571 5
5 10 4.85354
6 9.88786 5
6 10 4.85718
7 9.88973 5
7 10 4.86032
8 9.89006 5
8 10 4.86089
9 9.89116 5
9 10 4.86276
10 9.89149 5
10 10 4.86331
11 9.89146 5
11 10 4.86327
12 9.89145 5
12 10 4.86325
13 9.89144 5
13 10 4.86324
14 9.89144 5
14 10 4.86323
15 9.89143 5
15 10 4.86323
16 9.89143 5
16 10 4.86322
17 9.89142 5
17 10 4.86322
18 9.89142 5
18 10 4.86322
1 0.631549 6
0.631495 1 6
0.623947 1 5
2 0.631543 6
3 0.631538 6
4 0.631535 6
5 0.631533 6
6 0.631532 6
7 0.631533 6
8 0.631535 6
9 0.631537 6
10 0.63154 6
11 0.631543 6
12 0.631547 6
13 0.63155 6
14 0.631553 6
15 0.631556 6
16 0.631559 6
17 0.631562 6
18 0.631564 6
18.3685 1 6
0.614281 2 6
18.3857 2 6
0.596873 3 6
18.4031 3 6
0.579052 4 6
0.564741 4 5
18.4209 4 6
0.560685 5 6
0.543264 5 5
18.4393 5 6
0.541379 6 6
18.4586 6 6
0.509387 7 6
0.496041 7 5
18.4905 7 6
18.5039 7 5
0.324251 8 6
18.6755 8 6
0.337108 9 6
18.663 9 6
1 9.67898 6
2 9.67946 6
3 9.67923 6
4 9.6792 6
5 9.67946 6
6 9.67976 6
7 9.68 6
8 9.68001 6
9 9.68013 6
10 9.68019 6
11 9.68018 6
12 9.68019 6
13 9.68019 6
14 9.68019 6
15 9.68018 6
16 9.68018 6
17 9.68018 6
18 9.68018 6
1 0.63685 7
0.636808 1 7
0.631495 1 6
2 0.636845 7
3 0.636841 7
4 0.636838 7
5 0.636836 7
6 0.636835 7
7 0.636835 7
8 0.636836 7
9 0.636838 7
10 0.636841 7
11 0.636843 7
12 0.636846 7
13 0.636848 7
14 0.636851 7
15 0.636853 7
16 0.636856 7
17 0.636858 7
18 0.63686 7
18.3632 1 7
0.621765 2 7
18.3782 2 7
0.606661 3 7
18.3933 3 7
0.591381 4 7
0.579052 4 6
18.4086 4 7
0.575493 5 7
18.4245 5 7
0.545552 6 7
0.541379 6 6
18.4544 6 7
0.341505 7 7
0.509387 7 6
18.6584 7 7
0.35155 8 7
18.6483 8 7
0.364733 9 7
0.337108 9 6
18.6354 9 7
1 9.63578 7
2 9.63577 7
3 9.63576 7
4 9.63575 7
5 9.63582 7
6 9.63584 7
7 9.63584 7
8 9.63584 7
9 9.63588 7
10 9.6359 7
11 9.63591 7
12 9.63593 7
13 9.63595 7
14 9.63595 7
15 9.63595 7
16 9.63594 7
17 9.63594 7
18 9.63594 7
1 0.640391 8
0.640361 1 8
2 0.640387 8
3 0.640384 8
4 0.640381 8
5 0.640379 8
6 0.640379 8
7 0.640379 8
8 0.640379 8
9 0.640381 8
10 0.640382 8
11 0.640384 8
12 0.640386 8
13 0.640388 8
14 0.64039 8
15 0.640392 8
16 0.640394 8
17 0.640396 8
18 0.640397 8
18.3596 1 8
0.627564 2 8
0.621765 2 7
18.3724 2 8
0.614766 3 8
18.3852 3 8
0.601735 4 8
0.591381 4 7
18.3983 4 8
0.579703 5 8
18.4203 5 8
0.355854 6 8
18.6441 6 8
0.363354 7 8
18.6366 7 8
0.373871 8 8
18.626 8 8
18.6483 8 7
0.386567 9 8
18.6136 9 8
1 9.6134 8
2 9.61337 8
3 9.61339 8
4 9.6134 8
5 9.61344 8
6 9.61341 8
7 9.61339 8
8 9.61343 8
9 9.61347 8
10 9.61348 8
11 9.61347 8
12 9.6135 8
13 9.61351 8
14 9.61353 8
15 9.61353 8
16 9.61352 8
17 9.61352 8
18 9.61352 8
1 0.64264 9
0.64262 1 9
0.640361 1 8
2 0.642637 9
3 0.642634 9
4 0.642632 9
5 0.642631 9
6 0.64263 9
7 0.64263 9
8 0.64263 9
9 0.642631 9
10 0.642632 9
11 0.642633 9
12 0.642635 9
13 0.642636 9
14 0.642638 9
15 0.642639 9
16 0.642641 9
17 0.642642 9
18 0.642644 9
18.3574 1 9
0.632054 2 9
18.3679 2 9
0.621451 3 9
18.3789 3 9
0.610467 4 9
18.398 4 9
0.585756 5 9
18.4142 5 9
0.373429 6 9
18.6265 6 9
0.381563 7 9
0.363354 7 8
18.6184 7 9
0.39209 8 9
0.373871 8 8
18.6079 8 9
0.404244 9 9
0.386567 9 8
18.5959 9 9
1 9.59571 9
2 9.59569 9
3 9.59572 9
4 9.59575 9
5 9.59576 9
6 9.59573 9
7 9.59576 9
8 9.5958 9
9 9.59582 9
10 9.5958 9
11 9.59579 9
12 9.59579 9
13 9.59582 9
14 9.59584 9
15 9.59586 9
16 9.59585 9
17 9.59585 9
18 9.59585 9
1 0.643896 10
0.643879 1 10
2 0.643894 10
3 0.643892 10
4 0.64389 10
5 0.643889 10
6 0.643888 10
7 0.643888 10
8 0.643888 10
9 0.643889 10
10 0.64389 10
11 0.64389 10
12 0.643891 10
13 0.643892 10
14 0.643893 10
15 0.643894 10
16 0.643896 10
17 0.643897 10
18 0.643898 10
18.3561 1 10
0.635144 2 10
18.3651 2 10
0.617945 3 10
18.3893 3 10
0.603471 4 10
18.6225 4 10
0.381707 5 10
18.6183 5 10
18.4142 5 9
0.388076 6 10
18.6119 6 10
0.396605 7 10
0.381563 7 9
18.6034 7 10
0.407114 8 10
0.39209 8 9
18.5929 8 10
18.6079 8 9
0.418846 9 10
18.5813 9 10
1 9.58111 10
2 9.58109 10
3 9.58114 10
4 9.58117 10
5 9.58117 10
6 9.58117 10
7 9.5812 10
8 9.58122 10
9 9.58121 10
10 9.58118 10
11 9.58118 10
12 9.58119 10
13 9.58123 10
14 9.58126 10
15 9.58128 10
16 9.58128 10
17 9.58128 10
18 9.58127 10
1 0.635251 11
0.635164 1 11
0.643879 1 10
2 0.635249 11
3 0.635248 11
4 0.635247 11
5 0.635246 11
6 0.635245 11
7 0.635245 11
8 0.635245 11
9 0.635246 11
10 0.635246 11
11 0.635247 11
12 0.635248 11
13 0.635248 11
14 0.635249 11
15 0.63525 11
16 0.635251 11
17 0.635252 11
18 0.635253 11
18.3648 1 11
0.621941 2 11
18.3781 2 11
0.385021 3 11
0.617945 3 10
18.615 3 11
0.388007 4 11
18.612 4 11
0.39305 5 11
18.6069 5 11
0.400118 6 11
18.5999 6 11
0.409034 7 11
18.591 7 11
0.419606 8 11
0.407114 8 10
18.5804 8 11
0.431105 9 11
18.5691 9 11
1 9.56886 11
2 9.56886 11
3 9.56894 11
4 9.56897 11
5 9.56896 11
6 9.56897 11
7 9.56898 11
8 9.56897 11
9 9.56893 11
10 9.56892 11
11 9.56894 11
12 9.56896 11
13 9.56899 11
14 9.56901 11
15 9.56903 11
16 9.56904 11
17 9.56904 11
18 9.56903 11
1 0.390885 12
0.390885 1 12
0.635164 1 11
2 0.390878 12
3 0.390878 12
4 0.390879 12
5 0.39088 12
6 0.390883 12
7 0.390883 12
8 0.390885 12
9 0.390887 12
10 0.390888 12
11 0.390889 12
12 0.390891 12
13 0.390893 12
14 0.390894 12
15 0.390895 12
16 0.390896 12
17 0.390897 12
18 0.390898 12
18.6091 1 12
0.390361 2 12
0.621941 2 11
18.6096 2 12
0.392164 3 12
18.6078 3 12
0.396078 4 12
0.388007 4 11
18.6039 4 12
0.40198 5 12
0.39305 5 11
18.598 5 12
0.409725 6 12
0.400118 6 11
18.5903 6 12
0.419119 7 12
0.409034 7 11
18.5809 7 12
0.42993 8 12
0.419606 8 11
18.5701 8 12
0.441456 9 12
0.431105 9 11
18.5587 9 12
1 9.55851 12
2 9.55853 12
3 9.55859 12
4 9.55863 12
5 9.55862 12
6 9.55862 12
7 9.55861 12
8 9.5586 12
9 9.55859 12
10 9.5586 12
11 9.55861 12
12 9.55861 12
13 9.55862 12
14 9.55864 12
15 9.55868 12
16 9.55869 12
17 9.55869 12
18 9.55869 12
1 0.394653 13
0.394653 1 13
0.390885 1 12
2 0.394634 13
3 0.394642 13
4 0.39464 13
5 0.394641 13
6 0.394654 13
7 0.394647 13
8 0.394654 13
9 0.394652 13
10 0.394653 13
11 0.394662 13
12 0.394661 13
13 0.394662 13
14 0.394663 13
15 0.394665 13
16 0.394667 13
17 0.394669 13
18 0.394669 13
18.6053 1 13
0.394956 2 13
18.6051 2 13
0.397488 3 13
18.6026 3 13
0.402073 4 13
0.396078 4 12
18.5981 4 13
0.408561 5 13
0.40198 5 12
18.5917 5 13
0.416773 6 13
18.5835 6 13
0.42645 7 13
18.5738 7 13
0.437232 8 13
18.5629 8 13
0.448603 9 13
0.441456 9 12
18.5516 9 13
1 9.55136 13
2 9.55133 13
3 9.55084 13
4 9.55116 13
5 9.55142 13
6 9.55145 13
7 9.55133 13
8 9.55142 13
9 9.55146 13
10 9.55136 13
11 9.55141 13
12 9.55125 13
13 9.55141 13
14 9.55127 13
15 9.55143 13
16 9.55154 13
17 9.55154 13
18 9.55154 13
1 1 13.6053
0.394653 1 13
2 1 13.6054
3 1 13.6054
4 1 13.6054
5 1 13.6054
6 1 13.6053
7 1 13.6053
8 1 13.6053
9 1 13.6053
10 1 13.6053
11 1 13.6053
12 1 13.6053
13 1 13.6053
14 1 13.6053
15 1 13.6053
16 1 13.6053
17 1 13.6053
18 1 13.6053
1 2 13.605
2 2 13.6051
3 2 13.6051
4 2 13.6051
5 2 13.6051
6 2 13.6051
7 2 13.6051
8 2 13.6051
9 2 13.6051
10 2 13.6051
11 2 13.6051
12 2 13.6051
13 2 13.6051
14 2 13.6051
15 2 13.6051
16 2 13.6051
17 2 13.6051
18 2 13.6051
18 2 13.6051
0.397488 3 13
1 3 13.6025
2 3 13.6026
3 3 13.6026
3 3 13.6026
4 3 13.6026
4 3 13.6026
5 3 13.6026
6 3 13.6025
7 3 13.6026
8 3 13.6026
9 3 13.6026
10 3 13.6026
11 3 13.6026
12 3 13.6026
13 3 13.6026
14 3 13.6026
15 3 13.6026
16 3 13.6026
17 3 13.6026
18 3 13.6026
0.402073 4 13
1 4 13.5979
2 4 13.5981
3 4 13.5981
4 4 13.598
5 4 13.5981
6 4 13.598
7 4 13.598
8 4 13.5981
8 4 13.5981
9 4 13.598
10 4 13.598
11 4 13.5981
12 4 13.5981
13 4 13.598
14 4 13.5981
14 4 13.5981
15 4 13.5981
16 4 13.5981
17 4 13.5981
18 4 13.5981
0.408561 5 13
1 5 13.5914
2 5 13.5916
3 5 13.5917
4 5 13.5915
5 5 13.5916
6 5 13.5915
7 5 13.5916
8 5 13.5917
9 5 13.5917
10 5 13.5916
11 5 13.5916
12 5 13.5917
13 5 13.5916
14 5 13.5916
15 5 13.5916
16 5 13.5916
17 5 13.5917
18 5 13.5917
1 6 13.5832
2 6 13.5834
3 6 13.5835
4 6 13.5833
5 6 13.5834
6 6 13.5833
7 6 13.5834
8 6 13.5835
9 6 13.5835
10 6 13.5835
11 6 13.5833
12 6 13.5834
13 6 13.5834
14 6 13.5834
15 6 13.5835
16 6 13.5835
17 6 13.5835
18 6 13.5835
0.42645 7 13
1 7 13.5735
2 7 13.5737
3 7 13.5738
4 7 13.5735
5 7 13.5736
6 7 13.5738
7 7 13.5738
8 7 13.5738
9 7 13.5738
10 7 13.5738
11 7 13.5736
12 7 13.5737
13 7 13.5737
14 7 13.5737
15 7 13.5738
16 7 13.5738
17 7 13.5738
18 7 13.5738
0.437232 8 13
1 8 13.5628
2 8 13.5628
3 8 13.5626
4 8 13.5625
5 8 13.5628
6 8 13.5629
7 8 13.5628
8 8 13.5628
9 8 13.5629
10 8 13.5629
11 8 13.5627
12 8 13.5628
13 8 13.5628
14 8 13.5627
15 8 13.5628
16 8 13.5629
17 8 13.5629
18 8 13.5629
0.448603 9 13
1 9 13.5514
2 9 13.5514
3 9 13.5509
4 9 13.5512
5 9 13.5514
6 9 13.5515
7 9 13.5514
8 9 13.5514
9 9 13.5515
10 9 13.5514
11 9 13.5514
12 9 13.5513
13 9 13.5514
13 9 13.5514
14 9 13.5513
15 9 13.5514
16 9 13.5516
17 9 13.5516
18 9 13.5516
3 0 1 2
3 2 3 4
3 4 3 5
3 4 5 6
3 6 5 7
3 6 7 8
3 8 7 9
3 8 10 11
3 11 10 12
3 11 13 14
3 14 13 15
3 14 15 16
3 16 15 17
3 16 18 19
3 19 18 20
3 19 20 21
3 21 20 22
3 21 23 24
3 24 23 25
3 24 26 27
3 27 26 28
3 27 28 29
3 29 28 30
3 29 31 32
3 32 31 33
3 32 34 35
3 35 34 36
3 35 36 37
3 37 36 38
3 37 39 40
3 40 39 41
3 40 41 42
3 42 41 43
3 42 44 45
3 45 44 46
3 46 47 45
3 48 49 0
3 0 49 1
3 50 5 3
3 51 5 50
3 52 7 5
3 53 7 52
3 53 9 7
3 54 9 53
3 54 12 10
3 55 12 54
3 55 15 13
3 56 15 55
3 56 17 15
3 57 17 56
3 57 20 18
3 58 20 57
3 59 22 20
3 60 22 59
3 61 25 23
3 62 25 61
3 63 28 26
3 64 28 63
3 64 30 28
3 65 30 64
3 65 33 31
3 66 33 65
3 67 36 34
3 68 36 67
3 68 38 36
3 69 38 68
3 69 41 39
3 70 41 69
3 71 43 41
3 72 43 71
3 72 46 44
3 73 46 72
3 74 75 46
3 46 75 47
3 76 77 48
3 48 77 49
3 78 51 50
3 79 51 78
3 79 53 52
3 80 53 79
3 80 54 53
3 81 54 80
3 82 55 54
3 83 55 82
3 84 56 55
3 85 56 84
3 86 57 56
3 87 57 86
3 87 58 57
3 88 58 87
3 88 60 59
3 89 60 88
3 89 62 61
3 90 62 89
3 91 64 63
3 92 64 91
3 93 65 64
3 94 65 93
3 94 66 65
3 95 66 94
3 96 68 67
3 97 68 96
3 97 69 68
3 98 69 97
3 99 70 69
3 100 70 99
3 100 72 71
3 101 72 100
3 102 73 72
3 103 73 102
3 104 105 74
3 74 105 75
3 106 107 76
3 76 107 77
3 108 79 78
3 109 79 108
3 110 80 79
3 111 80 110
3 112 81 80
3 113 81 112
3 114 83 82
3 115 83 114
3 116 85 84
3 117 85 116
3 118 87 86
3 119 87 118
3 120 88 87
3 121 88 120
3 122 89 88
3 123 89 122
3 124 90 89
3 125 90 124
3 126 92 91
3 127 92 126
3 127 94 93
3 128 94 127
3 129 95 94
3 130 95 129
3 131 97 96
3 132 97 131
3 133 98 97
3 134 98 133
3 135 100 99
3 136 100 135
3 136 101 100
3 137 101 136
3 138 103 102
3 139 103 138
3 139 140 104
3 104 140 105
3 141 142 106
3 106 142 107
3 143 109 108
3 144 109 143
3 145 111 110
3 146 111 145
3 146 113 112
3 147 113 146
3 148 115 114
3 149 115 148
3 150 117 116
3 151 117 150
3 152 119 118
3 153 119 152
3 154 121 120
3 155 121 154
3 156 123 122
3 157 123 156
3 157 125 124
3 158 125 157
3 159 127 126
3 160 127 159
3 161 128 127
3 162 128 161
3 163 130 129
3 164 130 163
3 165 132 131
3 166 132 165
3 167 134 133
3 168 134 167
3 169 136 135
3 170 136 169
3 170 137 136
3 171 137 170
3 171 139 138
3 172 139 171
3 173 174 139
3 139 174 140
3 175 176 141
3 141 176 142
3 177 144 143
3 178 144 177
3 179 146 145
3 180 146 179
3 181 147 146
3 182 147 181
3 182 149 148
3 183 149 182
3 184 151 150
3 185 151 184
3 186 153 152
3 187 153 186
3 187 155 154
3 188 155 187
3 189 157 156
3 190 157 189
3 190 158 157
3 191 158 190
3 192 160 159
3 193 160 192
3 193 162 161
3 194 162 193
3 195 164 163
3 196 164 195
3 197 166 165
3 198 166 197
3 199 168 167
3 200 168 199
3 201 170 169
3 202 170 201
3 203 171 170
3 204 171 203
3 205 172 171
3 206 172 205
3 206 207 173
3 173 207 174
3 208 209 175
3 175 209 176
3 210 178 177
3 211 178 210
3 212 180 179
3 213 180 212
3 214 182 181
3 215 182 214
3 216 183 182
3 217 183 216
3 218 185 184
3 219 185 218
3 219 187 186
3 220 187 219
3 221 188 187
3 222 188 221
3 222 190 189
3 223 190 222
3 223 191 190
3 224 191 223
3 225 193 192
3 226 193 225
3 227 194 193
3 228 194 227
3 228 196 195
3 229 196 228
3 229 198 197
3 230 198 229
3 231 200 199
3 232 200 231
3 233 202 201
3 234 202 233
3 234 204 203
3 235 204 234
3 235 206 205
3 236 206 235
3 237 238 206
3 206 238 207
3 239 240 208
3 208 240 209
3 241 211 210
3 242 211 241
3 242 213 212
3 243 213 242
3 244 215 214
3 245 215 244
3 245 217 216
3 246 217 245
3 247 219 218
3 248 219 247
3 248 220 219
3 249 220 248
3 249 222 221
3 250 222 249
3 251 223 222
3 252 223 251
3 253 224 223
3 254 224 253
3 255 226 225
3 256 226 255
3 256 228 227
3 257 228 256
3 258 229 228
3 259 229 258
3 260 230 229
3 261 230 260
3 261 232 231
3 262 232 261
3 262 234 233
3 263 234 262
3 264 235 234
3 265 235 264
3 266 236 235
3 267 236 266
3 268 269 237
3 237 269 238
3 270 271 239
3 239 271 240
3 272 242 241
3 273 242 272
3 273 243 242
3 274 243 273
3 274 245 244
3 275 245 274
3 276 246 245
3 277 246 276
3 278 248 247
3 279 248 278
3 279 249 248
3 280 249 279
3 281 250 249
3 282 250 281
3 283 252 251
3 284 252 283
3 285 254 253
3 286 254 285
3 286 256 255
3 287 256 286
3 287 257 256
3 288 257 287
3 289 259 258
3 290 259 289
3 291 261 260
3 292 261 291
3 292 262 261
3 293 262 292
3 294 263 262
3 295 263 294
3 296 265 264
3 297 265 296
3 298 267 266
3 299 267 298
3 299 300 268
3 268 300 269
3 301 302 270
3 270 302 271
3 302 273 272
3 303 273 302
3 304 274 273
3 305 274 304
3 306 275 274
3 307 275 306
3 307 277 276
3 308 277 307
3 309 279 278
3 310 279 309
3 310 280 279
3 311 280 310
3 311 282 281
3 312 282 311
3 313 284 283
3 314 284 313
3 315 286 285
3 316 286 315
3 316 287 286
3 317 287 316
3 317 288 287
3 318 288 317
3 318 290 289
3 319 290 318
3 320 292 291
3 321 292 320
3 322 293 292
3 323 293 322
3 324 295 294
3 325 295 324
3 326 297 296
3 327 297 326
3 327 299 298
3 328 299 327
3 329 330 299
3 299 330 300
3 331 302 301
3 332 303 331
3 331 303 302
3 333 305 332
3 332 305 304
3 334 307 333
3 333 307 306
3 335 308 334
3 334 308 307
3 336 310 335
3 335 310 309
3 337 311 336
3 336 311 310
3 338 312 337
3 337 312 311
3 339 314 338
3 338 314 313
3 340 316 339
3 339 316 315
3 341 317 340
3 340 317 316
3 342 318 341
3 341 318 317
3 343 319 342
3 342 319 318
3 344 321 343
3 343 321 320
3 345 323 344
3 344 323 322
3 346 325 345
3 345 325 324
3 347 327 346
3 346 327 326
3 348 328 347
3 347 328 327
3 348 330 329
3 349 350 2
3 2 350 351
3 2 352 349
3 2 4 352
3 4 353 352
3 4 6 353
3 6 354 353
3 6 8 354
3 8 355 354
3 8 11 355
3 11 356 355
3 11 14 356
3 14 357 356
3 14 16 357
3 16 358 357
3 16 19 358
3 19 359 358
3 19 21 359
3 21 360 359
3 21 24 360
3 24 361 360
3 24 27 361
3 27 362 361
3 27 29 362
3 29 363 362
3 29 32 363
3 32 364 363
3 32 35 364
3 35 365 364
3 35 37 365
3 37 366 365
3 37 40 366
3 40 367 366
3 40 42 367
3 42 368 367
3 42 45 368
3 45 47 368
3 368 47 369
3 370 351 350
3 370 371 351
3 47 372 369
3 75 372 47
3 373 371 370
3 373 374 371
3 75 375 372
3 105 375 75
3 376 374 373
3 376 377 374
3 105 378 375
3 140 378 105
3 379 377 376
3 379 380 377
3 140 381 378
3 174 381 140
3 382 380 379
3 382 383 380
3 174 384 381
3 207 384 174
3 385 383 382
3 385 208 383
3 207 386 384
3 238 386 207
3 387 208 385
3 387 388 208
3 238 389 386
3 269 389 238
3 390 388 387
3 390 391 388
3 269 392 389
3 300 392 269
3 393 391 390
3 393 301 391
3 300 394 392
3 330 394 300
3 393 395 301
3 301 395 331
3 396 331 395
3 332 331 396
3 397 332 396
3 333 332 397
3 398 333 397
3 334 333 398
3 399 334 398
3 335 334 399
3 400 335 399
3 336 335 400
3 401 336 400
3 337 336 401
3 402 337 401
3 338 337 402
3 403 338 402
3 339 338 403
3 404 339 403
3 340 339 404
3 405 340 404
3 341 340 405
3 406 341 405
3 342 341 406
3 407 342 406
3 343 342 407
3 408 343 407
3 344 343 408
3 409 344 408
3 345 344 409
3 410 345 409
3 346 345 410
3 411 346 410
3 347 346 411
3 412 347 411
3 348 347 412
3 330 348 394
3 394 348 412
3 413 414 349
3 349 414 415
3 349 416 413
3 349 352 416
3 352 417 416
3 352 353 417
3 353 418 417
3 353 354 418
3 354 419 418
3 354 355 419
3 355 420 419
3 355 356 420
3 356 421 420
3 356 357 421
3 357 422 421
3 357 358 422
3 358 423 422
3 358 359 423
3 359 424 423
3 359 360 424
3 360 425 424
3 360 361 425
3 361 426 425
3 361 362 426
3 362 427 426
3 362 363 427
3 363 428 427
3 363 364 428
3 364 429 428
3 364 365 429
3 365 430 429
3 365 366 430
3 366 431 430
3 366 367 431
3 367 432 431
3 367 368 432
3 368 369 432
3 432 369 433
3 434 415 414
3 434 435 415
3 369 436 433
3 372 436 369
3 437 435 434
3 437 373 435
3 372 438 436
3 375 438 372
3 439 373 437
3 439 440 373
3 375 441 438
3 378 441 375
3 442 440 439
3 442 443 440
3 378 444 441
3 381 444 378
3 445 443 442
3 445 446 443
3 381 447 444
3 384 447 381
3 448 446 445
3 448 449 446
3 384 450 447
3 386 450 384
3 451 449 448
3 451 387 449
3 386 452 450
3 389 452 386
3 453 387 451
3 453 390 387
3 389 454 452
3 392 454 389
3 455 390 453
3 455 456 390
3 392 457 454
3 394 457 392
3 455 458 456
3 456 458 395
3 459 395 458
3 396 395 459
3 460 396 459
3 397 396 460
3 461 397 460
3 398 397 461
3 462 398 461
3 399 398 462
3 463 399 462
3 400 399 463
3 464 400 463
3 401 400 464
3 465 401 464
3 402 401 465
3 466 402 465
3 403 402 466
3 467 403 466
3 404 403 467
3 468 404 467
3 405 404 468
3 469 405 468
3 406 405 469
3 470 406 469
3 407 406 470
3 471 407 470
3 408 407 471
3 472 408 471
3 409 408 472
3 473 409 472
3 410 409 473
3 474 410 473
3 411 410 474
3 475 411 474
3 412 411 475
3 394 412 457
3 457 412 475
3 476 477 413
3 413 477 414
3 413 478 476
3 413 416 478
3 416 479 478
3 416 417 479
3 417 480 479
3 417 418 480
3 418 481 480
3 418 419 481
3 419 482 481
3 419 420 482
3 420 483 482
3 420 421 483
3 421 484 483
3 421 422 484
3 422 485 484
3 422 423 485
3 423 486 485
3 423 424 486
3 424 487 486
3 424 425 487
3 425 488 487
3 425 426 488
3 426 489 488
3 426 427 489
3 427 490 489
3 427 428 490
3 428 491 490
3 428 429 491
3 429 492 491
3 429 430 492
3 430 493 492
3 430 431 493
3 431 494 493
3 431 432 494
3 432 433 494
3 494 433 495
3 496 414 477
3 496 497 414
3 433 498 495
3 436 498 433
3 499 497 496
3 499 500 497
3 436 501 498
3 438 501 436
3 502 500 499
3 502 439 500
3 438 503 501
3 441 503 438
3 504 439 502
3 504 505 439
3 441 506 503
3 444 506 441
3 507 505 504
3 507 508 505
3 444 509 506
3 447 509 444
3 510 508 507
3 510 511 508
3 447 512 509
3 450 512 447
3 513 511 510
3 513 514 511
3 450 515 512
3 452 515 450
3 516 514 513
3 516 517 514
3 452 518 515
3 454 518 452
3 519 517 516
3 519 520 517
3 454 521 518
3 457 521 454
3 519 522 520
3 520 522 458
3 523 458 522
3 459 458 523
3 524 459 523
3 460 459 524
3 525 460 524
3 461 460 525
3 526 461 525
3 462 461 526
3 527 462 526
3 463 462 527
3 528 463 527
3 464 463 528
3 529 464 528
3 465 464 529
3 530 465 529
3 466 465 530
3 531 466 530
3 467 466 531
3 532 467 531
3 468 467 532
3 533 468 532
3 469 468 533
3 534 469 533
3 470 469 534
3 535 470 534
3 471 470 535
3 536 471 535
3 472 471 536
3 537 472 536
3 473 472 537
3 538 473 537
3 474 473 538
3 539 474 538
3 475 474 539
3 457 475 521
3 521 475 539
3 540 541 476
3 476 541 477
3 476 542 540
3 476 478 542
3 478 543 542
3 478 479 543
3 479 544 543
3 479 480 544
3 480 545 544
3 480 481 545
3 481 546 545
3 481 482 546
3 482 547 546
3 482 483 547
3 483 548 547
3 483 484 548
3 484 549 548
3 484 485 549
3 485 550 549
3 485 486 550
3 486 551 550
3 486 487 551
3 487 552 551
3 487 488 552
3 488 553 552
3 488 489 553
3 489 554 553
3 489 490 554
3 490 555 554
3 490 491 555
3 491 556 555
3 491 492 556
3 492 557 556
3 492 493 557
3 493 558 557
3 493 494 558
3 494 495 558
3 558 495 559
3 560 477 541
3 560 496 477
3 495 561 559
3 498 561 495
3 562 496 560
3 562 563 496
3 498 564 561
3 501 564 498
3 565 563 562
3 565 566 563
3 501 567 564
3 503 567 501
3 568 566 565
3 568 504 566
3 503 569 567
3 506 569 503
3 570 504 568
3 570 571 504
3 506 572 569
3 509 572 506
3 573 571 570
3 573 574 571
3 509 575 572
3 512 575 509
3 576 574 573
3 576 513 574
3 512 577 575
3 515 577 512
3 578 513 576
3 578 516 513
3 515 579 577
3 518 579 515
3 580 519 581
3 519 578 581
3 519 516 578
3 580 581 582
3 580 582 583
3 583 582 584
3 583 584 585
3 585 584 586
3 585 586 587
3 587 586 588
3 587 588 589
3 589 588 590
3 589 590 591
3 591 590 592
3 591 592 593
3 593 592 594
3 593 594 595
3 595 594 596
3 595 596 597
3 597 596 598
3 597 598 599
3 599 598 600
3 599 600 601
3 601 600 602
3 601 602 603
3 603 602 604
3 603 604 605
3 605 604 606
3 605 606 607
3 607 606 608
3 607 608 609
3 609 608 610
3 609 610 611
3 611 610 612
3 611 612 613
3 613 612 614
3 613 614 615
3 614 579 615
3 579 521 615
3 579 518 521
3 580 522 519
3 583 523 580
3 580 523 522
3 585 524 583
3 583 524 523
3 587 525 585
3 585 525 524
3 589 526 587
3 587 526 525
3 591 527 589
3 589 527 526
3 593 528 591
3 591 528 527
3 595 529 593
3 593 529 528
3 597 530 595
3 595 530 529
3 599 531 597
3 597 531 530
3 601 532 599
3 599 532 531
3 603 533 601
3 601 533 532
3 605 534 603
3 603 534 533
3 607 535 605
3 605 535 534
3 609 536 607
3 607 536 535
3 611 537 609
3 609 537 536
3 613 538 611
3 611 538 537
3 615 539 613
3 613 539 538
3 521 539 615
3 616 617 540
3 540 617 618
3 540 619 616
3 540 542 619
3 542 620 619
3 542 543 620
3 543 621 620
3 543 544 621
3 544 622 621
3 544 545 622
3 545 623 622
3 545 546 623
3 546 624 623
3 546 547 624
3 547 625 624
3 547 548 625
3 548 626 625
3 548 549 626
3 549 627 626
3 549 550 627
3 550 628 627
3 550 551 628
3 551 629 628
3 551 552 629
3 552 630 629
3 552 553 630
3 553 631 630
3 553 554 631
3 554 632 631
3 554 555 632
3 555 633 632
3 555 556 633
3 556 634 633
3 556 557 634
3 557 635 634
3 557 558 635
3 558 559 635
3 635 559 636
3 637 618 617
3 637 560 618
3 559 638 636
3 561 638 559
3 639 560 637
3 639 562 560
3 561 640 638
3 564 640 561
3 641 562 639
3 641 642 562
3 564 643 640
3 567 643 564
3 644 642 641
3 644 645 642
3 567 646 643
3 569 646 567
3 647 645 644
3 647 570 645
3 569 648 646
3 572 648 569
3 649 570 647
3 649 650 570
3 572 651 648
3 652 651 572
3 653 650 649
3 653 576 650
3 652 654 651
3 577 654 652
3 655 576 653
3 655 578 576
3 577 656 654
3 579 656 577
3 655 657 578
3 578 657 581
3 658 581 657
3 582 581 658
3 659 582 658
3 584 582 659
3 660 584 659
3 586 584 660
3 661 586 660
3 588 586 661
3 662 588 661
3 590 588 662
3 663 590 662
3 592 590 663
3 664 592 663
3 594 592 664
3 665 594 664
3 596 594 665
3 666 596 665
3 598 596 666
3 667 598 666
3 600 598 667
3 668 600 667
3 602 600 668
3 669 602 668
3 604 602 669
3 670 604 669
3 606 604 670
3 671 606 670
3 608 606 671
3 672 608 671
3 610 608 672
3 673 610 672
3 612 610 673
3 674 612 673
3 614 612 674
3 579 614 656
3 656 614 674
3 675 676 616
3 616 676 677
3 616 678 675
3 616 619 678
3 619 679 678
3 619 620 679
3 620 680 679
3 620 621 680
3 621 681 680
3 621 622 681
3 622 682 681
3 622 623 682
3 623 683 682
3 623 624 683
3 624 684 683
3 624 625 684
3 625 685 684
3 625 626 685
3 626 686 685
3 626 627 686
3 627 687 686
3 627 628 687
3 628 688 687
3 628 629 688
3 629 689 688
3 629 630 689
3 630 690 689
3 630 631 690
3 631 691 690
3 631 632 691
3 632 692 691
3 632 633 692
3 633 693 692
3 633 634 693
3 634 694 693
3 634 635 694
3 635 636 694
3 694 636 695
3 696 677 676
3 696 637 677
3 636 697 695
3 638 697 636
3 698 637 696
3 698 639 637
3 638 699 697
3 640 699 638
3 700 639 698
3 700 701 639
3 640 702 699
3 643 702 640
3 703 701 700
3 703 644 701
3 643 704 702
3 646 704 643
3 705 644 703
3 705 706 644
3 646 707 704
3 648 707 646
3 708 706 705
3 708 709 706
3 648 710 707
3 651 710 648
3 711 709 708
3 711 653 709
3 651 712 710
3 654 712 651
3 713 653 711
3 713 714 653
3 654 715 712
3 656 715 654
3 713 716 714
3 714 716 657
3 717 657 716
3 658 657 717
3 718 658 717
3 659 658 718
3 719 659 718
3 660 659 719
3 720 660 719
3 661 660 720
3 721 661 720
3 662 661 721
3 722 662 721
3 663 662 722
3 723 663 722
3 664 663 723
3 724 664 723
3 665 664 724
3 725 665 724
3 666 665 725
3 726 666 725
3 667 666 726
3 727 667 726
3 668 667 727
3 728 668 727
3 669 668 728
3 729 669 728
3 670 669 729
3 730 670 729
3 671 670 730
3 731 671 730
3 672 671 731
3 732 672 731
3 673 672 732
3 733 673 732
3 674 673 733
3 656 674 715
3 715 674 733
3 734 735 675
3 675 735 676
3 675 736 734
3 675 678 736
3 678 737 736
3 678 679 737
3 679 738 737
3 679 680 738
3 680 739 738
3 680 681 739
3 681 740 739
3 681 682 740
3 682 741 740
3 682 683 741
3 683 742 741
3 683 684 742
3 684 743 742
3 684 685 743
3 685 744 743
3 685 686 744
3 686 745 744
3 686 687 745
3 687 746 745
3 687 688 746
3 688 747 746
3 688 689 747
3 689 748 747
3 689 690 748
3 690 749 748
3 690 691 749
3 691 750 749
3 691 692 750
3 692 751 750
3 692 693 751
3 693 752 751
3 693 694 752
3 694 695 752
3 752 695 753
3 754 676 735
3 754 755 676
3 695 756 753
3 697 756 695
3 757 755 754
3 757 698 755
3 697 758 756
3 699 758 697
3 759 698 757
3 759 760 698
3 699 761 758
3 702 761 699
3 762 760 759
3 762 703 760
3 702 763 761
3 704 763 702
3 764 703 762
3 764 705 703
3 704 765 763
3 707 765 704
3 766 705 764
3 766 708 705
3 707 767 765
3 710 767 707
3 768 708 766
3 768 711 708
3 710 769 767
3 770 769 710
3 771 711 768
3 771 713 711
3 770 772 769
3 715 772 770
3 771 773 713
3 713 773 716
3 774 716 773
3 717 716 774
3 775 717 774
3 718 717 775
3 776 718 775
3 719 718 776
3 777 719 776
3 720 719 777
3 778 720 777
3 721 720 778
3 779 721 778
3 722 721 779
3 780 722 779
3 723 722 780
3 781 723 780
3 724 723 781
3 782 724 781
3 725 724 782
3 783 725 782
3 726 725 783
3 784 726 783
3 727 726 784
3 785 727 784
3 728 727 785
3 786 728 785
3 729 728 786
3 787 729 786
3 730 729 787
3 788 730 787
3 731 730 788
3 789 731 788
3 732 731 789
3 790 732 789
3 733 732 790
3 715 733 772
3 772 733 790
3 791 792 734
3 734 792 793
3 734 794 791
3 734 736 794
3 736 795 794
3 736 737 795
3 737 796 795
3 737 738 796
3 738 797 796
3 738 739 797
3 739 798 797
3 739 740 798
3 740 799 798
3 740 741 799
3 741 800 799
3 741 742 800
3 742 801 800
3 742 743 801
3 743 802 801
3 743 744 802
3 744 803 802
3 744 745 803
3 745 804 803
3 745 746 804
3 746 805 804
3 746 747 805
3 747 806 805
3 747 748 806
3 748 807 806
3 748 749 807
3 749 808 807
3 749 750 808
3 750 809 808
3 750 751 809
3 751 810 809
3 751 752 810
3 752 753 810
3 810 753 811
3 812 793 792
3 812 754 793
3 753 813 811
3 756 813 753
3 814 754 812
3 814 757 754
3 756 815 813
3 758 815 756
3 816 757 814
3 816 759 757
3 758 817 815
3 761 817 758
3 818 759 816
3 818 762 759
3 761 819 817
3 763 819 761
3 820 762 818
3 820 764 762
3 763 821 819
3 765 821 763
3 822 764 820
3 822 823 764
3 765 824 821
3 767 824 765
3 825 823 822
3 825 826 823
3 767 827 824
3 769 827 767
3 828 826 825
3 828 829 826
3 769 830 827
3 772 830 769
3 828 831 829
3 829 831 773
3 832 773 831
3 774 773 832
3 833 774 832
3 775 774 833
3 834 775 833
3 776 775 834
3 835 776 834
3 777 776 835
3 836 777 835
3 778 777 836
3 837 778 836
3 779 778 837
3 838 779 837
3 780 779 838
3 839 780 838
3 781 780 839
3 840 781 839
3 782 781 840
3 841 782 840
3 783 782 841
3 842 783 841
3 784 783 842
3 843 784 842
3 785 784 843
3 844 785 843
3 786 785 844
3 845 786 844
3 787 786 845
3 846 787 845
3 788 787 846
3 847 788 846
3 789 788 847
3 848 789 847
3 790 789 848
3 772 790 830
3 830 790 848
3 849 850 791
3 791 850 792
3 791 851 849
3 791 794 851
3 794 852 851
3 794 795 852
3 795 853 852
3 795 796 853
3 796 854 853
3 796 797 854
3 797 855 854
3 797 798 855
3 798 856 855
3 798 799 856
3 799 857 856
3 799 800 857
3 800 858 857
3 800 801 858
3 801 859 858
3 801 802 859
3 802 860 859
3 802 803 860
3 803 861 860
3 803 804 861
3 804 862 861
3 804 805 862
3 805 863 862
3 805 806 863
3 806 864 863
3 806 807 864
3 807 865 864
3 807 808 865
3 808 866 865
3 808 809 866
3 809 867 866
3 809 810 867
3 810 811 867
3 867 811 868
3 869 792 850
3 869 812 792
3 811 870 868
3 813 870 811
3 871 812 869
3 871 814 812
3 813 872 870
3 815 872 813
3 873 814 871
3 873 816 814
3 815 874 872
3 817 874 815
3 875 816 873
3 875 818 816
3 817 876 874
3 877 876 817
3 878 818 875
3 878 820 818
3 877 879 876
3 821 879 877
3 880 820 878
3 880 881 820
3 821 882 879
3 824 882 821
3 883 881 880
3 883 884 881
3 824 885 882
3 886 885 824
3 887 884 883
3 887 828 884
3 886 888 885
3 830 888 886
3 887 889 828
3 828 889 831
3 890 831 889
3 832 831 890
3 891 832 890
3 833 832 891
3 892 833 891
3 834 833 892
3 893 834 892
3 835 834 893
3 894 835 893
3 836 835 894
3 895 836 894
3 837 836 895
3 896 837 895
3 838 837 896
3 897 838 896
3 839 838 897
3 898 839 897
3 840 839 898
3 899 840 898
3 841 840 899
3 900 841 899
3 842 841 900
3 901 842 900
3 843 842 901
3 902 843 901
3 844 843 902
3 903 844 902
3 845 844 903
3 904 845 903
3 846 845 904
3 905 846 904
3 847 846 905
3 906 847 905
3 848 847 906
3 830 848 888
3 888 848 906
3 907 908 849
3 849 908 909
3 849 910 907
3 849 851 910
3 851 911 910
3 851 852 911
3 852 912 911
3 852 853 912
3 853 913 912
3 853 854 913
3 854 914 913
3 854 855 914
3 855 915 914
3 855 856 915
3 856 916 915
3 856 857 916
3 857 917 916
3 857 858 917
3 858 918 917
3 858 859 918
3 859 919 918
3 859 860 919
3 860 920 919
3 860 861 920
3 861 921 920
3 861 862 921
3 862 922 921
3 862 863 922
3 863 923 922
3 863 864 923
3 864 924 923
3 864 865 924
3 865 925 924
3 865 866 925
3 866 926 925
3 866 867 926
3 867 868 926
3 926 868 927
3 928 909 908
3 928 869 909
3 868 929 927
3 870 929 868
3 930 869 928
3 930 931 869
3 870 932 929
3 872 932 870
3 933 931 930
3 933 873 931
3 872 934 932
3 874 934 872
3 935 873 933
3 935 875 873
3 874 936 934
3 876 936 874
3 937 875 935
3 937 878 875
3 876 938 936
3 879 938 876
3 939 878 937
3 939 880 878
3 879 940 938
3 882 940 879
3 941 880 939
3 941 942 880
3 882 943 940
3 885 943 882
3 944 942 941
3 944 887 942
3 885 945 943
3 888 945 885
3 944 946 887
3 887 946 889
3 947 889 946
3 890 889 947
3 948 890 947
3 891 890 948
3 949 891 948
3 892 891 949
3 950 892 949
3 893 892 950
3 951 893 950
3 894 893 951
3 952 894 951
3 895 894 952
3 953 895 952
3 896 895 953
3 954 896 953
3 897 896 954
3 955 897 954
3 898 897 955
3 956 898 955
3 899 898 956
3 957 899 956
3 900 899 957
3 958 900 957
3 901 900 958
3 959 901 958
3 902 901 959
3 960 902 959
3 903 902 960
3 961 903 960
3 904 903 961
3 962 904 961
3 905 904 962
3 963 905 962
3 906 905 963
3 888 906 945
3 945 906 963
3 964 965 907
3 907 965 966
3 907 967 964
3 907 910 967
3 910 968 967
3 910 911 968
3 911 969 968
3 911 912 969
3 912 970 969
3 912 913 970
3 913 971 970
3 913 914 971
3 914 972 971
3 914 915 972
3 915 973 972
3 915 916 973
3 916 974 973
3 916 917 974
3 917 975 974
3 917 918 975
3 918 976 975
3 918 919 976
3 919 977 976
3 919 920 977
3 920 978 977
3 920 921 978
3 921 979 978
3 921 922 979
3 922 980 979
3 922 923 980
3 923 981 980
3 923 924 981
3 924 982 981
3 924 925 982
3 925 983 982
3 925 926 983
3 926 927 983
3 983 927 984
3 985 966 965
3 985 986 966
3 927 987 984
3 929 987 927
3 988 986 985
3 988 930 986
3 929 989 987
3 932 989 929
3 990 930 988
3 990 991 930
3 932 992 989
3 934 992 932
3 993 991 990
3 993 994 991
3 934 995 992
3 936 995 934
3 996 994 993
3 996 997 994
3 936 998 995
3 938 998 936
3 999 997 996
3 999 1000 997
3 938 1001 998
3 940 1001 938
3 1002 1000 999
3 1002 1003 1000
3 940 1004 1001
3 943 1004 940
3 1005 1003 1002
3 1005 1006 1003
3 943 1007 1004
3 945 1007 943
3 1005 1008 1006
3 1006 1008 946
3 1009 946 1008
3 947 946 1009
3 1010 947 1009
3 948 947 1010
3 1011 948 1010
3 949 948 1011
3 1012 949 1011
3 950 949 1012
3 1013 950 1012
3 951 950 1013
3 1014 951 1013
3 952 951 1014
3 1015 952 1014
3 953 952 1015
3 1016 953 1015
3 954 953 1016
3 1017 954 1016
3 955 954 1017
3 1018 955 1017
3 956 955 1018
3 1019 956 1018
3 957 956 1019
3 1020 957 1019
3 958 957 1020
3 1021 958 1020
3 959 958 1021
3 1022 959 1021
3 960 959 1022
3 1023 960 1022
3 961 960 1023
3 1024 961 1023
3 962 961 1024
3 1025 962 1024
3 963 962 1025
3 945 963 1007
3 1007 963 1025
3 1026 1027 964
3 964 1027 1028
3 964 1029 1026
3 964 967 1029
3 967 1030 1029
3 967 968 1030
3 968 1031 1030
3 968 969 1031
3 969 1032 1031
3 969 970 1032
3 970 1033 1032
3 970 971 1033
3 971 1034 1033
3 971 972 1034
3 972 1035 1034
3 972 973 1035
3 973 1036 1035
3 973 974 1036
3 974 1037 1036
3 974 975 1037
3 975 1038 1037
3 975 976 1038
3 976 1039 1038
3 976 977 1039
3 977 1040 1039
3 977 978 1040
3 978 1041 1040
3 978 979 1041
3 979 1042 1041
3 979 980 1042
3 980 1043 1042
3 980 981 1043
3 981 1044 1043
3 981 982 1044
3 982 1045 1044
3 982 983 1045
3 983 984 1045
3 1045 984 1046
3 1047 1028 1027
3 1047 985 1028
3 984 1048 1046
3 987 1048 984
3 1049 985 1047
3 1049 988 985
3 987 1050 1048
3 989 1050 987
3 1051 988 1049
3 1051 1052 988
3 989 1053 1050
3 992 1053 989
3 1054 1052 1051
3 1054 1055 1052
3 992 1056 1053
3 995 1056 992
3 1057 1055 1054
3 1057 996 1055
3 995 1058 1056
3 998 1058 995
3 1059 996 1057
3 1059 999 996
3 998 1060 1058
3 1001 1060 998
3 1061 999 1059
3 1061 1002 999
3 1001 1062 1060
3 1004 1062 1001
3 1063 1002 1061
3 1063 1064 1002
3 1004 1065 1062
3 1007 1065 1004
3 1063 1066 1064
3 1064 1066 1008
3 1067 1008 1066
3 1009 1008 1067
3 1068 1009 1067
3 1010 1009 1068
3 1069 1010 1068
3 1011 1010 1069
3 1070 1011 1069
3 1012 1011 1070
3 1071 1012 1070
3 1013 1012 1071
3 1072 1013 1071
3 1014 1013 1072
3 1073 1014 1072
3 1015 1014 1073
3 1074 1015 1073
3 1016 1015 1074
3 1075 1016 1074
3 1017 1016 1075
3 1076 1017 1075
3 1018 1017 1076
3 1077 1018 1076
3 1019 1018 1077
3 1078 1019 1077
3 1020 1019 1078
3 1079 1020 1078
3 1021 1020 1079
3 1080 1021 1079
3 1022 1021 1080
3 1081 1022 1080
3 1023 1022 1081
3 1082 1023 1081
3 1024 1023 1082
3 1083 1024 1082
3 1025 1024 1083
3 1007 1025 1065
3 1065 1025 1083
3 1026 1084 1085
3 1084 1026 1086
3 1086 1026 1029
3 1086 1029 1087
3 1087 1029 1030
3 1087 1030 1088
3 1088 1030 1031
3 1088 1031 1089
3 1089 1031 1032
3 1089 1032 1090
3 1090 1032 1033
3 1090 1033 1091
3 1091 1033 1034
3 1091 1034 1092
3 1092 1034 1035
3 1092 1035 1093
3 1093 1035 1036
3 1093 1036 1094
3 1094 1036 1037
3 1094 1037 1095
3 1095 1037 1038
3 1095 1038 1096
3 1096 1038 1039
3 1096 1039 1097
3 1097 1039 1040
3 1097 1040 1098
3 1098 1040 1041
3 1098 1041 1099
3 1099 1041 1042
3 1099 1042 1100
3 1100 1042 1043
3 1100 1043 1101
3 1101 1043 1044
3 1101 1044 1102
3 1102 1044 1045
3 1045 1046 1102
3 1085 1084 1047
3 1047 1084 1103
3 1086 1103 1084
3 1086 1104 1103
3 1087 1104 1086
3 1087 1105 1104
3 1088 1105 1087
3 1088 1106 1105
3 1089 1106 1088
3 1089 1107 1106
3 1090 1107 1089
3 1090 1108 1107
3 1091 1108 1090
3 1091 1109 1108
3 1092 1109 1091
3 1092 1110 1109
3 1093 1110 1092
3 1093 1111 1110
3 1094 1111 1093
3 1094 1112 1111
3 1095 1112 1094
3 1095 1113 1112
3 1096 1113 1095
3 1096 1114 1113
3 1097 1114 1096
3 1097 1115 1114
3 1098 1115 1097
3 1098 1116 1115
3 1099 1116 1098
3 1099 1117 1116
3 1100 1117 1099
3 1100 1118 1117
3 1101 1118 1100
3 1101 1119 1118
3 1102 1119 1101
3 1102 1120 1119
3 1102 1046 1121
3 1121 1046 1048
3 1047 1103 1122
3 1122 1103 1123
3 1104 1123 1103
3 1104 1124 1123
3 1105 1124 1104
3 1105 1125 1124
3 1106 1126 1105
3 1106 1127 1126
3 1107 1128 1106
3 1107 1129 1128
3 1108 1129 1107
3 1108 1130 1129
3 1109 1130 1108
3 1109 1131 1130
3 1110 1131 1109
3 1110 1132 1131
3 1111 1132 1110
3 1111 1133 1132
3 1112 1133 1111
3 1112 1134 1133
3 1113 1134 1112
3 1113 1135 1134
3 1114 1135 1113
3 1114 1136 1135
3 1115 1136 1114
3 1115 1137 1136
3 1116 1137 1115
3 1116 1138 1137
3 1117 1138 1116
3 1117 1139 1138
3 1118 1139 1117
3 1118 1140 1139
3 1119 1140 1118
3 1119 1141 1140
3 1120 1141 1119
3 1120 1142 1141
3 1121 1048 1142
3 1142 1048 1050
3 1122 1123 1143
3 1143 1123 1144
3 1124 1144 1123
3 1124 1145 1144
3 1125 1145 1124
3 1125 1146 1145
3 1127 1146 1126
3 1127 1147 1146
3 1129 1147 1128
3 1129 1148 1147
3 1130 1148 1129
3 1130 1149 1148
3 1131 1149 1130
3 1131 1150 1149
3 1132 1150 1131
3 1132 1151 1150
3 1133 1152 1132
3 1133 1153 1152
3 1134 1153 1133
3 1134 1154 1153
3 1135 1154 1134
3 1135 1155 1154
3 1136 1155 1135
3 1136 1156 1155
3 1137 1156 1136
3 1137 1157 1156
3 1138 1157 1137
3 1138 1158 1157
3 1139 1159 1138
3 1139 1160 1159
3 1140 1160 1139
3 1140 1161 1160
3 1141 1161 1140
3 1141 1162 1161
3 1142 1162 1141
3 1142 1163 1162
3 1142 1050 1163
3 1163 1050 1053
3 1143 1144 1164
3 1164 1144 1165
3 1145 1165 1144
3 1145 1166 1165
3 1146 1166 1145
3 1146 1167 1166
3 1147 1167 1146
3 1147 1168 1167
3 1148 1168 1147
3 1148 1169 1168
3 1149 1169 1148
3 1149 1170 1169
3 1150 1170 1149
3 1150 1171 1170
3 1151 1171 1150
3 1151 1172 1171
3 1153 1172 1152
3 1153 1173 1172
3 1154 1173 1153
3 1154 1174 1173
3 1155 1174 1154
3 1155 1175 1174
3 1156 1175 1155
3 1156 1176 1175
3 1157 1176 1156
3 1157 1177 1176
3 1158 1177 1157
3 1158 1178 1177
3 1160 1178 1159
3 1160 1179 1178
3 1161 1179 1160
3 1161 1180 1179
3 1162 1180 1161
3 1162 1181 1180
3 1163 1181 1162
3 1163 1182 1181
3 1163 1053 1182
3 1182 1053 1056
3 1164 1165 1057
3 1057 1165 1183
3 1166 1183 1165
3 1166 1184 1183
3 1167 1184 1166
3 1167 1185 1184
3 1168 1185 1167
3 1168 1186 1185
3 1169 1186 1168
3 1169 1187 1186
3 1170 1187 1169
3 1170 1188 1187
3 1171 1188 1170
3 1171 1189 1188
3 1172 1189 1171
3 1172 1190 1189
3 1173 1190 1172
3 1173 1191 1190
3 1174 1191 1173
3 1174 1192 1191
3 1175 1192 1174
3 1175 1193 1192
3 1176 1193 1175
3 1176 1194 1193
3 1177 1194 1176
3 1177 1195 1194
3 1178 1195 1177
3 1178 1196 1195
3 1179 1196 1178
3 1179 1197 1196
3 1180 1197 1179
3 1180 1198 1197
3 1181 1198 1180
3 1181 1199 1198
3 1182 1199 1181
3 1182 1200 1199
3 1182 1056 1200
3 1200 1056 1058
3 1057 1183 1201
3 1201 1183 1202
3 1184 1202 1183
3 1184 1203 1202
3 1185 1203 1184
3 1185 1204 1203
3 1186 1204 1185
3 1186 1205 1204
3 1187 1205 1186
3 1187 1206 1205
3 1188 1206 1187
3 1188 1207 1206
3 1189 1207 1188
3 1189 1208 1207
3 1190 1208 1189
3 1190 1209 1208
3 1191 1209 1190
3 1191 1210 1209
3 1192 1210 1191
3 1192 1211 1210
3 1193 1211 1192
3 1193 1212 1211
3 1194 1212 1193
3 1194 1213 1212
3 1195 1213 1194
3 1195 1214 1213
3 1196 1214 1195
3 1196 1215 1214
3 1197 1215 1196
3 1197 1216 1215
3 1198 1216 1197
3 1198 1217 1216
3 1199 1217 1198
3 1199 1218 1217
3 1200 1218 1199
3 1200 1219 1218
3 1200 1058 1219
3 1219 1058 1060
3 1201 1202 1220
3 1220 1202 1221
3 1203 1221 1202
3 1203 1222 1221
3 1204 1222 1203
3 1204 1223 1222
3 1205 1223 1204
3 1205 1224 1223
3 1206 1224 1205
3 1206 1225 1224
3 1207 1225 1206
3 1207 1226 1225
3 1208 1226 1207
3 1208 1227 1226
3 1209 1227 1208
3 1209 1228 1227
3 1210 1228 1209
3 1210 1229 1228
3 1211 1229 1210
3 1211 1230 1229
3 1212 1230 1211
3 1212 1231 1230
3 1213 1231 1212
3 1213 1232 1231
3 1214 1232 1213
3 1214 1233 1232
3 1215 1233 1214
3 1215 1234 1233
3 1216 1234 1215
3 1216 1235 1234
3 1217 1235 1216
3 1217 1236 1235
3 1218 1236 1217
3 1218 1237 1236
3 1219 1237 1218
3 1219 1238 1237
3 1219 1060 1238
3 1238 1060 1062
3 1220 1221 1239
3 1239 1221 1240
3 1222 1240 1221
3 1222 1241 1240
3 1223 1241 1222
3 1223 1242 1241
3 1224 1242 1223
3 1224 1243 1242
3 1225 1243 1224
3 1225 1244 1243
3 1226 1244 1225
3 1226 1245 1244
3 1227 1245 1226
3 1227 1246 1245
3 1228 1246 1227
3 1228 1247 1246
3 1229 1247 1228
3 1229 1248 1247
3 1230 1248 1229
3 1230 1249 1248
3 1231 1249 1230
3 1231 1250 1249
3 1232 1250 1231
3 1232 1251 1250
3 1233 1251 1232
3 1233 1252 1251
3 1234 1253 1233
3 1234 1254 1253
3 1235 1254 1234
3 1235 1255 1254
3 1236 1255 1235
3 1236 1256 1255
3 1237 1256 1236
3 1237 1257 1256
3 1238 1257 1237
3 1238 1258 1257
3 1238 1062 1258
3 1258 1062 1065
3 1240 1066 1239
3 1241 1067 1240
3 1240 1067 1066
3 1242 1068 1241
3 1241 1068 1067
3 1243 1069 1242
3 1242 1069 1068
3 1244 1070 1243
3 1243 1070 1069
3 1245 1071 1244
3 1244 1071 1070
3 1246 1072 1245
3 1245 1072 1071
3 1247 1073 1246
3 1246 1073 1072
3 1248 1074 1247
3 1247 1074 1073
3 1249 1075 1248
3 1248 1075 1074
3 1250 1076 1249
3 1249 1076 1075
3 1251 1077 1250
3 1250 1077 1076
3 1252 1078 1251
3 1251 1078 1077
3 1254 1079 1253
3 1253 1079 1078
3 1255 1080 1254
3 1254 1080 1079
3 1256 1081 1255
3 1255 1081 1080
3 1257 1082 1256
3 1256 1082 1081
3 1258 1083 1257
3 1257 1083 1082
3 1065 1083 1258
