ply
format ascii 1.0
element vertex 1180
property float x
property float y
property float z
element face 2048
property list uchar int vertex_index
end_header
0.566977 1 1
1 1 0.566977
1 0.56698 1
1 1 0.566977
2 0.56698 1
2 1 0.566977
2 1 0.566977
3 0.56698 1
3 1 0.566977
3 1 0.566977
4 0.56698 1
4 1 0.566977
5 0.56698 1
5 1 0.566977
6 0.56698 1
6 1 0.566977
6 1 0.566977
7 0.56698 1
7 1 0.566977
8 0.56698 1
8 1 0.566977
8 1 0.566977
9 0.56698 1
9 1 0.566977
10 0.56698 1
10 1 0.566977
10 1 0.566977
11 0.56698 1
11 1 0.566977
12 0.56698 1
12 1 0.566977
12 1 0.566977
13 0.56698 1
13 1 0.566977
13 1 0.566977
14 0.56698 1
14 1 0.566977
14 1 0.566977
15 0.56698 1
15 1 0.566977
15 1 0.566977
16 0.56698 1
16 1 0.566977
16 1 0.566977
17 0.56698 1
17 1 0.566977
18 0.56698 1
18 1 0.566977
18 1 0.566977
18.433 1 1
0.563445 2 1
1 2 0.563445
2 2 0.563445
3 2 0.563444
4 2 0.563444
5 2 0.563444
6 2 0.563444
7 2 0.563444
7 2 0.563444
8 2 0.563444
9 2 0.563444
9 2 0.563444
10 2 0.563444
11 2 0.563444
11 2 0.563444
12 2 0.563444
13 2 0.563444
14 2 0.563444
14 2 0.563444
15 2 0.563444
15 2 0.563444
16 2 0.563444
17 2 0.563444
17 2 0.563444
18 2 0.563444
18 2 0.563444
18.4366 2 1
0.559747 3 1
1 3 0.559747
2 3 0.559747
3 3 0.559746
4 3 0.559746
5 3 0.559746
5 3 0.559746
6 3 0.559746
6 3 0.559746
7 3 0.559746
7 3 0.559746
8 3 0.559746
8 3 0.559746
9 3 0.559746
10 3 0.559746
10 3 0.559746
11 3 0.559746
12 3 0.559746
13 3 0.559746
14 3 0.559746
14 3 0.559746
15 3 0.559746
15 3 0.559746
16 3 0.559746
16 3 0.559746
17 3 0.559746
17 3 0.559746
18 3 0.559746
18 3 0.559746
18.4403 3 1
0.555747 4 1
1 4 0.555747
2 4 0.555747
2 4 0.555747
3 4 0.555746
4 4 0.555746
5 4 0.555746
5 4 0.555746
6 4 0.555746
7 4 0.555746
7 4 0.555746
8 4 0.555746
8 4 0.555746
9 4 0.555746
10 4 0.555746
10 4 0.555746
11 4 0.555746
12 4 0.555746
12 4 0.555746
13 4 0.555746
14 4 0.555746
15 4 0.555746
15 4 0.555746
16 4 0.555746
17 4 0.555746
17 4 0.555746
18 4 0.555746
18 4 0.555746
18.4443 4 1
0.551264 5 1
1 5 0.551264
1 5 0.551264
2 5 0.551263
3 5 0.551263
3 5 0.551263
4 5 0.551262
4 5 0.551262
5 5 0.551262
5 5 0.551262
6 5 0.551262
6 5 0.551262
7 5 0.551262
7 5 0.551262
8 5 0.551262
8 5 0.551262
9 5 0.551262
9 5 0.551262
10 5 0.551262
11 5 0.551262
12 5 0.551262
12 5 0.551262
13 5 0.551262
13 5 0.551262
14 5 0.551262
15 5 0.551262
16 5 0.551262
16 5 0.551262
17 5 0.551262
18 5 0.551262
18 5 0.551262
18.4487 5 1
0.546022 6 1
1 6 0.546022
2 6 0.54602
3 6 0.546019
3 6 0.546019
4 6 0.546018
4 6 0.546018
5 6 0.546018
6 6 0.546018
7 6 0.546018
7 6 0.546018
8 6 0.546018
9 6 0.546018
10 6 0.546018
11 6 0.546018
12 6 0.546018
12 6 0.546018
13 6 0.546018
13 6 0.546018
14 6 0.546018
15 6 0.546018
16 6 0.546018
17 6 0.546018
17 6 0.546018
18 6 0.546018
18 6 0.546018
18.454 6 1
0.539551 7 1
1 7 0.539551
2 7 0.539546
2 7 0.539546
3 7 0.539543
4 7 0.539542
5 7 0.539542
5 7 0.539542
6 7 0.539543
7 7 0.539543
7 7 0.539543
8 7 0.539543
9 7 0.539543
9 7 0.539543
10 7 0.539543
10 7 0.539543
11 7 0.539543
12 7 0.539543
13 7 0.539543
14 7 0.539543
15 7 0.539543
15 7 0.539543
16 7 0.539543
16 7 0.539543
17 7 0.539543
18 7 0.539543
18.4605 7 1
0.530961 8 1
1 8 0.530961
1 8 0.530961
2 8 0.530945
3 8 0.530938
3 8 0.530938
4 8 0.530938
4 8 0.530938
5 8 0.530939
5 8 0.530939
6 8 0.53094
6 8 0.53094
7 8 0.53094
7 8 0.53094
8 8 0.530941
8 8 0.530941
9 8 0.530941
10 8 0.530941
11 8 0.530941
12 8 0.530941
13 8 0.530941
13 8 0.530941
14 8 0.530941
14 8 0.530941
15 8 0.530941
15 8 0.530941
16 8 0.530941
17 8 0.530941
17 8 0.530941
18 8 0.530941
18 8 0.530941
18.4691 8 1
0.51733 9 1
1 9 0.51733
1 9 0.51733
2 9 0.517308
3 9 0.517318
3 9 0.517318
4 9 0.517328
4 9 0.517328
5 9 0.517332
6 9 0.517333
6 9 0.517333
7 9 0.517334
7 9 0.517334
8 9 0.517334
8 9 0.517334
9 9 0.517334
9 9 0.517334
10 9 0.517334
10 9 0.517334
11 9 0.517334
11 9 0.517334
12 9 0.517334
13 9 0.517335
14 9 0.517335
15 9 0.517335
16 9 0.517335
17 9 0.517335
18 9 0.517335
18.4827 9 1
1 9.48267 1
2 9.48269 1
3 9.48268 1
4 9.48267 1
5 9.48267 1
6 9.48267 1
7 9.48267 1
8 9.48267 1
9 9.48267 1
10 9.48267 1
11 9.48267 1
12 9.48267 1
13 9.48267 1
14 9.48267 1
15 9.48267 1
16 9.48267 1
17 9.48267 1
18 9.48267 1
1 0.570388 2
0.570386 1 2
0.566977 1 1
2 0.570388 2
3 0.570388 2
4 0.570388 2
5 0.570388 2
6 0.570388 2
7 0.570388 2
8 0.570388 2
9 0.570388 2
10 0.570388 2
11 0.570388 2
12 0.570388 2
13 0.570388 2
14 0.570388 2
15 0.570388 2
16 0.570388 2
17 0.570388 2
18 0.570388 2
18.4296 1 2
0.566976 2 2
18.433 2 2
0.563525 3 2
0.559747 3 1
18.4365 3 2
0.55993 4 2
18.4401 4 2
0.556087 5 2
0.551264 5 1
18.4439 5 2
0.551877 6 2
18.4481 6 2
0.547187 7 2
18.4528 7 2
0.542033 8 2
0.530961 8 1
18.458 8 2
0.536308 9 2
18.4637 9 2
1 9.46369 2
2 9.46369 2
3 9.46367 2
4 9.46367 2
5 9.46366 2
6 9.46366 2
7 9.46366 2
8 9.46366 2
9 9.46366 2
10 9.46366 2
11 9.46366 2
12 9.46366 2
13 9.46366 2
14 9.46366 2
15 9.46366 2
16 9.46366 2
17 9.46366 2
18 9.46366 2
1 0.573648 3
0.573646 1 3
2 0.573648 3
3 0.573648 3
4 0.573648 3
5 0.573648 3
6 0.573648 3
7 0.573648 3
8 0.573648 3
9 0.573648 3
10 0.573648 3
11 0.573648 3
12 0.573648 3
13 0.573648 3
14 0.573648 3
15 0.573648 3
16 0.573648 3
17 0.573648 3
18 0.573648 3
18.4264 1 3
0.570453 2 3
18.4295 2 3
0.567336 3 3
18.4327 3 3
0.564237 4 3
0.55993 4 2
18.4358 4 3
0.561123 5 3
18.4389 5 3
0.558008 6 3
0.551877 6 2
18.442 6 3
0.555006 7 3
18.445 7 3
0.552492 8 3
0.542033 8 2
18.4475 8 3
0.551043 9 3
18.4489 9 3
1 9.44896 3
2 9.44895 3
3 9.44895 3
4 9.44895 3
5 9.44895 3
6 9.44894 3
7 9.44894 3
8 9.44894 3
9 9.44894 3
10 9.44894 3
11 9.44894 3
12 9.44894 3
13 9.44894 3
14 9.44894 3
15 9.44894 3
16 9.44894 3
17 9.44894 3
18 9.44894 3
1 0.576674 4
0.576672 1 4
2 0.576674 4
3 0.576674 4
4 0.576674 4
5 0.576674 4
6 0.576674 4
7 0.576674 4
8 0.576674 4
9 0.576674 4
10 0.576674 4
11 0.576674 4
12 0.576674 4
13 0.576674 4
14 0.576674 4
15 0.576674 4
16 0.576674 4
17 0.576674 4
18 0.576674 4
18.4233 1 4
0.57376 2 4
0.570453 2 3
18.4262 2 4
0.57102 3 4
0.567336 3 3
18.429 3 4
0.568428 4 4
18.4316 4 4
0.566001 5 4
18.434 5 4
0.563816 6 4
0.558008 6 3
18.4362 6 4
0.562054 7 4
0.555006 7 3
18.4379 7 4
0.561086 8 4
0.552492 8 3
18.4389 8 4
0.561354 9 4
0.551043 9 3
18.4386 9 4
1 9.43865 4
2 9.43864 4
3 9.43864 4
4 9.43865 4
5 9.43865 4
6 9.43865 4
7 9.43865 4
8 9.43865 4
9 9.43865 4
10 9.43865 4
11 9.43865 4
12 9.43865 4
13 9.43865 4
14 9.43865 4
15 9.43865 4
16 9.43865 4
17 9.43865 4
18 9.43865 4
1 0.57941 5
0.579409 1 5
2 0.57941 5
3 0.57941 5
4 0.57941 5
5 0.57941 5
6 0.57941 5
7 0.57941 5
8 0.57941 5
9 0.57941 5
10 0.57941 5
11 0.57941 5
12 0.57941 5
13 0.57941 5
14 0.57941 5
15 0.57941 5
16 0.57941 5
17 0.57941 5
18 0.57941 5
18.4206 1 5
0.576816 2 5
0.57376 2 4
18.4232 2 5
0.574463 3 5
0.57102 3 4
18.4255 3 5
0.572347 4 5
0.568428 4 4
18.4277 4 5
0.570508 5 5
0.566001 5 4
18.4295 5 5
0.569038 6 5
18.431 6 5
0.568103 7 5
0.562054 7 4
18.4319 7 5
0.567976 8 5
18.432 8 5
0.568894 9 5
0.561354 9 4
18.4311 9 5
1 9.43111 5
2 9.4311 5
3 9.43111 5
4 9.43111 5
5 9.43111 5
6 9.43111 5
7 9.43111 5
8 9.43111 5
9 9.43111 5
10 9.43111 5
11 9.43111 5
12 9.43111 5
13 9.43111 5
14 9.43111 5
15 9.43111 5
16 9.43111 5
17 9.43111 5
18 9.43111 5
1 0.581829 6
0.581828 1 6
0.579409 1 5
2 0.581829 6
3 0.581829 6
4 0.581829 6
5 0.581829 6
6 0.581829 6
7 0.581829 6
8 0.581829 6
9 0.581829 6
10 0.581829 6
11 0.581829 6
12 0.581829 6
13 0.581829 6
14 0.581829 6
15 0.581829 6
16 0.581829 6
17 0.581829 6
18 0.581829 6
18.4182 1 6
0.57957 2 6
0.576816 2 5
18.4204 2 6
0.577592 3 6
18.4224 3 6
0.575902 4 6
18.4241 4 6
0.574545 5 6
0.570508 5 5
18.4255 5 6
0.573603 6 6
0.569038 6 5
18.4264 6 6
0.573202 7 6
0.568103 7 5
18.4268 7 6
0.573518 8 6
0.567976 8 5
18.4265 8 6
0.574657 9 6
18.4253 9 6
1 9.42534 6
2 9.42534 6
3 9.42534 6
4 9.42535 6
5 9.42535 6
6 9.42535 6
7 9.42535 6
8 9.42535 6
9 9.42535 6
10 9.42535 6
11 9.42535 6
12 9.42535 6
13 9.42535 6
14 9.42535 6
15 9.42535 6
16 9.42535 6
17 9.42535 6
18 9.42535 6
1 0.583922 7
0.583921 1 7
2 0.583922 7
3 0.583922 7
4 0.583922 7
5 0.583922 7
6 0.583922 7
7 0.583922 7
8 0.583922 7
9 0.583922 7
10 0.583922 7
11 0.583922 7
12 0.583922 7
13 0.583922 7
14 0.583922 7
15 0.583922 7
16 0.583922 7
17 0.583922 7
18 0.583922 7
18.4161 1 7
0.582 2 7
0.57957 2 6
18.418 2 7
0.580374 3 7
18.4196 3 7
0.579057 4 7
18.4209 4 7
0.57809 5 7
18.4219 5 7
0.577536 6 7
18.4225 6 7
0.577482 7 7
18.4225 7 7
0.578032 8 7
18.422 8 7
0.579217 9 7
18.4208 9 7
1 9.42078 7
2 9.42078 7
3 9.42078 7
4 9.42078 7
5 9.42078 7
6 9.42078 7
7 9.42079 7
8 9.42079 7
9 9.42079 7
10 9.42079 7
11 9.42079 7
12 9.42079 7
13 9.42079 7
14 9.42079 7
15 9.42079 7
16 9.42079 7
17 9.42079 7
18 9.42079 7
1 0.585697 8
0.585696 1 8
0.583921 1 7
2 0.585697 8
3 0.585697 8
4 0.585697 8
5 0.585697 8
6 0.585697 8
7 0.585697 8
8 0.585697 8
9 0.585697 8
10 0.585697 8
11 0.585697 8
12 0.585697 8
13 0.585697 8
14 0.585697 8
15 0.585697 8
16 0.585697 8
17 0.585697 8
18 0.585697 8
18.4143 1 8
0.584101 2 8
18.4159 2 8
0.582803 3 8
0.580374 3 7
18.4172 3 8
0.581813 4 8
18.4182 4 8
0.581166 5 8
0.57809 5 7
18.4188 5 8
0.580904 6 8
0.577536 6 7
18.4191 6 8
0.581084 7 8
18.4189 7 8
0.581761 8 8
18.4182 8 8
0.58293 9 8
18.4171 9 8
1 9.41707 8
2 9.41707 8
3 9.41707 8
4 9.41707 8
5 9.41707 8
6 9.41707 8
7 9.41707 8
8 9.41707 8
9 9.41707 8
10 9.41707 8
11 9.41707 8
12 9.41707 8
13 9.41707 8
14 9.41707 8
15 9.41707 8
16 9.41707 8
17 9.41707 8
18 9.41707 8
1 0.587168 9
0.587168 1 9
0.585696 1 8
2 0.587168 9
3 0.587168 9
4 0.587168 9
5 0.587168 9
6 0.587168 9
7 0.587168 9
8 0.587168 9
9 0.587168 9
10 0.587169 9
11 0.587169 9
12 0.587169 9
13 0.587169 9
14 0.587169 9
15 0.587169 9
16 0.587169 9
17 0.587169 9
18 0.587169 9
18.4128 1 9
0.585886 2 9
18.4141 2 9
0.58489 3 9
0.582803 3 8
18.4151 3 9
0.584191 4 9
0.581813 4 8
18.4158 4 9
0.583813 5 9
0.581166 5 8
18.4162 5 9
0.583783 6 9
18.4162 6 9
0.584133 7 9
0.581084 7 8
18.4159 7 9
0.584888 8 9
0.581761 8 8
18.4151 8 9
18.4182 8 8
0.586025 9 9
18.414 9 9
1 9.41397 9
2 9.41397 9
3 9.41397 9
4 9.41398 9
5 9.41398 9
6 9.41398 9
7 9.41398 9
8 9.41398 9
9 9.41398 9
10 9.41398 9
11 9.41398 9
12 9.41398 9
13 9.41398 9
14 9.41398 9
15 9.41398 9
16 9.41398 9
17 9.41398 9
18 9.41398 9
1 0.588357 10
0.588357 1 10
0.587168 1 9
2 0.588357 10
3 0.588357 10
4 0.588357 10
5 0.588357 10
6 0.588357 10
7 0.588357 10
8 0.588357 10
9 0.588357 10
10 0.588357 10
11 0.588357 10
12 0.588357 10
13 0.588357 10
14 0.588357 10
15 0.588357 10
16 0.588357 10
17 0.588357 10
18 0.588357 10
18.4116 1 10
0.587371 2 10
0.585886 2 9
18.4126 2 10
0.586658 3 10
18.4133 3 10
0.586223 4 10
0.584191 4 9
18.4138 4 10
0.58608 5 10
0.583813 5 9
18.4139 5 10
0.586246 6 10
18.4138 6 10
0.586734 7 10
18.4133 7 10
0.58755 8 10
0.584888 8 9
18.4124 8 10
0.588661 9 10
0.586025 9 9
18.4113 9 10
1 9.41134 10
2 9.41134 10
3 9.41134 10
4 9.41134 10
5 9.41134 10
6 9.41134 10
7 9.41134 10
8 9.41134 10
9 9.41134 10
10 9.41134 10
11 9.41134 10
12 9.41134 10
13 9.41134 10
14 9.41134 10
15 9.41134 10
16 9.41134 10
17 9.41134 10
18 9.41134 10
1 0.589283 11
0.589283 1 11
2 0.589283 11
3 0.589283 11
4 0.589283 11
5 0.589283 11
6 0.589283 11
7 0.589283 11
8 0.589283 11
9 0.589283 11
10 0.589283 11
11 0.589283 11
12 0.589283 11
13 0.589283 11
14 0.589283 11
15 0.589283 11
16 0.589283 11
17 0.589283 11
18 0.589283 11
18.4107 1 11
0.588579 2 11
18.4114 2 11
0.588132 3 11
18.4119 3 11
0.587942 4 11
18.4121 4 11
0.588017 5 11
18.412 5 11
0.58836 6 11
18.4116 6 11
0.588973 7 11
0.586734 7 10
18.411 7 11
0.589851 8 11
0.58755 8 10
18.4101 8 11
0.590952 9 11
18.4091 9 11
1 9.40905 11
2 9.40905 11
3 9.40905 11
4 9.40905 11
5 9.40905 11
6 9.40905 11
7 9.40905 11
8 9.40905 11
9 9.40905 11
10 9.40905 11
11 9.40905 11
12 9.40905 11
13 9.40905 11
14 9.40905 11
15 9.40905 11
16 9.40905 11
17 9.40905 11
18 9.40905 11
1 0.589963 12
0.589963 1 12
0.589283 1 11
2 0.589963 12
3 0.589963 12
4 0.589963 12
5 0.589963 12
6 0.589963 12
7 0.589963 12
8 0.589963 12
9 0.589963 12
10 0.589963 12
11 0.589963 12
12 0.589963 12
13 0.589963 12
14 0.589963 12
15 0.589963 12
16 0.589963 12
17 0.589963 12
18 0.589963 12
18.41 1 12
0.58953 2 12
0.588579 2 11
18.4105 2 12
0.589338 3 12
0.588132 3 11
18.4107 3 12
0.589384 4 12
0.587942 4 11
18.4106 4 12
0.589667 5 12
18.4103 5 12
0.590183 6 12
0.58836 6 11
18.4098 6 12
18.4116 6 11
0.590923 7 12
18.4091 7 12
0.591872 8 12
0.589851 8 11
18.4081 8 12
0.592988 9 12
0.590952 9 11
18.407 9 12
1 9.40701 12
2 9.40701 12
3 9.40702 12
4 9.40702 12
5 9.40702 12
6 9.40702 12
7 9.40702 12
8 9.40702 12
9 9.40702 12
10 9.40702 12
11 9.40702 12
12 9.40702 12
13 9.40702 12
14 9.40702 12
15 9.40702 12
16 9.40702 12
17 9.40702 12
18 9.40702 12
1 0.590422 13
0.590422 1 13
0.589963 1 12
2 0.590422 13
3 0.590422 13
4 0.590422 13
5 0.590422 13
6 0.590422 13
7 0.590422 13
8 0.590422 13
9 0.590422 13
10 0.590422 13
11 0.590422 13
12 0.590422 13
13 0.590422 13
14 0.590422 13
15 0.590422 13
16 0.590422 13
17 0.590422 13
18 0.590422 13
18.4096 1 13
0.590248 2 13
0.58953 2 12
18.4098 2 13
0.590304 3 13
18.4097 3 13
0.590579 4 13
0.589384 4 12
18.4094 4 13
0.591068 5 13
0.589667 5 12
18.4089 5 13
0.591757 6 13
18.4082 6 13
0.592632 7 13
18.4074 7 13
0.593669 8 13
0.591872 8 12
18.4063 8 13
0.594821 9 13
18.4052 9 13
1 9.40518 13
2 9.40518 13
3 9.40518 13
4 9.40518 13
5 9.40518 13
6 9.40518 13
7 9.40518 13
8 9.40518 13
9 9.40518 13
10 9.40518 13
11 9.40518 13
12 9.40518 13
13 9.40518 13
14 9.40518 13
15 9.40518 13
16 9.40518 13
17 9.40518 13
18 9.40518 13
1 1 13.4096
0.590422 1 13
2 1 13.4096
3 1 13.4096
4 1 13.4096
5 1 13.4096
6 1 13.4096
7 1 13.4096
8 1 13.4096
9 1 13.4096
10 1 13.4096
11 1 13.4096
12 1 13.4096
13 1 13.4096
14 1 13.4096
15 1 13.4096
16 1 13.4096
17 1 13.4096
18 1 13.4096
0.590248 2 13
1 2 13.4098
2 2 13.4098
3 2 13.4098
4 2 13.4098
4 2 13.4098
5 2 13.4098
6 2 13.4098
7 2 13.4098
8 2 13.4098
9 2 13.4098
10 2 13.4098
11 2 13.4098
12 2 13.4098
13 2 13.4098
14 2 13.4098
15 2 13.4098
16 2 13.4098
17 2 13.4098
18 2 13.4098
0.590304 3 13
1 3 13.4097
2 3 13.4097
3 3 13.4097
4 3 13.4097
5 3 13.4097
6 3 13.4097
7 3 13.4097
8 3 13.4097
9 3 13.4097
10 3 13.4097
11 3 13.4097
12 3 13.4097
13 3 13.4097
14 3 13.4097
15 3 13.4097
16 3 13.4097
17 3 13.4097
18 3 13.4097
1 4 13.4094
2 4 13.4094
3 4 13.4094
4 4 13.4094
5 4 13.4094
6 4 13.4094
7 4 13.4094
8 4 13.4094
8 4 13.4094
9 4 13.4094
10 4 13.4094
11 4 13.4094
12 4 13.4094
13 4 13.4094
14 4 13.4094
15 4 13.4094
16 4 13.4094
17 4 13.4094
18 4 13.4094
18.4094 4 13
1 5 13.4089
2 5 13.4089
3 5 13.4089
4 5 13.4089
5 5 13.4089
6 5 13.4089
7 5 13.4089
8 5 13.4089
9 5 13.4089
10 5 13.4089
11 5 13.4089
12 5 13.4089
13 5 13.4089
14 5 13.4089
15 5 13.4089
16 5 13.4089
17 5 13.4089
18 5 13.4089
1 6 13.4082
2 6 13.4082
3 6 13.4082
4 6 13.4082
5 6 13.4082
6 6 13.4082
7 6 13.4082
7 6 13.4082
8 6 13.4082
9 6 13.4082
10 6 13.4082
11 6 13.4082
12 6 13.4082
13 6 13.4082
14 6 13.4082
15 6 13.4082
16 6 13.4082
17 6 13.4082
18 6 13.4082
0.592632 7 13
1 7 13.4074
2 7 13.4074
3 7 13.4074
3 7 13.4074
4 7 13.4074
5 7 13.4074
6 7 13.4074
7 7 13.4074
8 7 13.4074
9 7 13.4074
10 7 13.4074
11 7 13.4074
12 7 13.4074
13 7 13.4074
14 7 13.4074
15 7 13.4074
16 7 13.4074
17 7 13.4074
18 7 13.4074
1 8 13.4063
2 8 13.4063
3 8 13.4063
4 8 13.4063
5 8 13.4063
6 8 13.4063
7 8 13.4063
8 8 13.4063
9 8 13.4063
10 8 13.4063
11 8 13.4063
12 8 13.4063
13 8 13.4063
14 8 13.4063
15 8 13.4063
16 8 13.4063
17 8 13.4063
18 8 13.4063
1 9 13.4052
2 9 13.4052
3 9 13.4052
4 9 13.4052
5 9 13.4052
6 9 13.4052
6 9 13.4052
7 9 13.4052
8 9 13.4052
9 9 13.4052
10 9 13.4052
11 9 13.4052
12 9 13.4052
13 9 13.4052
14 9 13.4052
15 9 13.4052
16 9 13.4052
17 9 13.4052
18 9 13.4052
18 9 13.4052
3 0 1 2
3 2 3 4
3 4 3 5
3 4 6 7
3 7 6 8
3 7 9 10
3 10 9 11
3 10 11 12
3 12 11 13
3 12 13 14
3 14 13 15
3 14 16 17
3 17 16 18
3 17 18 19
3 19 18 20
3 19 21 22
3 22 21 23
3 22 23 24
3 24 23 25
3 24 26 27
3 27 26 28
3 27 28 29
3 29 28 30
3 29 31 32
3 32 31 33
3 32 34 35
3 35 34 36
3 35 37 38
3 38 37 39
3 38 40 41
3 41 40 42
3 41 43 44
3 44 43 45
3 44 45 46
3 46 45 47
3 48 49 46
3 50 51 0
3 0 51 1
3 51 5 3
3 52 5 51
3 52 8 6
3 53 8 52
3 53 11 9
3 54 11 53
3 54 13 11
3 55 13 54
3 55 15 13
3 56 15 55
3 56 18 16
3 57 18 56
3 58 20 18
3 59 20 58
3 59 23 21
3 60 23 59
3 61 25 23
3 62 25 61
3 62 28 26
3 63 28 62
3 64 30 28
3 65 30 64
3 65 33 31
3 66 33 65
3 66 36 34
3 67 36 66
3 68 39 37
3 69 39 68
3 70 42 40
3 71 42 70
3 71 45 43
3 72 45 71
3 73 47 45
3 74 47 73
3 75 76 48
3 48 76 49
3 77 78 50
3 50 78 51
3 78 52 51
3 79 52 78
3 79 53 52
3 80 53 79
3 80 54 53
3 81 54 80
3 81 55 54
3 82 55 81
3 83 56 55
3 84 56 83
3 85 57 56
3 86 57 85
3 87 59 58
3 88 59 87
3 89 60 59
3 90 60 89
3 90 62 61
3 91 62 90
3 92 63 62
3 93 63 92
3 93 65 64
3 94 65 93
3 94 66 65
3 95 66 94
3 95 67 66
3 96 67 95
3 97 69 68
3 98 69 97
3 99 71 70
3 100 71 99
3 101 72 71
3 102 72 101
3 103 74 73
3 104 74 103
3 105 106 75
3 75 106 76
3 107 108 77
3 77 108 78
3 108 79 78
3 109 79 108
3 110 80 79
3 111 80 110
3 111 81 80
3 112 81 111
3 112 82 81
3 113 82 112
3 114 84 83
3 115 84 114
3 115 86 85
3 116 86 115
3 117 88 87
3 118 88 117
3 119 90 89
3 120 90 119
3 120 91 90
3 121 91 120
3 122 93 92
3 123 93 122
3 123 94 93
3 124 94 123
3 125 95 94
3 126 95 125
3 126 96 95
3 127 96 126
3 127 98 97
3 128 98 127
3 129 100 99
3 130 100 129
3 130 102 101
3 131 102 130
3 132 104 103
3 133 104 132
3 134 135 105
3 105 135 106
3 136 137 107
3 107 137 108
3 138 109 108
3 139 109 138
3 139 111 110
3 140 111 139
3 141 112 111
3 142 112 141
3 143 113 112
3 144 113 143
3 145 115 114
3 146 115 145
3 147 116 115
3 148 116 147
3 149 118 117
3 150 118 149
3 151 120 119
3 152 120 151
3 153 121 120
3 154 121 153
3 154 123 122
3 155 123 154
3 155 124 123
3 156 124 155
3 157 126 125
3 158 126 157
3 159 127 126
3 160 127 159
3 160 128 127
3 161 128 160
3 161 130 129
3 162 130 161
3 163 131 130
3 164 131 163
3 164 133 132
3 165 133 164
3 166 167 134
3 134 167 135
3 168 169 136
3 136 169 137
3 169 139 138
3 170 139 169
3 170 140 139
3 171 140 170
3 172 142 141
3 173 142 172
3 174 144 143
3 175 144 174
3 175 146 145
3 176 146 175
3 176 148 147
3 177 148 176
3 178 150 149
3 179 150 178
3 179 152 151
3 180 152 179
3 180 154 153
3 181 154 180
3 181 155 154
3 182 155 181
3 182 156 155
3 183 156 182
3 184 158 157
3 185 158 184
3 186 160 159
3 187 160 186
3 187 161 160
3 188 161 187
3 188 162 161
3 189 162 188
3 189 164 163
3 190 164 189
3 191 165 164
3 192 165 191
3 193 194 166
3 166 194 167
3 195 196 168
3 168 196 169
3 196 170 169
3 197 170 196
3 198 171 170
3 199 171 198
3 199 173 172
3 200 173 199
3 200 175 174
3 201 175 200
3 202 176 175
3 203 176 202
3 203 177 176
3 204 177 203
3 205 179 178
3 206 179 205
3 206 180 179
3 207 180 206
3 208 181 180
3 209 181 208
3 210 182 181
3 211 182 210
3 211 183 182
3 212 183 211
3 212 185 184
3 213 185 212
3 213 187 186
3 214 187 213
3 214 188 187
3 215 188 214
3 216 189 188
3 217 189 216
3 218 190 189
3 219 190 218
3 219 192 191
3 220 192 219
3 220 221 193
3 193 221 194
3 222 223 195
3 195 223 196
3 224 197 196
3 225 197 224
3 225 199 198
3 226 199 225
3 227 200 199
3 228 200 227
3 229 201 200
3 230 201 229
3 231 203 202
3 232 203 231
3 233 204 203
3 234 204 233
3 235 206 205
3 236 206 235
3 237 207 206
3 238 207 237
3 238 209 208
3 239 209 238
3 239 211 210
3 240 211 239
3 240 212 211
3 241 212 240
3 241 213 212
3 242 213 241
3 243 214 213
3 244 214 243
3 245 215 214
3 246 215 245
3 247 217 216
3 248 217 247
3 248 219 218
3 249 219 248
3 250 220 219
3 251 220 250
3 252 253 220
3 220 253 221
3 254 255 222
3 222 255 223
3 256 225 224
3 257 225 256
3 257 226 225
3 258 226 257
3 259 228 227
3 260 228 259
3 261 230 229
3 262 230 261
3 262 232 231
3 263 232 262
3 264 234 233
3 265 234 264
3 266 236 235
3 267 236 266
3 268 238 237
3 269 238 268
3 270 239 238
3 271 239 270
3 272 240 239
3 273 240 272
3 274 241 240
3 275 241 274
3 275 242 241
3 276 242 275
3 276 244 243
3 277 244 276
3 277 246 245
3 278 246 277
3 278 248 247
3 279 248 278
3 279 249 248
3 280 249 279
3 280 251 250
3 281 251 280
3 281 282 252
3 252 282 253
3 283 255 254
3 284 257 283
3 283 257 256
3 285 258 284
3 284 258 257
3 286 260 285
3 285 260 259
3 287 262 286
3 286 262 261
3 288 263 287
3 287 263 262
3 289 265 288
3 288 265 264
3 290 267 289
3 289 267 266
3 291 269 290
3 290 269 268
3 292 271 291
3 291 271 270
3 293 273 292
3 292 273 272
3 294 275 293
3 293 275 274
3 295 276 294
3 294 276 275
3 296 277 295
3 295 277 276
3 297 278 296
3 296 278 277
3 298 279 297
3 297 279 278
3 299 280 298
3 298 280 279
3 300 281 299
3 299 281 280
3 300 282 281
3 301 302 2
3 2 302 303
3 2 304 301
3 2 4 304
3 4 305 304
3 4 7 305
3 7 306 305
3 7 10 306
3 10 307 306
3 10 12 307
3 12 308 307
3 12 14 308
3 14 309 308
3 14 17 309
3 17 310 309
3 17 19 310
3 19 311 310
3 19 22 311
3 22 312 311
3 22 24 312
3 24 313 312
3 24 27 313
3 27 314 313
3 27 29 314
3 29 315 314
3 29 32 315
3 32 316 315
3 32 35 316
3 35 317 316
3 35 38 317
3 38 318 317
3 38 41 318
3 41 319 318
3 41 44 319
3 44 320 319
3 44 46 320
3 46 49 320
3 320 49 321
3 322 303 302
3 322 50 303
3 49 323 321
3 76 323 49
3 324 50 322
3 324 325 50
3 76 326 323
3 106 326 76
3 327 325 324
3 327 107 325
3 106 328 326
3 135 328 106
3 329 107 327
3 329 330 107
3 135 331 328
3 167 331 135
3 332 330 329
3 332 168 330
3 167 333 331
3 194 333 167
3 334 168 332
3 334 195 168
3 194 335 333
3 221 335 194
3 336 195 334
3 336 337 195
3 221 338 335
3 253 338 221
3 339 337 336
3 339 254 337
3 253 340 338
3 282 340 253
3 339 341 254
3 254 341 283
3 342 283 341
3 284 283 342
3 343 284 342
3 285 284 343
3 344 285 343
3 286 285 344
3 345 286 344
3 287 286 345
3 346 287 345
3 288 287 346
3 347 288 346
3 289 288 347
3 348 289 347
3 290 289 348
3 349 290 348
3 291 290 349
3 350 291 349
3 292 291 350
3 351 292 350
3 293 292 351
3 352 293 351
3 294 293 352
3 353 294 352
3 295 294 353
3 354 295 353
3 296 295 354
3 355 296 354
3 297 296 355
3 356 297 355
3 298 297 356
3 357 298 356
3 299 298 357
3 358 299 357
3 300 299 358
3 282 300 340
3 340 300 358
3 359 360 301
3 301 360 302
3 301 361 359
3 301 304 361
3 304 362 361
3 304 305 362
3 305 363 362
3 305 306 363
3 306 364 363
3 306 307 364
3 307 365 364
3 307 308 365
3 308 366 365
3 308 309 366
3 309 367 366
3 309 310 367
3 310 368 367
3 310 311 368
3 311 369 368
3 311 312 369
3 312 370 369
3 312 313 370
3 313 371 370
3 313 314 371
3 314 372 371
3 314 315 372
3 315 373 372
3 315 316 373
3 316 374 373
3 316 317 374
3 317 375 374
3 317 318 375
3 318 376 375
3 318 319 376
3 319 377 376
3 319 320 377
3 320 321 377
3 377 321 378
3 379 302 360
3 379 322 302
3 321 380 378
3 323 380 321
3 381 322 379
3 381 324 322
3 323 382 380
3 326 382 323
3 383 324 381
3 383 384 324
3 326 385 382
3 328 385 326
3 386 384 383
3 386 329 384
3 328 387 385
3 331 387 328
3 388 329 386
3 388 389 329
3 331 390 387
3 333 390 331
3 391 389 388
3 391 334 389
3 333 392 390
3 335 392 333
3 393 334 391
3 393 394 334
3 335 395 392
3 338 395 335
3 396 394 393
3 396 339 394
3 338 397 395
3 340 397 338
3 396 398 339
3 339 398 341
3 399 341 398
3 342 341 399
3 400 342 399
3 343 342 400
3 401 343 400
3 344 343 401
3 402 344 401
3 345 344 402
3 403 345 402
3 346 345 403
3 404 346 403
3 347 346 404
3 405 347 404
3 348 347 405
3 406 348 405
3 349 348 406
3 407 349 406
3 350 349 407
3 408 350 407
3 351 350 408
3 409 351 408
3 352 351 409
3 410 352 409
3 353 352 410
3 411 353 410
3 354 353 411
3 412 354 411
3 355 354 412
3 413 355 412
3 356 355 413
3 414 356 413
3 357 356 414
3 415 357 414
3 358 357 415
3 340 358 397
3 397 358 415
3 416 417 359
3 359 417 360
3 359 418 416
3 359 361 418
3 361 419 418
3 361 362 419
3 362 420 419
3 362 363 420
3 363 421 420
3 363 364 421
3 364 422 421
3 364 365 422
3 365 423 422
3 365 366 423
3 366 424 423
3 366 367 424
3 367 425 424
3 367 368 425
3 368 426 425
3 368 369 426
3 369 427 426
3 369 370 427
3 370 428 427
3 370 371 428
3 371 429 428
3 371 372 429
3 372 430 429
3 372 373 430
3 373 431 430
3 373 374 431
3 374 432 431
3 374 375 432
3 375 433 432
3 375 376 433
3 376 434 433
3 376 377 434
3 377 378 434
3 434 378 435
3 436 360 417
3 436 437 360
3 378 438 435
3 380 438 378
3 439 437 436
3 439 440 437
3 380 441 438
3 382 441 380
3 442 440 439
3 442 383 440
3 382 443 441
3 385 443 382
3 444 383 442
3 444 386 383
3 385 445 443
3 387 445 385
3 446 386 444
3 446 447 386
3 387 448 445
3 390 448 387
3 449 447 446
3 449 450 447
3 390 451 448
3 392 451 390
3 452 450 449
3 452 453 450
3 392 454 451
3 395 454 392
3 455 453 452
3 455 456 453
3 395 457 454
3 397 457 395
3 455 458 456
3 456 458 398
3 459 398 458
3 399 398 459
3 460 399 459
3 400 399 460
3 461 400 460
3 401 400 461
3 462 401 461
3 402 401 462
3 463 402 462
3 403 402 463
3 464 403 463
3 404 403 464
3 465 404 464
3 405 404 465
3 466 405 465
3 406 405 466
3 467 406 466
3 407 406 467
3 468 407 467
3 408 407 468
3 469 408 468
3 409 408 469
3 470 409 469
3 410 409 470
3 471 410 470
3 411 410 471
3 472 411 471
3 412 411 472
3 473 412 472
3 413 412 473
3 474 413 473
3 414 413 474
3 475 414 474
3 415 414 475
3 397 415 457
3 457 415 475
3 476 477 416
3 416 477 417
3 416 478 476
3 416 418 478
3 418 479 478
3 418 419 479
3 419 480 479
3 419 420 480
3 420 481 480
3 420 421 481
3 421 482 481
3 421 422 482
3 422 483 482
3 422 423 483
3 423 484 483
3 423 424 484
3 424 485 484
3 424 425 485
3 425 486 485
3 425 426 486
3 426 487 486
3 426 427 487
3 427 488 487
3 427 428 488
3 428 489 488
3 428 429 489
3 429 490 489
3 429 430 490
3 430 491 490
3 430 431 491
3 431 492 491
3 431 432 492
3 432 493 492
3 432 433 493
3 433 494 493
3 433 434 494
3 434 435 494
3 494 435 495
3 496 417 477
3 496 497 417
3 435 498 495
3 438 498 435
3 499 497 496
3 499 500 497
3 438 501 498
3 441 501 438
3 502 500 499
3 502 503 500
3 441 504 501
3 443 504 441
3 505 503 502
3 505 506 503
3 443 507 504
3 445 507 443
3 508 506 505
3 508 446 506
3 445 509 507
3 448 509 445
3 510 446 508
3 510 511 446
3 448 512 509
3 451 512 448
3 513 511 510
3 513 452 511
3 451 514 512
3 454 514 451
3 515 452 513
3 515 516 452
3 454 517 514
3 457 517 454
3 515 518 516
3 516 518 458
3 519 458 518
3 459 458 519
3 520 459 519
3 460 459 520
3 521 460 520
3 461 460 521
3 522 461 521
3 462 461 522
3 523 462 522
3 463 462 523
3 524 463 523
3 464 463 524
3 525 464 524
3 465 464 525
3 526 465 525
3 466 465 526
3 527 466 526
3 467 466 527
3 528 467 527
3 468 467 528
3 529 468 528
3 469 468 529
3 530 469 529
3 470 469 530
3 531 470 530
3 471 470 531
3 532 471 531
3 472 471 532
3 533 472 532
3 473 472 533
3 534 473 533
3 474 473 534
3 535 474 534
3 475 474 535
3 457 475 517
3 517 475 535
3 536 537 476
3 476 537 538
3 476 539 536
3 476 478 539
3 478 540 539
3 478 479 540
3 479 541 540
3 479 480 541
3 480 542 541
3 480 481 542
3 481 543 542
3 481 482 543
3 482 544 543
3 482 483 544
3 483 545 544
3 483 484 545
3 484 546 545
3 484 485 546
3 485 547 546
3 485 486 547
3 486 548 547
3 486 487 548
3 487 549 548
3 487 488 549
3 488 550 549
3 488 489 550
3 489 551 550
3 489 490 551
3 490 552 551
3 490 491 552
3 491 553 552
3 491 492 553
3 492 554 553
3 492 493 554
3 493 555 554
3 493 494 555
3 494 495 555
3 555 495 556
3 557 538 537
3 557 558 538
3 495 559 556
3 498 559 495
3 560 558 557
3 560 499 558
3 498 561 559
3 501 561 498
3 562 499 560
3 562 502 499
3 501 563 561
3 504 563 501
3 564 502 562
3 564 565 502
3 504 566 563
3 507 566 504
3 567 565 564
3 567 568 565
3 507 569 566
3 509 569 507
3 570 568 567
3 570 571 568
3 509 572 569
3 512 572 509
3 573 571 570
3 573 574 571
3 512 575 572
3 514 575 512
3 576 574 573
3 576 515 574
3 514 577 575
3 517 577 514
3 576 578 515
3 515 578 518
3 579 518 578
3 519 518 579
3 580 519 579
3 520 519 580
3 581 520 580
3 521 520 581
3 582 521 581
3 522 521 582
3 583 522 582
3 523 522 583
3 584 523 583
3 524 523 584
3 585 524 584
3 525 524 585
3 586 525 585
3 526 525 586
3 587 526 586
3 527 526 587
3 588 527 587
3 528 527 588
3 589 528 588
3 529 528 589
3 590 529 589
3 530 529 590
3 591 530 590
3 531 530 591
3 592 531 591
3 532 531 592
3 593 532 592
3 533 532 593
3 594 533 593
3 534 533 594
3 595 534 594
3 535 534 595
3 517 535 577
3 577 535 595
3 596 597 536
3 536 597 537
3 536 598 596
3 536 539 598
3 539 599 598
3 539 540 599
3 540 600 599
3 540 541 600
3 541 601 600
3 541 542 601
3 542 602 601
3 542 543 602
3 543 603 602
3 543 544 603
3 544 604 603
3 544 545 604
3 545 605 604
3 545 546 605
3 546 606 605
3 546 547 606
3 547 607 606
3 547 548 607
3 548 608 607
3 548 549 608
3 549 609 608
3 549 550 609
3 550 610 609
3 550 551 610
3 551 611 610
3 551 552 611
3 552 612 611
3 552 553 612
3 553 613 612
3 553 554 613
3 554 614 613
3 554 555 614
3 555 556 614
3 614 556 615
3 616 537 597
3 616 617 537
3 556 618 615
3 559 618 556
3 619 617 616
3 619 560 617
3 559 620 618
3 561 620 559
3 621 560 619
3 621 562 560
3 561 622 620
3 563 622 561
3 623 562 621
3 623 564 562
3 563 624 622
3 566 624 563
3 625 564 623
3 625 567 564
3 566 626 624
3 569 626 566
3 627 567 625
3 627 570 567
3 569 628 626
3 572 628 569
3 629 570 627
3 629 573 570
3 572 630 628
3 575 630 572
3 631 573 629
3 631 576 573
3 575 632 630
3 577 632 575
3 631 633 576
3 576 633 578
3 634 578 633
3 579 578 634
3 635 579 634
3 580 579 635
3 636 580 635
3 581 580 636
3 637 581 636
3 582 581 637
3 638 582 637
3 583 582 638
3 639 583 638
3 584 583 639
3 640 584 639
3 585 584 640
3 641 585 640
3 586 585 641
3 642 586 641
3 587 586 642
3 643 587 642
3 588 587 643
3 644 588 643
3 589 588 644
3 645 589 644
3 590 589 645
3 646 590 645
3 591 590 646
3 647 591 646
3 592 591 647
3 648 592 647
3 593 592 648
3 649 593 648
3 594 593 649
3 650 594 649
3 595 594 650
3 577 595 632
3 632 595 650
3 651 652 596
3 596 652 653
3 596 654 651
3 596 598 654
3 598 655 654
3 598 599 655
3 599 656 655
3 599 600 656
3 600 657 656
3 600 601 657
3 601 658 657
3 601 602 658
3 602 659 658
3 602 603 659
3 603 660 659
3 603 604 660
3 604 661 660
3 604 605 661
3 605 662 661
3 605 606 662
3 606 663 662
3 606 607 663
3 607 664 663
3 607 608 664
3 608 665 664
3 608 609 665
3 609 666 665
3 609 610 666
3 610 667 666
3 610 611 667
3 611 668 667
3 611 612 668
3 612 669 668
3 612 613 669
3 613 670 669
3 613 614 670
3 614 615 670
3 670 615 671
3 672 653 652
3 672 616 653
3 615 673 671
3 618 673 615
3 674 616 672
3 674 675 616
3 618 676 673
3 620 676 618
3 677 675 674
3 677 621 675
3 620 678 676
3 622 678 620
3 679 621 677
3 679 680 621
3 622 681 678
3 624 681 622
3 682 680 679
3 682 683 680
3 624 684 681
3 626 684 624
3 685 683 682
3 685 627 683
3 626 686 684
3 628 686 626
3 687 627 685
3 687 629 627
3 628 688 686
3 630 688 628
3 689 629 687
3 689 631 629
3 630 690 688
3 632 690 630
3 689 691 631
3 631 691 633
3 692 633 691
3 634 633 692
3 693 634 692
3 635 634 693
3 694 635 693
3 636 635 694
3 695 636 694
3 637 636 695
3 696 637 695
3 638 637 696
3 697 638 696
3 639 638 697
3 698 639 697
3 640 639 698
3 699 640 698
3 641 640 699
3 700 641 699
3 642 641 700
3 701 642 700
3 643 642 701
3 702 643 701
3 644 643 702
3 703 644 702
3 645 644 703
3 704 645 703
3 646 645 704
3 705 646 704
3 647 646 705
3 706 647 705
3 648 647 706
3 707 648 706
3 649 648 707
3 708 649 707
3 650 649 708
3 632 650 690
3 690 650 708
3 709 710 651
3 651 710 711
3 651 712 709
3 651 654 712
3 654 713 712
3 654 655 713
3 655 714 713
3 655 656 714
3 656 715 714
3 656 657 715
3 657 716 715
3 657 658 716
3 658 717 716
3 658 659 717
3 659 718 717
3 659 660 718
3 660 719 718
3 660 661 719
3 661 720 719
3 661 662 720
3 662 721 720
3 662 663 721
3 663 722 721
3 663 664 722
3 664 723 722
3 664 665 723
3 665 724 723
3 665 666 724
3 666 725 724
3 666 667 725
3 667 726 725
3 667 668 726
3 668 727 726
3 668 669 727
3 669 728 727
3 669 670 728
3 670 671 728
3 728 671 729
3 730 711 710
3 730 672 711
3 671 731 729
3 673 731 671
3 732 672 730
3 732 733 672
3 673 734 731
3 676 734 673
3 735 733 732
3 735 736 733
3 676 737 734
3 678 737 676
3 738 736 735
3 738 739 736
3 678 740 737
3 681 740 678
3 741 739 738
3 741 682 739
3 681 742 740
3 684 742 681
3 743 682 741
3 743 744 682
3 684 745 742
3 686 745 684
3 746 744 743
3 746 747 744
3 686 748 745
3 749 748 686
3 750 747 746
3 750 689 747
3 749 751 748
3 690 751 749
3 750 752 689
3 689 752 691
3 753 691 752
3 692 691 753
3 754 692 753
3 693 692 754
3 755 693 754
3 694 693 755
3 756 694 755
3 695 694 756
3 757 695 756
3 696 695 757
3 758 696 757
3 697 696 758
3 759 697 758
3 698 697 759
3 760 698 759
3 699 698 760
3 761 699 760
3 700 699 761
3 762 700 761
3 701 700 762
3 763 701 762
3 702 701 763
3 764 702 763
3 703 702 764
3 765 703 764
3 704 703 765
3 766 704 765
3 705 704 766
3 767 705 766
3 706 705 767
3 768 706 767
3 707 706 768
3 769 707 768
3 708 707 769
3 690 708 751
3 751 708 769
3 770 771 709
3 709 771 772
3 709 773 770
3 709 712 773
3 712 774 773
3 712 713 774
3 713 775 774
3 713 714 775
3 714 776 775
3 714 715 776
3 715 777 776
3 715 716 777
3 716 778 777
3 716 717 778
3 717 779 778
3 717 718 779
3 718 780 779
3 718 719 780
3 719 781 780
3 719 720 781
3 720 782 781
3 720 721 782
3 721 783 782
3 721 722 783
3 722 784 783
3 722 723 784
3 723 785 784
3 723 724 785
3 724 786 785
3 724 725 786
3 725 787 786
3 725 726 787
3 726 788 787
3 726 727 788
3 727 789 788
3 727 728 789
3 728 729 789
3 789 729 790
3 791 772 771
3 791 792 772
3 729 793 790
3 731 793 729
3 794 792 791
3 794 732 792
3 731 795 793
3 734 795 731
3 796 732 794
3 796 797 732
3 734 798 795
3 737 798 734
3 799 797 796
3 799 800 797
3 737 801 798
3 740 801 737
3 802 800 799
3 802 741 800
3 740 803 801
3 742 803 740
3 804 741 802
3 804 743 741
3 742 805 803
3 745 805 742
3 806 743 804
3 806 807 743
3 745 808 805
3 748 808 745
3 809 807 806
3 809 810 807
3 748 811 808
3 751 811 748
3 809 812 810
3 810 812 752
3 813 752 812
3 753 752 813
3 814 753 813
3 754 753 814
3 815 754 814
3 755 754 815
3 816 755 815
3 756 755 816
3 817 756 816
3 757 756 817
3 818 757 817
3 758 757 818
3 819 758 818
3 759 758 819
3 820 759 819
3 760 759 820
3 821 760 820
3 761 760 821
3 822 761 821
3 762 761 822
3 823 762 822
3 763 762 823
3 824 763 823
3 764 763 824
3 825 764 824
3 765 764 825
3 826 765 825
3 766 765 826
3 827 766 826
3 767 766 827
3 828 767 827
3 768 767 828
3 829 768 828
3 769 768 829
3 751 769 811
3 811 769 829
3 830 831 770
3 770 831 771
3 770 832 830
3 770 773 832
3 773 833 832
3 773 774 833
3 774 834 833
3 774 775 834
3 775 835 834
3 775 776 835
3 776 836 835
3 776 777 836
3 777 837 836
3 777 778 837
3 778 838 837
3 778 779 838
3 779 839 838
3 779 780 839
3 780 840 839
3 780 781 840
3 781 841 840
3 781 782 841
3 782 842 841
3 782 783 842
3 783 843 842
3 783 784 843
3 784 844 843
3 784 785 844
3 785 845 844
3 785 786 845
3 786 846 845
3 786 787 846
3 787 847 846
3 787 788 847
3 788 848 847
3 788 789 848
3 789 790 848
3 848 790 849
3 850 771 831
3 850 791 771
3 790 851 849
3 793 851 790
3 852 791 850
3 852 794 791
3 793 853 851
3 795 853 793
3 854 794 852
3 854 796 794
3 795 855 853
3 798 855 795
3 856 796 854
3 856 799 796
3 798 857 855
3 801 857 798
3 858 799 856
3 858 802 799
3 801 859 857
3 803 859 801
3 860 802 858
3 860 861 802
3 803 862 859
3 805 862 803
3 863 861 860
3 863 864 861
3 805 865 862
3 808 865 805
3 866 864 863
3 866 809 864
3 808 867 865
3 811 867 808
3 866 868 809
3 809 868 812
3 869 812 868
3 813 812 869
3 870 813 869
3 814 813 870
3 871 814 870
3 815 814 871
3 872 815 871
3 816 815 872
3 873 816 872
3 817 816 873
3 874 817 873
3 818 817 874
3 875 818 874
3 819 818 875
3 876 819 875
3 820 819 876
3 877 820 876
3 821 820 877
3 878 821 877
3 822 821 878
3 879 822 878
3 823 822 879
3 880 823 879
3 824 823 880
3 881 824 880
3 825 824 881
3 882 825 881
3 826 825 882
3 883 826 882
3 827 826 883
3 884 827 883
3 828 827 884
3 885 828 884
3 829 828 885
3 811 829 867
3 867 829 885
3 886 887 830
3 830 887 888
3 830 889 886
3 830 832 889
3 832 890 889
3 832 833 890
3 833 891 890
3 833 834 891
3 834 892 891
3 834 835 892
3 835 893 892
3 835 836 893
3 836 894 893
3 836 837 894
3 837 895 894
3 837 838 895
3 838 896 895
3 838 839 896
3 839 897 896
3 839 840 897
3 840 898 897
3 840 841 898
3 841 899 898
3 841 842 899
3 842 900 899
3 842 843 900
3 843 901 900
3 843 844 901
3 844 902 901
3 844 845 902
3 845 903 902
3 845 846 903
3 846 904 903
3 846 847 904
3 847 905 904
3 847 848 905
3 848 849 905
3 905 849 906
3 907 888 887
3 907 908 888
3 849 909 906
3 851 909 849
3 910 908 907
3 910 911 908
3 851 912 909
3 853 912 851
3 913 911 910
3 913 914 911
3 853 915 912
3 855 915 853
3 916 914 913
3 916 856 914
3 855 917 915
3 857 917 855
3 918 856 916
3 918 919 856
3 857 920 917
3 921 920 857
3 922 919 918
3 922 860 919
3 921 923 920
3 862 923 921
3 924 860 922
3 924 925 860
3 862 926 923
3 865 926 862
3 927 925 924
3 927 928 925
3 865 929 926
3 867 929 865
3 927 930 928
3 928 930 868
3 931 868 930
3 869 868 931
3 932 869 931
3 870 869 932
3 933 870 932
3 871 870 933
3 934 871 933
3 872 871 934
3 935 872 934
3 873 872 935
3 936 873 935
3 874 873 936
3 937 874 936
3 875 874 937
3 938 875 937
3 876 875 938
3 939 876 938
3 877 876 939
3 940 877 939
3 878 877 940
3 941 878 940
3 879 878 941
3 942 879 941
3 880 879 942
3 943 880 942
3 881 880 943
3 944 881 943
3 882 881 944
3 945 882 944
3 883 882 945
3 946 883 945
3 884 883 946
3 947 884 946
3 885 884 947
3 867 885 929
3 929 885 947
3 948 949 886
3 886 949 950
3 886 951 948
3 886 889 951
3 889 952 951
3 889 890 952
3 890 953 952
3 890 891 953
3 891 954 953
3 891 892 954
3 892 955 954
3 892 893 955
3 893 956 955
3 893 894 956
3 894 957 956
3 894 895 957
3 895 958 957
3 895 896 958
3 896 959 958
3 896 897 959
3 897 960 959
3 897 898 960
3 898 961 960
3 898 899 961
3 899 962 961
3 899 900 962
3 900 963 962
3 900 901 963
3 901 964 963
3 901 902 964
3 902 965 964
3 902 903 965
3 903 966 965
3 903 904 966
3 904 967 966
3 904 905 967
3 905 906 967
3 967 906 968
3 969 950 949
3 969 970 950
3 906 971 968
3 909 971 906
3 972 970 969
3 972 910 970
3 909 973 971
3 912 973 909
3 974 910 972
3 974 975 910
3 912 976 973
3 915 976 912
3 977 975 974
3 977 978 975
3 915 979 976
3 917 979 915
3 980 978 977
3 980 918 978
3 917 981 979
3 920 981 917
3 982 918 980
3 982 922 918
3 920 983 981
3 923 983 920
3 984 922 982
3 984 985 922
3 923 986 983
3 926 986 923
3 987 985 984
3 987 927 985
3 926 988 986
3 929 988 926
3 987 989 927
3 927 989 930
3 990 930 989
3 931 930 990
3 991 931 990
3 932 931 991
3 992 932 991
3 933 932 992
3 993 933 992
3 934 933 993
3 994 934 993
3 935 934 994
3 995 935 994
3 936 935 995
3 996 936 995
3 937 936 996
3 997 937 996
3 938 937 997
3 998 938 997
3 939 938 998
3 999 939 998
3 940 939 999
3 1000 940 999
3 941 940 1000
3 1001 941 1000
3 942 941 1001
3 1002 942 1001
3 943 942 1002
3 1003 943 1002
3 944 943 1003
3 1004 944 1003
3 945 944 1004
3 1005 945 1004
3 946 945 1005
3 1006 946 1005
3 947 946 1006
3 929 947 988
3 988 947 1006
3 948 1007 1008
3 1007 948 1009
3 1009 948 951
3 1009 951 1010
3 1010 951 952
3 1010 952 1011
3 1011 952 953
3 1011 953 1012
3 1012 953 954
3 1012 954 1013
3 1013 954 955
3 1013 955 1014
3 1014 955 956
3 1014 956 1015
3 1015 956 957
3 1015 957 1016
3 1016 957 958
3 1016 958 1017
3 1017 958 959
3 1017 959 1018
3 1018 959 960
3 1018 960 1019
3 1019 960 961
3 1019 961 1020
3 1020 961 962
3 1020 962 1021
3 1021 962 963
3 1021 963 1022
3 1022 963 964
3 1022 964 1023
3 1023 964 965
3 1023 965 1024
3 1024 965 966
3 1024 966 1025
3 1025 966 967
3 967 968 1025
3 1008 1007 1026
3 1026 1007 1027
3 1009 1027 1007
3 1009 1028 1027
3 1010 1028 1009
3 1010 1029 1028
3 1011 1029 1010
3 1011 1030 1029
3 1012 1031 1011
3 1012 1032 1031
3 1013 1032 1012
3 1013 1033 1032
3 1014 1033 1013
3 1014 1034 1033
3 1015 1034 1014
3 1015 1035 1034
3 1016 1035 1015
3 1016 1036 1035
3 1017 1036 1016
3 1017 1037 1036
3 1018 1037 1017
3 1018 1038 1037
3 1019 1038 1018
3 1019 1039 1038
3 1020 1039 1019
3 1020 1040 1039
3 1021 1040 1020
3 1021 1041 1040
3 1022 1041 1021
3 1022 1042 1041
3 1023 1042 1022
3 1023 1043 1042
3 1024 1043 1023
3 1024 1044 1043
3 1025 1044 1024
3 1025 1045 1044
3 1025 968 1045
3 1045 968 971
3 1026 1027 1046
3 1046 1027 1047
3 1028 1047 1027
3 1028 1048 1047
3 1029 1048 1028
3 1029 1049 1048
3 1030 1049 1029
3 1030 1050 1049
3 1032 1050 1031
3 1032 1051 1050
3 1033 1051 1032
3 1033 1052 1051
3 1034 1052 1033
3 1034 1053 1052
3 1035 1053 1034
3 1035 1054 1053
3 1036 1054 1035
3 1036 1055 1054
3 1037 1055 1036
3 1037 1056 1055
3 1038 1056 1037
3 1038 1057 1056
3 1039 1057 1038
3 1039 1058 1057
3 1040 1058 1039
3 1040 1059 1058
3 1041 1059 1040
3 1041 1060 1059
3 1042 1060 1041
3 1042 1061 1060
3 1043 1061 1042
3 1043 1062 1061
3 1044 1062 1043
3 1044 1063 1062
3 1045 1063 1044
3 1045 1064 1063
3 1045 971 1064
3 1064 971 973
3 1046 1047 974
3 974 1047 1065
3 1048 1065 1047
3 1048 1066 1065
3 1049 1066 1048
3 1049 1067 1066
3 1050 1067 1049
3 1050 1068 1067
3 1051 1068 1050
3 1051 1069 1068
3 1052 1069 1051
3 1052 1070 1069
3 1053 1070 1052
3 1053 1071 1070
3 1054 1071 1053
3 1054 1072 1071
3 1055 1073 1054
3 1055 1074 1073
3 1056 1074 1055
3 1056 1075 1074
3 1057 1075 1056
3 1057 1076 1075
3 1058 1076 1057
3 1058 1077 1076
3 1059 1077 1058
3 1059 1078 1077
3 1060 1078 1059
3 1060 1079 1078
3 1061 1079 1060
3 1061 1080 1079
3 1062 1080 1061
3 1062 1081 1080
3 1063 1081 1062
3 1063 1082 1081
3 1064 1082 1063
3 1064 1083 1082
3 1064 973 1083
3 1083 973 1084
3 974 1065 977
3 977 1065 1085
3 1066 1085 1065
3 1066 1086 1085
3 1067 1086 1066
3 1067 1087 1086
3 1068 1087 1067
3 1068 1088 1087
3 1069 1088 1068
3 1069 1089 1088
3 1070 1089 1069
3 1070 1090 1089
3 1071 1090 1070
3 1071 1091 1090
3 1072 1091 1071
3 1072 1092 1091
3 1074 1092 1073
3 1074 1093 1092
3 1075 1093 1074
3 1075 1094 1093
3 1076 1094 1075
3 1076 1095 1094
3 1077 1095 1076
3 1077 1096 1095
3 1078 1096 1077
3 1078 1097 1096
3 1079 1097 1078
3 1079 1098 1097
3 1080 1098 1079
3 1080 1099 1098
3 1081 1099 1080
3 1081 1100 1099
3 1082 1100 1081
3 1082 1101 1100
3 1083 1101 1082
3 1083 1102 1101
3 1083 1084 1102
3 1102 1084 979
3 977 1085 980
3 980 1085 1103
3 1086 1103 1085
3 1086 1104 1103
3 1087 1104 1086
3 1087 1105 1104
3 1088 1105 1087
3 1088 1106 1105
3 1089 1106 1088
3 1089 1107 1106
3 1090 1107 1089
3 1090 1108 1107
3 1091 1108 1090
3 1091 1109 1108
3 1092 1110 1091
3 1092 1111 1110
3 1093 1111 1092
3 1093 1112 1111
3 1094 1112 1093
3 1094 1113 1112
3 1095 1113 1094
3 1095 1114 1113
3 1096 1114 1095
3 1096 1115 1114
3 1097 1115 1096
3 1097 1116 1115
3 1098 1116 1097
3 1098 1117 1116
3 1099 1117 1098
3 1099 1118 1117
3 1100 1118 1099
3 1100 1119 1118
3 1101 1119 1100
3 1101 1120 1119
3 1102 1120 1101
3 1102 1121 1120
3 1102 979 1121
3 1121 979 981
3 980 1103 1122
3 1122 1103 1123
3 1104 1123 1103
3 1104 1124 1123
3 1105 1124 1104
3 1105 1125 1124
3 1106 1126 1105
3 1106 1127 1126
3 1107 1127 1106
3 1107 1128 1127
3 1108 1128 1107
3 1108 1129 1128
3 1109 1129 1108
3 1109 1130 1129
3 1111 1130 1110
3 1111 1131 1130
3 1112 1131 1111
3 1112 1132 1131
3 1113 1132 1112
3 1113 1133 1132
3 1114 1133 1113
3 1114 1134 1133
3 1115 1134 1114
3 1115 1135 1134
3 1116 1135 1115
3 1116 1136 1135
3 1117 1136 1116
3 1117 1137 1136
3 1118 1137 1117
3 1118 1138 1137
3 1119 1138 1118
3 1119 1139 1138
3 1120 1139 1119
3 1120 1140 1139
3 1121 1140 1120
3 1121 1141 1140
3 1121 981 1141
3 1141 981 983
3 1122 1123 984
3 984 1123 1142
3 1124 1142 1123
3 1124 1143 1142
3 1125 1143 1124
3 1125 1144 1143
3 1127 1144 1126
3 1127 1145 1144
3 1128 1145 1127
3 1128 1146 1145
3 1129 1146 1128
3 1129 1147 1146
3 1130 1147 1129
3 1130 1148 1147
3 1131 1148 1130
3 1131 1149 1148
3 1132 1149 1131
3 1132 1150 1149
3 1133 1150 1132
3 1133 1151 1150
3 1134 1151 1133
3 1134 1152 1151
3 1135 1152 1134
3 1135 1153 1152
3 1136 1153 1135
3 1136 1154 1153
3 1137 1154 1136
3 1137 1155 1154
3 1138 1155 1137
3 1138 1156 1155
3 1139 1156 1138
3 1139 1157 1156
3 1140 1157 1139
3 1140 1158 1157
3 1141 1158 1140
3 1141 1159 1158
3 1141 983 1159
3 1159 983 986
3 984 1142 987
3 987 1142 1160
3 1143 1160 1142
3 1143 1161 1160
3 1144 1161 1143
3 1144 1162 1161
3 1145 1162 1144
3 1145 1163 1162
3 1146 1163 1145
3 1146 1164 1163
3 1147 1164 1146
3 1147 1165 1164
3 1148 1166 1147
3 1148 1167 1166
3 1149 1167 1148
3 1149 1168 1167
3 1150 1168 1149
3 1150 1169 1168
3 1151 1169 1150
3 1151 1170 1169
3 1152 1170 1151
3 1152 1171 1170
3 1153 1171 1152
3 1153 1172 1171
3 1154 1172 1153
3 1154 1173 1172
3 1155 1173 1154
3 1155 1174 1173
3 1156 1174 1155
3 1156 1175 1174
3 1157 1175 1156
3 1157 1176 1175
3 1158 1176 1157
3 1158 1177 1176
3 1159 1177 1158
3 1159 1178 1177
3 1159 986 1179
3 1179 986 988
3 1160 989 987
3 1161 990 1160
3 1160 990 989
3 1162 991 1161
3 1161 991 990
3 1163 992 1162
3 1162 992 991
3 1164 993 1163
3 1163 993 992
3 1165 994 1164
3 1164 994 993
3 1167 995 1166
3 1166 995 994
3 1168 996 1167
3 1167 996 995
3 1169 997 1168
3 1168 997 996
3 1170 998 1169
3 1169 998 997
3 1171 999 1170
3 1170 999 998
3 1172 1000 1171
3 1171 1000 999
3 1173 1001 1172
3 1172 1001 1000
3 1174 1002 1173
3 1173 1002 1001
3 1175 1003 1174
3 1174 1003 1002
3 1176 1004 1175
3 1175 1004 1003
3 1177 1005 1176
3 1176 1005 1004
3 1178 1006 1177
3 1177 1006 1005
3 988 1006 1179
