ply
format ascii 1.0
element vertex 1148
property float x
property float y
property float z
element face 2048
property list uchar int vertex_index
end_header
0.566987 1 1
1 1 0.566987
1 0.566987 1
1 1 0.566987
2 0.566987 1
2 1 0.566987
2 1 0.566987
3 0.566987 1
3 1 0.566987
3 1 0.566987
4 0.566987 1
4 1 0.566987
4 1 0.566987
5 0.566987 1
5 1 0.566987
5 1 0.566987
6 0.566987 1
6 1 0.566987
6 1 0.566987
7 0.566987 1
7 1 0.566987
7 1 0.566987
8 0.566987 1
8 1 0.566987
8 1 0.566987
9 0.566987 1
9 1 0.566987
9 1 0.566987
10 0.566987 1
10 1 0.566987
10 1 0.566987
11 0.566987 1
11 1 0.566987
11 1 0.566987
12 0.566987 1
12 1 0.566987
12 1 0.566987
13 0.566987 1
13 1 0.566987
13 1 0.566987
14 0.566987 1
14 1 0.566987
14 1 0.566987
15 0.566987 1
15 1 0.566987
15 1 0.566987
16 0.566987 1
16 1 0.566987
16 1 0.566987
17 0.566987 1
17 1 0.566987
17 1 0.566987
18 0.566987 1
18 1 0.566987
18 1 0.566987
18.433 1 1
0.566403 2 1
1 2 0.566403
1 2 0.566403
2 2 0.566403
2 2 0.566403
3 2 0.566403
3 2 0.566403
4 2 0.566403
4 2 0.566403
5 2 0.566403
5 2 0.566403
6 2 0.566403
6 2 0.566403
7 2 0.566403
8 2 0.566403
9 2 0.566403
10 2 0.566403
11 2 0.566403
12 2 0.566403
13 2 0.566403
14 2 0.566403
15 2 0.566403
16 2 0.566403
16 2 0.566403
17 2 0.566403
18 2 0.566403
18.4336 2 1
0.565799 3 1
1 3 0.565799
1 3 0.565799
2 3 0.565799
2 3 0.565799
3 3 0.565799
3 3 0.565799
4 3 0.565799
4 3 0.565799
5 3 0.565799
5 3 0.565799
6 3 0.565799
7 3 0.565799
7 3 0.565799
8 3 0.565799
8 3 0.565799
9 3 0.565799
9 3 0.565799
10 3 0.565799
10 3 0.565799
11 3 0.565799
11 3 0.565799
12 3 0.565799
12 3 0.565799
13 3 0.565799
13 3 0.565799
14 3 0.565799
14 3 0.565799
15 3 0.565799
15 3 0.565799
16 3 0.565799
16 3 0.565799
17 3 0.565799
17 3 0.565799
18 3 0.565799
18 3 0.565799
18.4342 3 1
0.565154 4 1
1 4 0.565154
2 4 0.565154
3 4 0.565154
4 4 0.565154
5 4 0.565154
6 4 0.565154
7 4 0.565154
8 4 0.565154
9 4 0.565154
10 4 0.565154
11 4 0.565154
12 4 0.565154
13 4 0.565154
14 4 0.565154
15 4 0.565154
16 4 0.565154
17 4 0.565154
18 4 0.565154
18.4348 4 1
0.564441 5 1
1 5 0.564441
2 5 0.564441
3 5 0.564441
4 5 0.564441
5 5 0.564441
6 5 0.564441
7 5 0.564441
8 5 0.564441
9 5 0.564441
10 5 0.564441
11 5 0.564441
12 5 0.564441
13 5 0.564441
14 5 0.564441
15 5 0.564441
16 5 0.564441
17 5 0.564441
18 5 0.564441
18.4356 5 1
0.56362 6 1
1 6 0.56362
2 6 0.56362
3 6 0.56362
4 6 0.56362
5 6 0.56362
6 6 0.56362
7 6 0.56362
8 6 0.56362
9 6 0.56362
10 6 0.56362
11 6 0.56362
12 6 0.56362
13 6 0.56362
14 6 0.56362
15 6 0.56362
16 6 0.56362
17 6 0.56362
18 6 0.56362
18.4364 6 1
0.562623 7 1
1 7 0.562623
2 7 0.562623
3 7 0.562623
4 7 0.562623
5 7 0.562623
6 7 0.562623
7 7 0.562623
8 7 0.562623
9 7 0.562623
10 7 0.562623
11 7 0.562623
12 7 0.562623
13 7 0.562623
14 7 0.562623
15 7 0.562623
16 7 0.562623
17 7 0.562623
18 7 0.562623
18.4374 7 1
0.561324 8 1
1 8 0.561324
1 8 0.561324
2 8 0.561324
2 8 0.561324
3 8 0.561324
3 8 0.561324
4 8 0.561324
4 8 0.561324
5 8 0.561324
5 8 0.561324
6 8 0.561324
6 8 0.561324
7 8 0.561324
7 8 0.561324
8 8 0.561324
8 8 0.561324
9 8 0.561324
9 8 0.561324
10 8 0.561324
10 8 0.561324
11 8 0.561324
11 8 0.561324
12 8 0.561324
12 8 0.561324
13 8 0.561324
13 8 0.561324
14 8 0.561324
14 8 0.561324
15 8 0.561324
15 8 0.561324
16 8 0.561324
16 8 0.561324
17 8 0.561324
17 8 0.561324
18 8 0.561324
18 8 0.561324
18.4387 8 1
0.559445 9 1
1 9 0.559445
2 9 0.559445
3 9 0.559445
4 9 0.559445
5 9 0.559445
6 9 0.559445
7 9 0.559445
8 9 0.559445
9 9 0.559445
10 9 0.559445
11 9 0.559445
12 9 0.559445
13 9 0.559445
14 9 0.559445
15 9 0.559445
16 9 0.559445
17 9 0.559445
18 9 0.559445
18.4406 9 1
1 9.44055 1
2 9.44055 1
3 9.44055 1
4 9.44055 1
5 9.44055 1
6 9.44055 1
7 9.44055 1
8 9.44055 1
9 9.44055 1
10 9.44055 1
11 9.44055 1
12 9.44055 1
13 9.44055 1
14 9.44055 1
15 9.44055 1
16 9.44055 1
17 9.44055 1
18 9.44055 1
1 0.567567 2
0.567566 1 2
0.566987 1 1
2 0.567567 2
3 0.567567 2
4 0.567567 2
5 0.567567 2
6 0.567567 2
7 0.567567 2
8 0.567567 2
9 0.567567 2
10 0.567567 2
11 0.567567 2
12 0.567567 2
13 0.567567 2
14 0.567567 2
15 0.567567 2
16 0.567567 2
17 0.567567 2
18 0.567567 2
18.4324 1 2
0.567008 2 2
0.566403 2 1
18.433 2 2
0.566451 3 2
0.565799 3 1
18.4335 3 2
0.565882 4 2
18.4341 4 2
0.565288 5 2
18.4347 5 2
0.564659 6 2
18.4353 6 2
0.563992 7 2
18.436 7 2
0.563327 8 2
0.561324 8 1
18.4367 8 2
0.562855 9 2
18.4371 9 2
1 9.43715 2
2 9.43715 2
3 9.43715 2
4 9.43715 2
5 9.43715 2
6 9.43715 2
7 9.43715 2
8 9.43715 2
9 9.43715 2
10 9.43715 2
11 9.43715 2
12 9.43715 2
13 9.43715 2
14 9.43715 2
15 9.43715 2
16 9.43715 2
17 9.43715 2
18 9.43715 2
1 0.568127 3
0.568127 1 3
0.567566 1 2
2 0.568127 3
3 0.568127 3
4 0.568127 3
5 0.568127 3
6 0.568127 3
7 0.568127 3
8 0.568127 3
9 0.568127 3
10 0.568127 3
11 0.568127 3
12 0.568127 3
13 0.568127 3
14 0.568127 3
15 0.568127 3
16 0.568127 3
17 0.568127 3
18 0.568127 3
18.4319 1 3
0.567609 2 3
18.4324 2 3
0.567112 3 3
18.4329 3 3
0.566631 4 3
0.565882 4 2
18.4334 4 3
18.4341 4 2
0.566166 5 3
18.4338 5 3
0.565727 6 3
0.564659 6 2
18.4343 6 3
0.565349 7 3
0.563992 7 2
18.4347 7 3
0.565117 8 3
18.4349 8 3
0.565231 9 3
0.562855 9 2
18.4348 9 3
1 9.43477 3
2 9.43477 3
3 9.43477 3
4 9.43477 3
5 9.43477 3
6 9.43477 3
7 9.43477 3
8 9.43477 3
9 9.43477 3
10 9.43477 3
11 9.43477 3
12 9.43477 3
13 9.43477 3
14 9.43477 3
15 9.43477 3
16 9.43477 3
17 9.43477 3
18 9.43477 3
1 0.568653 4
0.568653 1 4
0.568127 1 3
2 0.568653 4
3 0.568653 4
4 0.568653 4
5 0.568653 4
6 0.568653 4
7 0.568653 4
8 0.568653 4
9 0.568653 4
10 0.568653 4
11 0.568653 4
12 0.568653 4
13 0.568653 4
14 0.568653 4
15 0.568653 4
16 0.568653 4
17 0.568653 4
18 0.568653 4
18.4313 1 4
0.568185 2 4
0.567609 2 3
18.4318 2 4
0.567755 3 4
18.4322 3 4
0.567362 4 4
18.4326 4 4
0.567013 5 4
0.566166 5 3
18.433 5 4
0.566729 6 4
0.565727 6 3
18.4333 6 4
0.56655 7 4
0.565349 7 3
18.4335 7 4
0.566548 8 4
0.565117 8 3
18.4335 8 4
0.566842 9 4
0.565231 9 3
18.4332 9 4
1 9.43316 4
2 9.43316 4
3 9.43316 4
4 9.43316 4
5 9.43316 4
6 9.43316 4
7 9.43316 4
8 9.43316 4
9 9.43316 4
10 9.43316 4
11 9.43316 4
12 9.43316 4
13 9.43316 4
14 9.43316 4
15 9.43316 4
16 9.43316 4
17 9.43316 4
18 9.43316 4
1 0.569135 5
0.569135 1 5
0.568653 1 4
2 0.569135 5
3 0.569135 5
4 0.569135 5
5 0.569135 5
6 0.569135 5
7 0.569135 5
8 0.569135 5
9 0.569135 5
10 0.569135 5
11 0.569135 5
12 0.569135 5
13 0.569135 5
14 0.569135 5
15 0.569135 5
16 0.569135 5
17 0.569135 5
18 0.569135 5
18.4309 1 5
0.568722 2 5
0.568185 2 4
18.4313 2 5
0.568357 3 5
0.567755 3 4
18.4316 3 5
0.568044 4 5
0.567362 4 4
18.432 4 5
0.567793 5 5
0.567013 5 4
18.4322 5 5
0.567623 6 5
0.566729 6 4
18.4324 6 5
0.567567 7 5
18.4324 7 5
0.567676 8 5
0.566548 8 4
18.4323 8 5
0.568009 9 5
18.432 9 5
1 9.43199 5
2 9.43199 5
3 9.43199 5
4 9.43199 5
5 9.43199 5
6 9.43199 5
7 9.43199 5
8 9.43199 5
9 9.43199 5
10 9.43199 5
11 9.43199 5
12 9.43199 5
13 9.43199 5
14 9.43199 5
15 9.43199 5
16 9.43199 5
17 9.43199 5
18 9.43199 5
1 0.569564 6
0.569564 1 6
2 0.569564 6
3 0.569564 6
4 0.569564 6
5 0.569564 6
6 0.569564 6
7 0.569564 6
8 0.569564 6
9 0.569564 6
10 0.569564 6
11 0.569564 6
12 0.569564 6
13 0.569564 6
14 0.569564 6
15 0.569564 6
16 0.569564 6
17 0.569564 6
18 0.569564 6
18.4304 1 6
0.569208 2 6
0.568722 2 5
18.4308 2 6
0.568906 3 6
18.4311 3 6
0.568662 4 6
18.4313 4 6
0.568488 5 6
0.567793 5 5
18.4315 5 6
0.568398 6 6
18.4316 6 6
0.568417 7 6
0.567567 7 5
18.4316 7 6
0.568574 8 6
18.4314 8 6
0.568899 9 6
0.568009 9 5
18.4311 9 6
1 9.4311 6
2 9.4311 6
3 9.4311 6
4 9.4311 6
5 9.4311 6
6 9.4311 6
7 9.4311 6
8 9.4311 6
9 9.4311 6
10 9.4311 6
11 9.4311 6
12 9.4311 6
13 9.4311 6
14 9.4311 6
15 9.4311 6
16 9.4311 6
17 9.4311 6
18 9.4311 6
1 0.569939 7
0.569939 1 7
2 0.569939 7
3 0.569939 7
4 0.569939 7
5 0.569939 7
6 0.569939 7
7 0.569939 7
8 0.569939 7
9 0.569939 7
10 0.569939 7
11 0.569939 7
12 0.569939 7
13 0.569939 7
14 0.569939 7
15 0.569939 7
16 0.569939 7
17 0.569939 7
18 0.569939 7
18.4301 1 7
0.569639 2 7
0.569208 2 6
18.4304 2 7
0.569394 3 7
18.4306 3 7
0.56921 4 7
0.568662 4 6
18.4308 4 7
0.569095 5 7
0.568488 5 6
18.4309 5 7
0.569062 6 7
0.568398 6 6
18.4309 6 7
0.569125 7 7
18.4309 7 7
0.569302 8 7
18.4307 8 7
0.569604 9 7
18.4304 9 7
1 9.4304 7
2 9.4304 7
3 9.4304 7
4 9.4304 7
5 9.4304 7
6 9.4304 7
7 9.4304 7
8 9.4304 7
9 9.4304 7
10 9.4304 7
11 9.4304 7
12 9.4304 7
13 9.4304 7
14 9.4304 7
15 9.4304 7
16 9.4304 7
17 9.4304 7
18 9.4304 7
1 0.57026 8
0.57026 1 8
2 0.57026 8
3 0.57026 8
4 0.57026 8
5 0.57026 8
6 0.57026 8
7 0.57026 8
8 0.57026 8
9 0.57026 8
10 0.57026 8
11 0.57026 8
12 0.57026 8
13 0.57026 8
14 0.57026 8
15 0.57026 8
16 0.57026 8
17 0.57026 8
18 0.57026 8
18.4297 1 8
0.570012 2 8
18.43 2 8
0.56982 3 8
0.569394 3 7
18.4302 3 8
0.569687 4 8
0.56921 4 7
18.4303 4 8
0.56962 5 8
18.4304 5 8
0.569628 6 8
0.569062 6 7
18.4304 6 8
0.569719 7 8
0.569125 7 7
18.4303 7 8
0.569901 8 8
0.569302 8 7
18.4301 8 8
0.57018 9 8
18.4298 9 8
1 9.42982 8
2 9.42982 8
3 9.42982 8
4 9.42982 8
5 9.42982 8
6 9.42982 8
7 9.42982 8
8 9.42982 8
9 9.42982 8
10 9.42982 8
11 9.42982 8
12 9.42982 8
13 9.42982 8
14 9.42982 8
15 9.42982 8
16 9.42982 8
17 9.42982 8
18 9.42982 8
1 0.570527 9
0.570527 1 9
2 0.570527 9
3 0.570527 9
4 0.570527 9
5 0.570527 9
6 0.570527 9
7 0.570527 9
8 0.570527 9
9 0.570527 9
10 0.570527 9
11 0.570527 9
12 0.570527 9
13 0.570527 9
14 0.570527 9
15 0.570527 9
16 0.570527 9
17 0.570527 9
18 0.570527 9
18.4295 1 9
0.57033 2 9
0.570012 2 8
18.4297 2 9
0.570185 3 9
0.56982 3 8
18.4298 3 9
0.570097 4 9
0.569687 4 8
18.4299 4 9
0.57007 5 9
0.56962 5 8
18.4299 5 9
0.570109 6 9
18.4299 6 9
0.570219 7 9
0.569719 7 8
18.4298 7 9
0.570403 8 9
0.569901 8 8
18.4296 8 9
0.570661 9 9
18.4293 9 9
1 9.42934 9
2 9.42934 9
3 9.42934 9
4 9.42934 9
5 9.42934 9
6 9.42934 9
7 9.42934 9
8 9.42934 9
9 9.42934 9
10 9.42934 9
11 9.42934 9
12 9.42934 9
13 9.42934 9
14 9.42934 9
15 9.42934 9
16 9.42934 9
17 9.42934 9
18 9.42934 9
1 0.570744 10
0.570744 1 10
2 0.570744 10
3 0.570744 10
4 0.570744 10
5 0.570744 10
6 0.570744 10
7 0.570744 10
8 0.570744 10
9 0.570744 10
10 0.570744 10
11 0.570744 10
12 0.570744 10
13 0.570744 10
14 0.570744 10
15 0.570744 10
16 0.570744 10
17 0.570744 10
18 0.570744 10
18.4293 1 10
0.570594 2 10
18.4294 2 10
0.570494 3 10
0.570185 3 9
18.4295 3 10
0.570446 4 10
18.4296 4 10
0.570453 5 10
18.4295 5 10
0.570518 6 10
18.4295 6 10
0.570643 7 10
0.570219 7 9
18.4294 7 10
0.570828 8 10
18.4292 8 10
0.571071 9 10
18.4289 9 10
1 9.42893 10
2 9.42893 10
3 9.42893 10
4 9.42893 10
5 9.42893 10
6 9.42893 10
7 9.42893 10
8 9.42893 10
9 9.42893 10
10 9.42893 10
11 9.42893 10
12 9.42893 10
13 9.42893 10
14 9.42893 10
15 9.42893 10
16 9.42893 10
17 9.42893 10
18 9.42893 10
1 0.570913 11
0.570913 1 11
2 0.570913 11
3 0.570913 11
4 0.570913 11
5 0.570913 11
6 0.570913 11
7 0.570913 11
8 0.570913 11
9 0.570913 11
10 0.570913 11
11 0.570913 11
12 0.570913 11
13 0.570913 11
14 0.570913 11
15 0.570913 11
16 0.570913 11
17 0.570913 11
18 0.570913 11
18.4291 1 11
0.570808 2 11
0.570594 2 10
18.4292 2 11
0.570749 3 11
0.570494 3 10
18.4293 3 11
0.570739 4 11
18.4293 4 11
0.570778 5 11
18.4292 5 11
0.570867 6 11
18.4291 6 11
0.571007 7 11
18.429 7 11
0.571195 8 11
18.4288 8 11
0.571428 9 11
0.571071 9 10
18.4286 9 11
1 9.42857 11
2 9.42857 11
3 9.42857 11
4 9.42857 11
5 9.42857 11
6 9.42857 11
7 9.42857 11
8 9.42857 11
9 9.42857 11
10 9.42857 11
11 9.42857 11
12 9.42857 11
13 9.42857 11
14 9.42857 11
15 9.42857 11
16 9.42857 11
17 9.42857 11
18 9.42857 11
1 0.571037 12
0.571037 1 12
2 0.571037 12
3 0.571037 12
4 0.571037 12
5 0.571037 12
6 0.571037 12
7 0.571037 12
8 0.571037 12
9 0.571037 12
10 0.571037 12
11 0.571037 12
12 0.571037 12
13 0.571037 12
14 0.571037 12
15 0.571037 12
16 0.571037 12
17 0.571037 12
18 0.571037 12
18.429 1 12
0.570975 2 12
18.429 2 12
0.570956 3 12
18.429 3 12
0.570982 4 12
18.429 4 12
0.571052 5 12
0.570778 5 11
18.4289 5 12
0.571165 6 12
18.4288 6 12
0.571321 7 12
0.571007 7 11
18.4287 7 12
0.571516 8 12
0.571195 8 11
18.4285 8 12
0.571745 9 12
18.4283 9 12
1 9.42825 12
2 9.42825 12
3 9.42825 12
4 9.42825 12
5 9.42825 12
6 9.42825 12
7 9.42825 12
8 9.42825 12
9 9.42825 12
10 9.42825 12
11 9.42825 12
12 9.42825 12
13 9.42825 12
14 9.42825 12
15 9.42825 12
16 9.42825 12
17 9.42825 12
18 9.42825 12
1 0.571119 13
0.571119 1 13
2 0.571119 13
3 0.571119 13
4 0.571119 13
5 0.571119 13
6 0.571119 13
7 0.571119 13
8 0.571119 13
9 0.571119 13
10 0.571119 13
11 0.571119 13
12 0.571119 13
13 0.571119 13
14 0.571119 13
15 0.571119 13
16 0.571119 13
17 0.571119 13
18 0.571119 13
18.4289 1 13
0.571098 2 13
18.4289 2 13
0.571118 3 13
0.570956 3 12
18.4289 3 13
0.57118 4 13
18.4288 4 13
0.571281 5 13
18.4287 5 13
0.571421 6 13
0.571165 6 12
18.4286 6 13
0.571596 7 13
0.571321 7 12
18.4284 7 13
0.571802 8 13
18.4282 8 13
0.572033 9 13
0.571745 9 12
18.428 9 13
1 9.42797 13
2 9.42797 13
3 9.42797 13
4 9.42797 13
5 9.42797 13
6 9.42797 13
7 9.42797 13
8 9.42797 13
9 9.42797 13
10 9.42797 13
11 9.42797 13
12 9.42797 13
13 9.42797 13
14 9.42797 13
15 9.42797 13
16 9.42797 13
17 9.42797 13
18 9.42797 13
1 1 13.4289
0.571119 1 13
2 1 13.4289
3 1 13.4289
4 1 13.4289
5 1 13.4289
6 1 13.4289
7 1 13.4289
8 1 13.4289
9 1 13.4289
10 1 13.4289
11 1 13.4289
12 1 13.4289
13 1 13.4289
14 1 13.4289
15 1 13.4289
16 1 13.4289
17 1 13.4289
18 1 13.4289
0.571098 2 13
1 2 13.4289
2 2 13.4289
3 2 13.4289
4 2 13.4289
5 2 13.4289
6 2 13.4289
7 2 13.4289
8 2 13.4289
9 2 13.4289
10 2 13.4289
11 2 13.4289
12 2 13.4289
13 2 13.4289
14 2 13.4289
15 2 13.4289
16 2 13.4289
17 2 13.4289
18 2 13.4289
0.571118 3 13
1 3 13.4289
2 3 13.4289
3 3 13.4289
4 3 13.4289
5 3 13.4289
6 3 13.4289
7 3 13.4289
8 3 13.4289
9 3 13.4289
10 3 13.4289
11 3 13.4289
12 3 13.4289
13 3 13.4289
14 3 13.4289
15 3 13.4289
16 3 13.4289
17 3 13.4289
18 3 13.4289
0.57118 4 13
1 4 13.4288
2 4 13.4288
3 4 13.4288
4 4 13.4288
5 4 13.4288
6 4 13.4288
7 4 13.4288
8 4 13.4288
9 4 13.4288
10 4 13.4288
11 4 13.4288
12 4 13.4288
13 4 13.4288
14 4 13.4288
15 4 13.4288
16 4 13.4288
17 4 13.4288
18 4 13.4288
1 5 13.4287
2 5 13.4287
3 5 13.4287
4 5 13.4287
5 5 13.4287
6 5 13.4287
7 5 13.4287
8 5 13.4287
9 5 13.4287
10 5 13.4287
11 5 13.4287
12 5 13.4287
13 5 13.4287
14 5 13.4287
15 5 13.4287
16 5 13.4287
17 5 13.4287
18 5 13.4287
1 6 13.4286
2 6 13.4286
3 6 13.4286
4 6 13.4286
5 6 13.4286
6 6 13.4286
7 6 13.4286
8 6 13.4286
9 6 13.4286
10 6 13.4286
11 6 13.4286
12 6 13.4286
13 6 13.4286
14 6 13.4286
15 6 13.4286
16 6 13.4286
17 6 13.4286
18 6 13.4286
0.571596 7 13
1 7 13.4284
2 7 13.4284
3 7 13.4284
4 7 13.4284
5 7 13.4284
6 7 13.4284
7 7 13.4284
8 7 13.4284
9 7 13.4284
10 7 13.4284
11 7 13.4284
12 7 13.4284
13 7 13.4284
14 7 13.4284
15 7 13.4284
16 7 13.4284
17 7 13.4284
18 7 13.4284
18.4284 7 13
1 8 13.4282
2 8 13.4282
3 8 13.4282
4 8 13.4282
5 8 13.4282
6 8 13.4282
7 8 13.4282
8 8 13.4282
9 8 13.4282
10 8 13.4282
11 8 13.4282
12 8 13.4282
13 8 13.4282
14 8 13.4282
15 8 13.4282
16 8 13.4282
17 8 13.4282
18 8 13.4282
0.572033 9 13
1 9 13.428
2 9 13.428
3 9 13.428
4 9 13.428
5 9 13.428
6 9 13.428
7 9 13.428
8 9 13.428
9 9 13.428
10 9 13.428
11 9 13.428
12 9 13.428
13 9 13.428
14 9 13.428
15 9 13.428
16 9 13.428
17 9 13.428
18 9 13.428
3 0 1 2
3 2 3 4
3 4 3 5
3 4 6 7
3 7 6 8
3 7 9 10
3 10 9 11
3 10 12 13
3 13 12 14
3 13 15 16
3 16 15 17
3 16 18 19
3 19 18 20
3 19 21 22
3 22 21 23
3 22 24 25
3 25 24 26
3 25 27 28
3 28 27 29
3 28 30 31
3 31 30 32
3 31 33 34
3 34 33 35
3 34 36 37
3 37 36 38
3 37 39 40
3 40 39 41
3 40 42 43
3 43 42 44
3 43 45 46
3 46 45 47
3 46 48 49
3 49 48 50
3 49 51 52
3 52 51 53
3 54 55 52
3 56 57 0
3 0 57 1
3 58 5 3
3 59 5 58
3 60 8 6
3 61 8 60
3 62 11 9
3 63 11 62
3 64 14 12
3 65 14 64
3 66 17 15
3 67 17 66
3 68 20 18
3 69 20 68
3 69 23 21
3 70 23 69
3 70 26 24
3 71 26 70
3 71 29 27
3 72 29 71
3 72 32 30
3 73 32 72
3 73 35 33
3 74 35 73
3 74 38 36
3 75 38 74
3 75 41 39
3 76 41 75
3 76 44 42
3 77 44 76
3 77 47 45
3 78 47 77
3 79 50 48
3 80 50 79
3 80 53 51
3 81 53 80
3 81 82 54
3 54 82 55
3 83 84 56
3 56 84 57
3 85 59 58
3 86 59 85
3 87 61 60
3 88 61 87
3 89 63 62
3 90 63 89
3 91 65 64
3 92 65 91
3 93 67 66
3 94 67 93
3 94 69 68
3 95 69 94
3 96 70 69
3 97 70 96
3 98 71 70
3 99 71 98
3 100 72 71
3 101 72 100
3 102 73 72
3 103 73 102
3 104 74 73
3 105 74 104
3 106 75 74
3 107 75 106
3 108 76 75
3 109 76 108
3 110 77 76
3 111 77 110
3 112 78 77
3 113 78 112
3 114 80 79
3 115 80 114
3 116 81 80
3 117 81 116
3 118 119 81
3 81 119 82
3 120 121 83
3 83 121 84
3 121 86 85
3 122 86 121
3 122 88 87
3 123 88 122
3 123 90 89
3 124 90 123
3 124 92 91
3 125 92 124
3 125 94 93
3 126 94 125
3 126 95 94
3 127 95 126
3 127 97 96
3 128 97 127
3 128 99 98
3 129 99 128
3 129 101 100
3 130 101 129
3 130 103 102
3 131 103 130
3 131 105 104
3 132 105 131
3 132 107 106
3 133 107 132
3 133 109 108
3 134 109 133
3 134 111 110
3 135 111 134
3 135 113 112
3 136 113 135
3 136 115 114
3 137 115 136
3 137 117 116
3 138 117 137
3 138 139 118
3 118 139 119
3 140 141 120
3 120 141 121
3 141 122 121
3 142 122 141
3 142 123 122
3 143 123 142
3 143 124 123
3 144 124 143
3 144 125 124
3 145 125 144
3 145 126 125
3 146 126 145
3 146 127 126
3 147 127 146
3 147 128 127
3 148 128 147
3 148 129 128
3 149 129 148
3 149 130 129
3 150 130 149
3 150 131 130
3 151 131 150
3 151 132 131
3 152 132 151
3 152 133 132
3 153 133 152
3 153 134 133
3 154 134 153
3 154 135 134
3 155 135 154
3 155 136 135
3 156 136 155
3 156 137 136
3 157 137 156
3 157 138 137
3 158 138 157
3 158 159 138
3 138 159 139
3 160 161 140
3 140 161 141
3 161 142 141
3 162 142 161
3 162 143 142
3 163 143 162
3 163 144 143
3 164 144 163
3 164 145 144
3 165 145 164
3 165 146 145
3 166 146 165
3 166 147 146
3 167 147 166
3 167 148 147
3 168 148 167
3 168 149 148
3 169 149 168
3 169 150 149
3 170 150 169
3 170 151 150
3 171 151 170
3 171 152 151
3 172 152 171
3 172 153 152
3 173 153 172
3 173 154 153
3 174 154 173
3 174 155 154
3 175 155 174
3 175 156 155
3 176 156 175
3 176 157 156
3 177 157 176
3 177 158 157
3 178 158 177
3 178 179 158
3 158 179 159
3 180 181 160
3 160 181 161
3 181 162 161
3 182 162 181
3 182 163 162
3 183 163 182
3 183 164 163
3 184 164 183
3 184 165 164
3 185 165 184
3 185 166 165
3 186 166 185
3 186 167 166
3 187 167 186
3 187 168 167
3 188 168 187
3 188 169 168
3 189 169 188
3 189 170 169
3 190 170 189
3 190 171 170
3 191 171 190
3 191 172 171
3 192 172 191
3 192 173 172
3 193 173 192
3 193 174 173
3 194 174 193
3 194 175 174
3 195 175 194
3 195 176 175
3 196 176 195
3 196 177 176
3 197 177 196
3 197 178 177
3 198 178 197
3 198 199 178
3 178 199 179
3 200 201 180
3 180 201 181
3 202 182 181
3 203 182 202
3 204 183 182
3 205 183 204
3 206 184 183
3 207 184 206
3 208 185 184
3 209 185 208
3 210 186 185
3 211 186 210
3 212 187 186
3 213 187 212
3 214 188 187
3 215 188 214
3 216 189 188
3 217 189 216
3 218 190 189
3 219 190 218
3 220 191 190
3 221 191 220
3 222 192 191
3 223 192 222
3 224 193 192
3 225 193 224
3 226 194 193
3 227 194 226
3 228 195 194
3 229 195 228
3 230 196 195
3 231 196 230
3 232 197 196
3 233 197 232
3 234 198 197
3 235 198 234
3 236 237 198
3 198 237 199
3 238 239 200
3 200 239 201
3 239 203 202
3 240 203 239
3 240 205 204
3 241 205 240
3 241 207 206
3 242 207 241
3 242 209 208
3 243 209 242
3 243 211 210
3 244 211 243
3 244 213 212
3 245 213 244
3 245 215 214
3 246 215 245
3 246 217 216
3 247 217 246
3 247 219 218
3 248 219 247
3 248 221 220
3 249 221 248
3 249 223 222
3 250 223 249
3 250 225 224
3 251 225 250
3 251 227 226
3 252 227 251
3 252 229 228
3 253 229 252
3 253 231 230
3 254 231 253
3 254 233 232
3 255 233 254
3 255 235 234
3 256 235 255
3 256 257 236
3 236 257 237
3 258 239 238
3 259 240 258
3 258 240 239
3 260 241 259
3 259 241 240
3 261 242 260
3 260 242 241
3 262 243 261
3 261 243 242
3 263 244 262
3 262 244 243
3 264 245 263
3 263 245 244
3 265 246 264
3 264 246 245
3 266 247 265
3 265 247 246
3 267 248 266
3 266 248 247
3 268 249 267
3 267 249 248
3 269 250 268
3 268 250 249
3 270 251 269
3 269 251 250
3 271 252 270
3 270 252 251
3 272 253 271
3 271 253 252
3 273 254 272
3 272 254 253
3 274 255 273
3 273 255 254
3 275 256 274
3 274 256 255
3 275 257 256
3 276 277 2
3 2 277 278
3 2 279 276
3 2 4 279
3 4 280 279
3 4 7 280
3 7 281 280
3 7 10 281
3 10 282 281
3 10 13 282
3 13 283 282
3 13 16 283
3 16 284 283
3 16 19 284
3 19 285 284
3 19 22 285
3 22 286 285
3 22 25 286
3 25 287 286
3 25 28 287
3 28 288 287
3 28 31 288
3 31 289 288
3 31 34 289
3 34 290 289
3 34 37 290
3 37 291 290
3 37 40 291
3 40 292 291
3 40 43 292
3 43 293 292
3 43 46 293
3 46 294 293
3 46 49 294
3 49 295 294
3 49 52 295
3 52 55 295
3 295 55 296
3 297 278 277
3 297 298 278
3 55 299 296
3 82 299 55
3 300 298 297
3 300 301 298
3 82 302 299
3 119 302 82
3 303 301 300
3 303 120 301
3 119 304 302
3 139 304 119
3 305 120 303
3 305 140 120
3 139 306 304
3 159 306 139
3 307 140 305
3 307 160 140
3 159 308 306
3 179 308 159
3 309 160 307
3 309 180 160
3 179 310 308
3 199 310 179
3 311 180 309
3 311 312 180
3 199 313 310
3 237 313 199
3 314 312 311
3 314 238 312
3 237 315 313
3 257 315 237
3 314 316 238
3 238 316 258
3 317 258 316
3 259 258 317
3 318 259 317
3 260 259 318
3 319 260 318
3 261 260 319
3 320 261 319
3 262 261 320
3 321 262 320
3 263 262 321
3 322 263 321
3 264 263 322
3 323 264 322
3 265 264 323
3 324 265 323
3 266 265 324
3 325 266 324
3 267 266 325
3 326 267 325
3 268 267 326
3 327 268 326
3 269 268 327
3 328 269 327
3 270 269 328
3 329 270 328
3 271 270 329
3 330 271 329
3 272 271 330
3 331 272 330
3 273 272 331
3 332 273 331
3 274 273 332
3 333 274 332
3 275 274 333
3 257 275 315
3 315 275 333
3 334 335 276
3 276 335 336
3 276 337 334
3 276 279 337
3 279 338 337
3 279 280 338
3 280 339 338
3 280 281 339
3 281 340 339
3 281 282 340
3 282 341 340
3 282 283 341
3 283 342 341
3 283 284 342
3 284 343 342
3 284 285 343
3 285 344 343
3 285 286 344
3 286 345 344
3 286 287 345
3 287 346 345
3 287 288 346
3 288 347 346
3 288 289 347
3 289 348 347
3 289 290 348
3 290 349 348
3 290 291 349
3 291 350 349
3 291 292 350
3 292 351 350
3 292 293 351
3 293 352 351
3 293 294 352
3 294 353 352
3 294 295 353
3 295 296 353
3 353 296 354
3 355 336 335
3 355 297 336
3 296 356 354
3 299 356 296
3 357 297 355
3 357 300 297
3 299 358 356
3 302 358 299
3 359 300 357
3 359 360 300
3 302 361 358
3 362 361 302
3 363 360 359
3 363 305 360
3 362 364 361
3 306 364 362
3 365 305 363
3 365 366 305
3 306 367 364
3 308 367 306
3 368 366 365
3 368 369 366
3 308 370 367
3 310 370 308
3 371 369 368
3 371 311 369
3 310 372 370
3 313 372 310
3 373 311 371
3 373 374 311
3 313 375 372
3 315 375 313
3 373 376 374
3 374 376 316
3 377 316 376
3 317 316 377
3 378 317 377
3 318 317 378
3 379 318 378
3 319 318 379
3 380 319 379
3 320 319 380
3 381 320 380
3 321 320 381
3 382 321 381
3 322 321 382
3 383 322 382
3 323 322 383
3 384 323 383
3 324 323 384
3 385 324 384
3 325 324 385
3 386 325 385
3 326 325 386
3 387 326 386
3 327 326 387
3 388 327 387
3 328 327 388
3 389 328 388
3 329 328 389
3 390 329 389
3 330 329 390
3 391 330 390
3 331 330 391
3 392 331 391
3 332 331 392
3 393 332 392
3 333 332 393
3 315 333 375
3 375 333 393
3 394 395 334
3 334 395 396
3 334 397 394
3 334 337 397
3 337 398 397
3 337 338 398
3 338 399 398
3 338 339 399
3 339 400 399
3 339 340 400
3 340 401 400
3 340 341 401
3 341 402 401
3 341 342 402
3 342 403 402
3 342 343 403
3 343 404 403
3 343 344 404
3 344 405 404
3 344 345 405
3 345 406 405
3 345 346 406
3 346 407 406
3 346 347 407
3 347 408 407
3 347 348 408
3 348 409 408
3 348 349 409
3 349 410 409
3 349 350 410
3 350 411 410
3 350 351 411
3 351 412 411
3 351 352 412
3 352 413 412
3 352 353 413
3 353 354 413
3 413 354 414
3 415 396 395
3 415 416 396
3 354 417 414
3 356 417 354
3 418 416 415
3 418 357 416
3 356 419 417
3 358 419 356
3 420 357 418
3 420 359 357
3 358 421 419
3 361 421 358
3 422 359 420
3 422 423 359
3 361 424 421
3 364 424 361
3 425 423 422
3 425 426 423
3 364 427 424
3 367 427 364
3 428 426 425
3 428 429 426
3 367 430 427
3 370 430 367
3 431 429 428
3 431 432 429
3 370 433 430
3 372 433 370
3 434 432 431
3 434 435 432
3 372 436 433
3 375 436 372
3 434 437 435
3 435 437 376
3 438 376 437
3 377 376 438
3 439 377 438
3 378 377 439
3 440 378 439
3 379 378 440
3 441 379 440
3 380 379 441
3 442 380 441
3 381 380 442
3 443 381 442
3 382 381 443
3 444 382 443
3 383 382 444
3 445 383 444
3 384 383 445
3 446 384 445
3 385 384 446
3 447 385 446
3 386 385 447
3 448 386 447
3 387 386 448
3 449 387 448
3 388 387 449
3 450 388 449
3 389 388 450
3 451 389 450
3 390 389 451
3 452 390 451
3 391 390 452
3 453 391 452
3 392 391 453
3 454 392 453
3 393 392 454
3 375 393 436
3 436 393 454
3 455 456 394
3 394 456 457
3 394 458 455
3 394 397 458
3 397 459 458
3 397 398 459
3 398 460 459
3 398 399 460
3 399 461 460
3 399 400 461
3 400 462 461
3 400 401 462
3 401 463 462
3 401 402 463
3 402 464 463
3 402 403 464
3 403 465 464
3 403 404 465
3 404 466 465
3 404 405 466
3 405 467 466
3 405 406 467
3 406 468 467
3 406 407 468
3 407 469 468
3 407 408 469
3 408 470 469
3 408 409 470
3 409 471 470
3 409 410 471
3 410 472 471
3 410 411 472
3 411 473 472
3 411 412 473
3 412 474 473
3 412 413 474
3 413 414 474
3 474 414 475
3 476 457 456
3 476 477 457
3 414 478 475
3 417 478 414
3 479 477 476
3 479 480 477
3 417 481 478
3 419 481 417
3 482 480 479
3 482 483 480
3 419 484 481
3 421 484 419
3 485 483 482
3 485 486 483
3 421 487 484
3 424 487 421
3 488 486 485
3 488 489 486
3 424 490 487
3 427 490 424
3 491 489 488
3 491 428 489
3 427 492 490
3 430 492 427
3 493 428 491
3 493 494 428
3 430 495 492
3 433 495 430
3 496 494 493
3 496 434 494
3 433 497 495
3 436 497 433
3 496 498 434
3 434 498 437
3 499 437 498
3 438 437 499
3 500 438 499
3 439 438 500
3 501 439 500
3 440 439 501
3 502 440 501
3 441 440 502
3 503 441 502
3 442 441 503
3 504 442 503
3 443 442 504
3 505 443 504
3 444 443 505
3 506 444 505
3 445 444 506
3 507 445 506
3 446 445 507
3 508 446 507
3 447 446 508
3 509 447 508
3 448 447 509
3 510 448 509
3 449 448 510
3 511 449 510
3 450 449 511
3 512 450 511
3 451 450 512
3 513 451 512
3 452 451 513
3 514 452 513
3 453 452 514
3 515 453 514
3 454 453 515
3 436 454 497
3 497 454 515
3 516 517 455
3 455 517 456
3 455 518 516
3 455 458 518
3 458 519 518
3 458 459 519
3 459 520 519
3 459 460 520
3 460 521 520
3 460 461 521
3 461 522 521
3 461 462 522
3 462 523 522
3 462 463 523
3 463 524 523
3 463 464 524
3 464 525 524
3 464 465 525
3 465 526 525
3 465 466 526
3 466 527 526
3 466 467 527
3 467 528 527
3 467 468 528
3 468 529 528
3 468 469 529
3 469 530 529
3 469 470 530
3 470 531 530
3 470 471 531
3 471 532 531
3 471 472 532
3 472 533 532
3 472 473 533
3 473 534 533
3 473 474 534
3 474 475 534
3 534 475 535
3 536 456 517
3 536 537 456
3 475 538 535
3 478 538 475
3 539 537 536
3 539 479 537
3 478 540 538
3 481 540 478
3 541 479 539
3 541 482 479
3 481 542 540
3 484 542 481
3 543 482 541
3 543 544 482
3 484 545 542
3 487 545 484
3 546 544 543
3 546 488 544
3 487 547 545
3 490 547 487
3 548 488 546
3 548 549 488
3 490 550 547
3 492 550 490
3 551 549 548
3 551 493 549
3 492 552 550
3 495 552 492
3 553 493 551
3 553 554 493
3 495 555 552
3 497 555 495
3 553 556 554
3 554 556 498
3 557 498 556
3 499 498 557
3 558 499 557
3 500 499 558
3 559 500 558
3 501 500 559
3 560 501 559
3 502 501 560
3 561 502 560
3 503 502 561
3 562 503 561
3 504 503 562
3 563 504 562
3 505 504 563
3 564 505 563
3 506 505 564
3 565 506 564
3 507 506 565
3 566 507 565
3 508 507 566
3 567 508 566
3 509 508 567
3 568 509 567
3 510 509 568
3 569 510 568
3 511 510 569
3 570 511 569
3 512 511 570
3 571 512 570
3 513 512 571
3 572 513 571
3 514 513 572
3 573 514 572
3 515 514 573
3 497 515 555
3 555 515 573
3 574 575 516
3 516 575 517
3 516 576 574
3 516 518 576
3 518 577 576
3 518 519 577
3 519 578 577
3 519 520 578
3 520 579 578
3 520 521 579
3 521 580 579
3 521 522 580
3 522 581 580
3 522 523 581
3 523 582 581
3 523 524 582
3 524 583 582
3 524 525 583
3 525 584 583
3 525 526 584
3 526 585 584
3 526 527 585
3 527 586 585
3 527 528 586
3 528 587 586
3 528 529 587
3 529 588 587
3 529 530 588
3 530 589 588
3 530 531 589
3 531 590 589
3 531 532 590
3 532 591 590
3 532 533 591
3 533 592 591
3 533 534 592
3 534 535 592
3 592 535 593
3 594 517 575
3 594 595 517
3 535 596 593
3 538 596 535
3 597 595 594
3 597 539 595
3 538 598 596
3 540 598 538
3 599 539 597
3 599 600 539
3 540 601 598
3 542 601 540
3 602 600 599
3 602 603 600
3 542 604 601
3 545 604 542
3 605 603 602
3 605 606 603
3 545 607 604
3 547 607 545
3 608 606 605
3 608 548 606
3 547 609 607
3 550 609 547
3 610 548 608
3 610 551 548
3 550 611 609
3 552 611 550
3 612 551 610
3 612 553 551
3 552 613 611
3 555 613 552
3 612 614 553
3 553 614 556
3 615 556 614
3 557 556 615
3 616 557 615
3 558 557 616
3 617 558 616
3 559 558 617
3 618 559 617
3 560 559 618
3 619 560 618
3 561 560 619
3 620 561 619
3 562 561 620
3 621 562 620
3 563 562 621
3 622 563 621
3 564 563 622
3 623 564 622
3 565 564 623
3 624 565 623
3 566 565 624
3 625 566 624
3 567 566 625
3 626 567 625
3 568 567 626
3 627 568 626
3 569 568 627
3 628 569 627
3 570 569 628
3 629 570 628
3 571 570 629
3 630 571 629
3 572 571 630
3 631 572 630
3 573 572 631
3 555 573 613
3 613 573 631
3 632 633 574
3 574 633 575
3 574 634 632
3 574 576 634
3 576 635 634
3 576 577 635
3 577 636 635
3 577 578 636
3 578 637 636
3 578 579 637
3 579 638 637
3 579 580 638
3 580 639 638
3 580 581 639
3 581 640 639
3 581 582 640
3 582 641 640
3 582 583 641
3 583 642 641
3 583 584 642
3 584 643 642
3 584 585 643
3 585 644 643
3 585 586 644
3 586 645 644
3 586 587 645
3 587 646 645
3 587 588 646
3 588 647 646
3 588 589 647
3 589 648 647
3 589 590 648
3 590 649 648
3 590 591 649
3 591 650 649
3 591 592 650
3 592 593 650
3 650 593 651
3 652 575 633
3 652 594 575
3 593 653 651
3 596 653 593
3 654 594 652
3 654 655 594
3 596 656 653
3 598 656 596
3 657 655 654
3 657 658 655
3 598 659 656
3 601 659 598
3 660 658 657
3 660 602 658
3 601 661 659
3 604 661 601
3 662 602 660
3 662 663 602
3 604 664 661
3 607 664 604
3 665 663 662
3 665 666 663
3 607 667 664
3 609 667 607
3 668 666 665
3 668 669 666
3 609 670 667
3 611 670 609
3 671 669 668
3 671 612 669
3 611 672 670
3 613 672 611
3 671 673 612
3 612 673 614
3 674 614 673
3 615 614 674
3 675 615 674
3 616 615 675
3 676 616 675
3 617 616 676
3 677 617 676
3 618 617 677
3 678 618 677
3 619 618 678
3 679 619 678
3 620 619 679
3 680 620 679
3 621 620 680
3 681 621 680
3 622 621 681
3 682 622 681
3 623 622 682
3 683 623 682
3 624 623 683
3 684 624 683
3 625 624 684
3 685 625 684
3 626 625 685
3 686 626 685
3 627 626 686
3 687 627 686
3 628 627 687
3 688 628 687
3 629 628 688
3 689 629 688
3 630 629 689
3 690 630 689
3 631 630 690
3 613 631 672
3 672 631 690
3 691 692 632
3 632 692 633
3 632 693 691
3 632 634 693
3 634 694 693
3 634 635 694
3 635 695 694
3 635 636 695
3 636 696 695
3 636 637 696
3 637 697 696
3 637 638 697
3 638 698 697
3 638 639 698
3 639 699 698
3 639 640 699
3 640 700 699
3 640 641 700
3 641 701 700
3 641 642 701
3 642 702 701
3 642 643 702
3 643 703 702
3 643 644 703
3 644 704 703
3 644 645 704
3 645 705 704
3 645 646 705
3 646 706 705
3 646 647 706
3 647 707 706
3 647 648 707
3 648 708 707
3 648 649 708
3 649 709 708
3 649 650 709
3 650 651 709
3 709 651 710
3 711 633 692
3 711 712 633
3 651 713 710
3 653 713 651
3 714 712 711
3 714 715 712
3 653 716 713
3 656 716 653
3 717 715 714
3 717 718 715
3 656 719 716
3 659 719 656
3 720 718 717
3 720 721 718
3 659 722 719
3 661 722 659
3 723 721 720
3 723 662 721
3 661 724 722
3 664 724 661
3 725 662 723
3 725 726 662
3 664 727 724
3 667 727 664
3 728 726 725
3 728 729 726
3 667 730 727
3 670 730 667
3 731 729 728
3 731 671 729
3 670 732 730
3 672 732 670
3 731 733 671
3 671 733 673
3 734 673 733
3 674 673 734
3 735 674 734
3 675 674 735
3 736 675 735
3 676 675 736
3 737 676 736
3 677 676 737
3 738 677 737
3 678 677 738
3 739 678 738
3 679 678 739
3 740 679 739
3 680 679 740
3 741 680 740
3 681 680 741
3 742 681 741
3 682 681 742
3 743 682 742
3 683 682 743
3 744 683 743
3 684 683 744
3 745 684 744
3 685 684 745
3 746 685 745
3 686 685 746
3 747 686 746
3 687 686 747
3 748 687 747
3 688 687 748
3 749 688 748
3 689 688 749
3 750 689 749
3 690 689 750
3 672 690 732
3 732 690 750
3 751 752 691
3 691 752 692
3 691 753 751
3 691 693 753
3 693 754 753
3 693 694 754
3 694 755 754
3 694 695 755
3 695 756 755
3 695 696 756
3 696 757 756
3 696 697 757
3 697 758 757
3 697 698 758
3 698 759 758
3 698 699 759
3 699 760 759
3 699 700 760
3 700 761 760
3 700 701 761
3 701 762 761
3 701 702 762
3 702 763 762
3 702 703 763
3 703 764 763
3 703 704 764
3 704 765 764
3 704 705 765
3 705 766 765
3 705 706 766
3 706 767 766
3 706 707 767
3 707 768 767
3 707 708 768
3 708 769 768
3 708 709 769
3 709 710 769
3 769 710 770
3 771 692 752
3 771 711 692
3 710 772 770
3 713 772 710
3 773 711 771
3 773 774 711
3 713 775 772
3 716 775 713
3 776 774 773
3 776 717 774
3 716 777 775
3 719 777 716
3 778 717 776
3 778 720 717
3 719 779 777
3 722 779 719
3 780 720 778
3 780 723 720
3 722 781 779
3 724 781 722
3 782 723 780
3 782 783 723
3 724 784 781
3 727 784 724
3 785 783 782
3 785 728 783
3 727 786 784
3 730 786 727
3 787 728 785
3 787 731 728
3 730 788 786
3 732 788 730
3 787 789 731
3 731 789 733
3 790 733 789
3 734 733 790
3 791 734 790
3 735 734 791
3 792 735 791
3 736 735 792
3 793 736 792
3 737 736 793
3 794 737 793
3 738 737 794
3 795 738 794
3 739 738 795
3 796 739 795
3 740 739 796
3 797 740 796
3 741 740 797
3 798 741 797
3 742 741 798
3 799 742 798
3 743 742 799
3 800 743 799
3 744 743 800
3 801 744 800
3 745 744 801
3 802 745 801
3 746 745 802
3 803 746 802
3 747 746 803
3 804 747 803
3 748 747 804
3 805 748 804
3 749 748 805
3 806 749 805
3 750 749 806
3 732 750 788
3 788 750 806
3 807 808 751
3 751 808 752
3 751 809 807
3 751 753 809
3 753 810 809
3 753 754 810
3 754 811 810
3 754 755 811
3 755 812 811
3 755 756 812
3 756 813 812
3 756 757 813
3 757 814 813
3 757 758 814
3 758 815 814
3 758 759 815
3 759 816 815
3 759 760 816
3 760 817 816
3 760 761 817
3 761 818 817
3 761 762 818
3 762 819 818
3 762 763 819
3 763 820 819
3 763 764 820
3 764 821 820
3 764 765 821
3 765 822 821
3 765 766 822
3 766 823 822
3 766 767 823
3 767 824 823
3 767 768 824
3 768 825 824
3 768 769 825
3 769 770 825
3 825 770 826
3 827 752 808
3 827 828 752
3 770 829 826
3 772 829 770
3 830 828 827
3 830 831 828
3 772 832 829
3 775 832 772
3 833 831 830
3 833 776 831
3 775 834 832
3 777 834 775
3 835 776 833
3 835 778 776
3 777 836 834
3 779 836 777
3 837 778 835
3 837 780 778
3 779 838 836
3 781 838 779
3 839 780 837
3 839 782 780
3 781 840 838
3 784 840 781
3 841 782 839
3 841 785 782
3 784 842 840
3 786 842 784
3 843 785 841
3 843 844 785
3 786 845 842
3 788 845 786
3 843 846 844
3 844 846 789
3 847 789 846
3 790 789 847
3 848 790 847
3 791 790 848
3 849 791 848
3 792 791 849
3 850 792 849
3 793 792 850
3 851 793 850
3 794 793 851
3 852 794 851
3 795 794 852
3 853 795 852
3 796 795 853
3 854 796 853
3 797 796 854
3 855 797 854
3 798 797 855
3 856 798 855
3 799 798 856
3 857 799 856
3 800 799 857
3 858 800 857
3 801 800 858
3 859 801 858
3 802 801 859
3 860 802 859
3 803 802 860
3 861 803 860
3 804 803 861
3 862 804 861
3 805 804 862
3 863 805 862
3 806 805 863
3 788 806 845
3 845 806 863
3 864 865 807
3 807 865 808
3 807 866 864
3 807 809 866
3 809 867 866
3 809 810 867
3 810 868 867
3 810 811 868
3 811 869 868
3 811 812 869
3 812 870 869
3 812 813 870
3 813 871 870
3 813 814 871
3 814 872 871
3 814 815 872
3 815 873 872
3 815 816 873
3 816 874 873
3 816 817 874
3 817 875 874
3 817 818 875
3 818 876 875
3 818 819 876
3 819 877 876
3 819 820 877
3 820 878 877
3 820 821 878
3 821 879 878
3 821 822 879
3 822 880 879
3 822 823 880
3 823 881 880
3 823 824 881
3 824 882 881
3 824 825 882
3 825 826 882
3 882 826 883
3 884 808 865
3 884 827 808
3 826 885 883
3 829 885 826
3 886 827 884
3 886 830 827
3 829 887 885
3 832 887 829
3 888 830 886
3 888 833 830
3 832 889 887
3 834 889 832
3 890 833 888
3 890 891 833
3 834 892 889
3 836 892 834
3 893 891 890
3 893 837 891
3 836 894 892
3 838 894 836
3 895 837 893
3 895 896 837
3 838 897 894
3 840 897 838
3 898 896 895
3 898 899 896
3 840 900 897
3 842 900 840
3 901 899 898
3 901 843 899
3 842 902 900
3 845 902 842
3 901 903 843
3 843 903 846
3 904 846 903
3 847 846 904
3 905 847 904
3 848 847 905
3 906 848 905
3 849 848 906
3 907 849 906
3 850 849 907
3 908 850 907
3 851 850 908
3 909 851 908
3 852 851 909
3 910 852 909
3 853 852 910
3 911 853 910
3 854 853 911
3 912 854 911
3 855 854 912
3 913 855 912
3 856 855 913
3 914 856 913
3 857 856 914
3 915 857 914
3 858 857 915
3 916 858 915
3 859 858 916
3 917 859 916
3 860 859 917
3 918 860 917
3 861 860 918
3 919 861 918
3 862 861 919
3 920 862 919
3 863 862 920
3 845 863 902
3 902 863 920
3 921 922 864
3 864 922 865
3 864 923 921
3 864 866 923
3 866 924 923
3 866 867 924
3 867 925 924
3 867 868 925
3 868 926 925
3 868 869 926
3 869 927 926
3 869 870 927
3 870 928 927
3 870 871 928
3 871 929 928
3 871 872 929
3 872 930 929
3 872 873 930
3 873 931 930
3 873 874 931
3 874 932 931
3 874 875 932
3 875 933 932
3 875 876 933
3 876 934 933
3 876 877 934
3 877 935 934
3 877 878 935
3 878 936 935
3 878 879 936
3 879 937 936
3 879 880 937
3 880 938 937
3 880 881 938
3 881 939 938
3 881 882 939
3 882 883 939
3 939 883 940
3 941 865 922
3 941 884 865
3 883 942 940
3 885 942 883
3 943 884 941
3 943 944 884
3 885 945 942
3 887 945 885
3 946 944 943
3 946 888 944
3 887 947 945
3 889 947 887
3 948 888 946
3 948 890 888
3 889 949 947
3 892 949 889
3 950 890 948
3 950 951 890
3 892 952 949
3 894 952 892
3 953 951 950
3 953 954 951
3 894 955 952
3 897 955 894
3 956 954 953
3 956 898 954
3 897 957 955
3 900 957 897
3 958 898 956
3 958 959 898
3 900 960 957
3 902 960 900
3 958 961 959
3 959 961 903
3 962 903 961
3 904 903 962
3 963 904 962
3 905 904 963
3 964 905 963
3 906 905 964
3 965 906 964
3 907 906 965
3 966 907 965
3 908 907 966
3 967 908 966
3 909 908 967
3 968 909 967
3 910 909 968
3 969 910 968
3 911 910 969
3 970 911 969
3 912 911 970
3 971 912 970
3 913 912 971
3 972 913 971
3 914 913 972
3 973 914 972
3 915 914 973
3 974 915 973
3 916 915 974
3 975 916 974
3 917 916 975
3 976 917 975
3 918 917 976
3 977 918 976
3 919 918 977
3 978 919 977
3 920 919 978
3 902 920 960
3 960 920 978
3 921 979 980
3 979 921 981
3 981 921 923
3 981 923 982
3 982 923 924
3 982 924 983
3 983 924 925
3 983 925 984
3 984 925 926
3 984 926 985
3 985 926 927
3 985 927 986
3 986 927 928
3 986 928 987
3 987 928 929
3 987 929 988
3 988 929 930
3 988 930 989
3 989 930 931
3 989 931 990
3 990 931 932
3 990 932 991
3 991 932 933
3 991 933 992
3 992 933 934
3 992 934 993
3 993 934 935
3 993 935 994
3 994 935 936
3 994 936 995
3 995 936 937
3 995 937 996
3 996 937 938
3 996 938 997
3 997 938 939
3 939 940 997
3 980 979 998
3 998 979 999
3 981 999 979
3 981 1000 999
3 982 1000 981
3 982 1001 1000
3 983 1001 982
3 983 1002 1001
3 984 1002 983
3 984 1003 1002
3 985 1003 984
3 985 1004 1003
3 986 1004 985
3 986 1005 1004
3 987 1005 986
3 987 1006 1005
3 988 1006 987
3 988 1007 1006
3 989 1007 988
3 989 1008 1007
3 990 1008 989
3 990 1009 1008
3 991 1009 990
3 991 1010 1009
3 992 1010 991
3 992 1011 1010
3 993 1011 992
3 993 1012 1011
3 994 1012 993
3 994 1013 1012
3 995 1013 994
3 995 1014 1013
3 996 1014 995
3 996 1015 1014
3 997 1015 996
3 997 1016 1015
3 997 940 1016
3 1016 940 942
3 998 999 1017
3 1017 999 1018
3 1000 1018 999
3 1000 1019 1018
3 1001 1019 1000
3 1001 1020 1019
3 1002 1020 1001
3 1002 1021 1020
3 1003 1021 1002
3 1003 1022 1021
3 1004 1022 1003
3 1004 1023 1022
3 1005 1023 1004
3 1005 1024 1023
3 1006 1024 1005
3 1006 1025 1024
3 1007 1025 1006
3 1007 1026 1025
3 1008 1026 1007
3 1008 1027 1026
3 1009 1027 1008
3 1009 1028 1027
3 1010 1028 1009
3 1010 1029 1028
3 1011 1029 1010
3 1011 1030 1029
3 1012 1030 1011
3 1012 1031 1030
3 1013 1031 1012
3 1013 1032 1031
3 1014 1032 1013
3 1014 1033 1032
3 1015 1033 1014
3 1015 1034 1033
3 1016 1034 1015
3 1016 1035 1034
3 1016 942 1035
3 1035 942 945
3 1017 1018 1036
3 1036 1018 1037
3 1019 1037 1018
3 1019 1038 1037
3 1020 1038 1019
3 1020 1039 1038
3 1021 1039 1020
3 1021 1040 1039
3 1022 1040 1021
3 1022 1041 1040
3 1023 1041 1022
3 1023 1042 1041
3 1024 1042 1023
3 1024 1043 1042
3 1025 1043 1024
3 1025 1044 1043
3 1026 1044 1025
3 1026 1045 1044
3 1027 1045 1026
3 1027 1046 1045
3 1028 1046 1027
3 1028 1047 1046
3 1029 1047 1028
3 1029 1048 1047
3 1030 1048 1029
3 1030 1049 1048
3 1031 1049 1030
3 1031 1050 1049
3 1032 1050 1031
3 1032 1051 1050
3 1033 1051 1032
3 1033 1052 1051
3 1034 1052 1033
3 1034 1053 1052
3 1035 1053 1034
3 1035 1054 1053
3 1035 945 1054
3 1054 945 947
3 1036 1037 948
3 948 1037 1055
3 1038 1055 1037
3 1038 1056 1055
3 1039 1056 1038
3 1039 1057 1056
3 1040 1057 1039
3 1040 1058 1057
3 1041 1058 1040
3 1041 1059 1058
3 1042 1059 1041
3 1042 1060 1059
3 1043 1060 1042
3 1043 1061 1060
3 1044 1061 1043
3 1044 1062 1061
3 1045 1062 1044
3 1045 1063 1062
3 1046 1063 1045
3 1046 1064 1063
3 1047 1064 1046
3 1047 1065 1064
3 1048 1065 1047
3 1048 1066 1065
3 1049 1066 1048
3 1049 1067 1066
3 1050 1067 1049
3 1050 1068 1067
3 1051 1068 1050
3 1051 1069 1068
3 1052 1069 1051
3 1052 1070 1069
3 1053 1070 1052
3 1053 1071 1070
3 1054 1071 1053
3 1054 1072 1071
3 1054 947 1072
3 1072 947 949
3 948 1055 950
3 950 1055 1073
3 1056 1073 1055
3 1056 1074 1073
3 1057 1074 1056
3 1057 1075 1074
3 1058 1075 1057
3 1058 1076 1075
3 1059 1076 1058
3 1059 1077 1076
3 1060 1077 1059
3 1060 1078 1077
3 1061 1078 1060
3 1061 1079 1078
3 1062 1079 1061
3 1062 1080 1079
3 1063 1080 1062
3 1063 1081 1080
3 1064 1081 1063
3 1064 1082 1081
3 1065 1082 1064
3 1065 1083 1082
3 1066 1083 1065
3 1066 1084 1083
3 1067 1084 1066
3 1067 1085 1084
3 1068 1085 1067
3 1068 1086 1085
3 1069 1086 1068
3 1069 1087 1086
3 1070 1087 1069
3 1070 1088 1087
3 1071 1088 1070
3 1071 1089 1088
3 1072 1089 1071
3 1072 1090 1089
3 1072 949 1090
3 1090 949 952
3 950 1073 1091
3 1091 1073 1092
3 1074 1092 1073
3 1074 1093 1092
3 1075 1093 1074
3 1075 1094 1093
3 1076 1094 1075
3 1076 1095 1094
3 1077 1095 1076
3 1077 1096 1095
3 1078 1096 1077
3 1078 1097 1096
3 1079 1097 1078
3 1079 1098 1097
3 1080 1098 1079
3 1080 1099 1098
3 1081 1099 1080
3 1081 1100 1099
3 1082 1100 1081
3 1082 1101 1100
3 1083 1101 1082
3 1083 1102 1101
3 1084 1102 1083
3 1084 1103 1102
3 1085 1103 1084
3 1085 1104 1103
3 1086 1104 1085
3 1086 1105 1104
3 1087 1105 1086
3 1087 1106 1105
3 1088 1106 1087
3 1088 1107 1106
3 1089 1107 1088
3 1089 1108 1107
3 1090 1108 1089
3 1090 1109 1108
3 1090 952 1109
3 1109 952 1110
3 1091 1092 956
3 956 1092 1111
3 1093 1111 1092
3 1093 1112 1111
3 1094 1112 1093
3 1094 1113 1112
3 1095 1113 1094
3 1095 1114 1113
3 1096 1114 1095
3 1096 1115 1114
3 1097 1115 1096
3 1097 1116 1115
3 1098 1116 1097
3 1098 1117 1116
3 1099 1117 1098
3 1099 1118 1117
3 1100 1118 1099
3 1100 1119 1118
3 1101 1119 1100
3 1101 1120 1119
3 1102 1120 1101
3 1102 1121 1120
3 1103 1121 1102
3 1103 1122 1121
3 1104 1122 1103
3 1104 1123 1122
3 1105 1123 1104
3 1105 1124 1123
3 1106 1124 1105
3 1106 1125 1124
3 1107 1125 1106
3 1107 1126 1125
3 1108 1126 1107
3 1108 1127 1126
3 1109 1127 1108
3 1109 1128 1127
3 1109 1110 1128
3 1128 1110 957
3 956 1111 1129
3 1129 1111 1130
3 1112 1130 1111
3 1112 1131 1130
3 1113 1131 1112
3 1113 1132 1131
3 1114 1132 1113
3 1114 1133 1132
3 1115 1133 1114
3 1115 1134 1133
3 1116 1134 1115
3 1116 1135 1134
3 1117 1135 1116
3 1117 1136 1135
3 1118 1136 1117
3 1118 1137 1136
3 1119 1137 1118
3 1119 1138 1137
3 1120 1138 1119
3 1120 1139 1138
3 1121 1139 1120
3 1121 1140 1139
3 1122 1140 1121
3 1122 1141 1140
3 1123 1141 1122
3 1123 1142 1141
3 1124 1142 1123
3 1124 1143 1142
3 1125 1143 1124
3 1125 1144 1143
3 1126 1144 1125
3 1126 1145 1144
3 1127 1145 1126
3 1127 1146 1145
3 1128 1146 1127
3 1128 1147 1146
3 1128 957 1147
3 1147 957 960
3 1130 961 1129
3 1131 962 1130
3 1130 962 961
3 1132 963 1131
3 1131 963 962
3 1133 964 1132
3 1132 964 963
3 1134 965 1133
3 1133 965 964
3 1135 966 1134
3 1134 966 965
3 1136 967 1135
3 1135 967 966
3 1137 968 1136
3 1136 968 967
3 1138 969 1137
3 1137 969 968
3 1139 970 1138
3 1138 970 969
3 1140 971 1139
3 1139 971 970
3 1141 972 1140
3 1140 972 971
3 1142 973 1141
3 1141 973 972
3 1143 974 1142
3 1142 974 973
3 1144 975 1143
3 1143 975 974
3 1145 976 1144
3 1144 976 975
3 1146 977 1145
3 1145 977 976
3 1147 978 1146
3 1146 978 977
3 960 978 1147
