ply
format ascii 1.0
element vertex 1187
property float x
property float y
property float z
element face 2048
property list uchar int vertex_index
end_header
0.566957 1 1
1 1 0.566957
1 0.566964 1
2 0.566964 1
2 1 0.566957
2 1 0.566957
3 0.566964 1
3 1 0.566956
4 0.566964 1
4 1 0.566956
4 1 0.566956
5 0.566964 1
5 1 0.566956
5 1 0.566956
6 0.566964 1
6 1 0.566956
6 1 0.566956
7 0.566964 1
7 1 0.566956
8 0.566964 1
8 1 0.566956
8 1 0.566956
9 0.566964 1
9 1 0.566956
10 0.566964 1
10 1 0.566956
10 1 0.566956
11 0.566964 1
11 1 0.566956
11 1 0.566956
12 0.566964 1
12 1 0.566957
12 1 0.566957
13 0.566964 1
13 1 0.566957
13 1 0.566957
14 0.566964 1
14 1 0.566957
15 0.566964 1
15 1 0.566957
15 1 0.566957
16 0.566964 1
16 1 0.566957
17 0.566964 1
17 1 0.566957
18 0.566964 1
18 1 0.566957
18 1 0.566957
18.433 1 1
0.561019 2 1
1 2 0.561019
1 2 0.561019
2 2 0.561019
2 2 0.561019
3 2 0.561018
4 2 0.561018
5 2 0.561018
6 2 0.561018
7 2 0.561018
7 2 0.561018
8 2 0.561018
8 2 0.561018
9 2 0.561018
9 2 0.561018
10 2 0.561018
11 2 0.561018
11 2 0.561018
12 2 0.561018
13 2 0.561018
13 2 0.561018
14 2 0.561018
14 2 0.561018
15 2 0.561018
15 2 0.561018
16 2 0.561018
16 2 0.561018
17 2 0.561018
17 2 0.561018
18 2 0.561018
18.439 2 1
0.554742 3 1
1 3 0.554742
1 3 0.554742
2 3 0.554742
3 3 0.554741
3 3 0.554741
4 3 0.554741
5 3 0.55474
5 3 0.55474
6 3 0.55474
7 3 0.55474
8 3 0.55474
9 3 0.55474
10 3 0.55474
11 3 0.55474
12 3 0.55474
12 3 0.55474
13 3 0.55474
13 3 0.55474
14 3 0.55474
14 3 0.55474
15 3 0.55474
15 3 0.55474
16 3 0.55474
17 3 0.55474
17 3 0.55474
18 3 0.55474
18.4453 3 1
0.547887 4 1
1 4 0.547887
2 4 0.547886
3 4 0.547885
3 4 0.547885
4 4 0.547884
5 4 0.547883
5 4 0.547883
6 4 0.547883
6 4 0.547883
7 4 0.547883
7 4 0.547883
8 4 0.547883
8 4 0.547883
9 4 0.547883
9 4 0.547883
10 4 0.547883
10 4 0.547883
11 4 0.547883
12 4 0.547883
13 4 0.547883
14 4 0.547883
15 4 0.547883
15 4 0.547883
16 4 0.547883
17 4 0.547883
17 4 0.547883
18 4 0.547883
18 4 0.547883
18.4521 4 1
0.540128 5 1
1 5 0.540128
2 5 0.540126
3 5 0.540123
3 5 0.540123
4 5 0.540122
5 5 0.540121
6 5 0.54012
7 5 0.54012
8 5 0.54012
8 5 0.54012
9 5 0.54012
9 5 0.54012
10 5 0.540121
10 5 0.540121
11 5 0.540121
11 5 0.540121
12 5 0.540121
13 5 0.540121
13 5 0.540121
14 5 0.540121
15 5 0.540121
15 5 0.540121
16 5 0.540121
17 5 0.540121
17 5 0.540121
18 5 0.540121
18.4599 5 1
0.530964 6 1
1 6 0.530964
2 6 0.530958
3 6 0.530953
4 6 0.530949
5 6 0.530948
6 6 0.530948
6 6 0.530948
7 6 0.530948
8 6 0.530948
8 6 0.530948
9 6 0.530948
10 6 0.530949
11 6 0.530949
11 6 0.530949
12 6 0.530949
12 6 0.530949
13 6 0.530949
14 6 0.530949
15 6 0.530949
15 6 0.530949
16 6 0.530949
16 6 0.530949
17 6 0.530949
18 6 0.530949
18 6 0.530949
18.4691 6 1
0.519518 7 1
1 7 0.519518
1 7 0.519518
2 7 0.519503
2 7 0.519503
3 7 0.519489
3 7 0.519489
4 7 0.519483
5 7 0.519482
6 7 0.519482
6 7 0.519482
7 7 0.519483
7 7 0.519483
8 7 0.519484
9 7 0.519484
9 7 0.519484
10 7 0.519484
10 7 0.519484
11 7 0.519485
11 7 0.519485
12 7 0.519485
13 7 0.519485
13 7 0.519485
14 7 0.519485
14 7 0.519485
15 7 0.519485
15 7 0.519485
16 7 0.519485
16 7 0.519485
17 7 0.519485
17 7 0.519485
18 7 0.519485
18 7 0.519485
18.4805 7 1
0.504176 8 1
1 8 0.504176
1 8 0.504176
2 8 0.504125
2 8 0.504125
3 8 0.504086
3 8 0.504086
4 8 0.504076
4 8 0.504076
5 8 0.504077
5 8 0.504077
6 8 0.50408
6 8 0.50408
7 8 0.504082
7 8 0.504082
8 8 0.504083
8 8 0.504083
9 8 0.504084
9 8 0.504084
10 8 0.504084
10 8 0.504084
11 8 0.504084
11 8 0.504084
12 8 0.504085
12 8 0.504085
13 8 0.504085
14 8 0.504085
15 8 0.504085
16 8 0.504085
17 8 0.504085
17 8 0.504085
18 8 0.504085
18 8 0.504085
18.4959 8 1
0.479122 9 1
1 9 0.479122
1 9 0.479122
2 9 0.479052
3 9 0.479059
4 9 0.479097
5 9 0.479117
6 9 0.479126
6 9 0.479126
7 9 0.479129
7 9 0.479129
8 9 0.479131
8 9 0.479131
9 9 0.479132
10 9 0.479132
10 9 0.479132
11 9 0.479133
12 9 0.479133
12 9 0.479133
13 9 0.479133
14 9 0.479133
14 9 0.479133
15 9 0.479133
15 9 0.479133
16 9 0.479133
17 9 0.479133
17 9 0.479133
18 9 0.479133
18 9 0.479133
18.5209 9 1
1 9.52088 1
2 9.52095 1
3 9.52094 1
4 9.5209 1
5 9.52088 1
6 9.52087 1
7 9.52087 1
8 9.52087 1
9 9.52087 1
10 9.52087 1
11 9.52087 1
12 9.52087 1
13 9.52087 1
14 9.52087 1
15 9.52087 1
16 9.52087 1
17 9.52087 1
18 9.52087 1
1 0.572569 2
0.572562 1 2
0.566957 1 1
2 0.572569 2
3 0.572568 2
4 0.572568 2
5 0.572568 2
6 0.572568 2
7 0.572569 2
8 0.572569 2
9 0.572569 2
10 0.572569 2
11 0.572569 2
12 0.572569 2
13 0.572569 2
14 0.572569 2
15 0.572569 2
16 0.572569 2
17 0.572569 2
18 0.572569 2
18.4274 1 2
0.566792 2 2
0.561019 2 1
18.4332 2 2
0.560884 3 2
0.554742 3 1
18.4391 3 2
0.554648 4 2
18.4454 4 2
0.547878 5 2
0.540128 5 1
18.4521 5 2
0.540316 6 2
18.4597 6 2
0.531649 7 2
18.4684 7 2
0.521695 8 2
18.4783 8 2
0.509258 9 2
18.4906 9 2
1 9.49074 2
2 9.49073 2
3 9.4907 2
4 9.49068 2
5 9.49066 2
6 9.49065 2
7 9.49065 2
8 9.49065 2
9 9.49065 2
10 9.49065 2
11 9.49065 2
12 9.49065 2
13 9.49065 2
14 9.49065 2
15 9.49065 2
16 9.49065 2
17 9.49065 2
18 9.49065 2
1 0.577874 3
0.577868 1 3
2 0.577874 3
3 0.577874 3
4 0.577874 3
5 0.577874 3
6 0.577874 3
7 0.577874 3
8 0.577874 3
9 0.577874 3
10 0.577874 3
11 0.577874 3
12 0.577874 3
13 0.577874 3
14 0.577874 3
15 0.577874 3
16 0.577874 3
17 0.577874 3
18 0.577875 3
18.4221 1 3
0.572429 2 3
18.4276 2 3
0.567047 3 3
18.433 3 3
0.561598 4 3
0.554648 4 2
18.4384 4 3
0.555997 5 3
0.547878 5 2
18.444 5 3
0.550207 6 3
18.4498 6 3
0.544314 7 3
18.4557 7 3
0.538796 8 3
0.521695 8 2
18.4612 8 3
0.534141 9 3
18.4658 9 3
1 9.46586 3
2 9.46583 3
3 9.46583 3
4 9.46583 3
5 9.46583 3
6 9.46582 3
7 9.46582 3
8 9.46582 3
9 9.46582 3
10 9.46582 3
11 9.46582 3
12 9.46582 3
13 9.46582 3
14 9.46582 3
15 9.46582 3
16 9.46582 3
17 9.46582 3
18 9.46582 3
1 0.582743 4
0.582737 1 4
2 0.582742 4
3 0.582742 4
4 0.582742 4
5 0.582742 4
6 0.582742 4
7 0.582743 4
8 0.582743 4
9 0.582743 4
10 0.582743 4
11 0.582743 4
12 0.582743 4
13 0.582743 4
14 0.582743 4
15 0.582743 4
16 0.582743 4
17 0.582743 4
18 0.582743 4
18.4173 1 4
0.577745 2 4
18.4223 2 4
0.57297 3 4
18.427 3 4
0.568345 4 4
0.561598 4 3
18.4317 4 4
0.563869 5 4
0.555997 5 3
18.4361 5 4
0.559624 6 4
18.4404 6 4
0.555841 7 4
18.4441 7 4
0.553062 8 4
0.538796 8 3
18.4469 8 4
0.551829 9 4
18.4482 9 4
1 9.44817 4
2 9.44815 4
3 9.44816 4
4 9.44818 4
5 9.44818 4
6 9.44817 4
7 9.44817 4
8 9.44817 4
9 9.44817 4
10 9.44817 4
11 9.44817 4
12 9.44817 4
13 9.44817 4
14 9.44817 4
15 9.44817 4
16 9.44817 4
17 9.44817 4
18 9.44817 4
1 0.587098 5
0.587094 1 5
0.582737 1 4
2 0.587098 5
3 0.587098 5
4 0.587098 5
5 0.587098 5
6 0.587098 5
7 0.587098 5
8 0.587098 5
9 0.587098 5
10 0.587098 5
11 0.587098 5
12 0.587098 5
13 0.587098 5
14 0.587099 5
15 0.587099 5
16 0.587099 5
17 0.587099 5
18 0.587099 5
18.4129 1 5
0.582621 2 5
0.577745 2 4
18.4174 2 5
0.57848 3 5
0.57297 3 4
18.4215 3 5
0.574643 4 5
18.4254 4 5
0.571152 5 5
0.563869 5 4
18.4288 5 5
0.568128 6 5
0.559624 6 4
18.4319 6 5
0.565807 7 5
18.4342 7 5
0.564606 8 5
18.4354 8 5
0.56485 9 5
0.551829 9 4
18.4352 9 5
1 9.43515 5
2 9.43514 5
3 9.43515 5
4 9.43516 5
5 9.43516 5
6 9.43516 5
7 9.43516 5
8 9.43516 5
9 9.43516 5
10 9.43516 5
11 9.43516 5
12 9.43516 5
13 9.43516 5
14 9.43516 5
15 9.43516 5
16 9.43516 5
17 9.43516 5
18 9.43516 5
1 0.590907 6
0.590904 1 6
0.587094 1 5
2 0.590907 6
3 0.590907 6
4 0.590907 6
5 0.590907 6
6 0.590907 6
7 0.590907 6
8 0.590907 6
9 0.590907 6
10 0.590907 6
11 0.590907 6
12 0.590907 6
13 0.590907 6
14 0.590907 6
15 0.590907 6
16 0.590907 6
17 0.590907 6
18 0.590907 6
18.4091 1 6
0.586987 2 6
18.413 2 6
0.583471 3 6
18.4165 3 6
0.580352 4 6
18.4196 4 6
0.577686 5 6
0.571152 5 5
18.4223 5 6
0.575589 6 6
0.568128 6 5
18.4244 6 6
0.57425 7 6
18.4257 7 6
0.57395 8 6
18.426 8 6
0.574834 9 6
0.56485 9 5
18.4252 9 6
1 9.42517 6
2 9.42516 6
3 9.42516 6
4 9.42517 6
5 9.42518 6
6 9.42518 6
7 9.42518 6
8 9.42518 6
9 9.42518 6
10 9.42518 6
11 9.42518 6
12 9.42518 6
13 9.42518 6
14 9.42518 6
15 9.42518 6
16 9.42518 6
17 9.42518 6
18 9.42518 6
1 0.59417 7
0.594168 1 7
2 0.59417 7
3 0.59417 7
4 0.59417 7
5 0.59417 7
6 0.59417 7
7 0.594171 7
8 0.594171 7
9 0.594171 7
10 0.594171 7
11 0.594171 7
12 0.594171 7
13 0.594171 7
14 0.594171 7
15 0.594171 7
16 0.594171 7
17 0.594171 7
18 0.594171 7
18.4058 1 7
0.590817 2 7
18.4092 2 7
0.587898 3 7
0.583471 3 6
18.4121 3 7
0.585418 4 7
0.580352 4 6
18.4146 4 7
0.583435 5 7
0.577686 5 6
18.4166 5 7
0.58204 6 7
0.575589 6 6
18.418 6 7
0.581366 7 7
18.4186 7 7
0.581588 8 7
18.4184 8 7
0.582748 9 7
18.4173 9 7
1 9.41725 7
2 9.41725 7
3 9.41725 7
4 9.41725 7
5 9.41726 7
6 9.41726 7
7 9.41726 7
8 9.41726 7
9 9.41726 7
10 9.41726 7
11 9.41726 7
12 9.41726 7
13 9.41726 7
14 9.41726 7
15 9.41726 7
16 9.41726 7
17 9.41726 7
18 9.41726 7
1 0.596913 8
0.596912 1 8
0.594168 1 7
2 0.596913 8
3 0.596913 8
4 0.596913 8
5 0.596913 8
6 0.596913 8
7 0.596913 8
8 0.596913 8
9 0.596913 8
10 0.596913 8
11 0.596913 8
12 0.596913 8
13 0.596913 8
14 0.596913 8
15 0.596913 8
16 0.596914 8
17 0.596914 8
18 0.596914 8
18.4031 1 8
0.594115 2 8
0.590817 2 7
18.4059 2 8
0.591757 3 8
18.4082 3 8
0.589847 4 8
18.4102 4 8
0.588432 5 8
18.4116 5 8
0.587579 6 8
18.4124 6 8
0.587374 7 8
18.4126 7 8
0.587918 8 8
18.4121 8 8
0.589193 9 8
0.582748 9 7
18.4108 9 8
1 9.41081 8
2 9.4108 8
3 9.41081 8
4 9.41081 8
5 9.41082 8
6 9.41082 8
7 9.41082 8
8 9.41082 8
9 9.41082 8
10 9.41082 8
11 9.41082 8
12 9.41082 8
13 9.41082 8
14 9.41082 8
15 9.41082 8
16 9.41082 8
17 9.41082 8
18 9.41082 8
1 0.599171 9
0.59917 1 9
2 0.599171 9
3 0.599171 9
4 0.599171 9
5 0.599171 9
6 0.599171 9
7 0.599171 9
8 0.599171 9
9 0.599171 9
10 0.599171 9
11 0.599171 9
12 0.599171 9
13 0.599171 9
14 0.599171 9
15 0.599171 9
16 0.599171 9
17 0.599171 9
18 0.599171 9
18.4008 1 9
0.596908 2 9
18.4031 2 9
0.595074 3 9
0.591757 3 8
18.4049 3 9
0.593675 4 9
18.4063 4 9
0.592747 5 9
0.588432 5 8
18.4073 5 9
0.592331 6 9
18.4077 6 9
0.592477 7 9
18.4075 7 9
0.593238 8 9
18.4068 8 9
0.594566 9 9
18.4054 9 9
1 9.40543 9
2 9.40543 9
3 9.40544 9
4 9.40544 9
5 9.40544 9
6 9.40544 9
7 9.40544 9
8 9.40544 9
9 9.40544 9
10 9.40544 9
11 9.40544 9
12 9.40544 9
13 9.40544 9
14 9.40544 9
15 9.40544 9
16 9.40544 9
17 9.40544 9
18 9.40544 9
1 0.600984 10
0.600984 1 10
0.59917 1 9
2 0.600984 10
3 0.600984 10
4 0.600984 10
5 0.600984 10
6 0.600984 10
7 0.600984 10
8 0.600984 10
9 0.600984 10
10 0.600984 10
11 0.600984 10
12 0.600984 10
13 0.600984 10
14 0.600984 10
15 0.600984 10
16 0.600984 10
17 0.600984 10
18 0.600984 10
18.399 1 10
0.599233 2 10
18.4008 2 10
0.59789 3 10
0.595074 3 9
18.4021 3 10
0.596958 4 10
0.593675 4 9
18.403 4 10
0.596458 5 10
18.4035 5 10
0.596414 6 10
0.592331 6 9
18.4036 6 10
0.596847 7 10
0.592477 7 9
18.4032 7 10
0.597777 8 10
0.593238 8 9
18.4022 8 10
0.599142 9 10
18.4009 9 10
1 9.40086 10
2 9.40086 10
3 9.40086 10
4 9.40086 10
5 9.40086 10
6 9.40086 10
7 9.40086 10
8 9.40086 10
9 9.40086 10
10 9.40087 10
11 9.40087 10
12 9.40087 10
13 9.40087 10
14 9.40087 10
15 9.40087 10
16 9.40087 10
17 9.40087 10
18 9.40087 10
1 0.602391 11
0.602391 1 11
2 0.602391 11
3 0.602391 11
4 0.602391 11
5 0.602391 11
6 0.602391 11
7 0.602391 11
8 0.602391 11
9 0.602391 11
10 0.602391 11
11 0.602391 11
12 0.602391 11
13 0.602391 11
14 0.602391 11
15 0.602391 11
16 0.602391 11
17 0.602391 11
18 0.602391 11
18.3976 1 11
0.601128 2 11
0.599233 2 10
18.3989 2 11
0.600249 3 11
18.3998 3 11
0.599753 4 11
0.596958 4 10
18.4002 4 11
0.599647 5 11
0.596458 5 10
18.4004 5 11
0.599938 6 11
18.4001 6 11
0.600628 7 11
0.596847 7 10
18.3994 7 11
0.601712 8 11
0.597777 8 10
18.3983 8 11
0.603123 9 11
18.3969 9 11
1 9.39688 11
2 9.39688 11
3 9.39688 11
4 9.39688 11
5 9.39688 11
6 9.39688 11
7 9.39688 11
8 9.39688 11
9 9.39688 11
10 9.39688 11
11 9.39688 11
12 9.39688 11
13 9.39688 11
14 9.39688 11
15 9.39688 11
16 9.39688 11
17 9.39688 11
18 9.39688 11
1 0.603423 12
0.603423 1 12
2 0.603423 12
3 0.603423 12
4 0.603423 12
5 0.603423 12
6 0.603423 12
7 0.603423 12
8 0.603423 12
9 0.603423 12
10 0.603423 12
11 0.603423 12
12 0.603423 12
13 0.603423 12
14 0.603423 12
15 0.603423 12
16 0.603423 12
17 0.603423 12
18 0.603423 12
18.3966 1 12
0.602628 2 12
0.601128 2 11
18.3974 2 12
0.602197 3 12
0.600249 3 11
18.3978 3 12
0.602117 4 12
0.599753 4 11
18.3979 4 12
0.602387 5 12
18.3976 5 12
0.602998 6 12
0.599938 6 11
18.397 6 12
0.603937 7 12
0.600628 7 11
18.3961 7 12
0.605183 8 12
18.3948 8 12
0.606662 9 12
18.3933 9 12
1 9.39334 12
2 9.39334 12
3 9.39334 12
4 9.39334 12
5 9.39334 12
6 9.39335 12
7 9.39335 12
8 9.39335 12
9 9.39335 12
10 9.39335 12
11 9.39335 12
12 9.39335 12
13 9.39335 12
14 9.39335 12
15 9.39335 12
16 9.39335 12
17 9.39335 12
18 9.39335 12
1 0.604125 13
0.604125 1 13
0.603423 1 12
2 0.604125 13
3 0.604125 13
4 0.604125 13
5 0.604124 13
6 0.604124 13
7 0.604124 13
8 0.604125 13
9 0.604125 13
10 0.604125 13
11 0.604125 13
12 0.604125 13
13 0.604125 13
14 0.604125 13
15 0.604125 13
16 0.604125 13
17 0.604125 13
18 0.604125 13
18.3959 1 13
0.603778 2 13
0.602628 2 12
18.3962 2 13
0.603775 3 13
18.3962 3 13
0.604097 4 13
18.3959 4 13
0.60473 5 13
0.602387 5 12
18.3953 5 13
0.605656 6 13
0.602998 6 12
18.3943 6 13
0.606846 7 13
0.603937 7 12
18.3932 7 13
0.608268 8 13
0.605183 8 12
18.3917 8 13
0.60984 9 13
0.606662 9 12
18.3902 9 13
1 9.39016 13
2 9.39017 13
3 9.39017 13
4 9.39017 13
5 9.39017 13
6 9.39017 13
7 9.39017 13
8 9.39017 13
9 9.39017 13
10 9.39017 13
11 9.39017 13
12 9.39017 13
13 9.39017 13
14 9.39017 13
15 9.39017 13
16 9.39017 13
17 9.39017 13
18 9.39017 13
1 1 13.3959
0.604125 1 13
2 1 13.3959
3 1 13.3959
4 1 13.3959
5 1 13.3959
6 1 13.3959
7 1 13.3959
7 1 13.3959
8 1 13.3959
9 1 13.3959
10 1 13.3959
11 1 13.3959
12 1 13.3959
13 1 13.3959
14 1 13.3959
15 1 13.3959
16 1 13.3959
17 1 13.3959
17 1 13.3959
18 1 13.3959
0.603778 2 13
1 2 13.3962
2 2 13.3962
3 2 13.3962
4 2 13.3962
5 2 13.3962
6 2 13.3962
7 2 13.3962
8 2 13.3962
9 2 13.3962
10 2 13.3962
11 2 13.3962
12 2 13.3962
13 2 13.3962
14 2 13.3962
15 2 13.3962
16 2 13.3962
17 2 13.3962
18 2 13.3962
1 3 13.3962
2 3 13.3962
2 3 13.3962
3 3 13.3962
4 3 13.3962
5 3 13.3962
5 3 13.3962
6 3 13.3962
7 3 13.3962
8 3 13.3962
9 3 13.3962
10 3 13.3962
11 3 13.3962
12 3 13.3962
13 3 13.3962
14 3 13.3962
15 3 13.3962
16 3 13.3962
17 3 13.3962
18 3 13.3962
1 4 13.3959
2 4 13.3959
3 4 13.3959
4 4 13.3959
5 4 13.3959
6 4 13.3959
7 4 13.3959
8 4 13.3959
9 4 13.3959
10 4 13.3959
11 4 13.3959
12 4 13.3959
13 4 13.3959
14 4 13.3959
15 4 13.3959
16 4 13.3959
17 4 13.3959
18 4 13.3959
1 5 13.3953
2 5 13.3953
3 5 13.3953
4 5 13.3953
5 5 13.3953
5 5 13.3953
6 5 13.3953
7 5 13.3953
7 5 13.3953
8 5 13.3953
9 5 13.3953
9 5 13.3953
10 5 13.3953
11 5 13.3953
12 5 13.3953
13 5 13.3953
14 5 13.3953
15 5 13.3953
16 5 13.3953
17 5 13.3953
18 5 13.3953
0.605656 6 13
1 6 13.3943
2 6 13.3943
3 6 13.3943
4 6 13.3943
5 6 13.3943
6 6 13.3943
6 6 13.3943
7 6 13.3943
8 6 13.3943
9 6 13.3943
10 6 13.3943
11 6 13.3943
11 6 13.3943
12 6 13.3943
13 6 13.3943
14 6 13.3943
15 6 13.3943
16 6 13.3943
17 6 13.3943
18 6 13.3943
1 7 13.3932
2 7 13.3932
3 7 13.3932
4 7 13.3932
5 7 13.3932
6 7 13.3932
7 7 13.3932
7 7 13.3932
8 7 13.3932
9 7 13.3932
9 7 13.3932
10 7 13.3932
11 7 13.3932
12 7 13.3932
13 7 13.3932
14 7 13.3932
15 7 13.3932
16 7 13.3932
17 7 13.3932
18 7 13.3932
1 8 13.3917
2 8 13.3917
3 8 13.3917
3 8 13.3917
4 8 13.3917
5 8 13.3917
6 8 13.3917
7 8 13.3917
8 8 13.3917
9 8 13.3917
10 8 13.3917
11 8 13.3917
12 8 13.3917
13 8 13.3917
14 8 13.3917
15 8 13.3917
16 8 13.3917
17 8 13.3917
18 8 13.3917
1 9 13.3902
2 9 13.3902
3 9 13.3902
4 9 13.3902
5 9 13.3902
6 9 13.3902
7 9 13.3902
8 9 13.3902
9 9 13.3902
10 9 13.3902
11 9 13.3902
12 9 13.3902
12 9 13.3902
13 9 13.3902
14 9 13.3902
15 9 13.3902
16 9 13.3902
17 9 13.3902
18 9 13.3902
3 0 1 2
3 2 1 3
3 3 1 4
3 3 5 6
3 6 5 7
3 6 7 8
3 8 7 9
3 8 10 11
3 11 10 12
3 11 13 14
3 14 13 15
3 14 16 17
3 17 16 18
3 17 18 19
3 19 18 20
3 19 21 22
3 22 21 23
3 22 23 24
3 24 23 25
3 24 26 27
3 27 26 28
3 27 29 30
3 30 29 31
3 30 32 33
3 33 32 34
3 33 35 36
3 36 35 37
3 36 37 38
3 38 37 39
3 38 40 41
3 41 40 42
3 41 42 43
3 43 42 44
3 43 44 45
3 45 44 46
3 47 48 45
3 49 50 0
3 0 50 1
3 51 4 1
3 52 4 51
3 53 7 5
3 54 7 53
3 54 9 7
3 55 9 54
3 55 12 10
3 56 12 55
3 56 15 13
3 57 15 56
3 57 18 16
3 58 18 57
3 59 20 18
3 60 20 59
3 61 23 21
3 62 23 61
3 63 25 23
3 64 25 63
3 64 28 26
3 65 28 64
3 66 31 29
3 67 31 66
3 67 34 32
3 68 34 67
3 69 37 35
3 70 37 69
3 71 39 37
3 72 39 71
3 73 42 40
3 74 42 73
3 75 44 42
3 76 44 75
3 77 46 44
3 78 46 77
3 78 79 47
3 47 79 48
3 80 81 49
3 49 81 50
3 82 52 51
3 83 52 82
3 83 54 53
3 84 54 83
3 85 55 54
3 86 55 85
3 86 56 55
3 87 56 86
3 88 57 56
3 89 57 88
3 89 58 57
3 90 58 89
3 90 60 59
3 91 60 90
3 91 62 61
3 92 62 91
3 92 64 63
3 93 64 92
3 93 65 64
3 94 65 93
3 94 67 66
3 95 67 94
3 96 68 67
3 97 68 96
3 98 70 69
3 99 70 98
3 100 72 71
3 101 72 100
3 102 74 73
3 103 74 102
3 103 76 75
3 104 76 103
3 105 78 77
3 106 78 105
3 106 107 78
3 78 107 79
3 108 109 80
3 80 109 81
3 109 83 82
3 110 83 109
3 110 84 83
3 111 84 110
3 112 86 85
3 113 86 112
3 113 87 86
3 114 87 113
3 115 89 88
3 116 89 115
3 117 90 89
3 118 90 117
3 119 91 90
3 120 91 119
3 121 92 91
3 122 92 121
3 123 93 92
3 124 93 123
3 125 94 93
3 126 94 125
3 126 95 94
3 127 95 126
3 127 97 96
3 128 97 127
3 128 99 98
3 129 99 128
3 129 101 100
3 130 101 129
3 131 103 102
3 132 103 131
3 132 104 103
3 133 104 132
3 134 106 105
3 135 106 134
3 136 137 106
3 106 137 107
3 138 139 108
3 108 139 109
3 139 110 109
3 140 110 139
3 140 111 110
3 141 111 140
3 142 113 112
3 143 113 142
3 143 114 113
3 144 114 143
3 144 116 115
3 145 116 144
3 145 118 117
3 146 118 145
3 146 120 119
3 147 120 146
3 148 122 121
3 149 122 148
3 150 124 123
3 151 124 150
3 152 126 125
3 153 126 152
3 154 127 126
3 155 127 154
3 155 128 127
3 156 128 155
3 157 129 128
3 158 129 157
3 158 130 129
3 159 130 158
3 160 132 131
3 161 132 160
3 161 133 132
3 162 133 161
3 163 135 134
3 164 135 163
3 164 165 136
3 136 165 137
3 166 167 138
3 138 167 139
3 167 140 139
3 168 140 167
3 168 141 140
3 169 141 168
3 169 143 142
3 170 143 169
3 170 144 143
3 171 144 170
3 171 145 144
3 172 145 171
3 173 146 145
3 174 146 173
3 174 147 146
3 175 147 174
3 176 149 148
3 177 149 176
3 177 151 150
3 178 151 177
3 178 153 152
3 179 153 178
3 180 155 154
3 181 155 180
3 182 156 155
3 183 156 182
3 183 158 157
3 184 158 183
3 184 159 158
3 185 159 184
3 186 161 160
3 187 161 186
3 188 162 161
3 189 162 188
3 189 164 163
3 190 164 189
3 191 192 164
3 164 192 165
3 193 194 166
3 166 194 167
3 195 168 167
3 196 168 195
3 197 169 168
3 198 169 197
3 199 170 169
3 200 170 199
3 200 171 170
3 201 171 200
3 201 172 171
3 202 172 201
3 203 174 173
3 204 174 203
3 205 175 174
3 206 175 205
3 206 177 176
3 207 177 206
3 208 178 177
3 209 178 208
3 210 179 178
3 211 179 210
3 212 181 180
3 213 181 212
3 213 183 182
3 214 183 213
3 215 184 183
3 216 184 215
3 217 185 184
3 218 185 217
3 219 187 186
3 220 187 219
3 221 189 188
3 222 189 221
3 223 190 189
3 224 190 223
3 225 226 191
3 191 226 192
3 227 228 193
3 193 228 194
3 229 196 195
3 230 196 229
3 231 198 197
3 232 198 231
3 233 200 199
3 234 200 233
3 235 201 200
3 236 201 235
3 237 202 201
3 238 202 237
3 239 204 203
3 240 204 239
3 241 206 205
3 242 206 241
3 243 207 206
3 244 207 243
3 245 209 208
3 246 209 245
3 247 211 210
3 248 211 247
3 249 213 212
3 250 213 249
3 251 214 213
3 252 214 251
3 252 216 215
3 253 216 252
3 253 218 217
3 254 218 253
3 254 220 219
3 255 220 254
3 255 222 221
3 256 222 255
3 257 224 223
3 258 224 257
3 259 260 225
3 225 260 226
3 261 262 227
3 227 262 228
3 263 230 229
3 264 230 263
3 264 232 231
3 265 232 264
3 265 234 233
3 266 234 265
3 266 236 235
3 267 236 266
3 267 238 237
3 268 238 267
3 269 240 239
3 270 240 269
3 271 242 241
3 272 242 271
3 273 244 243
3 274 244 273
3 274 246 245
3 275 246 274
3 276 248 247
3 277 248 276
3 277 250 249
3 278 250 277
3 279 252 251
3 280 252 279
3 280 253 252
3 281 253 280
3 282 254 253
3 283 254 282
3 284 255 254
3 285 255 284
3 285 256 255
3 286 256 285
3 287 258 257
3 288 258 287
3 289 290 259
3 259 290 260
3 291 262 261
3 292 264 291
3 291 264 263
3 293 265 292
3 292 265 264
3 294 266 293
3 293 266 265
3 295 267 294
3 294 267 266
3 296 268 295
3 295 268 267
3 297 270 296
3 296 270 269
3 298 272 297
3 297 272 271
3 299 274 298
3 298 274 273
3 300 275 299
3 299 275 274
3 301 277 300
3 300 277 276
3 302 278 301
3 301 278 277
3 303 280 302
3 302 280 279
3 304 281 303
3 303 281 280
3 305 283 304
3 304 283 282
3 306 285 305
3 305 285 284
3 307 286 306
3 306 286 285
3 308 288 307
3 307 288 287
3 308 290 289
3 309 310 2
3 2 310 311
3 2 312 309
3 2 3 312
3 3 313 312
3 3 6 313
3 6 314 313
3 6 8 314
3 8 315 314
3 8 11 315
3 11 316 315
3 11 14 316
3 14 317 316
3 14 17 317
3 17 318 317
3 17 19 318
3 19 319 318
3 19 22 319
3 22 320 319
3 22 24 320
3 24 321 320
3 24 27 321
3 27 322 321
3 27 30 322
3 30 323 322
3 30 33 323
3 33 324 323
3 33 36 324
3 36 325 324
3 36 38 325
3 38 326 325
3 38 41 326
3 41 327 326
3 41 43 327
3 43 328 327
3 43 45 328
3 45 48 328
3 328 48 329
3 330 311 310
3 330 331 311
3 48 332 329
3 79 332 48
3 333 331 330
3 333 334 331
3 79 335 332
3 107 335 79
3 336 334 333
3 336 108 334
3 107 337 335
3 137 337 107
3 338 108 336
3 338 339 108
3 137 340 337
3 165 340 137
3 341 339 338
3 341 166 339
3 165 342 340
3 192 342 165
3 343 166 341
3 343 193 166
3 192 344 342
3 226 344 192
3 345 193 343
3 345 227 193
3 226 346 344
3 260 346 226
3 347 227 345
3 347 261 227
3 260 348 346
3 290 348 260
3 347 349 261
3 261 349 291
3 350 291 349
3 292 291 350
3 351 292 350
3 293 292 351
3 352 293 351
3 294 293 352
3 353 294 352
3 295 294 353
3 354 295 353
3 296 295 354
3 355 296 354
3 297 296 355
3 356 297 355
3 298 297 356
3 357 298 356
3 299 298 357
3 358 299 357
3 300 299 358
3 359 300 358
3 301 300 359
3 360 301 359
3 302 301 360
3 361 302 360
3 303 302 361
3 362 303 361
3 304 303 362
3 363 304 362
3 305 304 363
3 364 305 363
3 306 305 364
3 365 306 364
3 307 306 365
3 366 307 365
3 308 307 366
3 290 308 348
3 348 308 366
3 367 368 309
3 309 368 310
3 309 369 367
3 309 312 369
3 312 370 369
3 312 313 370
3 313 371 370
3 313 314 371
3 314 372 371
3 314 315 372
3 315 373 372
3 315 316 373
3 316 374 373
3 316 317 374
3 317 375 374
3 317 318 375
3 318 376 375
3 318 319 376
3 319 377 376
3 319 320 377
3 320 378 377
3 320 321 378
3 321 379 378
3 321 322 379
3 322 380 379
3 322 323 380
3 323 381 380
3 323 324 381
3 324 382 381
3 324 325 382
3 325 383 382
3 325 326 383
3 326 384 383
3 326 327 384
3 327 385 384
3 327 328 385
3 328 329 385
3 385 329 386
3 387 310 368
3 387 330 310
3 329 388 386
3 332 388 329
3 389 330 387
3 389 333 330
3 332 390 388
3 335 390 332
3 391 333 389
3 391 392 333
3 335 393 390
3 337 393 335
3 394 392 391
3 394 395 392
3 337 396 393
3 340 396 337
3 397 395 394
3 397 341 395
3 340 398 396
3 342 398 340
3 399 341 397
3 399 343 341
3 342 400 398
3 344 400 342
3 401 343 399
3 401 402 343
3 344 403 400
3 346 403 344
3 404 402 401
3 404 347 402
3 346 405 403
3 348 405 346
3 404 406 347
3 347 406 349
3 407 349 406
3 350 349 407
3 408 350 407
3 351 350 408
3 409 351 408
3 352 351 409
3 410 352 409
3 353 352 410
3 411 353 410
3 354 353 411
3 412 354 411
3 355 354 412
3 413 355 412
3 356 355 413
3 414 356 413
3 357 356 414
3 415 357 414
3 358 357 415
3 416 358 415
3 359 358 416
3 417 359 416
3 360 359 417
3 418 360 417
3 361 360 418
3 419 361 418
3 362 361 419
3 420 362 419
3 363 362 420
3 421 363 420
3 364 363 421
3 422 364 421
3 365 364 422
3 423 365 422
3 366 365 423
3 348 366 405
3 405 366 423
3 424 425 367
3 367 425 368
3 367 426 424
3 367 369 426
3 369 427 426
3 369 370 427
3 370 428 427
3 370 371 428
3 371 429 428
3 371 372 429
3 372 430 429
3 372 373 430
3 373 431 430
3 373 374 431
3 374 432 431
3 374 375 432
3 375 433 432
3 375 376 433
3 376 434 433
3 376 377 434
3 377 435 434
3 377 378 435
3 378 436 435
3 378 379 436
3 379 437 436
3 379 380 437
3 380 438 437
3 380 381 438
3 381 439 438
3 381 382 439
3 382 440 439
3 382 383 440
3 383 441 440
3 383 384 441
3 384 442 441
3 384 385 442
3 385 386 442
3 442 386 443
3 444 368 425
3 444 387 368
3 386 445 443
3 388 445 386
3 446 387 444
3 446 389 387
3 388 447 445
3 390 447 388
3 448 389 446
3 448 449 389
3 390 450 447
3 393 450 390
3 451 449 448
3 451 452 449
3 393 453 450
3 396 453 393
3 454 452 451
3 454 397 452
3 396 455 453
3 398 455 396
3 456 397 454
3 456 399 397
3 398 457 455
3 400 457 398
3 458 399 456
3 458 459 399
3 400 460 457
3 403 460 400
3 461 459 458
3 461 404 459
3 403 462 460
3 405 462 403
3 461 463 404
3 404 463 406
3 464 406 463
3 407 406 464
3 465 407 464
3 408 407 465
3 466 408 465
3 409 408 466
3 467 409 466
3 410 409 467
3 468 410 467
3 411 410 468
3 469 411 468
3 412 411 469
3 470 412 469
3 413 412 470
3 471 413 470
3 414 413 471
3 472 414 471
3 415 414 472
3 473 415 472
3 416 415 473
3 474 416 473
3 417 416 474
3 475 417 474
3 418 417 475
3 476 418 475
3 419 418 476
3 477 419 476
3 420 419 477
3 478 420 477
3 421 420 478
3 479 421 478
3 422 421 479
3 480 422 479
3 423 422 480
3 405 423 462
3 462 423 480
3 481 482 424
3 424 482 483
3 424 484 481
3 424 426 484
3 426 485 484
3 426 427 485
3 427 486 485
3 427 428 486
3 428 487 486
3 428 429 487
3 429 488 487
3 429 430 488
3 430 489 488
3 430 431 489
3 431 490 489
3 431 432 490
3 432 491 490
3 432 433 491
3 433 492 491
3 433 434 492
3 434 493 492
3 434 435 493
3 435 494 493
3 435 436 494
3 436 495 494
3 436 437 495
3 437 496 495
3 437 438 496
3 438 497 496
3 438 439 497
3 439 498 497
3 439 440 498
3 440 499 498
3 440 441 499
3 441 500 499
3 441 442 500
3 442 443 500
3 500 443 501
3 502 483 482
3 502 503 483
3 443 504 501
3 445 504 443
3 505 503 502
3 505 506 503
3 445 507 504
3 447 507 445
3 508 506 505
3 508 448 506
3 447 509 507
3 450 509 447
3 510 448 508
3 510 511 448
3 450 512 509
3 453 512 450
3 513 511 510
3 513 514 511
3 453 515 512
3 455 515 453
3 516 514 513
3 516 456 514
3 455 517 515
3 457 517 455
3 518 456 516
3 518 458 456
3 457 519 517
3 460 519 457
3 520 458 518
3 520 521 458
3 460 522 519
3 462 522 460
3 520 523 521
3 521 523 463
3 524 463 523
3 464 463 524
3 525 464 524
3 465 464 525
3 526 465 525
3 466 465 526
3 527 466 526
3 467 466 527
3 528 467 527
3 468 467 528
3 529 468 528
3 469 468 529
3 530 469 529
3 470 469 530
3 531 470 530
3 471 470 531
3 532 471 531
3 472 471 532
3 533 472 532
3 473 472 533
3 534 473 533
3 474 473 534
3 535 474 534
3 475 474 535
3 536 475 535
3 476 475 536
3 537 476 536
3 477 476 537
3 538 477 537
3 478 477 538
3 539 478 538
3 479 478 539
3 540 479 539
3 480 479 540
3 462 480 522
3 522 480 540
3 541 542 481
3 481 542 543
3 481 544 541
3 481 484 544
3 484 545 544
3 484 485 545
3 485 546 545
3 485 486 546
3 486 547 546
3 486 487 547
3 487 548 547
3 487 488 548
3 488 549 548
3 488 489 549
3 489 550 549
3 489 490 550
3 490 551 550
3 490 491 551
3 491 552 551
3 491 492 552
3 492 553 552
3 492 493 553
3 493 554 553
3 493 494 554
3 494 555 554
3 494 495 555
3 495 556 555
3 495 496 556
3 496 557 556
3 496 497 557
3 497 558 557
3 497 498 558
3 498 559 558
3 498 499 559
3 499 560 559
3 499 500 560
3 500 501 560
3 560 501 561
3 562 543 542
3 562 502 543
3 501 563 561
3 504 563 501
3 564 502 562
3 564 505 502
3 504 565 563
3 507 565 504
3 566 505 564
3 566 508 505
3 507 567 565
3 509 567 507
3 568 508 566
3 568 569 508
3 509 570 567
3 512 570 509
3 571 569 568
3 571 572 569
3 512 573 570
3 515 573 512
3 574 572 571
3 574 516 572
3 515 575 573
3 517 575 515
3 576 516 574
3 576 518 516
3 517 577 575
3 519 577 517
3 578 518 576
3 578 579 518
3 519 580 577
3 522 580 519
3 578 581 579
3 579 581 523
3 582 523 581
3 524 523 582
3 583 524 582
3 525 524 583
3 584 525 583
3 526 525 584
3 585 526 584
3 527 526 585
3 586 527 585
3 528 527 586
3 587 528 586
3 529 528 587
3 588 529 587
3 530 529 588
3 589 530 588
3 531 530 589
3 590 531 589
3 532 531 590
3 591 532 590
3 533 532 591
3 592 533 591
3 534 533 592
3 593 534 592
3 535 534 593
3 594 535 593
3 536 535 594
3 595 536 594
3 537 536 595
3 596 537 595
3 538 537 596
3 597 538 596
3 539 538 597
3 598 539 597
3 540 539 598
3 522 540 580
3 580 540 598
3 599 600 541
3 541 600 542
3 541 601 599
3 541 544 601
3 544 602 601
3 544 545 602
3 545 603 602
3 545 546 603
3 546 604 603
3 546 547 604
3 547 605 604
3 547 548 605
3 548 606 605
3 548 549 606
3 549 607 606
3 549 550 607
3 550 608 607
3 550 551 608
3 551 609 608
3 551 552 609
3 552 610 609
3 552 553 610
3 553 611 610
3 553 554 611
3 554 612 611
3 554 555 612
3 555 613 612
3 555 556 613
3 556 614 613
3 556 557 614
3 557 615 614
3 557 558 615
3 558 616 615
3 558 559 616
3 559 617 616
3 559 560 617
3 560 561 617
3 617 561 618
3 619 542 600
3 619 562 542
3 561 620 618
3 563 620 561
3 621 562 619
3 621 622 562
3 563 623 620
3 565 623 563
3 624 622 621
3 624 625 622
3 565 626 623
3 567 626 565
3 627 625 624
3 627 628 625
3 567 629 626
3 570 629 567
3 630 628 627
3 630 631 628
3 570 632 629
3 573 632 570
3 633 631 630
3 633 574 631
3 573 634 632
3 575 634 573
3 635 574 633
3 635 576 574
3 575 636 634
3 577 636 575
3 637 576 635
3 637 578 576
3 577 638 636
3 580 638 577
3 637 639 578
3 578 639 581
3 640 581 639
3 582 581 640
3 641 582 640
3 583 582 641
3 642 583 641
3 584 583 642
3 643 584 642
3 585 584 643
3 644 585 643
3 586 585 644
3 645 586 644
3 587 586 645
3 646 587 645
3 588 587 646
3 647 588 646
3 589 588 647
3 648 589 647
3 590 589 648
3 649 590 648
3 591 590 649
3 650 591 649
3 592 591 650
3 651 592 650
3 593 592 651
3 652 593 651
3 594 593 652
3 653 594 652
3 595 594 653
3 654 595 653
3 596 595 654
3 655 596 654
3 597 596 655
3 656 597 655
3 598 597 656
3 580 598 638
3 638 598 656
3 657 658 599
3 599 658 659
3 599 660 657
3 599 601 660
3 601 661 660
3 601 602 661
3 602 662 661
3 602 603 662
3 603 663 662
3 603 604 663
3 604 664 663
3 604 605 664
3 605 665 664
3 605 606 665
3 606 666 665
3 606 607 666
3 607 667 666
3 607 608 667
3 608 668 667
3 608 609 668
3 609 669 668
3 609 610 669
3 610 670 669
3 610 611 670
3 611 671 670
3 611 612 671
3 612 672 671
3 612 613 672
3 613 673 672
3 613 614 673
3 614 674 673
3 614 615 674
3 615 675 674
3 615 616 675
3 616 676 675
3 616 617 676
3 617 618 676
3 676 618 677
3 678 659 658
3 678 679 659
3 618 680 677
3 620 680 618
3 681 679 678
3 681 621 679
3 620 682 680
3 623 682 620
3 683 621 681
3 683 624 621
3 623 684 682
3 626 684 623
3 685 624 683
3 685 627 624
3 626 686 684
3 629 686 626
3 687 627 685
3 687 630 627
3 629 688 686
3 632 688 629
3 689 630 687
3 689 633 630
3 632 690 688
3 634 690 632
3 691 633 689
3 691 635 633
3 634 692 690
3 636 692 634
3 693 635 691
3 693 694 635
3 636 695 692
3 638 695 636
3 693 696 694
3 694 696 639
3 697 639 696
3 640 639 697
3 698 640 697
3 641 640 698
3 699 641 698
3 642 641 699
3 700 642 699
3 643 642 700
3 701 643 700
3 644 643 701
3 702 644 701
3 645 644 702
3 703 645 702
3 646 645 703
3 704 646 703
3 647 646 704
3 705 647 704
3 648 647 705
3 706 648 705
3 649 648 706
3 707 649 706
3 650 649 707
3 708 650 707
3 651 650 708
3 709 651 708
3 652 651 709
3 710 652 709
3 653 652 710
3 711 653 710
3 654 653 711
3 712 654 711
3 655 654 712
3 713 655 712
3 656 655 713
3 638 656 695
3 695 656 713
3 714 715 657
3 657 715 658
3 657 716 714
3 657 660 716
3 660 717 716
3 660 661 717
3 661 718 717
3 661 662 718
3 662 719 718
3 662 663 719
3 663 720 719
3 663 664 720
3 664 721 720
3 664 665 721
3 665 722 721
3 665 666 722
3 666 723 722
3 666 667 723
3 667 724 723
3 667 668 724
3 668 725 724
3 668 669 725
3 669 726 725
3 669 670 726
3 670 727 726
3 670 671 727
3 671 728 727
3 671 672 728
3 672 729 728
3 672 673 729
3 673 730 729
3 673 674 730
3 674 731 730
3 674 675 731
3 675 732 731
3 675 676 732
3 676 677 732
3 732 677 733
3 734 658 715
3 734 678 658
3 677 735 733
3 680 735 677
3 736 678 734
3 736 737 678
3 680 738 735
3 682 738 680
3 739 737 736
3 739 683 737
3 682 740 738
3 684 740 682
3 741 683 739
3 741 742 683
3 684 743 740
3 686 743 684
3 744 742 741
3 744 687 742
3 686 745 743
3 688 745 686
3 746 687 744
3 746 689 687
3 688 747 745
3 690 747 688
3 748 689 746
3 748 691 689
3 690 749 747
3 692 749 690
3 750 691 748
3 750 693 691
3 692 751 749
3 695 751 692
3 750 752 693
3 693 752 696
3 753 696 752
3 697 696 753
3 754 697 753
3 698 697 754
3 755 698 754
3 699 698 755
3 756 699 755
3 700 699 756
3 757 700 756
3 701 700 757
3 758 701 757
3 702 701 758
3 759 702 758
3 703 702 759
3 760 703 759
3 704 703 760
3 761 704 760
3 705 704 761
3 762 705 761
3 706 705 762
3 763 706 762
3 707 706 763
3 764 707 763
3 708 707 764
3 765 708 764
3 709 708 765
3 766 709 765
3 710 709 766
3 767 710 766
3 711 710 767
3 768 711 767
3 712 711 768
3 769 712 768
3 713 712 769
3 695 713 751
3 751 713 769
3 770 771 714
3 714 771 772
3 714 773 770
3 714 716 773
3 716 774 773
3 716 717 774
3 717 775 774
3 717 718 775
3 718 776 775
3 718 719 776
3 719 777 776
3 719 720 777
3 720 778 777
3 720 721 778
3 721 779 778
3 721 722 779
3 722 780 779
3 722 723 780
3 723 781 780
3 723 724 781
3 724 782 781
3 724 725 782
3 725 783 782
3 725 726 783
3 726 784 783
3 726 727 784
3 727 785 784
3 727 728 785
3 728 786 785
3 728 729 786
3 729 787 786
3 729 730 787
3 730 788 787
3 730 731 788
3 731 789 788
3 731 732 789
3 732 733 789
3 789 733 790
3 791 772 771
3 791 734 772
3 733 792 790
3 735 792 733
3 793 734 791
3 793 794 734
3 735 795 792
3 738 795 735
3 796 794 793
3 796 797 794
3 738 798 795
3 740 798 738
3 799 797 796
3 799 741 797
3 740 800 798
3 743 800 740
3 801 741 799
3 801 802 741
3 743 803 800
3 745 803 743
3 804 802 801
3 804 805 802
3 745 806 803
3 747 806 745
3 807 805 804
3 807 808 805
3 747 809 806
3 749 809 747
3 810 808 807
3 810 750 808
3 749 811 809
3 751 811 749
3 810 812 750
3 750 812 752
3 813 752 812
3 753 752 813
3 814 753 813
3 754 753 814
3 815 754 814
3 755 754 815
3 816 755 815
3 756 755 816
3 817 756 816
3 757 756 817
3 818 757 817
3 758 757 818
3 819 758 818
3 759 758 819
3 820 759 819
3 760 759 820
3 821 760 820
3 761 760 821
3 822 761 821
3 762 761 822
3 823 762 822
3 763 762 823
3 824 763 823
3 764 763 824
3 825 764 824
3 765 764 825
3 826 765 825
3 766 765 826
3 827 766 826
3 767 766 827
3 828 767 827
3 768 767 828
3 829 768 828
3 769 768 829
3 751 769 811
3 811 769 829
3 830 831 770
3 770 831 771
3 770 832 830
3 770 773 832
3 773 833 832
3 773 774 833
3 774 834 833
3 774 775 834
3 775 835 834
3 775 776 835
3 776 836 835
3 776 777 836
3 777 837 836
3 777 778 837
3 778 838 837
3 778 779 838
3 779 839 838
3 779 780 839
3 780 840 839
3 780 781 840
3 781 841 840
3 781 782 841
3 782 842 841
3 782 783 842
3 783 843 842
3 783 784 843
3 784 844 843
3 784 785 844
3 785 845 844
3 785 786 845
3 786 846 845
3 786 787 846
3 787 847 846
3 787 788 847
3 788 848 847
3 788 789 848
3 789 790 848
3 848 790 849
3 850 771 831
3 850 851 771
3 790 852 849
3 792 852 790
3 853 851 850
3 853 793 851
3 792 854 852
3 795 854 792
3 855 793 853
3 855 856 793
3 795 857 854
3 798 857 795
3 858 856 855
3 858 859 856
3 798 860 857
3 800 860 798
3 861 859 858
3 861 801 859
3 800 862 860
3 803 862 800
3 863 801 861
3 863 864 801
3 803 865 862
3 806 865 803
3 866 864 863
3 866 867 864
3 806 868 865
3 809 868 806
3 869 867 866
3 869 810 867
3 809 870 868
3 811 870 809
3 869 871 810
3 810 871 812
3 872 812 871
3 813 812 872
3 873 813 872
3 814 813 873
3 874 814 873
3 815 814 874
3 875 815 874
3 816 815 875
3 876 816 875
3 817 816 876
3 877 817 876
3 818 817 877
3 878 818 877
3 819 818 878
3 879 819 878
3 820 819 879
3 880 820 879
3 821 820 880
3 881 821 880
3 822 821 881
3 882 822 881
3 823 822 882
3 883 823 882
3 824 823 883
3 884 824 883
3 825 824 884
3 885 825 884
3 826 825 885
3 886 826 885
3 827 826 886
3 887 827 886
3 828 827 887
3 888 828 887
3 829 828 888
3 811 829 870
3 870 829 888
3 889 890 830
3 830 890 831
3 830 891 889
3 830 832 891
3 832 892 891
3 832 833 892
3 833 893 892
3 833 834 893
3 834 894 893
3 834 835 894
3 835 895 894
3 835 836 895
3 836 896 895
3 836 837 896
3 837 897 896
3 837 838 897
3 838 898 897
3 838 839 898
3 839 899 898
3 839 840 899
3 840 900 899
3 840 841 900
3 841 901 900
3 841 842 901
3 842 902 901
3 842 843 902
3 843 903 902
3 843 844 903
3 844 904 903
3 844 845 904
3 845 905 904
3 845 846 905
3 846 906 905
3 846 847 906
3 847 907 906
3 847 848 907
3 848 849 907
3 907 849 908
3 909 831 890
3 909 910 831
3 849 911 908
3 852 911 849
3 912 910 909
3 912 913 910
3 852 914 911
3 854 914 852
3 915 913 912
3 915 916 913
3 854 917 914
3 857 917 854
3 918 916 915
3 918 858 916
3 857 919 917
3 860 919 857
3 920 858 918
3 920 921 858
3 860 922 919
3 862 922 860
3 923 921 920
3 923 924 921
3 862 925 922
3 865 925 862
3 926 924 923
3 926 866 924
3 865 927 925
3 868 927 865
3 928 866 926
3 928 869 866
3 868 929 927
3 870 929 868
3 928 930 869
3 869 930 871
3 931 871 930
3 872 871 931
3 932 872 931
3 873 872 932
3 933 873 932
3 874 873 933
3 934 874 933
3 875 874 934
3 935 875 934
3 876 875 935
3 936 876 935
3 877 876 936
3 937 877 936
3 878 877 937
3 938 878 937
3 879 878 938
3 939 879 938
3 880 879 939
3 940 880 939
3 881 880 940
3 941 881 940
3 882 881 941
3 942 882 941
3 883 882 942
3 943 883 942
3 884 883 943
3 944 884 943
3 885 884 944
3 945 885 944
3 886 885 945
3 946 886 945
3 887 886 946
3 947 887 946
3 888 887 947
3 870 888 929
3 929 888 947
3 948 949 889
3 889 949 950
3 889 951 948
3 889 891 951
3 891 952 951
3 891 892 952
3 892 953 952
3 892 893 953
3 893 954 953
3 893 894 954
3 894 955 954
3 894 895 955
3 895 956 955
3 895 896 956
3 896 957 956
3 896 897 957
3 897 958 957
3 897 898 958
3 898 959 958
3 898 899 959
3 899 960 959
3 899 900 960
3 900 961 960
3 900 901 961
3 901 962 961
3 901 902 962
3 902 963 962
3 902 903 963
3 903 964 963
3 903 904 964
3 904 965 964
3 904 905 965
3 905 966 965
3 905 906 966
3 906 967 966
3 906 907 967
3 907 908 967
3 967 908 968
3 969 950 949
3 969 970 950
3 908 971 968
3 911 971 908
3 972 970 969
3 972 912 970
3 911 973 971
3 914 973 911
3 974 912 972
3 974 915 912
3 914 975 973
3 917 975 914
3 976 915 974
3 976 977 915
3 917 978 975
3 919 978 917
3 979 977 976
3 979 980 977
3 919 981 978
3 922 981 919
3 982 980 979
3 982 983 980
3 922 984 981
3 925 984 922
3 985 983 982
3 985 986 983
3 925 987 984
3 927 987 925
3 988 986 985
3 988 989 986
3 927 990 987
3 929 990 927
3 988 991 989
3 989 991 930
3 992 930 991
3 931 930 992
3 993 931 992
3 932 931 993
3 994 932 993
3 933 932 994
3 995 933 994
3 934 933 995
3 996 934 995
3 935 934 996
3 997 935 996
3 936 935 997
3 998 936 997
3 937 936 998
3 999 937 998
3 938 937 999
3 1000 938 999
3 939 938 1000
3 1001 939 1000
3 940 939 1001
3 1002 940 1001
3 941 940 1002
3 1003 941 1002
3 942 941 1003
3 1004 942 1003
3 943 942 1004
3 1005 943 1004
3 944 943 1005
3 1006 944 1005
3 945 944 1006
3 1007 945 1006
3 946 945 1007
3 1008 946 1007
3 947 946 1008
3 929 947 990
3 990 947 1008
3 948 1009 1010
3 1009 948 1011
3 1011 948 951
3 1011 951 1012
3 1012 951 952
3 1012 952 1013
3 1013 952 953
3 1013 953 1014
3 1014 953 954
3 1014 954 1015
3 1015 954 955
3 1015 955 1016
3 1016 955 956
3 1017 956 1018
3 1018 956 957
3 1018 957 1019
3 1019 957 958
3 1019 958 1020
3 1020 958 959
3 1020 959 1021
3 1021 959 960
3 1021 960 1022
3 1022 960 961
3 1022 961 1023
3 1023 961 962
3 1023 962 1024
3 1024 962 963
3 1024 963 1025
3 1025 963 964
3 1025 964 1026
3 1026 964 965
3 1026 965 1027
3 1027 965 966
3 1028 966 1029
3 1029 966 967
3 967 968 1029
3 1010 1009 1030
3 1030 1009 1031
3 1011 1031 1009
3 1011 1032 1031
3 1012 1032 1011
3 1012 1033 1032
3 1013 1033 1012
3 1013 1034 1033
3 1014 1034 1013
3 1014 1035 1034
3 1015 1035 1014
3 1015 1036 1035
3 1016 1036 1015
3 1016 1037 1036
3 1018 1037 1017
3 1018 1038 1037
3 1019 1038 1018
3 1019 1039 1038
3 1020 1039 1019
3 1020 1040 1039
3 1021 1040 1020
3 1021 1041 1040
3 1022 1041 1021
3 1022 1042 1041
3 1023 1042 1022
3 1023 1043 1042
3 1024 1043 1023
3 1024 1044 1043
3 1025 1044 1024
3 1025 1045 1044
3 1026 1045 1025
3 1026 1046 1045
3 1027 1046 1026
3 1027 1047 1046
3 1029 1047 1028
3 1029 1048 1047
3 1029 968 1048
3 1048 968 971
3 1030 1031 972
3 972 1031 1049
3 1032 1049 1031
3 1032 1050 1049
3 1033 1051 1032
3 1033 1052 1051
3 1034 1052 1033
3 1034 1053 1052
3 1035 1053 1034
3 1035 1054 1053
3 1036 1055 1035
3 1036 1056 1055
3 1037 1056 1036
3 1037 1057 1056
3 1038 1057 1037
3 1038 1058 1057
3 1039 1058 1038
3 1039 1059 1058
3 1040 1059 1039
3 1040 1060 1059
3 1041 1060 1040
3 1041 1061 1060
3 1042 1061 1041
3 1042 1062 1061
3 1043 1062 1042
3 1043 1063 1062
3 1044 1063 1043
3 1044 1064 1063
3 1045 1064 1044
3 1045 1065 1064
3 1046 1065 1045
3 1046 1066 1065
3 1047 1066 1046
3 1047 1067 1066
3 1048 1067 1047
3 1048 1068 1067
3 1048 971 1068
3 1068 971 973
3 972 1049 974
3 974 1049 1069
3 1050 1069 1049
3 1050 1070 1069
3 1052 1070 1051
3 1052 1071 1070
3 1053 1071 1052
3 1053 1072 1071
3 1054 1072 1053
3 1054 1073 1072
3 1056 1073 1055
3 1056 1074 1073
3 1057 1074 1056
3 1057 1075 1074
3 1058 1075 1057
3 1058 1076 1075
3 1059 1076 1058
3 1059 1077 1076
3 1060 1077 1059
3 1060 1078 1077
3 1061 1078 1060
3 1061 1079 1078
3 1062 1079 1061
3 1062 1080 1079
3 1063 1080 1062
3 1063 1081 1080
3 1064 1081 1063
3 1064 1082 1081
3 1065 1082 1064
3 1065 1083 1082
3 1066 1083 1065
3 1066 1084 1083
3 1067 1084 1066
3 1067 1085 1084
3 1068 1085 1067
3 1068 1086 1085
3 1068 973 1086
3 1086 973 975
3 974 1069 976
3 976 1069 1087
3 1070 1087 1069
3 1070 1088 1087
3 1071 1088 1070
3 1071 1089 1088
3 1072 1089 1071
3 1072 1090 1089
3 1073 1090 1072
3 1073 1091 1090
3 1074 1092 1073
3 1074 1093 1092
3 1075 1093 1074
3 1075 1094 1093
3 1076 1095 1075
3 1076 1096 1095
3 1077 1096 1076
3 1077 1097 1096
3 1078 1098 1077
3 1078 1099 1098
3 1079 1099 1078
3 1079 1100 1099
3 1080 1100 1079
3 1080 1101 1100
3 1081 1101 1080
3 1081 1102 1101
3 1082 1102 1081
3 1082 1103 1102
3 1083 1103 1082
3 1083 1104 1103
3 1084 1104 1083
3 1084 1105 1104
3 1085 1105 1084
3 1085 1106 1105
3 1086 1106 1085
3 1086 1107 1106
3 1086 975 1107
3 1107 975 978
3 976 1087 1108
3 1108 1087 1109
3 1088 1109 1087
3 1088 1110 1109
3 1089 1110 1088
3 1089 1111 1110
3 1090 1111 1089
3 1090 1112 1111
3 1091 1112 1090
3 1091 1113 1112
3 1093 1113 1092
3 1093 1114 1113
3 1094 1115 1093
3 1094 1116 1115
3 1096 1116 1095
3 1096 1117 1116
3 1097 1117 1096
3 1097 1118 1117
3 1099 1118 1098
3 1099 1119 1118
3 1100 1119 1099
3 1100 1120 1119
3 1101 1121 1100
3 1101 1122 1121
3 1102 1122 1101
3 1102 1123 1122
3 1103 1123 1102
3 1103 1124 1123
3 1104 1124 1103
3 1104 1125 1124
3 1105 1125 1104
3 1105 1126 1125
3 1106 1126 1105
3 1106 1127 1126
3 1107 1127 1106
3 1107 1128 1127
3 1107 978 1128
3 1128 978 981
3 1108 1109 982
3 982 1109 1129
3 1110 1129 1109
3 1110 1130 1129
3 1111 1130 1110
3 1111 1131 1130
3 1112 1131 1111
3 1112 1132 1131
3 1113 1132 1112
3 1113 1133 1132
3 1114 1133 1113
3 1114 1134 1133
3 1116 1134 1115
3 1116 1135 1134
3 1117 1136 1116
3 1117 1137 1136
3 1118 1137 1117
3 1118 1138 1137
3 1119 1139 1118
3 1119 1140 1139
3 1120 1140 1119
3 1120 1141 1140
3 1122 1141 1121
3 1122 1142 1141
3 1123 1142 1122
3 1123 1143 1142
3 1124 1143 1123
3 1124 1144 1143
3 1125 1144 1124
3 1125 1145 1144
3 1126 1145 1125
3 1126 1146 1145
3 1127 1146 1126
3 1127 1147 1146
3 1128 1147 1127
3 1128 1148 1147
3 1128 981 1148
3 1148 981 984
3 982 1129 985
3 985 1129 1149
3 1130 1149 1129
3 1130 1150 1149
3 1131 1150 1130
3 1131 1151 1150
3 1132 1152 1131
3 1132 1153 1152
3 1133 1153 1132
3 1133 1154 1153
3 1134 1154 1133
3 1134 1155 1154
3 1135 1155 1134
3 1135 1156 1155
3 1137 1156 1136
3 1137 1157 1156
3 1138 1157 1137
3 1138 1158 1157
3 1140 1158 1139
3 1140 1159 1158
3 1141 1159 1140
3 1141 1160 1159
3 1142 1160 1141
3 1142 1161 1160
3 1143 1161 1142
3 1143 1162 1161
3 1144 1162 1143
3 1144 1163 1162
3 1145 1163 1144
3 1145 1164 1163
3 1146 1164 1145
3 1146 1165 1164
3 1147 1165 1146
3 1147 1166 1165
3 1148 1166 1147
3 1148 1167 1166
3 1148 984 1167
3 1167 984 987
3 985 1149 988
3 988 1149 1168
3 1150 1168 1149
3 1150 1169 1168
3 1151 1169 1150
3 1151 1170 1169
3 1153 1170 1152
3 1153 1171 1170
3 1154 1171 1153
3 1154 1172 1171
3 1155 1172 1154
3 1155 1173 1172
3 1156 1173 1155
3 1156 1174 1173
3 1157 1174 1156
3 1157 1175 1174
3 1158 1175 1157
3 1158 1176 1175
3 1159 1176 1158
3 1159 1177 1176
3 1160 1177 1159
3 1160 1178 1177
3 1161 1178 1160
3 1161 1179 1178
3 1162 1180 1161
3 1162 1181 1180
3 1163 1181 1162
3 1163 1182 1181
3 1164 1182 1163
3 1164 1183 1182
3 1165 1183 1164
3 1165 1184 1183
3 1166 1184 1165
3 1166 1185 1184
3 1167 1185 1166
3 1167 1186 1185
3 1167 987 1186
3 1186 987 990
3 1168 991 988
3 1169 992 1168
3 1168 992 991
3 1170 993 1169
3 1169 993 992
3 1171 994 1170
3 1170 994 993
3 1172 995 1171
3 1171 995 994
3 1173 996 1172
3 1172 996 995
3 1174 997 1173
3 1173 997 996
3 1175 998 1174
3 1174 998 997
3 1176 999 1175
3 1175 999 998
3 1177 1000 1176
3 1176 1000 999
3 1178 1001 1177
3 1177 1001 1000
3 1179 1002 1178
3 1178 1002 1001
3 1181 1003 1180
3 1180 1003 1002
3 1182 1004 1181
3 1181 1004 1003
3 1183 1005 1182
3 1182 1005 1004
3 1184 1006 1183
3 1183 1006 1005
3 1185 1007 1184
3 1184 1007 1006
3 1186 1008 1185
3 1185 1008 1007
3 990 1008 1186
