ply
format ascii 1.0
element vertex 1026
property float x
property float y
property float z
element face 2048
property list uchar int vertex_index
end_header
0.566987 1 1
1 1 0.566987
1 0.566987 1
2 0.566987 1
2 1 0.566987
3 0.566987 1
3 1 0.566987
4 0.566987 1
4 1 0.566987
5 0.566987 1
5 1 0.566987
6 0.566987 1
6 1 0.566987
7 0.566987 1
7 1 0.566987
8 0.566987 1
8 1 0.566987
9 0.566987 1
9 1 0.566987
10 0.566987 1
10 1 0.566987
11 0.566987 1
11 1 0.566987
12 0.566987 1
12 1 0.566987
13 0.566987 1
13 1 0.566987
14 0.566987 1
14 1 0.566987
15 0.566987 1
15 1 0.566987
16 0.566987 1
16 1 0.566987
17 0.566987 1
17 1 0.566987
18 0.566987 1
18 1 0.566987
18.433 1 1
0.566987 2 1
1 2 0.566987
2 2 0.566987
3 2 0.566987
4 2 0.566987
5 2 0.566987
6 2 0.566987
7 2 0.566987
8 2 0.566987
9 2 0.566987
10 2 0.566987
11 2 0.566987
12 2 0.566987
13 2 0.566987
14 2 0.566987
15 2 0.566987
16 2 0.566987
17 2 0.566987
18 2 0.566987
18.433 2 1
0.566987 3 1
1 3 0.566987
2 3 0.566987
3 3 0.566987
4 3 0.566987
5 3 0.566987
6 3 0.566987
7 3 0.566987
8 3 0.566987
9 3 0.566987
10 3 0.566987
11 3 0.566987
12 3 0.566987
13 3 0.566987
14 3 0.566987
15 3 0.566987
16 3 0.566987
17 3 0.566987
18 3 0.566987
18.433 3 1
0.566987 4 1
1 4 0.566987
2 4 0.566987
3 4 0.566987
4 4 0.566987
5 4 0.566987
6 4 0.566987
7 4 0.566987
8 4 0.566987
9 4 0.566987
10 4 0.566987
11 4 0.566987
12 4 0.566987
13 4 0.566987
14 4 0.566987
15 4 0.566987
16 4 0.566987
17 4 0.566987
18 4 0.566987
18.433 4 1
0.566987 5 1
1 5 0.566987
2 5 0.566987
3 5 0.566987
4 5 0.566987
5 5 0.566987
6 5 0.566987
7 5 0.566987
8 5 0.566987
9 5 0.566987
10 5 0.566987
11 5 0.566987
12 5 0.566987
13 5 0.566987
14 5 0.566987
15 5 0.566987
16 5 0.566987
17 5 0.566987
18 5 0.566987
18.433 5 1
0.566987 6 1
1 6 0.566987
2 6 0.566987
3 6 0.566987
4 6 0.566987
5 6 0.566987
6 6 0.566987
7 6 0.566987
8 6 0.566987
9 6 0.566987
10 6 0.566987
11 6 0.566987
12 6 0.566987
13 6 0.566987
14 6 0.566987
15 6 0.566987
16 6 0.566987
17 6 0.566987
18 6 0.566987
18.433 6 1
0.566987 7 1
1 7 0.566987
2 7 0.566987
3 7 0.566987
4 7 0.566987
5 7 0.566987
6 7 0.566987
7 7 0.566987
8 7 0.566987
9 7 0.566987
10 7 0.566987
11 7 0.566987
12 7 0.566987
13 7 0.566987
14 7 0.566987
15 7 0.566987
16 7 0.566987
17 7 0.566987
18 7 0.566987
18.433 7 1
0.566987 8 1
1 8 0.566987
2 8 0.566987
3 8 0.566987
4 8 0.566987
5 8 0.566987
6 8 0.566987
7 8 0.566987
8 8 0.566987
9 8 0.566987
10 8 0.566987
11 8 0.566987
12 8 0.566987
13 8 0.566987
14 8 0.566987
15 8 0.566987
16 8 0.566987
17 8 0.566987
18 8 0.566987
18.433 8 1
0.566987 9 1
1 9 0.566987
2 9 0.566987
3 9 0.566987
4 9 0.566987
5 9 0.566987
6 9 0.566987
7 9 0.566987
8 9 0.566987
9 9 0.566987
10 9 0.566987
11 9 0.566987
12 9 0.566987
13 9 0.566987
14 9 0.566987
15 9 0.566987
16 9 0.566987
17 9 0.566987
18 9 0.566987
18.433 9 1
1 9.43301 1
2 9.43301 1
3 9.43301 1
4 9.43301 1
5 9.43301 1
6 9.43301 1
7 9.43301 1
8 9.43301 1
9 9.43301 1
10 9.43301 1
11 9.43301 1
12 9.43301 1
13 9.43301 1
14 9.43301 1
15 9.43301 1
16 9.43301 1
17 9.43301 1
18 9.43301 1
1 0.566987 2
0.566987 1 2
2 0.566987 2
3 0.566987 2
4 0.566987 2
5 0.566987 2
6 0.566987 2
7 0.566987 2
8 0.566987 2
9 0.566987 2
10 0.566987 2
11 0.566987 2
12 0.566987 2
13 0.566987 2
14 0.566987 2
15 0.566987 2
16 0.566987 2
17 0.566987 2
18 0.566987 2
18.433 1 2
0.566987 2 2
18.433 2 2
0.566987 3 2
18.433 3 2
0.566987 4 2
18.433 4 2
0.566987 5 2
18.433 5 2
0.566987 6 2
18.433 6 2
0.566987 7 2
18.433 7 2
0.566987 8 2
18.433 8 2
0.566987 9 2
18.433 9 2
1 9.43301 2
2 9.43301 2
3 9.43301 2
4 9.43301 2
5 9.43301 2
6 9.43301 2
7 9.43301 2
8 9.43301 2
9 9.43301 2
10 9.43301 2
11 9.43301 2
12 9.43301 2
13 9.43301 2
14 9.43301 2
15 9.43301 2
16 9.43301 2
17 9.43301 2
18 9.43301 2
1 0.566987 3
0.566987 1 3
2 0.566987 3
3 0.566987 3
4 0.566987 3
5 0.566987 3
6 0.566987 3
7 0.566987 3
8 0.566987 3
9 0.566987 3
10 0.566987 3
11 0.566987 3
12 0.566987 3
13 0.566987 3
14 0.566987 3
15 0.566987 3
16 0.566987 3
17 0.566987 3
18 0.566987 3
18.433 1 3
0.566987 2 3
18.433 2 3
0.566987 3 3
18.433 3 3
0.566987 4 3
18.433 4 3
0.566987 5 3
18.433 5 3
0.566987 6 3
18.433 6 3
0.566987 7 3
18.433 7 3
0.566987 8 3
18.433 8 3
0.566987 9 3
18.433 9 3
1 9.43301 3
2 9.43301 3
3 9.43301 3
4 9.43301 3
5 9.43301 3
6 9.43301 3
7 9.43301 3
8 9.43301 3
9 9.43301 3
10 9.43301 3
11 9.43301 3
12 9.43301 3
13 9.43301 3
14 9.43301 3
15 9.43301 3
16 9.43301 3
17 9.43301 3
18 9.43301 3
1 0.566987 4
0.566987 1 4
2 0.566987 4
3 0.566987 4
4 0.566987 4
5 0.566987 4
6 0.566987 4
7 0.566987 4
8 0.566987 4
9 0.566987 4
10 0.566987 4
11 0.566987 4
12 0.566987 4
13 0.566987 4
14 0.566987 4
15 0.566987 4
16 0.566987 4
17 0.566987 4
18 0.566987 4
18.433 1 4
0.566987 2 4
18.433 2 4
0.566987 3 4
18.433 3 4
0.566987 4 4
18.433 4 4
0.566987 5 4
18.433 5 4
0.566987 6 4
18.433 6 4
0.566987 7 4
18.433 7 4
0.566987 8 4
18.433 8 4
0.566987 9 4
18.433 9 4
1 9.43301 4
2 9.43301 4
3 9.43301 4
4 9.43301 4
5 9.43301 4
6 9.43301 4
7 9.43301 4
8 9.43301 4
9 9.43301 4
10 9.43301 4
11 9.43301 4
12 9.43301 4
13 9.43301 4
14 9.43301 4
15 9.43301 4
16 9.43301 4
17 9.43301 4
18 9.43301 4
1 0.566987 5
0.566987 1 5
2 0.566987 5
3 0.566987 5
4 0.566987 5
5 0.566987 5
6 0.566987 5
7 0.566987 5
8 0.566987 5
9 0.566987 5
10 0.566987 5
11 0.566987 5
12 0.566987 5
13 0.566987 5
14 0.566987 5
15 0.566987 5
16 0.566987 5
17 0.566987 5
18 0.566987 5
18.433 1 5
0.566987 2 5
18.433 2 5
0.566987 3 5
18.433 3 5
0.566987 4 5
18.433 4 5
0.566987 5 5
18.433 5 5
0.566987 6 5
18.433 6 5
0.566987 7 5
18.433 7 5
0.566987 8 5
18.433 8 5
0.566987 9 5
18.433 9 5
1 9.43301 5
2 9.43301 5
3 9.43301 5
4 9.43301 5
5 9.43301 5
6 9.43301 5
7 9.43301 5
8 9.43301 5
9 9.43301 5
10 9.43301 5
11 9.43301 5
12 9.43301 5
13 9.43301 5
14 9.43301 5
15 9.43301 5
16 9.43301 5
17 9.43301 5
18 9.43301 5
1 0.566987 6
0.566987 1 6
2 0.566987 6
3 0.566987 6
4 0.566987 6
5 0.566987 6
6 0.566987 6
7 0.566987 6
8 0.566987 6
9 0.566987 6
10 0.566987 6
11 0.566987 6
12 0.566987 6
13 0.566987 6
14 0.566987 6
15 0.566987 6
16 0.566987 6
17 0.566987 6
18 0.566987 6
18.433 1 6
0.566987 2 6
18.433 2 6
0.566987 3 6
18.433 3 6
0.566987 4 6
18.433 4 6
0.566987 5 6
18.433 5 6
0.566987 6 6
18.433 6 6
0.566987 7 6
18.433 7 6
0.566987 8 6
18.433 8 6
0.566987 9 6
18.433 9 6
1 9.43301 6
2 9.43301 6
3 9.43301 6
4 9.43301 6
5 9.43301 6
6 9.43301 6
7 9.43301 6
8 9.43301 6
9 9.43301 6
10 9.43301 6
11 9.43301 6
12 9.43301 6
13 9.43301 6
14 9.43301 6
15 9.43301 6
16 9.43301 6
17 9.43301 6
18 9.43301 6
1 0.566987 7
0.566987 1 7
2 0.566987 7
3 0.566987 7
4 0.566987 7
5 0.566987 7
6 0.566987 7
7 0.566987 7
8 0.566987 7
9 0.566987 7
10 0.566987 7
11 0.566987 7
12 0.566987 7
13 0.566987 7
14 0.566987 7
15 0.566987 7
16 0.566987 7
17 0.566987 7
18 0.566987 7
18.433 1 7
0.566987 2 7
18.433 2 7
0.566987 3 7
18.433 3 7
0.566987 4 7
18.433 4 7
0.566987 5 7
18.433 5 7
0.566987 6 7
18.433 6 7
0.566987 7 7
18.433 7 7
0.566987 8 7
18.433 8 7
0.566987 9 7
18.433 9 7
1 9.43301 7
2 9.43301 7
3 9.43301 7
4 9.43301 7
5 9.43301 7
6 9.43301 7
7 9.43301 7
8 9.43301 7
9 9.43301 7
10 9.43301 7
11 9.43301 7
12 9.43301 7
13 9.43301 7
14 9.43301 7
15 9.43301 7
16 9.43301 7
17 9.43301 7
18 9.43301 7
1 0.566987 8
0.566987 1 8
2 0.566987 8
3 0.566987 8
4 0.566987 8
5 0.566987 8
6 0.566987 8
7 0.566987 8
8 0.566987 8
9 0.566987 8
10 0.566987 8
11 0.566987 8
12 0.566987 8
13 0.566987 8
14 0.566987 8
15 0.566987 8
16 0.566987 8
17 0.566987 8
18 0.566987 8
18.433 1 8
0.566987 2 8
18.433 2 8
0.566987 3 8
18.433 3 8
0.566987 4 8
18.433 4 8
0.566987 5 8
18.433 5 8
0.566987 6 8
18.433 6 8
0.566987 7 8
18.433 7 8
0.566987 8 8
18.433 8 8
0.566987 9 8
18.433 9 8
1 9.43301 8
2 9.43301 8
3 9.43301 8
4 9.43301 8
5 9.43301 8
6 9.43301 8
7 9.43301 8
8 9.43301 8
9 9.43301 8
10 9.43301 8
11 9.43301 8
12 9.43301 8
13 9.43301 8
14 9.43301 8
15 9.43301 8
16 9.43301 8
17 9.43301 8
18 9.43301 8
1 0.566987 9
0.566987 1 9
2 0.566987 9
3 0.566987 9
4 0.566987 9
5 0.566987 9
6 0.566987 9
7 0.566987 9
8 0.566987 9
9 0.566987 9
10 0.566987 9
11 0.566987 9
12 0.566987 9
13 0.566987 9
14 0.566987 9
15 0.566987 9
16 0.566987 9
17 0.566987 9
18 0.566987 9
18.433 1 9
0.566987 2 9
18.433 2 9
0.566987 3 9
18.433 3 9
0.566987 4 9
18.433 4 9
0.566987 5 9
18.433 5 9
0.566987 6 9
18.433 6 9
0.566987 7 9
18.433 7 9
0.566987 8 9
18.433 8 9
0.566987 9 9
18.433 9 9
1 9.43301 9
2 9.43301 9
3 9.43301 9
4 9.43301 9
5 9.43301 9
6 9.43301 9
7 9.43301 9
8 9.43301 9
9 9.43301 9
10 9.43301 9
11 9.43301 9
12 9.43301 9
13 9.43301 9
14 9.43301 9
15 9.43301 9
16 9.43301 9
17 9.43301 9
18 9.43301 9
1 0.566987 10
0.566987 1 10
2 0.566987 10
3 0.566987 10
4 0.566987 10
5 0.566987 10
6 0.566987 10
7 0.566987 10
8 0.566987 10
9 0.566987 10
10 0.566987 10
11 0.566987 10
12 0.566987 10
13 0.566987 10
14 0.566987 10
15 0.566987 10
16 0.566987 10
17 0.566987 10
18 0.566987 10
18.433 1 10
0.566987 2 10
18.433 2 10
0.566987 3 10
18.433 3 10
0.566987 4 10
18.433 4 10
0.566987 5 10
18.433 5 10
0.566987 6 10
18.433 6 10
0.566987 7 10
18.433 7 10
0.566987 8 10
18.433 8 10
0.566987 9 10
18.433 9 10
1 9.43301 10
2 9.43301 10
3 9.43301 10
4 9.43301 10
5 9.43301 10
6 9.43301 10
7 9.43301 10
8 9.43301 10
9 9.43301 10
10 9.43301 10
11 9.43301 10
12 9.43301 10
13 9.43301 10
14 9.43301 10
15 9.43301 10
16 9.43301 10
17 9.43301 10
18 9.43301 10
1 0.566987 11
0.566987 1 11
2 0.566987 11
3 0.566987 11
4 0.566987 11
5 0.566987 11
6 0.566987 11
7 0.566987 11
8 0.566987 11
9 0.566987 11
10 0.566987 11
11 0.566987 11
12 0.566987 11
13 0.566987 11
14 0.566987 11
15 0.566987 11
16 0.566987 11
17 0.566987 11
18 0.566987 11
18.433 1 11
0.566987 2 11
18.433 2 11
0.566987 3 11
18.433 3 11
0.566987 4 11
18.433 4 11
0.566987 5 11
18.433 5 11
0.566987 6 11
18.433 6 11
0.566987 7 11
18.433 7 11
0.566987 8 11
18.433 8 11
0.566987 9 11
18.433 9 11
1 9.43301 11
2 9.43301 11
3 9.43301 11
4 9.43301 11
5 9.43301 11
6 9.43301 11
7 9.43301 11
8 9.43301 11
9 9.43301 11
10 9.43301 11
11 9.43301 11
12 9.43301 11
13 9.43301 11
14 9.43301 11
15 9.43301 11
16 9.43301 11
17 9.43301 11
18 9.43301 11
1 0.566987 12
0.566987 1 12
2 0.566987 12
3 0.566987 12
4 0.566987 12
5 0.566987 12
6 0.566987 12
7 0.566987 12
8 0.566987 12
9 0.566987 12
10 0.566987 12
11 0.566987 12
12 0.566987 12
13 0.566987 12
14 0.566987 12
15 0.566987 12
16 0.566987 12
17 0.566987 12
18 0.566987 12
18.433 1 12
0.566987 2 12
18.433 2 12
0.566987 3 12
18.433 3 12
0.566987 4 12
18.433 4 12
0.566987 5 12
18.433 5 12
0.566987 6 12
18.433 6 12
0.566987 7 12
18.433 7 12
0.566987 8 12
18.433 8 12
0.566987 9 12
18.433 9 12
1 9.43301 12
2 9.43301 12
3 9.43301 12
4 9.43301 12
5 9.43301 12
6 9.43301 12
7 9.43301 12
8 9.43301 12
9 9.43301 12
10 9.43301 12
11 9.43301 12
12 9.43301 12
13 9.43301 12
14 9.43301 12
15 9.43301 12
16 9.43301 12
17 9.43301 12
18 9.43301 12
1 0.566987 13
0.566987 1 13
2 0.566987 13
3 0.566987 13
4 0.566987 13
5 0.566987 13
6 0.566987 13
7 0.566987 13
8 0.566987 13
9 0.566987 13
10 0.566987 13
11 0.566987 13
12 0.566987 13
13 0.566987 13
14 0.566987 13
15 0.566987 13
16 0.566987 13
17 0.566987 13
18 0.566987 13
18.433 1 13
0.566987 2 13
18.433 2 13
0.566987 3 13
18.433 3 13
0.566987 4 13
18.433 4 13
0.566987 5 13
18.433 5 13
0.566987 6 13
18.433 6 13
0.566987 7 13
18.433 7 13
0.566987 8 13
18.433 8 13
0.566987 9 13
18.433 9 13
1 9.43301 13
2 9.43301 13
3 9.43301 13
4 9.43301 13
5 9.43301 13
6 9.43301 13
7 9.43301 13
8 9.43301 13
9 9.43301 13
10 9.43301 13
11 9.43301 13
12 9.43301 13
13 9.43301 13
14 9.43301 13
15 9.43301 13
16 9.43301 13
17 9.43301 13
18 9.43301 13
1 1 13.433
2 1 13.433
3 1 13.433
4 1 13.433
5 1 13.433
6 1 13.433
7 1 13.433
8 1 13.433
9 1 13.433
10 1 13.433
11 1 13.433
12 1 13.433
13 1 13.433
14 1 13.433
15 1 13.433
16 1 13.433
17 1 13.433
18 1 13.433
1 2 13.433
2 2 13.433
3 2 13.433
4 2 13.433
5 2 13.433
6 2 13.433
7 2 13.433
8 2 13.433
9 2 13.433
10 2 13.433
11 2 13.433
12 2 13.433
13 2 13.433
14 2 13.433
15 2 13.433
16 2 13.433
17 2 13.433
18 2 13.433
1 3 13.433
2 3 13.433
3 3 13.433
4 3 13.433
5 3 13.433
6 3 13.433
7 3 13.433
8 3 13.433
9 3 13.433
10 3 13.433
11 3 13.433
12 3 13.433
13 3 13.433
14 3 13.433
15 3 13.433
16 3 13.433
17 3 13.433
18 3 13.433
1 4 13.433
2 4 13.433
3 4 13.433
4 4 13.433
5 4 13.433
6 4 13.433
7 4 13.433
8 4 13.433
9 4 13.433
10 4 13.433
11 4 13.433
12 4 13.433
13 4 13.433
14 4 13.433
15 4 13.433
16 4 13.433
17 4 13.433
18 4 13.433
1 5 13.433
2 5 13.433
3 5 13.433
4 5 13.433
5 5 13.433
6 5 13.433
7 5 13.433
8 5 13.433
9 5 13.433
10 5 13.433
11 5 13.433
12 5 13.433
13 5 13.433
14 5 13.433
15 5 13.433
16 5 13.433
17 5 13.433
18 5 13.433
1 6 13.433
2 6 13.433
3 6 13.433
4 6 13.433
5 6 13.433
6 6 13.433
7 6 13.433
8 6 13.433
9 6 13.433
10 6 13.433
11 6 13.433
12 6 13.433
13 6 13.433
14 6 13.433
15 6 13.433
16 6 13.433
17 6 13.433
18 6 13.433
1 7 13.433
2 7 13.433
3 7 13.433
4 7 13.433
5 7 13.433
6 7 13.433
7 7 13.433
8 7 13.433
9 7 13.433
10 7 13.433
11 7 13.433
12 7 13.433
13 7 13.433
14 7 13.433
15 7 13.433
16 7 13.433
17 7 13.433
18 7 13.433
1 8 13.433
2 8 13.433
3 8 13.433
4 8 13.433
5 8 13.433
6 8 13.433
7 8 13.433
8 8 13.433
9 8 13.433
10 8 13.433
11 8 13.433
12 8 13.433
13 8 13.433
14 8 13.433
15 8 13.433
16 8 13.433
17 8 13.433
18 8 13.433
1 9 13.433
2 9 13.433
3 9 13.433
4 9 13.433
5 9 13.433
6 9 13.433
7 9 13.433
8 9 13.433
9 9 13.433
10 9 13.433
11 9 13.433
12 9 13.433
13 9 13.433
14 9 13.433
15 9 13.433
16 9 13.433
17 9 13.433
18 9 13.433
3 0 1 2
3 2 1 3
3 3 1 4
3 3 4 5
3 5 4 6
3 5 6 7
3 7 6 8
3 7 8 9
3 9 8 10
3 9 10 11
3 11 10 12
3 11 12 13
3 13 12 14
3 13 14 15
3 15 14 16
3 15 16 17
3 17 16 18
3 17 18 19
3 19 18 20
3 19 20 21
3 21 20 22
3 21 22 23
3 23 22 24
3 23 24 25
3 25 24 26
3 25 26 27
3 27 26 28
3 27 28 29
3 29 28 30
3 29 30 31
3 31 30 32
3 31 32 33
3 33 32 34
3 33 34 35
3 35 34 36
3 36 37 35
3 38 39 0
3 0 39 1
3 39 4 1
3 40 4 39
3 40 6 4
3 41 6 40
3 41 8 6
3 42 8 41
3 42 10 8
3 43 10 42
3 43 12 10
3 44 12 43
3 44 14 12
3 45 14 44
3 45 16 14
3 46 16 45
3 46 18 16
3 47 18 46
3 47 20 18
3 48 20 47
3 48 22 20
3 49 22 48
3 49 24 22
3 50 24 49
3 50 26 24
3 51 26 50
3 51 28 26
3 52 28 51
3 52 30 28
3 53 30 52
3 53 32 30
3 54 32 53
3 54 34 32
3 55 34 54
3 55 36 34
3 56 36 55
3 56 57 36
3 36 57 37
3 58 59 38
3 38 59 39
3 59 40 39
3 60 40 59
3 60 41 40
3 61 41 60
3 61 42 41
3 62 42 61
3 62 43 42
3 63 43 62
3 63 44 43
3 64 44 63
3 64 45 44
3 65 45 64
3 65 46 45
3 66 46 65
3 66 47 46
3 67 47 66
3 67 48 47
3 68 48 67
3 68 49 48
3 69 49 68
3 69 50 49
3 70 50 69
3 70 51 50
3 71 51 70
3 71 52 51
3 72 52 71
3 72 53 52
3 73 53 72
3 73 54 53
3 74 54 73
3 74 55 54
3 75 55 74
3 75 56 55
3 76 56 75
3 76 77 56
3 56 77 57
3 78 79 58
3 58 79 59
3 79 60 59
3 80 60 79
3 80 61 60
3 81 61 80
3 81 62 61
3 82 62 81
3 82 63 62
3 83 63 82
3 83 64 63
3 84 64 83
3 84 65 64
3 85 65 84
3 85 66 65
3 86 66 85
3 86 67 66
3 87 67 86
3 87 68 67
3 88 68 87
3 88 69 68
3 89 69 88
3 89 70 69
3 90 70 89
3 90 71 70
3 91 71 90
3 91 72 71
3 92 72 91
3 92 73 72
3 93 73 92
3 93 74 73
3 94 74 93
3 94 75 74
3 95 75 94
3 95 76 75
3 96 76 95
3 96 97 76
3 76 97 77
3 98 99 78
3 78 99 79
3 99 80 79
3 100 80 99
3 100 81 80
3 101 81 100
3 101 82 81
3 102 82 101
3 102 83 82
3 103 83 102
3 103 84 83
3 104 84 103
3 104 85 84
3 105 85 104
3 105 86 85
3 106 86 105
3 106 87 86
3 107 87 106
3 107 88 87
3 108 88 107
3 108 89 88
3 109 89 108
3 109 90 89
3 110 90 109
3 110 91 90
3 111 91 110
3 111 92 91
3 112 92 111
3 112 93 92
3 113 93 112
3 113 94 93
3 114 94 113
3 114 95 94
3 115 95 114
3 115 96 95
3 116 96 115
3 116 117 96
3 96 117 97
3 118 119 98
3 98 119 99
3 119 100 99
3 120 100 119
3 120 101 100
3 121 101 120
3 121 102 101
3 122 102 121
3 122 103 102
3 123 103 122
3 123 104 103
3 124 104 123
3 124 105 104
3 125 105 124
3 125 106 105
3 126 106 125
3 126 107 106
3 127 107 126
3 127 108 107
3 128 108 127
3 128 109 108
3 129 109 128
3 129 110 109
3 130 110 129
3 130 111 110
3 131 111 130
3 131 112 111
3 132 112 131
3 132 113 112
3 133 113 132
3 133 114 113
3 134 114 133
3 134 115 114
3 135 115 134
3 135 116 115
3 136 116 135
3 136 137 116
3 116 137 117
3 138 139 118
3 118 139 119
3 139 120 119
3 140 120 139
3 140 121 120
3 141 121 140
3 141 122 121
3 142 122 141
3 142 123 122
3 143 123 142
3 143 124 123
3 144 124 143
3 144 125 124
3 145 125 144
3 145 126 125
3 146 126 145
3 146 127 126
3 147 127 146
3 147 128 127
3 148 128 147
3 148 129 128
3 149 129 148
3 149 130 129
3 150 130 149
3 150 131 130
3 151 131 150
3 151 132 131
3 152 132 151
3 152 133 132
3 153 133 152
3 153 134 133
3 154 134 153
3 154 135 134
3 155 135 154
3 155 136 135
3 156 136 155
3 156 157 136
3 136 157 137
3 158 159 138
3 138 159 139
3 159 140 139
3 160 140 159
3 160 141 140
3 161 141 160
3 161 142 141
3 162 142 161
3 162 143 142
3 163 143 162
3 163 144 143
3 164 144 163
3 164 145 144
3 165 145 164
3 165 146 145
3 166 146 165
3 166 147 146
3 167 147 166
3 167 148 147
3 168 148 167
3 168 149 148
3 169 149 168
3 169 150 149
3 170 150 169
3 170 151 150
3 171 151 170
3 171 152 151
3 172 152 171
3 172 153 152
3 173 153 172
3 173 154 153
3 174 154 173
3 174 155 154
3 175 155 174
3 175 156 155
3 176 156 175
3 176 177 156
3 156 177 157
3 178 179 158
3 158 179 159
3 179 160 159
3 180 160 179
3 180 161 160
3 181 161 180
3 181 162 161
3 182 162 181
3 182 163 162
3 183 163 182
3 183 164 163
3 184 164 183
3 184 165 164
3 185 165 184
3 185 166 165
3 186 166 185
3 186 167 166
3 187 167 186
3 187 168 167
3 188 168 187
3 188 169 168
3 189 169 188
3 189 170 169
3 190 170 189
3 190 171 170
3 191 171 190
3 191 172 171
3 192 172 191
3 192 173 172
3 193 173 192
3 193 174 173
3 194 174 193
3 194 175 174
3 195 175 194
3 195 176 175
3 196 176 195
3 196 197 176
3 176 197 177
3 198 179 178
3 199 180 198
3 198 180 179
3 200 181 199
3 199 181 180
3 201 182 200
3 200 182 181
3 202 183 201
3 201 183 182
3 203 184 202
3 202 184 183
3 204 185 203
3 203 185 184
3 205 186 204
3 204 186 185
3 206 187 205
3 205 187 186
3 207 188 206
3 206 188 187
3 208 189 207
3 207 189 188
3 209 190 208
3 208 190 189
3 210 191 209
3 209 191 190
3 211 192 210
3 210 192 191
3 212 193 211
3 211 193 192
3 213 194 212
3 212 194 193
3 214 195 213
3 213 195 194
3 215 196 214
3 214 196 195
3 215 197 196
3 216 217 2
3 2 217 0
3 2 218 216
3 2 3 218
3 3 219 218
3 3 5 219
3 5 220 219
3 5 7 220
3 7 221 220
3 7 9 221
3 9 222 221
3 9 11 222
3 11 223 222
3 11 13 223
3 13 224 223
3 13 15 224
3 15 225 224
3 15 17 225
3 17 226 225
3 17 19 226
3 19 227 226
3 19 21 227
3 21 228 227
3 21 23 228
3 23 229 228
3 23 25 229
3 25 230 229
3 25 27 230
3 27 231 230
3 27 29 231
3 29 232 231
3 29 31 232
3 31 233 232
3 31 33 233
3 33 234 233
3 33 35 234
3 35 37 234
3 234 37 235
3 236 0 217
3 236 38 0
3 37 237 235
3 57 237 37
3 238 38 236
3 238 58 38
3 57 239 237
3 77 239 57
3 240 58 238
3 240 78 58
3 77 241 239
3 97 241 77
3 242 78 240
3 242 98 78
3 97 243 241
3 117 243 97
3 244 98 242
3 244 118 98
3 117 245 243
3 137 245 117
3 246 118 244
3 246 138 118
3 137 247 245
3 157 247 137
3 248 138 246
3 248 158 138
3 157 249 247
3 177 249 157
3 250 158 248
3 250 178 158
3 177 251 249
3 197 251 177
3 250 252 178
3 178 252 198
3 253 198 252
3 199 198 253
3 254 199 253
3 200 199 254
3 255 200 254
3 201 200 255
3 256 201 255
3 202 201 256
3 257 202 256
3 203 202 257
3 258 203 257
3 204 203 258
3 259 204 258
3 205 204 259
3 260 205 259
3 206 205 260
3 261 206 260
3 207 206 261
3 262 207 261
3 208 207 262
3 263 208 262
3 209 208 263
3 264 209 263
3 210 209 264
3 265 210 264
3 211 210 265
3 266 211 265
3 212 211 266
3 267 212 266
3 213 212 267
3 268 213 267
3 214 213 268
3 269 214 268
3 215 214 269
3 197 215 251
3 251 215 269
3 270 271 216
3 216 271 217
3 216 272 270
3 216 218 272
3 218 273 272
3 218 219 273
3 219 274 273
3 219 220 274
3 220 275 274
3 220 221 275
3 221 276 275
3 221 222 276
3 222 277 276
3 222 223 277
3 223 278 277
3 223 224 278
3 224 279 278
3 224 225 279
3 225 280 279
3 225 226 280
3 226 281 280
3 226 227 281
3 227 282 281
3 227 228 282
3 228 283 282
3 228 229 283
3 229 284 283
3 229 230 284
3 230 285 284
3 230 231 285
3 231 286 285
3 231 232 286
3 232 287 286
3 232 233 287
3 233 288 287
3 233 234 288
3 234 235 288
3 288 235 289
3 290 217 271
3 290 236 217
3 235 291 289
3 237 291 235
3 292 236 290
3 292 238 236
3 237 293 291
3 239 293 237
3 294 238 292
3 294 240 238
3 239 295 293
3 241 295 239
3 296 240 294
3 296 242 240
3 241 297 295
3 243 297 241
3 298 242 296
3 298 244 242
3 243 299 297
3 245 299 243
3 300 244 298
3 300 246 244
3 245 301 299
3 247 301 245
3 302 246 300
3 302 248 246
3 247 303 301
3 249 303 247
3 304 248 302
3 304 250 248
3 249 305 303
3 251 305 249
3 304 306 250
3 250 306 252
3 307 252 306
3 253 252 307
3 308 253 307
3 254 253 308
3 309 254 308
3 255 254 309
3 310 255 309
3 256 255 310
3 311 256 310
3 257 256 311
3 312 257 311
3 258 257 312
3 313 258 312
3 259 258 313
3 314 259 313
3 260 259 314
3 315 260 314
3 261 260 315
3 316 261 315
3 262 261 316
3 317 262 316
3 263 262 317
3 318 263 317
3 264 263 318
3 319 264 318
3 265 264 319
3 320 265 319
3 266 265 320
3 321 266 320
3 267 266 321
3 322 267 321
3 268 267 322
3 323 268 322
3 269 268 323
3 251 269 305
3 305 269 323
3 324 325 270
3 270 325 271
3 270 326 324
3 270 272 326
3 272 327 326
3 272 273 327
3 273 328 327
3 273 274 328
3 274 329 328
3 274 275 329
3 275 330 329
3 275 276 330
3 276 331 330
3 276 277 331
3 277 332 331
3 277 278 332
3 278 333 332
3 278 279 333
3 279 334 333
3 279 280 334
3 280 335 334
3 280 281 335
3 281 336 335
3 281 282 336
3 282 337 336
3 282 283 337
3 283 338 337
3 283 284 338
3 284 339 338
3 284 285 339
3 285 340 339
3 285 286 340
3 286 341 340
3 286 287 341
3 287 342 341
3 287 288 342
3 288 289 342
3 342 289 343
3 344 271 325
3 344 290 271
3 289 345 343
3 291 345 289
3 346 290 344
3 346 292 290
3 291 347 345
3 293 347 291
3 348 292 346
3 348 294 292
3 293 349 347
3 295 349 293
3 350 294 348
3 350 296 294
3 295 351 349
3 297 351 295
3 352 296 350
3 352 298 296
3 297 353 351
3 299 353 297
3 354 298 352
3 354 300 298
3 299 355 353
3 301 355 299
3 356 300 354
3 356 302 300
3 301 357 355
3 303 357 301
3 358 302 356
3 358 304 302
3 303 359 357
3 305 359 303
3 358 360 304
3 304 360 306
3 361 306 360
3 307 306 361
3 362 307 361
3 308 307 362
3 363 308 362
3 309 308 363
3 364 309 363
3 310 309 364
3 365 310 364
3 311 310 365
3 366 311 365
3 312 311 366
3 367 312 366
3 313 312 367
3 368 313 367
3 314 313 368
3 369 314 368
3 315 314 369
3 370 315 369
3 316 315 370
3 371 316 370
3 317 316 371
3 372 317 371
3 318 317 372
3 373 318 372
3 319 318 373
3 374 319 373
3 320 319 374
3 375 320 374
3 321 320 375
3 376 321 375
3 322 321 376
3 377 322 376
3 323 322 377
3 305 323 359
3 359 323 377
3 378 379 324
3 324 379 325
3 324 380 378
3 324 326 380
3 326 381 380
3 326 327 381
3 327 382 381
3 327 328 382
3 328 383 382
3 328 329 383
3 329 384 383
3 329 330 384
3 330 385 384
3 330 331 385
3 331 386 385
3 331 332 386
3 332 387 386
3 332 333 387
3 333 388 387
3 333 334 388
3 334 389 388
3 334 335 389
3 335 390 389
3 335 336 390
3 336 391 390
3 336 337 391
3 337 392 391
3 337 338 392
3 338 393 392
3 338 339 393
3 339 394 393
3 339 340 394
3 340 395 394
3 340 341 395
3 341 396 395
3 341 342 396
3 342 343 396
3 396 343 397
3 398 325 379
3 398 344 325
3 343 399 397
3 345 399 343
3 400 344 398
3 400 346 344
3 345 401 399
3 347 401 345
3 402 346 400
3 402 348 346
3 347 403 401
3 349 403 347
3 404 348 402
3 404 350 348
3 349 405 403
3 351 405 349
3 406 350 404
3 406 352 350
3 351 407 405
3 353 407 351
3 408 352 406
3 408 354 352
3 353 409 407
3 355 409 353
3 410 354 408
3 410 356 354
3 355 411 409
3 357 411 355
3 412 356 410
3 412 358 356
3 357 413 411
3 359 413 357
3 412 414 358
3 358 414 360
3 415 360 414
3 361 360 415
3 416 361 415
3 362 361 416
3 417 362 416
3 363 362 417
3 418 363 417
3 364 363 418
3 419 364 418
3 365 364 419
3 420 365 419
3 366 365 420
3 421 366 420
3 367 366 421
3 422 367 421
3 368 367 422
3 423 368 422
3 369 368 423
3 424 369 423
3 370 369 424
3 425 370 424
3 371 370 425
3 426 371 425
3 372 371 426
3 427 372 426
3 373 372 427
3 428 373 427
3 374 373 428
3 429 374 428
3 375 374 429
3 430 375 429
3 376 375 430
3 431 376 430
3 377 376 431
3 359 377 413
3 413 377 431
3 432 433 378
3 378 433 379
3 378 434 432
3 378 380 434
3 380 435 434
3 380 381 435
3 381 436 435
3 381 382 436
3 382 437 436
3 382 383 437
3 383 438 437
3 383 384 438
3 384 439 438
3 384 385 439
3 385 440 439
3 385 386 440
3 386 441 440
3 386 387 441
3 387 442 441
3 387 388 442
3 388 443 442
3 388 389 443
3 389 444 443
3 389 390 444
3 390 445 444
3 390 391 445
3 391 446 445
3 391 392 446
3 392 447 446
3 392 393 447
3 393 448 447
3 393 394 448
3 394 449 448
3 394 395 449
3 395 450 449
3 395 396 450
3 396 397 450
3 450 397 451
3 452 379 433
3 452 398 379
3 397 453 451
3 399 453 397
3 454 398 452
3 454 400 398
3 399 455 453
3 401 455 399
3 456 400 454
3 456 402 400
3 401 457 455
3 403 457 401
3 458 402 456
3 458 404 402
3 403 459 457
3 405 459 403
3 460 404 458
3 460 406 404
3 405 461 459
3 407 461 405
3 462 406 460
3 462 408 406
3 407 463 461
3 409 463 407
3 464 408 462
3 464 410 408
3 409 465 463
3 411 465 409
3 466 410 464
3 466 412 410
3 411 467 465
3 413 467 411
3 466 468 412
3 412 468 414
3 469 414 468
3 415 414 469
3 470 415 469
3 416 415 470
3 471 416 470
3 417 416 471
3 472 417 471
3 418 417 472
3 473 418 472
3 419 418 473
3 474 419 473
3 420 419 474
3 475 420 474
3 421 420 475
3 476 421 475
3 422 421 476
3 477 422 476
3 423 422 477
3 478 423 477
3 424 423 478
3 479 424 478
3 425 424 479
3 480 425 479
3 426 425 480
3 481 426 480
3 427 426 481
3 482 427 481
3 428 427 482
3 483 428 482
3 429 428 483
3 484 429 483
3 430 429 484
3 485 430 484
3 431 430 485
3 413 431 467
3 467 431 485
3 486 487 432
3 432 487 433
3 432 488 486
3 432 434 488
3 434 489 488
3 434 435 489
3 435 490 489
3 435 436 490
3 436 491 490
3 436 437 491
3 437 492 491
3 437 438 492
3 438 493 492
3 438 439 493
3 439 494 493
3 439 440 494
3 440 495 494
3 440 441 495
3 441 496 495
3 441 442 496
3 442 497 496
3 442 443 497
3 443 498 497
3 443 444 498
3 444 499 498
3 444 445 499
3 445 500 499
3 445 446 500
3 446 501 500
3 446 447 501
3 447 502 501
3 447 448 502
3 448 503 502
3 448 449 503
3 449 504 503
3 449 450 504
3 450 451 504
3 504 451 505
3 506 433 487
3 506 452 433
3 451 507 505
3 453 507 451
3 508 452 506
3 508 454 452
3 453 509 507
3 455 509 453
3 510 454 508
3 510 456 454
3 455 511 509
3 457 511 455
3 512 456 510
3 512 458 456
3 457 513 511
3 459 513 457
3 514 458 512
3 514 460 458
3 459 515 513
3 461 515 459
3 516 460 514
3 516 462 460
3 461 517 515
3 463 517 461
3 518 462 516
3 518 464 462
3 463 519 517
3 465 519 463
3 520 464 518
3 520 466 464
3 465 521 519
3 467 521 465
3 520 522 466
3 466 522 468
3 523 468 522
3 469 468 523
3 524 469 523
3 470 469 524
3 525 470 524
3 471 470 525
3 526 471 525
3 472 471 526
3 527 472 526
3 473 472 527
3 528 473 527
3 474 473 528
3 529 474 528
3 475 474 529
3 530 475 529
3 476 475 530
3 531 476 530
3 477 476 531
3 532 477 531
3 478 477 532
3 533 478 532
3 479 478 533
3 534 479 533
3 480 479 534
3 535 480 534
3 481 480 535
3 536 481 535
3 482 481 536
3 537 482 536
3 483 482 537
3 538 483 537
3 484 483 538
3 539 484 538
3 485 484 539
3 467 485 521
3 521 485 539
3 540 541 486
3 486 541 487
3 486 542 540
3 486 488 542
3 488 543 542
3 488 489 543
3 489 544 543
3 489 490 544
3 490 545 544
3 490 491 545
3 491 546 545
3 491 492 546
3 492 547 546
3 492 493 547
3 493 548 547
3 493 494 548
3 494 549 548
3 494 495 549
3 495 550 549
3 495 496 550
3 496 551 550
3 496 497 551
3 497 552 551
3 497 498 552
3 498 553 552
3 498 499 553
3 499 554 553
3 499 500 554
3 500 555 554
3 500 501 555
3 501 556 555
3 501 502 556
3 502 557 556
3 502 503 557
3 503 558 557
3 503 504 558
3 504 505 558
3 558 505 559
3 560 487 541
3 560 506 487
3 505 561 559
3 507 561 505
3 562 506 560
3 562 508 506
3 507 563 561
3 509 563 507
3 564 508 562
3 564 510 508
3 509 565 563
3 511 565 509
3 566 510 564
3 566 512 510
3 511 567 565
3 513 567 511
3 568 512 566
3 568 514 512
3 513 569 567
3 515 569 513
3 570 514 568
3 570 516 514
3 515 571 569
3 517 571 515
3 572 516 570
3 572 518 516
3 517 573 571
3 519 573 517
3 574 518 572
3 574 520 518
3 519 575 573
3 521 575 519
3 574 576 520
3 520 576 522
3 577 522 576
3 523 522 577
3 578 523 577
3 524 523 578
3 579 524 578
3 525 524 579
3 580 525 579
3 526 525 580
3 581 526 580
3 527 526 581
3 582 527 581
3 528 527 582
3 583 528 582
3 529 528 583
3 584 529 583
3 530 529 584
3 585 530 584
3 531 530 585
3 586 531 585
3 532 531 586
3 587 532 586
3 533 532 587
3 588 533 587
3 534 533 588
3 589 534 588
3 535 534 589
3 590 535 589
3 536 535 590
3 591 536 590
3 537 536 591
3 592 537 591
3 538 537 592
3 593 538 592
3 539 538 593
3 521 539 575
3 575 539 593
3 594 595 540
3 540 595 541
3 540 596 594
3 540 542 596
3 542 597 596
3 542 543 597
3 543 598 597
3 543 544 598
3 544 599 598
3 544 545 599
3 545 600 599
3 545 546 600
3 546 601 600
3 546 547 601
3 547 602 601
3 547 548 602
3 548 603 602
3 548 549 603
3 549 604 603
3 549 550 604
3 550 605 604
3 550 551 605
3 551 606 605
3 551 552 606
3 552 607 606
3 552 553 607
3 553 608 607
3 553 554 608
3 554 609 608
3 554 555 609
3 555 610 609
3 555 556 610
3 556 611 610
3 556 557 611
3 557 612 611
3 557 558 612
3 558 559 612
3 612 559 613
3 614 541 595
3 614 560 541
3 559 615 613
3 561 615 559
3 616 560 614
3 616 562 560
3 561 617 615
3 563 617 561
3 618 562 616
3 618 564 562
3 563 619 617
3 565 619 563
3 620 564 618
3 620 566 564
3 565 621 619
3 567 621 565
3 622 566 620
3 622 568 566
3 567 623 621
3 569 623 567
3 624 568 622
3 624 570 568
3 569 625 623
3 571 625 569
3 626 570 624
3 626 572 570
3 571 627 625
3 573 627 571
3 628 572 626
3 628 574 572
3 573 629 627
3 575 629 573
3 628 630 574
3 574 630 576
3 631 576 630
3 577 576 631
3 632 577 631
3 578 577 632
3 633 578 632
3 579 578 633
3 634 579 633
3 580 579 634
3 635 580 634
3 581 580 635
3 636 581 635
3 582 581 636
3 637 582 636
3 583 582 637
3 638 583 637
3 584 583 638
3 639 584 638
3 585 584 639
3 640 585 639
3 586 585 640
3 641 586 640
3 587 586 641
3 642 587 641
3 588 587 642
3 643 588 642
3 589 588 643
3 644 589 643
3 590 589 644
3 645 590 644
3 591 590 645
3 646 591 645
3 592 591 646
3 647 592 646
3 593 592 647
3 575 593 629
3 629 593 647
3 648 649 594
3 594 649 595
3 594 650 648
3 594 596 650
3 596 651 650
3 596 597 651
3 597 652 651
3 597 598 652
3 598 653 652
3 598 599 653
3 599 654 653
3 599 600 654
3 600 655 654
3 600 601 655
3 601 656 655
3 601 602 656
3 602 657 656
3 602 603 657
3 603 658 657
3 603 604 658
3 604 659 658
3 604 605 659
3 605 660 659
3 605 606 660
3 606 661 660
3 606 607 661
3 607 662 661
3 607 608 662
3 608 663 662
3 608 609 663
3 609 664 663
3 609 610 664
3 610 665 664
3 610 611 665
3 611 666 665
3 611 612 666
3 612 613 666
3 666 613 667
3 668 595 649
3 668 614 595
3 613 669 667
3 615 669 613
3 670 614 668
3 670 616 614
3 615 671 669
3 617 671 615
3 672 616 670
3 672 618 616
3 617 673 671
3 619 673 617
3 674 618 672
3 674 620 618
3 619 675 673
3 621 675 619
3 676 620 674
3 676 622 620
3 621 677 675
3 623 677 621
3 678 622 676
3 678 624 622
3 623 679 677
3 625 679 623
3 680 624 678
3 680 626 624
3 625 681 679
3 627 681 625
3 682 626 680
3 682 628 626
3 627 683 681
3 629 683 627
3 682 684 628
3 628 684 630
3 685 630 684
3 631 630 685
3 686 631 685
3 632 631 686
3 687 632 686
3 633 632 687
3 688 633 687
3 634 633 688
3 689 634 688
3 635 634 689
3 690 635 689
3 636 635 690
3 691 636 690
3 637 636 691
3 692 637 691
3 638 637 692
3 693 638 692
3 639 638 693
3 694 639 693
3 640 639 694
3 695 640 694
3 641 640 695
3 696 641 695
3 642 641 696
3 697 642 696
3 643 642 697
3 698 643 697
3 644 643 698
3 699 644 698
3 645 644 699
3 700 645 699
3 646 645 700
3 701 646 700
3 647 646 701
3 629 647 683
3 683 647 701
3 702 703 648
3 648 703 649
3 648 704 702
3 648 650 704
3 650 705 704
3 650 651 705
3 651 706 705
3 651 652 706
3 652 707 706
3 652 653 707
3 653 708 707
3 653 654 708
3 654 709 708
3 654 655 709
3 655 710 709
3 655 656 710
3 656 711 710
3 656 657 711
3 657 712 711
3 657 658 712
3 658 713 712
3 658 659 713
3 659 714 713
3 659 660 714
3 660 715 714
3 660 661 715
3 661 716 715
3 661 662 716
3 662 717 716
3 662 663 717
3 663 718 717
3 663 664 718
3 664 719 718
3 664 665 719
3 665 720 719
3 665 666 720
3 666 667 720
3 720 667 721
3 722 649 703
3 722 668 649
3 667 723 721
3 669 723 667
3 724 668 722
3 724 670 668
3 669 725 723
3 671 725 669
3 726 670 724
3 726 672 670
3 671 727 725
3 673 727 671
3 728 672 726
3 728 674 672
3 673 729 727
3 675 729 673
3 730 674 728
3 730 676 674
3 675 731 729
3 677 731 675
3 732 676 730
3 732 678 676
3 677 733 731
3 679 733 677
3 734 678 732
3 734 680 678
3 679 735 733
3 681 735 679
3 736 680 734
3 736 682 680
3 681 737 735
3 683 737 681
3 736 738 682
3 682 738 684
3 739 684 738
3 685 684 739
3 740 685 739
3 686 685 740
3 741 686 740
3 687 686 741
3 742 687 741
3 688 687 742
3 743 688 742
3 689 688 743
3 744 689 743
3 690 689 744
3 745 690 744
3 691 690 745
3 746 691 745
3 692 691 746
3 747 692 746
3 693 692 747
3 748 693 747
3 694 693 748
3 749 694 748
3 695 694 749
3 750 695 749
3 696 695 750
3 751 696 750
3 697 696 751
3 752 697 751
3 698 697 752
3 753 698 752
3 699 698 753
3 754 699 753
3 700 699 754
3 755 700 754
3 701 700 755
3 683 701 737
3 737 701 755
3 756 757 702
3 702 757 703
3 702 758 756
3 702 704 758
3 704 759 758
3 704 705 759
3 705 760 759
3 705 706 760
3 706 761 760
3 706 707 761
3 707 762 761
3 707 708 762
3 708 763 762
3 708 709 763
3 709 764 763
3 709 710 764
3 710 765 764
3 710 711 765
3 711 766 765
3 711 712 766
3 712 767 766
3 712 713 767
3 713 768 767
3 713 714 768
3 714 769 768
3 714 715 769
3 715 770 769
3 715 716 770
3 716 771 770
3 716 717 771
3 717 772 771
3 717 718 772
3 718 773 772
3 718 719 773
3 719 774 773
3 719 720 774
3 720 721 774
3 774 721 775
3 776 703 757
3 776 722 703
3 721 777 775
3 723 777 721
3 778 722 776
3 778 724 722
3 723 779 777
3 725 779 723
3 780 724 778
3 780 726 724
3 725 781 779
3 727 781 725
3 782 726 780
3 782 728 726
3 727 783 781
3 729 783 727
3 784 728 782
3 784 730 728
3 729 785 783
3 731 785 729
3 786 730 784
3 786 732 730
3 731 787 785
3 733 787 731
3 788 732 786
3 788 734 732
3 733 789 787
3 735 789 733
3 790 734 788
3 790 736 734
3 735 791 789
3 737 791 735
3 790 792 736
3 736 792 738
3 793 738 792
3 739 738 793
3 794 739 793
3 740 739 794
3 795 740 794
3 741 740 795
3 796 741 795
3 742 741 796
3 797 742 796
3 743 742 797
3 798 743 797
3 744 743 798
3 799 744 798
3 745 744 799
3 800 745 799
3 746 745 800
3 801 746 800
3 747 746 801
3 802 747 801
3 748 747 802
3 803 748 802
3 749 748 803
3 804 749 803
3 750 749 804
3 805 750 804
3 751 750 805
3 806 751 805
3 752 751 806
3 807 752 806
3 753 752 807
3 808 753 807
3 754 753 808
3 809 754 808
3 755 754 809
3 737 755 791
3 791 755 809
3 810 811 756
3 756 811 757
3 756 812 810
3 756 758 812
3 758 813 812
3 758 759 813
3 759 814 813
3 759 760 814
3 760 815 814
3 760 761 815
3 761 816 815
3 761 762 816
3 762 817 816
3 762 763 817
3 763 818 817
3 763 764 818
3 764 819 818
3 764 765 819
3 765 820 819
3 765 766 820
3 766 821 820
3 766 767 821
3 767 822 821
3 767 768 822
3 768 823 822
3 768 769 823
3 769 824 823
3 769 770 824
3 770 825 824
3 770 771 825
3 771 826 825
3 771 772 826
3 772 827 826
3 772 773 827
3 773 828 827
3 773 774 828
3 774 775 828
3 828 775 829
3 830 757 811
3 830 776 757
3 775 831 829
3 777 831 775
3 832 776 830
3 832 778 776
3 777 833 831
3 779 833 777
3 834 778 832
3 834 780 778
3 779 835 833
3 781 835 779
3 836 780 834
3 836 782 780
3 781 837 835
3 783 837 781
3 838 782 836
3 838 784 782
3 783 839 837
3 785 839 783
3 840 784 838
3 840 786 784
3 785 841 839
3 787 841 785
3 842 786 840
3 842 788 786
3 787 843 841
3 789 843 787
3 844 788 842
3 844 790 788
3 789 845 843
3 791 845 789
3 844 846 790
3 790 846 792
3 847 792 846
3 793 792 847
3 848 793 847
3 794 793 848
3 849 794 848
3 795 794 849
3 850 795 849
3 796 795 850
3 851 796 850
3 797 796 851
3 852 797 851
3 798 797 852
3 853 798 852
3 799 798 853
3 854 799 853
3 800 799 854
3 855 800 854
3 801 800 855
3 856 801 855
3 802 801 856
3 857 802 856
3 803 802 857
3 858 803 857
3 804 803 858
3 859 804 858
3 805 804 859
3 860 805 859
3 806 805 860
3 861 806 860
3 807 806 861
3 862 807 861
3 808 807 862
3 863 808 862
3 809 808 863
3 791 809 845
3 845 809 863
3 810 864 811
3 864 810 865
3 865 810 812
3 865 812 866
3 866 812 813
3 866 813 867
3 867 813 814
3 867 814 868
3 868 814 815
3 868 815 869
3 869 815 816
3 869 816 870
3 870 816 817
3 870 817 871
3 871 817 818
3 871 818 872
3 872 818 819
3 872 819 873
3 873 819 820
3 873 820 874
3 874 820 821
3 874 821 875
3 875 821 822
3 875 822 876
3 876 822 823
3 876 823 877
3 877 823 824
3 877 824 878
3 878 824 825
3 878 825 879
3 879 825 826
3 879 826 880
3 880 826 827
3 880 827 881
3 881 827 828
3 828 829 881
3 811 864 830
3 830 864 882
3 865 882 864
3 865 883 882
3 866 883 865
3 866 884 883
3 867 884 866
3 867 885 884
3 868 885 867
3 868 886 885
3 869 886 868
3 869 887 886
3 870 887 869
3 870 888 887
3 871 888 870
3 871 889 888
3 872 889 871
3 872 890 889
3 873 890 872
3 873 891 890
3 874 891 873
3 874 892 891
3 875 892 874
3 875 893 892
3 876 893 875
3 876 894 893
3 877 894 876
3 877 895 894
3 878 895 877
3 878 896 895
3 879 896 878
3 879 897 896
3 880 897 879
3 880 898 897
3 881 898 880
3 881 899 898
3 881 829 899
3 899 829 831
3 830 882 832
3 832 882 900
3 883 900 882
3 883 901 900
3 884 901 883
3 884 902 901
3 885 902 884
3 885 903 902
3 886 903 885
3 886 904 903
3 887 904 886
3 887 905 904
3 888 905 887
3 888 906 905
3 889 906 888
3 889 907 906
3 890 907 889
3 890 908 907
3 891 908 890
3 891 909 908
3 892 909 891
3 892 910 909
3 893 910 892
3 893 911 910
3 894 911 893
3 894 912 911
3 895 912 894
3 895 913 912
3 896 913 895
3 896 914 913
3 897 914 896
3 897 915 914
3 898 915 897
3 898 916 915
3 899 916 898
3 899 917 916
3 899 831 917
3 917 831 833
3 832 900 834
3 834 900 918
3 901 918 900
3 901 919 918
3 902 919 901
3 902 920 919
3 903 920 902
3 903 921 920
3 904 921 903
3 904 922 921
3 905 922 904
3 905 923 922
3 906 923 905
3 906 924 923
3 907 924 906
3 907 925 924
3 908 925 907
3 908 926 925
3 909 926 908
3 909 927 926
3 910 927 909
3 910 928 927
3 911 928 910
3 911 929 928
3 912 929 911
3 912 930 929
3 913 930 912
3 913 931 930
3 914 931 913
3 914 932 931
3 915 932 914
3 915 933 932
3 916 933 915
3 916 934 933
3 917 934 916
3 917 935 934
3 917 833 935
3 935 833 835
3 834 918 836
3 836 918 936
3 919 936 918
3 919 937 936
3 920 937 919
3 920 938 937
3 921 938 920
3 921 939 938
3 922 939 921
3 922 940 939
3 923 940 922
3 923 941 940
3 924 941 923
3 924 942 941
3 925 942 924
3 925 943 942
3 926 943 925
3 926 944 943
3 927 944 926
3 927 945 944
3 928 945 927
3 928 946 945
3 929 946 928
3 929 947 946
3 930 947 929
3 930 948 947
3 931 948 930
3 931 949 948
3 932 949 931
3 932 950 949
3 933 950 932
3 933 951 950
3 934 951 933
3 934 952 951
3 935 952 934
3 935 953 952
3 935 835 953
3 953 835 837
3 836 936 838
3 838 936 954
3 937 954 936
3 937 955 954
3 938 955 937
3 938 956 955
3 939 956 938
3 939 957 956
3 940 957 939
3 940 958 957
3 941 958 940
3 941 959 958
3 942 959 941
3 942 960 959
3 943 960 942
3 943 961 960
3 944 961 943
3 944 962 961
3 945 962 944
3 945 963 962
3 946 963 945
3 946 964 963
3 947 964 946
3 947 965 964
3 948 965 947
3 948 966 965
3 949 966 948
3 949 967 966
3 950 967 949
3 950 968 967
3 951 968 950
3 951 969 968
3 952 969 951
3 952 970 969
3 953 970 952
3 953 971 970
3 953 837 971
3 971 837 839
3 838 954 840
3 840 954 972
3 955 972 954
3 955 973 972
3 956 973 955
3 956 974 973
3 957 974 956
3 957 975 974
3 958 975 957
3 958 976 975
3 959 976 958
3 959 977 976
3 960 977 959
3 960 978 977
3 961 978 960
3 961 979 978
3 962 979 961
3 962 980 979
3 963 980 962
3 963 981 980
3 964 981 963
3 964 982 981
3 965 982 964
3 965 983 982
3 966 983 965
3 966 984 983
3 967 984 966
3 967 985 984
3 968 985 967
3 968 986 985
3 969 986 968
3 969 987 986
3 970 987 969
3 970 988 987
3 971 988 970
3 971 989 988
3 971 839 989
3 989 839 841
3 840 972 842
3 842 972 990
3 973 990 972
3 973 991 990
3 974 991 973
3 974 992 991
3 975 992 974
3 975 993 992
3 976 993 975
3 976 994 993
3 977 994 976
3 977 995 994
3 978 995 977
3 978 996 995
3 979 996 978
3 979 997 996
3 980 997 979
3 980 998 997
3 981 998 980
3 981 999 998
3 982 999 981
3 982 1000 999
3 983 1000 982
3 983 1001 1000
3 984 1001 983
3 984 1002 1001
3 985 1002 984
3 985 1003 1002
3 986 1003 985
3 986 1004 1003
3 987 1004 986
3 987 1005 1004
3 988 1005 987
3 988 1006 1005
3 989 1006 988
3 989 1007 1006
3 989 841 1007
3 1007 841 843
3 842 990 844
3 844 990 1008
3 991 1008 990
3 991 1009 1008
3 992 1009 991
3 992 1010 1009
3 993 1010 992
3 993 1011 1010
3 994 1011 993
3 994 1012 1011
3 995 1012 994
3 995 1013 1012
3 996 1013 995
3 996 1014 1013
3 997 1014 996
3 997 1015 1014
3 998 1015 997
3 998 1016 1015
3 999 1016 998
3 999 1017 1016
3 1000 1017 999
3 1000 1018 1017
3 1001 1018 1000
3 1001 1019 1018
3 1002 1019 1001
3 1002 1020 1019
3 1003 1020 1002
3 1003 1021 1020
3 1004 1021 1003
3 1004 1022 1021
3 1005 1022 1004
3 1005 1023 1022
3 1006 1023 1005
3 1006 1024 1023
3 1007 1024 1006
3 1007 1025 1024
3 1007 843 1025
3 1025 843 845
3 1008 846 844
3 1009 847 1008
3 1008 847 846
3 1010 848 1009
3 1009 848 847
3 1011 849 1010
3 1010 849 848
3 1012 850 1011
3 1011 850 849
3 1013 851 1012
3 1012 851 850
3 1014 852 1013
3 1013 852 851
3 1015 853 1014
3 1014 853 852
3 1016 854 1015
3 1015 854 853
3 1017 855 1016
3 1016 855 854
3 1018 856 1017
3 1017 856 855
3 1019 857 1018
3 1018 857 856
3 1020 858 1019
3 1019 858 857
3 1021 859 1020
3 1020 859 858
3 1022 860 1021
3 1021 860 859
3 1023 861 1022
3 1022 861 860
3 1024 862 1023
3 1023 862 861
3 1025 863 1024
3 1024 863 862
3 845 863 1025
