ply
format ascii 1.0
element vertex 1314
property float x
property float y
property float z
element face 2212
property list uchar int vertex_index
end_header
0.563273 1 1
1 1 0.563273
1 0.56439 1
2 0.564335 1
2 1 0.563217
2 1 0.563217
3 0.564283 1
3 1 0.563165
4 0.564237 1
4 1 0.563119
4 1 0.563119
5 0.564201 1
5 1 0.563082
5 1 0.563082
6 0.564176 1
6 1 0.563055
7 0.56416 1
7 1 0.563039
7 1 0.563039
8 0.564155 1
8 1 0.563032
9 0.564157 1
9 1 0.563034
10 0.564166 1
10 1 0.563042
10 1 0.563042
11 0.56418 1
11 1 0.563056
12 0.564198 1
12 1 0.563073
12 1 0.563073
13 0.564218 1
13 1 0.563094
13 1 0.563094
14 0.564241 1
14 1 0.563116
14 1 0.563116
15 0.564266 1
15 1 0.563141
15 1 0.563141
16 0.564292 1
16 1 0.563167
16 1 0.563167
17 0.564322 1
17 1 0.563196
18 0.564337 1
18 1 0.563212
18 1 0.563212
18.4368 1 1
0.491917 2 1
1 2 0.491917
2 2 0.491858
2 2 0.491858
3 2 0.491791
3 2 0.491791
4 2 0.491723
4 2 0.491723
5 2 0.491661
6 2 0.491606
6 2 0.491606
7 2 0.491563
8 2 0.491531
8 2 0.491531
9 2 0.491509
9 2 0.491509
10 2 0.491498
10 2 0.491498
11 2 0.491494
11 2 0.491494
12 2 0.491497
12 2 0.491497
13 2 0.491504
13 2 0.491504
14 2 0.491516
14 2 0.491516
15 2 0.491532
15 2 0.491532
16 2 0.49155
17 2 0.491573
17 2 0.491573
18 2 0.491585
18 2 0.491585
18.5084 2 1
0.410804 3 1
1 3 0.410804
1 3 0.410804
2 3 0.410733
3 3 0.410639
3 3 0.410639
4 3 0.410537
4 3 0.410537
5 3 0.410436
6 3 0.410344
6 3 0.410344
7 3 0.410265
8 3 0.410202
8 3 0.410202
9 3 0.410155
9 3 0.410155
10 3 0.410123
11 3 0.410101
11 3 0.410101
12 3 0.41009
12 3 0.41009
13 3 0.410086
14 3 0.410088
14 3 0.410088
15 3 0.410095
15 3 0.410095
16 3 0.410106
17 3 0.410123
17 3 0.410123
18 3 0.410132
18 3 0.410132
18.5899 3 1
0.653013 4 1
1 4 0.653013
1 4 0.653013
2 4 0.652902
2 4 0.652902
3 4 0.652798
3 4 0.652798
4 4 0.652712
5 4 0.652648
5 4 0.652648
6 4 0.652606
6 4 0.652606
7 4 0.652585
7 4 0.652585
8 4 0.652582
9 4 0.652593
9 4 0.652593
10 4 0.652612
11 4 0.652638
11 4 0.652638
12 4 0.652667
13 4 0.6527
14 4 0.652734
15 4 0.652771
15 4 0.652771
16 4 0.652808
17 4 0.652851
18 4 0.652873
18.3471 4 1
0.630556 5 1
1 5 0.630556
1 5 0.630556
2 5 0.630389
3 5 0.63021
4 5 0.630045
4 5 0.630045
5 5 0.629906
6 5 0.6298
7 5 0.629728
7 5 0.629728
8 5 0.629686
8 5 0.629686
9 5 0.629668
10 5 0.629666
10 5 0.629666
11 5 0.629675
11 5 0.629675
12 5 0.629692
12 5 0.629692
13 5 0.629714
13 5 0.629714
14 5 0.62974
14 5 0.62974
15 5 0.62977
15 5 0.62977
16 5 0.629803
17 5 0.629842
17 5 0.629842
18 5 0.629863
18.3701 5 1
0.558986 6 1
1 6 0.558986
1 6 0.558986
2 6 0.558721
3 6 0.558391
4 6 0.558066
5 6 0.557772
5 6 0.557772
6 6 0.557535
6 6 0.557535
7 6 0.557361
7 6 0.557361
8 6 0.557247
8 6 0.557247
9 6 0.557177
10 6 0.55714
11 6 0.557124
12 6 0.557122
13 6 0.55713
13 6 0.55713
14 6 0.557145
14 6 0.557145
15 6 0.557166
16 6 0.557191
16 6 0.557191
17 6 0.557224
17 6 0.557224
18 6 0.557242
18.4428 6 1
0.449458 7 1
1 7 0.449458
1 7 0.449458
2 7 0.449001
2 7 0.449001
3 7 0.448376
3 7 0.448376
4 7 0.447762
4 7 0.447762
5 7 0.447199
6 7 0.446745
6 7 0.446745
7 7 0.446424
7 7 0.446424
8 7 0.446219
8 7 0.446219
9 7 0.446097
10 7 0.44603
10 7 0.44603
11 7 0.445997
11 7 0.445997
12 7 0.445985
13 7 0.445988
13 7 0.445988
14 7 0.446001
14 7 0.446001
15 7 0.44602
16 7 0.446043
16 7 0.446043
17 7 0.446072
17 7 0.446072
18 7 0.446087
18.5539 7 1
0.665566 8 1
1 8 0.665566
2 8 0.664942
3 8 0.664492
4 8 0.664233
4 8 0.664233
5 8 0.664088
6 8 0.664078
7 8 0.664164
8 8 0.664291
8 8 0.664291
9 8 0.664421
9 8 0.664421
10 8 0.664538
10 8 0.664538
11 8 0.664637
12 8 0.664722
12 8 0.664722
13 8 0.664797
13 8 0.664797
14 8 0.664863
14 8 0.664863
15 8 0.664924
16 8 0.664981
16 8 0.664981
17 8 0.665041
18 8 0.665073
18 8 0.665073
18.3349 8 1
0.581827 9 1
1 9 0.582805
1 9 0.582805
2 9 0.580792
3 9 0.578419
3 9 0.578419
4 9 0.576868
5 9 0.575639
5 9 0.575639
6 9 0.574968
7 9 0.574758
7 9 0.574758
8 9 0.574776
9 9 0.574874
9 9 0.574874
10 9 0.574994
11 9 0.575107
11 9 0.575107
12 9 0.575212
12 9 0.575212
13 9 0.575309
13 9 0.575309
14 9 0.575395
15 9 0.575471
15 9 0.575471
16 9 0.575537
17 9 0.575598
18 9 0.575628
18.4252 9 1
0.353454 10 1
1 10 0.353445
1 10 0.353445
2 10 0.348446
2 10 0.348446
3 10 0.342099
3 10 0.342099
4 10 0.338767
5 10 0.336203
5 10 0.336203
6 10 0.335039
6 10 0.335039
7 10 0.334873
8 10 0.335075
8 10 0.335075
9 10 0.335354
9 10 0.335354
10 10 0.335628
11 10 0.335865
12 10 0.336069
12 10 0.336069
13 10 0.336243
14 10 0.336387
14 10 0.336387
15 10 0.336503
15 10 0.336503
16 10 0.336595
16 10 0.336595
17 10 0.336665
17 10 0.336665
18 10 0.336696
18.6633 10 1
0.513026 11 1
1 11 0.513018
2 11 0.507101
3 11 0.500105
4 11 0.499149
5 11 0.4989
5 11 0.4989
6 11 0.49982
6 11 0.49982
7 11 0.500949
8 11 0.501929
8 11 0.501929
9 11 0.502688
10 11 0.503252
11 11 0.503672
12 11 0.503997
12 11 0.503997
13 11 0.50425
14 11 0.504446
14 11 0.504446
15 11 0.504596
15 11 0.504596
16 11 0.504709
17 11 0.504792
17 11 0.504792
18 11 0.504828
18.4952 11 1
1 11.4812 1
2 11.4871 1
3 11.4941 1
4 11.4948 1
5 11.4949 1
6 11.4939 1
7 11.4926 1
8 11.4916 1
9 11.4908 1
10 11.4903 1
11 11.4898 1
12 11.4895 1
13 11.4893 1
14 11.4891 1
15 11.4889 1
16 11.4888 1
17 11.4887 1
18 11.4887 1
1 0.604626 2
0.603494 1 2
2 0.604568 2
3 0.604514 2
4 0.604468 2
5 0.604433 2
6 0.60441 2
7 0.604397 2
8 0.604394 2
9 0.6044 2
10 0.604413 2
11 0.604431 2
12 0.604452 2
13 0.604477 2
14 0.604503 2
15 0.604531 2
16 0.60456 2
17 0.604593 2
18 0.60461 2
18.3965 1 2
0.527781 2 2
0.491917 2 1
18.4725 2 2
0.444005 3 2
18.5566 3 2
0.71061 4 2
0.653013 4 1
18.2894 4 2
0.687835 5 2
0.630556 5 1
18.3128 5 2
0.610698 6 2
0.558986 6 1
18.3909 6 2
0.501645 7 2
18.5014 7 2
0.727024 8 2
18.2729 8 2
0.493791 9 2
0.581827 9 1
18.5055 9 2
0.437125 10 2
18.5669 10 2
0.638158 11 2
18.3971 11 2
1 11.3556 2
2 11.3672 2
3 11.3769 2
4 11.3806 2
5 11.3903 2
6 11.3935 2
7 11.393 2
8 11.3925 2
9 11.3924 2
10 11.3922 2
11 11.3921 2
12 11.3921 2
13 11.392 2
14 11.392 2
15 11.3919 2
16 11.3919 2
17 11.3918 2
18 11.3918 2
1 0.621064 3
0.620158 1 3
0.603494 1 2
2 0.621007 3
3 0.620955 3
4 0.62091 3
5 0.620875 3
6 0.620851 3
7 0.620837 3
8 0.620834 3
9 0.620838 3
10 0.62085 3
11 0.620866 3
12 0.620887 3
13 0.62091 3
14 0.620936 3
15 0.620964 3
16 0.620993 3
17 0.621027 3
18 0.621044 3
18.3799 1 3
0.545377 2 3
18.4549 2 3
0.463755 3 3
0.444005 3 2
18.5368 3 3
0.723424 4 3
0.71061 4 2
18.2767 4 3
0.708117 5 3
18.2924 5 3
0.460214 6 3
18.5395 6 3
0.428794 7 3
0.501645 7 2
18.5713 7 3
0.370075 8 3
0.727024 8 2
18.6307 8 3
0.619152 9 3
0.493791 9 2
18.3789 9 3
0.624346 10 3
18.3758 10 3
1 11 2.50516
0.638158 11 2
1 10.5166 3
1 11 2.50516
2 10.5202 3
2 11 2.51735
2 11 2.51735
3 10.5221 3
3 11 2.52693
3 11 2.52693
4 10.5236 3
4 11 2.5309
5 10.5276 3
5 11 2.54121
6 10.5301 3
6 11 2.54504
7 10.5308 3
7 11 2.54493
8 10.5308 3
8 11 2.54454
9 10.531 3
9 11 2.5445
9 11 2.5445
10 10.5308 3
10 11 2.5443
11 10.5308 3
11 11 2.54425
12 10.5308 3
12 11 2.54418
13 10.5307 3
13 11 2.54409
14 10.5306 3
14 11 2.54401
15 10.5305 3
15 11 2.54394
16 10.5304 3
16 11 2.54388
17 10.5303 3
17 11 2.54382
18 10.5303 3
18 11 2.54379
1 0.442523 4
0.441988 1 4
0.620158 1 3
2 0.442496 4
3 0.442479 4
4 0.442472 4
5 0.442475 4
6 0.442487 4
7 0.442506 4
8 0.442531 4
9 0.442559 4
10 0.44259 4
11 0.442621 4
12 0.442651 4
13 0.442681 4
14 0.44271 4
15 0.442737 4
16 0.442762 4
17 0.442787 4
18 0.4428 4
18.5577 1 4
0.398247 2 4
18.6016 2 4
0.350187 3 4
0.463755 3 3
18.6498 3 4
0.297529 4 4
0.723424 4 3
18.7026 4 4
0.540236 5 4
0.708117 5 3
18.4592 5 4
0.551033 6 4
0.460214 6 3
18.4484 6 4
0.530629 7 4
0.428794 7 3
18.469 7 4
0.484479 8 4
18.5156 8 4
0.417189 9 4
18.5832 9 4
0.714692 10 4
0.624346 10 3
18.2868 10 4
1 10.2805 4
2 10.281 4
3 10.2812 4
4 10.2805 4
5 10.2794 4
6 10.2807 4
7 10.2825 4
8 10.2827 4
9 10.2825 4
10 10.2823 4
11 10.2827 4
12 10.2825 4
13 10.2822 4
14 10.2821 4
15 10.282 4
16 10.2819 4
17 10.2818 4
18 10.2817 4
1 0.497189 5
0.496727 1 5
0.441988 1 4
2 0.497163 5
3 0.497147 5
4 0.497141 5
5 0.497144 5
6 0.497155 5
7 0.497173 5
8 0.497197 5
9 0.497224 5
10 0.497254 5
11 0.497285 5
12 0.497316 5
13 0.497346 5
14 0.497374 5
15 0.497402 5
16 0.497428 5
17 0.497454 5
18 0.497467 5
18.503 1 5
0.453957 2 5
18.5459 2 5
0.408472 3 5
0.350187 3 4
18.5914 3 5
0.359773 4 5
18.6402 4 5
0.6102 5 5
0.540236 5 4
18.3892 5 5
0.628889 6 5
0.551033 6 4
18.3705 6 5
0.618275 7 5
0.530629 7 4
18.3812 7 5
0.582962 8 5
0.484479 8 4
18.4168 8 5
0.520461 9 5
18.4807 9 5
0.379349 10 5
18.6487 10 5
1 10.6207 5
2 10.6314 5
3 10.6333 5
4 10.638 5
5 10.6274 5
6 10.6238 5
7 10.627 5
8 10.6332 5
9 10.6374 5
10 10.6314 5
11 10.6437 5
12 10.6481 5
13 10.6481 5
14 10.6481 5
15 10.6483 5
16 10.6485 5
17 10.6486 5
18 10.6487 5
1 0.54269 6
0.54231 1 6
0.496727 1 5
2 0.542666 6
3 0.54265 6
4 0.542643 6
5 0.542644 6
6 0.542653 6
7 0.542667 6
8 0.542688 6
9 0.542711 6
10 0.542738 6
11 0.542766 6
12 0.542794 6
13 0.542822 6
14 0.542849 6
15 0.542875 6
16 0.5429 6
17 0.542926 6
18 0.542939 6
18.4574 1 6
0.501739 2 6
0.453957 2 5
18.4981 2 6
0.459785 3 6
0.408472 3 5
18.5401 3 6
0.41575 4 6
0.359773 4 5
18.5842 4 6
0.659171 5 6
18.3404 5 6
0.688066 6 6
18.3115 6 6
0.684766 7 6
0.618275 7 5
18.3148 7 6
0.648979 8 6
0.582962 8 5
18.3507 8 6
0.450263 9 6
0.520461 9 5
18.5489 9 6
0.479686 10 6
18.5477 10 6
1 10.5202 6
2 10.5319 6
3 10.5343 6
4 10.5359 6
5 10.5316 6
6 10.5283 6
7 10.5321 6
8 10.5334 6
9 10.5289 6
10 10.5336 6
11 10.5306 6
12 10.5329 6
13 10.5418 6
14 10.5439 6
15 10.5465 6
16 10.5475 6
17 10.5476 6
18 10.5477 6
1 0.577841 7
0.577545 1 7
2 0.57782 7
3 0.577805 7
4 0.577797 7
5 0.577795 7
6 0.5778 7
7 0.577811 7
8 0.577826 7
9 0.577844 7
10 0.577866 7
11 0.577889 7
12 0.577912 7
13 0.577936 7
14 0.57796 7
15 0.577983 7
16 0.578006 7
17 0.57803 7
18 0.578042 7
18.4223 1 7
0.540323 2 7
0.501739 2 6
18.4595 2 7
0.50262 3 7
0.459785 3 6
18.4973 3 7
0.463279 4 7
0.41575 4 6
18.5366 4 7
0.422729 5 7
18.5771 5 7
0.709299 6 7
0.688066 6 6
18.2904 6 7
0.720527 7 7
0.684766 7 6
18.2793 7 7
0.465016 8 7
0.648979 8 6
18.5343 8 7
0.513936 9 7
18.4859 9 7
0.554409 10 7
0.479686 10 6
18.4697 10 7
1 10.4453 7
2 10.4572 7
3 10.4597 7
4 10.4572 7
5 10.455 7
6 10.4583 7
7 10.4595 7
8 10.4562 7
9 10.4575 7
10 10.4624 7
11 10.4566 7
12 10.4546 7
13 10.4573 7
14 10.4586 7
15 10.4616 7
16 10.4651 7
17 10.4688 7
18 10.4697 7
1 0.603305 8
0.603089 1 8
0.577545 1 7
2 0.603286 8
3 0.603273 8
4 0.603264 8
5 0.603261 8
6 0.603262 8
7 0.603269 8
8 0.603279 8
9 0.603292 8
10 0.603308 8
11 0.603325 8
12 0.603344 8
13 0.603363 8
14 0.603382 8
15 0.603402 8
16 0.603421 8
17 0.603441 8
18 0.603452 8
18.3968 1 8
0.570249 2 8
0.540323 2 7
18.4296 2 8
0.537458 3 8
0.50262 3 7
18.4624 3 8
0.503618 4 8
0.463279 4 7
18.4963 4 8
0.467854 5 8
18.532 5 8
0.426914 6 8
18.5729 6 8
0.723146 7 8
0.720527 7 7
18.2768 7 8
0.50048 8 8
18.4991 8 8
0.557763 9 8
0.513936 9 7
18.4424 9 8
0.602935 10 8
0.554409 10 7
18.4201 10 8
1 10.3967 8
2 10.409 8
3 10.4076 8
4 10.4 8
5 10.4049 8
6 10.4142 8
7 10.4074 8
8 10.4005 8
9 10.403 8
10 10.4106 8
11 10.409 8
12 10.4033 8
13 10.4025 8
14 10.406 8
15 10.4076 8
16 10.4134 8
17 10.4176 8
18 10.4199 8
1 0.620578 9
0.620431 1 9
0.603089 1 8
2 0.620562 9
3 0.62055 9
4 0.620542 9
5 0.620538 9
6 0.620537 9
7 0.62054 9
8 0.620546 9
9 0.620554 9
10 0.620566 9
11 0.620578 9
12 0.620592 9
13 0.620606 9
14 0.62062 9
15 0.620635 9
16 0.62065 9
17 0.620667 9
18 0.620676 9
18.3795 1 9
0.592758 2 9
0.570249 2 8
18.4071 2 9
0.565359 3 9
18.4346 3 9
0.537003 4 9
0.503618 4 8
18.4629 4 9
0.499611 5 9
18.5003 5 9
0.307674 6 9
18.692 6 9
0.320954 7 9
0.723146 7 8
18.6787 7 9
0.336256 8 9
18.6634 8 9
0.569483 9 9
0.557763 9 8
18.4309 9 9
0.628649 10 9
18.3901 10 9
1 10.3703 9
2 10.3821 9
3 10.3772 9
4 10.3735 9
5 10.3811 9
6 10.3848 9
7 10.3776 9
8 10.3746 9
9 10.3802 9
10 10.3855 9
11 10.3874 9
12 10.3825 9
13 10.3768 9
14 10.3765 9
15 10.3786 9
16 10.3826 9
17 10.3867 9
18 10.3894 9
1 0.631538 10
0.631447 1 10
2 0.631524 10
3 0.631514 10
4 0.631507 10
5 0.631503 10
6 0.631501 10
7 0.631501 10
8 0.631504 10
9 0.63151 10
10 0.631518 10
11 0.631526 10
12 0.631536 10
13 0.631546 10
14 0.631555 10
15 0.631566 10
16 0.631577 10
17 0.631591 10
18 0.631598 10
18.3685 1 10
0.6094 2 10
18.3905 2 10
0.587668 3 10
18.4123 3 10
0.565031 4 10
0.537003 4 9
18.4349 4 10
0.530589 5 10
0.499611 5 9
18.4693 5 10
0.352902 6 10
18.6468 6 10
0.370611 7 10
0.320954 7 9
18.6291 7 10
0.390631 8 10
0.336256 8 9
18.6092 8 10
0.411184 9 10
0.569483 9 9
18.5894 9 10
1 10 9.62809
0.628649 10 9
1 9.72869 10
2 9.73311 10
2 10 9.64066
3 9.73149 10
3 10 9.63561
4 9.73007 10
4 10 9.63162
5 9.73296 10
5 10 9.63974
5 10 9.63974
6 9.73439 10
6 10 9.64365
7 9.73181 10
7 10 9.6361
8 9.73064 10
8 10 9.63293
9 9.73255 10
9 10 9.63876
10 9.7345 10
10 10 9.64431
10 10 9.64431
11 9.73531 10
11 10 9.64635
12 9.73351 10
12 10 9.64124
13 9.73138 10
13 10 9.63522
14 9.73128 10
14 10 9.6349
15 9.73209 10
15 10 9.6371
16 9.73368 10
16 10 9.64136
17 9.73541 10
17 10 9.64581
18 9.73656 10
18 10 9.64875
1 0.638127 11
0.638078 1 11
0.631447 1 10
2 0.638113 11
3 0.638106 11
4 0.638103 11
5 0.638101 11
6 0.638099 11
7 0.638096 11
8 0.638097 11
9 0.638101 11
10 0.638107 11
11 0.638114 11
12 0.63812 11
13 0.638127 11
14 0.638132 11
15 0.638138 11
16 0.638147 11
17 0.638157 11
18 0.638162 11
18.3619 1 11
0.621823 2 11
18.3781 2 11
0.605462 3 11
0.587668 3 10
18.3945 3 11
0.575559 4 11
0.565031 4 10
18.4244 4 11
0.372951 5 11
0.530589 5 10
18.6268 5 11
0.39104 6 11
0.352902 6 10
18.6087 6 11
0.412937 7 11
0.370611 7 10
18.5868 7 11
0.437137 8 11
18.5627 8 11
0.460767 9 11
0.411184 9 10
18.5397 9 11
1 9.55174 11
2 9.55241 11
3 9.55248 11
4 9.55212 11
5 9.55234 11
6 9.55264 11
7 9.5524 11
8 9.55198 11
9 9.55213 11
10 9.55264 11
11 9.55286 11
12 9.55266 11
13 9.55226 11
14 9.55226 11
15 9.55234 11
16 9.5526 11
17 9.55289 11
18 9.55309 11
1 0.64192 12
0.641898 1 12
0.638078 1 11
2 0.641902 12
3 0.641901 12
4 0.641903 12
5 0.641904 12
6 0.641904 12
7 0.641895 12
8 0.641895 12
9 0.641899 12
10 0.641904 12
11 0.641909 12
12 0.641913 12
13 0.641918 12
14 0.641918 12
15 0.641921 12
16 0.641927 12
17 0.641935 12
18 0.641939 12
18.3581 1 12
0.631188 2 12
0.621823 2 11
18.3688 2 12
0.61193 3 12
18.388 3 12
0.381043 4 12
0.575559 4 11
18.6188 4 12
0.398483 5 12
18.6014 5 12
0.420518 6 12
0.39104 6 11
18.5793 6 12
0.446083 7 12
0.412937 7 11
18.5537 7 12
0.474229 8 12
0.437137 8 11
18.5256 8 12
0.501663 9 12
0.460767 9 11
18.4989 9 12
1 9.49872 12
2 9.49879 12
3 9.49877 12
4 9.49871 12
5 9.49885 12
6 9.49903 12
7 9.49892 12
8 9.49878 12
9 9.499 12
10 9.49921 12
11 9.49908 12
12 9.49893 12
13 9.49877 12
14 9.49889 12
15 9.49893 12
16 9.49907 12
17 9.4992 12
18 9.49932 12
1 0.64426 13
0.644254 1 13
0.641898 1 12
2 0.644163 13
3 0.644185 13
4 0.64419 13
5 0.644202 13
6 0.644246 13
7 0.644182 13
8 0.644188 13
9 0.644183 13
10 0.644187 13
11 0.644215 13
12 0.644196 13
13 0.6442 13
14 0.644193 13
15 0.644189 13
16 0.644195 13
17 0.644202 13
18 0.644204 13
18.3558 1 13
0.63829 2 13
0.631188 2 12
18.3621 2 13
0.632078 3 13
18.3685 3 13
1 4 12.7535
1 3.64484 13
2 3.64528 13
2 4 12.7536
3 3.64546 13
3 4 12.7537
4 3.64522 13
4 4 12.7536
5 3.64536 13
5 4 12.7536
6 3.64505 13
6 4 12.7535
6 4 12.7535
7 3.64521 13
7 4 12.7536
8 3.64544 13
8 4 12.7537
9 3.64525 13
9 4 12.7536
10 3.64534 13
10 4 12.7536
11 3.64535 13
11 4 12.7536
12 3.64535 13
12 4 12.7536
13 3.64509 13
13 4 12.7535
14 3.64526 13
14 4 12.7535
15 3.64534 13
15 4 12.7536
16 3.64535 13
16 4 12.7536
17 3.64535 13
17 4 12.7536
18 3.64535 13
18 4 12.7536
0.398483 5 12
1 5 12.6112
2 5 12.6112
3 5 12.6112
4 5 12.6112
5 5 12.6112
6 5 12.6112
7 5 12.6112
8 5 12.6112
9 5 12.6112
10 5 12.6112
11 5 12.6111
12 5 12.6111
13 5 12.6111
13 5 12.6111
14 5 12.6111
15 5 12.6111
15 5 12.6111
16 5 12.6111
17 5 12.6111
18 5 12.6111
0.420518 6 12
1 6 12.5795
2 6 12.5795
3 6 12.5794
4 6 12.5793
5 6 12.5794
6 6 12.5795
7 6 12.5795
8 6 12.5794
9 6 12.5794
10 6 12.5794
11 6 12.5794
12 6 12.5794
13 6 12.5794
14 6 12.5793
15 6 12.5794
16 6 12.5793
17 6 12.5793
18 6 12.5794
0.446083 7 12
1 7 12.5536
2 7 12.5535
3 7 12.5534
4 7 12.5534
5 7 12.5535
6 7 12.5535
7 7 12.5535
8 7 12.5535
9 7 12.5535
10 7 12.5535
11 7 12.5535
12 7 12.5534
13 7 12.5534
14 7 12.5534
15 7 12.5534
16 7 12.5534
17 7 12.5534
18 7 12.5534
1 8 12.5254
2 8 12.5253
3 8 12.5252
4 8 12.5253
5 8 12.5253
6 8 12.5253
7 8 12.5253
8 8 12.5252
9 8 12.5252
10 8 12.5253
11 8 12.5253
11 8 12.5253
12 8 12.5253
13 8 12.5253
14 8 12.5252
15 8 12.5252
16 8 12.5253
17 8 12.5252
18 8 12.5252
1 9 12.4979
2 9 12.498
2 9 12.498
3 9 12.4979
4 9 12.4979
5 9 12.498
6 9 12.4982
7 9 12.4981
8 9 12.498
9 9 12.4982
10 9 12.4984
11 9 12.4982
12 9 12.4981
13 9 12.498
14 9 12.4981
15 9 12.4981
16 9 12.4982
17 9 12.4984
18 9 12.4985
1 1 13.3557
0.644254 1 13
2 1 13.3558
3 1 13.3558
4 1 13.3558
5 1 13.3558
5 1 13.3558
6 1 13.3558
7 1 13.3558
8 1 13.3558
9 1 13.3558
10 1 13.3558
11 1 13.3558
12 1 13.3558
13 1 13.3558
14 1 13.3558
15 1 13.3558
16 1 13.3558
17 1 13.3558
18 1 13.3558
1 2 13.3617
2 2 13.362
3 2 13.362
4 2 13.362
5 2 13.362
6 2 13.3618
7 2 13.362
8 2 13.362
9 2 13.362
10 2 13.3621
11 2 13.362
12 2 13.362
13 2 13.362
14 2 13.362
15 2 13.3621
16 2 13.3621
17 2 13.3621
18 2 13.3621
1 3 13.3677
2 3 13.3681
3 3 13.3683
4 3 13.3681
5 3 13.3682
6 3 13.3679
7 3 13.368
8 3 13.3682
9 3 13.3681
10 3 13.3682
11 3 13.3682
12 3 13.3682
13 3 13.368
14 3 13.3682
15 3 13.3682
16 3 13.3683
17 3 13.3683
18 3 13.3683
18.3685 3 13
3 0 1 2
3 2 1 3
3 3 1 4
3 3 5 6
3 6 5 7
3 6 7 8
3 8 7 9
3 8 10 11
3 11 10 12
3 11 13 14
3 14 13 15
3 14 15 16
3 16 15 17
3 16 18 19
3 19 18 20
3 19 20 21
3 21 20 22
3 21 22 23
3 23 22 24
3 23 25 26
3 26 25 27
3 26 27 28
3 28 27 29
3 28 30 31
3 31 30 32
3 31 33 34
3 34 33 35
3 34 36 37
3 37 36 38
3 37 39 40
3 40 39 41
3 40 42 43
3 43 42 44
3 43 44 45
3 45 44 46
3 47 48 45
3 49 50 0
3 0 50 1
3 50 4 1
3 51 4 50
3 52 7 5
3 53 7 52
3 54 9 7
3 55 9 54
3 56 12 10
3 57 12 56
3 57 15 13
3 58 15 57
3 59 17 15
3 60 17 59
3 60 20 18
3 61 20 60
3 62 22 20
3 63 22 62
3 64 24 22
3 65 24 64
3 66 27 25
3 67 27 66
3 68 29 27
3 69 29 68
3 70 32 30
3 71 32 70
3 72 35 33
3 73 35 72
3 74 38 36
3 75 38 74
3 76 41 39
3 77 41 76
3 77 44 42
3 78 44 77
3 79 46 44
3 80 46 79
3 81 82 47
3 47 82 48
3 83 84 49
3 49 84 50
3 85 51 50
3 86 51 85
3 86 53 52
3 87 53 86
3 88 55 54
3 89 55 88
3 90 57 56
3 91 57 90
3 91 58 57
3 92 58 91
3 93 60 59
3 94 60 93
3 94 61 60
3 95 61 94
3 96 63 62
3 97 63 96
3 98 65 64
3 99 65 98
3 99 67 66
3 100 67 99
3 101 69 68
3 102 69 101
3 103 71 70
3 104 71 103
3 104 73 72
3 105 73 104
3 106 75 74
3 107 75 106
3 108 77 76
3 109 77 108
3 109 78 77
3 110 78 109
3 111 80 79
3 112 80 111
3 113 114 81
3 81 114 82
3 115 116 83
3 83 116 84
3 117 86 85
3 118 86 117
3 119 87 86
3 120 87 119
3 121 89 88
3 122 89 121
3 122 91 90
3 123 91 122
3 124 92 91
3 125 92 124
3 126 94 93
3 127 94 126
3 128 95 94
3 129 95 128
3 129 97 96
3 130 97 129
3 131 99 98
3 132 99 131
3 132 100 99
3 133 100 132
3 134 102 101
3 135 102 134
3 135 104 103
3 136 104 135
3 136 105 104
3 137 105 136
3 137 107 106
3 138 107 137
3 139 109 108
3 140 109 139
3 140 110 109
3 141 110 140
3 141 112 111
3 142 112 141
3 142 143 113
3 113 143 114
3 144 145 115
3 115 145 116
3 146 118 117
3 147 118 146
3 147 120 119
3 148 120 147
3 148 122 121
3 149 122 148
3 150 123 122
3 151 123 150
3 151 125 124
3 152 125 151
3 152 127 126
3 153 127 152
3 154 129 128
3 155 129 154
3 156 130 129
3 157 130 156
3 157 132 131
3 158 132 157
3 159 133 132
3 160 133 159
3 161 135 134
3 162 135 161
3 163 136 135
3 164 136 163
3 165 137 136
3 166 137 165
3 167 138 137
3 168 138 167
3 169 140 139
3 170 140 169
3 170 141 140
3 171 141 170
3 172 142 141
3 173 142 172
3 173 174 142
3 142 174 143
3 175 176 144
3 144 176 145
3 177 147 146
3 178 147 177
3 178 148 147
3 179 148 178
3 179 149 148
3 180 149 179
3 180 151 150
3 181 151 180
3 182 152 151
3 183 152 182
3 184 153 152
3 185 153 184
3 186 155 154
3 187 155 186
3 188 157 156
3 189 157 188
3 189 158 157
3 190 158 189
3 190 160 159
3 191 160 190
3 191 162 161
3 192 162 191
3 192 164 163
3 193 164 192
3 194 166 165
3 195 166 194
3 196 168 167
3 197 168 196
3 197 170 169
3 198 170 197
3 199 171 170
3 200 171 199
3 201 173 172
3 202 173 201
3 202 203 173
3 173 203 174
3 204 205 175
3 175 205 176
3 206 178 177
3 207 178 206
3 208 179 178
3 209 179 208
3 210 180 179
3 211 180 210
3 212 181 180
3 213 181 212
3 213 183 182
3 214 183 213
3 215 185 184
3 216 185 215
3 217 187 186
3 218 187 217
3 219 189 188
3 220 189 219
3 220 190 189
3 221 190 220
3 222 191 190
3 223 191 222
3 224 192 191
3 225 192 224
3 225 193 192
3 226 193 225
3 227 195 194
3 228 195 227
3 229 197 196
3 230 197 229
3 230 198 197
3 231 198 230
3 232 200 199
3 233 200 232
3 234 202 201
3 235 202 234
3 235 236 202
3 202 236 203
3 237 238 204
3 204 238 205
3 238 207 206
3 239 207 238
3 239 209 208
3 240 209 239
3 240 211 210
3 241 211 240
3 242 213 212
3 243 213 242
3 243 214 213
3 244 214 243
3 244 216 215
3 245 216 244
3 245 218 217
3 246 218 245
3 247 220 219
3 248 220 247
3 249 221 220
3 250 221 249
3 251 223 222
3 252 223 251
3 252 225 224
3 253 225 252
3 254 226 225
3 255 226 254
3 256 228 227
3 257 228 256
3 258 230 229
3 259 230 258
3 259 231 230
3 260 231 259
3 261 233 232
3 262 233 261
3 262 235 234
3 263 235 262
3 264 265 235
3 235 265 236
3 266 267 237
3 237 267 238
3 268 239 238
3 269 239 268
3 269 240 239
3 270 240 269
3 271 241 240
3 272 241 271
3 272 243 242
3 273 243 272
3 274 244 243
3 275 244 274
3 275 245 244
3 276 245 275
3 277 246 245
3 278 246 277
3 278 248 247
3 279 248 278
3 280 250 249
3 281 250 280
3 281 252 251
3 282 252 281
3 283 253 252
3 284 253 283
3 285 255 254
3 286 255 285
3 287 257 256
3 288 257 287
3 288 259 258
3 289 259 288
3 290 260 259
3 291 260 290
3 291 262 261
3 292 262 291
3 292 263 262
3 293 263 292
3 293 294 264
3 264 294 265
3 295 296 266
3 266 296 267
3 297 269 268
3 298 269 297
3 299 270 269
3 300 270 299
3 301 272 271
3 302 272 301
3 302 273 272
3 303 273 302
3 304 275 274
3 305 275 304
3 306 276 275
3 307 276 306
3 307 278 277
3 308 278 307
3 309 279 278
3 310 279 309
3 311 281 280
3 312 281 311
3 312 282 281
3 313 282 312
3 313 284 283
3 314 284 313
3 315 286 285
3 316 286 315
3 316 288 287
3 317 288 316
3 318 289 288
3 319 289 318
3 320 291 290
3 321 291 320
3 322 292 291
3 323 292 322
3 324 293 292
3 325 293 324
3 325 326 293
3 293 326 294
3 327 328 295
3 295 328 296
3 328 298 297
3 329 298 328
3 329 300 299
3 330 300 329
3 330 302 301
3 331 302 330
3 331 303 302
3 332 303 331
3 333 305 304
3 334 305 333
3 335 307 306
3 336 307 335
3 336 308 307
3 337 308 336
3 338 310 309
3 339 310 338
3 339 312 311
3 340 312 339
3 340 313 312
3 341 313 340
3 341 314 313
3 342 314 341
3 343 316 315
3 344 316 343
3 344 317 316
3 345 317 344
3 346 319 318
3 347 319 346
3 348 321 320
3 349 321 348
3 349 323 322
3 350 323 349
3 351 325 324
3 352 325 351
3 352 353 325
3 325 353 326
3 354 328 327
3 355 329 354
3 354 329 328
3 356 330 355
3 355 330 329
3 357 331 356
3 356 331 330
3 358 332 357
3 357 332 331
3 359 334 358
3 358 334 333
3 360 336 359
3 359 336 335
3 361 337 360
3 360 337 336
3 362 339 361
3 361 339 338
3 363 340 362
3 362 340 339
3 364 341 363
3 363 341 340
3 365 342 364
3 364 342 341
3 366 344 365
3 365 344 343
3 367 345 366
3 366 345 344
3 368 347 367
3 367 347 346
3 369 349 368
3 368 349 348
3 370 350 369
3 369 350 349
3 371 352 370
3 370 352 351
3 371 353 352
3 372 373 2
3 2 373 0
3 2 374 372
3 2 3 374
3 3 375 374
3 3 6 375
3 6 376 375
3 6 8 376
3 8 377 376
3 8 11 377
3 11 378 377
3 11 14 378
3 14 379 378
3 14 16 379
3 16 380 379
3 16 19 380
3 19 381 380
3 19 21 381
3 21 382 381
3 21 23 382
3 23 383 382
3 23 26 383
3 26 384 383
3 26 28 384
3 28 385 384
3 28 31 385
3 31 386 385
3 31 34 386
3 34 387 386
3 34 37 387
3 37 388 387
3 37 40 388
3 40 389 388
3 40 43 389
3 43 390 389
3 43 45 390
3 45 48 390
3 390 48 391
3 392 0 373
3 392 393 0
3 48 394 391
3 82 394 48
3 395 393 392
3 395 83 393
3 82 396 394
3 114 396 82
3 397 83 395
3 397 398 83
3 114 399 396
3 143 399 114
3 400 398 397
3 400 401 398
3 143 402 399
3 174 402 143
3 403 401 400
3 403 404 401
3 174 405 402
3 203 405 174
3 406 404 403
3 406 204 404
3 203 407 405
3 236 407 203
3 408 204 406
3 408 237 204
3 236 409 407
3 265 409 236
3 410 237 408
3 410 411 237
3 265 412 409
3 294 412 265
3 413 411 410
3 413 295 411
3 294 414 412
3 326 414 294
3 415 295 413
3 415 327 295
3 326 416 414
3 353 416 326
3 415 417 327
3 327 417 354
3 418 354 417
3 355 354 418
3 419 355 418
3 356 355 419
3 420 356 419
3 357 356 420
3 421 357 420
3 358 357 421
3 422 358 421
3 359 358 422
3 423 359 422
3 360 359 423
3 424 360 423
3 361 360 424
3 425 361 424
3 362 361 425
3 426 362 425
3 363 362 426
3 427 363 426
3 364 363 427
3 428 364 427
3 365 364 428
3 429 365 428
3 366 365 429
3 430 366 429
3 367 366 430
3 431 367 430
3 368 367 431
3 432 368 431
3 369 368 432
3 433 369 432
3 370 369 433
3 434 370 433
3 371 370 434
3 353 371 416
3 416 371 434
3 435 436 372
3 372 436 437
3 372 438 435
3 372 374 438
3 374 439 438
3 374 375 439
3 375 440 439
3 375 376 440
3 376 441 440
3 376 377 441
3 377 442 441
3 377 378 442
3 378 443 442
3 378 379 443
3 379 444 443
3 379 380 444
3 380 445 444
3 380 381 445
3 381 446 445
3 381 382 446
3 382 447 446
3 382 383 447
3 383 448 447
3 383 384 448
3 384 449 448
3 384 385 449
3 385 450 449
3 385 386 450
3 386 451 450
3 386 387 451
3 387 452 451
3 387 388 452
3 388 453 452
3 388 389 453
3 389 454 453
3 389 390 454
3 390 391 454
3 454 391 455
3 456 437 436
3 456 392 437
3 391 457 455
3 394 457 391
3 458 392 456
3 458 459 392
3 394 460 457
3 396 460 394
3 461 459 458
3 461 462 459
3 396 463 460
3 399 463 396
3 464 462 461
3 464 400 462
3 399 465 463
3 402 465 399
3 466 400 464
3 466 403 400
3 402 467 465
3 405 467 402
3 468 403 466
3 468 469 403
3 405 470 467
3 407 470 405
3 471 469 468
3 471 472 469
3 407 473 470
3 409 473 407
3 474 472 471
3 474 475 472
3 409 476 473
3 412 476 409
3 477 475 474
3 477 413 475
3 412 478 476
3 414 478 412
3 479 480 481
3 480 477 481
3 480 413 477
3 482 481 483
3 482 483 484
3 485 483 486
3 485 486 487
3 488 486 489
3 488 489 490
3 490 489 491
3 490 491 492
3 492 491 493
3 492 493 494
3 494 493 495
3 494 495 496
3 496 495 497
3 496 497 498
3 498 497 499
3 498 499 500
3 501 499 502
3 501 502 503
3 503 502 504
3 503 504 505
3 505 504 506
3 505 506 507
3 507 506 508
3 507 508 509
3 509 508 510
3 509 510 511
3 511 510 512
3 511 512 513
3 513 512 514
3 513 514 515
3 515 514 516
3 515 516 517
3 517 516 518
3 517 518 519
3 518 478 519
3 478 416 519
3 478 414 416
3 479 417 480
3 484 418 482
3 482 418 417
3 487 419 485
3 485 419 418
3 490 420 488
3 488 420 419
3 492 421 490
3 490 421 420
3 494 422 492
3 492 422 421
3 496 423 494
3 494 423 422
3 498 424 496
3 496 424 423
3 500 425 498
3 498 425 424
3 503 426 501
3 501 426 425
3 505 427 503
3 503 427 426
3 507 428 505
3 505 428 427
3 509 429 507
3 507 429 428
3 511 430 509
3 509 430 429
3 513 431 511
3 511 431 430
3 515 432 513
3 513 432 431
3 517 433 515
3 515 433 432
3 519 434 517
3 517 434 433
3 416 434 519
3 520 521 435
3 435 521 522
3 435 523 520
3 435 438 523
3 438 524 523
3 438 439 524
3 439 525 524
3 439 440 525
3 440 526 525
3 440 441 526
3 441 527 526
3 441 442 527
3 442 528 527
3 442 443 528
3 443 529 528
3 443 444 529
3 444 530 529
3 444 445 530
3 445 531 530
3 445 446 531
3 446 532 531
3 446 447 532
3 447 533 532
3 447 448 533
3 448 534 533
3 448 449 534
3 449 535 534
3 449 450 535
3 450 536 535
3 450 451 536
3 451 537 536
3 451 452 537
3 452 538 537
3 452 453 538
3 453 539 538
3 453 454 539
3 454 455 539
3 539 455 540
3 541 522 521
3 541 456 522
3 455 542 540
3 457 542 455
3 543 456 541
3 543 544 456
3 457 545 542
3 460 545 457
3 546 544 543
3 546 547 544
3 460 548 545
3 463 548 460
3 549 547 546
3 549 550 547
3 463 551 548
3 465 551 463
3 552 550 549
3 552 553 550
3 465 554 551
3 467 554 465
3 555 553 552
3 555 556 553
3 467 557 554
3 470 557 467
3 558 556 555
3 558 471 556
3 470 559 557
3 473 559 470
3 560 471 558
3 560 474 471
3 473 561 559
3 476 561 473
3 562 474 560
3 562 563 474
3 476 564 561
3 478 564 476
3 562 565 563
3 563 565 481
3 566 481 565
3 483 481 566
3 567 483 566
3 486 483 567
3 568 486 567
3 489 486 568
3 569 489 568
3 491 489 569
3 570 491 569
3 493 491 570
3 571 493 570
3 495 493 571
3 572 495 571
3 497 495 572
3 573 497 572
3 499 497 573
3 574 499 573
3 502 499 574
3 575 502 574
3 504 502 575
3 576 504 575
3 506 504 576
3 577 506 576
3 508 506 577
3 578 508 577
3 510 508 578
3 579 510 578
3 512 510 579
3 580 512 579
3 514 512 580
3 581 514 580
3 516 514 581
3 582 516 581
3 518 516 582
3 478 518 564
3 564 518 582
3 583 584 520
3 520 584 585
3 520 586 583
3 520 523 586
3 523 587 586
3 523 524 587
3 524 588 587
3 524 525 588
3 525 589 588
3 525 526 589
3 526 590 589
3 526 527 590
3 527 591 590
3 527 528 591
3 528 592 591
3 528 529 592
3 529 593 592
3 529 530 593
3 530 594 593
3 530 531 594
3 531 595 594
3 531 532 595
3 532 596 595
3 532 533 596
3 533 597 596
3 533 534 597
3 534 598 597
3 534 535 598
3 535 599 598
3 535 536 599
3 536 600 599
3 536 537 600
3 537 601 600
3 537 538 601
3 538 602 601
3 538 539 602
3 539 540 602
3 602 540 603
3 604 585 584
3 604 541 585
3 540 605 603
3 542 605 540
3 606 541 604
3 606 607 541
3 542 608 605
3 545 608 542
3 609 607 606
3 609 546 607
3 545 610 608
3 548 610 545
3 611 546 609
3 611 612 546
3 548 613 610
3 551 613 548
3 614 612 611
3 614 615 612
3 551 616 613
3 554 616 551
3 617 615 614
3 617 618 615
3 554 619 616
3 557 619 554
3 620 618 617
3 620 621 618
3 557 622 619
3 559 622 557
3 623 621 620
3 623 560 621
3 559 624 622
3 561 624 559
3 625 560 623
3 625 562 560
3 561 626 624
3 564 626 561
3 625 627 562
3 562 627 565
3 628 565 627
3 566 565 628
3 629 566 628
3 567 566 629
3 630 567 629
3 568 567 630
3 631 568 630
3 569 568 631
3 632 569 631
3 570 569 632
3 633 570 632
3 571 570 633
3 634 571 633
3 572 571 634
3 635 572 634
3 573 572 635
3 636 573 635
3 574 573 636
3 637 574 636
3 575 574 637
3 638 575 637
3 576 575 638
3 639 576 638
3 577 576 639
3 640 577 639
3 578 577 640
3 641 578 640
3 579 578 641
3 642 579 641
3 580 579 642
3 643 580 642
3 581 580 643
3 644 581 643
3 582 581 644
3 564 582 626
3 626 582 644
3 645 646 583
3 583 646 647
3 583 648 645
3 583 586 648
3 586 649 648
3 586 587 649
3 587 650 649
3 587 588 650
3 588 651 650
3 588 589 651
3 589 652 651
3 589 590 652
3 590 653 652
3 590 591 653
3 591 654 653
3 591 592 654
3 592 655 654
3 592 593 655
3 593 656 655
3 593 594 656
3 594 657 656
3 594 595 657
3 595 658 657
3 595 596 658
3 596 659 658
3 596 597 659
3 597 660 659
3 597 598 660
3 598 661 660
3 598 599 661
3 599 662 661
3 599 600 662
3 600 663 662
3 600 601 663
3 601 664 663
3 601 602 664
3 602 603 664
3 664 603 665
3 666 647 646
3 666 667 647
3 603 668 665
3 605 668 603
3 669 667 666
3 669 670 667
3 605 671 668
3 608 671 605
3 672 670 669
3 672 673 670
3 608 674 671
3 610 674 608
3 675 673 672
3 675 611 673
3 610 676 674
3 613 676 610
3 677 611 675
3 677 614 611
3 613 678 676
3 616 678 613
3 679 614 677
3 679 680 614
3 616 681 678
3 619 681 616
3 682 680 679
3 682 683 680
3 619 684 681
3 622 684 619
3 685 683 682
3 685 686 683
3 622 687 684
3 624 687 622
3 688 686 685
3 688 625 686
3 624 689 687
3 626 689 624
3 688 690 625
3 625 690 627
3 691 627 690
3 628 627 691
3 692 628 691
3 629 628 692
3 693 629 692
3 630 629 693
3 694 630 693
3 631 630 694
3 695 631 694
3 632 631 695
3 696 632 695
3 633 632 696
3 697 633 696
3 634 633 697
3 698 634 697
3 635 634 698
3 699 635 698
3 636 635 699
3 700 636 699
3 637 636 700
3 701 637 700
3 638 637 701
3 702 638 701
3 639 638 702
3 703 639 702
3 640 639 703
3 704 640 703
3 641 640 704
3 705 641 704
3 642 641 705
3 706 642 705
3 643 642 706
3 707 643 706
3 644 643 707
3 626 644 689
3 689 644 707
3 708 709 645
3 645 709 646
3 645 710 708
3 645 648 710
3 648 711 710
3 648 649 711
3 649 712 711
3 649 650 712
3 650 713 712
3 650 651 713
3 651 714 713
3 651 652 714
3 652 715 714
3 652 653 715
3 653 716 715
3 653 654 716
3 654 717 716
3 654 655 717
3 655 718 717
3 655 656 718
3 656 719 718
3 656 657 719
3 657 720 719
3 657 658 720
3 658 721 720
3 658 659 721
3 659 722 721
3 659 660 722
3 660 723 722
3 660 661 723
3 661 724 723
3 661 662 724
3 662 725 724
3 662 663 725
3 663 726 725
3 663 664 726
3 664 665 726
3 726 665 727
3 728 646 709
3 728 729 646
3 665 730 727
3 668 730 665
3 731 729 728
3 731 732 729
3 668 733 730
3 671 733 668
3 734 732 731
3 734 735 732
3 671 736 733
3 674 736 671
3 737 735 734
3 737 675 735
3 674 738 736
3 676 738 674
3 739 675 737
3 739 740 675
3 676 741 738
3 678 741 676
3 742 740 739
3 742 743 740
3 678 744 741
3 681 744 678
3 745 743 742
3 745 746 743
3 681 747 744
3 684 747 681
3 748 746 745
3 748 685 746
3 684 749 747
3 687 749 684
3 750 685 748
3 750 751 685
3 687 752 749
3 689 752 687
3 750 753 751
3 751 753 690
3 754 690 753
3 691 690 754
3 755 691 754
3 692 691 755
3 756 692 755
3 693 692 756
3 757 693 756
3 694 693 757
3 758 694 757
3 695 694 758
3 759 695 758
3 696 695 759
3 760 696 759
3 697 696 760
3 761 697 760
3 698 697 761
3 762 698 761
3 699 698 762
3 763 699 762
3 700 699 763
3 764 700 763
3 701 700 764
3 765 701 764
3 702 701 765
3 766 702 765
3 703 702 766
3 767 703 766
3 704 703 767
3 768 704 767
3 705 704 768
3 769 705 768
3 706 705 769
3 770 706 769
3 707 706 770
3 689 707 752
3 752 707 770
3 771 772 708
3 708 772 773
3 708 774 771
3 708 710 774
3 710 775 774
3 710 711 775
3 711 776 775
3 711 712 776
3 712 777 776
3 712 713 777
3 713 778 777
3 713 714 778
3 714 779 778
3 714 715 779
3 715 780 779
3 715 716 780
3 716 781 780
3 716 717 781
3 717 782 781
3 717 718 782
3 718 783 782
3 718 719 783
3 719 784 783
3 719 720 784
3 720 785 784
3 720 721 785
3 721 786 785
3 721 722 786
3 722 787 786
3 722 723 787
3 723 788 787
3 723 724 788
3 724 789 788
3 724 725 789
3 725 790 789
3 725 726 790
3 726 727 790
3 790 727 791
3 792 773 772
3 792 793 773
3 727 794 791
3 730 794 727
3 795 793 792
3 795 796 793
3 730 797 794
3 733 797 730
3 798 796 795
3 798 799 796
3 733 800 797
3 736 800 733
3 801 799 798
3 801 737 799
3 736 802 800
3 738 802 736
3 803 737 801
3 803 739 737
3 738 804 802
3 741 804 738
3 805 739 803
3 805 806 739
3 741 807 804
3 744 807 741
3 808 806 805
3 808 745 806
3 744 809 807
3 747 809 744
3 810 745 808
3 810 811 745
3 747 812 809
3 749 812 747
3 813 811 810
3 813 814 811
3 749 815 812
3 752 815 749
3 813 816 814
3 814 816 753
3 817 753 816
3 754 753 817
3 818 754 817
3 755 754 818
3 819 755 818
3 756 755 819
3 820 756 819
3 757 756 820
3 821 757 820
3 758 757 821
3 822 758 821
3 759 758 822
3 823 759 822
3 760 759 823
3 824 760 823
3 761 760 824
3 825 761 824
3 762 761 825
3 826 762 825
3 763 762 826
3 827 763 826
3 764 763 827
3 828 764 827
3 765 764 828
3 829 765 828
3 766 765 829
3 830 766 829
3 767 766 830
3 831 767 830
3 768 767 831
3 832 768 831
3 769 768 832
3 833 769 832
3 770 769 833
3 752 770 815
3 815 770 833
3 834 835 771
3 771 835 836
3 771 837 834
3 771 774 837
3 774 838 837
3 774 775 838
3 775 839 838
3 775 776 839
3 776 840 839
3 776 777 840
3 777 841 840
3 777 778 841
3 778 842 841
3 778 779 842
3 779 843 842
3 779 780 843
3 780 844 843
3 780 781 844
3 781 845 844
3 781 782 845
3 782 846 845
3 782 783 846
3 783 847 846
3 783 784 847
3 784 848 847
3 784 785 848
3 785 849 848
3 785 786 849
3 786 850 849
3 786 787 850
3 787 851 850
3 787 788 851
3 788 852 851
3 788 789 852
3 789 853 852
3 789 790 853
3 790 791 853
3 853 791 854
3 855 836 835
3 855 856 836
3 791 857 854
3 794 857 791
3 858 856 855
3 858 795 856
3 794 859 857
3 797 859 794
3 860 795 858
3 860 861 795
3 797 862 859
3 800 862 797
3 863 861 860
3 863 801 861
3 800 864 862
3 802 864 800
3 865 801 863
3 865 803 801
3 802 866 864
3 804 866 802
3 867 803 865
3 867 868 803
3 804 869 866
3 807 869 804
3 870 868 867
3 870 808 868
3 807 871 869
3 809 871 807
3 872 808 870
3 872 873 808
3 809 874 871
3 812 874 809
3 875 873 872
3 875 813 873
3 812 876 874
3 815 876 812
3 875 877 813
3 813 877 816
3 878 816 877
3 817 816 878
3 879 817 878
3 818 817 879
3 880 818 879
3 819 818 880
3 881 819 880
3 820 819 881
3 882 820 881
3 821 820 882
3 883 821 882
3 822 821 883
3 884 822 883
3 823 822 884
3 885 823 884
3 824 823 885
3 886 824 885
3 825 824 886
3 887 825 886
3 826 825 887
3 888 826 887
3 827 826 888
3 889 827 888
3 828 827 889
3 890 828 889
3 829 828 890
3 891 829 890
3 830 829 891
3 892 830 891
3 831 830 892
3 893 831 892
3 832 831 893
3 894 832 893
3 833 832 894
3 815 833 876
3 876 833 894
3 895 896 834
3 834 896 835
3 834 897 895
3 834 837 897
3 837 898 897
3 837 838 898
3 838 899 898
3 838 839 899
3 839 900 899
3 839 840 900
3 840 901 900
3 840 841 901
3 841 902 901
3 841 842 902
3 842 903 902
3 842 843 903
3 843 904 903
3 843 844 904
3 844 905 904
3 844 845 905
3 845 906 905
3 845 846 906
3 846 907 906
3 846 847 907
3 847 908 907
3 847 848 908
3 848 909 908
3 848 849 909
3 849 910 909
3 849 850 910
3 850 911 910
3 850 851 911
3 851 912 911
3 851 852 912
3 852 913 912
3 852 853 913
3 853 854 913
3 913 854 914
3 915 835 896
3 915 855 835
3 854 916 914
3 857 916 854
3 917 855 915
3 917 858 855
3 857 918 916
3 859 918 857
3 919 858 917
3 919 920 858
3 859 921 918
3 862 921 859
3 922 920 919
3 922 923 920
3 862 924 921
3 864 924 862
3 925 923 922
3 925 865 923
3 864 926 924
3 866 926 864
3 927 865 925
3 927 928 865
3 866 929 926
3 869 929 866
3 930 928 927
3 930 931 928
3 869 932 929
3 871 932 869
3 933 931 930
3 933 934 931
3 871 935 932
3 874 935 871
3 936 937 938
3 937 933 938
3 937 934 933
3 936 938 939
3 936 939 940
3 940 939 941
3 940 941 942
3 942 941 943
3 942 943 944
3 944 943 945
3 944 945 946
3 947 945 948
3 947 948 949
3 949 948 950
3 949 950 951
3 951 950 952
3 951 952 953
3 953 952 954
3 953 954 955
3 955 954 956
3 955 956 957
3 958 956 959
3 958 959 960
3 960 959 961
3 960 961 962
3 962 961 963
3 962 963 964
3 964 963 965
3 964 965 966
3 966 965 967
3 966 967 968
3 968 967 969
3 968 969 970
3 970 969 971
3 970 971 972
3 972 971 973
3 972 973 974
3 973 935 974
3 935 876 974
3 935 874 876
3 936 877 937
3 940 878 936
3 936 878 877
3 942 879 940
3 940 879 878
3 944 880 942
3 942 880 879
3 946 881 944
3 944 881 880
3 949 882 947
3 947 882 881
3 951 883 949
3 949 883 882
3 953 884 951
3 951 884 883
3 955 885 953
3 953 885 884
3 957 886 955
3 955 886 885
3 960 887 958
3 958 887 886
3 962 888 960
3 960 888 887
3 964 889 962
3 962 889 888
3 966 890 964
3 964 890 889
3 968 891 966
3 966 891 890
3 970 892 968
3 968 892 891
3 972 893 970
3 970 893 892
3 974 894 972
3 972 894 893
3 876 894 974
3 975 976 895
3 895 976 977
3 895 978 975
3 895 897 978
3 897 979 978
3 897 898 979
3 898 980 979
3 898 899 980
3 899 981 980
3 899 900 981
3 900 982 981
3 900 901 982
3 901 983 982
3 901 902 983
3 902 984 983
3 902 903 984
3 903 985 984
3 903 904 985
3 904 986 985
3 904 905 986
3 905 987 986
3 905 906 987
3 906 988 987
3 906 907 988
3 907 989 988
3 907 908 989
3 908 990 989
3 908 909 990
3 909 991 990
3 909 910 991
3 910 992 991
3 910 911 992
3 911 993 992
3 911 912 993
3 912 994 993
3 912 913 994
3 913 914 994
3 994 914 995
3 996 977 976
3 996 915 977
3 914 997 995
3 916 997 914
3 998 915 996
3 998 999 915
3 916 1000 997
3 918 1000 916
3 1001 999 998
3 1001 1002 999
3 918 1003 1000
3 921 1003 918
3 1004 1002 1001
3 1004 1005 1002
3 921 1006 1003
3 924 1006 921
3 1007 1005 1004
3 1007 1008 1005
3 924 1009 1006
3 926 1009 924
3 1010 1008 1007
3 1010 1011 1008
3 926 1012 1009
3 929 1012 926
3 1013 1011 1010
3 1013 930 1011
3 929 1014 1012
3 932 1014 929
3 1015 930 1013
3 1015 1016 930
3 932 1017 1014
3 935 1017 932
3 1015 1018 1016
3 1016 1018 938
3 1019 938 1018
3 939 938 1019
3 1020 939 1019
3 941 939 1020
3 1021 941 1020
3 943 941 1021
3 1022 943 1021
3 945 943 1022
3 1023 945 1022
3 948 945 1023
3 1024 948 1023
3 950 948 1024
3 1025 950 1024
3 952 950 1025
3 1026 952 1025
3 954 952 1026
3 1027 954 1026
3 956 954 1027
3 1028 956 1027
3 959 956 1028
3 1029 959 1028
3 961 959 1029
3 1030 961 1029
3 963 961 1030
3 1031 963 1030
3 965 963 1031
3 1032 965 1031
3 967 965 1032
3 1033 967 1032
3 969 967 1033
3 1034 969 1033
3 971 969 1034
3 1035 971 1034
3 973 971 1035
3 935 973 1017
3 1017 973 1035
3 1036 1037 975
3 975 1037 1038
3 975 1039 1036
3 975 978 1039
3 978 1040 1039
3 978 979 1040
3 979 1041 1040
3 979 980 1041
3 980 1042 1041
3 980 981 1042
3 981 1043 1042
3 981 982 1043
3 982 1044 1043
3 982 983 1044
3 983 1045 1044
3 983 984 1045
3 984 1046 1045
3 984 985 1046
3 985 1047 1046
3 985 986 1047
3 986 1048 1047
3 986 987 1048
3 987 1049 1048
3 987 988 1049
3 988 1050 1049
3 988 989 1050
3 989 1051 1050
3 989 990 1051
3 990 1052 1051
3 990 991 1052
3 991 1053 1052
3 991 992 1053
3 992 1054 1053
3 992 993 1054
3 993 1055 1054
3 993 994 1055
3 994 995 1055
3 1055 995 1056
3 1057 1038 1037
3 1057 1058 1038
3 995 1059 1056
3 997 1059 995
3 1060 1058 1057
3 1060 998 1058
3 997 1061 1059
3 1000 1061 997
3 1062 998 1060
3 1062 1063 998
3 1000 1064 1061
3 1003 1064 1000
3 1065 1063 1062
3 1065 1004 1063
3 1003 1066 1064
3 1006 1066 1003
3 1067 1004 1065
3 1067 1068 1004
3 1006 1069 1066
3 1009 1069 1006
3 1070 1068 1067
3 1070 1071 1068
3 1009 1072 1069
3 1012 1072 1009
3 1073 1071 1070
3 1073 1074 1071
3 1012 1075 1072
3 1014 1075 1012
3 1076 1074 1073
3 1076 1077 1074
3 1014 1078 1075
3 1017 1078 1014
3 1076 1079 1077
3 1077 1079 1018
3 1080 1018 1079
3 1019 1018 1080
3 1081 1019 1080
3 1020 1019 1081
3 1082 1020 1081
3 1021 1020 1082
3 1083 1021 1082
3 1022 1021 1083
3 1084 1022 1083
3 1023 1022 1084
3 1085 1023 1084
3 1024 1023 1085
3 1086 1024 1085
3 1025 1024 1086
3 1087 1025 1086
3 1026 1025 1087
3 1088 1026 1087
3 1027 1026 1088
3 1089 1027 1088
3 1028 1027 1089
3 1090 1028 1089
3 1029 1028 1090
3 1091 1029 1090
3 1030 1029 1091
3 1092 1030 1091
3 1031 1030 1092
3 1093 1031 1092
3 1032 1031 1093
3 1094 1032 1093
3 1033 1032 1094
3 1095 1033 1094
3 1034 1033 1095
3 1096 1034 1095
3 1035 1034 1096
3 1017 1035 1078
3 1078 1035 1096
3 1097 1098 1036
3 1036 1098 1099
3 1036 1100 1097
3 1036 1039 1100
3 1039 1101 1100
3 1039 1040 1101
3 1040 1102 1101
3 1040 1041 1102
3 1041 1103 1102
3 1041 1042 1103
3 1042 1104 1103
3 1042 1043 1104
3 1043 1105 1104
3 1043 1044 1105
3 1044 1106 1105
3 1044 1045 1106
3 1045 1107 1106
3 1045 1046 1107
3 1046 1108 1107
3 1046 1047 1108
3 1047 1109 1108
3 1047 1048 1109
3 1048 1110 1109
3 1048 1049 1110
3 1049 1111 1110
3 1049 1050 1111
3 1050 1112 1111
3 1050 1051 1112
3 1051 1113 1112
3 1051 1052 1113
3 1052 1114 1113
3 1052 1053 1114
3 1053 1115 1114
3 1053 1054 1115
3 1054 1116 1115
3 1054 1055 1116
3 1055 1056 1116
3 1116 1056 1117
3 1118 1099 1098
3 1118 1119 1099
3 1056 1120 1117
3 1059 1120 1056
3 1121 1119 1118
3 1121 1060 1119
3 1059 1122 1120
3 1061 1122 1059
3 1123 1062 1124
3 1062 1121 1124
3 1062 1060 1121
3 1123 1124 1125
3 1123 1125 1126
3 1126 1125 1127
3 1126 1127 1128
3 1128 1127 1129
3 1128 1129 1130
3 1130 1129 1131
3 1130 1131 1132
3 1132 1131 1133
3 1132 1133 1134
3 1135 1133 1136
3 1135 1136 1137
3 1137 1136 1138
3 1137 1138 1139
3 1139 1138 1140
3 1139 1140 1141
3 1141 1140 1142
3 1141 1142 1143
3 1143 1142 1144
3 1143 1144 1145
3 1145 1144 1146
3 1145 1146 1147
3 1147 1146 1148
3 1147 1148 1149
3 1149 1148 1150
3 1149 1150 1151
3 1151 1150 1152
3 1151 1152 1153
3 1153 1152 1154
3 1153 1154 1155
3 1155 1154 1156
3 1155 1156 1157
3 1157 1156 1158
3 1157 1158 1159
3 1158 1122 1159
3 1122 1064 1159
3 1122 1061 1064
3 1062 1123 1160
3 1160 1123 1161
3 1126 1161 1123
3 1126 1162 1161
3 1128 1162 1126
3 1128 1163 1162
3 1130 1163 1128
3 1130 1164 1163
3 1132 1164 1130
3 1132 1165 1164
3 1134 1165 1132
3 1134 1166 1165
3 1137 1166 1135
3 1137 1167 1166
3 1139 1167 1137
3 1139 1168 1167
3 1141 1168 1139
3 1141 1169 1168
3 1143 1169 1141
3 1143 1170 1169
3 1145 1170 1143
3 1145 1171 1170
3 1147 1171 1145
3 1147 1172 1171
3 1149 1172 1147
3 1149 1173 1172
3 1151 1174 1149
3 1151 1175 1174
3 1153 1175 1151
3 1153 1176 1175
3 1155 1177 1153
3 1155 1178 1177
3 1157 1178 1155
3 1157 1179 1178
3 1159 1179 1157
3 1159 1180 1179
3 1159 1064 1180
3 1180 1064 1066
3 1160 1161 1181
3 1181 1161 1182
3 1162 1182 1161
3 1162 1183 1182
3 1163 1183 1162
3 1163 1184 1183
3 1164 1184 1163
3 1164 1185 1184
3 1165 1185 1164
3 1165 1186 1185
3 1166 1186 1165
3 1166 1187 1186
3 1167 1187 1166
3 1167 1188 1187
3 1168 1188 1167
3 1168 1189 1188
3 1169 1189 1168
3 1169 1190 1189
3 1170 1190 1169
3 1170 1191 1190
3 1171 1191 1170
3 1171 1192 1191
3 1172 1192 1171
3 1172 1193 1192
3 1173 1193 1172
3 1173 1194 1193
3 1175 1194 1174
3 1175 1195 1194
3 1176 1195 1175
3 1176 1196 1195
3 1178 1196 1177
3 1178 1197 1196
3 1179 1197 1178
3 1179 1198 1197
3 1180 1198 1179
3 1180 1199 1198
3 1180 1066 1199
3 1199 1066 1069
3 1181 1182 1200
3 1200 1182 1201
3 1183 1201 1182
3 1183 1202 1201
3 1184 1202 1183
3 1184 1203 1202
3 1185 1203 1184
3 1185 1204 1203
3 1186 1204 1185
3 1186 1205 1204
3 1187 1205 1186
3 1187 1206 1205
3 1188 1206 1187
3 1188 1207 1206
3 1189 1207 1188
3 1189 1208 1207
3 1190 1208 1189
3 1190 1209 1208
3 1191 1209 1190
3 1191 1210 1209
3 1192 1210 1191
3 1192 1211 1210
3 1193 1211 1192
3 1193 1212 1211
3 1194 1212 1193
3 1194 1213 1212
3 1195 1213 1194
3 1195 1214 1213
3 1196 1214 1195
3 1196 1215 1214
3 1197 1215 1196
3 1197 1216 1215
3 1198 1216 1197
3 1198 1217 1216
3 1199 1217 1198
3 1199 1218 1217
3 1199 1069 1218
3 1218 1069 1072
3 1200 1201 1073
3 1073 1201 1219
3 1202 1219 1201
3 1202 1220 1219
3 1203 1220 1202
3 1203 1221 1220
3 1204 1221 1203
3 1204 1222 1221
3 1205 1222 1204
3 1205 1223 1222
3 1206 1223 1205
3 1206 1224 1223
3 1207 1224 1206
3 1207 1225 1224
3 1208 1225 1207
3 1208 1226 1225
3 1209 1226 1208
3 1209 1227 1226
3 1210 1227 1209
3 1210 1228 1227
3 1211 1228 1210
3 1211 1229 1228
3 1212 1230 1211
3 1212 1231 1230
3 1213 1231 1212
3 1213 1232 1231
3 1214 1232 1213
3 1214 1233 1232
3 1215 1233 1214
3 1215 1234 1233
3 1216 1234 1215
3 1216 1235 1234
3 1217 1235 1216
3 1217 1236 1235
3 1218 1236 1217
3 1218 1237 1236
3 1218 1072 1237
3 1237 1072 1075
3 1073 1219 1076
3 1076 1219 1238
3 1220 1238 1219
3 1220 1239 1238
3 1221 1240 1220
3 1221 1241 1240
3 1222 1241 1221
3 1222 1242 1241
3 1223 1242 1222
3 1223 1243 1242
3 1224 1243 1223
3 1224 1244 1243
3 1225 1244 1224
3 1225 1245 1244
3 1226 1245 1225
3 1226 1246 1245
3 1227 1246 1226
3 1227 1247 1246
3 1228 1247 1227
3 1228 1248 1247
3 1229 1248 1228
3 1229 1249 1248
3 1231 1249 1230
3 1231 1250 1249
3 1232 1250 1231
3 1232 1251 1250
3 1233 1251 1232
3 1233 1252 1251
3 1234 1252 1233
3 1234 1253 1252
3 1235 1253 1234
3 1235 1254 1253
3 1236 1254 1235
3 1236 1255 1254
3 1237 1255 1236
3 1237 1256 1255
3 1237 1075 1256
3 1256 1075 1078
3 1238 1079 1076
3 1239 1080 1238
3 1238 1080 1079
3 1241 1081 1240
3 1240 1081 1080
3 1242 1082 1241
3 1241 1082 1081
3 1243 1083 1242
3 1242 1083 1082
3 1244 1084 1243
3 1243 1084 1083
3 1245 1085 1244
3 1244 1085 1084
3 1246 1086 1245
3 1245 1086 1085
3 1247 1087 1246
3 1246 1087 1086
3 1248 1088 1247
3 1247 1088 1087
3 1249 1089 1248
3 1248 1089 1088
3 1250 1090 1249
3 1249 1090 1089
3 1251 1091 1250
3 1250 1091 1090
3 1252 1092 1251
3 1251 1092 1091
3 1253 1093 1252
3 1252 1093 1092
3 1254 1094 1253
3 1253 1094 1093
3 1255 1095 1254
3 1254 1095 1094
3 1256 1096 1255
3 1255 1096 1095
3 1078 1096 1256
3 1097 1257 1258
3 1257 1097 1259
3 1259 1097 1100
3 1259 1100 1260
3 1260 1100 1101
3 1260 1101 1261
3 1261 1101 1102
3 1261 1102 1262
3 1262 1102 1103
3 1263 1103 1264
3 1264 1103 1104
3 1264 1104 1265
3 1265 1104 1105
3 1265 1105 1266
3 1266 1105 1106
3 1266 1106 1267
3 1267 1106 1107
3 1267 1107 1268
3 1268 1107 1108
3 1268 1108 1269
3 1269 1108 1109
3 1269 1109 1270
3 1270 1109 1110
3 1270 1110 1271
3 1271 1110 1111
3 1271 1111 1272
3 1272 1111 1112
3 1272 1112 1273
3 1273 1112 1113
3 1273 1113 1274
3 1274 1113 1114
3 1274 1114 1275
3 1275 1114 1115
3 1275 1115 1276
3 1276 1115 1116
3 1116 1117 1276
3 1258 1257 1118
3 1118 1257 1277
3 1259 1277 1257
3 1259 1278 1277
3 1260 1278 1259
3 1260 1279 1278
3 1261 1279 1260
3 1261 1280 1279
3 1262 1280 1261
3 1262 1281 1280
3 1264 1281 1263
3 1264 1282 1281
3 1265 1282 1264
3 1265 1283 1282
3 1266 1283 1265
3 1266 1284 1283
3 1267 1284 1266
3 1267 1285 1284
3 1268 1285 1267
3 1268 1286 1285
3 1269 1286 1268
3 1269 1287 1286
3 1270 1287 1269
3 1270 1288 1287
3 1271 1288 1270
3 1271 1289 1288
3 1272 1289 1271
3 1272 1290 1289
3 1273 1290 1272
3 1273 1291 1290
3 1274 1291 1273
3 1274 1292 1291
3 1275 1292 1274
3 1275 1293 1292
3 1276 1293 1275
3 1276 1294 1293
3 1276 1117 1294
3 1294 1117 1120
3 1118 1277 1121
3 1121 1277 1295
3 1278 1295 1277
3 1278 1296 1295
3 1279 1296 1278
3 1279 1297 1296
3 1280 1297 1279
3 1280 1298 1297
3 1281 1298 1280
3 1281 1299 1298
3 1282 1299 1281
3 1282 1300 1299
3 1283 1300 1282
3 1283 1301 1300
3 1284 1301 1283
3 1284 1302 1301
3 1285 1302 1284
3 1285 1303 1302
3 1286 1303 1285
3 1286 1304 1303
3 1287 1304 1286
3 1287 1305 1304
3 1288 1305 1287
3 1288 1306 1305
3 1289 1306 1288
3 1289 1307 1306
3 1290 1307 1289
3 1290 1308 1307
3 1291 1308 1290
3 1291 1309 1308
3 1292 1309 1291
3 1292 1310 1309
3 1293 1310 1292
3 1293 1311 1310
3 1294 1311 1293
3 1294 1312 1311
3 1294 1120 1312
3 1312 1120 1313
3 1295 1124 1121
3 1296 1125 1295
3 1295 1125 1124
3 1297 1127 1296
3 1296 1127 1125
3 1298 1129 1297
3 1297 1129 1127
3 1299 1131 1298
3 1298 1131 1129
3 1300 1133 1299
3 1299 1133 1131
3 1301 1136 1300
3 1300 1136 1133
3 1302 1138 1301
3 1301 1138 1136
3 1303 1140 1302
3 1302 1140 1138
3 1304 1142 1303
3 1303 1142 1140
3 1305 1144 1304
3 1304 1144 1142
3 1306 1146 1305
3 1305 1146 1144
3 1307 1148 1306
3 1306 1148 1146
3 1308 1150 1307
3 1307 1150 1148
3 1309 1152 1308
3 1308 1152 1150
3 1310 1154 1309
3 1309 1154 1152
3 1311 1156 1310
3 1310 1156 1154
3 1312 1158 1311
3 1311 1158 1156
3 1313 1158 1312
