ply
format ascii 1.0
element vertex 1316
property float x
property float y
property float z
element face 2216
property list uchar int vertex_index
end_header
0.564213 1 1
1 1 0.564213
1 0.565019 1
1 1 0.564213
2 0.564971 1
2 1 0.564165
2 1 0.564165
3 0.564925 1
3 1 0.564119
4 0.564886 1
4 1 0.564079
4 1 0.564079
5 0.564855 1
5 1 0.564047
6 0.564833 1
6 1 0.564025
7 0.564821 1
7 1 0.564011
8 0.564816 1
8 1 0.564007
9 0.564819 1
9 1 0.564009
10 0.564828 1
10 1 0.564017
11 0.564841 1
11 1 0.56403
12 0.564857 1
12 1 0.564046
13 0.564875 1
13 1 0.564064
13 1 0.564064
14 0.564896 1
14 1 0.564084
14 1 0.564084
15 0.564917 1
15 1 0.564105
15 1 0.564105
16 0.564939 1
16 1 0.564127
16 1 0.564127
17 0.564964 1
17 1 0.564152
17 1 0.564152
18 0.564977 1
18 1 0.564165
18.4358 1 1
0.503538 2 1
1 2 0.503538
1 2 0.503538
2 2 0.503486
2 2 0.503486
3 2 0.503427
3 2 0.503427
4 2 0.503368
4 2 0.503368
5 2 0.503314
6 2 0.503268
7 2 0.503232
7 2 0.503232
8 2 0.503206
9 2 0.50319
10 2 0.503182
10 2 0.503182
11 2 0.503181
11 2 0.503181
12 2 0.503185
13 2 0.503194
14 2 0.503206
15 2 0.503221
15 2 0.503221
16 2 0.503237
16 2 0.503237
17 2 0.503257
17 2 0.503257
18 2 0.503268
18 2 0.503268
18.4967 2 1
0.434518 3 1
1 3 0.434518
1 3 0.434518
2 3 0.434453
3 3 0.43437
3 3 0.43437
4 3 0.434281
4 3 0.434281
5 3 0.434193
5 3 0.434193
6 3 0.434114
6 3 0.434114
7 3 0.434048
7 3 0.434048
8 3 0.433997
8 3 0.433997
9 3 0.433959
9 3 0.433959
10 3 0.433934
10 3 0.433934
11 3 0.43392
11 3 0.43392
12 3 0.433913
13 3 0.433913
14 3 0.433917
15 3 0.433926
16 3 0.433937
16 3 0.433937
17 3 0.433953
17 3 0.433953
18 3 0.433962
18 3 0.433962
18.566 3 1
0.64626 4 1
1 4 0.654638
2 4 0.654543
2 4 0.654543
3 4 0.65446
3 4 0.65446
4 4 0.654396
4 4 0.654396
5 4 0.654352
6 4 0.654329
6 4 0.654329
7 4 0.654324
8 4 0.654333
9 4 0.654352
9 4 0.654352
10 4 0.654378
10 4 0.654378
11 4 0.654407
12 4 0.654438
13 4 0.65447
13 4 0.65447
14 4 0.654503
14 4 0.654503
15 4 0.654536
16 4 0.654569
17 4 0.654605
18 4 0.654624
18.3538 4 1
0.647818 5 1
1 5 0.647817
2 5 0.647671
2 5 0.647671
3 5 0.647526
3 5 0.647526
4 5 0.647402
4 5 0.647402
5 5 0.647305
6 5 0.64724
6 5 0.64724
7 5 0.647203
7 5 0.647203
8 5 0.64719
9 5 0.647194
10 5 0.647209
11 5 0.647231
11 5 0.647231
12 5 0.647257
12 5 0.647257
13 5 0.647285
14 5 0.647315
14 5 0.647315
15 5 0.647346
15 5 0.647346
16 5 0.647378
17 5 0.647413
18 5 0.647432
18.3526 5 1
0.600211 6 1
1 6 0.60021
1 6 0.60021
2 6 0.599969
3 6 0.599694
3 6 0.599694
4 6 0.599438
4 6 0.599438
5 6 0.599219
6 6 0.599053
7 6 0.598943
8 6 0.59888
9 6 0.59885
9 6 0.59885
10 6 0.598842
10 6 0.598842
11 6 0.598848
11 6 0.598848
12 6 0.598863
12 6 0.598863
13 6 0.598883
14 6 0.598906
14 6 0.598906
15 6 0.598932
16 6 0.59896
16 6 0.59896
17 6 0.598992
17 6 0.598992
18 6 0.599009
18.401 6 1
0.51415 7 1
1 7 0.51415
1 7 0.51415
2 7 0.5137
3 7 0.51313
4 7 0.512599
4 7 0.512599
5 7 0.512128
5 7 0.512128
6 7 0.511769
7 7 0.511534
8 7 0.511397
8 7 0.511397
9 7 0.511327
9 7 0.511327
10 7 0.511299
10 7 0.511299
11 7 0.511294
11 7 0.511294
12 7 0.511303
12 7 0.511303
13 7 0.51132
13 7 0.51132
14 7 0.511343
15 7 0.511369
16 7 0.511396
16 7 0.511396
17 7 0.511425
17 7 0.511425
18 7 0.511441
18 7 0.511441
18.4886 7 1
0.388058 8 1
1 8 0.388058
1 8 0.388058
2 8 0.387192
2 8 0.387192
3 8 0.386024
3 8 0.386024
4 8 0.385008
4 8 0.385008
5 8 0.384106
5 8 0.384106
6 8 0.383451
7 8 0.383063
8 8 0.382868
8 8 0.382868
9 8 0.382785
9 8 0.382785
10 8 0.382765
11 8 0.382774
12 8 0.382799
12 8 0.382799
13 8 0.382832
13 8 0.382832
14 8 0.382869
14 8 0.382869
15 8 0.382905
15 8 0.382905
16 8 0.382938
16 8 0.382938
17 8 0.38297
17 8 0.38297
18 8 0.382985
18.617 8 1
0.645464 9 1
1 9 0.645463
1 9 0.645463
2 9 0.644057
2 9 0.644057
3 9 0.642822
3 9 0.642822
4 9 0.64212
4 9 0.64212
5 9 0.6416
5 9 0.6416
6 9 0.64142
6 9 0.64142
7 9 0.641483
7 9 0.641483
8 9 0.641634
9 9 0.641791
9 9 0.641791
10 9 0.641931
10 9 0.641931
11 9 0.642045
11 9 0.642045
12 9 0.642141
13 9 0.642223
13 9 0.642223
14 9 0.642294
14 9 0.642294
15 9 0.642355
16 9 0.642407
16 9 0.642407
17 9 0.642455
18 9 0.642481
18.3575 9 1
0.498149 10 1
1 10 0.498144
1 10 0.498144
2 10 0.493551
2 10 0.493551
3 10 0.488529
3 10 0.488529
4 10 0.486326
4 10 0.486326
5 10 0.484543
5 10 0.484543
6 10 0.483882
7 10 0.483968
7 10 0.483968
8 10 0.484259
8 10 0.484259
9 10 0.484554
9 10 0.484554
10 10 0.484812
11 10 0.485022
11 10 0.485022
12 10 0.485195
13 10 0.485338
13 10 0.485338
14 10 0.485453
14 10 0.485453
15 10 0.485544
15 10 0.485544
16 10 0.485615
16 10 0.485615
17 10 0.485669
17 10 0.485669
18 10 0.485695
18 10 0.485695
18.5143 10 1
0.653254 11 1
1 11 0.653247
2 11 0.646942
3 11 0.640489
3 11 0.640489
4 11 0.64083
4 11 0.64083
5 11 0.641247
5 11 0.641247
6 11 0.64248
6 11 0.64248
7 11 0.643639
8 11 0.644474
8 11 0.644474
9 11 0.645058
9 11 0.645058
10 11 0.645464
10 11 0.645464
11 11 0.645747
12 11 0.645955
13 11 0.646112
13 11 0.646112
14 11 0.646231
14 11 0.646231
15 11 0.64632
16 11 0.646387
16 11 0.646387
17 11 0.646438
17 11 0.646438
18 11 0.646461
18 11 0.646461
18.3535 11 1
1 11.3429 1
2 11.3493 1
3 11.3557 1
4 11.3552 1
5 11.3547 1
6 11.3534 1
7 11.3522 1
8 11.3514 1
9 11.3508 1
10 11.3504 1
11 11.3501 1
12 11.3499 1
13 11.3497 1
14 11.3496 1
15 11.3495 1
16 11.3494 1
17 11.3494 1
18 11.3494 1
1 0.601947 2
0.601128 1 2
0.564213 1 1
2 0.601896 2
3 0.60185 2
4 0.601811 2
5 0.601781 2
6 0.601762 2
7 0.601753 2
8 0.601752 2
9 0.601758 2
10 0.601771 2
11 0.601787 2
12 0.601806 2
13 0.601828 2
14 0.601851 2
15 0.601875 2
16 0.6019 2
17 0.601927 2
18 0.601942 2
18.3989 1 2
0.537075 2 2
18.4632 2 2
0.464635 3 2
18.5359 3 2
0.385391 4 2
18.6155 4 2
0.691388 5 2
0.647818 5 1
18.3089 5 2
0.655285 6 2
0.600211 6 1
18.3458 6 2
0.567253 7 2
18.4351 7 2
0.445778 8 2
18.5587 8 2
0.714472 9 2
18.2877 9 2
0.506845 10 2
18.4933 10 2
1 11 1.54607
0.653254 11 1
1 10.6337 2
2 10.6363 2
2 11 1.55319
2 11 1.55319
3 10.637 2
3 11 1.5594
4 10.6368 2
4 11 1.55886
4 11 1.55886
5 10.6378 2
5 11 1.55895
6 10.638 2
6 11 1.55784
6 11 1.55784
7 10.6376 2
7 11 1.55658
7 11 1.55658
8 10.6372 2
8 11 1.55561
9 10.637 2
9 11 1.55495
10 10.6368 2
10 11 1.55447
10 11 1.55447
11 10.6366 2
11 11 1.55413
12 10.6365 2
12 11 1.55388
12 11 1.55388
13 10.6364 2
13 11 1.55369
14 10.6363 2
14 11 1.55353
15 10.6362 2
15 11 1.55342
16 10.6362 2
16 11 1.55333
17 10.6361 2
17 11 1.55326
17 11 1.55326
18 10.6361 2
18 11 1.55322
1 0.617906 3
0.617275 1 3
0.601128 1 2
2 0.617857 3
3 0.617812 3
4 0.617775 3
5 0.617747 3
6 0.617729 3
7 0.61772 3
8 0.617719 3
9 0.617726 3
10 0.617738 3
11 0.617754 3
12 0.617774 3
13 0.617796 3
14 0.617819 3
15 0.617844 3
16 0.617869 3
17 0.617897 3
18 0.617911 3
18.3827 1 3
0.554007 2 3
0.537075 2 2
18.4462 2 3
0.48396 3 3
18.5165 3 3
0.40808 4 3
18.5927 4 3
0.720315 5 3
0.691388 5 2
18.28 5 3
0.681375 6 3
18.3195 6 3
0.442994 7 3
0.567253 7 2
18.5566 7 3
0.414549 8 3
0.445778 8 2
18.5853 8 3
0.362869 9 3
18.6378 9 3
0.640692 10 3
18.3582 10 3
1 10.3604 3
2 10.3602 3
3 10.3596 3
4 10.3599 3
5 10.3598 3
6 10.36 3
7 10.36 3
8 10.3598 3
9 10.3598 3
10 10.3595 3
11 10.3596 3
12 10.3596 3
13 10.3595 3
14 10.3595 3
15 10.3595 3
16 10.3594 3
17 10.3594 3
18 10.3594 3
1 0.413007 4
0.412651 1 4
0.617275 1 3
2 0.412985 4
3 0.412973 4
4 0.412969 4
5 0.412974 4
6 0.412987 4
7 0.413006 4
8 0.413029 4
9 0.413055 4
10 0.413082 4
11 0.413109 4
12 0.413136 4
13 0.413162 4
14 0.413186 4
15 0.413209 4
16 0.41323 4
17 0.413251 4
18 0.413261 4
18.5871 1 4
0.377844 2 4
0.554007 2 3
18.622 2 4
0.34063 3 4
0.48396 3 3
18.6593 3 4
0.300292 4 4
0.40808 4 3
18.6997 4 4
0.509617 5 4
0.720315 5 3
18.4898 5 4
0.533059 6 4
0.681375 6 3
18.4662 6 4
0.534357 7 4
0.442994 7 3
18.4649 7 4
0.520268 8 4
0.414549 8 3
18.479 8 4
0.485152 9 4
18.5146 9 4
0.417127 10 4
18.5869 10 4
1 10.5829 4
2 10.5844 4
3 10.5834 4
4 10.5825 4
5 10.5819 4
6 10.5832 4
7 10.5861 4
8 10.5868 4
9 10.5875 4
10 10.5875 4
11 10.5877 4
12 10.5876 4
13 10.5874 4
14 10.5873 4
15 10.5871 4
16 10.587 4
17 10.587 4
18 10.5869 4
1 0.463396 5
0.463092 1 5
0.412651 1 4
2 0.463376 5
3 0.463364 5
4 0.463361 5
5 0.463367 5
6 0.463379 5
7 0.463398 5
8 0.463421 5
9 0.463447 5
10 0.463474 5
11 0.463502 5
12 0.463529 5
13 0.463556 5
14 0.46358 5
15 0.463604 5
16 0.463625 5
17 0.463647 5
18 0.463657 5
18.5366 1 5
0.42957 2 5
0.377844 2 4
18.5702 2 5
0.395048 3 5
0.34063 3 4
18.6048 3 5
0.358679 4 5
18.6412 4 5
0.566144 5 5
18.4333 5 5
0.599888 6 5
18.3994 6 5
0.612033 7 5
0.534357 7 4
18.3872 7 5
0.609444 8 5
0.520268 8 4
18.3897 8 5
0.58737 9 5
0.485152 9 4
18.4117 9 5
0.537263 10 5
18.4639 10 5
1 10.4627 5
2 10.4636 5
3 10.4641 5
4 10.4634 5
5 10.4615 5
6 10.4613 5
7 10.4621 5
8 10.4626 5
9 10.4628 5
10 10.4628 5
11 10.4648 5
12 10.4824 5
13 10.4647 5
14 10.4643 5
15 10.4642 5
16 10.4641 5
17 10.464 5
18 10.4639 5
1 0.506624 6
0.506379 1 6
0.463092 1 5
2 0.506606 6
3 0.506595 6
4 0.506592 6
5 0.506597 6
6 0.506608 6
7 0.506624 6
8 0.506645 6
9 0.506668 6
10 0.506693 6
11 0.506719 6
12 0.506745 6
13 0.50677 6
14 0.506794 6
15 0.506817 6
16 0.506838 6
17 0.506859 6
18 0.50687 6
18.4934 1 6
0.475005 2 6
18.5248 2 6
0.44379 3 6
18.556 3 6
0.41153 4 6
18.5883 4 6
0.378829 5 6
0.566144 5 5
18.621 5 6
0.636112 6 6
0.599888 6 5
18.3633 6 6
0.670847 7 6
0.612033 7 5
18.3285 7 6
0.676896 8 6
18.3223 8 6
0.657675 9 6
0.58737 9 5
18.335 9 6
0.438413 10 6
0.537263 10 5
18.3722 10 6
18.4639 10 5
1 10.5616 6
2 10.575 6
3 10.5769 6
4 10.5788 6
5 10.5741 6
6 10.5707 6
7 10.5756 6
8 10.577 6
9 10.5712 6
10 10.5766 6
11 10.5855 6
12 10.7978 6
13 10.3961 6
14 10.3726 6
15 10.3722 6
16 10.3722 6
17 10.3723 6
18 10.3722 6
1 0.541801 7
0.541613 1 7
0.506379 1 6
2 0.541785 7
3 0.541775 7
4 0.541772 7
5 0.541774 7
6 0.541783 7
7 0.541796 7
8 0.541813 7
9 0.541833 7
10 0.541855 7
11 0.541878 7
12 0.541901 7
13 0.541923 7
14 0.541945 7
15 0.541966 7
16 0.541985 7
17 0.542005 7
18 0.542015 7
18.4582 1 7
0.513125 2 7
0.475005 2 6
18.4867 2 7
0.485629 3 7
18.5142 3 7
0.457953 4 7
0.41153 4 6
18.5419 4 7
0.429493 5 7
18.5703 5 7
0.400667 6 7
18.599 6 7
0.693286 7 7
0.670847 7 6
18.3063 7 7
0.720948 8 7
0.676896 8 6
18.2787 8 7
0.703365 9 7
18.2973 9 7
0.487515 10 7
18.537 10 7
1 10.5125 7
2 10.5257 7
3 10.5274 7
4 10.5251 7
5 10.5223 7
6 10.5256 7
7 10.5281 7
8 10.5247 7
9 10.5252 7
10 10.53 7
11 10.5255 7
12 10.5387 7
13 10.5253 7
14 10.5264 7
15 10.5293 7
16 10.5328 7
17 10.5362 7
18 10.537 7
1 0.569295 8
0.56916 1 8
0.541613 1 7
2 0.569281 8
3 0.569272 8
4 0.569269 8
5 0.56927 8
6 0.569276 8
7 0.569285 8
8 0.569299 8
9 0.569314 8
10 0.569332 8
11 0.569351 8
12 0.56937 8
13 0.56939 8
14 0.569408 8
15 0.569426 8
16 0.569444 8
17 0.569461 8
18 0.56947 8
18.4307 1 8
0.544203 2 8
0.513125 2 7
18.4556 2 8
0.520777 3 8
18.4791 3 8
0.497798 4 8
0.457953 4 7
18.502 4 8
0.474554 5 8
0.429493 5 7
18.5253 5 8
0.450431 6 8
18.5493 6 8
0.425816 7 8
0.693286 7 7
18.5739 7 8
0.718128 8 8
0.720948 8 7
18.2818 8 8
0.462663 9 8
18.5376 9 8
0.516334 10 8
18.5063 10 8
1 10.4829 8
2 10.496 8
3 10.4935 8
4 10.486 8
5 10.4905 8
6 10.5001 8
7 10.4941 8
8 10.4871 8
9 10.4888 8
10 10.4966 8
11 10.4951 8
12 10.4907 8
13 10.4894 8
14 10.4929 8
15 10.4945 8
16 10.5002 8
17 10.5041 8
18 10.506 8
1 0.589987 9
0.589896 1 9
2 0.589975 9
3 0.589967 9
4 0.589963 9
5 0.589964 9
6 0.589968 9
7 0.589974 9
8 0.589984 9
9 0.589996 9
10 0.590011 9
11 0.590026 9
12 0.590041 9
13 0.590057 9
14 0.590072 9
15 0.590087 9
16 0.590101 9
17 0.590116 9
18 0.590124 9
18.41 1 9
0.568978 2 9
18.4309 2 9
0.549896 3 9
0.520777 3 8
18.45 3 9
0.531633 4 9
18.4682 4 9
0.513447 5 9
18.4864 5 9
0.494461 6 9
0.450431 6 8
18.5053 6 9
0.467382 7 9
18.5324 7 9
0.292435 8 9
18.7073 8 9
0.315765 9 9
18.6847 9 9
1 10 8.80553
0.516334 10 8
1 9.85445 9
2 9.86036 9
2 10 8.81706
3 9.85924 9
3 10 8.81487
4 9.85577 9
4 10 8.80813
5 9.85796 9
5 10 8.81235
6 9.86239 9
6 10 8.82082
7 9.85962 9
7 10 8.81549
8 9.8565 9
8 10 8.80935
9 9.85729 9
9 10 8.8109
10 9.86075 9
10 10 8.81767
11 9.85994 9
11 10 8.81625
12 9.85757 9
12 10 8.81176
13 9.85737 9
13 10 8.81126
14 9.85915 9
14 10 8.81452
15 9.85999 9
15 10 8.81602
16 9.86272 9
16 10 8.82112
17 9.86461 9
17 10 8.82457
18 9.86556 9
18 10 8.8263
1 0.604977 10
0.604922 1 10
0.589896 1 9
2 0.604966 10
3 0.60496 10
4 0.604957 10
5 0.604957 10
6 0.60496 10
7 0.604964 10
8 0.604971 10
9 0.604981 10
10 0.604992 10
11 0.605004 10
12 0.605016 10
13 0.605028 10
14 0.60504 10
15 0.605051 10
16 0.605063 10
17 0.605075 10
18 0.605081 10
18.395 1 10
0.588379 2 10
0.568978 2 9
18.4115 2 10
0.573813 3 10
18.4261 3 10
0.560274 4 10
0.531633 4 9
18.4396 4 10
0.546988 5 10
18.4529 5 10
0.533003 6 10
0.494461 6 9
18.4668 6 10
0.511033 7 10
18.4888 7 10
0.335193 8 10
18.6647 8 10
0.360979 9 10
0.315765 9 9
18.6396 9 10
1 9.6543 10
2 9.65486 10
3 9.65498 10
4 9.65459 10
5 9.65486 10
6 9.65541 10
7 9.65526 10
8 9.65485 10
9 9.65471 10
10 9.65503 10
11 9.65501 10
12 9.65482 10
13 9.65485 10
14 9.65512 10
15 9.65526 10
16 9.65565 10
17 9.65597 10
18 9.65613 10
1 0.615458 11
0.61543 1 11
0.604922 1 10
2 0.615447 11
3 0.615442 11
4 0.615442 11
5 0.615443 11
6 0.615446 11
7 0.615448 11
8 0.615453 11
9 0.61546 11
10 0.615469 11
11 0.615479 11
12 0.615489 11
13 0.615499 11
14 0.615506 11
15 0.615515 11
16 0.615524 11
17 0.615533 11
18 0.615538 11
18.3845 1 11
0.603442 2 11
18.3965 2 11
0.593481 3 11
0.573813 3 10
18.4064 3 11
18.4261 3 10
0.584643 4 11
0.560274 4 10
18.4153 4 11
0.576094 5 11
18.4238 5 11
0.566661 6 11
18.4332 6 11
0.544641 7 11
18.4552 7 11
0.370834 8 11
0.335193 8 10
18.629 8 11
0.398439 9 11
0.360979 9 10
18.6021 9 11
1 9.602 11
2 9.6022 11
3 9.60241 11
4 9.60226 11
5 9.60221 11
6 9.60231 11
7 9.60229 11
8 9.60204 11
9 9.60201 11
10 9.60229 11
11 9.60239 11
12 9.60235 11
13 9.60222 11
14 9.60229 11
15 9.60235 11
16 9.60247 11
17 9.60257 11
18 9.60263 11
1 0.62226 12
0.622249 1 12
2 0.62224 12
3 0.622237 12
4 0.62224 12
5 0.622245 12
6 0.622252 12
7 0.622247 12
8 0.62225 12
9 0.622257 12
10 0.622263 12
11 0.622273 12
12 0.62228 12
13 0.622288 12
14 0.622291 12
15 0.622296 12
16 0.622302 12
17 0.62231 12
18 0.622314 12
18.3777 1 12
0.614841 2 12
0.603442 2 11
18.3851 2 12
0.609481 3 12
18.3905 3 12
0.605272 4 12
0.584643 4 11
18.3947 4 12
0.601189 5 12
0.576094 5 11
18.3987 5 12
0.587899 6 12
0.566661 6 11
18.412 6 12
0.369754 7 12
18.6301 7 12
0.398412 8 12
18.6014 8 12
0.428264 9 12
0.398439 9 11
18.5724 9 12
1 9.5715 12
2 9.57152 12
3 9.57152 12
4 9.57157 12
5 9.5717 12
6 9.57176 12
7 9.57168 12
8 9.57165 12
9 9.57181 12
10 9.57191 12
11 9.5718 12
12 9.57168 12
13 9.57161 12
14 9.57171 12
15 9.5718 12
16 9.57194 12
17 9.57205 12
18 9.57215 12
1 0.627213 13
0.627211 1 13
0.622249 1 12
2 0.627132 13
3 0.627154 13
4 0.627159 13
5 0.627172 13
6 0.627214 13
7 0.627165 13
8 0.627177 13
9 0.627177 13
10 0.627184 13
11 0.627213 13
12 0.627201 13
13 0.627208 13
14 0.627207 13
15 0.627207 13
16 0.627215 13
17 0.627223 13
18 0.627226 13
18.3728 1 13
0.623502 2 13
0.614841 2 12
18.3768 2 13
0.621648 3 13
18.3788 3 13
0.620963 4 13
0.605272 4 12
18.3797 4 13
0.620455 5 13
0.601189 5 12
18.3804 5 13
0.61865 6 13
0.587899 6 12
18.3823 6 13
1 7 12.768
1 6.66677 13
2 6.66746 13
2 7 12.7682
3 6.66762 13
3 7 12.7682
4 6.66711 13
4 7 12.768
5 6.66755 13
5 7 12.7682
6 6.66722 13
6 7 12.7681
7 6.66752 13
7 7 12.7682
8 6.66774 13
8 7 12.7682
9 6.66774 13
9 7 12.7682
10 6.66772 13
10 7 12.7682
11 6.6673 13
11 7 12.7681
12 6.6675 13
12 7 12.7681
13 6.66743 13
13 7 12.7681
14 6.66749 13
14 7 12.7681
15 6.66757 13
15 7 12.7682
16 6.66758 13
16 7 12.7682
17 6.66768 13
17 7 12.7682
18 6.66771 13
18 7 12.7682
0.398412 8 12
1 8 12.6123
2 8 12.6122
3 8 12.6121
4 8 12.6122
5 8 12.6122
6 8 12.6122
7 8 12.6122
8 8 12.6122
9 8 12.6122
10 8 12.6122
10 8 12.6122
11 8 12.6122
12 8 12.6122
13 8 12.6122
14 8 12.6122
15 8 12.6122
16 8 12.6122
17 8 12.6122
18 8 12.6122
0.428264 9 12
1 9 12.5719
2 9 12.5719
3 9 12.5719
4 9 12.5719
5 9 12.572
6 9 12.5721
7 9 12.572
8 9 12.572
8 9 12.572
9 9 12.5722
10 9 12.5723
11 9 12.5722
12 9 12.572
13 9 12.572
14 9 12.5721
15 9 12.5721
16 9 12.5723
17 9 12.5724
18 9 12.5725
1 1 13.3728
0.627211 1 13
2 1 13.3729
3 1 13.3728
4 1 13.3728
5 1 13.3728
6 1 13.3728
7 1 13.3728
8 1 13.3728
9 1 13.3728
10 1 13.3728
11 1 13.3728
12 1 13.3728
13 1 13.3728
14 1 13.3728
15 1 13.3728
16 1 13.3728
17 1 13.3728
18 1 13.3728
0.623502 2 13
1 2 13.3765
2 2 13.3767
3 2 13.3768
4 2 13.3767
5 2 13.3768
6 2 13.3766
7 2 13.3767
8 2 13.3767
9 2 13.3767
10 2 13.3768
11 2 13.3767
12 2 13.3767
13 2 13.3767
14 2 13.3767
15 2 13.3768
16 2 13.3767
17 2 13.3767
18 2 13.3767
1 3 13.3783
2 3 13.3787
3 3 13.3788
4 3 13.3786
5 3 13.3787
6 3 13.3785
7 3 13.3786
8 3 13.3788
9 3 13.3786
10 3 13.3787
11 3 13.3787
12 3 13.3787
13 3 13.3785
14 3 13.3787
15 3 13.3787
16 3 13.3788
17 3 13.3788
18 3 13.3787
0.620963 4 13
1 4 13.379
2 4 13.3795
3 4 13.3797
4 4 13.3794
5 4 13.3796
6 4 13.3792
7 4 13.3794
8 4 13.3797
9 4 13.3795
10 4 13.3795
11 4 13.3796
12 4 13.3796
13 4 13.3794
14 4 13.3796
15 4 13.3796
16 4 13.3796
17 4 13.3796
18 4 13.3796
0.620455 5 13
1 5 13.3795
2 5 13.3801
3 5 13.3804
4 5 13.38
5 5 13.3803
6 5 13.3797
7 5 13.3802
8 5 13.3804
9 5 13.3804
10 5 13.3801
11 5 13.3802
12 5 13.3803
13 5 13.38
14 5 13.3802
15 5 13.3803
16 5 13.3803
17 5 13.3803
18 5 13.3804
0.61865 6 13
1 6 13.381
2 6 13.3817
3 6 13.3819
4 6 13.3814
5 6 13.3818
6 6 13.3815
7 6 13.3818
8 6 13.382
9 6 13.382
10 6 13.382
11 6 13.3816
12 6 13.3818
13 6 13.3817
13 6 13.3817
14 6 13.3818
15 6 13.3819
16 6 13.3819
17 6 13.382
18 6 13.382
3 0 1 2
3 2 3 4
3 4 3 5
3 4 6 7
3 7 6 8
3 7 8 9
3 9 8 10
3 9 11 12
3 12 11 13
3 12 13 14
3 14 13 15
3 14 15 16
3 16 15 17
3 16 17 18
3 18 17 19
3 18 19 20
3 20 19 21
3 20 21 22
3 22 21 23
3 22 23 24
3 24 23 25
3 24 25 26
3 26 25 27
3 26 27 28
3 28 27 29
3 28 30 31
3 31 30 32
3 31 33 34
3 34 33 35
3 34 36 37
3 37 36 38
3 37 39 40
3 40 39 41
3 40 42 43
3 43 42 44
3 44 45 43
3 46 47 0
3 0 47 1
3 48 5 3
3 49 5 48
3 50 8 6
3 51 8 50
3 52 10 8
3 53 10 52
3 54 13 11
3 55 13 54
3 55 15 13
3 56 15 55
3 56 17 15
3 57 17 56
3 58 19 17
3 59 19 58
3 59 21 19
3 60 21 59
3 60 23 21
3 61 23 60
3 62 25 23
3 63 25 62
3 64 27 25
3 65 27 64
3 65 29 27
3 66 29 65
3 66 32 30
3 67 32 66
3 67 35 33
3 68 35 67
3 69 38 36
3 70 38 69
3 71 41 39
3 72 41 71
3 73 44 42
3 74 44 73
3 75 76 44
3 44 76 45
3 77 78 46
3 46 78 47
3 79 49 48
3 80 49 79
3 80 51 50
3 81 51 80
3 82 53 52
3 83 53 82
3 84 55 54
3 85 55 84
3 86 56 55
3 87 56 86
3 88 57 56
3 89 57 88
3 90 59 58
3 91 59 90
3 92 60 59
3 93 60 92
3 94 61 60
3 95 61 94
3 96 63 62
3 97 63 96
3 98 65 64
3 99 65 98
3 99 66 65
3 100 66 99
3 100 67 66
3 101 67 100
3 101 68 67
3 102 68 101
3 102 70 69
3 103 70 102
3 104 72 71
3 105 72 104
3 106 74 73
3 107 74 106
3 108 109 75
3 75 109 76
3 110 111 77
3 77 111 78
3 111 80 79
3 112 80 111
3 113 81 80
3 114 81 113
3 115 83 82
3 116 83 115
3 117 85 84
3 118 85 117
3 118 87 86
3 119 87 118
3 120 89 88
3 121 89 120
3 121 91 90
3 122 91 121
3 122 93 92
3 123 93 122
3 124 95 94
3 125 95 124
3 126 97 96
3 127 97 126
3 127 99 98
3 128 99 127
3 128 100 99
3 129 100 128
3 130 101 100
3 131 101 130
3 132 102 101
3 133 102 132
3 133 103 102
3 134 103 133
3 134 105 104
3 135 105 134
3 135 107 106
3 136 107 135
3 136 137 108
3 108 137 109
3 138 139 110
3 110 139 111
3 139 112 111
3 140 112 139
3 141 114 113
3 142 114 141
3 143 116 115
3 144 116 143
3 145 118 117
3 146 118 145
3 146 119 118
3 147 119 146
3 148 121 120
3 149 121 148
3 150 122 121
3 151 122 150
3 151 123 122
3 152 123 151
3 152 125 124
3 153 125 152
3 153 127 126
3 154 127 153
3 155 128 127
3 156 128 155
3 157 129 128
3 158 129 157
3 158 131 130
3 159 131 158
3 160 133 132
3 161 133 160
3 162 134 133
3 163 134 162
3 163 135 134
3 164 135 163
3 164 136 135
3 165 136 164
3 165 166 136
3 136 166 137
3 167 168 138
3 138 168 139
3 169 140 139
3 170 140 169
3 170 142 141
3 171 142 170
3 172 144 143
3 173 144 172
3 174 146 145
3 175 146 174
3 175 147 146
3 176 147 175
3 176 149 148
3 177 149 176
3 177 151 150
3 178 151 177
3 178 152 151
3 179 152 178
3 180 153 152
3 181 153 180
3 182 154 153
3 183 154 182
3 184 156 155
3 185 156 184
3 186 158 157
3 187 158 186
3 187 159 158
3 188 159 187
3 189 161 160
3 190 161 189
3 190 163 162
3 191 163 190
3 192 164 163
3 193 164 192
3 194 165 164
3 195 165 194
3 195 196 165
3 165 196 166
3 197 198 167
3 167 198 168
3 199 170 169
3 200 170 199
3 200 171 170
3 201 171 200
3 201 173 172
3 202 173 201
3 203 175 174
3 204 175 203
3 205 176 175
3 206 176 205
3 206 177 176
3 207 177 206
3 207 178 177
3 208 178 207
3 209 179 178
3 210 179 209
3 211 181 180
3 212 181 211
3 213 183 182
3 214 183 213
3 215 185 184
3 216 185 215
3 217 187 186
3 218 187 217
3 219 188 187
3 220 188 219
3 220 190 189
3 221 190 220
3 221 191 190
3 222 191 221
3 223 193 192
3 224 193 223
3 225 195 194
3 226 195 225
3 227 228 195
3 195 228 196
3 229 230 197
3 197 230 198
3 231 200 199
3 232 200 231
3 233 201 200
3 234 201 233
3 235 202 201
3 236 202 235
3 237 204 203
3 238 204 237
3 239 206 205
3 240 206 239
3 240 207 206
3 241 207 240
3 241 208 207
3 242 208 241
3 243 210 209
3 244 210 243
3 245 212 211
3 246 212 245
3 246 214 213
3 247 214 246
3 247 216 215
3 248 216 247
3 249 218 217
3 250 218 249
3 251 220 219
3 252 220 251
3 253 221 220
3 254 221 253
3 255 222 221
3 256 222 255
3 257 224 223
3 258 224 257
3 259 226 225
3 260 226 259
3 260 261 227
3 227 261 228
3 262 263 229
3 229 263 230
3 264 232 231
3 265 232 264
3 266 234 233
3 267 234 266
3 268 236 235
3 269 236 268
3 270 238 237
3 271 238 270
3 272 240 239
3 273 240 272
3 274 241 240
3 275 241 274
3 276 242 241
3 277 242 276
3 277 244 243
3 278 244 277
3 279 246 245
3 280 246 279
3 281 247 246
3 282 247 281
3 283 248 247
3 284 248 283
3 284 250 249
3 285 250 284
3 286 252 251
3 287 252 286
3 288 254 253
3 289 254 288
3 289 256 255
3 290 256 289
3 291 258 257
3 292 258 291
3 292 260 259
3 293 260 292
3 293 294 260
3 260 294 261
3 295 296 262
3 262 296 263
3 297 265 264
3 298 265 297
3 299 267 266
3 300 267 299
3 301 269 268
3 302 269 301
3 303 271 270
3 304 271 303
3 305 273 272
3 306 273 305
3 306 275 274
3 307 275 306
3 308 277 276
3 309 277 308
3 310 278 277
3 311 278 310
3 312 280 279
3 313 280 312
3 313 282 281
3 314 282 313
3 315 284 283
3 316 284 315
3 316 285 284
3 317 285 316
3 318 287 286
3 319 287 318
3 320 289 288
3 321 289 320
3 322 290 289
3 323 290 322
3 324 292 291
3 325 292 324
3 326 293 292
3 327 293 326
3 328 329 293
3 293 329 294
3 330 331 295
3 295 331 296
3 331 298 297
3 332 298 331
3 332 300 299
3 333 300 332
3 334 302 301
3 335 302 334
3 336 304 303
3 337 304 336
3 338 306 305
3 339 306 338
3 340 307 306
3 341 307 340
3 341 309 308
3 342 309 341
3 343 311 310
3 344 311 343
3 345 313 312
3 346 313 345
3 347 314 313
3 348 314 347
3 348 316 315
3 349 316 348
3 349 317 316
3 350 317 349
3 351 319 318
3 352 319 351
3 353 321 320
3 354 321 353
3 354 323 322
3 355 323 354
3 356 325 324
3 357 325 356
3 358 327 326
3 359 327 358
3 360 361 328
3 328 361 329
3 362 331 330
3 363 332 362
3 362 332 331
3 364 333 363
3 363 333 332
3 365 335 364
3 364 335 334
3 366 337 365
3 365 337 336
3 367 339 366
3 366 339 338
3 368 341 367
3 367 341 340
3 369 342 368
3 368 342 341
3 370 344 369
3 369 344 343
3 371 346 370
3 370 346 345
3 372 348 371
3 371 348 347
3 373 349 372
3 372 349 348
3 374 350 373
3 373 350 349
3 375 352 374
3 374 352 351
3 376 354 375
3 375 354 353
3 377 355 376
3 376 355 354
3 378 357 377
3 377 357 356
3 379 359 378
3 378 359 358
3 379 361 360
3 380 381 2
3 2 381 382
3 2 383 380
3 2 4 383
3 4 384 383
3 4 7 384
3 7 385 384
3 7 9 385
3 9 386 385
3 9 12 386
3 12 387 386
3 12 14 387
3 14 388 387
3 14 16 388
3 16 389 388
3 16 18 389
3 18 390 389
3 18 20 390
3 20 391 390
3 20 22 391
3 22 392 391
3 22 24 392
3 24 393 392
3 24 26 393
3 26 394 393
3 26 28 394
3 28 395 394
3 28 31 395
3 31 396 395
3 31 34 396
3 34 397 396
3 34 37 397
3 37 398 397
3 37 40 398
3 40 399 398
3 40 43 399
3 43 45 399
3 399 45 400
3 401 382 381
3 401 46 382
3 45 402 400
3 76 402 45
3 403 46 401
3 403 77 46
3 76 404 402
3 109 404 76
3 405 77 403
3 405 110 77
3 109 406 404
3 137 406 109
3 407 110 405
3 407 408 110
3 137 409 406
3 166 409 137
3 410 408 407
3 410 411 408
3 166 412 409
3 196 412 166
3 413 411 410
3 413 197 411
3 196 414 412
3 228 414 196
3 415 197 413
3 415 229 197
3 228 416 414
3 261 416 228
3 417 229 415
3 417 262 229
3 261 418 416
3 294 418 261
3 419 262 417
3 419 295 262
3 294 420 418
3 329 420 294
3 421 422 423
3 422 419 423
3 422 295 419
3 421 423 424
3 421 424 425
3 426 424 427
3 426 427 428
3 428 427 429
3 428 429 430
3 431 429 432
3 431 432 433
3 433 432 434
3 433 434 435
3 436 434 437
3 436 437 438
3 439 437 440
3 439 440 441
3 441 440 442
3 441 442 443
3 443 442 444
3 443 444 445
3 446 444 447
3 446 447 448
3 448 447 449
3 448 449 450
3 451 449 452
3 451 452 453
3 453 452 454
3 453 454 455
3 455 454 456
3 455 456 457
3 457 456 458
3 457 458 459
3 459 458 460
3 459 460 461
3 462 460 463
3 462 463 464
3 463 420 464
3 420 361 464
3 420 329 361
3 421 362 422
3 425 363 421
3 421 363 362
3 428 364 426
3 426 364 363
3 430 365 428
3 428 365 364
3 433 366 431
3 431 366 365
3 435 367 433
3 433 367 366
3 438 368 436
3 436 368 367
3 441 369 439
3 439 369 368
3 443 370 441
3 441 370 369
3 445 371 443
3 443 371 370
3 448 372 446
3 446 372 371
3 450 373 448
3 448 373 372
3 453 374 451
3 451 374 373
3 455 375 453
3 453 375 374
3 457 376 455
3 455 376 375
3 459 377 457
3 457 377 376
3 461 378 459
3 459 378 377
3 464 379 462
3 462 379 378
3 361 379 464
3 465 466 380
3 380 466 467
3 380 468 465
3 380 383 468
3 383 469 468
3 383 384 469
3 384 470 469
3 384 385 470
3 385 471 470
3 385 386 471
3 386 472 471
3 386 387 472
3 387 473 472
3 387 388 473
3 388 474 473
3 388 389 474
3 389 475 474
3 389 390 475
3 390 476 475
3 390 391 476
3 391 477 476
3 391 392 477
3 392 478 477
3 392 393 478
3 393 479 478
3 393 394 479
3 394 480 479
3 394 395 480
3 395 481 480
3 395 396 481
3 396 482 481
3 396 397 482
3 397 483 482
3 397 398 483
3 398 484 483
3 398 399 484
3 399 400 484
3 484 400 485
3 486 467 466
3 486 487 467
3 400 488 485
3 402 488 400
3 489 487 486
3 489 403 487
3 402 490 488
3 404 490 402
3 491 403 489
3 491 405 403
3 404 492 490
3 406 492 404
3 493 405 491
3 493 494 405
3 406 495 492
3 409 495 406
3 496 494 493
3 496 410 494
3 409 497 495
3 412 497 409
3 498 410 496
3 498 499 410
3 412 500 497
3 414 500 412
3 501 499 498
3 501 502 499
3 414 503 500
3 416 503 414
3 504 502 501
3 504 417 502
3 416 505 503
3 418 505 416
3 506 417 504
3 506 419 417
3 418 507 505
3 420 507 418
3 506 508 419
3 419 508 423
3 509 423 508
3 424 423 509
3 510 424 509
3 427 424 510
3 511 427 510
3 429 427 511
3 512 429 511
3 432 429 512
3 513 432 512
3 434 432 513
3 514 434 513
3 437 434 514
3 515 437 514
3 440 437 515
3 516 440 515
3 442 440 516
3 517 442 516
3 444 442 517
3 518 444 517
3 447 444 518
3 519 447 518
3 449 447 519
3 520 449 519
3 452 449 520
3 521 452 520
3 454 452 521
3 522 454 521
3 456 454 522
3 523 456 522
3 458 456 523
3 524 458 523
3 460 458 524
3 525 460 524
3 463 460 525
3 420 463 507
3 507 463 525
3 526 527 465
3 465 527 528
3 465 529 526
3 465 468 529
3 468 530 529
3 468 469 530
3 469 531 530
3 469 470 531
3 470 532 531
3 470 471 532
3 471 533 532
3 471 472 533
3 472 534 533
3 472 473 534
3 473 535 534
3 473 474 535
3 474 536 535
3 474 475 536
3 475 537 536
3 475 476 537
3 476 538 537
3 476 477 538
3 477 539 538
3 477 478 539
3 478 540 539
3 478 479 540
3 479 541 540
3 479 480 541
3 480 542 541
3 480 481 542
3 481 543 542
3 481 482 543
3 482 544 543
3 482 483 544
3 483 545 544
3 483 484 545
3 484 485 545
3 545 485 546
3 547 528 527
3 547 548 528
3 485 549 546
3 488 549 485
3 550 548 547
3 550 551 548
3 488 552 549
3 490 552 488
3 553 551 550
3 553 554 551
3 490 555 552
3 492 555 490
3 556 554 553
3 556 557 554
3 492 558 555
3 495 558 492
3 559 557 556
3 559 560 557
3 495 561 558
3 497 561 495
3 562 560 559
3 562 563 560
3 497 564 561
3 500 564 497
3 565 563 562
3 565 566 563
3 500 567 564
3 503 567 500
3 568 566 565
3 568 504 566
3 503 569 567
3 505 569 503
3 570 504 568
3 570 506 504
3 505 571 569
3 507 571 505
3 570 572 506
3 506 572 508
3 573 508 572
3 509 508 573
3 574 509 573
3 510 509 574
3 575 510 574
3 511 510 575
3 576 511 575
3 512 511 576
3 577 512 576
3 513 512 577
3 578 513 577
3 514 513 578
3 579 514 578
3 515 514 579
3 580 515 579
3 516 515 580
3 581 516 580
3 517 516 581
3 582 517 581
3 518 517 582
3 583 518 582
3 519 518 583
3 584 519 583
3 520 519 584
3 585 520 584
3 521 520 585
3 586 521 585
3 522 521 586
3 587 522 586
3 523 522 587
3 588 523 587
3 524 523 588
3 589 524 588
3 525 524 589
3 507 525 571
3 571 525 589
3 590 591 526
3 526 591 592
3 526 593 590
3 526 529 593
3 529 594 593
3 529 530 594
3 530 595 594
3 530 531 595
3 531 596 595
3 531 532 596
3 532 597 596
3 532 533 597
3 533 598 597
3 533 534 598
3 534 599 598
3 534 535 599
3 535 600 599
3 535 536 600
3 536 601 600
3 536 537 601
3 537 602 601
3 537 538 602
3 538 603 602
3 538 539 603
3 539 604 603
3 539 540 604
3 540 605 604
3 540 541 605
3 541 606 605
3 541 542 606
3 542 607 606
3 542 543 607
3 543 608 607
3 543 544 608
3 544 609 608
3 544 545 609
3 545 546 609
3 609 546 610
3 611 592 591
3 611 612 592
3 546 613 610
3 549 613 546
3 614 612 611
3 614 615 612
3 549 616 613
3 552 616 549
3 617 615 614
3 617 553 615
3 552 618 616
3 555 618 552
3 619 553 617
3 619 556 553
3 555 620 618
3 558 620 555
3 621 556 619
3 621 559 556
3 558 622 620
3 561 622 558
3 623 559 621
3 623 624 559
3 561 625 622
3 564 625 561
3 626 624 623
3 626 627 624
3 564 628 625
3 567 628 564
3 629 627 626
3 629 630 627
3 567 631 628
3 569 631 567
3 632 630 629
3 632 570 630
3 569 633 631
3 571 633 569
3 632 634 570
3 570 634 572
3 635 572 634
3 573 572 635
3 636 573 635
3 574 573 636
3 637 574 636
3 575 574 637
3 638 575 637
3 576 575 638
3 639 576 638
3 577 576 639
3 640 577 639
3 578 577 640
3 641 578 640
3 579 578 641
3 642 579 641
3 580 579 642
3 643 580 642
3 581 580 643
3 644 581 643
3 582 581 644
3 645 582 644
3 583 582 645
3 646 583 645
3 584 583 646
3 647 584 646
3 585 584 647
3 648 585 647
3 586 585 648
3 649 586 648
3 587 586 649
3 650 587 649
3 588 587 650
3 651 588 650
3 589 588 651
3 571 589 633
3 633 589 651
3 652 653 590
3 590 653 654
3 590 655 652
3 590 593 655
3 593 656 655
3 593 594 656
3 594 657 656
3 594 595 657
3 595 658 657
3 595 596 658
3 596 659 658
3 596 597 659
3 597 660 659
3 597 598 660
3 598 661 660
3 598 599 661
3 599 662 661
3 599 600 662
3 600 663 662
3 600 601 663
3 601 664 663
3 601 602 664
3 602 665 664
3 602 603 665
3 603 666 665
3 603 604 666
3 604 667 666
3 604 605 667
3 605 668 667
3 605 606 668
3 606 669 668
3 606 607 669
3 607 670 669
3 607 608 670
3 608 671 670
3 608 609 671
3 609 610 671
3 671 610 672
3 673 654 653
3 673 611 654
3 610 674 672
3 613 674 610
3 675 611 673
3 675 614 611
3 613 676 674
3 616 676 613
3 677 614 675
3 677 617 614
3 616 678 676
3 618 678 616
3 679 617 677
3 679 680 617
3 618 681 678
3 620 681 618
3 682 680 679
3 682 683 680
3 620 684 681
3 622 684 620
3 685 683 682
3 685 686 683
3 622 687 684
3 625 687 622
3 688 686 685
3 688 626 686
3 625 689 687
3 628 689 625
3 690 626 688
3 690 691 626
3 628 692 689
3 631 692 628
3 693 691 690
3 693 694 691
3 631 695 692
3 696 695 631
3 693 697 694
3 694 697 634
3 698 634 697
3 635 634 698
3 699 635 698
3 636 635 699
3 700 636 699
3 637 636 700
3 701 637 700
3 638 637 701
3 702 638 701
3 639 638 702
3 703 639 702
3 640 639 703
3 704 640 703
3 641 640 704
3 705 641 704
3 642 641 705
3 706 642 705
3 643 642 706
3 707 643 706
3 644 643 707
3 708 644 707
3 645 644 708
3 709 645 708
3 646 645 709
3 710 646 709
3 647 646 710
3 711 647 710
3 648 647 711
3 712 648 711
3 649 648 712
3 713 649 712
3 650 649 713
3 714 650 713
3 651 650 714
3 696 651 695
3 695 651 714
3 715 716 652
3 652 716 717
3 652 718 715
3 652 655 718
3 655 719 718
3 655 656 719
3 656 720 719
3 656 657 720
3 657 721 720
3 657 658 721
3 658 722 721
3 658 659 722
3 659 723 722
3 659 660 723
3 660 724 723
3 660 661 724
3 661 725 724
3 661 662 725
3 662 726 725
3 662 663 726
3 663 727 726
3 663 664 727
3 664 728 727
3 664 665 728
3 665 729 728
3 665 666 729
3 666 730 729
3 666 667 730
3 667 731 730
3 667 668 731
3 668 732 731
3 668 669 732
3 669 733 732
3 669 670 733
3 670 734 733
3 670 671 734
3 671 672 734
3 734 672 735
3 736 717 716
3 736 737 717
3 672 738 735
3 674 738 672
3 739 737 736
3 739 675 737
3 674 740 738
3 676 740 674
3 741 675 739
3 741 742 675
3 676 743 740
3 678 743 676
3 744 742 741
3 744 679 742
3 678 745 743
3 681 745 678
3 746 679 744
3 746 682 679
3 681 747 745
3 684 747 681
3 748 682 746
3 748 749 682
3 684 750 747
3 687 750 684
3 751 749 748
3 751 752 749
3 687 753 750
3 689 753 687
3 754 752 751
3 754 690 752
3 689 755 753
3 692 755 689
3 756 690 754
3 756 693 690
3 692 757 755
3 695 757 692
3 756 758 693
3 693 758 697
3 759 697 758
3 698 697 759
3 760 698 759
3 699 698 760
3 761 699 760
3 700 699 761
3 762 700 761
3 701 700 762
3 763 701 762
3 702 701 763
3 764 702 763
3 703 702 764
3 765 703 764
3 704 703 765
3 766 704 765
3 705 704 766
3 767 705 766
3 706 705 767
3 768 706 767
3 707 706 768
3 769 707 768
3 708 707 769
3 770 708 769
3 709 708 770
3 771 709 770
3 710 709 771
3 772 710 771
3 711 710 772
3 773 711 772
3 712 711 773
3 774 712 773
3 713 712 774
3 775 713 774
3 714 713 775
3 695 714 757
3 757 714 775
3 776 777 715
3 715 777 778
3 715 779 776
3 715 718 779
3 718 780 779
3 718 719 780
3 719 781 780
3 719 720 781
3 720 782 781
3 720 721 782
3 721 783 782
3 721 722 783
3 722 784 783
3 722 723 784
3 723 785 784
3 723 724 785
3 724 786 785
3 724 725 786
3 725 787 786
3 725 726 787
3 726 788 787
3 726 727 788
3 727 789 788
3 727 728 789
3 728 790 789
3 728 729 790
3 729 791 790
3 729 730 791
3 730 792 791
3 730 731 792
3 731 793 792
3 731 732 793
3 732 794 793
3 732 733 794
3 733 795 794
3 733 734 795
3 734 735 795
3 795 735 796
3 797 778 777
3 797 798 778
3 735 799 796
3 738 799 735
3 800 798 797
3 800 739 798
3 738 801 799
3 740 801 738
3 802 739 800
3 802 803 739
3 740 804 801
3 743 804 740
3 805 803 802
3 805 806 803
3 743 807 804
3 745 807 743
3 808 806 805
3 808 746 806
3 745 809 807
3 747 809 745
3 810 746 808
3 810 811 746
3 747 812 809
3 750 812 747
3 813 811 810
3 813 814 811
3 750 815 812
3 753 815 750
3 816 814 813
3 816 754 814
3 753 817 815
3 755 817 753
3 818 754 816
3 818 756 754
3 755 819 817
3 757 819 755
3 818 820 756
3 756 820 758
3 821 758 820
3 759 758 821
3 822 759 821
3 760 759 822
3 823 760 822
3 761 760 823
3 824 761 823
3 762 761 824
3 825 762 824
3 763 762 825
3 826 763 825
3 764 763 826
3 827 764 826
3 765 764 827
3 828 765 827
3 766 765 828
3 829 766 828
3 767 766 829
3 830 767 829
3 768 767 830
3 831 768 830
3 769 768 831
3 832 769 831
3 770 769 832
3 833 770 832
3 771 770 833
3 834 771 833
3 772 771 834
3 835 772 834
3 773 772 835
3 836 773 835
3 774 773 836
3 837 774 836
3 775 774 837
3 757 775 819
3 819 775 837
3 838 839 776
3 776 839 777
3 776 840 838
3 776 779 840
3 779 841 840
3 779 780 841
3 780 842 841
3 780 781 842
3 781 843 842
3 781 782 843
3 782 844 843
3 782 783 844
3 783 845 844
3 783 784 845
3 784 846 845
3 784 785 846
3 785 847 846
3 785 786 847
3 786 848 847
3 786 787 848
3 787 849 848
3 787 788 849
3 788 850 849
3 788 789 850
3 789 851 850
3 789 790 851
3 790 852 851
3 790 791 852
3 791 853 852
3 791 792 853
3 792 854 853
3 792 793 854
3 793 855 854
3 793 794 855
3 794 856 855
3 794 795 856
3 795 796 856
3 856 796 857
3 858 777 839
3 858 797 777
3 796 859 857
3 799 859 796
3 860 797 858
3 860 861 797
3 799 862 859
3 801 862 799
3 863 861 860
3 863 802 861
3 801 864 862
3 804 864 801
3 865 802 863
3 865 805 802
3 804 866 864
3 807 866 804
3 867 805 865
3 867 868 805
3 807 869 866
3 809 869 807
3 870 868 867
3 870 810 868
3 809 871 869
3 812 871 809
3 872 810 870
3 872 813 810
3 812 873 871
3 815 873 812
3 874 813 872
3 874 816 813
3 815 875 873
3 817 875 815
3 876 877 878
3 877 874 878
3 877 816 874
3 876 878 879
3 876 879 880
3 880 879 881
3 880 881 882
3 882 881 883
3 882 883 884
3 884 883 885
3 884 885 886
3 886 885 887
3 886 887 888
3 888 887 889
3 888 889 890
3 890 889 891
3 890 891 892
3 892 891 893
3 892 893 894
3 894 893 895
3 894 895 896
3 896 895 897
3 896 897 898
3 898 897 899
3 898 899 900
3 900 899 901
3 900 901 902
3 902 901 903
3 902 903 904
3 904 903 905
3 904 905 906
3 906 905 907
3 906 907 908
3 908 907 909
3 908 909 910
3 910 909 911
3 910 911 912
3 911 875 912
3 875 819 912
3 875 817 819
3 876 820 877
3 880 821 876
3 876 821 820
3 882 822 880
3 880 822 821
3 884 823 882
3 882 823 822
3 886 824 884
3 884 824 823
3 888 825 886
3 886 825 824
3 890 826 888
3 888 826 825
3 892 827 890
3 890 827 826
3 894 828 892
3 892 828 827
3 896 829 894
3 894 829 828
3 898 830 896
3 896 830 829
3 900 831 898
3 898 831 830
3 902 832 900
3 900 832 831
3 904 833 902
3 902 833 832
3 906 834 904
3 904 834 833
3 908 835 906
3 906 835 834
3 910 836 908
3 908 836 835
3 912 837 910
3 910 837 836
3 819 837 912
3 913 914 838
3 838 914 915
3 838 916 913
3 838 840 916
3 840 917 916
3 840 841 917
3 841 918 917
3 841 842 918
3 842 919 918
3 842 843 919
3 843 920 919
3 843 844 920
3 844 921 920
3 844 845 921
3 845 922 921
3 845 846 922
3 846 923 922
3 846 847 923
3 847 924 923
3 847 848 924
3 848 925 924
3 848 849 925
3 849 926 925
3 849 850 926
3 850 927 926
3 850 851 927
3 851 928 927
3 851 852 928
3 852 929 928
3 852 853 929
3 853 930 929
3 853 854 930
3 854 931 930
3 854 855 931
3 855 932 931
3 855 856 932
3 856 857 932
3 932 857 933
3 934 915 914
3 934 935 915
3 857 936 933
3 859 936 857
3 937 935 934
3 937 860 935
3 859 938 936
3 862 938 859
3 939 860 937
3 939 940 860
3 862 941 938
3 864 941 862
3 942 940 939
3 942 865 940
3 864 943 941
3 866 943 864
3 944 865 942
3 944 945 865
3 866 946 943
3 869 946 866
3 947 945 944
3 947 870 945
3 869 948 946
3 871 948 869
3 949 870 947
3 949 872 870
3 871 950 948
3 873 950 871
3 951 872 949
3 951 952 872
3 873 953 950
3 875 953 873
3 951 954 952
3 952 954 878
3 955 878 954
3 879 878 955
3 956 879 955
3 881 879 956
3 957 881 956
3 883 881 957
3 958 883 957
3 885 883 958
3 959 885 958
3 887 885 959
3 960 887 959
3 889 887 960
3 961 889 960
3 891 889 961
3 962 891 961
3 893 891 962
3 963 893 962
3 895 893 963
3 964 895 963
3 897 895 964
3 965 897 964
3 899 897 965
3 966 899 965
3 901 899 966
3 967 901 966
3 903 901 967
3 968 903 967
3 905 903 968
3 969 905 968
3 907 905 969
3 970 907 969
3 909 907 970
3 971 909 970
3 911 909 971
3 875 911 953
3 953 911 971
3 972 973 913
3 913 973 974
3 913 975 972
3 913 916 975
3 916 976 975
3 916 917 976
3 917 977 976
3 917 918 977
3 918 978 977
3 918 919 978
3 919 979 978
3 919 920 979
3 920 980 979
3 920 921 980
3 921 981 980
3 921 922 981
3 922 982 981
3 922 923 982
3 923 983 982
3 923 924 983
3 924 984 983
3 924 925 984
3 925 985 984
3 925 926 985
3 926 986 985
3 926 927 986
3 927 987 986
3 927 928 987
3 928 988 987
3 928 929 988
3 929 989 988
3 929 930 989
3 930 990 989
3 930 931 990
3 931 991 990
3 931 932 991
3 932 933 991
3 991 933 992
3 993 974 973
3 993 934 974
3 933 994 992
3 936 994 933
3 995 934 993
3 995 996 934
3 936 997 994
3 998 997 936
3 999 996 995
3 999 1000 996
3 998 1001 997
3 941 1001 998
3 1002 1000 999
3 1002 942 1000
3 941 1003 1001
3 943 1003 941
3 1004 942 1002
3 1004 944 942
3 943 1005 1003
3 946 1005 943
3 1006 944 1004
3 1006 947 944
3 946 1007 1005
3 948 1007 946
3 1008 947 1006
3 1008 1009 947
3 948 1010 1007
3 950 1010 948
3 1011 1009 1008
3 1011 1012 1009
3 950 1013 1010
3 953 1013 950
3 1011 1014 1012
3 1012 1014 954
3 1015 954 1014
3 955 954 1015
3 1016 955 1015
3 956 955 1016
3 1017 956 1016
3 957 956 1017
3 1018 957 1017
3 958 957 1018
3 1019 958 1018
3 959 958 1019
3 1020 959 1019
3 960 959 1020
3 1021 960 1020
3 961 960 1021
3 1022 961 1021
3 962 961 1022
3 1023 962 1022
3 963 962 1023
3 1024 963 1023
3 964 963 1024
3 1025 964 1024
3 965 964 1025
3 1026 965 1025
3 966 965 1026
3 1027 966 1026
3 967 966 1027
3 1028 967 1027
3 968 967 1028
3 1029 968 1028
3 969 968 1029
3 1030 969 1029
3 970 969 1030
3 1031 970 1030
3 971 970 1031
3 953 971 1013
3 1013 971 1031
3 1032 1033 972
3 972 1033 973
3 972 1034 1032
3 972 975 1034
3 975 1035 1034
3 975 976 1035
3 976 1036 1035
3 976 977 1036
3 977 1037 1036
3 977 978 1037
3 978 1038 1037
3 978 979 1038
3 979 1039 1038
3 979 980 1039
3 980 1040 1039
3 980 981 1040
3 981 1041 1040
3 981 982 1041
3 982 1042 1041
3 982 983 1042
3 983 1043 1042
3 983 984 1043
3 984 1044 1043
3 984 985 1044
3 985 1045 1044
3 985 986 1045
3 986 1046 1045
3 986 987 1046
3 987 1047 1046
3 987 988 1047
3 988 1048 1047
3 988 989 1048
3 989 1049 1048
3 989 990 1049
3 990 1050 1049
3 990 991 1050
3 991 992 1050
3 1050 992 1051
3 1052 973 1033
3 1052 1053 973
3 992 1054 1051
3 994 1054 992
3 1055 1053 1052
3 1055 995 1053
3 994 1056 1054
3 997 1056 994
3 1057 995 1055
3 1057 1058 995
3 997 1059 1056
3 1001 1059 997
3 1060 1058 1057
3 1060 1061 1058
3 1001 1062 1059
3 1003 1062 1001
3 1063 1061 1060
3 1063 1064 1061
3 1003 1065 1062
3 1005 1065 1003
3 1066 1064 1063
3 1066 1006 1064
3 1005 1067 1065
3 1007 1067 1005
3 1068 1006 1066
3 1068 1008 1006
3 1007 1069 1067
3 1010 1069 1007
3 1070 1008 1068
3 1070 1071 1008
3 1010 1072 1069
3 1013 1072 1010
3 1070 1073 1071
3 1071 1073 1014
3 1074 1014 1073
3 1015 1014 1074
3 1075 1015 1074
3 1016 1015 1075
3 1076 1016 1075
3 1017 1016 1076
3 1077 1017 1076
3 1018 1017 1077
3 1078 1018 1077
3 1019 1018 1078
3 1079 1019 1078
3 1020 1019 1079
3 1080 1020 1079
3 1021 1020 1080
3 1081 1021 1080
3 1022 1021 1081
3 1082 1022 1081
3 1023 1022 1082
3 1083 1023 1082
3 1024 1023 1083
3 1084 1024 1083
3 1025 1024 1084
3 1085 1025 1084
3 1026 1025 1085
3 1086 1026 1085
3 1027 1026 1086
3 1087 1027 1086
3 1028 1027 1087
3 1088 1028 1087
3 1029 1028 1088
3 1089 1029 1088
3 1030 1029 1089
3 1090 1030 1089
3 1031 1030 1090
3 1013 1031 1072
3 1072 1031 1090
3 1091 1092 1032
3 1032 1092 1093
3 1032 1094 1091
3 1032 1034 1094
3 1034 1095 1094
3 1034 1035 1095
3 1035 1096 1095
3 1035 1036 1096
3 1036 1097 1096
3 1036 1037 1097
3 1037 1098 1097
3 1037 1038 1098
3 1038 1099 1098
3 1038 1039 1099
3 1039 1100 1099
3 1039 1040 1100
3 1040 1101 1100
3 1040 1041 1101
3 1041 1102 1101
3 1041 1042 1102
3 1042 1103 1102
3 1042 1043 1103
3 1043 1104 1103
3 1043 1044 1104
3 1044 1105 1104
3 1044 1045 1105
3 1045 1106 1105
3 1045 1046 1106
3 1046 1107 1106
3 1046 1047 1107
3 1047 1108 1107
3 1047 1048 1108
3 1048 1109 1108
3 1048 1049 1109
3 1049 1110 1109
3 1049 1050 1110
3 1050 1051 1110
3 1110 1051 1111
3 1112 1093 1092
3 1112 1113 1093
3 1051 1114 1111
3 1054 1114 1051
3 1115 1113 1112
3 1115 1055 1113
3 1054 1116 1114
3 1056 1116 1054
3 1117 1055 1115
3 1117 1118 1055
3 1056 1119 1116
3 1059 1119 1056
3 1120 1118 1117
3 1120 1121 1118
3 1059 1122 1119
3 1062 1122 1059
3 1123 1121 1120
3 1123 1124 1121
3 1062 1125 1122
3 1065 1125 1062
3 1126 1066 1127
3 1066 1123 1127
3 1066 1124 1123
3 1126 1127 1128
3 1126 1128 1129
3 1129 1128 1130
3 1129 1130 1131
3 1131 1130 1132
3 1131 1132 1133
3 1133 1132 1134
3 1133 1134 1135
3 1135 1134 1136
3 1135 1136 1137
3 1137 1136 1138
3 1137 1138 1139
3 1139 1138 1140
3 1139 1140 1141
3 1141 1140 1142
3 1141 1142 1143
3 1143 1142 1144
3 1143 1144 1145
3 1145 1144 1146
3 1145 1146 1147
3 1147 1146 1148
3 1147 1148 1149
3 1149 1148 1150
3 1149 1150 1151
3 1151 1150 1152
3 1151 1152 1153
3 1153 1152 1154
3 1153 1154 1155
3 1155 1154 1156
3 1155 1156 1157
3 1157 1156 1158
3 1157 1158 1159
3 1159 1158 1160
3 1159 1160 1161
3 1160 1125 1161
3 1125 1067 1161
3 1125 1065 1067
3 1066 1126 1162
3 1162 1126 1163
3 1129 1163 1126
3 1129 1164 1163
3 1131 1164 1129
3 1131 1165 1164
3 1133 1165 1131
3 1133 1166 1165
3 1135 1166 1133
3 1135 1167 1166
3 1137 1167 1135
3 1137 1168 1167
3 1139 1168 1137
3 1139 1169 1168
3 1141 1169 1139
3 1141 1170 1169
3 1143 1170 1141
3 1143 1171 1170
3 1145 1171 1143
3 1145 1172 1171
3 1147 1173 1145
3 1147 1174 1173
3 1149 1174 1147
3 1149 1175 1174
3 1151 1175 1149
3 1151 1176 1175
3 1153 1176 1151
3 1153 1177 1176
3 1155 1177 1153
3 1155 1178 1177
3 1157 1178 1155
3 1157 1179 1178
3 1159 1179 1157
3 1159 1180 1179
3 1161 1180 1159
3 1161 1181 1180
3 1161 1067 1181
3 1181 1067 1069
3 1162 1163 1182
3 1182 1163 1183
3 1164 1183 1163
3 1164 1184 1183
3 1165 1184 1164
3 1165 1185 1184
3 1166 1185 1165
3 1166 1186 1185
3 1167 1186 1166
3 1167 1187 1186
3 1168 1187 1167
3 1168 1188 1187
3 1169 1188 1168
3 1169 1189 1188
3 1170 1189 1169
3 1170 1190 1189
3 1171 1191 1170
3 1171 1192 1191
3 1172 1192 1171
3 1172 1193 1192
3 1174 1193 1173
3 1174 1194 1193
3 1175 1194 1174
3 1175 1195 1194
3 1176 1195 1175
3 1176 1196 1195
3 1177 1196 1176
3 1177 1197 1196
3 1178 1197 1177
3 1178 1198 1197
3 1179 1198 1178
3 1179 1199 1198
3 1180 1199 1179
3 1180 1200 1199
3 1181 1200 1180
3 1181 1201 1200
3 1181 1069 1201
3 1201 1069 1072
3 1183 1073 1182
3 1184 1074 1183
3 1183 1074 1073
3 1185 1075 1184
3 1184 1075 1074
3 1186 1076 1185
3 1185 1076 1075
3 1187 1077 1186
3 1186 1077 1076
3 1188 1078 1187
3 1187 1078 1077
3 1189 1079 1188
3 1188 1079 1078
3 1190 1080 1189
3 1189 1080 1079
3 1192 1081 1191
3 1191 1081 1080
3 1193 1082 1192
3 1192 1082 1081
3 1194 1083 1193
3 1193 1083 1082
3 1195 1084 1194
3 1194 1084 1083
3 1196 1085 1195
3 1195 1085 1084
3 1197 1086 1196
3 1196 1086 1085
3 1198 1087 1197
3 1197 1087 1086
3 1199 1088 1198
3 1198 1088 1087
3 1200 1089 1199
3 1199 1089 1088
3 1201 1090 1200
3 1200 1090 1089
3 1072 1090 1201
3 1091 1202 1203
3 1202 1091 1204
3 1204 1091 1094
3 1204 1094 1205
3 1205 1094 1095
3 1205 1095 1206
3 1206 1095 1096
3 1206 1096 1207
3 1207 1096 1097
3 1207 1097 1208
3 1208 1097 1098
3 1208 1098 1209
3 1209 1098 1099
3 1209 1099 1210
3 1210 1099 1100
3 1210 1100 1211
3 1211 1100 1101
3 1211 1101 1212
3 1212 1101 1102
3 1212 1102 1213
3 1213 1102 1103
3 1213 1103 1214
3 1214 1103 1104
3 1214 1104 1215
3 1215 1104 1105
3 1215 1105 1216
3 1216 1105 1106
3 1216 1106 1217
3 1217 1106 1107
3 1217 1107 1218
3 1218 1107 1108
3 1218 1108 1219
3 1219 1108 1109
3 1219 1109 1220
3 1220 1109 1110
3 1110 1111 1220
3 1203 1202 1221
3 1221 1202 1222
3 1204 1222 1202
3 1204 1223 1222
3 1205 1223 1204
3 1205 1224 1223
3 1206 1224 1205
3 1206 1225 1224
3 1207 1225 1206
3 1207 1226 1225
3 1208 1226 1207
3 1208 1227 1226
3 1209 1227 1208
3 1209 1228 1227
3 1210 1228 1209
3 1210 1229 1228
3 1211 1229 1210
3 1211 1230 1229
3 1212 1230 1211
3 1212 1231 1230
3 1213 1231 1212
3 1213 1232 1231
3 1214 1232 1213
3 1214 1233 1232
3 1215 1233 1214
3 1215 1234 1233
3 1216 1234 1215
3 1216 1235 1234
3 1217 1235 1216
3 1217 1236 1235
3 1218 1236 1217
3 1218 1237 1236
3 1219 1237 1218
3 1219 1238 1237
3 1220 1238 1219
3 1220 1239 1238
3 1220 1111 1239
3 1239 1111 1114
3 1221 1222 1115
3 1115 1222 1240
3 1223 1240 1222
3 1223 1241 1240
3 1224 1241 1223
3 1224 1242 1241
3 1225 1242 1224
3 1225 1243 1242
3 1226 1243 1225
3 1226 1244 1243
3 1227 1244 1226
3 1227 1245 1244
3 1228 1245 1227
3 1228 1246 1245
3 1229 1246 1228
3 1229 1247 1246
3 1230 1247 1229
3 1230 1248 1247
3 1231 1248 1230
3 1231 1249 1248
3 1232 1249 1231
3 1232 1250 1249
3 1233 1250 1232
3 1233 1251 1250
3 1234 1251 1233
3 1234 1252 1251
3 1235 1252 1234
3 1235 1253 1252
3 1236 1253 1235
3 1236 1254 1253
3 1237 1254 1236
3 1237 1255 1254
3 1238 1255 1237
3 1238 1256 1255
3 1239 1256 1238
3 1239 1257 1256
3 1239 1114 1257
3 1257 1114 1116
3 1115 1240 1258
3 1258 1240 1259
3 1241 1259 1240
3 1241 1260 1259
3 1242 1260 1241
3 1242 1261 1260
3 1243 1261 1242
3 1243 1262 1261
3 1244 1262 1243
3 1244 1263 1262
3 1245 1263 1244
3 1245 1264 1263
3 1246 1264 1245
3 1246 1265 1264
3 1247 1265 1246
3 1247 1266 1265
3 1248 1266 1247
3 1248 1267 1266
3 1249 1267 1248
3 1249 1268 1267
3 1250 1268 1249
3 1250 1269 1268
3 1251 1269 1250
3 1251 1270 1269
3 1252 1270 1251
3 1252 1271 1270
3 1253 1271 1252
3 1253 1272 1271
3 1254 1272 1253
3 1254 1273 1272
3 1255 1273 1254
3 1255 1274 1273
3 1256 1274 1255
3 1256 1275 1274
3 1257 1275 1256
3 1257 1276 1275
3 1257 1116 1276
3 1276 1116 1119
3 1258 1259 1277
3 1277 1259 1278
3 1260 1278 1259
3 1260 1279 1278
3 1261 1279 1260
3 1261 1280 1279
3 1262 1280 1261
3 1262 1281 1280
3 1263 1281 1262
3 1263 1282 1281
3 1264 1282 1263
3 1264 1283 1282
3 1265 1283 1264
3 1265 1284 1283
3 1266 1284 1265
3 1266 1285 1284
3 1267 1285 1266
3 1267 1286 1285
3 1268 1286 1267
3 1268 1287 1286
3 1269 1287 1268
3 1269 1288 1287
3 1270 1288 1269
3 1270 1289 1288
3 1271 1289 1270
3 1271 1290 1289
3 1272 1290 1271
3 1272 1291 1290
3 1273 1291 1272
3 1273 1292 1291
3 1274 1292 1273
3 1274 1293 1292
3 1275 1293 1274
3 1275 1294 1293
3 1276 1294 1275
3 1276 1295 1294
3 1276 1119 1295
3 1295 1119 1122
3 1277 1278 1296
3 1296 1278 1297
3 1279 1297 1278
3 1279 1298 1297
3 1280 1298 1279
3 1280 1299 1298
3 1281 1299 1280
3 1281 1300 1299
3 1282 1300 1281
3 1282 1301 1300
3 1283 1301 1282
3 1283 1302 1301
3 1284 1302 1283
3 1284 1303 1302
3 1285 1303 1284
3 1285 1304 1303
3 1286 1304 1285
3 1286 1305 1304
3 1287 1305 1286
3 1287 1306 1305
3 1288 1306 1287
3 1288 1307 1306
3 1289 1307 1288
3 1289 1308 1307
3 1290 1308 1289
3 1290 1309 1308
3 1291 1310 1290
3 1291 1311 1310
3 1292 1311 1291
3 1292 1312 1311
3 1293 1312 1292
3 1293 1313 1312
3 1294 1313 1293
3 1294 1314 1313
3 1295 1314 1294
3 1295 1315 1314
3 1295 1122 1315
3 1315 1122 1125
3 1297 1127 1296
3 1298 1128 1297
3 1297 1128 1127
3 1299 1130 1298
3 1298 1130 1128
3 1300 1132 1299
3 1299 1132 1130
3 1301 1134 1300
3 1300 1134 1132
3 1302 1136 1301
3 1301 1136 1134
3 1303 1138 1302
3 1302 1138 1136
3 1304 1140 1303
3 1303 1140 1138
3 1305 1142 1304
3 1304 1142 1140
3 1306 1144 1305
3 1305 1144 1142
3 1307 1146 1306
3 1306 1146 1144
3 1308 1148 1307
3 1307 1148 1146
3 1309 1150 1308
3 1308 1150 1148
3 1311 1152 1310
3 1310 1152 1150
3 1312 1154 1311
3 1311 1154 1152
3 1313 1156 1312
3 1312 1156 1154
3 1314 1158 1313
3 1313 1158 1156
3 1315 1160 1314
3 1314 1160 1158
3 1125 1160 1315
