ply
format ascii 1.0
element vertex 1165
property float x
property float y
property float z
element face 2048
property list uchar int vertex_index
end_header
0.566985 1 1
1 1 0.566985
1 0.566986 1
1 1 0.566985
2 0.566986 1
2 1 0.566985
2 1 0.566985
3 0.566986 1
3 1 0.566985
4 0.566986 1
4 1 0.566985
4 1 0.566985
5 0.566986 1
5 1 0.566985
6 0.566986 1
6 1 0.566985
6 1 0.566985
7 0.566986 1
7 1 0.566985
8 0.566986 1
8 1 0.566985
9 0.566986 1
9 1 0.566985
10 0.566986 1
10 1 0.566985
10 1 0.566985
11 0.566986 1
11 1 0.566985
11 1 0.566985
12 0.566986 1
12 1 0.566985
12 1 0.566985
13 0.566986 1
13 1 0.566985
13 1 0.566985
14 0.566986 1
14 1 0.566985
15 0.566986 1
15 1 0.566985
16 0.566986 1
16 1 0.566985
17 0.566986 1
17 1 0.566985
18 0.566986 1
18 1 0.566985
18.433 1 1
0.565229 2 1
1 2 0.565229
1 2 0.565229
2 2 0.565229
2 2 0.565229
3 2 0.565229
3 2 0.565229
4 2 0.565229
4 2 0.565229
5 2 0.565229
6 2 0.565229
7 2 0.565229
8 2 0.565229
9 2 0.565229
9 2 0.565229
10 2 0.565229
10 2 0.565229
11 2 0.565229
12 2 0.565229
12 2 0.565229
13 2 0.565229
14 2 0.565229
14 2 0.565229
15 2 0.565229
16 2 0.565229
16 2 0.565229
17 2 0.565229
17 2 0.565229
18 2 0.565229
18 2 0.565229
18.4348 2 1
0.563404 3 1
1 3 0.563404
1 3 0.563404
2 3 0.563404
2 3 0.563404
3 3 0.563404
4 3 0.563404
4 3 0.563404
5 3 0.563404
6 3 0.563404
6 3 0.563404
7 3 0.563404
8 3 0.563404
9 3 0.563404
9 3 0.563404
10 3 0.563404
10 3 0.563404
11 3 0.563404
11 3 0.563404
12 3 0.563404
13 3 0.563404
13 3 0.563404
14 3 0.563404
15 3 0.563404
16 3 0.563404
17 3 0.563404
17 3 0.563404
18 3 0.563404
18.4366 3 1
0.561445 4 1
1 4 0.561445
1 4 0.561445
2 4 0.561445
2 4 0.561445
3 4 0.561445
3 4 0.561445
4 4 0.561445
4 4 0.561445
5 4 0.561445
5 4 0.561445
6 4 0.561445
6 4 0.561445
7 4 0.561445
7 4 0.561445
8 4 0.561445
8 4 0.561445
9 4 0.561445
9 4 0.561445
10 4 0.561445
10 4 0.561445
11 4 0.561445
12 4 0.561445
13 4 0.561445
14 4 0.561445
15 4 0.561445
16 4 0.561445
17 4 0.561445
18 4 0.561445
18 4 0.561445
18.4386 4 1
0.559268 5 1
1 5 0.559268
2 5 0.559268
2 5 0.559268
3 5 0.559268
4 5 0.559268
5 5 0.559268
6 5 0.559268
7 5 0.559268
7 5 0.559268
8 5 0.559268
9 5 0.559268
9 5 0.559268
10 5 0.559268
11 5 0.559268
12 5 0.559268
13 5 0.559268
13 5 0.559268
14 5 0.559268
15 5 0.559268
15 5 0.559268
16 5 0.559268
17 5 0.559268
17 5 0.559268
18 5 0.559268
18.4407 5 1
0.556745 6 1
1 6 0.556745
2 6 0.556745
2 6 0.556745
3 6 0.556745
3 6 0.556745
4 6 0.556745
4 6 0.556745
5 6 0.556745
6 6 0.556745
7 6 0.556745
7 6 0.556745
8 6 0.556745
8 6 0.556745
9 6 0.556745
9 6 0.556745
10 6 0.556745
11 6 0.556745
12 6 0.556745
12 6 0.556745
13 6 0.556745
13 6 0.556745
14 6 0.556745
14 6 0.556745
15 6 0.556745
16 6 0.556745
16 6 0.556745
17 6 0.556745
17 6 0.556745
18 6 0.556745
18.4433 6 1
0.553662 7 1
1 7 0.553662
2 7 0.553662
3 7 0.553662
4 7 0.553662
5 7 0.553662
6 7 0.553662
6 7 0.553662
7 7 0.553662
8 7 0.553662
8 7 0.553662
9 7 0.553662
10 7 0.553662
10 7 0.553662
11 7 0.553662
12 7 0.553662
12 7 0.553662
13 7 0.553662
14 7 0.553662
14 7 0.553662
15 7 0.553662
15 7 0.553662
16 7 0.553662
17 7 0.553662
17 7 0.553662
18 7 0.553662
18 7 0.553662
18.4463 7 1
0.549606 8 1
1 8 0.549606
1 8 0.549606
2 8 0.549606
2 8 0.549606
3 8 0.549606
4 8 0.549606
4 8 0.549606
5 8 0.549606
5 8 0.549606
6 8 0.549606
7 8 0.549606
8 8 0.549606
8 8 0.549606
9 8 0.549606
9 8 0.549606
10 8 0.549606
11 8 0.549606
11 8 0.549606
12 8 0.549606
13 8 0.549606
14 8 0.549606
14 8 0.549606
15 8 0.549606
16 8 0.549606
17 8 0.549606
17 8 0.549606
18 8 0.549606
18 8 0.549606
18.4504 8 1
0.543429 9 1
1 9 0.543429
1 9 0.543429
2 9 0.543429
3 9 0.543429
4 9 0.543429
5 9 0.543429
6 9 0.543429
7 9 0.543429
8 9 0.543429
9 9 0.543429
10 9 0.543429
11 9 0.543429
12 9 0.543429
13 9 0.543429
14 9 0.543429
14 9 0.543429
15 9 0.543429
16 9 0.543429
17 9 0.543429
18 9 0.543429
18.4566 9 1
1 9.45657 1
2 9.45657 1
3 9.45657 1
4 9.45657 1
5 9.45657 1
6 9.45657 1
7 9.45657 1
8 9.45657 1
9 9.45657 1
10 9.45657 1
11 9.45657 1
12 9.45657 1
13 9.45657 1
14 9.45657 1
15 9.45657 1
16 9.45657 1
17 9.45657 1
18 9.45657 1
1 0.568709 2
0.568708 1 2
0.566985 1 1
2 0.568709 2
3 0.568709 2
4 0.568709 2
5 0.568709 2
6 0.568709 2
7 0.568709 2
8 0.568709 2
9 0.568709 2
10 0.568709 2
11 0.568709 2
12 0.568709 2
13 0.568709 2
14 0.568709 2
15 0.568709 2
16 0.568709 2
17 0.568709 2
18 0.568709 2
18.4313 1 2
0.567022 2 2
0.565229 2 1
18.433 2 2
0.565331 3 2
0.563404 3 1
18.4347 3 2
0.563589 4 2
0.561445 4 1
18.4364 4 2
0.561751 5 2
18.4382 5 2
0.559775 6 2
18.4402 6 2
0.557634 7 2
18.4424 7 2
0.55539 8 2
18.4446 8 2
0.55331 9 2
18.4467 9 2
1 9.44669 2
2 9.44669 2
3 9.44669 2
4 9.44669 2
5 9.44669 2
6 9.44669 2
7 9.44669 2
8 9.44669 2
9 9.44669 2
10 9.44669 2
11 9.44669 2
12 9.44669 2
13 9.44669 2
14 9.44669 2
15 9.44669 2
16 9.44669 2
17 9.44669 2
18 9.44669 2
1 0.570368 3
0.570367 1 3
2 0.570368 3
3 0.570368 3
4 0.570368 3
5 0.570368 3
6 0.570368 3
7 0.570368 3
8 0.570368 3
9 0.570368 3
10 0.570368 3
11 0.570368 3
12 0.570368 3
13 0.570368 3
14 0.570368 3
15 0.570368 3
16 0.570368 3
17 0.570368 3
18 0.570368 3
18.4296 1 3
0.568797 2 3
0.567022 2 2
18.4312 2 3
0.567281 3 3
0.565331 3 2
18.4327 3 3
0.565795 4 3
0.563589 4 2
18.4342 4 3
0.564334 5 3
18.4357 5 3
0.562918 6 3
18.4371 6 3
0.561629 7 3
0.557634 7 2
18.4384 7 3
0.560693 8 3
18.4393 8 3
0.56055 9 3
0.55331 9 2
18.4394 9 3
1 9.43945 3
2 9.43945 3
3 9.43945 3
4 9.43945 3
5 9.43945 3
6 9.43945 3
7 9.43945 3
8 9.43945 3
9 9.43945 3
10 9.43945 3
11 9.43945 3
12 9.43945 3
13 9.43945 3
14 9.43945 3
15 9.43945 3
16 9.43945 3
17 9.43945 3
18 9.43945 3
1 0.57192 4
0.571919 1 4
2 0.57192 4
3 0.57192 4
4 0.57192 4
5 0.57192 4
6 0.57192 4
7 0.57192 4
8 0.57192 4
9 0.57192 4
10 0.57192 4
11 0.57192 4
12 0.57192 4
13 0.57192 4
14 0.57192 4
15 0.57192 4
16 0.57192 4
17 0.57192 4
18 0.57192 4
18.4281 1 4
0.570494 2 4
0.568797 2 3
18.4295 2 4
0.569172 3 4
18.4308 3 4
0.567946 4 4
18.4321 4 4
0.566832 5 4
18.4332 5 4
0.56588 6 4
18.4341 6 4
0.565198 7 4
0.561629 7 3
18.4348 7 4
0.56499 8 4
18.435 8 4
0.565539 9 4
0.56055 9 3
18.4345 9 4
1 9.43446 4
2 9.43446 4
3 9.43446 4
4 9.43446 4
5 9.43446 4
6 9.43446 4
7 9.43446 4
8 9.43446 4
9 9.43446 4
10 9.43446 4
11 9.43446 4
12 9.43446 4
13 9.43446 4
14 9.43446 4
15 9.43446 4
16 9.43446 4
17 9.43446 4
18 9.43446 4
1 0.573333 5
0.573333 1 5
2 0.573333 5
3 0.573333 5
4 0.573333 5
5 0.573333 5
6 0.573333 5
7 0.573333 5
8 0.573333 5
9 0.573333 5
10 0.573333 5
11 0.573333 5
12 0.573333 5
13 0.573333 5
14 0.573333 5
15 0.573333 5
16 0.573333 5
17 0.573333 5
18 0.573333 5
18.4267 1 5
0.572071 2 5
18.4279 2 5
0.570944 3 5
18.4291 3 5
0.569956 4 5
0.567946 4 4
18.43 4 5
0.569134 5 5
18.4309 5 5
0.568532 6 5
0.56588 6 4
18.4315 6 5
0.568241 7 5
18.4318 7 5
0.568404 8 5
0.56499 8 4
18.4316 8 5
0.56917 9 5
18.4308 9 5
1 9.43083 5
2 9.43083 5
3 9.43083 5
4 9.43083 5
5 9.43083 5
6 9.43083 5
7 9.43083 5
8 9.43083 5
9 9.43083 5
10 9.43083 5
11 9.43083 5
12 9.43083 5
13 9.43083 5
14 9.43083 5
15 9.43083 5
16 9.43083 5
17 9.43083 5
18 9.43083 5
1 0.57459 6
0.57459 1 6
0.573333 1 5
2 0.57459 6
3 0.57459 6
4 0.57459 6
5 0.57459 6
6 0.57459 6
7 0.57459 6
8 0.57459 6
9 0.57459 6
10 0.57459 6
11 0.57459 6
12 0.57459 6
13 0.57459 6
14 0.57459 6
15 0.57459 6
16 0.57459 6
17 0.57459 6
18 0.57459 6
18.4254 1 6
0.573497 2 6
0.572071 2 5
18.4265 2 6
0.572557 3 6
0.570944 3 5
18.4274 3 6
0.57178 4 6
0.569956 4 5
18.4282 4 6
0.571193 5 6
0.569134 5 5
18.4288 5 6
0.570842 6 6
0.568532 6 5
18.4292 6 6
0.570793 7 6
18.4292 7 6
0.571137 8 6
18.4289 8 6
0.57194 9 6
0.56917 9 5
18.4281 9 6
1 9.42806 6
2 9.42806 6
3 9.42806 6
4 9.42806 6
5 9.42806 6
6 9.42806 6
7 9.42806 6
8 9.42806 6
9 9.42806 6
10 9.42806 6
11 9.42806 6
12 9.42806 6
13 9.42806 6
14 9.42806 6
15 9.42806 6
16 9.42806 6
17 9.42806 6
18 9.42806 6
1 0.575685 7
0.575685 1 7
2 0.575685 7
3 0.575685 7
4 0.575685 7
5 0.575685 7
6 0.575685 7
7 0.575685 7
8 0.575685 7
9 0.575685 7
10 0.575685 7
11 0.575685 7
12 0.575685 7
13 0.575685 7
14 0.575685 7
15 0.575685 7
16 0.575685 7
17 0.575685 7
18 0.575685 7
18.4243 1 7
0.574758 2 7
0.573497 2 6
18.4252 2 7
0.573992 3 7
18.426 3 7
0.573398 4 7
0.57178 4 6
18.4266 4 7
0.572998 5 7
0.571193 5 6
18.427 5 7
0.572826 6 7
0.570842 6 6
18.4272 6 7
0.572928 7 7
18.4271 7 7
0.573356 8 7
18.4266 8 7
0.574133 9 7
0.57194 9 6
18.4259 9 7
1 9.42587 7
2 9.42587 7
3 9.42587 7
4 9.42587 7
5 9.42587 7
6 9.42587 7
7 9.42587 7
8 9.42587 7
9 9.42587 7
10 9.42587 7
11 9.42587 7
12 9.42587 7
13 9.42587 7
14 9.42587 7
15 9.42587 7
16 9.42587 7
17 9.42587 7
18 9.42587 7
1 0.576617 8
0.576617 1 8
0.575685 1 7
2 0.576617 8
3 0.576617 8
4 0.576617 8
5 0.576617 8
6 0.576617 8
7 0.576617 8
8 0.576617 8
9 0.576617 8
10 0.576617 8
11 0.576617 8
12 0.576617 8
13 0.576617 8
14 0.576617 8
15 0.576617 8
16 0.576617 8
17 0.576617 8
18 0.576617 8
18.4234 1 8
0.575852 2 8
18.4241 2 8
0.575246 3 8
0.573992 3 7
18.4248 3 8
0.574809 4 8
18.4252 4 8
0.574559 5 8
18.4254 5 8
0.57452 6 8
0.572826 6 7
18.4255 6 8
0.57472 7 8
0.572928 7 7
18.4253 7 8
0.575185 8 8
0.573356 8 7
18.4248 8 8
0.575919 9 8
18.4241 9 8
1 9.42408 8
2 9.42408 8
3 9.42408 8
4 9.42408 8
5 9.42408 8
6 9.42408 8
7 9.42408 8
8 9.42408 8
9 9.42408 8
10 9.42408 8
11 9.42408 8
12 9.42408 8
13 9.42408 8
14 9.42408 8
15 9.42408 8
16 9.42408 8
17 9.42408 8
18 9.42408 8
1 0.577394 9
0.577394 1 9
0.576617 1 8
2 0.577394 9
3 0.577394 9
4 0.577394 9
5 0.577394 9
6 0.577394 9
7 0.577394 9
8 0.577394 9
9 0.577394 9
10 0.577394 9
11 0.577394 9
12 0.577394 9
13 0.577394 9
14 0.577394 9
15 0.577394 9
16 0.577394 9
17 0.577394 9
18 0.577394 9
18.4226 1 9
0.576781 2 9
0.575852 2 8
18.4232 2 9
0.576322 3 9
18.4237 3 9
0.576024 4 9
18.424 4 9
0.5759 5 9
18.4241 5 9
0.575965 6 9
0.57452 6 8
18.424 6 9
0.576233 7 9
18.4238 7 9
0.576717 8 9
0.575185 8 8
18.4233 8 9
0.577409 9 9
18.4226 9 9
1 9.42259 9
2 9.42259 9
3 9.42259 9
4 9.42259 9
5 9.42259 9
6 9.42259 9
7 9.42259 9
8 9.42259 9
9 9.42259 9
10 9.42259 9
11 9.42259 9
12 9.42259 9
13 9.42259 9
14 9.42259 9
15 9.42259 9
16 9.42259 9
17 9.42259 9
18 9.42259 9
1 0.578023 10
0.578023 1 10
2 0.578023 10
3 0.578023 10
4 0.578023 10
5 0.578023 10
6 0.578023 10
7 0.578023 10
8 0.578023 10
9 0.578023 10
10 0.578023 10
11 0.578023 10
12 0.578023 10
13 0.578023 10
14 0.578023 10
15 0.578023 10
16 0.578023 10
17 0.578023 10
18 0.578023 10
18.422 1 10
0.577555 2 10
0.576781 2 9
18.4224 2 10
0.577232 3 10
18.4228 3 10
0.577059 4 10
0.576024 4 9
18.4229 4 10
0.577045 5 10
0.5759 5 9
18.423 5 10
0.577196 6 10
0.575965 6 9
18.4228 6 10
0.57752 7 10
18.4225 7 10
0.578018 8 10
18.422 8 10
0.578678 9 10
18.4213 9 10
1 9.42132 10
2 9.42132 10
3 9.42132 10
4 9.42132 10
5 9.42132 10
6 9.42132 10
7 9.42132 10
8 9.42132 10
9 9.42132 10
10 9.42132 10
11 9.42132 10
12 9.42132 10
13 9.42132 10
14 9.42132 10
15 9.42132 10
16 9.42132 10
17 9.42132 10
18 9.42132 10
1 0.578513 11
0.578513 1 11
0.578023 1 10
2 0.578513 11
3 0.578513 11
4 0.578513 11
5 0.578513 11
6 0.578513 11
7 0.578513 11
8 0.578513 11
9 0.578513 11
10 0.578513 11
11 0.578513 11
12 0.578513 11
13 0.578513 11
14 0.578513 11
15 0.578513 11
16 0.578513 11
17 0.578513 11
18 0.578513 11
18.4215 1 11
0.578182 2 11
0.577555 2 10
18.4218 2 11
0.577988 3 11
18.422 3 11
0.577931 4 11
0.577059 4 10
18.4221 4 11
0.578018 5 11
18.422 5 11
0.578249 6 11
0.577196 6 10
18.4218 6 11
0.578624 7 11
0.57752 7 10
18.4214 7 11
0.579141 8 11
0.578018 8 10
18.4209 8 11
0.579782 9 11
18.4202 9 11
1 9.42022 11
2 9.42022 11
3 9.42022 11
4 9.42022 11
5 9.42022 11
6 9.42022 11
7 9.42022 11
8 9.42022 11
9 9.42022 11
10 9.42022 11
11 9.42022 11
12 9.42022 11
13 9.42022 11
14 9.42022 11
15 9.42022 11
16 9.42022 11
17 9.42022 11
18 9.42022 11
1 0.578874 12
0.578874 1 12
0.578513 1 11
2 0.578874 12
3 0.578874 12
4 0.578874 12
5 0.578874 12
6 0.578874 12
7 0.578874 12
8 0.578874 12
9 0.578874 12
10 0.578874 12
11 0.578874 12
12 0.578874 12
13 0.578874 12
14 0.578874 12
15 0.578874 12
16 0.578874 12
17 0.578874 12
18 0.578874 12
18.4211 1 12
0.578674 2 12
0.578182 2 11
18.4213 2 12
0.578602 3 12
18.4214 3 12
0.578658 4 12
18.4213 4 12
0.578842 5 12
0.578018 5 11
18.4212 5 12
0.579151 6 12
0.578249 6 11
18.4208 6 12
0.579582 7 12
0.578624 7 11
18.4204 7 12
0.580125 8 12
18.4199 8 12
0.580762 9 12
0.579782 9 11
18.4192 9 12
1 9.41924 12
2 9.41924 12
3 9.41924 12
4 9.41924 12
5 9.41924 12
6 9.41924 12
7 9.41924 12
8 9.41924 12
9 9.41924 12
10 9.41924 12
11 9.41924 12
12 9.41924 12
13 9.41924 12
14 9.41924 12
15 9.41924 12
16 9.41924 12
17 9.41924 12
18 9.41924 12
1 0.579115 13
0.579115 1 13
2 0.579115 13
3 0.579115 13
4 0.579115 13
5 0.579115 13
6 0.579115 13
7 0.579115 13
8 0.579115 13
9 0.579115 13
10 0.579115 13
11 0.579115 13
12 0.579115 13
13 0.579115 13
14 0.579115 13
15 0.579115 13
16 0.579115 13
17 0.579115 13
18 0.579115 13
18.4209 1 13
0.579041 2 13
18.421 2 13
0.57909 3 13
0.578602 3 12
18.4209 3 13
0.579256 4 13
0.578658 4 12
18.4207 4 13
0.579538 5 13
18.4205 5 13
0.579928 6 13
18.4201 6 13
0.58042 7 13
0.579582 7 12
18.4196 7 13
0.581 8 13
18.419 8 13
0.581649 9 13
18.4184 9 13
1 9.41835 13
2 9.41835 13
3 9.41835 13
4 9.41835 13
5 9.41835 13
6 9.41835 13
7 9.41835 13
8 9.41835 13
9 9.41835 13
10 9.41835 13
11 9.41835 13
12 9.41835 13
13 9.41835 13
14 9.41835 13
15 9.41835 13
16 9.41835 13
17 9.41835 13
18 9.41835 13
1 1 13.4209
0.579115 1 13
2 1 13.4209
3 1 13.4209
4 1 13.4209
5 1 13.4209
6 1 13.4209
7 1 13.4209
8 1 13.4209
9 1 13.4209
10 1 13.4209
11 1 13.4209
12 1 13.4209
13 1 13.4209
14 1 13.4209
15 1 13.4209
16 1 13.4209
17 1 13.4209
18 1 13.4209
1 2 13.421
2 2 13.421
3 2 13.421
4 2 13.421
5 2 13.421
6 2 13.421
7 2 13.421
8 2 13.421
9 2 13.421
10 2 13.421
11 2 13.421
12 2 13.421
13 2 13.421
14 2 13.421
15 2 13.421
16 2 13.421
17 2 13.421
18 2 13.421
1 3 13.4209
2 3 13.4209
3 3 13.4209
4 3 13.4209
5 3 13.4209
6 3 13.4209
7 3 13.4209
8 3 13.4209
9 3 13.4209
10 3 13.4209
11 3 13.4209
12 3 13.4209
13 3 13.4209
14 3 13.4209
15 3 13.4209
16 3 13.4209
17 3 13.4209
18 3 13.4209
1 4 13.4207
2 4 13.4207
3 4 13.4207
4 4 13.4207
5 4 13.4207
6 4 13.4207
7 4 13.4207
8 4 13.4207
9 4 13.4207
10 4 13.4207
11 4 13.4207
12 4 13.4207
13 4 13.4207
14 4 13.4207
15 4 13.4207
16 4 13.4207
17 4 13.4207
18 4 13.4207
1 5 13.4205
2 5 13.4205
3 5 13.4205
4 5 13.4205
5 5 13.4205
6 5 13.4205
7 5 13.4205
8 5 13.4205
9 5 13.4205
10 5 13.4205
11 5 13.4205
12 5 13.4205
12 5 13.4205
13 5 13.4205
14 5 13.4205
15 5 13.4205
16 5 13.4205
17 5 13.4205
18 5 13.4205
0.579928 6 13
1 6 13.4201
2 6 13.4201
3 6 13.4201
4 6 13.4201
5 6 13.4201
6 6 13.4201
6 6 13.4201
7 6 13.4201
8 6 13.4201
9 6 13.4201
10 6 13.4201
11 6 13.4201
11 6 13.4201
12 6 13.4201
13 6 13.4201
14 6 13.4201
15 6 13.4201
16 6 13.4201
17 6 13.4201
18 6 13.4201
0.58042 7 13
1 7 13.4196
2 7 13.4196
3 7 13.4196
4 7 13.4196
5 7 13.4196
6 7 13.4196
7 7 13.4196
8 7 13.4196
9 7 13.4196
10 7 13.4196
11 7 13.4196
12 7 13.4196
13 7 13.4196
14 7 13.4196
15 7 13.4196
16 7 13.4196
17 7 13.4196
18 7 13.4196
1 8 13.419
2 8 13.419
3 8 13.419
4 8 13.419
5 8 13.419
6 8 13.419
7 8 13.419
8 8 13.419
9 8 13.419
10 8 13.419
11 8 13.419
12 8 13.419
13 8 13.419
14 8 13.419
15 8 13.419
16 8 13.419
17 8 13.419
18 8 13.419
0.581649 9 13
1 9 13.4184
2 9 13.4184
3 9 13.4184
4 9 13.4184
5 9 13.4184
6 9 13.4184
7 9 13.4184
8 9 13.4184
9 9 13.4184
9 9 13.4184
10 9 13.4184
11 9 13.4184
12 9 13.4184
13 9 13.4184
14 9 13.4184
15 9 13.4184
16 9 13.4184
17 9 13.4184
18 9 13.4184
3 0 1 2
3 2 3 4
3 4 3 5
3 4 6 7
3 7 6 8
3 7 8 9
3 9 8 10
3 9 11 12
3 12 11 13
3 12 13 14
3 14 13 15
3 14 16 17
3 17 16 18
3 17 18 19
3 19 18 20
3 19 20 21
3 21 20 22
3 21 22 23
3 23 22 24
3 23 25 26
3 26 25 27
3 26 28 29
3 29 28 30
3 29 31 32
3 32 31 33
3 32 34 35
3 35 34 36
3 35 36 37
3 37 36 38
3 37 38 39
3 39 38 40
3 39 40 41
3 41 40 42
3 41 42 43
3 43 42 44
3 44 45 43
3 46 47 0
3 0 47 1
3 48 5 3
3 49 5 48
3 50 8 6
3 51 8 50
3 52 10 8
3 53 10 52
3 54 13 11
3 55 13 54
3 55 15 13
3 56 15 55
3 56 18 16
3 57 18 56
3 57 20 18
3 58 20 57
3 58 22 20
3 59 22 58
3 60 24 22
3 61 24 60
3 62 27 25
3 63 27 62
3 63 30 28
3 64 30 63
3 65 33 31
3 66 33 65
3 66 36 34
3 67 36 66
3 68 38 36
3 69 38 68
3 69 40 38
3 70 40 69
3 71 42 40
3 72 42 71
3 73 44 42
3 74 44 73
3 75 76 44
3 44 76 45
3 77 78 46
3 46 78 47
3 79 49 48
3 80 49 79
3 81 51 50
3 82 51 81
3 82 53 52
3 83 53 82
3 84 55 54
3 85 55 84
3 85 56 55
3 86 56 85
3 87 57 56
3 88 57 87
3 88 58 57
3 89 58 88
3 89 59 58
3 90 59 89
3 91 61 60
3 92 61 91
3 93 63 62
3 94 63 93
3 95 64 63
3 96 64 95
3 96 66 65
3 97 66 96
3 98 67 66
3 99 67 98
3 99 69 68
3 100 69 99
3 100 70 69
3 101 70 100
3 101 72 71
3 102 72 101
3 103 74 73
3 104 74 103
3 104 105 75
3 75 105 76
3 106 107 77
3 77 107 78
3 108 80 79
3 109 80 108
3 110 82 81
3 111 82 110
3 112 83 82
3 113 83 112
3 114 85 84
3 115 85 114
3 116 86 85
3 117 86 116
3 118 88 87
3 119 88 118
3 120 89 88
3 121 89 120
3 122 90 89
3 123 90 122
3 124 92 91
3 125 92 124
3 126 94 93
3 127 94 126
3 127 96 95
3 128 96 127
3 128 97 96
3 129 97 128
3 129 99 98
3 130 99 129
3 130 100 99
3 131 100 130
3 131 101 100
3 132 101 131
3 132 102 101
3 133 102 132
3 133 104 103
3 134 104 133
3 135 136 104
3 104 136 105
3 137 138 106
3 106 138 107
3 138 109 108
3 139 109 138
3 140 111 110
3 141 111 140
3 141 113 112
3 142 113 141
3 142 115 114
3 143 115 142
3 143 117 116
3 144 117 143
3 144 119 118
3 145 119 144
3 146 121 120
3 147 121 146
3 147 123 122
3 148 123 147
3 149 125 124
3 150 125 149
3 150 127 126
3 151 127 150
3 151 128 127
3 152 128 151
3 152 129 128
3 153 129 152
3 154 130 129
3 155 130 154
3 155 131 130
3 156 131 155
3 157 132 131
3 158 132 157
3 158 133 132
3 159 133 158
3 160 134 133
3 161 134 160
3 161 162 135
3 135 162 136
3 163 164 137
3 137 164 138
3 164 139 138
3 165 139 164
3 166 141 140
3 167 141 166
3 168 142 141
3 169 142 168
3 170 143 142
3 171 143 170
3 171 144 143
3 172 144 171
3 172 145 144
3 173 145 172
3 174 147 146
3 175 147 174
3 176 148 147
3 177 148 176
3 178 150 149
3 179 150 178
3 179 151 150
3 180 151 179
3 180 152 151
3 181 152 180
3 182 153 152
3 183 153 182
3 184 155 154
3 185 155 184
3 186 156 155
3 187 156 186
3 187 158 157
3 188 158 187
3 189 159 158
3 190 159 189
3 191 161 160
3 192 161 191
3 192 193 161
3 161 193 162
3 194 195 163
3 163 195 164
3 195 165 164
3 196 165 195
3 196 167 166
3 197 167 196
3 197 169 168
3 198 169 197
3 198 171 170
3 199 171 198
3 199 172 171
3 200 172 199
3 201 173 172
3 202 173 201
3 202 175 174
3 203 175 202
3 204 177 176
3 205 177 204
3 205 179 178
3 206 179 205
3 207 180 179
3 208 180 207
3 208 181 180
3 209 181 208
3 210 183 182
3 211 183 210
3 211 185 184
3 212 185 211
3 213 187 186
3 214 187 213
3 215 188 187
3 216 188 215
3 216 190 189
3 217 190 216
3 218 192 191
3 219 192 218
3 220 221 192
3 192 221 193
3 222 223 194
3 194 223 195
3 224 196 195
3 225 196 224
3 226 197 196
3 227 197 226
3 227 198 197
3 228 198 227
3 229 199 198
3 230 199 229
3 231 200 199
3 232 200 231
3 232 202 201
3 233 202 232
3 233 203 202
3 234 203 233
3 235 205 204
3 236 205 235
3 237 206 205
3 238 206 237
3 238 208 207
3 239 208 238
3 240 209 208
3 241 209 240
3 241 211 210
3 242 211 241
3 242 212 211
3 243 212 242
3 244 214 213
3 245 214 244
3 245 216 215
3 246 216 245
3 246 217 216
3 247 217 246
3 248 219 218
3 249 219 248
3 250 251 220
3 220 251 221
3 252 253 222
3 222 253 223
3 254 225 224
3 255 225 254
3 255 227 226
3 256 227 255
3 256 228 227
3 257 228 256
3 257 230 229
3 258 230 257
3 258 232 231
3 259 232 258
3 259 233 232
3 260 233 259
3 260 234 233
3 261 234 260
3 261 236 235
3 262 236 261
3 262 238 237
3 263 238 262
3 263 239 238
3 264 239 263
3 264 241 240
3 265 241 264
3 265 242 241
3 266 242 265
3 266 243 242
3 267 243 266
3 268 245 244
3 269 245 268
3 269 246 245
3 270 246 269
3 270 247 246
3 271 247 270
3 271 249 248
3 272 249 271
3 272 273 250
3 250 273 251
3 274 253 252
3 275 255 274
3 274 255 254
3 276 256 275
3 275 256 255
3 277 257 276
3 276 257 256
3 278 258 277
3 277 258 257
3 279 259 278
3 278 259 258
3 280 260 279
3 279 260 259
3 281 261 280
3 280 261 260
3 282 262 281
3 281 262 261
3 283 263 282
3 282 263 262
3 284 264 283
3 283 264 263
3 285 265 284
3 284 265 264
3 286 266 285
3 285 266 265
3 287 267 286
3 286 267 266
3 288 269 287
3 287 269 268
3 289 270 288
3 288 270 269
3 290 271 289
3 289 271 270
3 291 272 290
3 290 272 271
3 291 273 272
3 292 293 2
3 2 293 294
3 2 295 292
3 2 4 295
3 4 296 295
3 4 7 296
3 7 297 296
3 7 9 297
3 9 298 297
3 9 12 298
3 12 299 298
3 12 14 299
3 14 300 299
3 14 17 300
3 17 301 300
3 17 19 301
3 19 302 301
3 19 21 302
3 21 303 302
3 21 23 303
3 23 304 303
3 23 26 304
3 26 305 304
3 26 29 305
3 29 306 305
3 29 32 306
3 32 307 306
3 32 35 307
3 35 308 307
3 35 37 308
3 37 309 308
3 37 39 309
3 39 310 309
3 39 41 310
3 41 311 310
3 41 43 311
3 43 45 311
3 311 45 312
3 313 294 293
3 313 314 294
3 45 315 312
3 76 315 45
3 316 314 313
3 316 317 314
3 76 318 315
3 105 318 76
3 319 317 316
3 319 320 317
3 105 321 318
3 136 321 105
3 322 320 319
3 322 137 320
3 136 323 321
3 162 323 136
3 324 137 322
3 324 163 137
3 162 325 323
3 193 325 162
3 326 163 324
3 326 194 163
3 193 327 325
3 221 327 193
3 328 194 326
3 328 222 194
3 221 329 327
3 251 329 221
3 330 222 328
3 330 252 222
3 251 331 329
3 273 331 251
3 330 332 252
3 252 332 274
3 333 274 332
3 275 274 333
3 334 275 333
3 276 275 334
3 335 276 334
3 277 276 335
3 336 277 335
3 278 277 336
3 337 278 336
3 279 278 337
3 338 279 337
3 280 279 338
3 339 280 338
3 281 280 339
3 340 281 339
3 282 281 340
3 341 282 340
3 283 282 341
3 342 283 341
3 284 283 342
3 343 284 342
3 285 284 343
3 344 285 343
3 286 285 344
3 345 286 344
3 287 286 345
3 346 287 345
3 288 287 346
3 347 288 346
3 289 288 347
3 348 289 347
3 290 289 348
3 349 290 348
3 291 290 349
3 273 291 331
3 331 291 349
3 350 351 292
3 292 351 293
3 292 352 350
3 292 295 352
3 295 353 352
3 295 296 353
3 296 354 353
3 296 297 354
3 297 355 354
3 297 298 355
3 298 356 355
3 298 299 356
3 299 357 356
3 299 300 357
3 300 358 357
3 300 301 358
3 301 359 358
3 301 302 359
3 302 360 359
3 302 303 360
3 303 361 360
3 303 304 361
3 304 362 361
3 304 305 362
3 305 363 362
3 305 306 363
3 306 364 363
3 306 307 364
3 307 365 364
3 307 308 365
3 308 366 365
3 308 309 366
3 309 367 366
3 309 310 367
3 310 368 367
3 310 311 368
3 311 312 368
3 368 312 369
3 370 293 351
3 370 371 293
3 312 372 369
3 315 372 312
3 373 371 370
3 373 374 371
3 315 375 372
3 318 375 315
3 376 374 373
3 376 377 374
3 318 378 375
3 321 378 318
3 379 377 376
3 379 322 377
3 321 380 378
3 323 380 321
3 381 322 379
3 381 324 322
3 323 382 380
3 325 382 323
3 383 324 381
3 383 384 324
3 325 385 382
3 327 385 325
3 386 384 383
3 386 328 384
3 327 387 385
3 329 387 327
3 388 328 386
3 388 389 328
3 329 390 387
3 331 390 329
3 388 391 389
3 389 391 332
3 392 332 391
3 333 332 392
3 393 333 392
3 334 333 393
3 394 334 393
3 335 334 394
3 395 335 394
3 336 335 395
3 396 336 395
3 337 336 396
3 397 337 396
3 338 337 397
3 398 338 397
3 339 338 398
3 399 339 398
3 340 339 399
3 400 340 399
3 341 340 400
3 401 341 400
3 342 341 401
3 402 342 401
3 343 342 402
3 403 343 402
3 344 343 403
3 404 344 403
3 345 344 404
3 405 345 404
3 346 345 405
3 406 346 405
3 347 346 406
3 407 347 406
3 348 347 407
3 408 348 407
3 349 348 408
3 331 349 390
3 390 349 408
3 409 410 350
3 350 410 351
3 350 411 409
3 350 352 411
3 352 412 411
3 352 353 412
3 353 413 412
3 353 354 413
3 354 414 413
3 354 355 414
3 355 415 414
3 355 356 415
3 356 416 415
3 356 357 416
3 357 417 416
3 357 358 417
3 358 418 417
3 358 359 418
3 359 419 418
3 359 360 419
3 360 420 419
3 360 361 420
3 361 421 420
3 361 362 421
3 362 422 421
3 362 363 422
3 363 423 422
3 363 364 423
3 364 424 423
3 364 365 424
3 365 425 424
3 365 366 425
3 366 426 425
3 366 367 426
3 367 427 426
3 367 368 427
3 368 369 427
3 427 369 428
3 429 351 410
3 429 430 351
3 369 431 428
3 372 431 369
3 432 430 429
3 432 373 430
3 372 433 431
3 375 433 372
3 434 373 432
3 434 376 373
3 375 435 433
3 378 435 375
3 436 376 434
3 436 379 376
3 378 437 435
3 380 437 378
3 438 379 436
3 438 381 379
3 380 439 437
3 382 439 380
3 440 381 438
3 440 441 381
3 382 442 439
3 385 442 382
3 443 441 440
3 443 386 441
3 385 444 442
3 387 444 385
3 445 386 443
3 445 446 386
3 387 447 444
3 390 447 387
3 445 448 446
3 446 448 391
3 449 391 448
3 392 391 449
3 450 392 449
3 393 392 450
3 451 393 450
3 394 393 451
3 452 394 451
3 395 394 452
3 453 395 452
3 396 395 453
3 454 396 453
3 397 396 454
3 455 397 454
3 398 397 455
3 456 398 455
3 399 398 456
3 457 399 456
3 400 399 457
3 458 400 457
3 401 400 458
3 459 401 458
3 402 401 459
3 460 402 459
3 403 402 460
3 461 403 460
3 404 403 461
3 462 404 461
3 405 404 462
3 463 405 462
3 406 405 463
3 464 406 463
3 407 406 464
3 465 407 464
3 408 407 465
3 390 408 447
3 447 408 465
3 466 467 409
3 409 467 410
3 409 468 466
3 409 411 468
3 411 469 468
3 411 412 469
3 412 470 469
3 412 413 470
3 413 471 470
3 413 414 471
3 414 472 471
3 414 415 472
3 415 473 472
3 415 416 473
3 416 474 473
3 416 417 474
3 417 475 474
3 417 418 475
3 418 476 475
3 418 419 476
3 419 477 476
3 419 420 477
3 420 478 477
3 420 421 478
3 421 479 478
3 421 422 479
3 422 480 479
3 422 423 480
3 423 481 480
3 423 424 481
3 424 482 481
3 424 425 482
3 425 483 482
3 425 426 483
3 426 484 483
3 426 427 484
3 427 428 484
3 484 428 485
3 486 410 467
3 486 429 410
3 428 487 485
3 431 487 428
3 488 429 486
3 488 432 429
3 431 489 487
3 433 489 431
3 490 432 488
3 490 491 432
3 433 492 489
3 435 492 433
3 493 491 490
3 493 436 491
3 435 494 492
3 437 494 435
3 495 436 493
3 495 496 436
3 437 497 494
3 439 497 437
3 498 496 495
3 498 440 496
3 439 499 497
3 442 499 439
3 500 440 498
3 500 501 440
3 442 502 499
3 444 502 442
3 503 501 500
3 503 445 501
3 444 504 502
3 447 504 444
3 503 505 445
3 445 505 448
3 506 448 505
3 449 448 506
3 507 449 506
3 450 449 507
3 508 450 507
3 451 450 508
3 509 451 508
3 452 451 509
3 510 452 509
3 453 452 510
3 511 453 510
3 454 453 511
3 512 454 511
3 455 454 512
3 513 455 512
3 456 455 513
3 514 456 513
3 457 456 514
3 515 457 514
3 458 457 515
3 516 458 515
3 459 458 516
3 517 459 516
3 460 459 517
3 518 460 517
3 461 460 518
3 519 461 518
3 462 461 519
3 520 462 519
3 463 462 520
3 521 463 520
3 464 463 521
3 522 464 521
3 465 464 522
3 447 465 504
3 504 465 522
3 523 524 466
3 466 524 525
3 466 526 523
3 466 468 526
3 468 527 526
3 468 469 527
3 469 528 527
3 469 470 528
3 470 529 528
3 470 471 529
3 471 530 529
3 471 472 530
3 472 531 530
3 472 473 531
3 473 532 531
3 473 474 532
3 474 533 532
3 474 475 533
3 475 534 533
3 475 476 534
3 476 535 534
3 476 477 535
3 477 536 535
3 477 478 536
3 478 537 536
3 478 479 537
3 479 538 537
3 479 480 538
3 480 539 538
3 480 481 539
3 481 540 539
3 481 482 540
3 482 541 540
3 482 483 541
3 483 542 541
3 483 484 542
3 484 485 542
3 542 485 543
3 544 525 524
3 544 545 525
3 485 546 543
3 487 546 485
3 547 545 544
3 547 548 545
3 487 549 546
3 489 549 487
3 550 548 547
3 550 551 548
3 489 552 549
3 492 552 489
3 553 551 550
3 553 554 551
3 492 555 552
3 494 555 492
3 556 554 553
3 556 557 554
3 494 558 555
3 497 558 494
3 559 557 556
3 559 498 557
3 497 560 558
3 499 560 497
3 561 498 559
3 561 500 498
3 499 562 560
3 502 562 499
3 563 500 561
3 563 564 500
3 502 565 562
3 504 565 502
3 563 566 564
3 564 566 505
3 567 505 566
3 506 505 567
3 568 506 567
3 507 506 568
3 569 507 568
3 508 507 569
3 570 508 569
3 509 508 570
3 571 509 570
3 510 509 571
3 572 510 571
3 511 510 572
3 573 511 572
3 512 511 573
3 574 512 573
3 513 512 574
3 575 513 574
3 514 513 575
3 576 514 575
3 515 514 576
3 577 515 576
3 516 515 577
3 578 516 577
3 517 516 578
3 579 517 578
3 518 517 579
3 580 518 579
3 519 518 580
3 581 519 580
3 520 519 581
3 582 520 581
3 521 520 582
3 583 521 582
3 522 521 583
3 504 522 565
3 565 522 583
3 584 585 523
3 523 585 524
3 523 586 584
3 523 526 586
3 526 587 586
3 526 527 587
3 527 588 587
3 527 528 588
3 528 589 588
3 528 529 589
3 529 590 589
3 529 530 590
3 530 591 590
3 530 531 591
3 531 592 591
3 531 532 592
3 532 593 592
3 532 533 593
3 533 594 593
3 533 534 594
3 534 595 594
3 534 535 595
3 535 596 595
3 535 536 596
3 536 597 596
3 536 537 597
3 537 598 597
3 537 538 598
3 538 599 598
3 538 539 599
3 539 600 599
3 539 540 600
3 540 601 600
3 540 541 601
3 541 602 601
3 541 542 602
3 542 543 602
3 602 543 603
3 604 524 585
3 604 605 524
3 543 606 603
3 546 606 543
3 607 605 604
3 607 547 605
3 546 608 606
3 549 608 546
3 609 547 607
3 609 610 547
3 549 611 608
3 552 611 549
3 612 610 609
3 612 613 610
3 552 614 611
3 555 614 552
3 615 613 612
3 615 616 613
3 555 617 614
3 558 617 555
3 618 616 615
3 618 559 616
3 558 619 617
3 560 619 558
3 620 559 618
3 620 561 559
3 560 621 619
3 562 621 560
3 622 561 620
3 622 623 561
3 562 624 621
3 565 624 562
3 622 625 623
3 623 625 566
3 626 566 625
3 567 566 626
3 627 567 626
3 568 567 627
3 628 568 627
3 569 568 628
3 629 569 628
3 570 569 629
3 630 570 629
3 571 570 630
3 631 571 630
3 572 571 631
3 632 572 631
3 573 572 632
3 633 573 632
3 574 573 633
3 634 574 633
3 575 574 634
3 635 575 634
3 576 575 635
3 636 576 635
3 577 576 636
3 637 577 636
3 578 577 637
3 638 578 637
3 579 578 638
3 639 579 638
3 580 579 639
3 640 580 639
3 581 580 640
3 641 581 640
3 582 581 641
3 642 582 641
3 583 582 642
3 565 583 624
3 624 583 642
3 643 644 584
3 584 644 645
3 584 646 643
3 584 586 646
3 586 647 646
3 586 587 647
3 587 648 647
3 587 588 648
3 588 649 648
3 588 589 649
3 589 650 649
3 589 590 650
3 590 651 650
3 590 591 651
3 591 652 651
3 591 592 652
3 592 653 652
3 592 593 653
3 593 654 653
3 593 594 654
3 594 655 654
3 594 595 655
3 595 656 655
3 595 596 656
3 596 657 656
3 596 597 657
3 597 658 657
3 597 598 658
3 598 659 658
3 598 599 659
3 599 660 659
3 599 600 660
3 600 661 660
3 600 601 661
3 601 662 661
3 601 602 662
3 602 603 662
3 662 603 663
3 664 645 644
3 664 604 645
3 603 665 663
3 606 665 603
3 666 604 664
3 666 667 604
3 606 668 665
3 608 668 606
3 669 667 666
3 669 609 667
3 608 670 668
3 611 670 608
3 671 609 669
3 671 612 609
3 611 672 670
3 614 672 611
3 673 612 671
3 673 674 612
3 614 675 672
3 617 675 614
3 676 674 673
3 676 677 674
3 617 678 675
3 619 678 617
3 679 677 676
3 679 680 677
3 619 681 678
3 621 681 619
3 682 680 679
3 682 622 680
3 621 683 681
3 624 683 621
3 682 684 622
3 622 684 625
3 685 625 684
3 626 625 685
3 686 626 685
3 627 626 686
3 687 627 686
3 628 627 687
3 688 628 687
3 629 628 688
3 689 629 688
3 630 629 689
3 690 630 689
3 631 630 690
3 691 631 690
3 632 631 691
3 692 632 691
3 633 632 692
3 693 633 692
3 634 633 693
3 694 634 693
3 635 634 694
3 695 635 694
3 636 635 695
3 696 636 695
3 637 636 696
3 697 637 696
3 638 637 697
3 698 638 697
3 639 638 698
3 699 639 698
3 640 639 699
3 700 640 699
3 641 640 700
3 701 641 700
3 642 641 701
3 624 642 683
3 683 642 701
3 702 703 643
3 643 703 704
3 643 705 702
3 643 646 705
3 646 706 705
3 646 647 706
3 647 707 706
3 647 648 707
3 648 708 707
3 648 649 708
3 649 709 708
3 649 650 709
3 650 710 709
3 650 651 710
3 651 711 710
3 651 652 711
3 652 712 711
3 652 653 712
3 653 713 712
3 653 654 713
3 654 714 713
3 654 655 714
3 655 715 714
3 655 656 715
3 656 716 715
3 656 657 716
3 657 717 716
3 657 658 717
3 658 718 717
3 658 659 718
3 659 719 718
3 659 660 719
3 660 720 719
3 660 661 720
3 661 721 720
3 661 662 721
3 662 663 721
3 721 663 722
3 723 704 703
3 723 724 704
3 663 725 722
3 665 725 663
3 726 724 723
3 726 666 724
3 665 727 725
3 668 727 665
3 728 666 726
3 728 669 666
3 668 729 727
3 670 729 668
3 730 669 728
3 730 671 669
3 670 731 729
3 672 731 670
3 732 671 730
3 732 733 671
3 672 734 731
3 675 734 672
3 735 733 732
3 735 676 733
3 675 736 734
3 678 736 675
3 737 676 735
3 737 738 676
3 678 739 736
3 681 739 678
3 740 738 737
3 740 682 738
3 681 741 739
3 683 741 681
3 740 742 682
3 682 742 684
3 743 684 742
3 685 684 743
3 744 685 743
3 686 685 744
3 745 686 744
3 687 686 745
3 746 687 745
3 688 687 746
3 747 688 746
3 689 688 747
3 748 689 747
3 690 689 748
3 749 690 748
3 691 690 749
3 750 691 749
3 692 691 750
3 751 692 750
3 693 692 751
3 752 693 751
3 694 693 752
3 753 694 752
3 695 694 753
3 754 695 753
3 696 695 754
3 755 696 754
3 697 696 755
3 756 697 755
3 698 697 756
3 757 698 756
3 699 698 757
3 758 699 757
3 700 699 758
3 759 700 758
3 701 700 759
3 683 701 741
3 741 701 759
3 760 761 702
3 702 761 703
3 702 762 760
3 702 705 762
3 705 763 762
3 705 706 763
3 706 764 763
3 706 707 764
3 707 765 764
3 707 708 765
3 708 766 765
3 708 709 766
3 709 767 766
3 709 710 767
3 710 768 767
3 710 711 768
3 711 769 768
3 711 712 769
3 712 770 769
3 712 713 770
3 713 771 770
3 713 714 771
3 714 772 771
3 714 715 772
3 715 773 772
3 715 716 773
3 716 774 773
3 716 717 774
3 717 775 774
3 717 718 775
3 718 776 775
3 718 719 776
3 719 777 776
3 719 720 777
3 720 778 777
3 720 721 778
3 721 722 778
3 778 722 779
3 780 703 761
3 780 781 703
3 722 782 779
3 725 782 722
3 783 781 780
3 783 726 781
3 725 784 782
3 727 784 725
3 785 726 783
3 785 786 726
3 727 787 784
3 729 787 727
3 788 786 785
3 788 789 786
3 729 790 787
3 731 790 729
3 791 789 788
3 791 792 789
3 731 793 790
3 734 793 731
3 794 792 791
3 794 735 792
3 734 795 793
3 736 795 734
3 796 735 794
3 796 737 735
3 736 797 795
3 739 797 736
3 798 737 796
3 798 740 737
3 739 799 797
3 741 799 739
3 798 800 740
3 740 800 742
3 801 742 800
3 743 742 801
3 802 743 801
3 744 743 802
3 803 744 802
3 745 744 803
3 804 745 803
3 746 745 804
3 805 746 804
3 747 746 805
3 806 747 805
3 748 747 806
3 807 748 806
3 749 748 807
3 808 749 807
3 750 749 808
3 809 750 808
3 751 750 809
3 810 751 809
3 752 751 810
3 811 752 810
3 753 752 811
3 812 753 811
3 754 753 812
3 813 754 812
3 755 754 813
3 814 755 813
3 756 755 814
3 815 756 814
3 757 756 815
3 816 757 815
3 758 757 816
3 817 758 816
3 759 758 817
3 741 759 799
3 799 759 817
3 818 819 760
3 760 819 820
3 760 821 818
3 760 762 821
3 762 822 821
3 762 763 822
3 763 823 822
3 763 764 823
3 764 824 823
3 764 765 824
3 765 825 824
3 765 766 825
3 766 826 825
3 766 767 826
3 767 827 826
3 767 768 827
3 768 828 827
3 768 769 828
3 769 829 828
3 769 770 829
3 770 830 829
3 770 771 830
3 771 831 830
3 771 772 831
3 772 832 831
3 772 773 832
3 773 833 832
3 773 774 833
3 774 834 833
3 774 775 834
3 775 835 834
3 775 776 835
3 776 836 835
3 776 777 836
3 777 837 836
3 777 778 837
3 778 779 837
3 837 779 838
3 839 820 819
3 839 840 820
3 779 841 838
3 782 841 779
3 842 840 839
3 842 783 840
3 782 843 841
3 784 843 782
3 844 783 842
3 844 845 783
3 784 846 843
3 787 846 784
3 847 845 844
3 847 788 845
3 787 848 846
3 790 848 787
3 849 788 847
3 849 850 788
3 790 851 848
3 793 851 790
3 852 850 849
3 852 853 850
3 793 854 851
3 795 854 793
3 855 853 852
3 855 856 853
3 795 857 854
3 797 857 795
3 858 856 855
3 858 798 856
3 797 859 857
3 799 859 797
3 858 860 798
3 798 860 800
3 861 800 860
3 801 800 861
3 862 801 861
3 802 801 862
3 863 802 862
3 803 802 863
3 864 803 863
3 804 803 864
3 865 804 864
3 805 804 865
3 866 805 865
3 806 805 866
3 867 806 866
3 807 806 867
3 868 807 867
3 808 807 868
3 869 808 868
3 809 808 869
3 870 809 869
3 810 809 870
3 871 810 870
3 811 810 871
3 872 811 871
3 812 811 872
3 873 812 872
3 813 812 873
3 874 813 873
3 814 813 874
3 875 814 874
3 815 814 875
3 876 815 875
3 816 815 876
3 877 816 876
3 817 816 877
3 799 817 859
3 859 817 877
3 878 879 818
3 818 879 880
3 818 881 878
3 818 821 881
3 821 882 881
3 821 822 882
3 822 883 882
3 822 823 883
3 823 884 883
3 823 824 884
3 824 885 884
3 824 825 885
3 825 886 885
3 825 826 886
3 826 887 886
3 826 827 887
3 827 888 887
3 827 828 888
3 828 889 888
3 828 829 889
3 829 890 889
3 829 830 890
3 830 891 890
3 830 831 891
3 831 892 891
3 831 832 892
3 832 893 892
3 832 833 893
3 833 894 893
3 833 834 894
3 834 895 894
3 834 835 895
3 835 896 895
3 835 836 896
3 836 897 896
3 836 837 897
3 837 838 897
3 897 838 898
3 899 880 879
3 899 900 880
3 838 901 898
3 841 901 838
3 902 900 899
3 902 842 900
3 841 903 901
3 843 903 841
3 904 842 902
3 904 844 842
3 843 905 903
3 846 905 843
3 906 844 904
3 906 907 844
3 846 908 905
3 848 908 846
3 909 907 906
3 909 910 907
3 848 911 908
3 851 911 848
3 912 910 909
3 912 913 910
3 851 914 911
3 854 914 851
3 915 913 912
3 915 855 913
3 854 916 914
3 857 916 854
3 917 855 915
3 917 918 855
3 857 919 916
3 859 919 857
3 917 920 918
3 918 920 860
3 921 860 920
3 861 860 921
3 922 861 921
3 862 861 922
3 923 862 922
3 863 862 923
3 924 863 923
3 864 863 924
3 925 864 924
3 865 864 925
3 926 865 925
3 866 865 926
3 927 866 926
3 867 866 927
3 928 867 927
3 868 867 928
3 929 868 928
3 869 868 929
3 930 869 929
3 870 869 930
3 931 870 930
3 871 870 931
3 932 871 931
3 872 871 932
3 933 872 932
3 873 872 933
3 934 873 933
3 874 873 934
3 935 874 934
3 875 874 935
3 936 875 935
3 876 875 936
3 937 876 936
3 877 876 937
3 859 877 919
3 919 877 937
3 938 939 878
3 878 939 879
3 878 940 938
3 878 881 940
3 881 941 940
3 881 882 941
3 882 942 941
3 882 883 942
3 883 943 942
3 883 884 943
3 884 944 943
3 884 885 944
3 885 945 944
3 885 886 945
3 886 946 945
3 886 887 946
3 887 947 946
3 887 888 947
3 888 948 947
3 888 889 948
3 889 949 948
3 889 890 949
3 890 950 949
3 890 891 950
3 891 951 950
3 891 892 951
3 892 952 951
3 892 893 952
3 893 953 952
3 893 894 953
3 894 954 953
3 894 895 954
3 895 955 954
3 895 896 955
3 896 956 955
3 896 897 956
3 897 898 956
3 956 898 957
3 958 879 939
3 958 899 879
3 898 959 957
3 901 959 898
3 960 899 958
3 960 961 899
3 901 962 959
3 903 962 901
3 963 961 960
3 963 964 961
3 903 965 962
3 905 965 903
3 966 964 963
3 966 906 964
3 905 967 965
3 908 967 905
3 968 906 966
3 968 909 906
3 908 969 967
3 911 969 908
3 970 909 968
3 970 971 909
3 911 972 969
3 914 972 911
3 973 971 970
3 973 915 971
3 914 974 972
3 916 974 914
3 975 915 973
3 975 917 915
3 916 976 974
3 919 976 916
3 975 977 917
3 917 977 920
3 978 920 977
3 921 920 978
3 979 921 978
3 922 921 979
3 980 922 979
3 923 922 980
3 981 923 980
3 924 923 981
3 982 924 981
3 925 924 982
3 983 925 982
3 926 925 983
3 984 926 983
3 927 926 984
3 985 927 984
3 928 927 985
3 986 928 985
3 929 928 986
3 987 929 986
3 930 929 987
3 988 930 987
3 931 930 988
3 989 931 988
3 932 931 989
3 990 932 989
3 933 932 990
3 991 933 990
3 934 933 991
3 992 934 991
3 935 934 992
3 993 935 992
3 936 935 993
3 994 936 993
3 937 936 994
3 919 937 976
3 976 937 994
3 938 995 996
3 995 938 997
3 997 938 940
3 997 940 998
3 998 940 941
3 998 941 999
3 999 941 942
3 999 942 1000
3 1000 942 943
3 1000 943 1001
3 1001 943 944
3 1001 944 1002
3 1002 944 945
3 1002 945 1003
3 1003 945 946
3 1003 946 1004
3 1004 946 947
3 1004 947 1005
3 1005 947 948
3 1005 948 1006
3 1006 948 949
3 1006 949 1007
3 1007 949 950
3 1007 950 1008
3 1008 950 951
3 1008 951 1009
3 1009 951 952
3 1009 952 1010
3 1010 952 953
3 1010 953 1011
3 1011 953 954
3 1011 954 1012
3 1012 954 955
3 1012 955 1013
3 1013 955 956
3 956 957 1013
3 996 995 958
3 958 995 1014
3 997 1014 995
3 997 1015 1014
3 998 1015 997
3 998 1016 1015
3 999 1016 998
3 999 1017 1016
3 1000 1017 999
3 1000 1018 1017
3 1001 1018 1000
3 1001 1019 1018
3 1002 1019 1001
3 1002 1020 1019
3 1003 1020 1002
3 1003 1021 1020
3 1004 1021 1003
3 1004 1022 1021
3 1005 1022 1004
3 1005 1023 1022
3 1006 1023 1005
3 1006 1024 1023
3 1007 1024 1006
3 1007 1025 1024
3 1008 1025 1007
3 1008 1026 1025
3 1009 1026 1008
3 1009 1027 1026
3 1010 1027 1009
3 1010 1028 1027
3 1011 1028 1010
3 1011 1029 1028
3 1012 1029 1011
3 1012 1030 1029
3 1013 1030 1012
3 1013 1031 1030
3 1013 957 1031
3 1031 957 959
3 958 1014 960
3 960 1014 1032
3 1015 1032 1014
3 1015 1033 1032
3 1016 1033 1015
3 1016 1034 1033
3 1017 1034 1016
3 1017 1035 1034
3 1018 1035 1017
3 1018 1036 1035
3 1019 1036 1018
3 1019 1037 1036
3 1020 1037 1019
3 1020 1038 1037
3 1021 1038 1020
3 1021 1039 1038
3 1022 1039 1021
3 1022 1040 1039
3 1023 1040 1022
3 1023 1041 1040
3 1024 1041 1023
3 1024 1042 1041
3 1025 1042 1024
3 1025 1043 1042
3 1026 1043 1025
3 1026 1044 1043
3 1027 1044 1026
3 1027 1045 1044
3 1028 1045 1027
3 1028 1046 1045
3 1029 1046 1028
3 1029 1047 1046
3 1030 1047 1029
3 1030 1048 1047
3 1031 1048 1030
3 1031 1049 1048
3 1031 959 1049
3 1049 959 962
3 960 1032 963
3 963 1032 1050
3 1033 1050 1032
3 1033 1051 1050
3 1034 1051 1033
3 1034 1052 1051
3 1035 1052 1034
3 1035 1053 1052
3 1036 1053 1035
3 1036 1054 1053
3 1037 1054 1036
3 1037 1055 1054
3 1038 1055 1037
3 1038 1056 1055
3 1039 1056 1038
3 1039 1057 1056
3 1040 1057 1039
3 1040 1058 1057
3 1041 1058 1040
3 1041 1059 1058
3 1042 1059 1041
3 1042 1060 1059
3 1043 1060 1042
3 1043 1061 1060
3 1044 1061 1043
3 1044 1062 1061
3 1045 1062 1044
3 1045 1063 1062
3 1046 1063 1045
3 1046 1064 1063
3 1047 1064 1046
3 1047 1065 1064
3 1048 1065 1047
3 1048 1066 1065
3 1049 1066 1048
3 1049 1067 1066
3 1049 962 1067
3 1067 962 965
3 963 1050 966
3 966 1050 1068
3 1051 1068 1050
3 1051 1069 1068
3 1052 1069 1051
3 1052 1070 1069
3 1053 1070 1052
3 1053 1071 1070
3 1054 1071 1053
3 1054 1072 1071
3 1055 1072 1054
3 1055 1073 1072
3 1056 1073 1055
3 1056 1074 1073
3 1057 1074 1056
3 1057 1075 1074
3 1058 1075 1057
3 1058 1076 1075
3 1059 1076 1058
3 1059 1077 1076
3 1060 1077 1059
3 1060 1078 1077
3 1061 1078 1060
3 1061 1079 1078
3 1062 1080 1061
3 1062 1081 1080
3 1063 1081 1062
3 1063 1082 1081
3 1064 1082 1063
3 1064 1083 1082
3 1065 1083 1064
3 1065 1084 1083
3 1066 1084 1065
3 1066 1085 1084
3 1067 1085 1066
3 1067 1086 1085
3 1067 965 1086
3 1086 965 967
3 966 1068 1087
3 1087 1068 1088
3 1069 1088 1068
3 1069 1089 1088
3 1070 1089 1069
3 1070 1090 1089
3 1071 1090 1070
3 1071 1091 1090
3 1072 1091 1071
3 1072 1092 1091
3 1073 1092 1072
3 1073 1093 1092
3 1074 1094 1073
3 1074 1095 1094
3 1075 1095 1074
3 1075 1096 1095
3 1076 1096 1075
3 1076 1097 1096
3 1077 1097 1076
3 1077 1098 1097
3 1078 1098 1077
3 1078 1099 1098
3 1079 1100 1078
3 1079 1101 1100
3 1081 1101 1080
3 1081 1102 1101
3 1082 1102 1081
3 1082 1103 1102
3 1083 1103 1082
3 1083 1104 1103
3 1084 1104 1083
3 1084 1105 1104
3 1085 1105 1084
3 1085 1106 1105
3 1086 1106 1085
3 1086 1107 1106
3 1086 967 1107
3 1107 967 969
3 1087 1088 1108
3 1108 1088 1109
3 1089 1109 1088
3 1089 1110 1109
3 1090 1110 1089
3 1090 1111 1110
3 1091 1111 1090
3 1091 1112 1111
3 1092 1112 1091
3 1092 1113 1112
3 1093 1113 1092
3 1093 1114 1113
3 1095 1114 1094
3 1095 1115 1114
3 1096 1115 1095
3 1096 1116 1115
3 1097 1116 1096
3 1097 1117 1116
3 1098 1117 1097
3 1098 1118 1117
3 1099 1118 1098
3 1099 1119 1118
3 1101 1119 1100
3 1101 1120 1119
3 1102 1120 1101
3 1102 1121 1120
3 1103 1121 1102
3 1103 1122 1121
3 1104 1122 1103
3 1104 1123 1122
3 1105 1123 1104
3 1105 1124 1123
3 1106 1124 1105
3 1106 1125 1124
3 1107 1125 1106
3 1107 1126 1125
3 1107 969 1126
3 1126 969 972
3 1108 1109 973
3 973 1109 1127
3 1110 1127 1109
3 1110 1128 1127
3 1111 1128 1110
3 1111 1129 1128
3 1112 1129 1111
3 1112 1130 1129
3 1113 1130 1112
3 1113 1131 1130
3 1114 1131 1113
3 1114 1132 1131
3 1115 1132 1114
3 1115 1133 1132
3 1116 1133 1115
3 1116 1134 1133
3 1117 1134 1116
3 1117 1135 1134
3 1118 1135 1117
3 1118 1136 1135
3 1119 1136 1118
3 1119 1137 1136
3 1120 1137 1119
3 1120 1138 1137
3 1121 1138 1120
3 1121 1139 1138
3 1122 1139 1121
3 1122 1140 1139
3 1123 1140 1122
3 1123 1141 1140
3 1124 1141 1123
3 1124 1142 1141
3 1125 1142 1124
3 1125 1143 1142
3 1126 1143 1125
3 1126 1144 1143
3 1126 972 1144
3 1144 972 974
3 973 1127 1145
3 1145 1127 1146
3 1128 1146 1127
3 1128 1147 1146
3 1129 1147 1128
3 1129 1148 1147
3 1130 1148 1129
3 1130 1149 1148
3 1131 1149 1130
3 1131 1150 1149
3 1132 1150 1131
3 1132 1151 1150
3 1133 1151 1132
3 1133 1152 1151
3 1134 1152 1133
3 1134 1153 1152
3 1135 1153 1134
3 1135 1154 1153
3 1136 1155 1135
3 1136 1156 1155
3 1137 1156 1136
3 1137 1157 1156
3 1138 1157 1137
3 1138 1158 1157
3 1139 1158 1138
3 1139 1159 1158
3 1140 1159 1139
3 1140 1160 1159
3 1141 1160 1140
3 1141 1161 1160
3 1142 1161 1141
3 1142 1162 1161
3 1143 1162 1142
3 1143 1163 1162
3 1144 1163 1143
3 1144 1164 1163
3 1144 974 1164
3 1164 974 976
3 1146 977 1145
3 1147 978 1146
3 1146 978 977
3 1148 979 1147
3 1147 979 978
3 1149 980 1148
3 1148 980 979
3 1150 981 1149
3 1149 981 980
3 1151 982 1150
3 1150 982 981
3 1152 983 1151
3 1151 983 982
3 1153 984 1152
3 1152 984 983
3 1154 985 1153
3 1153 985 984
3 1156 986 1155
3 1155 986 985
3 1157 987 1156
3 1156 987 986
3 1158 988 1157
3 1157 988 987
3 1159 989 1158
3 1158 989 988
3 1160 990 1159
3 1159 990 989
3 1161 991 1160
3 1160 991 990
3 1162 992 1161
3 1161 992 991
3 1163 993 1162
3 1162 993 992
3 1164 994 1163
3 1163 994 993
3 976 994 1164
