ply
format ascii 1.0
element vertex 1257
property float x
property float y
property float z
element face 2152
property list uchar int vertex_index
end_header
0.564957 1 1
1 1 0.564957
1 0.56553 1
1 1 0.564957
2 0.565488 1
2 1 0.564915
3 0.565449 1
3 1 0.564876
3 1 0.564876
4 0.565416 1
4 1 0.564842
4 1 0.564842
5 0.56539 1
5 1 0.564816
5 1 0.564816
6 0.565372 1
6 1 0.564798
6 1 0.564798
7 0.565362 1
7 1 0.564787
8 0.56536 1
8 1 0.564784
8 1 0.564784
9 0.565363 1
9 1 0.564788
10 0.565371 1
10 1 0.564796
11 0.565383 1
11 1 0.564807
11 1 0.564807
12 0.565397 1
12 1 0.564821
13 0.565413 1
13 1 0.564837
13 1 0.564837
14 0.56543 1
14 1 0.564854
14 1 0.564854
15 0.565448 1
15 1 0.564872
16 0.565466 1
16 1 0.56489
17 0.565486 1
17 1 0.56491
17 1 0.56491
18 0.565497 1
18 1 0.564921
18 1 0.564921
18.4351 1 1
0.513828 2 1
1 2 0.513828
2 2 0.513783
3 2 0.513732
3 2 0.513732
4 2 0.513682
4 2 0.513682
5 2 0.513636
6 2 0.513598
7 2 0.513569
7 2 0.513569
8 2 0.513549
9 2 0.513537
10 2 0.513533
11 2 0.513534
12 2 0.51354
13 2 0.513549
13 2 0.513549
14 2 0.51356
15 2 0.513573
16 2 0.513588
16 2 0.513588
17 2 0.513604
18 2 0.513614
18 2 0.513614
18.4864 2 1
0.45477 3 1
1 3 0.45477
2 3 0.454712
2 3 0.454712
3 3 0.454639
3 3 0.454639
4 3 0.45456
4 3 0.45456
5 3 0.454485
5 3 0.454485
6 3 0.454417
6 3 0.454417
7 3 0.454363
7 3 0.454363
8 3 0.454321
8 3 0.454321
9 3 0.454292
10 3 0.454274
10 3 0.454274
11 3 0.454264
11 3 0.454264
12 3 0.454262
12 3 0.454262
13 3 0.454264
13 3 0.454264
14 3 0.454271
15 3 0.45428
15 3 0.45428
16 3 0.454291
16 3 0.454291
17 3 0.454305
17 3 0.454305
18 3 0.454313
18.5457 3 1
0.388446 4 1
1 4 0.388446
1 4 0.388446
2 4 0.388366
3 4 0.388254
3 4 0.388254
4 4 0.38813
4 4 0.38813
5 4 0.388009
5 4 0.388009
6 4 0.3879
6 4 0.3879
7 4 0.387811
7 4 0.387811
8 4 0.387743
8 4 0.387743
9 4 0.387694
9 4 0.387694
10 4 0.387662
10 4 0.387662
11 4 0.387643
11 4 0.387643
12 4 0.387633
12 4 0.387633
13 4 0.38763
14 4 0.387632
14 4 0.387632
15 4 0.387639
15 4 0.387639
16 4 0.387648
16 4 0.387648
17 4 0.38766
17 4 0.38766
18 4 0.387667
18 4 0.387667
18.6123 4 1
0.646873 5 1
1 5 0.646873
1 5 0.646873
2 5 0.64675
3 5 0.646636
3 5 0.646636
4 5 0.646545
5 5 0.64648
6 5 0.646442
6 5 0.646442
7 5 0.646428
8 5 0.646433
8 5 0.646433
9 5 0.646449
9 5 0.646449
10 5 0.646472
11 5 0.646498
12 5 0.646526
12 5 0.646526
13 5 0.646555
14 5 0.646583
15 5 0.646611
16 5 0.646639
17 5 0.646667
18 5 0.646684
18 5 0.646684
18.3533 5 1
0.630159 6 1
1 6 0.630159
1 6 0.630159
2 6 0.629948
2 6 0.629948
3 6 0.629752
4 6 0.629567
5 6 0.629422
5 6 0.629422
6 6 0.629323
6 6 0.629323
7 6 0.62927
8 6 0.62925
9 6 0.629253
10 6 0.629268
10 6 0.629268
11 6 0.62929
11 6 0.62929
12 6 0.629315
13 6 0.629342
14 6 0.62937
14 6 0.62937
15 6 0.629397
15 6 0.629397
16 6 0.629423
17 6 0.629452
18 6 0.629467
18.3705 6 1
0.570937 7 1
1 7 0.570937
2 7 0.570529
2 7 0.570529
3 7 0.570463
4 7 0.570066
5 7 0.569733
5 7 0.569733
6 7 0.569498
7 7 0.569359
8 7 0.569293
9 7 0.569271
9 7 0.569271
10 7 0.569275
11 7 0.569292
11 7 0.569292
12 7 0.569315
13 7 0.569342
13 7 0.569342
14 7 0.569369
15 7 0.569397
16 7 0.569423
17 7 0.56945
18 7 0.569464
18.4305 7 1
0.469892 8 1
1 8 0.469892
1 8 0.469892
2 8 0.468974
3 8 0.473298
3 8 0.473298
4 8 0.472519
4 8 0.472519
5 8 0.471836
5 8 0.471836
6 8 0.471371
7 8 0.471122
7 8 0.471122
8 8 0.471017
8 8 0.471017
9 8 0.470989
10 8 0.471001
10 8 0.471001
11 8 0.471029
12 8 0.471065
12 8 0.471065
13 8 0.471102
13 8 0.471102
14 8 0.471139
14 8 0.471139
15 8 0.471173
15 8 0.471173
16 8 0.471203
16 8 0.471203
17 8 0.471231
17 8 0.471231
18 8 0.471245
18.5288 8 1
0.325565 9 1
1 9 0.325563
1 9 0.325563
2 9 0.323029
3 9 0.653792
4 9 0.667163
4 9 0.667163
5 9 0.667442
5 9 0.667442
6 9 0.667681
6 9 0.667681
7 9 0.667979
7 9 0.667979
8 9 0.668243
8 9 0.668243
9 9 0.668445
9 9 0.668445
10 9 0.668597
10 9 0.668597
11 9 0.668707
11 9 0.668707
12 9 0.668791
12 9 0.668791
13 9 0.668857
14 9 0.668909
14 9 0.668909
15 9 0.668952
15 9 0.668952
16 9 0.668989
16 9 0.668989
17 9 0.669022
18 9 0.66904
18 9 0.66904
18.3399 9 1
0.595345 10 1
1 10 0.596254
1 10 0.596254
2 10 0.59228
3 10 0.601794
3 10 0.601794
4 10 0.601119
4 10 0.601119
5 10 0.600247
5 10 0.600247
6 10 0.60014
7 10 0.600465
7 10 0.600465
8 10 0.600818
9 10 0.601107
9 10 0.601107
10 10 0.601334
11 10 0.601506
11 10 0.601506
12 10 0.601639
12 10 0.601639
13 10 0.601744
13 10 0.601744
14 10 0.601826
15 10 0.60189
16 10 0.601938
16 10 0.601938
17 10 0.601976
18 10 0.601994
18 10 0.601994
18.3998 10 1
1 10.3926 1
2 10.3965 1
3 10.3997 1
4 10.4005 1
5 10.4013 1
6 10.4015 1
7 10.4012 1
8 10.4008 1
9 10.4005 1
10 10.4003 1
11 10.4001 1
12 10.4 1
13 10.3999 1
14 10.3998 1
15 10.3998 1
16 10.3997 1
17 10.3997 1
18 10.3997 1
1 0.59888 2
0.598305 1 2
2 0.598837 2
3 0.598798 2
4 0.598766 2
5 0.598742 2
6 0.598727 2
7 0.59872 2
8 0.598721 2
9 0.598728 2
10 0.598739 2
11 0.598754 2
12 0.598772 2
13 0.59879 2
14 0.59881 2
15 0.59883 2
16 0.59885 2
17 0.598872 2
18 0.598884 2
18.4017 1 2
0.544807 2 2
0.513828 2 1
18.4554 2 2
0.484539 3 2
18.5159 3 2
0.417947 4 2
18.5828 4 2
0.697712 5 2
0.646873 5 1
18.3023 5 2
0.683647 6 2
18.3169 6 2
18.3705 6 1
0.626508 7 2
18.375 7 2
0.529225 8 2
0.469892 8 1
18.474 8 2
0.394911 9 2
18.6109 9 2
0.510537 10 2
18.4884 10 2
1 10.4869 2
2 10.4872 2
3 10.4855 2
4 10.4851 2
5 10.4859 2
6 10.4862 2
7 10.4861 2
8 10.4859 2
9 10.4859 2
10 10.4858 2
11 10.4858 2
12 10.4858 2
13 10.4858 2
14 10.4857 2
15 10.4857 2
16 10.4857 2
17 10.4857 2
18 10.4857 2
1 0.622006 3
0.621461 1 3
2 0.621965 3
3 0.621927 3
4 0.621895 3
5 0.621872 3
6 0.621857 3
7 0.62185 3
8 0.62185 3
9 0.621857 3
10 0.621868 3
11 0.621883 3
12 0.6219 3
13 0.621919 3
14 0.621939 3
15 0.621959 3
16 0.621979 3
17 0.622002 3
18 0.622014 3
18.3785 1 3
0.567906 2 3
0.544807 2 2
18.4322 2 3
0.508363 3 3
18.492 3 3
0.438875 4 3
0.417947 4 2
18.5617 4 3
0.71236 5 3
0.697712 5 2
18.2876 5 3
0.712989 6 3
0.683647 6 2
18.2874 6 3
0.658942 7 3
0.626508 7 2
18.3421 7 3
0.437486 8 3
0.529225 8 2
18.5617 8 3
0.417932 9 3
0.394911 9 2
18.5823 9 3
0.356062 10 3
0.510537 10 2
18.6599 10 3
1 10.644 3
2 10.6503 3
3 10.6479 3
4 10.6475 3
5 10.6541 3
6 10.6598 3
7 10.661 3
8 10.6608 3
9 10.6608 3
10 10.6605 3
11 10.6604 3
12 10.6603 3
13 10.6602 3
14 10.6601 3
15 10.6601 3
16 10.66 3
17 10.66 3
18 10.6599 3
1 0.626929 4
0.626531 1 4
2 0.626891 4
3 0.626856 4
4 0.626827 4
5 0.626804 4
6 0.626789 4
7 0.62678 4
8 0.626779 4
9 0.626783 4
10 0.626792 4
11 0.626804 4
12 0.626819 4
13 0.626836 4
14 0.626854 4
15 0.626873 4
16 0.626892 4
17 0.626913 4
18 0.626925 4
18.3735 1 4
0.57578 2 4
0.567906 2 3
18.4243 2 4
0.512769 3 4
0.508363 3 3
18.4875 3 4
0.297235 4 4
18.7027 4 4
0.264403 5 4
0.71236 5 3
18.7356 5 4
0.491709 6 4
18.5076 6 4
0.520575 7 4
0.658942 7 3
18.4785 7 4
0.529197 8 4
0.437486 8 3
18.4696 8 4
0.5269 9 4
0.417932 9 3
18.4723 9 4
0.493582 10 4
18.5199 10 4
1 10.5064 4
2 10.5116 4
3 10.509 4
4 10.5081 4
5 10.5096 4
6 10.5131 4
7 10.5177 4
8 10.5185 4
9 10.5201 4
10 10.5203 4
11 10.5204 4
12 10.5203 4
13 10.5202 4
14 10.5201 4
15 10.52 4
16 10.52 4
17 10.5199 4
18 10.5199 4
1 0.429663 5
0.429471 1 5
0.626531 1 4
2 0.429647 5
3 0.429639 5
4 0.429639 5
5 0.429646 5
6 0.429659 5
7 0.429676 5
8 0.429698 5
9 0.429721 5
10 0.429745 5
11 0.429769 5
12 0.429792 5
13 0.429815 5
14 0.429835 5
15 0.429854 5
16 0.429871 5
17 0.429888 5
18 0.429896 5
18.5703 1 5
0.403523 2 5
18.5963 2 5
0.377918 3 5
0.512769 3 4
18.6219 3 5
0.350692 4 5
18.6492 4 5
0.323062 5 5
18.6768 5 5
0.54493 6 5
0.491709 6 4
18.4544 6 5
0.58429 7 5
18.4148 7 5
0.604187 8 5
18.3947 8 5
0.613924 9 5
18.385 9 5
0.601163 10 5
0.493582 10 4
18.4103 10 5
1 10.3988 5
2 10.4035 5
3 10.4027 5
4 10.4029 5
5 10.4003 5
6 10.4004 5
7 10.4037 5
8 10.4058 5
9 10.4077 5
10 10.4067 5
11 10.41 5
12 10.4109 5
13 10.4107 5
14 10.4105 5
15 10.4105 5
16 10.4104 5
17 10.4104 5
18 10.4103 5
1 0.468728 6
0.468575 1 6
0.429471 1 5
2 0.468715 6
3 0.468708 6
4 0.468708 6
5 0.468714 6
6 0.468726 6
7 0.468742 6
8 0.468761 6
9 0.468783 6
10 0.468806 6
11 0.468829 6
12 0.468852 6
13 0.468873 6
14 0.468893 6
15 0.468912 6
16 0.468929 6
17 0.468945 6
18 0.468954 6
18.5312 1 6
0.444605 2 6
0.403523 2 5
18.5552 2 6
0.42194 3 6
0.377918 3 5
18.5779 3 6
0.399498 4 6
18.6003 4 6
0.376873 5 6
18.6229 5 6
0.354866 6 6
18.6448 6 6
0.622602 7 6
18.3767 7 6
0.659117 8 6
18.3401 8 6
0.676929 9 6
18.3223 9 6
0.676926 10 6
0.601163 10 5
18.3323 10 6
1 10.3231 6
2 10.3269 6
3 10.3271 6
4 10.3281 6
5 10.3254 6
6 10.3245 6
7 10.3258 6
8 10.3271 6
9 10.3272 6
10 10.3272 6
11 10.3287 6
12 10.3304 6
13 10.3319 6
14 10.332 6
15 10.3324 6
16 10.3324 6
17 10.3323 6
18 10.3323 6
1 0.501858 7
0.501743 1 7
2 0.501846 7
3 0.50184 7
4 0.50184 7
5 0.501845 7
6 0.501855 7
7 0.501869 7
8 0.501886 7
9 0.501905 7
10 0.501925 7
11 0.501946 7
12 0.501967 7
13 0.501986 7
14 0.502005 7
15 0.502023 7
16 0.502039 7
17 0.502054 7
18 0.502062 7
18.4981 1 7
0.480285 2 7
0.444605 2 6
18.5195 2 7
0.460839 3 7
0.42194 3 6
18.539 3 7
0.442436 4 7
0.399498 4 6
18.5574 4 7
0.424614 5 7
0.376873 5 6
18.5751 5 7
0.407098 6 7
18.5926 6 7
0.652713 7 7
0.622602 7 6
18.3469 7 7
0.686431 8 7
18.3132 8 7
0.716403 9 7
18.2834 9 7
0.723871 10 7
18.2826 10 7
1 10.2761 7
2 10.279 7
3 10.2792 7
4 10.2792 7
5 10.2786 7
6 10.2781 7
7 10.279 7
8 10.2789 7
9 10.2785 7
10 10.2795 7
11 10.2784 7
12 10.2787 7
13 10.2807 7
14 10.2813 7
15 10.282 7
16 10.2824 7
17 10.2826 7
18 10.2826 7
1 0.528783 8
0.528701 1 8
0.501743 1 7
2 0.528773 8
3 0.528767 8
4 0.528767 8
5 0.52877 8
6 0.528778 8
7 0.528789 8
8 0.528803 8
9 0.52882 8
10 0.528837 8
11 0.528855 8
12 0.528873 8
13 0.528891 8
14 0.528907 8
15 0.528923 8
16 0.528937 8
17 0.528951 8
18 0.528958 8
18.4711 1 8
0.510151 2 8
0.480285 2 7
18.4897 2 8
0.494078 3 8
18.5058 3 8
0.479591 4 8
0.442436 4 7
18.5202 4 8
0.466202 5 8
0.424614 5 7
18.5336 5 8
0.453474 6 8
0.407098 6 7
18.5463 6 8
0.441767 7 8
18.5579 7 8
0.429673 8 8
18.5699 8 8
0.720079 9 8
0.716403 9 7
18.28 9 8
0.745218 10 8
0.723871 10 7
18.2589 10 8
1 10.2543 8
2 10.2562 8
3 10.2559 8
4 10.2554 8
5 10.2557 8
6 10.2565 8
7 10.2559 8
8 10.2554 8
9 10.2559 8
10 10.2568 8
11 10.2557 8
12 10.2554 8
13 10.2558 8
14 10.2564 8
15 10.2568 8
16 10.2577 8
17 10.2584 8
18 10.2585 8
1 0.550016 9
0.549963 1 9
2 0.550008 9
3 0.550003 9
4 0.550002 9
5 0.550005 9
6 0.550011 9
7 0.55002 9
8 0.550031 9
9 0.550044 9
10 0.550059 9
11 0.550074 9
12 0.550089 9
13 0.550104 9
14 0.550118 9
15 0.550131 9
16 0.550144 9
17 0.550156 9
18 0.550162 9
18.4499 1 9
0.534618 2 9
0.510151 2 8
18.4652 2 9
0.522031 3 9
0.494078 3 8
18.4778 3 9
0.511354 4 9
0.479591 4 8
18.4885 4 9
0.50208 5 9
18.4977 5 9
0.493728 6 9
18.5061 6 9
0.485856 7 9
0.441767 7 8
18.5139 7 9
0.478099 8 9
18.5216 8 9
0.470531 9 9
18.5293 9 9
1 10 8.45726
0.745218 10 8
1 9.63699 9
2 9.63753 9
2 10 8.45977
3 9.63747 9
3 10 8.45937
4 9.63742 9
4 10 8.45878
5 9.63752 9
5 10 8.45919
6 9.6375 9
6 10 8.46002
7 9.63732 9
7 10 8.45923
8 9.63734 9
8 10 8.45873
9 9.63754 9
9 10 8.45937
10 9.63772 9
10 10 8.46047
11 9.63728 9
11 10 8.45904
12 9.63708 9
12 10 8.45858
13 9.63723 9
13 10 8.45904
14 9.63747 9
14 10 8.45989
15 9.63765 9
15 10 8.4605
16 9.63792 9
16 10 8.46165
17 9.6381 9
17 10 8.46247
18 9.63812 9
18 10 8.46259
1 0.566214 10
0.566183 1 10
0.549963 1 9
2 0.566206 10
3 0.566202 10
4 0.566202 10
5 0.566205 10
6 0.56621 10
7 0.566216 10
8 0.566225 10
9 0.566236 10
10 0.566248 10
11 0.566261 10
12 0.566273 10
13 0.566286 10
14 0.566297 10
15 0.566308 10
16 0.566318 10
17 0.566328 10
18 0.566333 10
18.4337 1 10
0.554243 2 10
18.4456 2 10
0.545204 3 10
0.522031 3 9
18.4547 3 10
0.538267 4 10
18.4616 4 10
0.532902 5 10
18.467 5 10
0.528537 6 10
18.4713 6 10
0.524565 7 10
0.485856 7 9
18.4753 7 10
0.520525 8 10
18.4793 8 10
0.515693 9 10
18.4843 9 10
1 9.49331 10
2 9.49333 10
3 9.49349 10
4 9.4935 10
5 9.4934 10
6 9.49332 10
7 9.49345 10
8 9.49351 10
9 9.49342 10
10 9.49325 10
11 9.49322 10
12 9.49322 10
13 9.49325 10
14 9.49329 10
15 9.49332 10
16 9.49334 10
17 9.49339 10
18 9.49341 10
1 0.578114 11
0.578099 1 11
0.566183 1 10
2 0.578105 11
3 0.578102 11
4 0.578103 11
5 0.578107 11
6 0.578112 11
7 0.578116 11
8 0.578123 11
9 0.578132 11
10 0.578142 11
11 0.578153 11
12 0.578164 11
13 0.578174 11
14 0.578183 11
15 0.578191 11
16 0.578199 11
17 0.578207 11
18 0.578211 11
18.4218 1 11
0.569679 2 11
0.554243 2 10
18.4302 2 11
0.564225 3 11
0.545204 3 10
18.4357 3 11
0.560976 4 11
0.538267 4 10
18.4389 4 11
0.559354 5 11
18.4405 5 11
0.558688 6 11
0.528537 6 10
18.4412 6 11
0.558243 7 11
18.4416 7 11
0.557372 8 11
0.520525 8 10
18.4426 8 11
0.555153 9 11
18.4449 9 11
1 9.44522 11
2 9.44518 11
3 9.4455 11
4 9.44545 11
5 9.44528 11
6 9.44533 11
7 9.4455 11
8 9.4454 11
9 9.44515 11
10 9.44511 11
11 9.44523 11
12 9.44531 11
13 9.44527 11
14 9.44523 11
15 9.44519 11
16 9.44522 11
17 9.44526 11
18 9.44528 11
1 0.586076 12
0.586071 1 12
2 0.586057 12
3 0.586053 12
4 0.586057 12
5 0.586063 12
6 0.586073 12
7 0.586072 12
8 0.586076 12
9 0.586084 12
10 0.586091 12
11 0.586101 12
12 0.58611 12
13 0.586119 12
14 0.586123 12
15 0.586128 12
16 0.586134 12
17 0.586141 12
18 0.586144 12
18.4139 1 12
0.581192 2 12
0.569679 2 11
18.4187 2 12
0.57932 3 12
0.564225 3 11
18.4206 3 12
0.579703 4 12
0.560976 4 11
18.4202 4 12
0.581714 5 12
0.559354 5 11
18.4182 5 12
0.584591 6 12
0.558688 6 11
18.4153 6 12
0.587452 7 12
0.558243 7 11
18.4124 7 12
0.589416 8 12
0.557372 8 11
18.4105 8 12
0.589468 9 12
18.4105 9 12
1 9.41054 12
2 9.41063 12
3 9.41075 12
4 9.41065 12
5 9.41049 12
6 9.41062 12
7 9.41064 12
8 9.4105 12
9 9.41046 12
10 9.41057 12
11 9.4106 12
12 9.41061 12
13 9.41053 12
14 9.41052 12
15 9.41049 12
16 9.41049 12
17 9.4105 12
18 9.41053 12
1 0.59208 13
0.592079 1 13
0.586071 1 12
2 0.592017 13
3 0.592037 13
4 0.592042 13
5 0.592053 13
6 0.592091 13
7 0.592055 13
8 0.592069 13
9 0.592072 13
10 0.592081 13
11 0.592108 13
12 0.592101 13
13 0.592108 13
14 0.592111 13
15 0.592114 13
16 0.592122 13
17 0.592129 13
18 0.592132 13
18.4079 1 13
0.590067 2 13
0.581192 2 12
18.4101 2 13
0.590917 3 13
18.4094 3 13
0.594056 4 13
0.579703 4 12
18.4065 4 13
0.598802 5 13
18.4019 5 13
0.604275 6 13
0.584591 6 12
18.3966 6 13
0.609425 7 13
18.3914 7 13
0.61305 8 13
18.3873 8 13
0.614462 9 13
0.589468 9 12
18.3856 9 13
1 9.38554 13
2 9.38548 13
3 9.38421 13
4 9.38481 13
5 9.38543 13
6 9.38562 13
7 9.38524 13
8 9.38547 13
9 9.38563 13
10 9.38542 13
11 9.38557 13
12 9.38517 13
13 9.38544 13
14 9.38494 13
15 9.38527 13
16 9.38557 13
17 9.38561 13
18 9.38564 13
1 1 13.4079
1 1 13.4079
2 1 13.408
3 1 13.408
4 1 13.408
5 1 13.4079
6 1 13.4079
7 1 13.4079
8 1 13.4079
9 1 13.4079
10 1 13.4079
11 1 13.4079
12 1 13.4079
13 1 13.4079
14 1 13.4079
15 1 13.4079
16 1 13.4079
17 1 13.4079
18 1 13.4079
1 2 13.4099
2 2 13.4101
3 2 13.4101
4 2 13.4101
5 2 13.4102
6 2 13.41
7 2 13.4101
8 2 13.4101
9 2 13.4101
10 2 13.4101
11 2 13.4101
12 2 13.4101
13 2 13.4101
14 2 13.4101
15 2 13.4101
16 2 13.4101
17 2 13.4101
18 2 13.4101
18 2 13.4101
1 3 13.4091
2 3 13.4093
3 3 13.4095
4 3 13.4093
5 3 13.4094
6 3 13.4092
7 3 13.4093
8 3 13.4094
9 3 13.4093
10 3 13.4094
11 3 13.4094
12 3 13.4094
13 3 13.4092
14 3 13.4093
15 3 13.4094
15 3 13.4094
16 3 13.4094
17 3 13.4094
18 3 13.4094
1 4 13.4059
2 4 13.4063
3 4 13.4065
4 4 13.4062
5 4 13.4064
6 4 13.4061
7 4 13.4063
8 4 13.4065
9 4 13.4063
10 4 13.4063
11 4 13.4064
12 4 13.4064
13 4 13.4062
14 4 13.4063
15 4 13.4064
16 4 13.4064
17 4 13.4064
18 4 13.4064
0.598802 5 13
1 5 13.4011
2 5 13.4017
3 5 13.4019
4 5 13.4016
5 5 13.4018
6 5 13.4014
7 5 13.4017
8 5 13.4019
9 5 13.4019
10 5 13.4017
10 5 13.4017
11 5 13.4017
12 5 13.4018
13 5 13.4016
14 5 13.4017
15 5 13.4018
16 5 13.4018
17 5 13.4018
18 5 13.4019
1 6 13.3956
1 6 13.3956
2 6 13.3963
3 6 13.3965
4 6 13.396
5 6 13.3963
6 6 13.396
7 6 13.3963
8 6 13.3965
9 6 13.3965
10 6 13.3965
11 6 13.3961
12 6 13.3963
13 6 13.3963
14 6 13.3963
15 6 13.3964
16 6 13.3964
17 6 13.3965
18 6 13.3965
0.609425 7 13
1 7 13.3905
2 7 13.391
3 7 13.3911
4 7 13.3904
5 7 13.3908
6 7 13.3912
7 7 13.3912
8 7 13.3913
9 7 13.3913
10 7 13.3913
11 7 13.3909
12 7 13.3909
13 7 13.3911
14 7 13.391
15 7 13.3912
16 7 13.3911
17 7 13.3912
18 7 13.3913
1 8 13.3868
2 8 13.3871
2 8 13.3871
3 8 13.3866
4 8 13.3861
5 8 13.3869
6 8 13.3872
7 8 13.3869
8 8 13.3872
9 8 13.3873
10 8 13.3872
11 8 13.3869
12 8 13.387
13 8 13.3869
14 8 13.3868
15 8 13.3871
16 8 13.3872
17 8 13.3872
18 8 13.3872
1 9 13.3854
2 9 13.3854
3 9 13.3841
4 9 13.3847
5 9 13.3853
6 9 13.3855
7 9 13.3851
8 9 13.3853
9 9 13.3855
10 9 13.3853
10 9 13.3853
11 9 13.3854
12 9 13.385
13 9 13.3853
14 9 13.3848
15 9 13.3851
16 9 13.3854
17 9 13.3855
18 9 13.3855
18 9 13.3855
3 0 1 2
3 2 3 4
3 4 3 5
3 4 5 6
3 6 5 7
3 6 8 9
3 9 8 10
3 9 11 12
3 12 11 13
3 12 14 15
3 15 14 16
3 15 17 18
3 18 17 19
3 18 19 20
3 20 19 21
3 20 22 23
3 23 22 24
3 23 24 25
3 25 24 26
3 25 26 27
3 27 26 28
3 27 29 30
3 30 29 31
3 30 31 32
3 32 31 33
3 32 34 35
3 35 34 36
3 35 37 38
3 38 37 39
3 38 39 40
3 40 39 41
3 40 41 42
3 42 41 43
3 42 44 45
3 45 44 46
3 47 48 45
3 49 50 0
3 0 50 1
3 50 5 3
3 51 5 50
3 51 7 5
3 52 7 51
3 53 10 8
3 54 10 53
3 55 13 11
3 56 13 55
3 56 16 14
3 57 16 56
3 57 19 17
3 58 19 57
3 59 21 19
3 60 21 59
3 60 24 22
3 61 24 60
3 61 26 24
3 62 26 61
3 62 28 26
3 63 28 62
3 63 31 29
3 64 31 63
3 64 33 31
3 65 33 64
3 66 36 34
3 67 36 66
3 67 39 37
3 68 39 67
3 68 41 39
3 69 41 68
3 70 43 41
3 71 43 70
3 71 46 44
3 72 46 71
3 73 74 47
3 47 74 48
3 75 76 49
3 49 76 50
3 76 51 50
3 77 51 76
3 78 52 51
3 79 52 78
3 80 54 53
3 81 54 80
3 82 56 55
3 83 56 82
3 84 57 56
3 85 57 84
3 86 58 57
3 87 58 86
3 88 60 59
3 89 60 88
3 90 61 60
3 91 61 90
3 91 62 61
3 92 62 91
3 93 63 62
3 94 63 93
3 95 64 63
3 96 64 95
3 97 65 64
3 98 65 97
3 99 67 66
3 100 67 99
3 100 68 67
3 101 68 100
3 102 69 68
3 103 69 102
3 104 71 70
3 105 71 104
3 106 72 71
3 107 72 106
3 107 108 73
3 73 108 74
3 109 110 75
3 75 110 76
3 111 77 76
3 112 77 111
3 112 79 78
3 113 79 112
3 114 81 80
3 115 81 114
3 116 83 82
3 117 83 116
3 118 85 84
3 119 85 118
3 120 87 86
3 121 87 120
3 122 89 88
3 123 89 122
3 124 91 90
3 125 91 124
3 126 92 91
3 127 92 126
3 128 94 93
3 129 94 128
3 130 96 95
3 131 96 130
3 132 98 97
3 133 98 132
3 133 100 99
3 134 100 133
3 135 101 100
3 136 101 135
3 137 103 102
3 138 103 137
3 139 105 104
3 140 105 139
3 141 107 106
3 142 107 141
3 143 144 107
3 107 144 108
3 145 146 109
3 109 146 110
3 147 112 111
3 148 112 147
3 148 113 112
3 149 113 148
3 150 115 114
3 151 115 150
3 151 117 116
3 152 117 151
3 152 119 118
3 153 119 152
3 154 121 120
3 155 121 154
3 155 123 122
3 156 123 155
3 157 125 124
3 158 125 157
3 159 127 126
3 160 127 159
3 160 129 128
3 161 129 160
3 161 131 130
3 162 131 161
3 163 133 132
3 164 133 163
3 164 134 133
3 165 134 164
3 165 136 135
3 166 136 165
3 166 138 137
3 167 138 166
3 167 140 139
3 168 140 167
3 168 142 141
3 169 142 168
3 170 171 143
3 143 171 144
3 172 173 145
3 145 173 146
3 174 148 147
3 175 148 174
3 176 149 148
3 177 149 176
3 177 151 150
3 178 151 177
3 178 152 151
3 179 152 178
3 180 153 152
3 181 153 180
3 182 155 154
3 183 155 182
3 183 156 155
3 184 156 183
3 184 158 157
3 185 158 184
3 185 160 159
3 186 160 185
3 187 161 160
3 188 161 187
3 189 162 161
3 190 162 189
3 190 164 163
3 191 164 190
3 191 165 164
3 192 165 191
3 193 166 165
3 194 166 193
3 195 167 166
3 196 167 195
3 196 168 167
3 197 168 196
3 197 169 168
3 198 169 197
3 198 199 170
3 170 199 171
3 200 201 172
3 172 201 173
3 201 175 174
3 202 175 201
3 203 177 176
3 204 177 203
3 204 178 177
3 205 178 204
3 205 179 178
3 206 179 205
3 207 181 180
3 208 181 207
3 208 183 182
3 209 183 208
3 209 184 183
3 210 184 209
3 210 185 184
3 211 185 210
3 212 186 185
3 213 186 212
3 213 188 187
3 214 188 213
3 215 190 189
3 216 190 215
3 216 191 190
3 217 191 216
3 218 192 191
3 219 192 218
3 219 194 193
3 220 194 219
3 220 196 195
3 221 196 220
3 221 197 196
3 222 197 221
3 222 198 197
3 223 198 222
3 223 224 198
3 198 224 199
3 225 226 200
3 200 226 201
3 227 202 201
3 228 202 227
3 228 204 203
3 229 204 228
3 230 205 204
3 231 205 230
3 232 206 205
3 233 206 232
3 234 208 207
3 235 208 234
3 235 209 208
3 236 209 235
3 237 210 209
3 238 210 237
3 239 211 210
3 240 211 239
3 240 213 212
3 241 213 240
3 242 214 213
3 243 214 242
3 243 216 215
3 244 216 243
3 245 217 216
3 246 217 245
3 247 219 218
3 248 219 247
3 249 220 219
3 250 220 249
3 251 221 220
3 252 221 251
3 253 222 221
3 254 222 253
3 255 223 222
3 256 223 255
3 256 257 223
3 223 257 224
3 258 259 225
3 225 259 226
3 260 228 227
3 261 228 260
3 261 229 228
3 262 229 261
3 262 231 230
3 263 231 262
3 264 233 232
3 265 233 264
3 266 235 234
3 267 235 266
3 268 236 235
3 269 236 268
3 270 238 237
3 271 238 270
3 272 240 239
3 273 240 272
3 274 241 240
3 275 241 274
3 276 243 242
3 277 243 276
3 278 244 243
3 279 244 278
3 280 246 245
3 281 246 280
3 281 248 247
3 282 248 281
3 283 250 249
3 284 250 283
3 285 252 251
3 286 252 285
3 287 254 253
3 288 254 287
3 288 256 255
3 289 256 288
3 290 291 256
3 256 291 257
3 292 293 258
3 258 293 259
3 294 261 260
3 295 261 294
3 295 262 261
3 296 262 295
3 297 263 262
3 298 263 297
3 299 265 264
3 300 265 299
3 301 267 266
3 302 267 301
3 302 269 268
3 303 269 302
3 304 271 270
3 305 271 304
3 305 273 272
3 306 273 305
3 307 275 274
3 308 275 307
3 308 277 276
3 309 277 308
3 310 279 278
3 311 279 310
3 312 281 280
3 313 281 312
3 314 282 281
3 315 282 314
3 315 284 283
3 316 284 315
3 316 286 285
3 317 286 316
3 318 288 287
3 319 288 318
3 319 289 288
3 320 289 319
3 321 322 290
3 290 322 291
3 323 293 292
3 324 295 323
3 323 295 294
3 325 296 324
3 324 296 295
3 326 298 325
3 325 298 297
3 327 300 326
3 326 300 299
3 328 302 327
3 327 302 301
3 329 303 328
3 328 303 302
3 330 305 329
3 329 305 304
3 331 306 330
3 330 306 305
3 332 308 331
3 331 308 307
3 333 309 332
3 332 309 308
3 334 311 333
3 333 311 310
3 335 313 334
3 334 313 312
3 336 315 335
3 335 315 314
3 337 316 336
3 336 316 315
3 338 317 337
3 337 317 316
3 339 319 338
3 338 319 318
3 340 320 339
3 339 320 319
3 340 322 321
3 341 342 2
3 2 342 0
3 2 343 341
3 2 4 343
3 4 344 343
3 4 6 344
3 6 345 344
3 6 9 345
3 9 346 345
3 9 12 346
3 12 347 346
3 12 15 347
3 15 348 347
3 15 18 348
3 18 349 348
3 18 20 349
3 20 350 349
3 20 23 350
3 23 351 350
3 23 25 351
3 25 352 351
3 25 27 352
3 27 353 352
3 27 30 353
3 30 354 353
3 30 32 354
3 32 355 354
3 32 35 355
3 35 356 355
3 35 38 356
3 38 357 356
3 38 40 357
3 40 358 357
3 40 42 358
3 42 359 358
3 42 45 359
3 45 48 359
3 359 48 360
3 361 0 342
3 361 362 0
3 48 363 360
3 74 363 48
3 364 362 361
3 364 75 362
3 74 365 363
3 108 365 74
3 366 75 364
3 366 109 75
3 108 367 365
3 144 367 108
3 368 109 366
3 368 369 109
3 144 370 367
3 171 370 144
3 371 369 368
3 371 172 369
3 171 372 370
3 373 372 171
3 374 172 371
3 374 200 172
3 373 375 372
3 224 375 373
3 376 200 374
3 376 377 200
3 224 378 375
3 257 378 224
3 379 377 376
3 379 258 377
3 257 380 378
3 291 380 257
3 381 258 379
3 381 292 258
3 291 382 380
3 322 382 291
3 381 383 292
3 292 383 323
3 384 323 383
3 324 323 384
3 385 324 384
3 325 324 385
3 386 325 385
3 326 325 386
3 387 326 386
3 327 326 387
3 388 327 387
3 328 327 388
3 389 328 388
3 329 328 389
3 390 329 389
3 330 329 390
3 391 330 390
3 331 330 391
3 392 331 391
3 332 331 392
3 393 332 392
3 333 332 393
3 394 333 393
3 334 333 394
3 395 334 394
3 335 334 395
3 396 335 395
3 336 335 396
3 397 336 396
3 337 336 397
3 398 337 397
3 338 337 398
3 399 338 398
3 339 338 399
3 400 339 399
3 340 339 400
3 322 340 382
3 382 340 400
3 401 402 341
3 341 402 342
3 341 403 401
3 341 343 403
3 343 404 403
3 343 344 404
3 344 405 404
3 344 345 405
3 345 406 405
3 345 346 406
3 346 407 406
3 346 347 407
3 347 408 407
3 347 348 408
3 348 409 408
3 348 349 409
3 349 410 409
3 349 350 410
3 350 411 410
3 350 351 411
3 351 412 411
3 351 352 412
3 352 413 412
3 352 353 413
3 353 414 413
3 353 354 414
3 354 415 414
3 354 355 415
3 355 416 415
3 355 356 416
3 356 417 416
3 356 357 417
3 357 418 417
3 357 358 418
3 358 419 418
3 358 359 419
3 359 360 419
3 419 360 420
3 421 342 402
3 421 422 342
3 360 423 420
3 363 423 360
3 424 422 421
3 424 364 422
3 363 425 423
3 365 425 363
3 426 364 424
3 426 427 364
3 365 428 425
3 367 428 365
3 429 427 426
3 429 430 427
3 367 431 428
3 370 431 367
3 432 430 429
3 432 433 430
3 370 434 431
3 372 434 370
3 435 433 432
3 435 436 433
3 372 437 434
3 375 437 372
3 438 436 435
3 438 439 436
3 375 440 437
3 378 440 375
3 441 439 438
3 441 442 439
3 378 443 440
3 380 443 378
3 444 442 441
3 444 445 442
3 380 446 443
3 382 446 380
3 444 447 445
3 445 447 383
3 448 383 447
3 384 383 448
3 449 384 448
3 385 384 449
3 450 385 449
3 386 385 450
3 451 386 450
3 387 386 451
3 452 387 451
3 388 387 452
3 453 388 452
3 389 388 453
3 454 389 453
3 390 389 454
3 455 390 454
3 391 390 455
3 456 391 455
3 392 391 456
3 457 392 456
3 393 392 457
3 458 393 457
3 394 393 458
3 459 394 458
3 395 394 459
3 460 395 459
3 396 395 460
3 461 396 460
3 397 396 461
3 462 397 461
3 398 397 462
3 463 398 462
3 399 398 463
3 464 399 463
3 400 399 464
3 382 400 446
3 446 400 464
3 465 466 401
3 401 466 402
3 401 467 465
3 401 403 467
3 403 468 467
3 403 404 468
3 404 469 468
3 404 405 469
3 405 470 469
3 405 406 470
3 406 471 470
3 406 407 471
3 407 472 471
3 407 408 472
3 408 473 472
3 408 409 473
3 409 474 473
3 409 410 474
3 410 475 474
3 410 411 475
3 411 476 475
3 411 412 476
3 412 477 476
3 412 413 477
3 413 478 477
3 413 414 478
3 414 479 478
3 414 415 479
3 415 480 479
3 415 416 480
3 416 481 480
3 416 417 481
3 417 482 481
3 417 418 482
3 418 483 482
3 418 419 483
3 419 420 483
3 483 420 484
3 485 402 466
3 485 486 402
3 420 487 484
3 423 487 420
3 488 486 485
3 488 489 486
3 423 490 487
3 425 490 423
3 491 489 488
3 491 426 489
3 425 492 490
3 428 492 425
3 493 426 491
3 493 494 426
3 428 495 492
3 431 495 428
3 496 494 493
3 496 432 494
3 431 497 495
3 434 497 431
3 498 432 496
3 498 499 432
3 434 500 497
3 437 500 434
3 501 499 498
3 501 502 499
3 437 503 500
3 440 503 437
3 504 502 501
3 504 505 502
3 440 506 503
3 443 506 440
3 507 505 504
3 507 444 505
3 443 508 506
3 446 508 443
3 507 509 444
3 444 509 447
3 510 447 509
3 448 447 510
3 511 448 510
3 449 448 511
3 512 449 511
3 450 449 512
3 513 450 512
3 451 450 513
3 514 451 513
3 452 451 514
3 515 452 514
3 453 452 515
3 516 453 515
3 454 453 516
3 517 454 516
3 455 454 517
3 518 455 517
3 456 455 518
3 519 456 518
3 457 456 519
3 520 457 519
3 458 457 520
3 521 458 520
3 459 458 521
3 522 459 521
3 460 459 522
3 523 460 522
3 461 460 523
3 524 461 523
3 462 461 524
3 525 462 524
3 463 462 525
3 526 463 525
3 464 463 526
3 446 464 508
3 508 464 526
3 527 528 465
3 465 528 529
3 465 530 527
3 465 467 530
3 467 531 530
3 467 468 531
3 468 532 531
3 468 469 532
3 469 533 532
3 469 470 533
3 470 534 533
3 470 471 534
3 471 535 534
3 471 472 535
3 472 536 535
3 472 473 536
3 473 537 536
3 473 474 537
3 474 538 537
3 474 475 538
3 475 539 538
3 475 476 539
3 476 540 539
3 476 477 540
3 477 541 540
3 477 478 541
3 478 542 541
3 478 479 542
3 479 543 542
3 479 480 543
3 480 544 543
3 480 481 544
3 481 545 544
3 481 482 545
3 482 546 545
3 482 483 546
3 483 484 546
3 546 484 547
3 548 529 528
3 548 485 529
3 484 549 547
3 487 549 484
3 550 485 548
3 550 551 485
3 487 552 549
3 490 552 487
3 553 551 550
3 553 491 551
3 490 554 552
3 492 554 490
3 555 491 553
3 555 493 491
3 492 556 554
3 495 556 492
3 557 493 555
3 557 558 493
3 495 559 556
3 497 559 495
3 560 558 557
3 560 498 558
3 497 561 559
3 500 561 497
3 562 498 560
3 562 501 498
3 500 563 561
3 503 563 500
3 564 501 562
3 564 504 501
3 503 565 563
3 506 565 503
3 566 504 564
3 566 567 504
3 506 568 565
3 508 568 506
3 566 569 567
3 567 569 509
3 570 509 569
3 510 509 570
3 571 510 570
3 511 510 571
3 572 511 571
3 512 511 572
3 573 512 572
3 513 512 573
3 574 513 573
3 514 513 574
3 575 514 574
3 515 514 575
3 576 515 575
3 516 515 576
3 577 516 576
3 517 516 577
3 578 517 577
3 518 517 578
3 579 518 578
3 519 518 579
3 580 519 579
3 520 519 580
3 581 520 580
3 521 520 581
3 582 521 581
3 522 521 582
3 583 522 582
3 523 522 583
3 584 523 583
3 524 523 584
3 585 524 584
3 525 524 585
3 586 525 585
3 526 525 586
3 508 526 568
3 568 526 586
3 587 588 527
3 527 588 589
3 527 590 587
3 527 530 590
3 530 591 590
3 530 531 591
3 531 592 591
3 531 532 592
3 532 593 592
3 532 533 593
3 533 594 593
3 533 534 594
3 534 595 594
3 534 535 595
3 535 596 595
3 535 536 596
3 536 597 596
3 536 537 597
3 537 598 597
3 537 538 598
3 538 599 598
3 538 539 599
3 539 600 599
3 539 540 600
3 540 601 600
3 540 541 601
3 541 602 601
3 541 542 602
3 542 603 602
3 542 543 603
3 543 604 603
3 543 544 604
3 544 605 604
3 544 545 605
3 545 606 605
3 545 546 606
3 546 547 606
3 606 547 607
3 608 589 588
3 608 609 589
3 547 610 607
3 549 610 547
3 611 609 608
3 611 612 609
3 549 613 610
3 552 613 549
3 614 612 611
3 614 553 612
3 552 615 613
3 554 615 552
3 616 553 614
3 616 555 553
3 554 617 615
3 556 617 554
3 618 555 616
3 618 557 555
3 556 619 617
3 559 619 556
3 620 557 618
3 620 560 557
3 559 621 619
3 561 621 559
3 622 560 620
3 622 562 560
3 561 623 621
3 563 623 561
3 624 562 622
3 624 564 562
3 563 625 623
3 565 625 563
3 626 564 624
3 626 627 564
3 565 628 625
3 568 628 565
3 626 629 627
3 627 629 569
3 630 569 629
3 570 569 630
3 631 570 630
3 571 570 631
3 632 571 631
3 572 571 632
3 633 572 632
3 573 572 633
3 634 573 633
3 574 573 634
3 635 574 634
3 575 574 635
3 636 575 635
3 576 575 636
3 637 576 636
3 577 576 637
3 638 577 637
3 578 577 638
3 639 578 638
3 579 578 639
3 640 579 639
3 580 579 640
3 641 580 640
3 581 580 641
3 642 581 641
3 582 581 642
3 643 582 642
3 583 582 643
3 644 583 643
3 584 583 644
3 645 584 644
3 585 584 645
3 646 585 645
3 586 585 646
3 568 586 628
3 628 586 646
3 647 648 587
3 587 648 588
3 587 649 647
3 587 590 649
3 590 650 649
3 590 591 650
3 591 651 650
3 591 592 651
3 592 652 651
3 592 593 652
3 593 653 652
3 593 594 653
3 594 654 653
3 594 595 654
3 595 655 654
3 595 596 655
3 596 656 655
3 596 597 656
3 597 657 656
3 597 598 657
3 598 658 657
3 598 599 658
3 599 659 658
3 599 600 659
3 600 660 659
3 600 601 660
3 601 661 660
3 601 602 661
3 602 662 661
3 602 603 662
3 603 663 662
3 603 604 663
3 604 664 663
3 604 605 664
3 605 665 664
3 605 606 665
3 606 607 665
3 665 607 666
3 667 588 648
3 667 668 588
3 607 669 666
3 610 669 607
3 670 668 667
3 670 671 668
3 610 672 669
3 613 672 610
3 673 671 670
3 673 674 671
3 613 675 672
3 615 675 613
3 676 674 673
3 676 677 674
3 615 678 675
3 617 678 615
3 679 677 676
3 679 618 677
3 617 680 678
3 619 680 617
3 681 618 679
3 681 682 618
3 619 683 680
3 621 683 619
3 684 682 681
3 684 622 682
3 621 685 683
3 623 685 621
3 686 622 684
3 686 624 622
3 623 687 685
3 625 687 623
3 688 624 686
3 688 626 624
3 625 689 687
3 628 689 625
3 688 690 626
3 626 690 629
3 691 629 690
3 630 629 691
3 692 630 691
3 631 630 692
3 693 631 692
3 632 631 693
3 694 632 693
3 633 632 694
3 695 633 694
3 634 633 695
3 696 634 695
3 635 634 696
3 697 635 696
3 636 635 697
3 698 636 697
3 637 636 698
3 699 637 698
3 638 637 699
3 700 638 699
3 639 638 700
3 701 639 700
3 640 639 701
3 702 640 701
3 641 640 702
3 703 641 702
3 642 641 703
3 704 642 703
3 643 642 704
3 705 643 704
3 644 643 705
3 706 644 705
3 645 644 706
3 707 645 706
3 646 645 707
3 628 646 689
3 689 646 707
3 708 709 647
3 647 709 710
3 647 711 708
3 647 649 711
3 649 712 711
3 649 650 712
3 650 713 712
3 650 651 713
3 651 714 713
3 651 652 714
3 652 715 714
3 652 653 715
3 653 716 715
3 653 654 716
3 654 717 716
3 654 655 717
3 655 718 717
3 655 656 718
3 656 719 718
3 656 657 719
3 657 720 719
3 657 658 720
3 658 721 720
3 658 659 721
3 659 722 721
3 659 660 722
3 660 723 722
3 660 661 723
3 661 724 723
3 661 662 724
3 662 725 724
3 662 663 725
3 663 726 725
3 663 664 726
3 664 727 726
3 664 665 727
3 665 666 727
3 727 666 728
3 729 710 709
3 729 730 710
3 666 731 728
3 669 731 666
3 732 730 729
3 732 670 730
3 669 733 731
3 672 733 669
3 734 670 732
3 734 735 670
3 672 736 733
3 675 736 672
3 737 735 734
3 737 738 735
3 675 739 736
3 678 739 675
3 740 738 737
3 740 741 738
3 678 742 739
3 680 742 678
3 743 741 740
3 743 681 741
3 680 744 742
3 683 744 680
3 745 681 743
3 745 684 681
3 683 746 744
3 685 746 683
3 747 684 745
3 747 748 684
3 685 749 746
3 687 749 685
3 750 748 747
3 750 751 748
3 687 752 749
3 689 752 687
3 750 753 751
3 751 753 690
3 754 690 753
3 691 690 754
3 755 691 754
3 692 691 755
3 756 692 755
3 693 692 756
3 757 693 756
3 694 693 757
3 758 694 757
3 695 694 758
3 759 695 758
3 696 695 759
3 760 696 759
3 697 696 760
3 761 697 760
3 698 697 761
3 762 698 761
3 699 698 762
3 763 699 762
3 700 699 763
3 764 700 763
3 701 700 764
3 765 701 764
3 702 701 765
3 766 702 765
3 703 702 766
3 767 703 766
3 704 703 767
3 768 704 767
3 705 704 768
3 769 705 768
3 706 705 769
3 770 706 769
3 707 706 770
3 689 707 752
3 752 707 770
3 771 772 708
3 708 772 709
3 708 773 771
3 708 711 773
3 711 774 773
3 711 712 774
3 712 775 774
3 712 713 775
3 713 776 775
3 713 714 776
3 714 777 776
3 714 715 777
3 715 778 777
3 715 716 778
3 716 779 778
3 716 717 779
3 717 780 779
3 717 718 780
3 718 781 780
3 718 719 781
3 719 782 781
3 719 720 782
3 720 783 782
3 720 721 783
3 721 784 783
3 721 722 784
3 722 785 784
3 722 723 785
3 723 786 785
3 723 724 786
3 724 787 786
3 724 725 787
3 725 788 787
3 725 726 788
3 726 789 788
3 726 727 789
3 727 728 789
3 789 728 790
3 791 709 772
3 791 792 709
3 728 793 790
3 731 793 728
3 794 792 791
3 794 795 792
3 731 796 793
3 733 796 731
3 797 795 794
3 797 798 795
3 733 799 796
3 736 799 733
3 800 798 797
3 800 737 798
3 736 801 799
3 739 801 736
3 802 737 800
3 802 740 737
3 739 803 801
3 742 803 739
3 804 740 802
3 804 805 740
3 742 806 803
3 744 806 742
3 807 805 804
3 807 745 805
3 744 808 806
3 746 808 744
3 809 745 807
3 809 747 745
3 746 810 808
3 749 810 746
3 811 812 813
3 812 809 813
3 812 747 809
3 811 813 814
3 811 814 815
3 815 814 816
3 815 816 817
3 817 816 818
3 817 818 819
3 819 818 820
3 819 820 821
3 821 820 822
3 821 822 823
3 823 822 824
3 823 824 825
3 825 824 826
3 825 826 827
3 827 826 828
3 827 828 829
3 829 828 830
3 829 830 831
3 831 830 832
3 831 832 833
3 833 832 834
3 833 834 835
3 835 834 836
3 835 836 837
3 837 836 838
3 837 838 839
3 839 838 840
3 839 840 841
3 841 840 842
3 841 842 843
3 843 842 844
3 843 844 845
3 845 844 846
3 845 846 847
3 846 810 847
3 810 752 847
3 810 749 752
3 811 753 812
3 815 754 811
3 811 754 753
3 817 755 815
3 815 755 754
3 819 756 817
3 817 756 755
3 821 757 819
3 819 757 756
3 823 758 821
3 821 758 757
3 825 759 823
3 823 759 758
3 827 760 825
3 825 760 759
3 829 761 827
3 827 761 760
3 831 762 829
3 829 762 761
3 833 763 831
3 831 763 762
3 835 764 833
3 833 764 763
3 837 765 835
3 835 765 764
3 839 766 837
3 837 766 765
3 841 767 839
3 839 767 766
3 843 768 841
3 841 768 767
3 845 769 843
3 843 769 768
3 847 770 845
3 845 770 769
3 752 770 847
3 848 849 771
3 771 849 850
3 771 851 848
3 771 773 851
3 773 852 851
3 773 774 852
3 774 853 852
3 774 775 853
3 775 854 853
3 775 776 854
3 776 855 854
3 776 777 855
3 777 856 855
3 777 778 856
3 778 857 856
3 778 779 857
3 779 858 857
3 779 780 858
3 780 859 858
3 780 781 859
3 781 860 859
3 781 782 860
3 782 861 860
3 782 783 861
3 783 862 861
3 783 784 862
3 784 863 862
3 784 785 863
3 785 864 863
3 785 786 864
3 786 865 864
3 786 787 865
3 787 866 865
3 787 788 866
3 788 867 866
3 788 789 867
3 789 790 867
3 867 790 868
3 869 850 849
3 869 791 850
3 790 870 868
3 793 870 790
3 871 791 869
3 871 872 791
3 793 873 870
3 796 873 793
3 874 872 871
3 874 797 872
3 796 875 873
3 799 875 796
3 876 797 874
3 876 800 797
3 799 877 875
3 801 877 799
3 878 800 876
3 878 802 800
3 801 879 877
3 803 879 801
3 880 802 878
3 880 881 802
3 803 882 879
3 806 882 803
3 883 881 880
3 883 807 881
3 806 884 882
3 808 884 806
3 885 807 883
3 885 809 807
3 808 886 884
3 810 886 808
3 885 887 809
3 809 887 813
3 888 813 887
3 814 813 888
3 889 814 888
3 816 814 889
3 890 816 889
3 818 816 890
3 891 818 890
3 820 818 891
3 892 820 891
3 822 820 892
3 893 822 892
3 824 822 893
3 894 824 893
3 826 824 894
3 895 826 894
3 828 826 895
3 896 828 895
3 830 828 896
3 897 830 896
3 832 830 897
3 898 832 897
3 834 832 898
3 899 834 898
3 836 834 899
3 900 836 899
3 838 836 900
3 901 838 900
3 840 838 901
3 902 840 901
3 842 840 902
3 903 842 902
3 844 842 903
3 904 844 903
3 846 844 904
3 810 846 886
3 886 846 904
3 905 906 848
3 848 906 907
3 848 908 905
3 848 851 908
3 851 909 908
3 851 852 909
3 852 910 909
3 852 853 910
3 853 911 910
3 853 854 911
3 854 912 911
3 854 855 912
3 855 913 912
3 855 856 913
3 856 914 913
3 856 857 914
3 857 915 914
3 857 858 915
3 858 916 915
3 858 859 916
3 859 917 916
3 859 860 917
3 860 918 917
3 860 861 918
3 861 919 918
3 861 862 919
3 862 920 919
3 862 863 920
3 863 921 920
3 863 864 921
3 864 922 921
3 864 865 922
3 865 923 922
3 865 866 923
3 866 924 923
3 866 867 924
3 867 868 924
3 924 868 925
3 926 907 906
3 926 927 907
3 868 928 925
3 870 928 868
3 929 927 926
3 929 930 927
3 870 931 928
3 873 931 870
3 932 930 929
3 932 933 930
3 873 934 931
3 875 934 873
3 935 933 932
3 935 876 933
3 875 936 934
3 877 936 875
3 937 876 935
3 937 938 876
3 877 939 936
3 879 939 877
3 940 938 937
3 940 880 938
3 879 941 939
3 882 941 879
3 942 880 940
3 942 943 880
3 882 944 941
3 884 944 882
3 945 943 942
3 945 885 943
3 884 946 944
3 886 946 884
3 945 947 885
3 885 947 887
3 948 887 947
3 888 887 948
3 949 888 948
3 889 888 949
3 950 889 949
3 890 889 950
3 951 890 950
3 891 890 951
3 952 891 951
3 892 891 952
3 953 892 952
3 893 892 953
3 954 893 953
3 894 893 954
3 955 894 954
3 895 894 955
3 956 895 955
3 896 895 956
3 957 896 956
3 897 896 957
3 958 897 957
3 898 897 958
3 959 898 958
3 899 898 959
3 960 899 959
3 900 899 960
3 961 900 960
3 901 900 961
3 962 901 961
3 902 901 962
3 963 902 962
3 903 902 963
3 964 903 963
3 904 903 964
3 886 904 946
3 946 904 964
3 965 966 905
3 905 966 906
3 905 967 965
3 905 908 967
3 908 968 967
3 908 909 968
3 909 969 968
3 909 910 969
3 910 970 969
3 910 911 970
3 911 971 970
3 911 912 971
3 912 972 971
3 912 913 972
3 913 973 972
3 913 914 973
3 914 974 973
3 914 915 974
3 915 975 974
3 915 916 975
3 916 976 975
3 916 917 976
3 917 977 976
3 917 918 977
3 918 978 977
3 918 919 978
3 919 979 978
3 919 920 979
3 920 980 979
3 920 921 980
3 921 981 980
3 921 922 981
3 922 982 981
3 922 923 982
3 923 983 982
3 923 924 983
3 924 925 983
3 983 925 984
3 985 906 966
3 985 986 906
3 925 987 984
3 928 987 925
3 988 986 985
3 988 989 986
3 928 990 987
3 931 990 928
3 991 989 988
3 991 992 989
3 931 993 990
3 934 993 931
3 994 992 991
3 994 995 992
3 934 996 993
3 936 996 934
3 997 995 994
3 997 998 995
3 936 999 996
3 939 999 936
3 1000 998 997
3 1000 1001 998
3 939 1002 999
3 941 1002 939
3 1003 1001 1000
3 1003 1004 1001
3 941 1005 1002
3 944 1005 941
3 1006 1004 1003
3 1006 945 1004
3 944 1007 1005
3 946 1007 944
3 1006 1008 945
3 945 1008 947
3 1009 947 1008
3 948 947 1009
3 1010 948 1009
3 949 948 1010
3 1011 949 1010
3 950 949 1011
3 1012 950 1011
3 951 950 1012
3 1013 951 1012
3 952 951 1013
3 1014 952 1013
3 953 952 1014
3 1015 953 1014
3 954 953 1015
3 1016 954 1015
3 955 954 1016
3 1017 955 1016
3 956 955 1017
3 1018 956 1017
3 957 956 1018
3 1019 957 1018
3 958 957 1019
3 1020 958 1019
3 959 958 1020
3 1021 959 1020
3 960 959 1021
3 1022 960 1021
3 961 960 1022
3 1023 961 1022
3 962 961 1023
3 1024 962 1023
3 963 962 1024
3 1025 963 1024
3 964 963 1025
3 946 964 1007
3 1007 964 1025
3 1026 1027 965
3 965 1027 1028
3 965 1029 1026
3 965 967 1029
3 967 1030 1029
3 967 968 1030
3 968 1031 1030
3 968 969 1031
3 969 1032 1031
3 969 970 1032
3 970 1033 1032
3 970 971 1033
3 971 1034 1033
3 971 972 1034
3 972 1035 1034
3 972 973 1035
3 973 1036 1035
3 973 974 1036
3 974 1037 1036
3 974 975 1037
3 975 1038 1037
3 975 976 1038
3 976 1039 1038
3 976 977 1039
3 977 1040 1039
3 977 978 1040
3 978 1041 1040
3 978 979 1041
3 979 1042 1041
3 979 980 1042
3 980 1043 1042
3 980 981 1043
3 981 1044 1043
3 981 982 1044
3 982 1045 1044
3 982 983 1045
3 983 984 1045
3 1045 984 1046
3 1047 1028 1027
3 1047 1048 1028
3 984 1049 1046
3 987 1049 984
3 1050 1048 1047
3 1050 988 1048
3 987 1051 1049
3 990 1051 987
3 1052 988 1050
3 1052 1053 988
3 990 1054 1051
3 993 1054 990
3 1055 1053 1052
3 1055 994 1053
3 993 1056 1054
3 996 1056 993
3 1057 994 1055
3 1057 1058 994
3 996 1059 1056
3 999 1059 996
3 1060 1058 1057
3 1060 1000 1058
3 999 1061 1059
3 1002 1061 999
3 1062 1000 1060
3 1062 1003 1000
3 1002 1063 1061
3 1005 1063 1002
3 1064 1003 1062
3 1064 1065 1003
3 1005 1066 1063
3 1007 1066 1005
3 1064 1067 1065
3 1065 1067 1008
3 1068 1008 1067
3 1009 1008 1068
3 1069 1009 1068
3 1010 1009 1069
3 1070 1010 1069
3 1011 1010 1070
3 1071 1011 1070
3 1012 1011 1071
3 1072 1012 1071
3 1013 1012 1072
3 1073 1013 1072
3 1014 1013 1073
3 1074 1014 1073
3 1015 1014 1074
3 1075 1015 1074
3 1016 1015 1075
3 1076 1016 1075
3 1017 1016 1076
3 1077 1017 1076
3 1018 1017 1077
3 1078 1018 1077
3 1019 1018 1078
3 1079 1019 1078
3 1020 1019 1079
3 1080 1020 1079
3 1021 1020 1080
3 1081 1021 1080
3 1022 1021 1081
3 1082 1022 1081
3 1023 1022 1082
3 1083 1023 1082
3 1024 1023 1083
3 1084 1024 1083
3 1025 1024 1084
3 1007 1025 1066
3 1066 1025 1084
3 1026 1085 1027
3 1086 1026 1087
3 1087 1026 1029
3 1087 1029 1088
3 1088 1029 1030
3 1088 1030 1089
3 1089 1030 1031
3 1089 1031 1090
3 1090 1031 1032
3 1090 1032 1091
3 1091 1032 1033
3 1091 1033 1092
3 1092 1033 1034
3 1092 1034 1093
3 1093 1034 1035
3 1093 1035 1094
3 1094 1035 1036
3 1094 1036 1095
3 1095 1036 1037
3 1095 1037 1096
3 1096 1037 1038
3 1096 1038 1097
3 1097 1038 1039
3 1097 1039 1098
3 1098 1039 1040
3 1098 1040 1099
3 1099 1040 1041
3 1099 1041 1100
3 1100 1041 1042
3 1100 1042 1101
3 1101 1042 1043
3 1101 1043 1102
3 1102 1043 1044
3 1102 1044 1103
3 1103 1044 1045
3 1045 1046 1103
3 1027 1085 1047
3 1047 1085 1104
3 1087 1104 1086
3 1087 1105 1104
3 1088 1105 1087
3 1088 1106 1105
3 1089 1106 1088
3 1089 1107 1106
3 1090 1107 1089
3 1090 1108 1107
3 1091 1108 1090
3 1091 1109 1108
3 1092 1109 1091
3 1092 1110 1109
3 1093 1110 1092
3 1093 1111 1110
3 1094 1111 1093
3 1094 1112 1111
3 1095 1112 1094
3 1095 1113 1112
3 1096 1113 1095
3 1096 1114 1113
3 1097 1114 1096
3 1097 1115 1114
3 1098 1115 1097
3 1098 1116 1115
3 1099 1116 1098
3 1099 1117 1116
3 1100 1117 1099
3 1100 1118 1117
3 1101 1118 1100
3 1101 1119 1118
3 1102 1119 1101
3 1102 1120 1119
3 1103 1120 1102
3 1103 1121 1120
3 1103 1046 1122
3 1122 1046 1049
3 1047 1104 1050
3 1050 1104 1123
3 1105 1123 1104
3 1105 1124 1123
3 1106 1124 1105
3 1106 1125 1124
3 1107 1125 1106
3 1107 1126 1125
3 1108 1126 1107
3 1108 1127 1126
3 1109 1127 1108
3 1109 1128 1127
3 1110 1128 1109
3 1110 1129 1128
3 1111 1129 1110
3 1111 1130 1129
3 1112 1130 1111
3 1112 1131 1130
3 1113 1131 1112
3 1113 1132 1131
3 1114 1132 1113
3 1114 1133 1132
3 1115 1133 1114
3 1115 1134 1133
3 1116 1134 1115
3 1116 1135 1134
3 1117 1135 1116
3 1117 1136 1135
3 1118 1136 1117
3 1118 1137 1136
3 1119 1138 1118
3 1119 1139 1138
3 1120 1139 1119
3 1120 1140 1139
3 1121 1140 1120
3 1121 1141 1140
3 1122 1049 1141
3 1141 1049 1051
3 1050 1123 1052
3 1052 1123 1142
3 1124 1142 1123
3 1124 1143 1142
3 1125 1143 1124
3 1125 1144 1143
3 1126 1144 1125
3 1126 1145 1144
3 1127 1145 1126
3 1127 1146 1145
3 1128 1146 1127
3 1128 1147 1146
3 1129 1147 1128
3 1129 1148 1147
3 1130 1148 1129
3 1130 1149 1148
3 1131 1149 1130
3 1131 1150 1149
3 1132 1150 1131
3 1132 1151 1150
3 1133 1151 1132
3 1133 1152 1151
3 1134 1152 1133
3 1134 1153 1152
3 1135 1153 1134
3 1135 1154 1153
3 1136 1154 1135
3 1136 1155 1154
3 1137 1155 1136
3 1137 1156 1155
3 1139 1156 1138
3 1139 1157 1156
3 1140 1157 1139
3 1140 1158 1157
3 1141 1158 1140
3 1141 1159 1158
3 1141 1051 1159
3 1159 1051 1054
3 1052 1142 1160
3 1160 1142 1161
3 1143 1161 1142
3 1143 1162 1161
3 1144 1162 1143
3 1144 1163 1162
3 1145 1163 1144
3 1145 1164 1163
3 1146 1164 1145
3 1146 1165 1164
3 1147 1165 1146
3 1147 1166 1165
3 1148 1166 1147
3 1148 1167 1166
3 1149 1167 1148
3 1149 1168 1167
3 1150 1168 1149
3 1150 1169 1168
3 1151 1169 1150
3 1151 1170 1169
3 1152 1171 1151
3 1152 1172 1171
3 1153 1172 1152
3 1153 1173 1172
3 1154 1173 1153
3 1154 1174 1173
3 1155 1174 1154
3 1155 1175 1174
3 1156 1175 1155
3 1156 1176 1175
3 1157 1176 1156
3 1157 1177 1176
3 1158 1177 1157
3 1158 1178 1177
3 1159 1178 1158
3 1159 1179 1178
3 1159 1054 1179
3 1179 1054 1056
3 1160 1161 1057
3 1057 1161 1180
3 1162 1181 1161
3 1162 1182 1181
3 1163 1182 1162
3 1163 1183 1182
3 1164 1183 1163
3 1164 1184 1183
3 1165 1184 1164
3 1165 1185 1184
3 1166 1185 1165
3 1166 1186 1185
3 1167 1186 1166
3 1167 1187 1186
3 1168 1187 1167
3 1168 1188 1187
3 1169 1188 1168
3 1169 1189 1188
3 1170 1189 1169
3 1170 1190 1189
3 1172 1190 1171
3 1172 1191 1190
3 1173 1191 1172
3 1173 1192 1191
3 1174 1192 1173
3 1174 1193 1192
3 1175 1193 1174
3 1175 1194 1193
3 1176 1194 1175
3 1176 1195 1194
3 1177 1195 1176
3 1177 1196 1195
3 1178 1196 1177
3 1178 1197 1196
3 1179 1197 1178
3 1179 1198 1197
3 1179 1056 1198
3 1198 1056 1059
3 1057 1180 1199
3 1199 1180 1200
3 1182 1200 1181
3 1182 1201 1200
3 1183 1201 1182
3 1183 1202 1201
3 1184 1202 1183
3 1184 1203 1202
3 1185 1203 1184
3 1185 1204 1203
3 1186 1204 1185
3 1186 1205 1204
3 1187 1205 1186
3 1187 1206 1205
3 1188 1206 1187
3 1188 1207 1206
3 1189 1207 1188
3 1189 1208 1207
3 1190 1208 1189
3 1190 1209 1208
3 1191 1209 1190
3 1191 1210 1209
3 1192 1210 1191
3 1192 1211 1210
3 1193 1211 1192
3 1193 1212 1211
3 1194 1212 1193
3 1194 1213 1212
3 1195 1213 1194
3 1195 1214 1213
3 1196 1214 1195
3 1196 1215 1214
3 1197 1215 1196
3 1197 1216 1215
3 1198 1216 1197
3 1198 1217 1216
3 1198 1059 1217
3 1217 1059 1061
3 1199 1200 1062
3 1062 1200 1218
3 1201 1218 1200
3 1201 1219 1218
3 1202 1220 1201
3 1202 1221 1220
3 1203 1221 1202
3 1203 1222 1221
3 1204 1222 1203
3 1204 1223 1222
3 1205 1223 1204
3 1205 1224 1223
3 1206 1224 1205
3 1206 1225 1224
3 1207 1225 1206
3 1207 1226 1225
3 1208 1226 1207
3 1208 1227 1226
3 1209 1227 1208
3 1209 1228 1227
3 1210 1228 1209
3 1210 1229 1228
3 1211 1229 1210
3 1211 1230 1229
3 1212 1230 1211
3 1212 1231 1230
3 1213 1231 1212
3 1213 1232 1231
3 1214 1232 1213
3 1214 1233 1232
3 1215 1233 1214
3 1215 1234 1233
3 1216 1234 1215
3 1216 1235 1234
3 1217 1235 1216
3 1217 1236 1235
3 1217 1061 1236
3 1236 1061 1063
3 1062 1218 1064
3 1064 1218 1237
3 1219 1237 1218
3 1219 1238 1237
3 1221 1238 1220
3 1221 1239 1238
3 1222 1239 1221
3 1222 1240 1239
3 1223 1240 1222
3 1223 1241 1240
3 1224 1241 1223
3 1224 1242 1241
3 1225 1242 1224
3 1225 1243 1242
3 1226 1243 1225
3 1226 1244 1243
3 1227 1244 1226
3 1227 1245 1244
3 1228 1245 1227
3 1228 1246 1245
3 1229 1247 1228
3 1229 1248 1247
3 1230 1248 1229
3 1230 1249 1248
3 1231 1249 1230
3 1231 1250 1249
3 1232 1250 1231
3 1232 1251 1250
3 1233 1251 1232
3 1233 1252 1251
3 1234 1252 1233
3 1234 1253 1252
3 1235 1253 1234
3 1235 1254 1253
3 1236 1254 1235
3 1236 1255 1254
3 1236 1063 1256
3 1256 1063 1066
3 1237 1067 1064
3 1238 1068 1237
3 1237 1068 1067
3 1239 1069 1238
3 1238 1069 1068
3 1240 1070 1239
3 1239 1070 1069
3 1241 1071 1240
3 1240 1071 1070
3 1242 1072 1241
3 1241 1072 1071
3 1243 1073 1242
3 1242 1073 1072
3 1244 1074 1243
3 1243 1074 1073
3 1245 1075 1244
3 1244 1075 1074
3 1246 1076 1245
3 1245 1076 1075
3 1248 1077 1247
3 1247 1077 1076
3 1249 1078 1248
3 1248 1078 1077
3 1250 1079 1249
3 1249 1079 1078
3 1251 1080 1250
3 1250 1080 1079
3 1252 1081 1251
3 1251 1081 1080
3 1253 1082 1252
3 1252 1082 1081
3 1254 1083 1253
3 1253 1083 1082
3 1255 1084 1254
3 1254 1084 1083
3 1066 1084 1256
