ply
format ascii 1.0
element vertex 1272
property float x
property float y
property float z
element face 2148
property list uchar int vertex_index
end_header
0.565539 1 1
1 1 0.565539
1 0.565935 1
1 1 0.565539
2 0.5659 1
2 1 0.565505
3 0.565868 1
3 1 0.565473
3 1 0.565473
4 0.565841 1
4 1 0.565445
5 0.565821 1
5 1 0.565424
6 0.565807 1
6 1 0.56541
7 0.5658 1
7 1 0.565403
7 1 0.565403
8 0.565799 1
8 1 0.565402
9 0.565803 1
9 1 0.565405
10 0.565811 1
10 1 0.565413
10 1 0.565413
11 0.565821 1
11 1 0.565423
11 1 0.565423
12 0.565833 1
12 1 0.565435
12 1 0.565435
13 0.565846 1
13 1 0.565448
14 0.56586 1
14 1 0.565462
15 0.565874 1
15 1 0.565476
15 1 0.565476
16 0.565888 1
16 1 0.56549
17 0.565903 1
17 1 0.565505
18 0.565911 1
18 1 0.565513
18 1 0.565513
18.4345 1 1
0.52299 2 1
1 2 0.52299
1 2 0.52299
2 2 0.522952
2 2 0.522952
3 2 0.52291
4 2 0.522869
5 2 0.522832
5 2 0.522832
6 2 0.522802
7 2 0.52278
8 2 0.522766
9 2 0.522758
10 2 0.522757
11 2 0.52276
11 2 0.52276
12 2 0.522766
12 2 0.522766
13 2 0.522775
13 2 0.522775
14 2 0.522785
15 2 0.522796
15 2 0.522796
16 2 0.522808
17 2 0.522821
17 2 0.522821
18 2 0.522828
18 2 0.522828
18.4772 2 1
0.474269 3 1
1 3 0.474269
1 3 0.474269
2 3 0.47422
3 3 0.474159
3 3 0.474159
4 3 0.474094
4 3 0.474094
5 3 0.474034
5 3 0.474034
6 3 0.473981
7 3 0.473939
7 3 0.473939
8 3 0.473908
8 3 0.473908
9 3 0.473888
10 3 0.473877
10 3 0.473877
11 3 0.473873
11 3 0.473873
12 3 0.473874
12 3 0.473874
13 3 0.473878
13 3 0.473878
14 3 0.473885
14 3 0.473885
15 3 0.473894
15 3 0.473894
16 3 0.473904
16 3 0.473904
17 3 0.473915
17 3 0.473915
18 3 0.473922
18.5261 3 1
0.419296 4 1
1 4 0.419296
1 4 0.419296
2 4 0.419226
3 4 0.419132
3 4 0.419132
4 4 0.41903
5 4 0.418931
5 4 0.418931
6 4 0.418845
6 4 0.418845
7 4 0.418776
7 4 0.418776
8 4 0.418725
8 4 0.418725
9 4 0.418691
9 4 0.418691
10 4 0.41867
10 4 0.41867
11 4 0.418659
11 4 0.418659
12 4 0.418656
13 4 0.418658
13 4 0.418658
14 4 0.418663
15 4 0.41867
15 4 0.41867
16 4 0.418679
16 4 0.418679
17 4 0.418689
17 4 0.418689
18 4 0.418696
18.5813 4 1
0.650933 5 1
1 5 0.650933
1 5 0.650933
2 5 0.650834
2 5 0.650834
3 5 0.650752
4 5 0.650693
4 5 0.650693
5 5 0.650659
6 5 0.650648
7 5 0.650655
8 5 0.650675
9 5 0.650701
10 5 0.650729
10 5 0.650729
11 5 0.650758
12 5 0.650786
12 5 0.650786
13 5 0.650812
13 5 0.650812
14 5 0.650837
14 5 0.650837
15 5 0.65086
15 5 0.65086
16 5 0.650882
16 5 0.650882
17 5 0.650903
17 5 0.650903
18 5 0.650915
18.3491 5 1
0.648649 6 1
1 6 0.648649
2 6 0.648476
3 6 0.64832
3 6 0.64832
4 6 0.6482
5 6 0.648118
6 6 0.648076
7 6 0.648067
7 6 0.648067
8 6 0.64808
8 6 0.64808
9 6 0.648105
9 6 0.648105
10 6 0.648135
11 6 0.648165
12 6 0.648195
12 6 0.648195
13 6 0.648223
13 6 0.648223
14 6 0.648249
14 6 0.648249
15 6 0.648273
16 6 0.648295
17 6 0.648317
17 6 0.648317
18 6 0.64833
18 6 0.64833
18.3517 6 1
0.613319 7 1
1 7 0.613319
2 7 0.612977
3 7 0.612632
3 7 0.612632
4 7 0.612359
5 7 0.612151
6 7 0.612023
6 7 0.612023
7 7 0.611967
8 7 0.611958
8 7 0.611958
9 7 0.611974
9 7 0.611974
10 7 0.612001
11 7 0.612032
12 7 0.612063
12 7 0.612063
13 7 0.612093
14 7 0.61212
15 7 0.612146
16 7 0.612168
17 7 0.612189
17 7 0.612189
18 7 0.612201
18 7 0.612201
18.3878 7 1
0.543365 8 1
1 8 0.543365
2 8 0.542588
2 8 0.542588
3 8 0.541722
3 8 0.541722
4 8 0.541099
4 8 0.541099
5 8 0.540605
5 8 0.540605
6 8 0.540307
6 8 0.540307
7 8 0.540183
8 8 0.540157
8 8 0.540157
9 8 0.540177
9 8 0.540177
10 8 0.540216
11 8 0.540258
11 8 0.540258
12 8 0.5403
12 8 0.5403
13 8 0.540338
14 8 0.540373
14 8 0.540373
15 8 0.540402
16 8 0.540427
16 8 0.540427
17 8 0.540449
17 8 0.540449
18 8 0.54046
18 8 0.54046
18.4595 8 1
0.432759 9 1
1 9 0.432758
1 9 0.432758
2 9 0.430516
2 9 0.430516
3 9 0.427731
3 9 0.427731
4 9 0.426202
4 9 0.426202
5 9 0.425117
6 9 0.424569
6 9 0.424569
7 9 0.424428
8 9 0.424459
8 9 0.424459
9 9 0.42454
10 9 0.424631
10 9 0.424631
11 9 0.424714
11 9 0.424714
12 9 0.424786
12 9 0.424786
13 9 0.424846
13 9 0.424846
14 9 0.424896
14 9 0.424896
15 9 0.424935
15 9 0.424935
16 9 0.424965
16 9 0.424965
17 9 0.424987
18 9 0.424999
18 9 0.424999
18.575 9 1
0.660965 10 1
1 10 0.660963
1 10 0.660963
2 10 0.657975
2 10 0.657975
3 10 0.656526
3 10 0.656526
4 10 0.656985
4 10 0.656985
5 10 0.656963
5 10 0.656963
6 10 0.657295
6 10 0.657295
7 10 0.657757
7 10 0.657757
8 10 0.658111
8 10 0.658111
9 10 0.658357
9 10 0.658357
10 10 0.658531
11 10 0.658651
12 10 0.658738
12 10 0.658738
13 10 0.658803
13 10 0.658803
14 10 0.658852
15 10 0.658888
16 10 0.658916
16 10 0.658916
17 10 0.658937
17 10 0.658937
18 10 0.658949
18.3411 10 1
1 10.3313 1
2 10.3342 1
3 10.3355 1
4 10.335 1
5 10.3349 1
6 10.3345 1
7 10.334 1
8 10.3337 1
9 10.3334 1
10 10.3333 1
11 10.3331 1
12 10.333 1
13 10.333 1
14 10.3329 1
15 10.3329 1
16 10.3329 1
17 10.3329 1
18 10.3328 1
1 0.595548 2
0.595153 1 2
2 0.595513 2
3 0.595481 2
4 0.595456 2
5 0.595437 2
6 0.595426 2
7 0.595422 2
8 0.595424 2
9 0.595431 2
10 0.595442 2
11 0.595455 2
12 0.595469 2
13 0.595485 2
14 0.5955 2
15 0.595516 2
16 0.595531 2
17 0.595547 2
18 0.595557 2
18.4048 1 2
0.551006 2 2
0.52299 2 1
18.4491 2 2
0.501643 3 2
18.4987 3 2
0.446844 4 2
18.5537 4 2
0.688174 5 2
0.650933 5 1
18.3117 5 2
0.698059 6 2
0.648649 6 1
18.3021 6 2
0.667144 7 2
0.613319 7 1
18.3336 7 2
0.599656 8 2
0.543365 8 1
18.4023 8 2
0.502274 9 2
18.503 9 2
0.733324 10 2
18.268 10 2
1 10.2625 2
2 10.265 2
3 10.2648 2
4 10.2653 2
5 10.2663 2
6 10.2661 2
7 10.2654 2
8 10.2648 2
9 10.2645 2
10 10.2643 2
11 10.2641 2
12 10.264 2
13 10.264 2
14 10.2639 2
15 10.2639 2
16 10.2638 2
17 10.2638 2
18 10.2638 2
1 0.617783 3
0.617411 1 3
2 0.617749 3
3 0.617719 3
4 0.617695 3
5 0.617678 3
6 0.617667 3
7 0.617664 3
8 0.617666 3
9 0.617674 3
10 0.617685 3
11 0.617698 3
12 0.617713 3
13 0.617728 3
14 0.617744 3
15 0.617761 3
16 0.617776 3
17 0.617793 3
18 0.617802 3
18.3826 1 3
0.573378 2 3
0.551006 2 2
18.4267 2 3
0.524998 3 3
18.4753 3 3
0.471309 4 3
0.446844 4 2
18.5291 4 3
0.412309 5 3
18.5884 5 3
0.716199 6 3
18.2839 6 3
0.694972 7 3
18.3054 7 3
0.439882 8 3
18.5589 8 3
0.447242 9 3
0.502274 9 2
18.5519 9 3
0.425407 10 3
0.733324 10 2
18.5971 10 3
1 10.5746 3
2 10.5839 3
3 10.5814 3
4 10.5811 3
5 10.5899 3
6 10.5968 3
7 10.5979 3
8 10.5977 3
9 10.5976 3
10 10.5974 3
11 10.5974 3
12 10.5973 3
13 10.5973 3
14 10.5972 3
15 10.5972 3
16 10.5971 3
17 10.5971 3
18 10.5971 3
1 0.631516 4
0.631173 1 4
0.617411 1 3
2 0.631485 4
3 0.631457 4
4 0.631434 4
5 0.631416 4
6 0.631405 4
7 0.6314 4
8 0.631401 4
9 0.631406 4
10 0.631415 4
11 0.631426 4
12 0.631439 4
13 0.631454 4
14 0.631468 4
15 0.631484 4
16 0.631499 4
17 0.631514 4
18 0.631524 4
18.3688 1 4
0.588614 2 4
0.573378 2 3
18.4115 2 4
0.53636 3 4
18.4638 3 4
0.487598 4 4
0.471309 4 3
18.5127 4 4
0.434557 5 4
18.5659 5 4
0.461477 6 4
0.716199 6 3
18.5379 6 4
0.492556 7 4
18.5065 7 4
0.51575 8 4
18.483 8 4
0.536659 9 4
0.447242 9 3
18.462 9 4
0.538753 10 4
18.4819 10 4
1 10.4613 4
2 10.4695 4
3 10.4655 4
4 10.4646 4
5 10.4677 4
6 10.4727 4
7 10.4785 4
8 10.4795 4
9 10.4818 4
10 10.4822 4
11 10.4823 4
12 10.4822 4
13 10.4821 4
14 10.482 4
15 10.482 4
16 10.482 4
17 10.482 4
18 10.4819 4
1 0.630549 5
0.63008 1 5
0.631173 1 4
2 0.630522 5
3 0.630497 5
4 0.630476 5
5 0.630459 5
6 0.630448 5
7 0.630442 5
8 0.630441 5
9 0.630443 5
10 0.630449 5
11 0.630458 5
12 0.630469 5
13 0.63048 5
14 0.630493 5
15 0.630506 5
16 0.63052 5
17 0.630534 5
18 0.630543 5
18.3699 1 5
0.584312 2 5
18.4157 2 5
0.356902 3 5
0.53636 3 4
18.6429 3 5
0.33866 4 5
0.487598 4 4
18.6612 4 5
0.320481 5 5
18.6793 5 5
0.302236 6 5
0.461477 6 4
18.6974 6 5
0.533878 7 5
18.4708 7 5
0.574832 8 5
0.51575 8 4
18.4244 8 5
0.604468 9 5
0.536659 9 4
18.3944 9 5
0.622082 10 5
0.538753 10 4
18.3968 10 5
1 10.3779 5
2 10.3855 5
3 10.3835 5
4 10.3842 5
5 10.3816 5
6 10.3819 5
7 10.3868 5
8 10.3901 5
9 10.3933 5
10 10.3916 5
11 10.396 5
12 10.3973 5
13 10.397 5
14 10.3969 5
15 10.3969 5
16 10.3968 5
17 10.3968 5
18 10.3968 5
1 0.430782 6
0.430689 1 6
0.63008 1 5
2 0.430772 6
3 0.430768 6
4 0.430769 6
5 0.430776 6
6 0.430787 6
7 0.430802 6
8 0.430819 6
9 0.430838 6
10 0.430857 6
11 0.430876 6
12 0.430895 6
13 0.430912 6
14 0.430928 6
15 0.430942 6
16 0.430955 6
17 0.430966 6
18 0.430973 6
18.5691 1 6
0.412611 2 6
18.5872 2 6
0.396146 3 6
0.356902 3 5
18.6037 3 6
0.381316 4 6
0.33866 4 5
18.6185 4 6
0.367474 5 6
0.320481 5 5
18.6323 5 6
0.35453 6 6
18.6452 6 6
0.570009 7 6
18.656 7 6
0.609036 8 6
0.574832 8 5
18.3993 8 6
0.650215 9 6
0.604468 9 5
18.3497 9 6
0.675972 10 6
18.3404 10 6
1 10.3239 6
2 10.3313 6
3 10.3309 6
4 10.3331 6
5 10.3287 6
6 10.3274 6
7 10.3302 6
8 10.3325 6
9 10.3323 6
10 10.3317 6
11 10.3349 6
12 10.3375 6
13 10.3395 6
14 10.3398 6
15 10.3404 6
16 10.3405 6
17 10.3404 6
18 10.3404 6
1 0.460376 7
0.460306 1 7
0.430689 1 6
2 0.460367 7
3 0.460364 7
4 0.460365 7
5 0.460371 7
6 0.460381 7
7 0.460394 7
8 0.460409 7
9 0.460426 7
10 0.460444 7
11 0.460461 7
12 0.460478 7
13 0.460494 7
14 0.460509 7
15 0.460522 7
16 0.460534 7
17 0.460545 7
18 0.460551 7
18.5395 1 7
0.444344 2 7
0.412611 2 6
18.5555 2 7
0.430962 3 7
0.396146 3 6
18.5689 3 7
0.419473 4 7
0.381316 4 6
18.5803 4 7
0.409635 5 7
0.367474 5 6
18.5901 5 7
0.401308 6 7
18.5984 6 7
0.395247 7 7
18.6051 7 7
0.390265 8 7
0.609036 8 6
18.6091 8 7
0.661089 9 7
0.650215 9 6
18.3388 9 7
0.704164 10 7
0.675972 10 6
18.3085 10 7
1 10.2951 7
2 10.3018 7
3 10.3015 7
4 10.3018 7
5 10.2999 7
6 10.2995 7
7 10.3024 7
8 10.3022 7
9 10.3003 7
10 10.3021 7
11 10.301 7
12 10.3016 7
13 10.3048 7
14 10.3057 7
15 10.3069 7
16 10.3076 7
17 10.3079 7
18 10.3079 7
1 0.485164 8
0.485116 1 8
0.460306 1 7
2 0.485156 8
3 0.485153 8
4 0.485155 8
5 0.485159 8
6 0.485168 8
7 0.485179 8
8 0.485192 8
9 0.485206 8
10 0.485222 8
11 0.485237 8
12 0.485252 8
13 0.485267 8
14 0.48528 8
15 0.485292 8
16 0.485303 8
17 0.485313 8
18 0.485318 8
18.5147 1 8
0.471534 2 8
18.5283 2 8
0.460903 3 8
18.5389 3 8
0.452564 4 8
0.419473 4 7
18.5473 4 8
0.446267 5 8
0.409635 5 7
18.5535 5 8
0.441819 6 8
0.401308 6 7
18.5579 6 8
0.439165 7 8
0.395247 7 7
18.5606 7 8
0.438332 8 8
18.5613 8 8
0.439305 9 8
0.661089 9 7
18.5606 9 8
1 10 7.52516
1 9.67767 8
2 9.67984 8
2 10 7.53332
3 9.6797 8
3 10 7.5329
4 9.67983 8
4 10 7.53323
5 9.67935 8
5 10 7.53111
6 9.67906 8
6 10 7.5305
7 9.67986 8
7 10 7.53388
8 9.67991 8
8 10 7.53371
9 9.67937 8
9 10 7.53144
10 9.67997 8
10 10 7.53363
11 9.67949 8
11 10 7.53222
12 9.67965 8
12 10 7.53286
13 9.68079 8
13 10 7.53679
14 9.68115 8
14 10 7.53788
15 9.68157 8
15 10 7.53934
16 9.68183 8
16 10 7.54022
17 9.68189 8
17 10 7.54055
18 9.68188 8
18 10 7.54058
1 0.505168 9
0.505137 1 9
0.485116 1 8
2 0.505162 9
3 0.505159 9
4 0.50516 9
5 0.505164 9
6 0.505171 9
7 0.50518 9
8 0.50519 9
9 0.505203 9
10 0.505216 9
11 0.505229 9
12 0.505242 9
13 0.505255 9
14 0.505266 9
15 0.505277 9
16 0.505286 9
17 0.505295 9
18 0.505299 9
18.4947 1 9
0.494094 2 9
0.471534 2 8
18.5058 2 9
0.486203 3 9
0.460903 3 8
18.5137 3 9
0.480832 4 9
18.519 4 9
0.477703 5 9
0.446267 5 8
18.5221 5 9
0.476583 6 9
0.441819 6 8
18.5232 6 9
0.477248 7 9
0.439165 7 8
18.5225 7 9
0.479566 8 9
0.438332 8 8
18.5202 8 9
18.5613 8 8
0.482689 9 9
0.439305 9 8
18.5173 9 9
1 9.52715 9
2 9.52734 9
3 9.52739 9
4 9.52747 9
5 9.52741 9
6 9.52719 9
7 9.52731 9
8 9.52746 9
9 9.52744 9
10 9.52743 9
11 9.52727 9
12 9.52721 9
13 9.5274 9
14 9.52749 9
15 9.52759 9
16 9.52762 9
17 9.52762 9
18 9.52761 9
1 0.520785 10
0.520767 1 10
0.505137 1 9
2 0.520779 10
3 0.520777 10
4 0.520778 10
5 0.520781 10
6 0.520787 10
7 0.520794 10
8 0.520803 10
9 0.520813 10
10 0.520825 10
11 0.520836 10
12 0.520847 10
13 0.520858 10
14 0.520867 10
15 0.520876 10
16 0.520884 10
17 0.520891 10
18 0.520895 10
18.4791 1 10
0.512356 2 10
0.494094 2 9
18.4875 2 10
0.507187 3 10
0.486203 3 9
18.4927 3 10
0.504659 4 10
18.4952 4 10
0.504467 5 10
0.477703 5 9
18.4954 5 10
0.506285 6 10
0.476583 6 9
18.4936 6 10
0.509746 7 10
0.477248 7 9
18.4901 7 10
0.514542 8 10
18.4853 8 10
0.519632 9 10
0.482689 9 9
18.4805 9 10
1 9.48076 10
2 9.48071 10
3 9.48086 10
4 9.48088 10
5 9.48081 10
6 9.48076 10
7 9.48087 10
8 9.48093 10
9 9.48084 10
10 9.48069 10
11 9.48068 10
12 9.48068 10
13 9.48074 10
14 9.48079 10
15 9.48084 10
16 9.48085 10
17 9.48087 10
18 9.48087 10
1 0.532486 11
0.532478 1 11
2 0.53248 11
3 0.532478 11
4 0.53248 11
5 0.532484 11
6 0.53249 11
7 0.532495 11
8 0.532502 11
9 0.532511 11
10 0.53252 11
11 0.53253 11
12 0.53254 11
13 0.532549 11
14 0.532556 11
15 0.532563 11
16 0.532569 11
17 0.532575 11
18 0.532578 11
18.4674 1 11
0.526749 2 11
0.512356 2 10
18.4732 2 11
0.524293 3 11
0.507187 3 10
18.4756 3 11
18.4927 3 10
0.52453 4 11
18.4754 4 11
0.52711 5 11
0.504467 5 10
18.4728 5 11
0.531617 6 11
18.4683 6 11
0.537572 7 11
18.4623 7 11
0.544502 8 11
0.514542 8 10
18.4554 8 11
0.551266 9 11
0.519632 9 10
18.4489 9 11
1 9.44874 11
2 9.44871 11
3 9.44896 11
4 9.44894 11
5 9.44884 11
6 9.44887 11
7 9.44897 11
8 9.4489 11
9 9.44872 11
10 9.4487 11
11 9.4488 11
12 9.44884 11
13 9.44882 11
14 9.44882 11
15 9.44884 11
16 9.44888 11
17 9.44891 11
18 9.44892 11
1 0.540388 12
0.540386 1 12
0.532478 1 11
2 0.540371 12
3 0.540368 12
4 0.540371 12
5 0.540377 12
6 0.540388 12
7 0.540388 12
8 0.540392 12
9 0.5404 12
10 0.540406 12
11 0.540416 12
12 0.540423 12
13 0.540432 12
14 0.540436 12
15 0.54044 12
16 0.540445 12
17 0.54045 12
18 0.540452 12
18.4595 1 12
0.537334 2 12
18.4626 2 12
0.537574 3 12
18.4624 3 12
0.540521 4 12
0.52453 4 11
18.4594 4 12
0.545782 5 12
18.4541 5 12
0.552874 6 12
0.531617 6 11
18.447 6 12
0.561209 7 12
18.4387 7 12
0.570158 8 12
0.544502 8 11
18.4298 8 12
0.578553 9 12
18.4216 9 12
1 9.42143 12
2 9.42151 12
3 9.42161 12
4 9.42158 12
5 9.42149 12
6 9.42154 12
7 9.42153 12
8 9.42145 12
9 9.42144 12
10 9.42152 12
11 9.42154 12
12 9.42153 12
13 9.42148 12
14 9.42149 12
15 9.42152 12
16 9.42156 12
17 9.42157 12
18 9.4216 12
1 0.546387 13
0.546387 1 13
0.540386 1 12
2 0.546339 13
3 0.546357 13
4 0.54636 13
5 0.54637 13
6 0.546401 13
7 0.546377 13
8 0.546391 13
9 0.546393 13
10 0.546402 13
11 0.546425 13
12 0.546421 13
13 0.546427 13
14 0.546431 13
15 0.546435 13
16 0.546442 13
17 0.546448 13
18 0.546451 13
18.4535 1 13
0.545494 2 13
0.537334 2 12
18.4546 2 13
0.547759 3 13
18.4525 3 13
0.552743 4 13
0.540521 4 12
18.4476 4 13
0.560004 5 13
0.545782 5 12
18.4405 5 13
0.568972 6 13
0.552874 6 12
18.4317 6 13
0.578934 7 13
18.4217 7 13
0.588984 8 13
0.570158 8 12
18.4113 8 13
0.59826 9 13
18.402 9 13
1 9.40172 13
2 9.40166 13
3 9.40059 13
4 9.40118 13
5 9.40173 13
6 9.40186 13
7 9.40154 13
8 9.40177 13
9 9.4019 13
10 9.40169 13
11 9.4018 13
12 9.40144 13
13 9.4017 13
14 9.40131 13
15 9.40163 13
16 9.40191 13
17 9.40196 13
18 9.40199 13
1 1 13.4536
2 1 13.4537
3 1 13.4536
4 1 13.4536
5 1 13.4536
6 1 13.4536
7 1 13.4536
8 1 13.4536
9 1 13.4536
10 1 13.4536
10 1 13.4536
11 1 13.4536
12 1 13.4536
13 1 13.4536
14 1 13.4536
15 1 13.4536
16 1 13.4535
17 1 13.4535
18 1 13.4535
0.545494 2 13
1 2 13.4545
2 2 13.4547
3 2 13.4547
3 2 13.4547
4 2 13.4547
5 2 13.4547
6 2 13.4546
7 2 13.4546
8 2 13.4546
9 2 13.4546
10 2 13.4546
11 2 13.4546
12 2 13.4546
13 2 13.4546
13 2 13.4546
14 2 13.4546
14 2 13.4546
15 2 13.4546
16 2 13.4546
17 2 13.4546
18 2 13.4546
18 2 13.4546
1 3 13.4522
2 3 13.4524
3 3 13.4525
4 3 13.4524
5 3 13.4525
6 3 13.4523
7 3 13.4524
8 3 13.4525
9 3 13.4524
10 3 13.4524
11 3 13.4525
12 3 13.4525
13 3 13.4523
14 3 13.4524
15 3 13.4524
16 3 13.4524
17 3 13.4524
18 3 13.4524
1 4 13.4472
2 4 13.4476
3 4 13.4477
4 4 13.4475
5 4 13.4476
6 4 13.4474
7 4 13.4475
8 4 13.4476
9 4 13.4475
10 4 13.4475
11 4 13.4476
12 4 13.4476
13 4 13.4474
14 4 13.4476
15 4 13.4476
16 4 13.4476
17 4 13.4476
18 4 13.4476
0.560004 5 13
1 5 13.44
2 5 13.4404
3 5 13.4406
4 5 13.4403
5 5 13.4405
6 5 13.4401
7 5 13.4404
8 5 13.4405
9 5 13.4405
10 5 13.4404
11 5 13.4404
12 5 13.4405
13 5 13.4403
14 5 13.4404
15 5 13.4405
16 5 13.4405
17 5 13.4405
18 5 13.4405
0.568972 6 13
1 6 13.431
2 6 13.4315
3 6 13.4316
4 6 13.4313
5 6 13.4315
6 6 13.4313
7 6 13.4315
8 6 13.4317
9 6 13.4316
10 6 13.4316
11 6 13.4313
12 6 13.4315
13 6 13.4315
14 6 13.4315
15 6 13.4315
16 6 13.4316
17 6 13.4316
18 6 13.4316
0.578934 7 13
1 7 13.421
2 7 13.4214
3 7 13.4215
4 7 13.421
5 7 13.4213
6 7 13.4216
7 7 13.4216
8 7 13.4216
9 7 13.4216
9 7 13.4216
10 7 13.4216
11 7 13.4213
12 7 13.4213
13 7 13.4215
14 7 13.4214
15 7 13.4216
16 7 13.4215
17 7 13.4216
18 7 13.4216
0.588984 8 13
1 8 13.4109
2 8 13.4111
3 8 13.4107
4 8 13.4103
5 8 13.411
6 8 13.4113
7 8 13.411
7 8 13.411
8 8 13.4112
9 8 13.4113
10 8 13.4112
11 8 13.411
12 8 13.4111
13 8 13.411
14 8 13.4109
15 8 13.4112
16 8 13.4112
17 8 13.4112
18 8 13.4113
0.59826 9 13
1 9 13.4017
2 9 13.4016
3 9 13.4005
4 9 13.4011
5 9 13.4017
6 9 13.4018
7 9 13.4015
8 9 13.4017
9 9 13.4018
10 9 13.4016
11 9 13.4017
12 9 13.4014
13 9 13.4016
14 9 13.4012
15 9 13.4016
16 9 13.4019
17 9 13.4019
18 9 13.4019
3 0 1 2
3 2 3 4
3 4 3 5
3 4 5 6
3 6 5 7
3 6 8 9
3 9 8 10
3 9 10 11
3 11 10 12
3 11 12 13
3 13 12 14
3 13 14 15
3 15 14 16
3 15 17 18
3 18 17 19
3 18 19 20
3 20 19 21
3 20 21 22
3 22 21 23
3 22 24 25
3 25 24 26
3 25 27 28
3 28 27 29
3 28 30 31
3 31 30 32
3 31 32 33
3 33 32 34
3 33 34 35
3 35 34 36
3 35 37 38
3 38 37 39
3 38 39 40
3 40 39 41
3 40 41 42
3 42 41 43
3 44 45 42
3 46 47 0
3 0 47 1
3 48 5 3
3 49 5 48
3 50 7 5
3 51 7 50
3 51 10 8
3 52 10 51
3 52 12 10
3 53 12 52
3 54 14 12
3 55 14 54
3 55 16 14
3 56 16 55
3 56 19 17
3 57 19 56
3 57 21 19
3 58 21 57
3 58 23 21
3 59 23 58
3 59 26 24
3 60 26 59
3 61 29 27
3 62 29 61
3 63 32 30
3 64 32 63
3 65 34 32
3 66 34 65
3 66 36 34
3 67 36 66
3 68 39 37
3 69 39 68
3 69 41 39
3 70 41 69
3 71 43 41
3 72 43 71
3 73 74 44
3 44 74 45
3 75 76 46
3 46 76 47
3 77 49 48
3 78 49 77
3 78 51 50
3 79 51 78
3 80 52 51
3 81 52 80
3 82 53 52
3 83 53 82
3 84 55 54
3 85 55 84
3 85 56 55
3 86 56 85
3 87 57 56
3 88 57 87
3 89 58 57
3 90 58 89
3 90 59 58
3 91 59 90
3 92 60 59
3 93 60 92
3 94 62 61
3 95 62 94
3 96 64 63
3 97 64 96
3 98 66 65
3 99 66 98
3 100 67 66
3 101 67 100
3 102 69 68
3 103 69 102
3 104 70 69
3 105 70 104
3 106 72 71
3 107 72 106
3 107 108 73
3 73 108 74
3 109 110 75
3 75 110 76
3 111 78 77
3 112 78 111
3 112 79 78
3 113 79 112
3 114 81 80
3 115 81 114
3 115 83 82
3 116 83 115
3 117 85 84
3 118 85 117
3 119 86 85
3 120 86 119
3 121 88 87
3 122 88 121
3 123 90 89
3 124 90 123
3 125 91 90
3 126 91 125
3 127 93 92
3 128 93 127
3 129 95 94
3 130 95 129
3 130 97 96
3 131 97 130
3 132 99 98
3 133 99 132
3 133 101 100
3 134 101 133
3 135 103 102
3 136 103 135
3 137 105 104
3 138 105 137
3 139 107 106
3 140 107 139
3 140 141 107
3 107 141 108
3 142 143 109
3 109 143 110
3 144 112 111
3 145 112 144
3 146 113 112
3 147 113 146
3 147 115 114
3 148 115 147
3 149 116 115
3 150 116 149
3 150 118 117
3 151 118 150
3 151 120 119
3 152 120 151
3 152 122 121
3 153 122 152
3 153 124 123
3 154 124 153
3 154 126 125
3 155 126 154
3 156 128 127
3 157 128 156
3 157 130 129
3 158 130 157
3 159 131 130
3 160 131 159
3 161 133 132
3 162 133 161
3 163 134 133
3 164 134 163
3 165 136 135
3 166 136 165
3 167 138 137
3 168 138 167
3 169 140 139
3 170 140 169
3 170 171 140
3 140 171 141
3 172 173 142
3 142 173 143
3 173 145 144
3 174 145 173
3 174 147 146
3 175 147 174
3 176 148 147
3 177 148 176
3 177 150 149
3 178 150 177
3 178 151 150
3 179 151 178
3 179 152 151
3 180 152 179
3 181 153 152
3 182 153 181
3 183 154 153
3 184 154 183
3 185 155 154
3 186 155 185
3 186 157 156
3 187 157 186
3 187 158 157
3 188 158 187
3 189 160 159
3 190 160 189
3 191 162 161
3 192 162 191
3 193 164 163
3 194 164 193
3 194 166 165
3 195 166 194
3 195 168 167
3 196 168 195
3 197 170 169
3 198 170 197
3 199 200 170
3 170 200 171
3 201 202 172
3 172 202 173
3 202 174 173
3 203 174 202
3 203 175 174
3 204 175 203
3 205 177 176
3 206 177 205
3 206 178 177
3 207 178 206
3 207 179 178
3 208 179 207
3 209 180 179
3 210 180 209
3 210 182 181
3 211 182 210
3 212 184 183
3 213 184 212
3 214 186 185
3 215 186 214
3 215 187 186
3 216 187 215
3 216 188 187
3 217 188 216
3 218 190 189
3 219 190 218
3 219 192 191
3 220 192 219
3 220 194 193
3 221 194 220
3 221 195 194
3 222 195 221
3 222 196 195
3 223 196 222
3 224 198 197
3 225 198 224
3 226 227 199
3 199 227 200
3 228 229 201
3 201 229 202
3 229 203 202
3 230 203 229
3 231 204 203
3 232 204 231
3 233 206 205
3 234 206 233
3 235 207 206
3 236 207 235
3 237 208 207
3 238 208 237
3 239 210 209
3 240 210 239
3 240 211 210
3 241 211 240
3 242 213 212
3 243 213 242
3 244 215 214
3 245 215 244
3 245 216 215
3 246 216 245
3 247 217 216
3 248 217 247
3 249 219 218
3 250 219 249
3 250 220 219
3 251 220 250
3 252 221 220
3 253 221 252
3 253 222 221
3 254 222 253
3 255 223 222
3 256 223 255
3 257 225 224
3 258 225 257
3 259 260 226
3 226 260 227
3 261 262 228
3 228 262 229
3 263 230 229
3 264 230 263
3 265 232 231
3 266 232 265
3 267 234 233
3 268 234 267
3 269 236 235
3 270 236 269
3 270 238 237
3 271 238 270
3 272 240 239
3 273 240 272
3 273 241 240
3 274 241 273
3 275 243 242
3 276 243 275
3 276 245 244
3 277 245 276
3 278 246 245
3 279 246 278
3 280 248 247
3 281 248 280
3 282 250 249
3 283 250 282
3 284 251 250
3 285 251 284
3 286 253 252
3 287 253 286
3 288 254 253
3 289 254 288
3 290 256 255
3 291 256 290
3 291 258 257
3 292 258 291
3 293 294 259
3 259 294 260
3 295 296 261
3 261 296 262
3 297 264 263
3 298 264 297
3 299 266 265
3 300 266 299
3 301 268 267
3 302 268 301
3 303 270 269
3 304 270 303
3 305 271 270
3 306 271 305
3 307 273 272
3 308 273 307
3 309 274 273
3 310 274 309
3 311 276 275
3 312 276 311
3 313 277 276
3 314 277 313
3 314 279 278
3 315 279 314
3 315 281 280
3 316 281 315
3 317 283 282
3 318 283 317
3 319 285 284
3 320 285 319
3 320 287 286
3 321 287 320
3 321 289 288
3 322 289 321
3 323 291 290
3 324 291 323
3 325 292 291
3 326 292 325
3 326 327 293
3 293 327 294
3 328 296 295
3 329 298 328
3 328 298 297
3 330 300 329
3 329 300 299
3 331 302 330
3 330 302 301
3 332 304 331
3 331 304 303
3 333 306 332
3 332 306 305
3 334 308 333
3 333 308 307
3 335 310 334
3 334 310 309
3 336 312 335
3 335 312 311
3 337 314 336
3 336 314 313
3 338 315 337
3 337 315 314
3 339 316 338
3 338 316 315
3 340 318 339
3 339 318 317
3 341 320 340
3 340 320 319
3 342 321 341
3 341 321 320
3 343 322 342
3 342 322 321
3 344 324 343
3 343 324 323
3 345 326 344
3 344 326 325
3 345 327 326
3 346 347 2
3 2 347 0
3 2 348 346
3 2 4 348
3 4 349 348
3 4 6 349
3 6 350 349
3 6 9 350
3 9 351 350
3 9 11 351
3 11 352 351
3 11 13 352
3 13 353 352
3 13 15 353
3 15 354 353
3 15 18 354
3 18 355 354
3 18 20 355
3 20 356 355
3 20 22 356
3 22 357 356
3 22 25 357
3 25 358 357
3 25 28 358
3 28 359 358
3 28 31 359
3 31 360 359
3 31 33 360
3 33 361 360
3 33 35 361
3 35 362 361
3 35 38 362
3 38 363 362
3 38 40 363
3 40 364 363
3 40 42 364
3 42 45 364
3 364 45 365
3 366 0 347
3 366 367 0
3 45 368 365
3 74 368 45
3 369 367 366
3 369 75 367
3 74 370 368
3 108 370 74
3 371 75 369
3 371 109 75
3 108 372 370
3 141 372 108
3 373 109 371
3 373 374 109
3 141 375 372
3 171 375 141
3 376 374 373
3 376 377 374
3 171 378 375
3 200 378 171
3 379 377 376
3 379 380 377
3 200 381 378
3 227 381 200
3 382 380 379
3 382 383 380
3 227 384 381
3 260 384 227
3 385 383 382
3 385 261 383
3 260 386 384
3 294 386 260
3 387 261 385
3 387 295 261
3 294 388 386
3 327 388 294
3 387 389 295
3 295 389 328
3 390 328 389
3 329 328 390
3 391 329 390
3 330 329 391
3 392 330 391
3 331 330 392
3 393 331 392
3 332 331 393
3 394 332 393
3 333 332 394
3 395 333 394
3 334 333 395
3 396 334 395
3 335 334 396
3 397 335 396
3 336 335 397
3 398 336 397
3 337 336 398
3 399 337 398
3 338 337 399
3 400 338 399
3 339 338 400
3 401 339 400
3 340 339 401
3 402 340 401
3 341 340 402
3 403 341 402
3 342 341 403
3 404 342 403
3 343 342 404
3 405 343 404
3 344 343 405
3 406 344 405
3 345 344 406
3 327 345 388
3 388 345 406
3 407 408 346
3 346 408 347
3 346 409 407
3 346 348 409
3 348 410 409
3 348 349 410
3 349 411 410
3 349 350 411
3 350 412 411
3 350 351 412
3 351 413 412
3 351 352 413
3 352 414 413
3 352 353 414
3 353 415 414
3 353 354 415
3 354 416 415
3 354 355 416
3 355 417 416
3 355 356 417
3 356 418 417
3 356 357 418
3 357 419 418
3 357 358 419
3 358 420 419
3 358 359 420
3 359 421 420
3 359 360 421
3 360 422 421
3 360 361 422
3 361 423 422
3 361 362 423
3 362 424 423
3 362 363 424
3 363 425 424
3 363 364 425
3 364 365 425
3 425 365 426
3 427 347 408
3 427 428 347
3 365 429 426
3 368 429 365
3 430 428 427
3 430 369 428
3 368 431 429
3 370 431 368
3 432 369 430
3 432 433 369
3 370 434 431
3 372 434 370
3 435 433 432
3 435 373 433
3 372 436 434
3 375 436 372
3 437 373 435
3 437 376 373
3 375 438 436
3 378 438 375
3 439 376 437
3 439 379 376
3 378 440 438
3 381 440 378
3 441 379 439
3 441 382 379
3 381 442 440
3 384 442 381
3 443 382 441
3 443 444 382
3 384 445 442
3 386 445 384
3 446 444 443
3 446 447 444
3 386 448 445
3 388 448 386
3 446 449 447
3 447 449 389
3 450 389 449
3 390 389 450
3 451 390 450
3 391 390 451
3 452 391 451
3 392 391 452
3 453 392 452
3 393 392 453
3 454 393 453
3 394 393 454
3 455 394 454
3 395 394 455
3 456 395 455
3 396 395 456
3 457 396 456
3 397 396 457
3 458 397 457
3 398 397 458
3 459 398 458
3 399 398 459
3 460 399 459
3 400 399 460
3 461 400 460
3 401 400 461
3 462 401 461
3 402 401 462
3 463 402 462
3 403 402 463
3 464 403 463
3 404 403 464
3 465 404 464
3 405 404 465
3 466 405 465
3 406 405 466
3 388 406 448
3 448 406 466
3 467 468 407
3 407 468 469
3 407 470 467
3 407 409 470
3 409 471 470
3 409 410 471
3 410 472 471
3 410 411 472
3 411 473 472
3 411 412 473
3 412 474 473
3 412 413 474
3 413 475 474
3 413 414 475
3 414 476 475
3 414 415 476
3 415 477 476
3 415 416 477
3 416 478 477
3 416 417 478
3 417 479 478
3 417 418 479
3 418 480 479
3 418 419 480
3 419 481 480
3 419 420 481
3 420 482 481
3 420 421 482
3 421 483 482
3 421 422 483
3 422 484 483
3 422 423 484
3 423 485 484
3 423 424 485
3 424 486 485
3 424 425 486
3 425 426 486
3 486 426 487
3 488 469 468
3 488 489 469
3 426 490 487
3 429 490 426
3 491 489 488
3 491 430 489
3 429 492 490
3 431 492 429
3 493 430 491
3 493 494 430
3 431 495 492
3 434 495 431
3 496 494 493
3 496 435 494
3 434 497 495
3 436 497 434
3 498 435 496
3 498 499 435
3 436 500 497
3 438 500 436
3 501 499 498
3 501 439 499
3 438 502 500
3 440 502 438
3 503 439 501
3 503 441 439
3 440 504 502
3 442 504 440
3 505 441 503
3 505 506 441
3 442 507 504
3 445 507 442
3 508 506 505
3 508 446 506
3 445 509 507
3 448 509 445
3 508 510 446
3 446 510 449
3 511 449 510
3 450 449 511
3 512 450 511
3 451 450 512
3 513 451 512
3 452 451 513
3 514 452 513
3 453 452 514
3 515 453 514
3 454 453 515
3 516 454 515
3 455 454 516
3 517 455 516
3 456 455 517
3 518 456 517
3 457 456 518
3 519 457 518
3 458 457 519
3 520 458 519
3 459 458 520
3 521 459 520
3 460 459 521
3 522 460 521
3 461 460 522
3 523 461 522
3 462 461 523
3 524 462 523
3 463 462 524
3 525 463 524
3 464 463 525
3 526 464 525
3 465 464 526
3 527 465 526
3 466 465 527
3 448 466 509
3 509 466 527
3 528 529 467
3 467 529 530
3 467 531 528
3 467 470 531
3 470 532 531
3 470 471 532
3 471 533 532
3 471 472 533
3 472 534 533
3 472 473 534
3 473 535 534
3 473 474 535
3 474 536 535
3 474 475 536
3 475 537 536
3 475 476 537
3 476 538 537
3 476 477 538
3 477 539 538
3 477 478 539
3 478 540 539
3 478 479 540
3 479 541 540
3 479 480 541
3 480 542 541
3 480 481 542
3 481 543 542
3 481 482 543
3 482 544 543
3 482 483 544
3 483 545 544
3 483 484 545
3 484 546 545
3 484 485 546
3 485 547 546
3 485 486 547
3 486 487 547
3 547 487 548
3 549 530 529
3 549 488 530
3 487 550 548
3 490 550 487
3 551 488 549
3 551 552 488
3 490 553 550
3 492 553 490
3 554 552 551
3 554 555 552
3 492 556 553
3 495 556 492
3 557 555 554
3 557 496 555
3 495 558 556
3 497 558 495
3 559 496 557
3 559 560 496
3 497 561 558
3 500 561 497
3 562 560 559
3 562 501 560
3 500 563 561
3 502 563 500
3 564 501 562
3 564 565 501
3 502 566 563
3 504 566 502
3 567 565 564
3 567 568 565
3 504 569 566
3 507 569 504
3 570 568 567
3 570 571 568
3 507 572 569
3 509 572 507
3 570 573 571
3 571 573 510
3 574 510 573
3 511 510 574
3 575 511 574
3 512 511 575
3 576 512 575
3 513 512 576
3 577 513 576
3 514 513 577
3 578 514 577
3 515 514 578
3 579 515 578
3 516 515 579
3 580 516 579
3 517 516 580
3 581 517 580
3 518 517 581
3 582 518 581
3 519 518 582
3 583 519 582
3 520 519 583
3 584 520 583
3 521 520 584
3 585 521 584
3 522 521 585
3 586 522 585
3 523 522 586
3 587 523 586
3 524 523 587
3 588 524 587
3 525 524 588
3 589 525 588
3 526 525 589
3 590 526 589
3 527 526 590
3 509 527 572
3 572 527 590
3 591 592 528
3 528 592 593
3 528 594 591
3 528 531 594
3 531 595 594
3 531 532 595
3 532 596 595
3 532 533 596
3 533 597 596
3 533 534 597
3 534 598 597
3 534 535 598
3 535 599 598
3 535 536 599
3 536 600 599
3 536 537 600
3 537 601 600
3 537 538 601
3 538 602 601
3 538 539 602
3 539 603 602
3 539 540 603
3 540 604 603
3 540 541 604
3 541 605 604
3 541 542 605
3 542 606 605
3 542 543 606
3 543 607 606
3 543 544 607
3 544 608 607
3 544 545 608
3 545 609 608
3 545 546 609
3 546 610 609
3 546 547 610
3 547 548 610
3 610 548 611
3 612 593 592
3 612 549 593
3 548 613 611
3 550 613 548
3 614 549 612
3 614 615 549
3 550 616 613
3 553 616 550
3 617 615 614
3 617 618 615
3 553 619 616
3 556 619 553
3 620 618 617
3 620 621 618
3 556 622 619
3 558 622 556
3 623 621 620
3 623 559 621
3 558 624 622
3 561 624 558
3 625 559 623
3 625 562 559
3 561 626 624
3 563 626 561
3 627 562 625
3 627 628 562
3 563 629 626
3 566 629 563
3 630 628 627
3 630 631 628
3 566 632 629
3 569 632 566
3 633 631 630
3 633 570 631
3 569 634 632
3 572 634 569
3 633 635 570
3 570 635 573
3 636 573 635
3 574 573 636
3 637 574 636
3 575 574 637
3 638 575 637
3 576 575 638
3 639 576 638
3 577 576 639
3 640 577 639
3 578 577 640
3 641 578 640
3 579 578 641
3 642 579 641
3 580 579 642
3 643 580 642
3 581 580 643
3 644 581 643
3 582 581 644
3 645 582 644
3 583 582 645
3 646 583 645
3 584 583 646
3 647 584 646
3 585 584 647
3 648 585 647
3 586 585 648
3 649 586 648
3 587 586 649
3 650 587 649
3 588 587 650
3 651 588 650
3 589 588 651
3 652 589 651
3 590 589 652
3 572 590 634
3 634 590 652
3 653 654 591
3 591 654 655
3 591 656 653
3 591 594 656
3 594 657 656
3 594 595 657
3 595 658 657
3 595 596 658
3 596 659 658
3 596 597 659
3 597 660 659
3 597 598 660
3 598 661 660
3 598 599 661
3 599 662 661
3 599 600 662
3 600 663 662
3 600 601 663
3 601 664 663
3 601 602 664
3 602 665 664
3 602 603 665
3 603 666 665
3 603 604 666
3 604 667 666
3 604 605 667
3 605 668 667
3 605 606 668
3 606 669 668
3 606 607 669
3 607 670 669
3 607 608 670
3 608 671 670
3 608 609 671
3 609 672 671
3 609 610 672
3 610 611 672
3 672 611 673
3 674 655 654
3 674 675 655
3 611 676 673
3 613 676 611
3 677 675 674
3 677 678 675
3 613 679 676
3 616 679 613
3 680 678 677
3 680 681 678
3 616 682 679
3 619 682 616
3 683 681 680
3 683 684 681
3 619 685 682
3 622 685 619
3 686 684 683
3 686 623 684
3 622 687 685
3 624 687 622
3 688 623 686
3 688 625 623
3 624 689 687
3 626 689 624
3 690 625 688
3 690 691 625
3 626 692 689
3 629 692 626
3 693 691 690
3 693 694 691
3 629 695 692
3 632 695 629
3 696 694 693
3 696 697 694
3 632 698 695
3 634 698 632
3 696 699 697
3 697 699 635
3 700 635 699
3 636 635 700
3 701 636 700
3 637 636 701
3 702 637 701
3 638 637 702
3 703 638 702
3 639 638 703
3 704 639 703
3 640 639 704
3 705 640 704
3 641 640 705
3 706 641 705
3 642 641 706
3 707 642 706
3 643 642 707
3 708 643 707
3 644 643 708
3 709 644 708
3 645 644 709
3 710 645 709
3 646 645 710
3 711 646 710
3 647 646 711
3 712 647 711
3 648 647 712
3 713 648 712
3 649 648 713
3 714 649 713
3 650 649 714
3 715 650 714
3 651 650 715
3 716 651 715
3 652 651 716
3 634 652 698
3 698 652 716
3 717 718 653
3 653 718 719
3 653 720 717
3 653 656 720
3 656 721 720
3 656 657 721
3 657 722 721
3 657 658 722
3 658 723 722
3 658 659 723
3 659 724 723
3 659 660 724
3 660 725 724
3 660 661 725
3 661 726 725
3 661 662 726
3 662 727 726
3 662 663 727
3 663 728 727
3 663 664 728
3 664 729 728
3 664 665 729
3 665 730 729
3 665 666 730
3 666 731 730
3 666 667 731
3 667 732 731
3 667 668 732
3 668 733 732
3 668 669 733
3 669 734 733
3 669 670 734
3 670 735 734
3 670 671 735
3 671 736 735
3 671 672 736
3 672 673 736
3 736 673 737
3 738 719 718
3 738 674 719
3 673 739 737
3 676 739 673
3 740 674 738
3 740 677 674
3 676 741 739
3 679 741 676
3 742 677 740
3 742 743 677
3 679 744 741
3 682 744 679
3 745 743 742
3 745 746 743
3 682 747 744
3 685 747 682
3 748 746 745
3 748 749 746
3 685 750 747
3 687 750 685
3 751 749 748
3 751 752 749
3 687 753 750
3 689 753 687
3 754 752 751
3 754 690 752
3 689 755 753
3 692 755 689
3 756 690 754
3 756 757 690
3 692 758 755
3 695 758 692
3 759 696 760
3 696 756 760
3 696 757 756
3 759 760 761
3 759 761 762
3 762 761 763
3 762 763 764
3 764 763 765
3 764 765 766
3 766 765 767
3 766 767 768
3 768 767 769
3 768 769 770
3 770 769 771
3 770 771 772
3 772 771 773
3 772 773 774
3 774 773 775
3 774 775 776
3 776 775 777
3 776 777 778
3 778 777 779
3 778 779 780
3 780 779 781
3 780 781 782
3 782 781 783
3 782 783 784
3 784 783 785
3 784 785 786
3 786 785 787
3 786 787 788
3 788 787 789
3 788 789 790
3 790 789 791
3 790 791 792
3 792 791 793
3 792 793 794
3 793 758 794
3 758 698 794
3 758 695 698
3 759 699 696
3 762 700 759
3 759 700 699
3 764 701 762
3 762 701 700
3 766 702 764
3 764 702 701
3 768 703 766
3 766 703 702
3 770 704 768
3 768 704 703
3 772 705 770
3 770 705 704
3 774 706 772
3 772 706 705
3 776 707 774
3 774 707 706
3 778 708 776
3 776 708 707
3 780 709 778
3 778 709 708
3 782 710 780
3 780 710 709
3 784 711 782
3 782 711 710
3 786 712 784
3 784 712 711
3 788 713 786
3 786 713 712
3 790 714 788
3 788 714 713
3 792 715 790
3 790 715 714
3 794 716 792
3 792 716 715
3 698 716 794
3 795 796 717
3 717 796 797
3 717 798 795
3 717 720 798
3 720 799 798
3 720 721 799
3 721 800 799
3 721 722 800
3 722 801 800
3 722 723 801
3 723 802 801
3 723 724 802
3 724 803 802
3 724 725 803
3 725 804 803
3 725 726 804
3 726 805 804
3 726 727 805
3 727 806 805
3 727 728 806
3 728 807 806
3 728 729 807
3 729 808 807
3 729 730 808
3 730 809 808
3 730 731 809
3 731 810 809
3 731 732 810
3 732 811 810
3 732 733 811
3 733 812 811
3 733 734 812
3 734 813 812
3 734 735 813
3 735 814 813
3 735 736 814
3 736 737 814
3 814 737 815
3 816 797 796
3 816 817 797
3 737 818 815
3 739 818 737
3 819 817 816
3 819 820 817
3 739 821 818
3 741 821 739
3 822 820 819
3 822 742 820
3 741 823 821
3 744 823 741
3 824 742 822
3 824 825 742
3 744 826 823
3 747 826 744
3 827 825 824
3 827 828 825
3 747 829 826
3 750 829 747
3 830 828 827
3 830 831 828
3 750 832 829
3 753 832 750
3 833 831 830
3 833 834 831
3 753 835 832
3 836 835 753
3 837 834 833
3 837 838 834
3 836 839 835
3 758 839 836
3 837 840 838
3 838 840 760
3 841 760 840
3 761 760 841
3 842 761 841
3 763 761 842
3 843 763 842
3 765 763 843
3 844 765 843
3 767 765 844
3 845 767 844
3 769 767 845
3 846 769 845
3 771 769 846
3 847 771 846
3 773 771 847
3 848 773 847
3 775 773 848
3 849 775 848
3 777 775 849
3 850 777 849
3 779 777 850
3 851 779 850
3 781 779 851
3 852 781 851
3 783 781 852
3 853 783 852
3 785 783 853
3 854 785 853
3 787 785 854
3 855 787 854
3 789 787 855
3 856 789 855
3 791 789 856
3 857 791 856
3 793 791 857
3 758 793 839
3 839 793 857
3 858 859 795
3 795 859 860
3 795 861 858
3 795 798 861
3 798 862 861
3 798 799 862
3 799 863 862
3 799 800 863
3 800 864 863
3 800 801 864
3 801 865 864
3 801 802 865
3 802 866 865
3 802 803 866
3 803 867 866
3 803 804 867
3 804 868 867
3 804 805 868
3 805 869 868
3 805 806 869
3 806 870 869
3 806 807 870
3 807 871 870
3 807 808 871
3 808 872 871
3 808 809 872
3 809 873 872
3 809 810 873
3 810 874 873
3 810 811 874
3 811 875 874
3 811 812 875
3 812 876 875
3 812 813 876
3 813 877 876
3 813 814 877
3 814 815 877
3 877 815 878
3 879 860 859
3 879 880 860
3 815 881 878
3 818 881 815
3 882 880 879
3 882 883 880
3 818 884 881
3 821 884 818
3 885 883 882
3 885 822 883
3 821 886 884
3 823 886 821
3 887 822 885
3 887 888 822
3 823 889 886
3 826 889 823
3 890 888 887
3 890 891 888
3 826 892 889
3 829 892 826
3 893 891 890
3 893 894 891
3 829 895 892
3 832 895 829
3 896 894 893
3 896 833 894
3 832 897 895
3 835 897 832
3 898 833 896
3 898 899 833
3 835 900 897
3 839 900 835
3 898 901 899
3 899 901 840
3 902 840 901
3 841 840 902
3 903 841 902
3 842 841 903
3 904 842 903
3 843 842 904
3 905 843 904
3 844 843 905
3 906 844 905
3 845 844 906
3 907 845 906
3 846 845 907
3 908 846 907
3 847 846 908
3 909 847 908
3 848 847 909
3 910 848 909
3 849 848 910
3 911 849 910
3 850 849 911
3 912 850 911
3 851 850 912
3 913 851 912
3 852 851 913
3 914 852 913
3 853 852 914
3 915 853 914
3 854 853 915
3 916 854 915
3 855 854 916
3 917 855 916
3 856 855 917
3 918 856 917
3 857 856 918
3 839 857 900
3 900 857 918
3 919 920 858
3 858 920 859
3 858 921 919
3 858 861 921
3 861 922 921
3 861 862 922
3 862 923 922
3 862 863 923
3 863 924 923
3 863 864 924
3 864 925 924
3 864 865 925
3 865 926 925
3 865 866 926
3 866 927 926
3 866 867 927
3 867 928 927
3 867 868 928
3 868 929 928
3 868 869 929
3 869 930 929
3 869 870 930
3 870 931 930
3 870 871 931
3 871 932 931
3 871 872 932
3 872 933 932
3 872 873 933
3 873 934 933
3 873 874 934
3 874 935 934
3 874 875 935
3 875 936 935
3 875 876 936
3 876 937 936
3 876 877 937
3 877 878 937
3 937 878 938
3 939 859 920
3 939 940 859
3 878 941 938
3 881 941 878
3 942 940 939
3 942 943 940
3 881 944 941
3 945 944 881
3 946 943 942
3 946 885 943
3 945 947 944
3 886 947 945
3 948 885 946
3 948 949 885
3 886 950 947
3 889 950 886
3 951 949 948
3 951 890 949
3 889 952 950
3 892 952 889
3 953 890 951
3 953 893 890
3 892 954 952
3 895 954 892
3 955 893 953
3 955 956 893
3 895 957 954
3 897 957 895
3 958 956 955
3 958 959 956
3 897 960 957
3 900 960 897
3 958 961 959
3 959 961 901
3 962 901 961
3 902 901 962
3 963 902 962
3 903 902 963
3 964 903 963
3 904 903 964
3 965 904 964
3 905 904 965
3 966 905 965
3 906 905 966
3 967 906 966
3 907 906 967
3 968 907 967
3 908 907 968
3 969 908 968
3 909 908 969
3 970 909 969
3 910 909 970
3 971 910 970
3 911 910 971
3 972 911 971
3 912 911 972
3 973 912 972
3 913 912 973
3 974 913 973
3 914 913 974
3 975 914 974
3 915 914 975
3 976 915 975
3 916 915 976
3 977 916 976
3 917 916 977
3 978 917 977
3 918 917 978
3 900 918 960
3 960 918 978
3 979 980 919
3 919 980 981
3 919 982 979
3 919 921 982
3 921 983 982
3 921 922 983
3 922 984 983
3 922 923 984
3 923 985 984
3 923 924 985
3 924 986 985
3 924 925 986
3 925 987 986
3 925 926 987
3 926 988 987
3 926 927 988
3 927 989 988
3 927 928 989
3 928 990 989
3 928 929 990
3 929 991 990
3 929 930 991
3 930 992 991
3 930 931 992
3 931 993 992
3 931 932 993
3 932 994 993
3 932 933 994
3 933 995 994
3 933 934 995
3 934 996 995
3 934 935 996
3 935 997 996
3 935 936 997
3 936 998 997
3 936 937 998
3 937 938 998
3 998 938 999
3 1000 981 980
3 1000 939 981
3 938 1001 999
3 941 1001 938
3 1002 939 1000
3 1002 942 939
3 941 1003 1001
3 944 1003 941
3 1004 942 1002
3 1004 1005 942
3 944 1006 1003
3 947 1006 944
3 1007 1005 1004
3 1007 948 1005
3 947 1008 1006
3 950 1008 947
3 1009 948 1007
3 1009 1010 948
3 950 1011 1008
3 952 1011 950
3 1012 1010 1009
3 1012 953 1010
3 952 1013 1011
3 954 1013 952
3 1014 953 1012
3 1014 1015 953
3 954 1016 1013
3 957 1016 954
3 1017 1015 1014
3 1017 958 1015
3 957 1018 1016
3 960 1018 957
3 1017 1019 958
3 958 1019 961
3 1020 961 1019
3 962 961 1020
3 1021 962 1020
3 963 962 1021
3 1022 963 1021
3 964 963 1022
3 1023 964 1022
3 965 964 1023
3 1024 965 1023
3 966 965 1024
3 1025 966 1024
3 967 966 1025
3 1026 967 1025
3 968 967 1026
3 1027 968 1026
3 969 968 1027
3 1028 969 1027
3 970 969 1028
3 1029 970 1028
3 971 970 1029
3 1030 971 1029
3 972 971 1030
3 1031 972 1030
3 973 972 1031
3 1032 973 1031
3 974 973 1032
3 1033 974 1032
3 975 974 1033
3 1034 975 1033
3 976 975 1034
3 1035 976 1034
3 977 976 1035
3 1036 977 1035
3 978 977 1036
3 960 978 1018
3 1018 978 1036
3 1037 1038 979
3 979 1038 1039
3 979 1040 1037
3 979 982 1040
3 982 1041 1040
3 982 983 1041
3 983 1042 1041
3 983 984 1042
3 984 1043 1042
3 984 985 1043
3 985 1044 1043
3 985 986 1044
3 986 1045 1044
3 986 987 1045
3 987 1046 1045
3 987 988 1046
3 988 1047 1046
3 988 989 1047
3 989 1048 1047
3 989 990 1048
3 990 1049 1048
3 990 991 1049
3 991 1050 1049
3 991 992 1050
3 992 1051 1050
3 992 993 1051
3 993 1052 1051
3 993 994 1052
3 994 1053 1052
3 994 995 1053
3 995 1054 1053
3 995 996 1054
3 996 1055 1054
3 996 997 1055
3 997 1056 1055
3 997 998 1056
3 998 999 1056
3 1056 999 1057
3 1058 1039 1038
3 1058 1059 1039
3 999 1060 1057
3 1001 1060 999
3 1061 1059 1058
3 1061 1002 1059
3 1001 1062 1060
3 1003 1062 1001
3 1063 1002 1061
3 1063 1064 1002
3 1003 1065 1062
3 1006 1065 1003
3 1066 1064 1063
3 1066 1067 1064
3 1006 1068 1065
3 1008 1068 1006
3 1069 1067 1066
3 1069 1070 1067
3 1008 1071 1068
3 1011 1071 1008
3 1072 1070 1069
3 1072 1012 1070
3 1011 1073 1071
3 1013 1073 1011
3 1074 1012 1072
3 1074 1075 1012
3 1013 1076 1073
3 1016 1076 1013
3 1077 1075 1074
3 1077 1017 1075
3 1016 1078 1076
3 1018 1078 1016
3 1077 1079 1017
3 1017 1079 1019
3 1080 1019 1079
3 1020 1019 1080
3 1081 1020 1080
3 1021 1020 1081
3 1082 1021 1081
3 1022 1021 1082
3 1083 1022 1082
3 1023 1022 1083
3 1084 1023 1083
3 1024 1023 1084
3 1085 1024 1084
3 1025 1024 1085
3 1086 1025 1085
3 1026 1025 1086
3 1087 1026 1086
3 1027 1026 1087
3 1088 1027 1087
3 1028 1027 1088
3 1089 1028 1088
3 1029 1028 1089
3 1090 1029 1089
3 1030 1029 1090
3 1091 1030 1090
3 1031 1030 1091
3 1092 1031 1091
3 1032 1031 1092
3 1093 1032 1092
3 1033 1032 1093
3 1094 1033 1093
3 1034 1033 1094
3 1095 1034 1094
3 1035 1034 1095
3 1096 1035 1095
3 1036 1035 1096
3 1018 1036 1078
3 1078 1036 1096
3 1037 1097 1038
3 1097 1037 1098
3 1098 1037 1040
3 1098 1040 1099
3 1099 1040 1041
3 1099 1041 1100
3 1100 1041 1042
3 1100 1042 1101
3 1101 1042 1043
3 1101 1043 1102
3 1102 1043 1044
3 1102 1044 1103
3 1103 1044 1045
3 1103 1045 1104
3 1104 1045 1046
3 1104 1046 1105
3 1105 1046 1047
3 1105 1047 1106
3 1106 1047 1048
3 1107 1048 1108
3 1108 1048 1049
3 1108 1049 1109
3 1109 1049 1050
3 1109 1050 1110
3 1110 1050 1051
3 1110 1051 1111
3 1111 1051 1052
3 1111 1052 1112
3 1112 1052 1053
3 1112 1053 1113
3 1113 1053 1054
3 1113 1054 1114
3 1114 1054 1055
3 1114 1055 1115
3 1115 1055 1056
3 1056 1057 1115
3 1038 1097 1116
3 1116 1097 1117
3 1098 1117 1097
3 1098 1118 1117
3 1099 1118 1098
3 1099 1119 1118
3 1100 1120 1099
3 1100 1121 1120
3 1101 1121 1100
3 1101 1122 1121
3 1102 1122 1101
3 1102 1123 1122
3 1103 1123 1102
3 1103 1124 1123
3 1104 1124 1103
3 1104 1125 1124
3 1105 1125 1104
3 1105 1126 1125
3 1106 1126 1105
3 1106 1127 1126
3 1108 1127 1107
3 1108 1128 1127
3 1109 1128 1108
3 1109 1129 1128
3 1110 1129 1109
3 1110 1130 1129
3 1111 1131 1110
3 1111 1132 1131
3 1112 1133 1111
3 1112 1134 1133
3 1113 1134 1112
3 1113 1135 1134
3 1114 1135 1113
3 1114 1136 1135
3 1115 1136 1114
3 1115 1137 1136
3 1115 1057 1138
3 1138 1057 1060
3 1116 1117 1061
3 1061 1117 1139
3 1118 1139 1117
3 1118 1140 1139
3 1119 1140 1118
3 1119 1141 1140
3 1121 1141 1120
3 1121 1142 1141
3 1122 1142 1121
3 1122 1143 1142
3 1123 1143 1122
3 1123 1144 1143
3 1124 1144 1123
3 1124 1145 1144
3 1125 1145 1124
3 1125 1146 1145
3 1126 1146 1125
3 1126 1147 1146
3 1127 1147 1126
3 1127 1148 1147
3 1128 1148 1127
3 1128 1149 1148
3 1129 1149 1128
3 1129 1150 1149
3 1130 1150 1129
3 1130 1151 1150
3 1132 1151 1131
3 1132 1152 1151
3 1134 1152 1133
3 1134 1153 1152
3 1135 1153 1134
3 1135 1154 1153
3 1136 1154 1135
3 1136 1155 1154
3 1137 1155 1136
3 1137 1156 1155
3 1138 1060 1156
3 1156 1060 1062
3 1061 1139 1063
3 1063 1139 1157
3 1140 1157 1139
3 1140 1158 1157
3 1141 1158 1140
3 1141 1159 1158
3 1142 1159 1141
3 1142 1160 1159
3 1143 1160 1142
3 1143 1161 1160
3 1144 1161 1143
3 1144 1162 1161
3 1145 1162 1144
3 1145 1163 1162
3 1146 1163 1145
3 1146 1164 1163
3 1147 1164 1146
3 1147 1165 1164
3 1148 1165 1147
3 1148 1166 1165
3 1149 1166 1148
3 1149 1167 1166
3 1150 1167 1149
3 1150 1168 1167
3 1151 1168 1150
3 1151 1169 1168
3 1152 1169 1151
3 1152 1170 1169
3 1153 1170 1152
3 1153 1171 1170
3 1154 1171 1153
3 1154 1172 1171
3 1155 1172 1154
3 1155 1173 1172
3 1156 1173 1155
3 1156 1174 1173
3 1156 1062 1174
3 1174 1062 1065
3 1063 1157 1175
3 1175 1157 1176
3 1158 1176 1157
3 1158 1177 1176
3 1159 1177 1158
3 1159 1178 1177
3 1160 1178 1159
3 1160 1179 1178
3 1161 1179 1160
3 1161 1180 1179
3 1162 1180 1161
3 1162 1181 1180
3 1163 1181 1162
3 1163 1182 1181
3 1164 1182 1163
3 1164 1183 1182
3 1165 1183 1164
3 1165 1184 1183
3 1166 1184 1165
3 1166 1185 1184
3 1167 1185 1166
3 1167 1186 1185
3 1168 1186 1167
3 1168 1187 1186
3 1169 1187 1168
3 1169 1188 1187
3 1170 1188 1169
3 1170 1189 1188
3 1171 1189 1170
3 1171 1190 1189
3 1172 1190 1171
3 1172 1191 1190
3 1173 1191 1172
3 1173 1192 1191
3 1174 1192 1173
3 1174 1193 1192
3 1174 1065 1193
3 1193 1065 1068
3 1175 1176 1194
3 1194 1176 1195
3 1177 1195 1176
3 1177 1196 1195
3 1178 1196 1177
3 1178 1197 1196
3 1179 1197 1178
3 1179 1198 1197
3 1180 1198 1179
3 1180 1199 1198
3 1181 1199 1180
3 1181 1200 1199
3 1182 1200 1181
3 1182 1201 1200
3 1183 1201 1182
3 1183 1202 1201
3 1184 1202 1183
3 1184 1203 1202
3 1185 1203 1184
3 1185 1204 1203
3 1186 1204 1185
3 1186 1205 1204
3 1187 1205 1186
3 1187 1206 1205
3 1188 1206 1187
3 1188 1207 1206
3 1189 1207 1188
3 1189 1208 1207
3 1190 1208 1189
3 1190 1209 1208
3 1191 1209 1190
3 1191 1210 1209
3 1192 1210 1191
3 1192 1211 1210
3 1193 1211 1192
3 1193 1212 1211
3 1193 1068 1212
3 1212 1068 1071
3 1194 1195 1213
3 1213 1195 1214
3 1196 1214 1195
3 1196 1215 1214
3 1197 1215 1196
3 1197 1216 1215
3 1198 1216 1197
3 1198 1217 1216
3 1199 1217 1198
3 1199 1218 1217
3 1200 1218 1199
3 1200 1219 1218
3 1201 1219 1200
3 1201 1220 1219
3 1202 1220 1201
3 1202 1221 1220
3 1203 1221 1202
3 1203 1222 1221
3 1204 1223 1203
3 1204 1224 1223
3 1205 1224 1204
3 1205 1225 1224
3 1206 1225 1205
3 1206 1226 1225
3 1207 1226 1206
3 1207 1227 1226
3 1208 1227 1207
3 1208 1228 1227
3 1209 1228 1208
3 1209 1229 1228
3 1210 1229 1209
3 1210 1230 1229
3 1211 1230 1210
3 1211 1231 1230
3 1212 1231 1211
3 1212 1232 1231
3 1212 1071 1232
3 1232 1071 1073
3 1213 1214 1233
3 1233 1214 1234
3 1215 1234 1214
3 1215 1235 1234
3 1216 1235 1215
3 1216 1236 1235
3 1217 1236 1216
3 1217 1237 1236
3 1218 1237 1217
3 1218 1238 1237
3 1219 1238 1218
3 1219 1239 1238
3 1220 1239 1219
3 1220 1240 1239
3 1221 1241 1220
3 1221 1242 1241
3 1222 1242 1221
3 1222 1243 1242
3 1224 1243 1223
3 1224 1244 1243
3 1225 1244 1224
3 1225 1245 1244
3 1226 1245 1225
3 1226 1246 1245
3 1227 1246 1226
3 1227 1247 1246
3 1228 1247 1227
3 1228 1248 1247
3 1229 1248 1228
3 1229 1249 1248
3 1230 1249 1229
3 1230 1250 1249
3 1231 1250 1230
3 1231 1251 1250
3 1232 1251 1231
3 1232 1252 1251
3 1232 1073 1252
3 1252 1073 1076
3 1233 1234 1253
3 1253 1234 1254
3 1235 1254 1234
3 1235 1255 1254
3 1236 1255 1235
3 1236 1256 1255
3 1237 1256 1236
3 1237 1257 1256
3 1238 1257 1237
3 1238 1258 1257
3 1239 1258 1238
3 1239 1259 1258
3 1240 1259 1239
3 1240 1260 1259
3 1242 1260 1241
3 1242 1261 1260
3 1243 1261 1242
3 1243 1262 1261
3 1244 1262 1243
3 1244 1263 1262
3 1245 1263 1244
3 1245 1264 1263
3 1246 1264 1245
3 1246 1265 1264
3 1247 1265 1246
3 1247 1266 1265
3 1248 1266 1247
3 1248 1267 1266
3 1249 1267 1248
3 1249 1268 1267
3 1250 1268 1249
3 1250 1269 1268
3 1251 1269 1250
3 1251 1270 1269
3 1252 1270 1251
3 1252 1271 1270
3 1252 1076 1271
3 1271 1076 1078
3 1254 1079 1253
3 1255 1080 1254
3 1254 1080 1079
3 1256 1081 1255
3 1255 1081 1080
3 1257 1082 1256
3 1256 1082 1081
3 1258 1083 1257
3 1257 1083 1082
3 1259 1084 1258
3 1258 1084 1083
3 1260 1085 1259
3 1259 1085 1084
3 1261 1086 1260
3 1260 1086 1085
3 1262 1087 1261
3 1261 1087 1086
3 1263 1088 1262
3 1262 1088 1087
3 1264 1089 1263
3 1263 1089 1088
3 1265 1090 1264
3 1264 1090 1089
3 1266 1091 1265
3 1265 1091 1090
3 1267 1092 1266
3 1266 1092 1091
3 1268 1093 1267
3 1267 1093 1092
3 1269 1094 1268
3 1268 1094 1093
3 1270 1095 1269
3 1269 1095 1094
3 1271 1096 1270
3 1270 1096 1095
3 1078 1096 1271
