ply
format ascii 1.0
element vertex 1268
property float x
property float y
property float z
element face 2144
property list uchar int vertex_index
end_header
0.565984 1 1
1 1 0.565984
1 0.56625 1
2 0.566224 1
2 1 0.565957
2 1 0.565957
3 0.566199 1
3 1 0.565933
4 0.566179 1
4 1 0.565912
4 1 0.565912
5 0.566164 1
5 1 0.565897
6 0.566154 1
6 1 0.565887
6 1 0.565887
7 0.56615 1
7 1 0.565883
8 0.56615 1
8 1 0.565883
8 1 0.565883
9 0.566154 1
9 1 0.565887
9 1 0.565887
10 0.566161 1
10 1 0.565893
11 0.566169 1
11 1 0.565902
11 1 0.565902
12 0.566179 1
12 1 0.565911
12 1 0.565911
13 0.566189 1
13 1 0.565921
13 1 0.565921
14 0.566199 1
14 1 0.565932
14 1 0.565932
15 0.566209 1
15 1 0.565942
16 0.566219 1
16 1 0.565951
16 1 0.565951
17 0.566229 1
17 1 0.565961
18 0.566235 1
18 1 0.565967
18.434 1 1
0.531042 2 1
1 2 0.531042
1 2 0.531042
2 2 0.531012
2 2 0.531012
3 2 0.530979
3 2 0.530979
4 2 0.530948
5 2 0.53092
6 2 0.530898
7 2 0.530883
7 2 0.530883
8 2 0.530874
8 2 0.530874
9 2 0.53087
9 2 0.53087
10 2 0.530871
11 2 0.530875
12 2 0.530881
12 2 0.530881
13 2 0.530888
14 2 0.530896
14 2 0.530896
15 2 0.530905
15 2 0.530905
16 2 0.530913
17 2 0.530922
18 2 0.530928
18.4691 2 1
0.491402 3 1
1 3 0.491402
1 3 0.491402
2 3 0.491363
2 3 0.491363
3 3 0.491314
4 3 0.491265
4 3 0.491265
5 3 0.491219
5 3 0.491219
6 3 0.49118
6 3 0.49118
7 3 0.49115
7 3 0.49115
8 3 0.49113
8 3 0.49113
9 3 0.491118
9 3 0.491118
10 3 0.491113
10 3 0.491113
11 3 0.491112
11 3 0.491112
12 3 0.491115
12 3 0.491115
13 3 0.491121
13 3 0.491121
14 3 0.491127
14 3 0.491127
15 3 0.491135
15 3 0.491135
16 3 0.491143
16 3 0.491143
17 3 0.491151
18 3 0.491156
18 3 0.491156
18.5088 3 1
0.445955 4 1
1 4 0.445955
1 4 0.445955
2 4 0.445897
2 4 0.445897
3 4 0.44582
4 4 0.445739
4 4 0.445739
5 4 0.445662
5 4 0.445662
6 4 0.445598
6 4 0.445598
7 4 0.445548
7 4 0.445548
8 4 0.445513
8 4 0.445513
9 4 0.445492
9 4 0.445492
10 4 0.445481
10 4 0.445481
11 4 0.445477
11 4 0.445477
12 4 0.445478
13 4 0.445482
14 4 0.445488
14 4 0.445488
15 4 0.445495
16 4 0.445502
16 4 0.445502
17 4 0.44551
17 4 0.44551
18 4 0.445515
18 4 0.445515
18.5545 4 1
0.39398 5 1
1 5 0.39398
1 5 0.39398
2 5 0.393887
2 5 0.393887
3 5 0.393758
3 5 0.393758
4 5 0.393622
4 5 0.393622
5 5 0.393497
5 5 0.393497
6 5 0.393393
6 5 0.393393
7 5 0.393316
7 5 0.393316
8 5 0.393264
8 5 0.393264
9 5 0.393233
9 5 0.393233
10 5 0.393217
10 5 0.393217
11 5 0.393211
12 5 0.393212
13 5 0.393216
14 5 0.393222
14 5 0.393222
15 5 0.39323
15 5 0.39323
16 5 0.393238
16 5 0.393238
17 5 0.393246
17 5 0.393246
18 5 0.39325
18.6067 5 1
0.647019 6 1
1 6 0.647019
1 6 0.647019
2 6 0.646888
2 6 0.646888
3 6 0.646782
4 6 0.646712
4 6 0.646712
5 6 0.646674
5 6 0.646674
6 6 0.646666
7 6 0.64668
7 6 0.64668
8 6 0.646707
9 6 0.646739
9 6 0.646739
10 6 0.64677
11 6 0.646799
11 6 0.646799
12 6 0.646826
13 6 0.646848
14 6 0.646868
15 6 0.646886
15 6 0.646886
16 6 0.646901
16 6 0.646901
17 6 0.646915
18 6 0.646924
18 6 0.646924
18.3531 6 1
0.640756 7 1
1 7 0.640756
1 7 0.640756
2 7 0.640489
3 7 0.640259
3 7 0.640259
4 7 0.640105
5 7 0.640007
6 7 0.639968
6 7 0.639968
7 7 0.639974
7 7 0.639974
8 7 0.640004
8 7 0.640004
9 7 0.640042
9 7 0.640042
10 7 0.64008
10 7 0.64008
11 7 0.640115
11 7 0.640115
12 7 0.640145
13 7 0.640172
13 7 0.640172
14 7 0.640194
15 7 0.640213
15 7 0.640213
16 7 0.640229
16 7 0.640229
17 7 0.640243
17 7 0.640243
18 7 0.640251
18 7 0.640251
18.3597 7 1
0.597808 8 1
1 8 0.597808
2 8 0.597173
3 8 0.596562
3 8 0.596562
4 8 0.596191
5 8 0.595925
6 8 0.595799
7 8 0.595782
8 8 0.595815
9 8 0.595863
9 8 0.595863
10 8 0.595912
11 8 0.595957
11 8 0.595957
12 8 0.595995
13 8 0.596026
13 8 0.596026
14 8 0.596053
15 8 0.596074
15 8 0.596074
16 8 0.596091
16 8 0.596091
17 8 0.596105
17 8 0.596105
18 8 0.596112
18.4039 8 1
0.512275 9 1
1 9 0.512274
2 9 0.510297
2 9 0.510297
3 9 0.508048
3 9 0.508048
4 9 0.507095
5 9 0.506486
6 9 0.506258
7 9 0.506287
7 9 0.506287
8 9 0.506389
9 9 0.506494
9 9 0.506494
10 9 0.506586
11 9 0.50666
11 9 0.50666
12 9 0.506718
13 9 0.506764
14 9 0.506798
14 9 0.506798
15 9 0.506824
16 9 0.506843
17 9 0.506858
17 9 0.506858
18 9 0.506865
18 9 0.506865
18.4931 9 1
0.32158 10 1
1 10 0.321577
1 10 0.321577
2 10 0.318907
2 10 0.318907
3 10 0.314907
3 10 0.314907
4 10 0.314295
5 10 0.31438
5 10 0.31438
6 10 0.314756
6 10 0.314756
7 10 0.315236
7 10 0.315236
8 10 0.315611
8 10 0.315611
9 10 0.315876
9 10 0.315876
10 10 0.316062
10 10 0.316062
11 10 0.316191
11 10 0.316191
12 10 0.316281
12 10 0.316281
13 10 0.316345
14 10 0.316389
15 10 0.31642
15 10 0.31642
16 10 0.316442
16 10 0.316442
17 10 0.316456
17 10 0.316456
18 10 0.316463
18 10 0.316463
18.6835 10 1
1 10.6784 1
2 10.6811 1
3 10.6851 1
4 10.6857 1
5 10.6856 1
6 10.6852 1
7 10.6848 1
8 10.6844 1
9 10.6841 1
10 10.6839 1
11 10.6838 1
12 10.6837 1
13 10.6837 1
14 10.6836 1
15 10.6836 1
16 10.6836 1
17 10.6835 1
18 10.6835 1
1 0.59205 2
0.591786 1 2
2 0.592023 2
3 0.592 2
4 0.591981 2
5 0.591968 2
6 0.591961 2
7 0.591959 2
8 0.591962 2
9 0.591968 2
10 0.591977 2
11 0.591988 2
12 0.591999 2
13 0.592011 2
14 0.592022 2
15 0.592033 2
16 0.592044 2
17 0.592055 2
18 0.592061 2
18.4082 1 2
0.555863 2 2
0.531042 2 1
18.4442 2 2
0.516046 3 2
0.491402 3 1
18.4842 3 2
0.471208 4 2
18.5292 4 2
0.420672 5 2
18.5799 5 2
0.690903 6 2
18.309 6 2
0.690751 7 2
0.640756 7 1
18.3094 7 2
0.655752 8 2
0.597808 8 1
18.3452 8 2
0.582915 9 2
0.512275 9 1
18.42 9 2
0.437063 10 2
18.5651 10 2
1 10.5629 2
2 10.5644 2
3 10.5657 2
4 10.5663 2
5 10.567 2
6 10.5669 2
7 10.5664 2
8 10.566 2
9 10.5657 2
10 10.5655 2
11 10.5654 2
12 10.5653 2
13 10.5652 2
14 10.5652 2
15 10.5651 2
16 10.5651 2
17 10.5651 2
18 10.5651 2
1 0.61265 3
0.612403 1 3
2 0.612625 3
3 0.612603 3
4 0.612585 3
5 0.612574 3
6 0.612568 3
7 0.612567 3
8 0.612571 3
9 0.612578 3
10 0.612587 3
11 0.612598 3
12 0.61261 3
13 0.612622 3
14 0.612634 3
15 0.612645 3
16 0.612657 3
17 0.612668 3
18 0.612674 3
18.3876 1 3
0.576776 2 3
0.555863 2 2
18.4233 2 3
0.538043 3 3
0.516046 3 2
18.4621 3 3
0.49523 4 3
0.471208 4 2
18.5051 4 3
0.447834 5 3
18.5526 5 3
0.71494 6 3
18.2849 6 3
0.726414 7 3
18.2736 7 3
0.689354 8 3
0.655752 8 2
18.311 8 3
0.450765 9 3
18.5478 9 3
0.460416 10 3
0.437063 10 2
18.5658 10 3
1 10.5396 3
2 10.5508 3
3 10.5484 3
4 10.5482 3
5 10.5583 3
6 10.5655 3
7 10.5665 3
8 10.5663 3
9 10.5662 3
10 10.566 3
11 10.566 3
12 10.566 3
13 10.5659 3
14 10.5659 3
15 10.5659 3
16 10.5658 3
17 10.5658 3
18 10.5658 3
1 0.627215 4
0.626996 1 4
0.612403 1 3
2 0.627191 4
3 0.627171 4
4 0.627155 4
5 0.627144 4
6 0.627137 4
7 0.627136 4
8 0.627139 4
9 0.627145 4
10 0.627154 4
11 0.627164 4
12 0.627175 4
13 0.627186 4
14 0.627197 4
15 0.627208 4
16 0.627219 4
17 0.62723 4
18 0.627236 4
18.373 1 4
0.592862 2 4
18.4072 2 4
0.556228 3 4
18.4439 3 4
0.516339 4 4
18.4839 4 4
0.472222 5 4
0.447834 5 3
18.5281 5 4
0.420348 6 4
18.58 6 4
0.718457 7 4
18.2816 7 4
0.487851 8 4
18.511 8 4
0.520169 9 4
18.4785 9 4
18.5478 9 3
0.546467 10 4
18.4775 10 4
1 10.4534 4
2 10.4634 4
3 10.4587 4
4 10.4578 4
5 10.4619 4
6 10.4676 4
7 10.4735 4
8 10.4745 4
9 10.4772 4
10 10.4778 4
11 10.4778 4
12 10.4777 4
13 10.4776 4
14 10.4776 4
15 10.4776 4
16 10.4776 4
17 10.4775 4
18 10.4775 4
1 0.635885 5
0.635691 1 5
2 0.635865 5
3 0.635846 5
4 0.635831 5
5 0.63582 5
6 0.635813 5
7 0.635811 5
8 0.635812 5
9 0.635816 5
10 0.635822 5
11 0.63583 5
12 0.635839 5
13 0.635849 5
14 0.635858 5
15 0.635868 5
16 0.635878 5
17 0.635888 5
18 0.635894 5
18.3643 1 5
0.60374 2 5
0.592862 2 4
18.3963 2 5
0.562991 3 5
18.4371 3 5
0.527844 4 5
18.4723 4 5
0.483736 5 5
0.472222 5 4
18.5164 5 5
0.30097 6 5
0.420348 6 4
18.6987 6 5
0.292498 7 5
18.707 7 5
0.516085 8 5
18.4831 8 5
0.568586 9 5
0.520169 9 4
18.4306 9 5
0.603696 10 5
0.546467 10 4
18.4174 10 5
1 10.3961 5
2 10.4051 5
3 10.4021 5
4 10.403 5
5 10.4009 5
6 10.4013 5
7 10.4066 5
8 10.4103 5
9 10.4139 5
10 10.4121 5
11 10.4164 5
12 10.4177 5
13 10.4175 5
14 10.4174 5
15 10.4174 5
16 10.4174 5
17 10.4174 5
18 10.4174 5
1 0.63215 6
0.631846 1 6
0.635691 1 5
2 0.632133 6
3 0.632118 6
4 0.632104 6
5 0.632094 6
6 0.632088 6
7 0.632085 6
8 0.632084 6
9 0.632087 6
10 0.632091 6
11 0.632098 6
12 0.632105 6
13 0.632112 6
14 0.63212 6
15 0.632129 6
16 0.632137 6
17 0.632146 6
18 0.632151 6
18.3682 1 6
0.596738 2 6
0.60374 2 5
18.4033 2 6
0.368404 3 6
18.6314 3 6
0.359208 4 6
18.6406 4 6
0.351845 5 6
0.483736 5 5
18.6479 5 6
0.345789 6 6
18.6539 6 6
0.342439 7 6
18.6571 7 6
0.342919 8 6
0.516085 8 5
18.6564 8 6
0.584344 9 6
0.568586 9 5
18.4154 9 6
0.635267 10 6
18.3821 10 6
1 10.3638 6
2 10.3725 6
3 10.371 6
4 10.3736 6
5 10.3692 6
6 10.3681 6
7 10.3713 6
8 10.3738 6
9 10.3734 6
10 10.3724 6
11 10.376 6
12 10.3788 6
13 10.3805 6
14 10.3809 6
15 10.3814 6
16 10.3816 6
17 10.3816 6
18 10.3816 6
1 0.419127 7
0.419088 1 7
0.631846 1 6
2 0.419122 7
3 0.41912 7
4 0.419123 7
5 0.419128 7
6 0.419137 7
7 0.419148 7
8 0.41916 7
9 0.419174 7
10 0.419187 7
11 0.419201 7
12 0.419213 7
13 0.419225 7
14 0.419235 7
15 0.419244 7
16 0.419252 7
17 0.41926 7
18 0.419263 7
18.5808 1 7
0.407382 2 7
0.596738 2 6
18.5925 2 7
0.398232 3 7
18.6016 3 7
0.391631 4 7
0.359208 4 6
18.6082 4 7
0.387316 5 7
0.351845 5 6
18.6125 5 7
0.385338 6 7
18.6144 6 7
0.38595 7 7
18.6137 7 7
0.389695 8 7
0.342919 8 6
18.6098 8 7
0.396714 9 7
18.6032 9 7
1 10 6.63014
1 9.73867 7
2 9.74185 7
2 10 6.63946
2 10 6.63946
3 9.74128 7
3 10 6.63791
4 9.74223 7
4 10 6.64068
5 9.74065 7
5 10 6.63599
5 10 6.63599
6 9.74019 7
6 10 6.6347
7 9.74135 7
7 10 6.63809
8 9.7423 7
8 10 6.6408
9 9.74219 7
9 10 6.64036
10 9.74183 7
10 10 6.63933
11 9.74315 7
11 10 6.6431
11 10 6.6431
12 9.74424 7
12 10 6.64613
13 9.74496 7
13 10 6.64805
14 9.7451 7
14 10 6.64843
15 9.74532 7
15 10 6.64903
16 9.74537 7
16 10 6.6492
17 9.74535 7
17 10 6.64917
18 9.74534 7
18 10 6.64915
1 0.440794 8
0.440767 1 8
0.419088 1 7
2 0.440789 8
3 0.440788 8
4 0.44079 8
5 0.440795 8
6 0.440802 8
7 0.440811 8
8 0.440822 8
9 0.440834 8
10 0.440846 8
11 0.440858 8
12 0.440869 8
13 0.440879 8
14 0.440889 8
15 0.440897 8
16 0.440904 8
17 0.440911 8
18 0.440914 8
18.5591 1 8
0.430947 2 8
0.407382 2 7
18.5689 2 8
0.424168 3 8
0.398232 3 7
18.5757 3 8
0.419989 4 8
0.391631 4 7
18.5799 4 8
0.418329 5 8
0.387316 5 7
18.5815 5 8
0.41919 6 8
0.385338 6 7
18.5806 6 8
0.42268 7 8
18.5771 7 8
0.42904 8 8
0.389695 8 7
18.5707 8 8
0.437509 9 8
0.396714 9 7
18.5625 9 8
1 9.57404 8
2 9.57433 8
3 9.57426 8
4 9.57439 8
5 9.57431 8
6 9.57415 8
7 9.57417 8
8 9.57437 8
9 9.57445 8
10 9.5744 8
11 9.57448 8
12 9.57462 8
13 9.57474 8
14 9.57482 8
15 9.57485 8
16 9.57486 8
17 9.57485 8
18 9.57483 8
1 0.458614 9
0.458597 1 9
0.440767 1 8
2 0.45861 9
3 0.458609 9
4 0.458611 9
5 0.458615 9
6 0.458621 9
7 0.458629 9
8 0.458638 9
9 0.458648 9
10 0.458658 9
11 0.458668 9
12 0.458678 9
13 0.458687 9
14 0.458695 9
15 0.458703 9
16 0.458709 9
17 0.458714 9
18 0.458718 9
18.5413 1 9
0.450758 2 9
0.430947 2 8
18.5491 2 9
0.446078 3 9
0.424168 3 8
18.5538 3 9
0.444113 4 9
0.419989 4 8
18.5558 4 9
0.444747 5 9
0.418329 5 8
18.5551 5 9
0.447914 6 9
0.41919 6 8
18.5519 6 9
0.453557 7 9
0.42268 7 8
18.5463 7 9
0.461656 8 9
18.5382 8 9
0.471256 9 9
18.5288 9 9
1 9.52916 9
2 9.52913 9
3 9.52919 9
4 9.52924 9
5 9.52924 9
6 9.5291 9
7 9.52914 9
8 9.52927 9
9 9.52931 9
10 9.52925 9
11 9.52917 9
12 9.52913 9
13 9.5292 9
14 9.52926 9
15 9.5293 9
16 9.5293 9
17 9.52929 9
18 9.52928 9
1 0.472677 10
0.472668 1 10
2 0.472673 10
3 0.472672 10
4 0.472674 10
5 0.472677 10
6 0.472683 10
7 0.472689 10
8 0.472696 10
9 0.472705 10
10 0.472713 10
11 0.472722 10
12 0.472731 10
13 0.472738 10
14 0.472745 10
15 0.472751 10
16 0.472756 10
17 0.472761 10
18 0.472764 10
18.5272 1 10
0.466837 2 10
18.5331 2 10
0.464192 3 10
0.446078 3 9
18.5357 3 10
0.4643 4 10
18.5356 4 10
0.467007 5 10
0.444747 5 9
18.5329 5 10
0.472151 6 10
0.447914 6 9
18.5277 6 10
0.479533 7 10
0.453557 7 9
18.5204 7 10
0.48896 8 10
18.511 8 10
0.499384 9 10
18.5008 9 10
1 9.5006 10
2 9.50055 10
3 9.50066 10
4 9.50068 10
5 9.50065 10
6 9.50064 10
7 9.50071 10
8 9.50076 10
9 9.5007 10
10 9.50058 10
11 9.50058 10
12 9.50058 10
13 9.50065 10
14 9.5007 10
15 9.50075 10
16 9.50076 10
17 9.50077 10
18 9.50076 10
1 0.483298 11
0.483294 1 11
0.472668 1 10
2 0.483293 11
3 0.483292 11
4 0.483294 11
5 0.483298 11
6 0.483304 11
7 0.483308 11
8 0.483314 11
9 0.483321 11
10 0.483329 11
11 0.483336 11
12 0.483343 11
13 0.48335 11
14 0.483355 11
15 0.48336 11
16 0.483364 11
17 0.483368 11
18 0.483371 11
18.5166 1 11
0.479479 2 11
18.5204 2 11
0.478836 3 11
0.464192 3 10
18.5211 3 11
0.480936 4 11
0.4643 4 10
18.519 4 11
0.485576 5 11
18.5143 5 11
0.492512 6 11
18.5074 6 11
0.501445 7 11
0.479533 7 10
18.4985 7 11
0.51205 8 11
0.48896 8 10
18.4879 8 11
0.523252 9 11
0.499384 9 10
18.477 9 11
1 9.47672 11
2 9.4767 11
3 9.47689 11
4 9.47689 11
5 9.47685 11
6 9.47686 11
7 9.47691 11
8 9.47687 11
9 9.47675 11
10 9.47673 11
11 9.4768 11
12 9.47683 11
13 9.47684 11
14 9.47686 11
15 9.47689 11
16 9.47693 11
17 9.47695 11
18 9.47695 11
1 0.490484 12
0.490483 1 12
0.483294 1 11
2 0.49047 12
3 0.490467 12
4 0.49047 12
5 0.490474 12
6 0.490484 12
7 0.490484 12
8 0.490488 12
9 0.490494 12
10 0.490499 12
11 0.490506 12
12 0.490511 12
13 0.490518 12
14 0.490521 12
15 0.490523 12
16 0.490527 12
17 0.49053 12
18 0.490532 12
18.5095 1 12
0.488662 2 12
0.479479 2 11
18.5113 2 12
0.489998 3 12
18.5099 3 12
0.494045 4 12
0.480936 4 11
18.5059 4 12
0.500561 5 12
0.485576 5 11
18.4994 5 12
0.50924 6 12
0.492512 6 11
18.4907 6 12
0.5197 7 12
0.501445 7 11
18.4802 7 12
0.531517 8 12
18.4684 8 12
0.543633 9 12
0.523252 9 11
18.4566 9 12
1 9.45633 12
2 9.45639 12
3 9.45648 12
4 9.4565 12
5 9.45645 12
6 9.45647 12
7 9.45644 12
8 9.4564 12
9 9.4564 12
10 9.45644 12
11 9.45645 12
12 9.45644 12
13 9.45642 12
14 9.45645 12
15 9.45651 12
16 9.45655 12
17 9.45656 12
18 9.45656 12
1 0.495919 13
0.495919 1 13
0.490483 1 12
2 0.495883 13
3 0.495898 13
4 0.4959 13
5 0.495906 13
6 0.495931 13
7 0.495914 13
8 0.495927 13
9 0.495928 13
10 0.495934 13
11 0.495953 13
12 0.49595 13
13 0.495955 13
14 0.495958 13
15 0.495962 13
16 0.495967 13
17 0.495971 13
18 0.495973 13
18.504 1 13
0.495694 2 13
0.488662 2 12
18.5044 2 13
0.498493 3 13
0.489998 3 12
18.5017 3 13
0.503985 4 13
0.494045 4 12
18.4963 4 13
0.51188 5 13
18.4885 5 13
0.521807 6 13
0.50924 6 12
18.4787 6 13
0.533281 7 13
0.5197 7 12
18.4672 7 13
0.545658 8 13
0.531517 8 12
18.4546 8 13
0.558147 9 13
18.4422 9 13
1 9.44182 13
2 9.44177 13
3 9.44092 13
4 9.44143 13
5 9.44189 13
6 9.44196 13
7 9.44172 13
8 9.4419 13
9 9.442 13
10 9.44182 13
11 9.44191 13
12 9.44162 13
13 9.44185 13
14 9.44156 13
15 9.44184 13
16 9.44207 13
17 9.4421 13
18 9.44212 13
1 1 13.5041
2 1 13.5041
3 1 13.5041
4 1 13.5041
5 1 13.5041
6 1 13.5041
7 1 13.5041
8 1 13.5041
9 1 13.5041
10 1 13.5041
11 1 13.504
12 1 13.504
13 1 13.504
14 1 13.504
15 1 13.504
15 1 13.504
16 1 13.504
17 1 13.504
18 1 13.504
0.495694 2 13
1 2 13.5043
2 2 13.5044
3 2 13.5044
4 2 13.5044
5 2 13.5044
6 2 13.5043
7 2 13.5044
8 2 13.5044
9 2 13.5044
10 2 13.5044
11 2 13.5044
12 2 13.5044
13 2 13.5044
14 2 13.5044
15 2 13.5044
16 2 13.5044
17 2 13.5044
18 2 13.5044
1 3 13.5015
2 3 13.5017
3 3 13.5017
4 3 13.5016
5 3 13.5017
6 3 13.5016
7 3 13.5016
8 3 13.5017
9 3 13.5016
10 3 13.5017
11 3 13.5017
12 3 13.5017
13 3 13.5016
14 3 13.5016
15 3 13.5017
16 3 13.5017
17 3 13.5017
18 3 13.5017
1 4 13.496
2 4 13.4963
3 4 13.4963
4 4 13.4962
5 4 13.4963
6 4 13.4961
7 4 13.4962
8 4 13.4963
9 4 13.4962
10 4 13.4962
11 4 13.4963
12 4 13.4963
13 4 13.4962
14 4 13.4962
15 4 13.4963
16 4 13.4963
17 4 13.4963
18 4 13.4963
0.51188 5 13
1 5 13.4881
2 5 13.4884
3 5 13.4886
4 5 13.4883
5 5 13.4885
6 5 13.4882
7 5 13.4884
8 5 13.4885
9 5 13.4885
10 5 13.4884
11 5 13.4884
12 5 13.4885
13 5 13.4884
14 5 13.4884
15 5 13.4885
16 5 13.4885
17 5 13.4885
18 5 13.4885
0.521807 6 13
1 6 13.4782
2 6 13.4785
3 6 13.4787
4 6 13.4784
5 6 13.4786
6 6 13.4784
7 6 13.4786
8 6 13.4787
9 6 13.4787
10 6 13.4787
11 6 13.4784
12 6 13.4785
13 6 13.4785
14 6 13.4786
15 6 13.4786
16 6 13.4786
17 6 13.4786
18 6 13.4787
1 7 13.4667
2 7 13.467
2 7 13.467
3 7 13.4671
4 7 13.4666
5 7 13.4669
6 7 13.4671
7 7 13.4671
8 7 13.4672
9 7 13.4672
10 7 13.4672
11 7 13.4669
12 7 13.4669
12 7 13.4669
13 7 13.467
14 7 13.467
15 7 13.4671
16 7 13.4671
17 7 13.4671
18 7 13.4672
1 8 13.4543
2 8 13.4544
3 8 13.4541
4 8 13.4538
5 8 13.4543
6 8 13.4545
7 8 13.4544
8 8 13.4545
9 8 13.4546
9 8 13.4546
10 8 13.4545
11 8 13.4543
12 8 13.4544
13 8 13.4543
14 8 13.4542
15 8 13.4545
16 8 13.4545
17 8 13.4545
18 8 13.4546
1 9 13.4418
2 9 13.4418
2 9 13.4418
3 9 13.4409
4 9 13.4414
5 9 13.4419
6 9 13.4419
7 9 13.4417
8 9 13.4419
9 9 13.442
10 9 13.4418
11 9 13.4419
12 9 13.4416
13 9 13.4418
14 9 13.4415
15 9 13.4418
16 9 13.4421
17 9 13.4421
18 9 13.4421
3 0 1 2
3 2 1 3
3 3 1 4
3 3 5 6
3 6 5 7
3 6 7 8
3 8 7 9
3 8 10 11
3 11 10 12
3 11 12 13
3 13 12 14
3 13 15 16
3 16 15 17
3 16 17 18
3 18 17 19
3 18 20 21
3 21 20 22
3 21 23 24
3 24 23 25
3 24 25 26
3 26 25 27
3 26 28 29
3 29 28 30
3 29 31 32
3 32 31 33
3 32 34 35
3 35 34 36
3 35 37 38
3 38 37 39
3 38 39 40
3 40 39 41
3 40 42 43
3 43 42 44
3 43 44 45
3 45 44 46
3 46 47 45
3 48 49 0
3 0 49 1
3 50 4 1
3 51 4 50
3 52 7 5
3 53 7 52
3 54 9 7
3 55 9 54
3 55 12 10
3 56 12 55
3 56 14 12
3 57 14 56
3 57 17 15
3 58 17 57
3 59 19 17
3 60 19 59
3 61 22 20
3 62 22 61
3 63 25 23
3 64 25 63
3 64 27 25
3 65 27 64
3 65 30 28
3 66 30 65
3 67 33 31
3 68 33 67
3 68 36 34
3 69 36 68
3 70 39 37
3 71 39 70
3 72 41 39
3 73 41 72
3 73 44 42
3 74 44 73
3 74 46 44
3 75 46 74
3 75 76 46
3 46 76 47
3 77 78 48
3 48 78 49
3 79 51 50
3 80 51 79
3 81 53 52
3 82 53 81
3 82 55 54
3 83 55 82
3 84 56 55
3 85 56 84
3 86 57 56
3 87 57 86
3 88 58 57
3 89 58 88
3 90 60 59
3 91 60 90
3 92 62 61
3 93 62 92
3 94 64 63
3 95 64 94
3 96 65 64
3 97 65 96
3 98 66 65
3 99 66 98
3 100 68 67
3 101 68 100
3 102 69 68
3 103 69 102
3 104 71 70
3 105 71 104
3 106 73 72
3 107 73 106
3 108 74 73
3 109 74 108
3 109 75 74
3 110 75 109
3 111 112 75
3 75 112 76
3 113 114 77
3 77 114 78
3 115 80 79
3 116 80 115
3 117 82 81
3 118 82 117
3 118 83 82
3 119 83 118
3 120 85 84
3 121 85 120
3 122 87 86
3 123 87 122
3 124 89 88
3 125 89 124
3 126 91 90
3 127 91 126
3 128 93 92
3 129 93 128
3 130 95 94
3 131 95 130
3 132 97 96
3 133 97 132
3 134 99 98
3 135 99 134
3 135 101 100
3 136 101 135
3 136 103 102
3 137 103 136
3 138 105 104
3 139 105 138
3 139 107 106
3 140 107 139
3 141 109 108
3 142 109 141
3 143 110 109
3 144 110 143
3 145 146 111
3 111 146 112
3 147 148 113
3 113 148 114
3 149 116 115
3 150 116 149
3 151 118 117
3 152 118 151
3 153 119 118
3 154 119 153
3 155 121 120
3 156 121 155
3 157 123 122
3 158 123 157
3 159 125 124
3 160 125 159
3 161 127 126
3 162 127 161
3 163 129 128
3 164 129 163
3 165 131 130
3 166 131 165
3 167 133 132
3 168 133 167
3 168 135 134
3 169 135 168
3 169 136 135
3 170 136 169
3 170 137 136
3 171 137 170
3 172 139 138
3 173 139 172
3 174 140 139
3 175 140 174
3 176 142 141
3 177 142 176
3 178 144 143
3 179 144 178
3 179 180 145
3 145 180 146
3 181 182 147
3 147 182 148
3 183 150 149
3 184 150 183
3 185 152 151
3 186 152 185
3 186 154 153
3 187 154 186
3 188 156 155
3 189 156 188
3 190 158 157
3 191 158 190
3 191 160 159
3 192 160 191
3 193 162 161
3 194 162 193
3 194 164 163
3 195 164 194
3 196 166 165
3 197 166 196
3 197 168 167
3 198 168 197
3 199 169 168
3 200 169 199
3 200 170 169
3 201 170 200
3 201 171 170
3 202 171 201
3 202 173 172
3 203 173 202
3 204 175 174
3 205 175 204
3 206 177 176
3 207 177 206
3 207 179 178
3 208 179 207
3 209 210 179
3 179 210 180
3 211 212 181
3 181 212 182
3 213 184 183
3 214 184 213
3 214 186 185
3 215 186 214
3 216 187 186
3 217 187 216
3 217 189 188
3 218 189 217
3 218 191 190
3 219 191 218
3 220 192 191
3 221 192 220
3 222 194 193
3 223 194 222
3 224 195 194
3 225 195 224
3 226 197 196
3 227 197 226
3 228 198 197
3 229 198 228
3 230 200 199
3 231 200 230
3 231 201 200
3 232 201 231
3 233 202 201
3 234 202 233
3 234 203 202
3 235 203 234
3 236 205 204
3 237 205 236
3 238 207 206
3 239 207 238
3 240 208 207
3 241 208 240
3 242 243 209
3 209 243 210
3 244 245 211
3 211 245 212
3 245 214 213
3 246 214 245
3 246 215 214
3 247 215 246
3 248 217 216
3 249 217 248
3 249 218 217
3 250 218 249
3 250 219 218
3 251 219 250
3 251 221 220
3 252 221 251
3 252 223 222
3 253 223 252
3 253 225 224
3 254 225 253
3 255 227 226
3 256 227 255
3 256 229 228
3 257 229 256
3 258 231 230
3 259 231 258
3 259 232 231
3 260 232 259
3 261 234 233
3 262 234 261
3 262 235 234
3 263 235 262
3 264 237 236
3 265 237 264
3 266 239 238
3 267 239 266
3 268 241 240
3 269 241 268
3 269 270 242
3 242 270 243
3 271 272 244
3 244 272 245
3 272 246 245
3 273 246 272
3 274 247 246
3 275 247 274
3 276 249 248
3 277 249 276
3 277 250 249
3 278 250 277
3 278 251 250
3 279 251 278
3 279 252 251
3 280 252 279
3 281 253 252
3 282 253 281
3 282 254 253
3 283 254 282
3 284 256 255
3 285 256 284
3 285 257 256
3 286 257 285
3 287 259 258
3 288 259 287
3 288 260 259
3 289 260 288
3 289 262 261
3 290 262 289
3 291 263 262
3 292 263 291
3 292 265 264
3 293 265 292
3 293 267 266
3 294 267 293
3 295 269 268
3 296 269 295
3 297 298 269
3 269 298 270
3 299 300 271
3 271 300 272
3 301 273 272
3 302 273 301
3 303 275 274
3 304 275 303
3 305 277 276
3 306 277 305
3 306 278 277
3 307 278 306
3 308 279 278
3 309 279 308
3 310 280 279
3 311 280 310
3 312 282 281
3 313 282 312
3 314 283 282
3 315 283 314
3 316 285 284
3 317 285 316
3 318 286 285
3 319 286 318
3 320 288 287
3 321 288 320
3 322 289 288
3 323 289 322
3 323 290 289
3 324 290 323
3 324 292 291
3 325 292 324
3 326 293 292
3 327 293 326
3 328 294 293
3 329 294 328
3 330 296 295
3 331 296 330
3 332 333 297
3 297 333 298
3 334 300 299
3 335 302 334
3 334 302 301
3 336 304 335
3 335 304 303
3 337 306 336
3 336 306 305
3 338 307 337
3 337 307 306
3 339 309 338
3 338 309 308
3 340 311 339
3 339 311 310
3 341 313 340
3 340 313 312
3 342 315 341
3 341 315 314
3 343 317 342
3 342 317 316
3 344 319 343
3 343 319 318
3 345 321 344
3 344 321 320
3 346 323 345
3 345 323 322
3 347 324 346
3 346 324 323
3 348 325 347
3 347 325 324
3 349 327 348
3 348 327 326
3 350 329 349
3 349 329 328
3 351 331 350
3 350 331 330
3 351 333 332
3 352 353 2
3 2 353 0
3 2 354 352
3 2 3 354
3 3 355 354
3 3 6 355
3 6 356 355
3 6 8 356
3 8 357 356
3 8 11 357
3 11 358 357
3 11 13 358
3 13 359 358
3 13 16 359
3 16 360 359
3 16 18 360
3 18 361 360
3 18 21 361
3 21 362 361
3 21 24 362
3 24 363 362
3 24 26 363
3 26 364 363
3 26 29 364
3 29 365 364
3 29 32 365
3 32 366 365
3 32 35 366
3 35 367 366
3 35 38 367
3 38 368 367
3 38 40 368
3 40 369 368
3 40 43 369
3 43 370 369
3 43 45 370
3 45 47 370
3 370 47 371
3 372 0 353
3 372 373 0
3 47 374 371
3 76 374 47
3 375 373 372
3 375 376 373
3 76 377 374
3 112 377 76
3 378 376 375
3 378 113 376
3 112 379 377
3 146 379 112
3 380 113 378
3 380 147 113
3 146 381 379
3 180 381 146
3 382 147 380
3 382 181 147
3 180 383 381
3 210 383 180
3 384 181 382
3 384 385 181
3 210 386 383
3 243 386 210
3 387 385 384
3 387 388 385
3 243 389 386
3 270 389 243
3 390 388 387
3 390 391 388
3 270 392 389
3 298 392 270
3 393 391 390
3 393 299 391
3 298 394 392
3 333 394 298
3 393 395 299
3 299 395 334
3 396 334 395
3 335 334 396
3 397 335 396
3 336 335 397
3 398 336 397
3 337 336 398
3 399 337 398
3 338 337 399
3 400 338 399
3 339 338 400
3 401 339 400
3 340 339 401
3 402 340 401
3 341 340 402
3 403 341 402
3 342 341 403
3 404 342 403
3 343 342 404
3 405 343 404
3 344 343 405
3 406 344 405
3 345 344 406
3 407 345 406
3 346 345 407
3 408 346 407
3 347 346 408
3 409 347 408
3 348 347 409
3 410 348 409
3 349 348 410
3 411 349 410
3 350 349 411
3 412 350 411
3 351 350 412
3 333 351 394
3 394 351 412
3 413 414 352
3 352 414 353
3 352 415 413
3 352 354 415
3 354 416 415
3 354 355 416
3 355 417 416
3 355 356 417
3 356 418 417
3 356 357 418
3 357 419 418
3 357 358 419
3 358 420 419
3 358 359 420
3 359 421 420
3 359 360 421
3 360 422 421
3 360 361 422
3 361 423 422
3 361 362 423
3 362 424 423
3 362 363 424
3 363 425 424
3 363 364 425
3 364 426 425
3 364 365 426
3 365 427 426
3 365 366 427
3 366 428 427
3 366 367 428
3 367 429 428
3 367 368 429
3 368 430 429
3 368 369 430
3 369 431 430
3 369 370 431
3 370 371 431
3 431 371 432
3 433 353 414
3 433 434 353
3 371 435 432
3 374 435 371
3 436 434 433
3 436 437 434
3 374 438 435
3 377 438 374
3 439 437 436
3 439 440 437
3 377 441 438
3 379 441 377
3 442 440 439
3 442 380 440
3 379 443 441
3 381 443 379
3 444 380 442
3 444 382 380
3 381 445 443
3 383 445 381
3 446 382 444
3 446 384 382
3 383 447 445
3 386 447 383
3 448 384 446
3 448 449 384
3 386 450 447
3 389 450 386
3 451 449 448
3 451 390 449
3 389 452 450
3 392 452 389
3 453 390 451
3 453 454 390
3 392 455 452
3 394 455 392
3 453 456 454
3 454 456 395
3 457 395 456
3 396 395 457
3 458 396 457
3 397 396 458
3 459 397 458
3 398 397 459
3 460 398 459
3 399 398 460
3 461 399 460
3 400 399 461
3 462 400 461
3 401 400 462
3 463 401 462
3 402 401 463
3 464 402 463
3 403 402 464
3 465 403 464
3 404 403 465
3 466 404 465
3 405 404 466
3 467 405 466
3 406 405 467
3 468 406 467
3 407 406 468
3 469 407 468
3 408 407 469
3 470 408 469
3 409 408 470
3 471 409 470
3 410 409 471
3 472 410 471
3 411 410 472
3 473 411 472
3 412 411 473
3 394 412 455
3 455 412 473
3 474 475 413
3 413 475 476
3 413 477 474
3 413 415 477
3 415 478 477
3 415 416 478
3 416 479 478
3 416 417 479
3 417 480 479
3 417 418 480
3 418 481 480
3 418 419 481
3 419 482 481
3 419 420 482
3 420 483 482
3 420 421 483
3 421 484 483
3 421 422 484
3 422 485 484
3 422 423 485
3 423 486 485
3 423 424 486
3 424 487 486
3 424 425 487
3 425 488 487
3 425 426 488
3 426 489 488
3 426 427 489
3 427 490 489
3 427 428 490
3 428 491 490
3 428 429 491
3 429 492 491
3 429 430 492
3 430 493 492
3 430 431 493
3 431 432 493
3 493 432 494
3 495 476 475
3 495 433 476
3 432 496 494
3 435 496 432
3 497 433 495
3 497 436 433
3 435 498 496
3 438 498 435
3 499 436 497
3 499 439 436
3 438 500 498
3 441 500 438
3 501 439 499
3 501 502 439
3 441 503 500
3 443 503 441
3 504 502 501
3 504 444 502
3 443 505 503
3 445 505 443
3 506 444 504
3 506 446 444
3 445 507 505
3 447 507 445
3 508 446 506
3 508 448 446
3 447 509 507
3 450 509 447
3 510 448 508
3 510 451 448
3 450 511 509
3 512 511 450
3 513 451 510
3 513 453 451
3 512 514 511
3 455 514 512
3 513 515 453
3 453 515 456
3 516 456 515
3 457 456 516
3 517 457 516
3 458 457 517
3 518 458 517
3 459 458 518
3 519 459 518
3 460 459 519
3 520 460 519
3 461 460 520
3 521 461 520
3 462 461 521
3 522 462 521
3 463 462 522
3 523 463 522
3 464 463 523
3 524 464 523
3 465 464 524
3 525 465 524
3 466 465 525
3 526 466 525
3 467 466 526
3 527 467 526
3 468 467 527
3 528 468 527
3 469 468 528
3 529 469 528
3 470 469 529
3 530 470 529
3 471 470 530
3 531 471 530
3 472 471 531
3 532 472 531
3 473 472 532
3 455 473 514
3 514 473 532
3 533 534 474
3 474 534 475
3 474 535 533
3 474 477 535
3 477 536 535
3 477 478 536
3 478 537 536
3 478 479 537
3 479 538 537
3 479 480 538
3 480 539 538
3 480 481 539
3 481 540 539
3 481 482 540
3 482 541 540
3 482 483 541
3 483 542 541
3 483 484 542
3 484 543 542
3 484 485 543
3 485 544 543
3 485 486 544
3 486 545 544
3 486 487 545
3 487 546 545
3 487 488 546
3 488 547 546
3 488 489 547
3 489 548 547
3 489 490 548
3 490 549 548
3 490 491 549
3 491 550 549
3 491 492 550
3 492 551 550
3 492 493 551
3 493 494 551
3 551 494 552
3 553 475 534
3 553 554 475
3 494 555 552
3 496 555 494
3 556 554 553
3 556 497 554
3 496 557 555
3 498 557 496
3 558 497 556
3 558 499 497
3 498 559 557
3 500 559 498
3 560 499 558
3 560 561 499
3 500 562 559
3 503 562 500
3 563 561 560
3 563 564 561
3 503 565 562
3 505 565 503
3 566 564 563
3 566 506 564
3 505 567 565
3 507 567 505
3 568 506 566
3 568 508 506
3 507 569 567
3 509 569 507
3 570 508 568
3 570 571 508
3 509 572 569
3 511 572 509
3 573 571 570
3 573 574 571
3 511 575 572
3 514 575 511
3 573 576 574
3 574 576 515
3 577 515 576
3 516 515 577
3 578 516 577
3 517 516 578
3 579 517 578
3 518 517 579
3 580 518 579
3 519 518 580
3 581 519 580
3 520 519 581
3 582 520 581
3 521 520 582
3 583 521 582
3 522 521 583
3 584 522 583
3 523 522 584
3 585 523 584
3 524 523 585
3 586 524 585
3 525 524 586
3 587 525 586
3 526 525 587
3 588 526 587
3 527 526 588
3 589 527 588
3 528 527 589
3 590 528 589
3 529 528 590
3 591 529 590
3 530 529 591
3 592 530 591
3 531 530 592
3 593 531 592
3 532 531 593
3 514 532 575
3 575 532 593
3 594 595 533
3 533 595 596
3 533 597 594
3 533 535 597
3 535 598 597
3 535 536 598
3 536 599 598
3 536 537 599
3 537 600 599
3 537 538 600
3 538 601 600
3 538 539 601
3 539 602 601
3 539 540 602
3 540 603 602
3 540 541 603
3 541 604 603
3 541 542 604
3 542 605 604
3 542 543 605
3 543 606 605
3 543 544 606
3 544 607 606
3 544 545 607
3 545 608 607
3 545 546 608
3 546 609 608
3 546 547 609
3 547 610 609
3 547 548 610
3 548 611 610
3 548 549 611
3 549 612 611
3 549 550 612
3 550 613 612
3 550 551 613
3 551 552 613
3 613 552 614
3 615 596 595
3 615 616 596
3 552 617 614
3 555 617 552
3 618 616 615
3 618 556 616
3 555 619 617
3 557 619 555
3 620 556 618
3 620 558 556
3 557 621 619
3 559 621 557
3 622 558 620
3 622 623 558
3 559 624 621
3 562 624 559
3 625 623 622
3 625 563 623
3 562 626 624
3 565 626 562
3 627 563 625
3 627 566 563
3 565 628 626
3 567 628 565
3 629 566 627
3 629 630 566
3 567 631 628
3 569 631 567
3 632 630 629
3 632 633 630
3 569 634 631
3 572 634 569
3 635 633 632
3 635 573 633
3 572 636 634
3 575 636 572
3 635 637 573
3 573 637 576
3 638 576 637
3 577 576 638
3 639 577 638
3 578 577 639
3 640 578 639
3 579 578 640
3 641 579 640
3 580 579 641
3 642 580 641
3 581 580 642
3 643 581 642
3 582 581 643
3 644 582 643
3 583 582 644
3 645 583 644
3 584 583 645
3 646 584 645
3 585 584 646
3 647 585 646
3 586 585 647
3 648 586 647
3 587 586 648
3 649 587 648
3 588 587 649
3 650 588 649
3 589 588 650
3 651 589 650
3 590 589 651
3 652 590 651
3 591 590 652
3 653 591 652
3 592 591 653
3 654 592 653
3 593 592 654
3 575 593 636
3 636 593 654
3 655 656 594
3 594 656 657
3 594 658 655
3 594 597 658
3 597 659 658
3 597 598 659
3 598 660 659
3 598 599 660
3 599 661 660
3 599 600 661
3 600 662 661
3 600 601 662
3 601 663 662
3 601 602 663
3 602 664 663
3 602 603 664
3 603 665 664
3 603 604 665
3 604 666 665
3 604 605 666
3 605 667 666
3 605 606 667
3 606 668 667
3 606 607 668
3 607 669 668
3 607 608 669
3 608 670 669
3 608 609 670
3 609 671 670
3 609 610 671
3 610 672 671
3 610 611 672
3 611 673 672
3 611 612 673
3 612 674 673
3 612 613 674
3 613 614 674
3 674 614 675
3 676 657 656
3 676 677 657
3 614 678 675
3 617 678 614
3 679 677 676
3 679 618 677
3 617 680 678
3 619 680 617
3 681 618 679
3 681 682 618
3 619 683 680
3 621 683 619
3 684 682 681
3 684 685 682
3 621 686 683
3 624 686 621
3 687 685 684
3 687 625 685
3 624 688 686
3 626 688 624
3 689 625 687
3 689 627 625
3 626 690 688
3 628 690 626
3 691 627 689
3 691 692 627
3 628 693 690
3 631 693 628
3 694 692 691
3 694 632 692
3 631 695 693
3 634 695 631
3 696 635 697
3 635 694 697
3 635 632 694
3 696 697 698
3 696 698 699
3 700 698 701
3 700 701 702
3 702 701 703
3 702 703 704
3 704 703 705
3 704 705 706
3 707 705 708
3 707 708 709
3 709 708 710
3 709 710 711
3 711 710 712
3 711 712 713
3 713 712 714
3 713 714 715
3 715 714 716
3 715 716 717
3 717 716 718
3 717 718 719
3 720 718 721
3 720 721 722
3 722 721 723
3 722 723 724
3 724 723 725
3 724 725 726
3 726 725 727
3 726 727 728
3 728 727 729
3 728 729 730
3 730 729 731
3 730 731 732
3 732 731 733
3 732 733 734
3 733 695 734
3 695 636 734
3 695 634 636
3 696 637 635
3 699 638 696
3 696 638 637
3 702 639 700
3 700 639 638
3 704 640 702
3 702 640 639
3 706 641 704
3 704 641 640
3 709 642 707
3 707 642 641
3 711 643 709
3 709 643 642
3 713 644 711
3 711 644 643
3 715 645 713
3 713 645 644
3 717 646 715
3 715 646 645
3 719 647 717
3 717 647 646
3 722 648 720
3 720 648 647
3 724 649 722
3 722 649 648
3 726 650 724
3 724 650 649
3 728 651 726
3 726 651 650
3 730 652 728
3 728 652 651
3 732 653 730
3 730 653 652
3 734 654 732
3 732 654 653
3 636 654 734
3 735 736 655
3 655 736 737
3 655 738 735
3 655 658 738
3 658 739 738
3 658 659 739
3 659 740 739
3 659 660 740
3 660 741 740
3 660 661 741
3 661 742 741
3 661 662 742
3 662 743 742
3 662 663 743
3 663 744 743
3 663 664 744
3 664 745 744
3 664 665 745
3 665 746 745
3 665 666 746
3 666 747 746
3 666 667 747
3 667 748 747
3 667 668 748
3 668 749 748
3 668 669 749
3 669 750 749
3 669 670 750
3 670 751 750
3 670 671 751
3 671 752 751
3 671 672 752
3 672 753 752
3 672 673 753
3 673 754 753
3 673 674 754
3 674 675 754
3 754 675 755
3 756 737 736
3 756 757 737
3 675 758 755
3 678 758 675
3 759 757 756
3 759 760 757
3 678 761 758
3 680 761 678
3 762 760 759
3 762 763 760
3 680 764 761
3 683 764 680
3 765 763 762
3 765 766 763
3 683 767 764
3 686 767 683
3 768 766 765
3 768 769 766
3 686 770 767
3 688 770 686
3 771 769 768
3 771 689 769
3 688 772 770
3 690 772 688
3 773 689 771
3 773 774 689
3 690 775 772
3 693 775 690
3 776 774 773
3 776 777 774
3 693 778 775
3 695 778 693
3 776 779 777
3 777 779 697
3 780 697 779
3 698 697 780
3 781 698 780
3 701 698 781
3 782 701 781
3 703 701 782
3 783 703 782
3 705 703 783
3 784 705 783
3 708 705 784
3 785 708 784
3 710 708 785
3 786 710 785
3 712 710 786
3 787 712 786
3 714 712 787
3 788 714 787
3 716 714 788
3 789 716 788
3 718 716 789
3 790 718 789
3 721 718 790
3 791 721 790
3 723 721 791
3 792 723 791
3 725 723 792
3 793 725 792
3 727 725 793
3 794 727 793
3 729 727 794
3 795 729 794
3 731 729 795
3 796 731 795
3 733 731 796
3 695 733 778
3 778 733 796
3 797 798 735
3 735 798 799
3 735 800 797
3 735 738 800
3 738 801 800
3 738 739 801
3 739 802 801
3 739 740 802
3 740 803 802
3 740 741 803
3 741 804 803
3 741 742 804
3 742 805 804
3 742 743 805
3 743 806 805
3 743 744 806
3 744 807 806
3 744 745 807
3 745 808 807
3 745 746 808
3 746 809 808
3 746 747 809
3 747 810 809
3 747 748 810
3 748 811 810
3 748 749 811
3 749 812 811
3 749 750 812
3 750 813 812
3 750 751 813
3 751 814 813
3 751 752 814
3 752 815 814
3 752 753 815
3 753 816 815
3 753 754 816
3 754 755 816
3 816 755 817
3 818 799 798
3 818 819 799
3 755 820 817
3 758 820 755
3 821 819 818
3 821 822 819
3 758 823 820
3 761 823 758
3 824 822 821
3 824 825 822
3 761 826 823
3 764 826 761
3 827 825 824
3 827 828 825
3 764 829 826
3 767 829 764
3 830 828 827
3 830 831 828
3 767 832 829
3 770 832 767
3 833 831 830
3 833 834 831
3 770 835 832
3 772 835 770
3 836 834 833
3 836 773 834
3 772 837 835
3 775 837 772
3 838 773 836
3 838 776 773
3 775 839 837
3 778 839 775
3 838 840 776
3 776 840 779
3 841 779 840
3 780 779 841
3 842 780 841
3 781 780 842
3 843 781 842
3 782 781 843
3 844 782 843
3 783 782 844
3 845 783 844
3 784 783 845
3 846 784 845
3 785 784 846
3 847 785 846
3 786 785 847
3 848 786 847
3 787 786 848
3 849 787 848
3 788 787 849
3 850 788 849
3 789 788 850
3 851 789 850
3 790 789 851
3 852 790 851
3 791 790 852
3 853 791 852
3 792 791 853
3 854 792 853
3 793 792 854
3 855 793 854
3 794 793 855
3 856 794 855
3 795 794 856
3 857 795 856
3 796 795 857
3 778 796 839
3 839 796 857
3 858 859 797
3 797 859 798
3 797 860 858
3 797 800 860
3 800 861 860
3 800 801 861
3 801 862 861
3 801 802 862
3 802 863 862
3 802 803 863
3 803 864 863
3 803 804 864
3 804 865 864
3 804 805 865
3 805 866 865
3 805 806 866
3 806 867 866
3 806 807 867
3 807 868 867
3 807 808 868
3 808 869 868
3 808 809 869
3 809 870 869
3 809 810 870
3 810 871 870
3 810 811 871
3 811 872 871
3 811 812 872
3 812 873 872
3 812 813 873
3 813 874 873
3 813 814 874
3 814 875 874
3 814 815 875
3 815 876 875
3 815 816 876
3 816 817 876
3 876 817 877
3 878 798 859
3 878 818 798
3 817 879 877
3 820 879 817
3 880 818 878
3 880 881 818
3 820 882 879
3 823 882 820
3 883 881 880
3 883 824 881
3 823 884 882
3 826 884 823
3 885 824 883
3 885 886 824
3 826 887 884
3 829 887 826
3 888 886 885
3 888 889 886
3 829 890 887
3 832 890 829
3 891 889 888
3 891 892 889
3 832 893 890
3 835 893 832
3 894 892 891
3 894 836 892
3 835 895 893
3 837 895 835
3 896 836 894
3 896 838 836
3 837 897 895
3 839 897 837
3 896 898 838
3 838 898 840
3 899 840 898
3 841 840 899
3 900 841 899
3 842 841 900
3 901 842 900
3 843 842 901
3 902 843 901
3 844 843 902
3 903 844 902
3 845 844 903
3 904 845 903
3 846 845 904
3 905 846 904
3 847 846 905
3 906 847 905
3 848 847 906
3 907 848 906
3 849 848 907
3 908 849 907
3 850 849 908
3 909 850 908
3 851 850 909
3 910 851 909
3 852 851 910
3 911 852 910
3 853 852 911
3 912 853 911
3 854 853 912
3 913 854 912
3 855 854 913
3 914 855 913
3 856 855 914
3 915 856 914
3 857 856 915
3 839 857 897
3 897 857 915
3 916 917 858
3 858 917 918
3 858 919 916
3 858 860 919
3 860 920 919
3 860 861 920
3 861 921 920
3 861 862 921
3 862 922 921
3 862 863 922
3 863 923 922
3 863 864 923
3 864 924 923
3 864 865 924
3 865 925 924
3 865 866 925
3 866 926 925
3 866 867 926
3 867 927 926
3 867 868 927
3 868 928 927
3 868 869 928
3 869 929 928
3 869 870 929
3 870 930 929
3 870 871 930
3 871 931 930
3 871 872 931
3 872 932 931
3 872 873 932
3 873 933 932
3 873 874 933
3 874 934 933
3 874 875 934
3 875 935 934
3 875 876 935
3 876 877 935
3 935 877 936
3 937 918 917
3 937 878 918
3 877 938 936
3 879 938 877
3 939 878 937
3 939 940 878
3 879 941 938
3 882 941 879
3 942 940 939
3 942 943 940
3 882 944 941
3 884 944 882
3 945 943 942
3 945 885 943
3 884 946 944
3 887 946 884
3 947 885 945
3 947 888 885
3 887 948 946
3 890 948 887
3 949 888 947
3 949 950 888
3 890 951 948
3 893 951 890
3 952 950 949
3 952 953 950
3 893 954 951
3 895 954 893
3 955 953 952
3 955 956 953
3 895 957 954
3 897 957 895
3 955 958 956
3 956 958 898
3 959 898 958
3 899 898 959
3 960 899 959
3 900 899 960
3 961 900 960
3 901 900 961
3 962 901 961
3 902 901 962
3 963 902 962
3 903 902 963
3 964 903 963
3 904 903 964
3 965 904 964
3 905 904 965
3 966 905 965
3 906 905 966
3 967 906 966
3 907 906 967
3 968 907 967
3 908 907 968
3 969 908 968
3 909 908 969
3 970 909 969
3 910 909 970
3 971 910 970
3 911 910 971
3 972 911 971
3 912 911 972
3 973 912 972
3 913 912 973
3 974 913 973
3 914 913 974
3 975 914 974
3 915 914 975
3 897 915 957
3 957 915 975
3 976 977 916
3 916 977 978
3 916 979 976
3 916 919 979
3 919 980 979
3 919 920 980
3 920 981 980
3 920 921 981
3 921 982 981
3 921 922 982
3 922 983 982
3 922 923 983
3 923 984 983
3 923 924 984
3 924 985 984
3 924 925 985
3 925 986 985
3 925 926 986
3 926 987 986
3 926 927 987
3 927 988 987
3 927 928 988
3 928 989 988
3 928 929 989
3 929 990 989
3 929 930 990
3 930 991 990
3 930 931 991
3 931 992 991
3 931 932 992
3 932 993 992
3 932 933 993
3 933 994 993
3 933 934 994
3 934 995 994
3 934 935 995
3 935 936 995
3 995 936 996
3 997 978 977
3 997 998 978
3 936 999 996
3 938 999 936
3 1000 998 997
3 1000 939 998
3 938 1001 999
3 941 1001 938
3 1002 939 1000
3 1002 1003 939
3 941 1004 1001
3 944 1004 941
3 1005 1003 1002
3 1005 1006 1003
3 944 1007 1004
3 946 1007 944
3 1008 1006 1005
3 1008 1009 1006
3 946 1010 1007
3 948 1010 946
3 1011 1009 1008
3 1011 1012 1009
3 948 1013 1010
3 951 1013 948
3 1014 1012 1011
3 1014 952 1012
3 951 1015 1013
3 954 1015 951
3 1016 952 1014
3 1016 1017 952
3 954 1018 1015
3 957 1018 954
3 1016 1019 1017
3 1017 1019 958
3 1020 958 1019
3 959 958 1020
3 1021 959 1020
3 960 959 1021
3 1022 960 1021
3 961 960 1022
3 1023 961 1022
3 962 961 1023
3 1024 962 1023
3 963 962 1024
3 1025 963 1024
3 964 963 1025
3 1026 964 1025
3 965 964 1026
3 1027 965 1026
3 966 965 1027
3 1028 966 1027
3 967 966 1028
3 1029 967 1028
3 968 967 1029
3 1030 968 1029
3 969 968 1030
3 1031 969 1030
3 970 969 1031
3 1032 970 1031
3 971 970 1032
3 1033 971 1032
3 972 971 1033
3 1034 972 1033
3 973 972 1034
3 1035 973 1034
3 974 973 1035
3 1036 974 1035
3 975 974 1036
3 957 975 1018
3 1018 975 1036
3 1037 1038 976
3 976 1038 1039
3 976 1040 1037
3 976 979 1040
3 979 1041 1040
3 979 980 1041
3 980 1042 1041
3 980 981 1042
3 981 1043 1042
3 981 982 1043
3 982 1044 1043
3 982 983 1044
3 983 1045 1044
3 983 984 1045
3 984 1046 1045
3 984 985 1046
3 985 1047 1046
3 985 986 1047
3 986 1048 1047
3 986 987 1048
3 987 1049 1048
3 987 988 1049
3 988 1050 1049
3 988 989 1050
3 989 1051 1050
3 989 990 1051
3 990 1052 1051
3 990 991 1052
3 991 1053 1052
3 991 992 1053
3 992 1054 1053
3 992 993 1054
3 993 1055 1054
3 993 994 1055
3 994 1056 1055
3 994 995 1056
3 995 996 1056
3 1056 996 1057
3 1058 1039 1038
3 1058 1059 1039
3 996 1060 1057
3 999 1060 996
3 1061 1059 1058
3 1061 1062 1059
3 999 1063 1060
3 1001 1063 999
3 1064 1062 1061
3 1064 1065 1062
3 1001 1066 1063
3 1004 1066 1001
3 1067 1065 1064
3 1067 1005 1065
3 1004 1068 1066
3 1007 1068 1004
3 1069 1005 1067
3 1069 1070 1005
3 1007 1071 1068
3 1010 1071 1007
3 1072 1070 1069
3 1072 1073 1070
3 1010 1074 1071
3 1013 1074 1010
3 1075 1073 1072
3 1075 1076 1073
3 1013 1077 1074
3 1015 1077 1013
3 1078 1076 1075
3 1078 1016 1076
3 1015 1079 1077
3 1018 1079 1015
3 1078 1080 1016
3 1016 1080 1019
3 1081 1019 1080
3 1020 1019 1081
3 1082 1020 1081
3 1021 1020 1082
3 1083 1021 1082
3 1022 1021 1083
3 1084 1022 1083
3 1023 1022 1084
3 1085 1023 1084
3 1024 1023 1085
3 1086 1024 1085
3 1025 1024 1086
3 1087 1025 1086
3 1026 1025 1087
3 1088 1026 1087
3 1027 1026 1088
3 1089 1027 1088
3 1028 1027 1089
3 1090 1028 1089
3 1029 1028 1090
3 1091 1029 1090
3 1030 1029 1091
3 1092 1030 1091
3 1031 1030 1092
3 1093 1031 1092
3 1032 1031 1093
3 1094 1032 1093
3 1033 1032 1094
3 1095 1033 1094
3 1034 1033 1095
3 1096 1034 1095
3 1035 1034 1096
3 1097 1035 1096
3 1036 1035 1097
3 1018 1036 1079
3 1079 1036 1097
3 1037 1098 1038
3 1098 1037 1099
3 1099 1037 1040
3 1099 1040 1100
3 1100 1040 1041
3 1100 1041 1101
3 1101 1041 1042
3 1101 1042 1102
3 1102 1042 1043
3 1102 1043 1103
3 1103 1043 1044
3 1103 1044 1104
3 1104 1044 1045
3 1104 1045 1105
3 1105 1045 1046
3 1105 1046 1106
3 1106 1046 1047
3 1106 1047 1107
3 1107 1047 1048
3 1107 1048 1108
3 1108 1048 1049
3 1108 1049 1109
3 1109 1049 1050
3 1109 1050 1110
3 1110 1050 1051
3 1110 1051 1111
3 1111 1051 1052
3 1111 1052 1112
3 1112 1052 1053
3 1113 1053 1114
3 1114 1053 1054
3 1114 1054 1115
3 1115 1054 1055
3 1115 1055 1116
3 1116 1055 1056
3 1056 1057 1116
3 1038 1098 1117
3 1117 1098 1118
3 1099 1118 1098
3 1099 1119 1118
3 1100 1119 1099
3 1100 1120 1119
3 1101 1120 1100
3 1101 1121 1120
3 1102 1121 1101
3 1102 1122 1121
3 1103 1122 1102
3 1103 1123 1122
3 1104 1123 1103
3 1104 1124 1123
3 1105 1124 1104
3 1105 1125 1124
3 1106 1125 1105
3 1106 1126 1125
3 1107 1126 1106
3 1107 1127 1126
3 1108 1127 1107
3 1108 1128 1127
3 1109 1128 1108
3 1109 1129 1128
3 1110 1129 1109
3 1110 1130 1129
3 1111 1130 1110
3 1111 1131 1130
3 1112 1131 1111
3 1112 1132 1131
3 1114 1132 1113
3 1114 1133 1132
3 1115 1133 1114
3 1115 1134 1133
3 1116 1134 1115
3 1116 1135 1134
3 1116 1057 1135
3 1135 1057 1060
3 1117 1118 1061
3 1061 1118 1136
3 1119 1136 1118
3 1119 1137 1136
3 1120 1137 1119
3 1120 1138 1137
3 1121 1138 1120
3 1121 1139 1138
3 1122 1139 1121
3 1122 1140 1139
3 1123 1140 1122
3 1123 1141 1140
3 1124 1141 1123
3 1124 1142 1141
3 1125 1142 1124
3 1125 1143 1142
3 1126 1143 1125
3 1126 1144 1143
3 1127 1144 1126
3 1127 1145 1144
3 1128 1145 1127
3 1128 1146 1145
3 1129 1146 1128
3 1129 1147 1146
3 1130 1147 1129
3 1130 1148 1147
3 1131 1148 1130
3 1131 1149 1148
3 1132 1149 1131
3 1132 1150 1149
3 1133 1150 1132
3 1133 1151 1150
3 1134 1151 1133
3 1134 1152 1151
3 1135 1152 1134
3 1135 1153 1152
3 1135 1060 1153
3 1153 1060 1063
3 1061 1136 1064
3 1064 1136 1154
3 1137 1154 1136
3 1137 1155 1154
3 1138 1155 1137
3 1138 1156 1155
3 1139 1156 1138
3 1139 1157 1156
3 1140 1157 1139
3 1140 1158 1157
3 1141 1158 1140
3 1141 1159 1158
3 1142 1159 1141
3 1142 1160 1159
3 1143 1160 1142
3 1143 1161 1160
3 1144 1161 1143
3 1144 1162 1161
3 1145 1162 1144
3 1145 1163 1162
3 1146 1163 1145
3 1146 1164 1163
3 1147 1164 1146
3 1147 1165 1164
3 1148 1165 1147
3 1148 1166 1165
3 1149 1166 1148
3 1149 1167 1166
3 1150 1167 1149
3 1150 1168 1167
3 1151 1168 1150
3 1151 1169 1168
3 1152 1169 1151
3 1152 1170 1169
3 1153 1170 1152
3 1153 1171 1170
3 1153 1063 1171
3 1171 1063 1066
3 1064 1154 1172
3 1172 1154 1173
3 1155 1173 1154
3 1155 1174 1173
3 1156 1174 1155
3 1156 1175 1174
3 1157 1175 1156
3 1157 1176 1175
3 1158 1176 1157
3 1158 1177 1176
3 1159 1177 1158
3 1159 1178 1177
3 1160 1178 1159
3 1160 1179 1178
3 1161 1179 1160
3 1161 1180 1179
3 1162 1180 1161
3 1162 1181 1180
3 1163 1181 1162
3 1163 1182 1181
3 1164 1182 1163
3 1164 1183 1182
3 1165 1183 1164
3 1165 1184 1183
3 1166 1184 1165
3 1166 1185 1184
3 1167 1185 1166
3 1167 1186 1185
3 1168 1186 1167
3 1168 1187 1186
3 1169 1187 1168
3 1169 1188 1187
3 1170 1188 1169
3 1170 1189 1188
3 1171 1189 1170
3 1171 1190 1189
3 1171 1066 1190
3 1190 1066 1068
3 1172 1173 1191
3 1191 1173 1192
3 1174 1192 1173
3 1174 1193 1192
3 1175 1193 1174
3 1175 1194 1193
3 1176 1194 1175
3 1176 1195 1194
3 1177 1195 1176
3 1177 1196 1195
3 1178 1196 1177
3 1178 1197 1196
3 1179 1197 1178
3 1179 1198 1197
3 1180 1198 1179
3 1180 1199 1198
3 1181 1199 1180
3 1181 1200 1199
3 1182 1200 1181
3 1182 1201 1200
3 1183 1201 1182
3 1183 1202 1201
3 1184 1202 1183
3 1184 1203 1202
3 1185 1203 1184
3 1185 1204 1203
3 1186 1204 1185
3 1186 1205 1204
3 1187 1205 1186
3 1187 1206 1205
3 1188 1206 1187
3 1188 1207 1206
3 1189 1207 1188
3 1189 1208 1207
3 1190 1208 1189
3 1190 1209 1208
3 1190 1068 1209
3 1209 1068 1071
3 1191 1192 1072
3 1072 1192 1210
3 1193 1210 1192
3 1193 1211 1210
3 1194 1212 1193
3 1194 1213 1212
3 1195 1213 1194
3 1195 1214 1213
3 1196 1214 1195
3 1196 1215 1214
3 1197 1215 1196
3 1197 1216 1215
3 1198 1216 1197
3 1198 1217 1216
3 1199 1217 1198
3 1199 1218 1217
3 1200 1218 1199
3 1200 1219 1218
3 1201 1219 1200
3 1201 1220 1219
3 1202 1220 1201
3 1202 1221 1220
3 1203 1221 1202
3 1203 1222 1221
3 1204 1223 1203
3 1204 1224 1223
3 1205 1224 1204
3 1205 1225 1224
3 1206 1225 1205
3 1206 1226 1225
3 1207 1226 1206
3 1207 1227 1226
3 1208 1227 1207
3 1208 1228 1227
3 1209 1228 1208
3 1209 1229 1228
3 1209 1071 1229
3 1229 1071 1074
3 1072 1210 1075
3 1075 1210 1230
3 1211 1230 1210
3 1211 1231 1230
3 1213 1231 1212
3 1213 1232 1231
3 1214 1232 1213
3 1214 1233 1232
3 1215 1233 1214
3 1215 1234 1233
3 1216 1234 1215
3 1216 1235 1234
3 1217 1235 1216
3 1217 1236 1235
3 1218 1236 1217
3 1218 1237 1236
3 1219 1237 1218
3 1219 1238 1237
3 1220 1239 1219
3 1220 1240 1239
3 1221 1240 1220
3 1221 1241 1240
3 1222 1241 1221
3 1222 1242 1241
3 1224 1242 1223
3 1224 1243 1242
3 1225 1243 1224
3 1225 1244 1243
3 1226 1244 1225
3 1226 1245 1244
3 1227 1245 1226
3 1227 1246 1245
3 1228 1246 1227
3 1228 1247 1246
3 1229 1247 1228
3 1229 1248 1247
3 1229 1074 1248
3 1248 1074 1077
3 1075 1230 1078
3 1078 1230 1249
3 1231 1249 1230
3 1231 1250 1249
3 1232 1251 1231
3 1232 1252 1251
3 1233 1252 1232
3 1233 1253 1252
3 1234 1253 1233
3 1234 1254 1253
3 1235 1254 1234
3 1235 1255 1254
3 1236 1255 1235
3 1236 1256 1255
3 1237 1256 1236
3 1237 1257 1256
3 1238 1257 1237
3 1238 1258 1257
3 1240 1258 1239
3 1240 1259 1258
3 1241 1259 1240
3 1241 1260 1259
3 1242 1260 1241
3 1242 1261 1260
3 1243 1261 1242
3 1243 1262 1261
3 1244 1262 1243
3 1244 1263 1262
3 1245 1263 1244
3 1245 1264 1263
3 1246 1264 1245
3 1246 1265 1264
3 1247 1265 1246
3 1247 1266 1265
3 1248 1266 1247
3 1248 1267 1266
3 1248 1077 1267
3 1267 1077 1079
3 1249 1080 1078
3 1250 1081 1249
3 1249 1081 1080
3 1252 1082 1251
3 1251 1082 1081
3 1253 1083 1252
3 1252 1083 1082
3 1254 1084 1253
3 1253 1084 1083
3 1255 1085 1254
3 1254 1085 1084
3 1256 1086 1255
3 1255 1086 1085
3 1257 1087 1256
3 1256 1087 1086
3 1258 1088 1257
3 1257 1088 1087
3 1259 1089 1258
3 1258 1089 1088
3 1260 1090 1259
3 1259 1090 1089
3 1261 1091 1260
3 1260 1091 1090
3 1262 1092 1261
3 1261 1092 1091
3 1263 1093 1262
3 1262 1093 1092
3 1264 1094 1263
3 1263 1094 1093
3 1265 1095 1264
3 1264 1095 1094
3 1266 1096 1265
3 1265 1096 1095
3 1267 1097 1266
3 1266 1097 1096
3 1079 1097 1267
