ply
format ascii 1.0
element vertex 1278
property float x
property float y
property float z
element face 2144
property list uchar int vertex_index
end_header
0.560686 1 1
1 1 0.560686
1 0.562711 1
2 0.562643 1
2 1 0.560618
3 0.562579 1
3 1 0.560552
4 0.562522 1
4 1 0.560494
4 1 0.560494
5 0.562476 1
5 1 0.560446
5 1 0.560446
6 0.562442 1
6 1 0.560411
7 0.562421 1
7 1 0.560388
7 1 0.560388
8 0.562411 1
8 1 0.560377
9 0.562411 1
9 1 0.560376
10 0.56242 1
10 1 0.560384
11 0.562436 1
11 1 0.560398
12 0.562457 1
12 1 0.560419
13 0.562483 1
13 1 0.560443
14 0.562511 1
14 1 0.560471
14 1 0.560471
15 0.562543 1
15 1 0.560502
15 1 0.560502
16 0.562576 1
16 1 0.560535
16 1 0.560535
17 0.562616 1
17 1 0.560575
18 0.562635 1
18 1 0.560594
18.4394 1 1
0.464779 2 1
1 2 0.464779
2 2 0.46471
2 2 0.46471
3 2 0.464629
3 2 0.464629
4 2 0.464545
5 2 0.464464
6 2 0.464392
7 2 0.464332
7 2 0.464332
8 2 0.464286
8 2 0.464286
9 2 0.464252
9 2 0.464252
10 2 0.464231
10 2 0.464231
11 2 0.46422
11 2 0.46422
12 2 0.464218
12 2 0.464218
13 2 0.464222
13 2 0.464222
14 2 0.464233
14 2 0.464233
15 2 0.464248
15 2 0.464248
16 2 0.464268
16 2 0.464268
17 2 0.464295
18 2 0.464309
18 2 0.464309
18.5357 2 1
0.356885 3 1
1 3 0.356885
2 3 0.356804
2 3 0.356804
3 3 0.356693
3 3 0.356693
4 3 0.356569
4 3 0.356569
5 3 0.356441
5 3 0.356441
6 3 0.356321
6 3 0.356321
7 3 0.356216
7 3 0.356216
8 3 0.356128
8 3 0.356128
9 3 0.356058
9 3 0.356058
10 3 0.356007
11 3 0.35597
11 3 0.35597
12 3 0.355945
12 3 0.355945
13 3 0.355931
13 3 0.355931
14 3 0.355925
15 3 0.355927
16 3 0.355936
16 3 0.355936
17 3 0.355953
18 3 0.355963
18.644 3 1
0.635034 4 1
1 4 0.635034
1 4 0.635034
2 4 0.634898
2 4 0.634898
3 4 0.634755
4 4 0.634621
4 4 0.634621
5 4 0.634506
5 4 0.634506
6 4 0.634415
7 4 0.63435
8 4 0.63431
8 4 0.63431
9 4 0.63429
10 4 0.634287
11 4 0.634296
12 4 0.634314
12 4 0.634314
13 4 0.634339
14 4 0.634371
14 4 0.634371
15 4 0.634407
15 4 0.634407
16 4 0.634448
16 4 0.634448
17 4 0.6345
18 4 0.634526
18 4 0.634526
18.3655 4 1
0.570481 5 1
1 5 0.570481
1 5 0.570481
2 5 0.570291
2 5 0.570291
3 5 0.570053
4 5 0.569807
4 5 0.569807
5 5 0.569574
6 5 0.569372
6 5 0.569372
7 5 0.569211
8 5 0.569092
8 5 0.569092
9 5 0.56901
10 5 0.568958
10 5 0.568958
11 5 0.568927
12 5 0.568913
12 5 0.568913
13 5 0.568911
13 5 0.568911
14 5 0.568919
14 5 0.568919
15 5 0.568937
15 5 0.568937
16 5 0.568963
16 5 0.568963
17 5 0.569002
18 5 0.569022
18.431 5 1
0.450118 6 1
1 6 0.450118
1 6 0.450118
2 6 0.449845
2 6 0.449845
3 6 0.44945
4 6 0.44902
4 6 0.44902
5 6 0.448598
5 6 0.448598
6 6 0.448223
6 6 0.448223
7 6 0.44792
7 6 0.44792
8 6 0.447693
8 6 0.447693
9 6 0.447531
9 6 0.447531
10 6 0.447421
10 6 0.447421
11 6 0.447347
12 6 0.4473
12 6 0.4473
13 6 0.447273
13 6 0.447273
14 6 0.44726
15 6 0.447261
16 6 0.447272
16 6 0.447272
17 6 0.447299
17 6 0.447299
18 6 0.447313
18 6 0.447313
18.5527 6 1
0.665862 7 1
1 7 0.665862
1 7 0.665862
2 7 0.665468
2 7 0.665468
3 7 0.665119
3 7 0.665119
4 7 0.664855
4 7 0.664855
5 7 0.664674
6 7 0.664583
6 7 0.664583
7 7 0.66457
8 7 0.664611
8 7 0.664611
9 7 0.664678
10 7 0.664754
10 7 0.664754
11 7 0.664829
12 7 0.664901
12 7 0.664901
13 7 0.664971
14 7 0.665039
15 7 0.665108
16 7 0.665177
16 7 0.665177
17 7 0.665258
17 7 0.665258
18 7 0.665299
18 7 0.665299
18.3347 7 1
0.577468 8 1
1 8 0.578841
2 8 0.577919
3 8 0.576726
4 8 0.575663
4 8 0.575663
5 8 0.574722
5 8 0.574722
6 8 0.574017
6 8 0.574017
7 8 0.573587
7 8 0.573587
8 8 0.573367
8 8 0.573367
9 8 0.573273
10 8 0.57325
10 8 0.57325
11 8 0.573259
11 8 0.573259
12 8 0.573286
12 8 0.573286
13 8 0.573324
14 8 0.573371
15 8 0.573423
15 8 0.573423
16 8 0.573479
17 8 0.573547
18 8 0.57358
18 8 0.57358
18.4276 8 1
0.370042 9 1
1 9 0.370041
1 9 0.370041
2 9 0.368119
3 9 0.365102
3 9 0.365102
4 9 0.362627
5 9 0.360504
5 9 0.360504
6 9 0.358962
6 9 0.358962
7 9 0.358088
8 9 0.357684
8 9 0.357684
9 9 0.357527
9 9 0.357527
10 9 0.357501
11 9 0.357528
11 9 0.357528
12 9 0.357577
13 9 0.35764
13 9 0.35764
14 9 0.357711
14 9 0.357711
15 9 0.357783
15 9 0.357783
16 9 0.357851
16 9 0.357851
17 9 0.357918
17 9 0.357918
18 9 0.357948
18.6421 9 1
0.579039 10 1
1 10 0.579033
2 10 0.57461
2 10 0.57461
3 10 0.569392
4 10 0.566707
4 10 0.566707
5 10 0.564602
6 10 0.563653
7 10 0.563636
7 10 0.563636
8 10 0.563994
9 10 0.564397
9 10 0.564397
10 10 0.564775
11 10 0.565086
12 10 0.56534
12 10 0.56534
13 10 0.565564
13 10 0.565564
14 10 0.565759
14 10 0.565759
15 10 0.565926
16 10 0.566065
17 10 0.566188
18 10 0.566243
18 10 0.566243
18.4338 10 1
0.0901698 11 1
1 11 0.0901562
1 11 0.0901562
2 11 0.0846959
2 11 0.0846959
3 11 0.0766828
3 11 0.0766828
4 11 0.0741577
4 11 0.0741577
5 11 0.0732993
6 11 0.0739311
6 11 0.0739311
7 11 0.0752459
7 11 0.0752459
8 11 0.0765877
8 11 0.0765877
9 11 0.0776886
9 11 0.0776886
10 11 0.0785447
10 11 0.0785447
11 11 0.0792065
11 11 0.0792065
12 11 0.0797361
12 11 0.0797361
13 11 0.0801676
13 11 0.0801676
14 11 0.0805102
14 11 0.0805102
15 11 0.0807757
15 11 0.0807757
16 11 0.0809747
16 11 0.0809747
17 11 0.0811195
17 11 0.0811195
18 11 0.081172
18 11 0.081172
18.9188 11 1
1 11.9098 1
2 11.9153 1
3 11.9233 1
4 11.9258 1
5 11.9267 1
6 11.9261 1
7 11.9248 1
8 11.9234 1
9 11.9223 1
10 11.9215 1
11 11.9208 1
12 11.9203 1
13 11.9198 1
14 11.9195 1
15 11.9192 1
16 11.919 1
17 11.9189 1
18 11.9188 1
1 0.603019 2
0.601218 1 2
0.560686 1 1
2 0.602946 2
3 0.602879 2
4 0.602822 2
5 0.602776 2
6 0.602745 2
7 0.602727 2
8 0.602721 2
9 0.602726 2
10 0.60274 2
11 0.602761 2
12 0.602787 2
13 0.602818 2
14 0.602851 2
15 0.602888 2
16 0.602925 2
17 0.60297 2
18 0.602991 2
18.3988 1 2
0.499559 2 2
0.464779 2 1
18.5009 2 2
0.388718 3 2
18.6121 3 2
0.69484 4 2
18.3056 4 2
0.624732 5 2
0.570481 5 1
18.3767 5 2
0.499693 6 2
18.503 6 2
0.725614 7 2
18.2747 7 2
0.479528 8 2
0.577468 8 1
18.5207 8 2
0.391473 9 2
18.613 9 2
0.605387 10 2
0.579039 10 1
18.3945 10 2
0.399582 11 2
18.6124 11 2
1 11.6004 2
2 11.604 2
3 11.6064 2
4 11.6095 2
5 11.6147 2
6 11.6174 2
7 11.6172 2
8 11.6162 2
9 11.6155 2
10 11.6147 2
11 11.6142 2
12 11.6137 2
13 11.6134 2
14 11.613 2
15 11.6128 2
16 11.6126 2
17 11.6124 2
18 11.6124 2
1 0.424446 3
0.423221 1 3
0.601218 1 2
2 0.424407 3
3 0.424379 3
4 0.424362 3
5 0.424358 3
6 0.424364 3
7 0.424381 3
8 0.424404 3
9 0.424434 3
10 0.424467 3
11 0.424501 3
12 0.424537 3
13 0.424572 3
14 0.424606 3
15 0.42464 3
16 0.424672 3
17 0.424706 3
18 0.424721 3
18.5765 1 3
0.358132 2 3
0.499559 2 2
18.6418 2 3
0.283931 3 3
18.7163 3 3
0.50314 4 3
18.4965 4 3
0.493783 5 3
18.5061 5 3
0.438568 6 3
0.499693 6 2
18.562 6 3
0.348478 7 3
18.653 7 3
0.617682 8 3
0.479528 8 2
18.3815 8 3
0.555852 9 3
0.391473 9 2
18.4459 9 3
0.340593 10 3
0.605387 10 2
18.657 10 3
0.558666 11 3
18.4879 11 3
1 11.4336 3
2 11.4493 3
3 11.442 3
4 11.4418 3
5 11.4542 3
6 11.471 3
7 11.4768 3
8 11.4769 3
9 11.4802 3
10 11.4805 3
11 11.4794 3
12 11.4814 3
13 11.4822 3
14 11.4822 3
15 11.4823 3
16 11.4823 3
17 11.4823 3
18 11.4823 3
1 0.49849 4
0.49736 1 4
0.423221 1 3
2 0.49845 4
3 0.498421 4
4 0.498405 4
5 0.498401 4
6 0.498408 4
7 0.498425 4
8 0.49845 4
9 0.498481 4
10 0.498515 4
11 0.498552 4
12 0.49859 4
13 0.498628 4
14 0.498665 4
15 0.498701 4
16 0.498735 4
17 0.498772 4
18 0.498789 4
18.5023 1 4
0.430215 2 4
18.5697 2 4
0.356021 3 4
18.6441 3 4
0.595439 4 4
0.50314 4 3
18.4041 4 4
0.591629 5 4
0.493783 5 3
18.4081 5 4
0.542347 6 4
0.438568 6 3
18.4579 6 4
0.458952 7 4
18.5419 7 4
0.709487 8 4
18.2896 8 4
0.48574 9 4
0.555852 9 3
18.5113 9 4
0.529654 10 4
18.4697 10 4
1 11 3.61933
1 10.638 4
2 10.646 4
2 11 3.6358
3 10.6436 4
3 11 3.62859
4 10.6428 4
4 11 3.62795
5 10.646 4
5 11 3.63913
6 10.6531 4
6 11 3.65556
7 10.6559 4
7 11 3.66136
8 10.6557 4
8 11 3.6614
9 10.6566 4
9 11 3.66429
10 10.6566 4
10 11 3.66455
11 10.6573 4
11 11 3.66412
11 11 3.66412
12 10.6588 4
12 11 3.66632
13 10.6596 4
13 11 3.66734
14 10.6599 4
14 11 3.66753
15 10.6602 4
15 11 3.66771
16 10.6604 4
16 11 3.66784
17 10.6604 4
17 11 3.66788
17 11 3.66788
18 10.6605 4
18 11 3.66791
1 0.558762 5
0.557767 1 5
0.49736 1 4
2 0.558723 5
3 0.558694 5
4 0.558675 5
5 0.558668 5
6 0.558671 5
7 0.558684 5
8 0.558704 5
9 0.558731 5
10 0.558762 5
11 0.558796 5
12 0.558831 5
13 0.558867 5
14 0.558903 5
15 0.558938 5
16 0.558973 5
17 0.55901 5
18 0.559027 5
18.442 1 5
0.490687 2 5
0.430215 2 4
18.5092 2 5
0.418437 3 5
0.356021 3 4
18.5816 3 5
0.663739 4 5
0.595439 4 4
18.3358 4 5
0.672204 5 5
0.591629 5 4
18.3275 5 5
0.628003 6 5
0.542347 6 4
18.3721 6 5
0.545036 7 5
18.4554 7 5
18.5419 7 4
0.36616 8 5
18.6323 8 5
0.345349 9 5
0.48574 9 4
18.6534 9 5
0.646135 10 5
0.529654 10 4
18.3541 10 5
1 10.3571 5
2 10.3588 5
3 10.3586 5
4 10.3574 5
5 10.3573 5
6 10.3586 5
7 10.3592 5
8 10.3588 5
9 10.3588 5
10 10.3593 5
11 10.3583 5
12 10.3583 5
13 10.3588 5
14 10.3589 5
15 10.3592 5
16 10.3595 5
17 10.3596 5
18 10.3596 5
1 0.601224 6
0.60039 1 6
0.557767 1 5
2 0.601187 6
3 0.601157 6
4 0.601136 6
5 0.601123 6
6 0.60112 6
7 0.601125 6
8 0.601137 6
9 0.601155 6
10 0.601178 6
11 0.601204 6
12 0.601232 6
13 0.601261 6
14 0.601291 6
15 0.601323 6
16 0.601353 6
17 0.601388 6
18 0.601404 6
18.3994 1 6
0.536029 2 6
0.490687 2 5
18.4639 2 6
0.466548 3 6
18.5335 3 6
0.393692 4 6
0.663739 4 5
18.6064 4 6
0.70883 5 6
18.2911 5 6
0.67864 6 6
18.3214 6 6
0.47168 7 6
0.545036 7 5
18.5271 7 6
0.481103 8 6
0.36616 8 5
18.5175 8 6
0.474485 9 6
18.5244 9 6
0.442305 10 6
18.5652 10 6
1 10.5577 6
2 10.5608 6
3 10.562 6
4 10.5619 6
5 10.5616 6
6 10.5601 6
7 10.5598 6
8 10.5595 6
9 10.5588 6
10 10.5606 6
11 10.5573 6
12 10.5576 6
13 10.5615 6
14 10.5626 6
15 10.564 6
16 10.5647 6
17 10.565 6
18 10.5652 6
1 0.625592 7
0.624619 1 7
2 0.625559 7
3 0.62553 7
4 0.625507 7
5 0.625491 7
6 0.625481 7
7 0.625478 7
8 0.62548 7
9 0.625488 7
10 0.625501 7
11 0.625516 7
12 0.625535 7
13 0.625555 7
14 0.625577 7
15 0.6256 7
16 0.625625 7
17 0.625655 7
18 0.625668 7
18.3753 1 7
0.560104 2 7
0.536029 2 6
18.4399 2 7
0.499093 3 7
18.5009 3 7
0.434553 4 7
18.5655 4 7
0.478045 5 7
0.70883 5 6
18.5213 5 7
0.52108 6 7
18.4781 6 7
0.553943 7 7
18.4452 7 7
0.577612 8 7
18.4214 8 7
0.583473 9 7
0.474485 9 6
18.416 9 7
0.561565 10 7
18.4442 10 7
1 10.4384 7
2 10.4406 7
3 10.4413 7
4 10.4407 7
5 10.4416 7
6 10.4421 7
7 10.4404 7
8 10.4398 7
9 10.4415 7
10 10.4426 7
11 10.4396 7
12 10.4381 7
13 10.4385 7
14 10.4391 7
15 10.4403 7
16 10.4421 7
17 10.4437 7
18 10.4442 7
1 0.628875 8
0.620758 1 8
0.624619 1 7
2 0.628847 8
3 0.628822 8
4 0.6288 8
5 0.628783 8
6 0.62877 8
7 0.628762 8
8 0.628759 8
9 0.62876 8
10 0.628765 8
11 0.628773 8
12 0.628783 8
13 0.628794 8
14 0.628808 8
15 0.628824 8
16 0.628842 8
17 0.628865 8
18 0.628876 8
18.3792 1 8
0.379225 2 8
18.6204 2 8
0.360486 3 8
0.499093 3 7
18.6391 3 8
0.344094 4 8
0.434553 4 7
18.6555 4 8
0.328594 5 8
0.478045 5 7
18.6709 5 8
0.561707 6 8
0.52108 6 7
18.4378 6 8
0.616541 7 8
0.553943 7 7
18.3829 7 8
0.650249 8 8
18.3492 8 8
0.66586 9 8
0.583473 9 7
18.3338 9 8
0.649651 10 8
0.561565 10 7
18.3497 10 8
1 10.3503 8
2 10.3467 8
3 10.3467 8
4 10.3463 8
5 10.3475 8
6 10.3482 8
7 10.3461 8
8 10.3459 8
9 10.3468 8
10 10.3478 8
11 10.3475 8
12 10.3453 8
13 10.3448 8
14 10.3457 8
15 10.3463 8
16 10.3476 8
17 10.3487 8
18 10.3497 8
1 0.44397 9
0.443857 1 9
2 0.443959 9
3 0.443955 9
4 0.44396 9
5 0.44397 9
6 0.443987 9
7 0.444007 9
8 0.444031 9
9 0.444058 9
10 0.444087 9
11 0.444117 9
12 0.444147 9
13 0.444176 9
14 0.444202 9
15 0.444226 9
16 0.444248 9
17 0.444269 9
18 0.444277 9
18.5558 1 9
0.424132 2 9
0.379225 2 8
18.5756 2 9
0.410362 3 9
18.5893 3 9
0.399861 4 9
0.344094 4 8
18.5998 4 9
0.391041 5 9
18.6086 5 9
0.383467 6 9
0.561707 6 8
18.6161 6 9
0.643482 7 9
0.616541 7 8
18.3562 7 9
0.688747 8 9
18.311 8 9
0.711868 9 9
0.66586 9 8
18.2801 9 9
0.447473 10 9
0.649651 10 8
18.2857 10 9
1 10.5525 9
2 10.2924 9
3 10.2846 9
4 10.2848 9
5 10.2843 9
6 10.2843 9
7 10.2845 9
8 10.2846 9
9 10.2842 9
10 10.2842 9
11 10.285 9
12 10.2842 9
13 10.2834 9
14 10.2835 9
15 10.284 9
16 10.2844 9
17 10.2851 9
18 10.2857 9
1 0.475318 10
0.475261 1 10
0.443857 1 9
2 0.475305 10
3 0.4753 10
4 0.475304 10
5 0.475315 10
6 0.47533 10
7 0.475345 10
8 0.475364 10
9 0.475386 10
10 0.47541 10
11 0.475436 10
12 0.475461 10
13 0.475485 10
14 0.475506 10
15 0.475525 10
16 0.475542 10
17 0.475559 10
18 0.475565 10
18.5245 1 10
0.460715 2 10
0.424132 2 9
18.539 2 10
0.452361 3 10
0.410362 3 9
18.5474 3 10
0.448072 4 10
18.5517 4 10
0.446223 5 10
0.391041 5 9
18.5535 5 10
0.44483 6 10
18.5548 6 10
0.442623 7 10
18.557 7 10
0.434834 8 10
18.5648 8 10
0.729348 9 10
18.2708 9 10
1 10 9.65802
1 9.47124 10
2 9.37319 10
2 10 9.39759
3 9.37245 10
3 10 9.39663
4 9.45013 10
4 10 9.47594
4.55395 10 10
6 10 9.47522
5.44581 10 10
6 9.44956 10
7 9.3725 10
7 10 9.39673
8 9.4499 10
8 10 9.47554
8.5545 10 10
11 10 9.47582
10.4452 10 10
11 9.4494 10
12 9.37212 10
12 10 9.39633
13 9.36925 10
13 10 9.39265
14 9.36905 10
14 10 9.39274
15 9.36912 10
15 10 9.39323
16 9.372 10
16 10 9.3965
17 9.45009 10
17 10 9.4763
17.5533 10 10
18.2531 10 10
5 10.2522 10
9 10.2518 10
10 10.2516 10
18 10.2527 10
1 0.49868 11
0.498657 1 11
0.475261 1 10
2 0.498664 11
3 0.49866 11
4 0.498667 11
5 0.49868 11
6 0.498696 11
7 0.498705 11
8 0.498719 11
9 0.498738 11
10 0.498759 11
11 0.498782 11
12 0.498804 11
13 0.498825 11
14 0.49884 11
15 0.498853 11
16 0.498866 11
17 0.49888 11
18 0.498885 11
18.5011 1 11
0.489186 2 11
18.5106 2 11
0.486339 3 11
0.452361 3 10
18.5134 3 11
0.488179 4 11
18.5116 4 11
0.493263 5 11
0.446223 5 10
18.5065 5 11
0.49921 6 11
0.44483 6 10
18.5006 6 11
0.50348 7 11
0.442623 7 10
18.4962 7 11
0.502964 8 11
18.4968 8 11
0.491494 9 11
18.5085 9 11
1 9.5134 11
2 9.50862 11
3 9.50905 11
4 9.51687 11
5 9.6132 11
5 10 10.4423
5 10 10.4423
6 9.51685 11
7 9.50911 11
8 9.51676 11
9 9.61294 11
9 10 10.4417
10 9.61302 11
10 10 10.4415
11 9.51678 11
12 9.50895 11
13 9.50879 11
14 9.50867 11
15 9.50849 11
16 9.50858 11
17 9.51665 11
18 9.61338 11
18 10 10.4429
1 0.513805 12
0.5138 1 12
0.498657 1 11
2 0.513749 12
3 0.513739 12
4 0.513752 12
5 0.513776 12
6 0.513814 12
7 0.513801 12
8 0.513805 12
9 0.51382 12
10 0.513839 12
11 0.513865 12
12 0.51388 12
13 0.513903 12
14 0.513906 12
15 0.513909 12
16 0.513919 12
17 0.51393 12
18 0.513934 12
18.4861 1 12
0.509288 2 12
18.4906 2 12
0.511643 3 12
0.486339 3 11
18.4882 3 12
0.519049 4 12
0.488179 4 11
18.4808 4 12
0.530904 5 12
0.493263 5 11
18.469 5 12
0.543715 6 12
0.49921 6 11
18.4561 6 12
0.555145 7 12
0.50348 7 11
18.4446 7 12
0.554442 8 12
0.502964 8 11
18.4454 8 12
0.354212 9 12
0.491494 9 11
18.6469 9 12
1 9.64579 12
2 9.64698 12
3 9.64683 12
4 9.64762 12
5 9.64887 12
6 9.64632 12
7 9.64752 12
8 9.64854 12
9 9.64928 12
10 9.64676 12
11 9.64771 12
12 9.64793 12
13 9.64813 12
14 9.64779 12
15 9.64823 12
16 9.64871 12
17 9.64901 12
18 9.64727 12
1 1 12.4861
2 1 12.4862
3 1 12.4862
4 1 12.4862
5 1 12.4862
6 1 12.4861
7 1 12.4861
8 1 12.4861
9 1 12.4861
10 1 12.4861
11 1 12.4861
12 1 12.4861
13 1 12.486
14 1 12.486
15 1 12.486
16 1 12.486
17 1 12.486
18 1 12.486
1 2 12.4906
2 2 12.4907
3 2 12.4907
4 2 12.4906
5 2 12.4906
6 2 12.4906
7 2 12.4906
8 2 12.4906
9 2 12.4906
10 2 12.4906
11 2 12.4906
12 2 12.4905
13 2 12.4905
14 2 12.4905
15 2 12.4905
16 2 12.4905
17 2 12.4905
18 2 12.4905
0.511643 3 12
1 3 12.4882
2 3 12.4882
3 3 12.4883
4 3 12.4882
5 3 12.4882
6 3 12.4882
6 3 12.4882
7 3 12.4882
8 3 12.4882
8 3 12.4882
9 3 12.4882
10 3 12.4882
11 3 12.4882
12 3 12.4881
13 3 12.4881
14 3 12.4881
15 3 12.4881
16 3 12.4881
17 3 12.4881
18 3 12.4881
0.519049 4 12
1 4 12.4807
2 4 12.4808
3 4 12.4808
4 4 12.4807
5 4 12.4807
5 4 12.4807
6 4 12.4807
7 4 12.4808
8 4 12.4808
9 4 12.4807
10 4 12.4807
11 4 12.4807
12 4 12.4806
13 4 12.4806
13 4 12.4806
14 4 12.4806
15 4 12.4806
16 4 12.4806
17 4 12.4806
18 4 12.4806
0.530904 5 12
1 5 12.4688
2 5 12.4688
3 5 12.4688
4 5 12.4687
5 5 12.4688
6 5 12.4688
7 5 12.4688
8 5 12.4688
9 5 12.4688
10 5 12.4687
11 5 12.4687
12 5 12.4687
13 5 12.4687
14 5 12.4687
15 5 12.4687
16 5 12.4687
17 5 12.4687
18 5 12.4687
0.543715 6 12
1 6 12.4558
2 6 12.4558
3 6 12.4558
4 6 12.4557
5 6 12.4558
6 6 12.4559
7 6 12.4558
8 6 12.4558
9 6 12.4558
10 6 12.4557
11 6 12.4557
12 6 12.4557
13 6 12.4558
14 6 12.4557
15 6 12.4557
16 6 12.4557
17 6 12.4557
18 6 12.4557
1 7 12.4443
2 7 12.4442
3 7 12.4441
4 7 12.4441
5 7 12.4442
6 7 12.4442
7 7 12.4441
8 7 12.4442
9 7 12.4442
10 7 12.4441
11 7 12.4442
12 7 12.4442
13 7 12.4442
14 7 12.4441
15 7 12.4441
16 7 12.4441
17 7 12.4441
18 7 12.444
0.554442 8 12
1 8 12.4452
2 8 12.4453
3 8 12.4453
4 8 12.4453
4 8 12.4453
5 8 12.4452
6 8 12.4451
7 8 12.4453
7 8 12.4453
8 8 12.4453
9 8 12.4452
10 8 12.4452
11 8 12.4454
12 8 12.4454
13 8 12.4454
13 8 12.4454
14 8 12.4453
15 8 12.4453
16 8 12.4453
17 8 12.4452
18 8 12.445
1 9 12.6458
2 9 12.647
3 9 12.6468
4 9 12.6476
5 9 12.6485
6 9 12.6463
7 9 12.6475
8 9 12.6485
9 9 12.6489
10 9 12.6464
11 9 12.6477
12 9 12.6479
13 9 12.6481
14 9 12.6478
15 9 12.6482
16 9 12.6487
16 9 12.6487
17 9 12.649
18 9 12.6469
3 0 1 2
3 2 1 3
3 3 1 4
3 3 4 5
3 5 4 6
3 5 6 7
3 7 6 8
3 7 9 10
3 10 9 11
3 10 12 13
3 13 12 14
3 13 14 15
3 15 14 16
3 15 17 18
3 18 17 19
3 18 19 20
3 20 19 21
3 20 21 22
3 22 21 23
3 22 23 24
3 24 23 25
3 24 25 26
3 26 25 27
3 26 27 28
3 28 27 29
3 28 29 30
3 30 29 31
3 30 32 33
3 33 32 34
3 33 35 36
3 36 35 37
3 36 38 39
3 39 38 40
3 39 40 41
3 41 40 42
3 42 43 41
3 44 45 0
3 0 45 1
3 45 4 1
3 46 4 45
3 47 6 4
3 48 6 47
3 49 8 6
3 50 8 49
3 50 11 9
3 51 11 50
3 51 14 12
3 52 14 51
3 52 16 14
3 53 16 52
3 54 19 17
3 55 19 54
3 56 21 19
3 57 21 56
3 58 23 21
3 59 23 58
3 60 25 23
3 61 25 60
3 62 27 25
3 63 27 62
3 64 29 27
3 65 29 64
3 66 31 29
3 67 31 66
3 68 34 32
3 69 34 68
3 70 37 35
3 71 37 70
3 72 40 38
3 73 40 72
3 73 42 40
3 74 42 73
3 75 76 42
3 42 76 43
3 77 78 44
3 44 78 45
3 78 46 45
3 79 46 78
3 80 48 47
3 81 48 80
3 82 50 49
3 83 50 82
3 84 51 50
3 85 51 84
3 86 52 51
3 87 52 86
3 88 53 52
3 89 53 88
3 90 55 54
3 91 55 90
3 92 57 56
3 93 57 92
3 94 59 58
3 95 59 94
3 95 61 60
3 96 61 95
3 97 63 62
3 98 63 97
3 99 65 64
3 100 65 99
3 101 67 66
3 102 67 101
3 102 69 68
3 103 69 102
3 103 71 70
3 104 71 103
3 105 73 72
3 106 73 105
3 106 74 73
3 107 74 106
3 107 108 75
3 75 108 76
3 109 110 77
3 77 110 78
3 111 79 78
3 112 79 111
3 113 81 80
3 114 81 113
3 114 83 82
3 115 83 114
3 116 85 84
3 117 85 116
3 118 87 86
3 119 87 118
3 119 89 88
3 120 89 119
3 120 91 90
3 121 91 120
3 122 93 92
3 123 93 122
3 123 95 94
3 124 95 123
3 124 96 95
3 125 96 124
3 125 98 97
3 126 98 125
3 127 100 99
3 128 100 127
3 128 102 101
3 129 102 128
3 130 103 102
3 131 103 130
3 132 104 103
3 133 104 132
3 134 106 105
3 135 106 134
3 135 107 106
3 136 107 135
3 137 138 107
3 107 138 108
3 139 140 109
3 109 140 110
3 141 112 111
3 142 112 141
3 143 114 113
3 144 114 143
3 144 115 114
3 145 115 144
3 146 117 116
3 147 117 146
3 147 119 118
3 148 119 147
3 149 120 119
3 150 120 149
3 150 121 120
3 151 121 150
3 152 123 122
3 153 123 152
3 153 124 123
3 154 124 153
3 155 125 124
3 156 125 155
3 156 126 125
3 157 126 156
3 158 128 127
3 159 128 158
3 160 129 128
3 161 129 160
3 162 131 130
3 163 131 162
3 164 133 132
3 165 133 164
3 166 135 134
3 167 135 166
3 167 136 135
3 168 136 167
3 168 169 137
3 137 169 138
3 170 171 139
3 139 171 140
3 172 142 141
3 173 142 172
3 174 144 143
3 175 144 174
3 175 145 144
3 176 145 175
3 177 147 146
3 178 147 177
3 179 148 147
3 180 148 179
3 181 150 149
3 182 150 181
3 183 151 150
3 184 151 183
3 185 153 152
3 186 153 185
3 187 154 153
3 188 154 187
3 189 156 155
3 190 156 189
3 190 157 156
3 191 157 190
3 192 159 158
3 193 159 192
3 194 161 160
3 195 161 194
3 195 163 162
3 196 163 195
3 196 165 164
3 197 165 196
3 198 167 166
3 199 167 198
3 200 168 167
3 201 168 200
3 202 203 168
3 168 203 169
3 204 205 170
3 170 205 171
3 206 173 172
3 207 173 206
3 208 175 174
3 209 175 208
3 210 176 175
3 211 176 210
3 212 178 177
3 213 178 212
3 213 180 179
3 214 180 213
3 215 182 181
3 216 182 215
3 216 184 183
3 217 184 216
3 218 186 185
3 219 186 218
3 219 188 187
3 220 188 219
3 221 190 189
3 222 190 221
3 222 191 190
3 223 191 222
3 224 193 192
3 225 193 224
3 225 195 194
3 226 195 225
3 226 196 195
3 227 196 226
3 227 197 196
3 228 197 227
3 229 199 198
3 230 199 229
3 231 201 200
3 232 201 231
3 233 234 202
3 202 234 203
3 235 236 204
3 204 236 205
3 236 207 206
3 237 207 236
3 237 209 208
3 238 209 237
3 238 211 210
3 239 211 238
3 240 213 212
3 241 213 240
3 242 214 213
3 243 214 242
3 244 216 215
3 245 216 244
3 246 217 216
3 247 217 246
3 248 219 218
3 249 219 248
3 249 220 219
3 250 220 249
3 251 222 221
3 252 222 251
3 253 223 222
3 254 223 253
3 255 225 224
3 256 225 255
3 256 226 225
3 257 226 256
3 257 227 226
3 258 227 257
3 259 228 227
3 260 228 259
3 260 230 229
3 261 230 260
3 261 232 231
3 262 232 261
3 263 264 233
3 233 264 234
3 265 266 235
3 235 266 236
3 267 237 236
3 268 237 267
3 268 238 237
3 269 238 268
3 270 239 238
3 271 239 270
3 271 241 240
3 272 241 271
3 273 243 242
3 274 243 273
3 275 245 244
3 276 245 275
3 276 247 246
3 277 247 276
3 278 249 248
3 279 249 278
3 280 250 249
3 281 250 280
3 281 252 251
3 282 252 281
3 283 254 253
3 284 254 283
3 284 256 255
3 285 256 284
3 286 257 256
3 287 257 286
3 288 258 257
3 289 258 288
3 290 260 259
3 291 260 290
3 292 261 260
3 293 261 292
3 294 262 261
3 295 262 294
3 295 296 263
3 263 296 264
3 297 298 265
3 265 298 266
3 298 268 267
3 299 268 298
3 300 269 268
3 301 269 300
3 301 271 270
3 302 271 301
3 303 272 271
3 304 272 303
3 304 274 273
3 305 274 304
3 305 276 275
3 306 276 305
3 307 277 276
3 308 277 307
3 308 279 278
3 309 279 308
3 310 281 280
3 311 281 310
3 311 282 281
3 312 282 311
3 312 284 283
3 313 284 312
3 314 285 284
3 315 285 314
3 316 287 286
3 317 287 316
3 318 289 288
3 319 289 318
3 319 291 290
3 320 291 319
3 320 293 292
3 321 293 320
3 321 295 294
3 322 295 321
3 323 324 295
3 295 324 296
3 325 326 297
3 297 326 298
3 327 299 298
3 328 299 327
3 329 301 300
3 330 301 329
3 331 302 301
3 332 302 331
3 333 304 303
3 334 304 333
3 334 305 304
3 335 305 334
3 336 306 305
3 337 306 336
3 338 308 307
3 339 308 338
3 340 309 308
3 341 309 340
3 342 311 310
3 343 311 342
3 344 312 311
3 345 312 344
3 346 313 312
3 347 313 346
3 348 315 314
3 349 315 348
3 350 317 316
3 351 317 350
3 352 319 318
3 353 319 352
3 354 320 319
3 355 320 354
3 356 321 320
3 357 321 356
3 358 322 321
3 359 322 358
3 360 361 323
3 323 361 324
3 362 326 325
3 363 328 362
3 362 328 327
3 364 330 363
3 363 330 329
3 365 332 364
3 364 332 331
3 366 334 365
3 365 334 333
3 367 335 366
3 366 335 334
3 368 337 367
3 367 337 336
3 369 339 368
3 368 339 338
3 370 341 369
3 369 341 340
3 371 343 370
3 370 343 342
3 372 345 371
3 371 345 344
3 373 347 372
3 372 347 346
3 374 349 373
3 373 349 348
3 375 351 374
3 374 351 350
3 376 353 375
3 375 353 352
3 377 355 376
3 376 355 354
3 378 357 377
3 377 357 356
3 379 359 378
3 378 359 358
3 379 361 360
3 380 381 2
3 2 381 382
3 2 383 380
3 2 3 383
3 3 384 383
3 3 5 384
3 5 385 384
3 5 7 385
3 7 386 385
3 7 10 386
3 10 387 386
3 10 13 387
3 13 388 387
3 13 15 388
3 15 389 388
3 15 18 389
3 18 390 389
3 18 20 390
3 20 391 390
3 20 22 391
3 22 392 391
3 22 24 392
3 24 393 392
3 24 26 393
3 26 394 393
3 26 28 394
3 28 395 394
3 28 30 395
3 30 396 395
3 30 33 396
3 33 397 396
3 33 36 397
3 36 398 397
3 36 39 398
3 39 399 398
3 39 41 399
3 41 43 399
3 399 43 400
3 401 382 381
3 401 402 382
3 43 403 400
3 76 403 43
3 404 402 401
3 404 77 402
3 76 405 403
3 108 405 76
3 406 77 404
3 406 109 77
3 108 407 405
3 138 407 108
3 408 109 406
3 408 409 109
3 138 410 407
3 169 410 138
3 411 409 408
3 411 170 409
3 169 412 410
3 203 412 169
3 413 170 411
3 413 204 170
3 203 414 412
3 234 414 203
3 415 204 413
3 415 416 204
3 234 417 414
3 264 417 234
3 418 416 415
3 418 265 416
3 264 419 417
3 296 419 264
3 420 265 418
3 420 421 265
3 296 422 419
3 324 422 296
3 423 421 420
3 423 325 421
3 324 424 422
3 361 424 324
3 423 425 325
3 325 425 362
3 426 362 425
3 363 362 426
3 427 363 426
3 364 363 427
3 428 364 427
3 365 364 428
3 429 365 428
3 366 365 429
3 430 366 429
3 367 366 430
3 431 367 430
3 368 367 431
3 432 368 431
3 369 368 432
3 433 369 432
3 370 369 433
3 434 370 433
3 371 370 434
3 435 371 434
3 372 371 435
3 436 372 435
3 373 372 436
3 437 373 436
3 374 373 437
3 438 374 437
3 375 374 438
3 439 375 438
3 376 375 439
3 440 376 439
3 377 376 440
3 441 377 440
3 378 377 441
3 442 378 441
3 379 378 442
3 361 379 424
3 424 379 442
3 443 444 380
3 380 444 445
3 380 446 443
3 380 383 446
3 383 447 446
3 383 384 447
3 384 448 447
3 384 385 448
3 385 449 448
3 385 386 449
3 386 450 449
3 386 387 450
3 387 451 450
3 387 388 451
3 388 452 451
3 388 389 452
3 389 453 452
3 389 390 453
3 390 454 453
3 390 391 454
3 391 455 454
3 391 392 455
3 392 456 455
3 392 393 456
3 393 457 456
3 393 394 457
3 394 458 457
3 394 395 458
3 395 459 458
3 395 396 459
3 396 460 459
3 396 397 460
3 397 461 460
3 397 398 461
3 398 462 461
3 398 399 462
3 399 400 462
3 462 400 463
3 464 445 444
3 464 465 445
3 400 466 463
3 403 466 400
3 467 465 464
3 467 404 465
3 403 468 466
3 405 468 403
3 469 404 467
3 469 406 404
3 405 470 468
3 407 470 405
3 471 406 469
3 471 408 406
3 407 472 470
3 410 472 407
3 473 408 471
3 473 474 408
3 410 475 472
3 412 475 410
3 476 474 473
3 476 413 474
3 412 477 475
3 414 477 412
3 478 413 476
3 478 479 413
3 414 480 477
3 417 480 414
3 481 479 478
3 481 482 479
3 417 483 480
3 419 483 417
3 484 482 481
3 484 485 482
3 419 486 483
3 422 486 419
3 487 485 484
3 487 423 485
3 422 488 486
3 424 488 422
3 487 489 423
3 423 489 425
3 490 425 489
3 426 425 490
3 491 426 490
3 427 426 491
3 492 427 491
3 428 427 492
3 493 428 492
3 429 428 493
3 494 429 493
3 430 429 494
3 495 430 494
3 431 430 495
3 496 431 495
3 432 431 496
3 497 432 496
3 433 432 497
3 498 433 497
3 434 433 498
3 499 434 498
3 435 434 499
3 500 435 499
3 436 435 500
3 501 436 500
3 437 436 501
3 502 437 501
3 438 437 502
3 503 438 502
3 439 438 503
3 504 439 503
3 440 439 504
3 505 440 504
3 441 440 505
3 506 441 505
3 442 441 506
3 424 442 488
3 488 442 506
3 507 508 443
3 443 508 509
3 443 510 507
3 443 446 510
3 446 511 510
3 446 447 511
3 447 512 511
3 447 448 512
3 448 513 512
3 448 449 513
3 449 514 513
3 449 450 514
3 450 515 514
3 450 451 515
3 451 516 515
3 451 452 516
3 452 517 516
3 452 453 517
3 453 518 517
3 453 454 518
3 454 519 518
3 454 455 519
3 455 520 519
3 455 456 520
3 456 521 520
3 456 457 521
3 457 522 521
3 457 458 522
3 458 523 522
3 458 459 523
3 459 524 523
3 459 460 524
3 460 525 524
3 460 461 525
3 461 526 525
3 461 462 526
3 462 463 526
3 526 463 527
3 528 509 508
3 528 464 509
3 463 529 527
3 466 529 463
3 530 464 528
3 530 467 464
3 466 531 529
3 468 531 466
3 532 467 530
3 532 533 467
3 468 534 531
3 470 534 468
3 535 533 532
3 535 536 533
3 470 537 534
3 472 537 470
3 538 536 535
3 538 539 536
3 472 540 537
3 475 540 472
3 541 539 538
3 541 476 539
3 475 542 540
3 477 542 475
3 543 476 541
3 543 478 476
3 477 544 542
3 480 544 477
3 545 478 543
3 545 546 478
3 480 547 544
3 483 547 480
3 548 546 545
3 548 484 546
3 483 549 547
3 486 549 483
3 550 487 551
3 487 548 551
3 487 484 548
3 550 551 552
3 550 552 553
3 553 552 554
3 553 554 555
3 555 554 556
3 555 556 557
3 557 556 558
3 557 558 559
3 559 558 560
3 559 560 561
3 561 560 562
3 561 562 563
3 563 562 564
3 563 564 565
3 565 564 566
3 565 566 567
3 567 566 568
3 567 568 569
3 569 568 570
3 569 570 571
3 572 570 573
3 572 573 574
3 574 573 575
3 574 575 576
3 576 575 577
3 576 577 578
3 578 577 579
3 578 579 580
3 580 579 581
3 580 581 582
3 582 581 583
3 582 583 584
3 585 583 586
3 585 586 587
3 586 549 587
3 549 488 587
3 549 486 488
3 550 489 487
3 553 490 550
3 550 490 489
3 555 491 553
3 553 491 490
3 557 492 555
3 555 492 491
3 559 493 557
3 557 493 492
3 561 494 559
3 559 494 493
3 563 495 561
3 561 495 494
3 565 496 563
3 563 496 495
3 567 497 565
3 565 497 496
3 569 498 567
3 567 498 497
3 571 499 569
3 569 499 498
3 574 500 572
3 572 500 499
3 576 501 574
3 574 501 500
3 578 502 576
3 576 502 501
3 580 503 578
3 578 503 502
3 582 504 580
3 580 504 503
3 584 505 582
3 582 505 504
3 587 506 585
3 585 506 505
3 488 506 587
3 588 589 507
3 507 589 590
3 507 591 588
3 507 510 591
3 510 592 591
3 510 511 592
3 511 593 592
3 511 512 593
3 512 594 593
3 512 513 594
3 513 595 594
3 513 514 595
3 514 596 595
3 514 515 596
3 515 597 596
3 515 516 597
3 516 598 597
3 516 517 598
3 517 599 598
3 517 518 599
3 518 600 599
3 518 519 600
3 519 601 600
3 519 520 601
3 520 602 601
3 520 521 602
3 521 603 602
3 521 522 603
3 522 604 603
3 522 523 604
3 523 605 604
3 523 524 605
3 524 606 605
3 524 525 606
3 525 607 606
3 525 526 607
3 526 527 607
3 607 527 608
3 609 590 589
3 609 610 590
3 527 611 608
3 529 611 527
3 612 610 609
3 612 613 610
3 529 614 611
3 531 614 529
3 615 613 612
3 615 616 613
3 531 617 614
3 534 617 531
3 618 616 615
3 618 619 616
3 534 620 617
3 537 620 534
3 621 619 618
3 621 622 619
3 537 623 620
3 540 623 537
3 624 622 621
3 624 541 622
3 540 625 623
3 626 625 540
3 627 541 624
3 627 543 541
3 626 628 625
3 544 628 626
3 629 543 627
3 629 630 543
3 544 631 628
3 547 631 544
3 632 630 629
3 632 633 630
3 547 634 631
3 549 634 547
3 632 635 633
3 633 635 551
3 636 551 635
3 552 551 636
3 637 552 636
3 554 552 637
3 638 554 637
3 556 554 638
3 639 556 638
3 558 556 639
3 640 558 639
3 560 558 640
3 641 560 640
3 562 560 641
3 642 562 641
3 564 562 642
3 643 564 642
3 566 564 643
3 644 566 643
3 568 566 644
3 645 568 644
3 570 568 645
3 646 570 645
3 573 570 646
3 647 573 646
3 575 573 647
3 648 575 647
3 577 575 648
3 649 577 648
3 579 577 649
3 650 579 649
3 581 579 650
3 651 581 650
3 583 581 651
3 652 583 651
3 586 583 652
3 549 586 634
3 634 586 652
3 653 654 588
3 588 654 655
3 588 656 653
3 588 591 656
3 591 657 656
3 591 592 657
3 592 658 657
3 592 593 658
3 593 659 658
3 593 594 659
3 594 660 659
3 594 595 660
3 595 661 660
3 595 596 661
3 596 662 661
3 596 597 662
3 597 663 662
3 597 598 663
3 598 664 663
3 598 599 664
3 599 665 664
3 599 600 665
3 600 666 665
3 600 601 666
3 601 667 666
3 601 602 667
3 602 668 667
3 602 603 668
3 603 669 668
3 603 604 669
3 604 670 669
3 604 605 670
3 605 671 670
3 605 606 671
3 606 672 671
3 606 607 672
3 607 608 672
3 672 608 673
3 674 655 654
3 674 675 655
3 608 676 673
3 611 676 608
3 677 675 674
3 677 612 675
3 611 678 676
3 614 678 611
3 679 612 677
3 679 680 612
3 614 681 678
3 617 681 614
3 682 680 679
3 682 618 680
3 617 683 681
3 620 683 617
3 684 618 682
3 684 621 618
3 620 685 683
3 623 685 620
3 686 621 684
3 686 687 621
3 623 688 685
3 625 688 623
3 689 687 686
3 689 690 687
3 625 691 688
3 628 691 625
3 692 690 689
3 692 629 690
3 628 693 691
3 631 693 628
3 694 629 692
3 694 632 629
3 631 695 693
3 634 695 631
3 694 696 632
3 632 696 635
3 697 635 696
3 636 635 697
3 698 636 697
3 637 636 698
3 699 637 698
3 638 637 699
3 700 638 699
3 639 638 700
3 701 639 700
3 640 639 701
3 702 640 701
3 641 640 702
3 703 641 702
3 642 641 703
3 704 642 703
3 643 642 704
3 705 643 704
3 644 643 705
3 706 644 705
3 645 644 706
3 707 645 706
3 646 645 707
3 708 646 707
3 647 646 708
3 709 647 708
3 648 647 709
3 710 648 709
3 649 648 710
3 711 649 710
3 650 649 711
3 712 650 711
3 651 650 712
3 713 651 712
3 652 651 713
3 634 652 695
3 695 652 713
3 714 715 653
3 653 715 654
3 653 716 714
3 653 656 716
3 656 717 716
3 656 657 717
3 657 718 717
3 657 658 718
3 658 719 718
3 658 659 719
3 659 720 719
3 659 660 720
3 660 721 720
3 660 661 721
3 661 722 721
3 661 662 722
3 662 723 722
3 662 663 723
3 663 724 723
3 663 664 724
3 664 725 724
3 664 665 725
3 665 726 725
3 665 666 726
3 666 727 726
3 666 667 727
3 667 728 727
3 667 668 728
3 668 729 728
3 668 669 729
3 669 730 729
3 669 670 730
3 670 731 730
3 670 671 731
3 671 732 731
3 671 672 732
3 672 673 732
3 732 673 733
3 734 654 715
3 734 735 654
3 673 736 733
3 676 736 673
3 737 735 734
3 737 677 735
3 676 738 736
3 678 738 676
3 739 677 737
3 739 679 677
3 678 740 738
3 681 740 678
3 741 679 739
3 741 742 679
3 681 743 740
3 683 743 681
3 744 742 741
3 744 684 742
3 683 745 743
3 685 745 683
3 746 684 744
3 746 686 684
3 685 747 745
3 688 747 685
3 748 686 746
3 748 689 686
3 688 749 747
3 691 749 688
3 750 689 748
3 750 751 689
3 691 752 749
3 693 752 691
3 753 751 750
3 753 694 751
3 693 754 752
3 695 754 693
3 753 755 694
3 694 755 696
3 756 696 755
3 697 696 756
3 757 697 756
3 698 697 757
3 758 698 757
3 699 698 758
3 759 699 758
3 700 699 759
3 760 700 759
3 701 700 760
3 761 701 760
3 702 701 761
3 762 702 761
3 703 702 762
3 763 703 762
3 704 703 763
3 764 704 763
3 705 704 764
3 765 705 764
3 706 705 765
3 766 706 765
3 707 706 766
3 767 707 766
3 708 707 767
3 768 708 767
3 709 708 768
3 769 709 768
3 710 709 769
3 770 710 769
3 711 710 770
3 771 711 770
3 712 711 771
3 772 712 771
3 713 712 772
3 695 713 754
3 754 713 772
3 773 774 714
3 714 774 775
3 714 776 773
3 714 716 776
3 716 777 776
3 716 717 777
3 717 778 777
3 717 718 778
3 718 779 778
3 718 719 779
3 719 780 779
3 719 720 780
3 720 781 780
3 720 721 781
3 721 782 781
3 721 722 782
3 722 783 782
3 722 723 783
3 723 784 783
3 723 724 784
3 724 785 784
3 724 725 785
3 725 786 785
3 725 726 786
3 726 787 786
3 726 727 787
3 727 788 787
3 727 728 788
3 728 789 788
3 728 729 789
3 729 790 789
3 729 730 790
3 730 791 790
3 730 731 791
3 731 792 791
3 731 732 792
3 732 733 792
3 792 733 793
3 794 775 774
3 794 734 775
3 733 795 793
3 736 795 733
3 796 734 794
3 796 797 734
3 736 798 795
3 738 798 736
3 799 797 796
3 799 800 797
3 738 801 798
3 740 801 738
3 802 800 799
3 802 803 800
3 740 804 801
3 743 804 740
3 805 803 802
3 805 806 803
3 743 807 804
3 745 807 743
3 808 806 805
3 808 809 806
3 745 810 807
3 747 810 745
3 811 809 808
3 811 748 809
3 747 812 810
3 749 812 747
3 813 748 811
3 813 814 748
3 749 815 812
3 752 815 749
3 816 814 813
3 816 817 814
3 752 818 815
3 754 818 752
3 816 819 817
3 817 819 755
3 820 755 819
3 756 755 820
3 821 756 820
3 757 756 821
3 822 757 821
3 758 757 822
3 823 758 822
3 759 758 823
3 824 759 823
3 760 759 824
3 825 760 824
3 761 760 825
3 826 761 825
3 762 761 826
3 827 762 826
3 763 762 827
3 828 763 827
3 764 763 828
3 829 764 828
3 765 764 829
3 830 765 829
3 766 765 830
3 831 766 830
3 767 766 831
3 832 767 831
3 768 767 832
3 833 768 832
3 769 768 833
3 834 769 833
3 770 769 834
3 835 770 834
3 771 770 835
3 836 771 835
3 772 771 836
3 754 772 818
3 818 772 836
3 837 838 773
3 773 838 774
3 773 839 837
3 773 776 839
3 776 840 839
3 776 777 840
3 777 841 840
3 777 778 841
3 778 842 841
3 778 779 842
3 779 843 842
3 779 780 843
3 780 844 843
3 780 781 844
3 781 845 844
3 781 782 845
3 782 846 845
3 782 783 846
3 783 847 846
3 783 784 847
3 784 848 847
3 784 785 848
3 785 849 848
3 785 786 849
3 786 850 849
3 786 787 850
3 787 851 850
3 787 788 851
3 788 852 851
3 788 789 852
3 789 853 852
3 789 790 853
3 790 854 853
3 790 791 854
3 791 855 854
3 791 792 855
3 792 793 855
3 855 793 856
3 857 774 838
3 857 858 774
3 793 859 856
3 795 859 793
3 860 858 857
3 860 796 858
3 795 861 859
3 798 861 795
3 862 796 860
3 862 863 796
3 798 864 861
3 801 864 798
3 865 863 862
3 865 802 863
3 801 866 864
3 804 866 801
3 867 802 865
3 867 868 802
3 804 869 866
3 807 869 804
3 870 868 867
3 870 871 868
3 807 872 869
3 810 872 807
3 873 871 870
3 873 811 871
3 810 874 872
3 812 874 810
3 875 811 873
3 875 876 811
3 812 877 874
3 815 877 812
3 878 876 875
3 878 879 876
3 815 880 877
3 818 880 815
3 878 881 879
3 879 881 819
3 882 819 881
3 820 819 882
3 883 820 882
3 821 820 883
3 884 821 883
3 822 821 884
3 885 822 884
3 823 822 885
3 886 823 885
3 824 823 886
3 887 824 886
3 825 824 887
3 888 825 887
3 826 825 888
3 889 826 888
3 827 826 889
3 890 827 889
3 828 827 890
3 891 828 890
3 829 828 891
3 892 829 891
3 830 829 892
3 893 830 892
3 831 830 893
3 894 831 893
3 832 831 894
3 895 832 894
3 833 832 895
3 896 833 895
3 834 833 896
3 897 834 896
3 835 834 897
3 898 835 897
3 836 835 898
3 818 836 880
3 880 836 898
3 899 900 837
3 837 900 901
3 837 902 899
3 837 839 902
3 839 903 902
3 839 840 903
3 840 904 903
3 840 841 904
3 841 905 904
3 841 842 905
3 842 906 905
3 842 843 906
3 843 907 906
3 843 844 907
3 844 908 907
3 844 845 908
3 845 909 908
3 845 846 909
3 846 910 909
3 846 847 910
3 847 911 910
3 847 848 911
3 848 912 911
3 848 849 912
3 849 913 912
3 849 850 913
3 850 914 913
3 850 851 914
3 851 915 914
3 851 852 915
3 852 916 915
3 852 853 916
3 853 917 916
3 853 854 917
3 854 918 917
3 854 855 918
3 855 856 918
3 918 856 919
3 920 901 900
3 920 921 901
3 856 922 919
3 859 922 856
3 923 921 920
3 923 924 921
3 859 925 922
3 861 925 859
3 926 924 923
3 926 862 924
3 861 927 925
3 864 927 861
3 928 862 926
3 928 929 862
3 864 930 927
3 866 930 864
3 931 929 928
3 931 867 929
3 866 932 930
3 869 932 866
3 933 867 931
3 933 870 867
3 869 934 932
3 872 934 869
3 935 870 933
3 935 873 870
3 872 936 934
3 874 936 872
3 937 873 935
3 937 875 873
3 874 938 936
3 877 938 874
3 939 878 940
3 878 937 940
3 878 875 937
3 939 940 941
3 939 941 942
3 942 941 943
3 942 943 944
3 944 943 945
3 944 945 946
3 947 946 945
3 948 949 950
3 948 950 951
3 948 951 952
3 952 951 953
3 952 953 954
3 955 954 953
3 956 957 958
3 956 958 959
3 956 959 960
3 960 959 961
3 960 961 962
3 962 961 963
3 962 963 964
3 964 963 965
3 964 965 966
3 966 965 967
3 966 967 968
3 968 967 969
3 968 969 970
3 971 970 969
3 877 972 938
3 880 972 877
3 939 881 878
3 942 882 939
3 939 882 881
3 944 883 942
3 942 883 882
3 946 884 944
3 944 884 883
3 947 973 946
3 973 884 946
3 973 885 884
3 948 886 949
3 886 973 949
3 886 885 973
3 952 887 948
3 948 887 886
3 954 888 952
3 952 888 887
3 955 974 954
3 974 888 954
3 974 889 888
3 975 889 974
3 890 889 975
3 956 891 957
3 891 975 957
3 891 890 975
3 960 892 956
3 956 892 891
3 962 893 960
3 960 893 892
3 964 894 962
3 962 894 893
3 966 895 964
3 964 895 894
3 968 896 966
3 966 896 895
3 970 897 968
3 968 897 896
3 971 976 970
3 976 897 970
3 976 898 897
3 880 898 972
3 972 898 976
3 977 978 899
3 899 978 979
3 899 980 977
3 899 902 980
3 902 981 980
3 902 903 981
3 903 982 981
3 903 904 982
3 904 983 982
3 904 905 983
3 905 984 983
3 905 906 984
3 906 985 984
3 906 907 985
3 907 986 985
3 907 908 986
3 908 987 986
3 908 909 987
3 909 988 987
3 909 910 988
3 910 989 988
3 910 911 989
3 911 990 989
3 911 912 990
3 912 991 990
3 912 913 991
3 913 992 991
3 913 914 992
3 914 993 992
3 914 915 993
3 915 994 993
3 915 916 994
3 916 995 994
3 916 917 995
3 917 996 995
3 917 918 996
3 918 919 996
3 996 919 997
3 998 979 978
3 998 920 979
3 919 999 997
3 922 999 919
3 1000 920 998
3 1000 1001 920
3 922 1002 999
3 925 1002 922
3 1003 1001 1000
3 1003 926 1001
3 925 1004 1002
3 927 1004 925
3 1005 926 1003
3 1005 1006 926
3 927 1007 1004
3 930 1007 927
3 1008 1006 1005
3 1008 1009 1006
3 930 1010 1007
3 932 1010 930
3 1011 1009 1008
3 1011 1012 1009
3 932 1013 1010
3 934 1013 932
3 1014 1012 1011
3 1014 935 1012
3 934 1015 1013
3 936 1015 934
3 1016 935 1014
3 1016 937 935
3 936 1017 1015
3 938 1017 936
3 1016 1018 937
3 937 1018 940
3 1019 940 1018
3 941 940 1019
3 1020 941 1019
3 943 941 1020
3 1021 943 1020
3 945 943 1021
3 1022 1023 947
3 945 1022 947
3 1021 1022 945
3 950 949 1024
3 1022 950 1024
3 1025 950 1022
3 1026 950 1025
3 951 950 1026
3 1027 951 1026
3 953 951 1027
3 1028 1029 955
3 953 1028 955
3 1027 1028 953
3 1029 1028 1030
3 1029 1030 1031
3 958 957 1031
3 1030 958 1031
3 1032 958 1030
3 1033 958 1032
3 959 958 1033
3 1034 959 1033
3 961 959 1034
3 1035 961 1034
3 963 961 1035
3 1036 963 1035
3 965 963 1036
3 1037 965 1036
3 967 965 1037
3 1038 967 1037
3 969 967 1038
3 1039 1040 971
3 969 1039 971
3 1038 1039 969
3 1039 1017 1040
3 1017 972 1040
3 1017 938 972
3 1023 973 947
3 949 973 1024
3 1029 974 955
3 1031 975 1029
3 1029 975 974
3 957 975 1031
3 1040 976 971
3 972 976 1040
3 1041 1042 977
3 977 1042 1043
3 977 1044 1041
3 977 980 1044
3 980 1045 1044
3 980 981 1045
3 981 1046 1045
3 981 982 1046
3 982 1047 1046
3 982 983 1047
3 983 1048 1047
3 983 984 1048
3 984 1049 1048
3 984 985 1049
3 985 1050 1049
3 985 986 1050
3 986 1051 1050
3 986 987 1051
3 987 1052 1051
3 987 988 1052
3 988 1053 1052
3 988 989 1053
3 989 1054 1053
3 989 990 1054
3 990 1055 1054
3 990 991 1055
3 991 1056 1055
3 991 992 1056
3 992 1057 1056
3 992 993 1057
3 993 1058 1057
3 993 994 1058
3 994 1059 1058
3 994 995 1059
3 995 1060 1059
3 995 996 1060
3 996 997 1060
3 1060 997 1061
3 1062 1043 1042
3 1062 998 1043
3 997 1063 1061
3 999 1063 997
3 1064 998 1062
3 1064 1065 998
3 999 1066 1063
3 1002 1066 999
3 1067 1065 1064
3 1067 1068 1065
3 1002 1069 1066
3 1004 1069 1002
3 1070 1068 1067
3 1070 1071 1068
3 1004 1072 1069
3 1007 1072 1004
3 1073 1071 1070
3 1073 1074 1071
3 1007 1075 1072
3 1010 1075 1007
3 1076 1074 1073
3 1076 1077 1074
3 1010 1078 1075
3 1013 1078 1010
3 1079 1077 1076
3 1079 1080 1077
3 1013 1081 1078
3 1015 1081 1013
3 1082 1080 1079
3 1082 1083 1080
3 1015 1084 1081
3 1017 1084 1015
3 1082 1085 1083
3 1083 1085 1018
3 1086 1018 1085
3 1019 1018 1086
3 1087 1019 1086
3 1020 1019 1087
3 1088 1020 1087
3 1021 1020 1088
3 1089 1021 1088
3 1022 1021 1089
3 1090 1022 1089
3 1025 1022 1090
3 1091 1025 1090
3 1026 1025 1091
3 1092 1026 1091
3 1027 1026 1092
3 1093 1027 1092
3 1028 1027 1093
3 1094 1028 1093
3 1030 1028 1094
3 1095 1030 1094
3 1032 1030 1095
3 1096 1032 1095
3 1033 1032 1096
3 1097 1033 1096
3 1034 1033 1097
3 1098 1034 1097
3 1035 1034 1098
3 1099 1035 1098
3 1036 1035 1099
3 1100 1036 1099
3 1037 1036 1100
3 1101 1037 1100
3 1038 1037 1101
3 1102 1038 1101
3 1039 1038 1102
3 1017 1039 1084
3 1084 1039 1102
3 1041 1103 1042
3 1103 1041 1104
3 1104 1041 1044
3 1104 1044 1105
3 1105 1044 1045
3 1105 1045 1106
3 1106 1045 1046
3 1106 1046 1107
3 1107 1046 1047
3 1107 1047 1108
3 1108 1047 1048
3 1108 1048 1109
3 1109 1048 1049
3 1109 1049 1110
3 1110 1049 1050
3 1110 1050 1111
3 1111 1050 1051
3 1111 1051 1112
3 1112 1051 1052
3 1112 1052 1113
3 1113 1052 1053
3 1113 1053 1114
3 1114 1053 1054
3 1114 1054 1115
3 1115 1054 1055
3 1115 1055 1116
3 1116 1055 1056
3 1116 1056 1117
3 1117 1056 1057
3 1117 1057 1118
3 1118 1057 1058
3 1118 1058 1119
3 1119 1058 1059
3 1119 1059 1120
3 1120 1059 1060
3 1060 1061 1120
3 1042 1103 1062
3 1062 1103 1121
3 1104 1121 1103
3 1104 1122 1121
3 1105 1122 1104
3 1105 1123 1122
3 1106 1123 1105
3 1106 1124 1123
3 1107 1124 1106
3 1107 1125 1124
3 1108 1125 1107
3 1108 1126 1125
3 1109 1126 1108
3 1109 1127 1126
3 1110 1127 1109
3 1110 1128 1127
3 1111 1128 1110
3 1111 1129 1128
3 1112 1129 1111
3 1112 1130 1129
3 1113 1130 1112
3 1113 1131 1130
3 1114 1131 1113
3 1114 1132 1131
3 1115 1132 1114
3 1115 1133 1132
3 1116 1133 1115
3 1116 1134 1133
3 1117 1134 1116
3 1117 1135 1134
3 1118 1135 1117
3 1118 1136 1135
3 1119 1136 1118
3 1119 1137 1136
3 1120 1137 1119
3 1120 1138 1137
3 1120 1061 1138
3 1138 1061 1063
3 1062 1121 1139
3 1139 1121 1140
3 1122 1140 1121
3 1122 1141 1140
3 1123 1141 1122
3 1123 1142 1141
3 1124 1142 1123
3 1124 1143 1142
3 1125 1143 1124
3 1125 1144 1143
3 1126 1144 1125
3 1126 1145 1144
3 1127 1146 1126
3 1127 1147 1146
3 1128 1147 1127
3 1128 1148 1147
3 1129 1149 1128
3 1129 1150 1149
3 1130 1150 1129
3 1130 1151 1150
3 1131 1151 1130
3 1131 1152 1151
3 1132 1152 1131
3 1132 1153 1152
3 1133 1153 1132
3 1133 1154 1153
3 1134 1154 1133
3 1134 1155 1154
3 1135 1155 1134
3 1135 1156 1155
3 1136 1156 1135
3 1136 1157 1156
3 1137 1157 1136
3 1137 1158 1157
3 1138 1158 1137
3 1138 1159 1158
3 1138 1063 1159
3 1159 1063 1066
3 1139 1140 1160
3 1160 1140 1161
3 1141 1161 1140
3 1141 1162 1161
3 1142 1162 1141
3 1142 1163 1162
3 1143 1163 1142
3 1143 1164 1163
3 1144 1164 1143
3 1144 1165 1164
3 1145 1166 1144
3 1145 1167 1166
3 1147 1167 1146
3 1147 1168 1167
3 1148 1168 1147
3 1148 1169 1168
3 1150 1169 1149
3 1150 1170 1169
3 1151 1170 1150
3 1151 1171 1170
3 1152 1171 1151
3 1152 1172 1171
3 1153 1172 1152
3 1153 1173 1172
3 1154 1173 1153
3 1154 1174 1173
3 1155 1175 1154
3 1155 1176 1175
3 1156 1176 1155
3 1156 1177 1176
3 1157 1177 1156
3 1157 1178 1177
3 1158 1178 1157
3 1158 1179 1178
3 1159 1179 1158
3 1159 1180 1179
3 1159 1066 1180
3 1180 1066 1069
3 1160 1161 1181
3 1181 1161 1182
3 1162 1182 1161
3 1162 1183 1182
3 1163 1183 1162
3 1163 1184 1183
3 1164 1184 1163
3 1164 1185 1184
3 1165 1185 1164
3 1165 1186 1185
3 1167 1186 1166
3 1167 1187 1186
3 1168 1187 1167
3 1168 1188 1187
3 1169 1188 1168
3 1169 1189 1188
3 1170 1189 1169
3 1170 1190 1189
3 1171 1190 1170
3 1171 1191 1190
3 1172 1191 1171
3 1172 1192 1191
3 1173 1192 1172
3 1173 1193 1192
3 1174 1193 1173
3 1174 1194 1193
3 1176 1194 1175
3 1176 1195 1194
3 1177 1195 1176
3 1177 1196 1195
3 1178 1196 1177
3 1178 1197 1196
3 1179 1197 1178
3 1179 1198 1197
3 1180 1198 1179
3 1180 1199 1198
3 1180 1069 1199
3 1199 1069 1072
3 1181 1182 1200
3 1200 1182 1201
3 1183 1201 1182
3 1183 1202 1201
3 1184 1202 1183
3 1184 1203 1202
3 1185 1203 1184
3 1185 1204 1203
3 1186 1204 1185
3 1186 1205 1204
3 1187 1205 1186
3 1187 1206 1205
3 1188 1206 1187
3 1188 1207 1206
3 1189 1207 1188
3 1189 1208 1207
3 1190 1208 1189
3 1190 1209 1208
3 1191 1209 1190
3 1191 1210 1209
3 1192 1210 1191
3 1192 1211 1210
3 1193 1211 1192
3 1193 1212 1211
3 1194 1212 1193
3 1194 1213 1212
3 1195 1213 1194
3 1195 1214 1213
3 1196 1214 1195
3 1196 1215 1214
3 1197 1215 1196
3 1197 1216 1215
3 1198 1216 1197
3 1198 1217 1216
3 1199 1217 1198
3 1199 1218 1217
3 1199 1072 1218
3 1218 1072 1075
3 1200 1201 1076
3 1076 1201 1219
3 1202 1219 1201
3 1202 1220 1219
3 1203 1220 1202
3 1203 1221 1220
3 1204 1221 1203
3 1204 1222 1221
3 1205 1222 1204
3 1205 1223 1222
3 1206 1223 1205
3 1206 1224 1223
3 1207 1224 1206
3 1207 1225 1224
3 1208 1225 1207
3 1208 1226 1225
3 1209 1226 1208
3 1209 1227 1226
3 1210 1227 1209
3 1210 1228 1227
3 1211 1228 1210
3 1211 1229 1228
3 1212 1229 1211
3 1212 1230 1229
3 1213 1230 1212
3 1213 1231 1230
3 1214 1231 1213
3 1214 1232 1231
3 1215 1232 1214
3 1215 1233 1232
3 1216 1233 1215
3 1216 1234 1233
3 1217 1234 1216
3 1217 1235 1234
3 1218 1235 1217
3 1218 1236 1235
3 1218 1075 1236
3 1236 1075 1078
3 1076 1219 1237
3 1237 1219 1238
3 1220 1238 1219
3 1220 1239 1238
3 1221 1239 1220
3 1221 1240 1239
3 1222 1240 1221
3 1222 1241 1240
3 1223 1242 1222
3 1223 1243 1242
3 1224 1243 1223
3 1224 1244 1243
3 1225 1244 1224
3 1225 1245 1244
3 1226 1246 1225
3 1226 1247 1246
3 1227 1247 1226
3 1227 1248 1247
3 1228 1248 1227
3 1228 1249 1248
3 1229 1249 1228
3 1229 1250 1249
3 1230 1250 1229
3 1230 1251 1250
3 1231 1251 1230
3 1231 1252 1251
3 1232 1253 1231
3 1232 1254 1253
3 1233 1254 1232
3 1233 1255 1254
3 1234 1255 1233
3 1234 1256 1255
3 1235 1256 1234
3 1235 1257 1256
3 1236 1257 1235
3 1236 1258 1257
3 1236 1078 1258
3 1258 1078 1081
3 1237 1238 1082
3 1082 1238 1259
3 1239 1259 1238
3 1239 1260 1259
3 1240 1260 1239
3 1240 1261 1260
3 1241 1261 1240
3 1241 1262 1261
3 1243 1262 1242
3 1243 1263 1262
3 1244 1263 1243
3 1244 1264 1263
3 1245 1264 1244
3 1245 1265 1264
3 1247 1265 1246
3 1247 1266 1265
3 1248 1266 1247
3 1248 1267 1266
3 1249 1267 1248
3 1249 1268 1267
3 1250 1268 1249
3 1250 1269 1268
3 1251 1269 1250
3 1251 1270 1269
3 1252 1270 1251
3 1252 1271 1270
3 1254 1271 1253
3 1254 1272 1271
3 1255 1272 1254
3 1255 1273 1272
3 1256 1273 1255
3 1256 1274 1273
3 1257 1275 1256
3 1257 1276 1275
3 1258 1276 1257
3 1258 1277 1276
3 1258 1081 1277
3 1277 1081 1084
3 1259 1085 1082
3 1260 1086 1259
3 1259 1086 1085
3 1261 1087 1260
3 1260 1087 1086
3 1262 1088 1261
3 1261 1088 1087
3 1263 1089 1262
3 1262 1089 1088
3 1264 1090 1263
3 1263 1090 1089
3 1265 1091 1264
3 1264 1091 1090
3 1266 1092 1265
3 1265 1092 1091
3 1267 1093 1266
3 1266 1093 1092
3 1268 1094 1267
3 1267 1094 1093
3 1269 1095 1268
3 1268 1095 1094
3 1270 1096 1269
3 1269 1096 1095
3 1271 1097 1270
3 1270 1097 1096
3 1272 1098 1271
3 1271 1098 1097
3 1273 1099 1272
3 1272 1099 1098
3 1274 1100 1273
3 1273 1100 1099
3 1276 1101 1275
3 1275 1101 1100
3 1277 1102 1276
3 1276 1102 1101
3 1084 1102 1277
