ply
format ascii 1.0
element vertex 1278
property float x
property float y
property float z
element face 2140
property list uchar int vertex_index
end_header
0.566317 1 1
1 1 0.566317
1 0.56649 1
1 1 0.566317
2 0.566472 1
2 1 0.566298
3 0.566455 1
3 1 0.566281
3 1 0.566281
4 0.566441 1
4 1 0.566267
4 1 0.566267
5 0.566431 1
5 1 0.566257
6 0.566425 1
6 1 0.566251
7 0.566423 1
7 1 0.566249
8 0.566424 1
8 1 0.56625
9 0.566428 1
9 1 0.566254
9 1 0.566254
10 0.566433 1
10 1 0.566259
10 1 0.566259
11 0.566439 1
11 1 0.566265
12 0.566446 1
12 1 0.566272
13 0.566453 1
13 1 0.566279
14 0.566459 1
14 1 0.566285
15 0.566466 1
15 1 0.566292
15 1 0.566292
16 0.566472 1
16 1 0.566298
17 0.566478 1
17 1 0.566303
17 1 0.566303
18 0.566481 1
18 1 0.566307
18.4337 1 1
0.538091 2 1
1 2 0.538091
2 2 0.53807
2 2 0.53807
3 2 0.538047
3 2 0.538047
4 2 0.538025
4 2 0.538025
5 2 0.538006
6 2 0.537992
6 2 0.537992
7 2 0.537983
8 2 0.537978
9 2 0.537977
9 2 0.537977
10 2 0.537979
10 2 0.537979
11 2 0.537982
12 2 0.537987
13 2 0.537993
13 2 0.537993
14 2 0.537998
15 2 0.538004
15 2 0.538004
16 2 0.538009
16 2 0.538009
17 2 0.538015
17 2 0.538015
18 2 0.538018
18.462 2 1
0.506425 3 1
1 3 0.506425
2 3 0.506396
2 3 0.506396
3 3 0.506361
3 3 0.506361
4 3 0.506326
4 3 0.506326
5 3 0.506295
6 3 0.50627
7 3 0.506251
8 3 0.50624
9 3 0.506234
9 3 0.506234
10 3 0.506233
11 3 0.506234
12 3 0.506238
12 3 0.506238
13 3 0.506242
13 3 0.506242
14 3 0.506248
15 3 0.506253
15 3 0.506253
16 3 0.506258
17 3 0.506263
18 3 0.506267
18 3 0.506267
18.4937 3 1
0.470277 4 1
1 4 0.470277
2 4 0.470233
2 4 0.470233
3 4 0.470177
3 4 0.470177
4 4 0.47012
5 4 0.470067
5 4 0.470067
6 4 0.470025
6 4 0.470025
7 4 0.469994
8 4 0.469974
8 4 0.469974
9 4 0.469963
10 4 0.469959
10 4 0.469959
11 4 0.46996
11 4 0.46996
12 4 0.469963
12 4 0.469963
13 4 0.469967
13 4 0.469967
14 4 0.469972
14 4 0.469972
15 4 0.469978
15 4 0.469978
16 4 0.469983
17 4 0.469988
17 4 0.469988
18 4 0.469991
18 4 0.469991
18.53 4 1
0.428099 5 1
1 5 0.428099
1 5 0.428099
2 5 0.428025
3 5 0.427927
3 5 0.427927
4 5 0.427827
4 5 0.427827
5 5 0.427738
5 5 0.427738
6 5 0.427668
6 5 0.427668
7 5 0.42762
7 5 0.42762
8 5 0.42759
8 5 0.42759
9 5 0.427575
9 5 0.427575
10 5 0.427569
10 5 0.427569
11 5 0.427569
11 5 0.427569
12 5 0.427573
12 5 0.427573
13 5 0.427578
13 5 0.427578
14 5 0.427584
14 5 0.427584
15 5 0.42759
15 5 0.42759
16 5 0.427596
17 5 0.427601
17 5 0.427601
18 5 0.427604
18 5 0.427604
18.5724 5 1
0.378495 6 1
1 6 0.378495
1 6 0.378495
2 6 0.378359
2 6 0.378359
3 6 0.378173
3 6 0.378173
4 6 0.377994
4 6 0.377994
5 6 0.377843
5 6 0.377843
6 6 0.377731
6 6 0.377731
7 6 0.37766
8 6 0.377621
8 6 0.377621
9 6 0.377603
10 6 0.377599
11 6 0.377601
12 6 0.377608
12 6 0.377608
13 6 0.377615
14 6 0.377623
14 6 0.377623
15 6 0.37763
15 6 0.37763
16 6 0.377636
16 6 0.377636
17 6 0.377641
18 6 0.377644
18.6224 6 1
0.643649 7 1
1 7 0.643649
2 7 0.643461
2 7 0.643461
3 7 0.643327
3 7 0.643327
4 7 0.643258
4 7 0.643258
5 7 0.643231
5 7 0.643231
6 7 0.643241
6 7 0.643241
7 7 0.643274
8 7 0.643314
8 7 0.643314
9 7 0.643353
9 7 0.643353
10 7 0.643386
10 7 0.643386
11 7 0.643414
12 7 0.643436
12 7 0.643436
13 7 0.643454
14 7 0.643468
14 7 0.643468
15 7 0.643479
15 7 0.643479
16 7 0.643488
17 7 0.643496
17 7 0.643496
18 7 0.643501
18 7 0.643501
18.3565 7 1
0.634482 8 1
1 8 0.634482
2 8 0.634018
2 8 0.634018
3 8 0.633664
3 8 0.633664
4 8 0.633507
4 8 0.633507
5 8 0.63342
6 8 0.633415
7 8 0.633462
7 8 0.633462
8 8 0.633521
8 8 0.633521
9 8 0.633575
10 8 0.63362
10 8 0.63362
11 8 0.633656
11 8 0.633656
12 8 0.633683
12 8 0.633683
13 8 0.633704
13 8 0.633704
14 8 0.63372
14 8 0.63372
15 8 0.633732
15 8 0.633732
16 8 0.633741
16 8 0.633741
17 8 0.633749
18 8 0.633753
18 8 0.633753
18.3662 8 1
0.583305 9 1
1 9 0.583304
1 9 0.583304
2 9 0.581772
2 9 0.581772
3 9 0.580298
3 9 0.580298
4 9 0.579852
5 9 0.579595
5 9 0.579595
6 9 0.579557
6 9 0.579557
7 9 0.57965
8 9 0.579755
8 9 0.579755
9 9 0.57984
10 9 0.579907
10 9 0.579907
11 9 0.579956
11 9 0.579956
12 9 0.579992
13 9 0.580019
14 9 0.580037
14 9 0.580037
15 9 0.580051
16 9 0.580061
16 9 0.580061
17 9 0.580068
17 9 0.580068
18 9 0.580072
18 9 0.580072
18.4199 9 1
0.445686 10 1
1 10 0.445685
2 10 0.443317
2 10 0.443317
3 10 0.439676
3 10 0.439676
4 10 0.439313
5 10 0.439547
5 10 0.439547
6 10 0.439894
6 10 0.439894
7 10 0.44026
7 10 0.44026
8 10 0.440517
8 10 0.440517
9 10 0.440684
9 10 0.440684
10 10 0.440795
10 10 0.440795
11 10 0.440869
12 10 0.440917
12 10 0.440917
13 10 0.44095
14 10 0.440972
14 10 0.440972
15 10 0.440987
16 10 0.440997
16 10 0.440997
17 10 0.441004
17 10 0.441004
18 10 0.441008
18 10 0.441008
18.559 10 1
1 10.5543 1
2 10.5567 1
3 10.5603 1
4 10.5607 1
5 10.5605 1
6 10.5601 1
7 10.5597 1
8 10.5595 1
9 10.5593 1
10 10.5592 1
11 10.5591 1
12 10.5591 1
13 10.5591 1
14 10.559 1
15 10.559 1
16 10.559 1
17 10.559 1
18 10.559 1
1 0.588481 2
0.588311 1 2
0.566317 1 1
2 0.588463 2
3 0.588447 2
4 0.588435 2
5 0.588426 2
6 0.588423 2
7 0.588423 2
8 0.588426 2
9 0.588431 2
10 0.588438 2
11 0.588445 2
12 0.588453 2
13 0.588461 2
14 0.588468 2
15 0.588475 2
16 0.588482 2
17 0.588488 2
18 0.588492 2
18.4117 1 2
0.559574 2 2
0.538091 2 1
18.4405 2 2
0.528078 3 2
0.506425 3 1
18.472 3 2
0.492796 4 2
0.470277 4 1
18.5074 4 2
0.452365 5 2
0.428099 5 1
18.548 5 2
0.405625 6 2
18.595 6 2
0.68758 7 2
0.643649 7 1
18.3123 7 2
0.687592 8 2
18.3125 8 2
0.651159 9 2
0.583305 9 1
18.3503 9 2
0.552464 10 2
18.4523 10 2
1 10.4475 2
2 10.4494 2
3 10.4522 2
4 10.453 2
5 10.4536 2
6 10.4535 2
7 10.4531 2
8 10.4529 2
9 10.4527 2
10 10.4526 2
11 10.4525 2
12 10.4524 2
13 10.4524 2
14 10.4524 2
15 10.4523 2
16 10.4523 2
17 10.4523 2
18 10.4523 2
1 0.606902 3
0.606744 1 3
0.588311 1 2
2 0.606885 3
3 0.60687 3
4 0.606859 3
5 0.606852 3
6 0.60685 3
7 0.606851 3
8 0.606855 3
9 0.606861 3
10 0.606868 3
11 0.606876 3
12 0.606884 3
13 0.606892 3
14 0.6069 3
15 0.606907 3
16 0.606914 3
17 0.60692 3
18 0.606924 3
18.3932 1 3
0.578455 2 3
0.559574 2 2
18.4216 2 3
0.548086 3 3
18.452 3 3
0.51476 4 3
0.492796 4 2
18.4854 4 3
0.477455 5 3
0.452365 5 2
18.5228 5 3
0.435423 6 3
0.405625 6 2
18.565 6 3
0.712048 7 3
0.68758 7 2
18.2877 7 3
0.725509 8 3
0.687592 8 2
18.2745 8 3
0.692041 9 3
18.3095 9 3
0.465095 10 3
0.552464 10 2
18.5619 10 3
1 10.5349 3
2 10.5469 3
3 10.5447 3
4 10.5447 3
5 10.5549 3
6 10.5616 3
7 10.5625 3
8 10.5623 3
9 10.5622 3
10 10.5621 3
11 10.562 3
12 10.562 3
13 10.562 3
14 10.5619 3
15 10.5619 3
16 10.5619 3
17 10.5619 3
18 10.5619 3
1 0.621134 4
0.620995 1 4
0.606744 1 3
2 0.621118 4
3 0.621105 4
4 0.621095 4
5 0.621089 4
6 0.621087 4
7 0.621088 4
8 0.621091 4
9 0.621097 4
10 0.621104 4
11 0.621111 4
12 0.621119 4
13 0.621127 4
14 0.621134 4
15 0.621141 4
16 0.621148 4
17 0.621154 4
18 0.621158 4
18.379 1 4
0.594002 2 4
18.406 2 4
0.565483 3 4
0.548086 3 3
18.4346 3 4
0.534768 4 4
0.51476 4 3
18.4653 4 4
0.501151 5 4
18.499 5 4
0.463699 6 4
0.435423 6 3
18.5365 6 4
0.418417 7 4
0.712048 7 3
18.5818 7 4
0.718748 8 4
18.2812 8 4
0.487039 9 4
0.692041 9 3
18.5121 9 4
0.524358 10 4
18.499 10 4
1 10.4754 4
2 10.4856 4
3 10.4808 4
4 10.4802 4
5 10.4845 4
6 10.4898 4
7 10.4949 4
8 10.4959 4
9 10.4985 4
10 10.4992 4
11 10.4991 4
12 10.499 4
13 10.499 4
14 10.4989 4
15 10.4989 4
16 10.4989 4
17 10.4989 4
18 10.4989 4
1 0.631225 5
0.631109 1 5
2 0.631211 5
3 0.6312 5
4 0.631191 5
5 0.631185 5
6 0.631182 5
7 0.631182 5
8 0.631185 5
9 0.631189 5
10 0.631195 5
11 0.631202 5
12 0.631208 5
13 0.631215 5
14 0.631222 5
15 0.631228 5
16 0.631234 5
17 0.63124 5
18 0.631244 5
18.3689 1 5
0.606127 2 5
0.594002 2 4
18.3939 2 5
0.580009 3 5
0.565483 3 4
18.42 3 5
0.552293 4 5
18.4478 4 5
0.522123 5 5
0.501151 5 4
18.478 5 5
0.477987 6 5
0.463699 6 4
18.522 6 5
0.291379 7 5
0.418417 7 4
18.7082 7 5
0.293556 8 5
0.718748 8 4
18.7057 8 5
0.505177 9 5
18.4945 9 5
0.558231 10 5
18.4607 10 5
1 10.4408 5
2 10.4497 5
3 10.4461 5
4 10.4468 5
5 10.4457 5
6 10.4462 5
7 10.4507 5
8 10.454 5
9 10.4574 5
10 10.456 5
11 10.4592 5
12 10.4604 5
13 10.4603 5
14 10.4603 5
15 10.4603 5
16 10.4602 5
17 10.4602 5
18 10.4602 5
1 0.637563 6
0.637473 1 6
2 0.637551 6
3 0.637541 6
4 0.637533 6
5 0.637528 6
6 0.637525 6
7 0.637524 6
8 0.637526 6
9 0.637529 6
10 0.637533 6
11 0.637538 6
12 0.637543 6
13 0.637549 6
14 0.637554 6
15 0.63756 6
16 0.637565 6
17 0.63757 6
18 0.637574 6
18.3625 1 6
0.615047 2 6
18.385 2 6
0.591391 3 6
0.580009 3 5
18.4086 3 6
0.559312 4 6
0.552293 4 5
18.4407 4 6
0.528091 5 6
18.4719 5 6
0.330328 6 6
18.6694 6 6
0.332256 7 6
18.6674 7 6
0.338504 8 6
18.661 8 6
0.349309 9 6
18.6506 9 6
1 10 5.7414
1 9.80896 6
2 9.8127 6
2 10 5.74983
3 9.81118 6
3 10 5.74646
4 9.81143 6
4 10 5.74705
5 9.81098 6
5 10 5.74601
6 9.81118 6
6 10 5.74638
7 9.81315 6
7 10 5.7507
8 9.81455 6
8 10 5.75383
9 9.81606 6
9 10 5.75709
10 9.81543 6
10 10 5.75571
11 9.81687 6
11 10 5.75881
12 9.81741 6
12 10 5.75992
13 9.81736 6
13 10 5.75983
14 9.81734 6
14 10 5.7598
15 9.81733 6
15 10 5.75978
15 10 5.75978
16 9.81732 6
16 10 5.75977
17 9.81731 6
17 10 5.75976
17 10 5.75976
18 9.81731 6
18 10 5.75976
1 0.63212 7
0.632068 1 7
2 0.632111 7
3 0.632103 7
4 0.632096 7
5 0.632091 7
6 0.632089 7
7 0.632088 7
8 0.632089 7
9 0.632091 7
10 0.632094 7
11 0.632098 7
12 0.632102 7
13 0.632107 7
14 0.632111 7
15 0.632116 7
16 0.63212 7
17 0.632125 7
18 0.632128 7
18.3679 1 7
0.612717 2 7
0.615047 2 6
18.3873 2 7
0.585755 3 7
0.591391 3 6
18.4142 3 7
0.361258 4 7
18.6386 4 7
0.360494 5 7
18.6394 5 7
0.362129 6 7
18.6377 6 7
0.367062 7 7
0.332256 7 6
18.6327 7 7
0.375629 8 7
18.6241 8 7
0.387333 9 7
0.349309 9 6
18.6127 9 7
1 9.62636 7
2 9.62673 7
3 9.62655 7
4 9.62654 7
5 9.62656 7
6 9.62658 7
7 9.62678 7
8 9.62695 7
9 9.62717 7
10 9.62711 7
11 9.62727 7
12 9.62735 7
13 9.62737 7
14 9.62738 7
15 9.62738 7
16 9.62738 7
17 9.62737 7
18 9.62737 7
1 0.397372 8
0.397357 1 8
2 0.39737 8
3 0.397369 8
4 0.397371 8
5 0.397375 8
6 0.397381 8
7 0.397387 8
8 0.397395 8
9 0.397403 8
10 0.397411 8
11 0.397419 8
12 0.397426 8
13 0.397433 8
14 0.397438 8
15 0.397443 8
16 0.397448 8
17 0.397451 8
18 0.397453 8
18.6026 1 8
0.390367 2 8
0.612717 2 7
18.6096 2 8
0.386259 3 8
18.6137 3 8
0.384569 4 8
0.361258 4 7
18.6153 4 8
0.385627 5 8
18.6143 5 8
0.389381 6 8
0.362129 6 7
18.6105 6 8
0.396023 7 8
18.6038 7 8
0.405791 8 8
0.375629 8 7
18.5941 8 8
0.4179 9 8
18.5822 9 8
1 9.58256 8
2 9.58253 8
3 9.58253 8
4 9.58254 8
5 9.58261 8
6 9.58255 8
7 9.5825 8
8 9.58258 8
9 9.58265 8
10 9.58265 8
11 9.58263 8
12 9.58266 8
13 9.58269 8
14 9.58273 8
15 9.58274 8
16 9.58273 8
17 9.58272 8
18 9.58272 8
1 0.412508 9
0.412499 1 9
2 0.412506 9
3 0.412506 9
4 0.412507 9
5 0.41251 9
6 0.412515 9
7 0.412521 9
8 0.412527 9
9 0.412534 9
10 0.412541 9
11 0.412547 9
12 0.412553 9
13 0.412559 9
14 0.412564 9
15 0.412568 9
16 0.412572 9
17 0.412575 9
18 0.412577 9
18.5874 1 9
0.407006 2 9
18.5929 2 9
0.404425 3 9
0.386259 3 8
18.5955 3 9
0.404452 4 9
18.5955 4 9
0.407067 5 9
0.385627 5 8
18.5928 5 9
0.412277 6 9
0.389381 6 8
18.5876 6 9
0.420098 7 9
0.396023 7 8
18.5798 7 9
0.430535 8 9
18.5694 8 9
0.442695 9 9
18.5574 9 9
1 9.55728 9
2 9.55724 9
3 9.55728 9
4 9.55732 9
5 9.55733 9
6 9.55725 9
7 9.55729 9
8 9.55738 9
9 9.5574 9
10 9.55737 9
11 9.55733 9
12 9.5573 9
13 9.55736 9
14 9.5574 9
15 9.55742 9
16 9.55742 9
17 9.55741 9
18 9.5574 9
1 0.424573 10
0.424568 1 10
0.412499 1 9
2 0.424571 10
3 0.42457 10
4 0.424572 10
5 0.424575 10
6 0.424579 10
7 0.424583 10
8 0.424588 10
9 0.424594 10
10 0.4246 10
11 0.424605 10
12 0.42461 10
13 0.424615 10
14 0.424619 10
15 0.424623 10
16 0.424626 10
17 0.424629 10
18 0.42463 10
18.5754 1 10
0.420583 2 10
0.407006 2 9
18.5794 2 10
0.419485 3 10
0.404425 3 9
18.5805 3 10
0.42097 4 10
0.404452 4 9
18.579 4 10
0.424964 5 10
0.407067 5 9
18.575 5 10
0.431391 6 10
0.412277 6 9
18.5685 6 10
0.440136 7 10
18.5598 7 10
0.45106 8 10
0.430535 8 9
18.5489 8 10
0.463241 9 10
0.442695 9 9
18.5369 9 10
1 9.53672 10
2 9.53668 10
3 9.53676 10
4 9.53678 10
5 9.53677 10
6 9.53677 10
7 9.53682 10
8 9.53686 10
9 9.53682 10
10 9.53675 10
11 9.53675 10
12 9.53676 10
13 9.53682 10
14 9.53687 10
15 9.5369 10
16 9.5369 10
17 9.5369 10
18 9.5369 10
1 0.433709 11
0.433707 1 11
2 0.433706 11
3 0.433705 11
4 0.433707 11
5 0.43371 11
6 0.433714 11
7 0.433717 11
8 0.433721 11
9 0.433726 11
10 0.43373 11
11 0.433735 11
12 0.43374 11
13 0.433744 11
14 0.433747 11
15 0.43375 11
16 0.433752 11
17 0.433755 11
18 0.433756 11
18.5662 1 11
0.431216 2 11
0.420583 2 10
18.5687 2 11
0.431564 3 11
0.419485 3 10
18.5684 3 11
0.434437 4 11
0.42097 4 10
18.5655 4 11
0.439716 5 11
0.424964 5 10
18.5602 5 11
0.447249 6 11
0.431391 6 10
18.5527 6 11
0.456839 7 11
0.440136 7 10
18.5431 7 11
0.468245 8 11
0.45106 8 10
18.5317 8 11
0.480553 9 11
18.5197 9 11
1 9.51941 11
2 9.5194 11
3 9.51953 11
4 9.51955 11
5 9.51953 11
6 9.51954 11
7 9.51956 11
8 9.51955 11
9 9.51947 11
10 9.51945 11
11 9.51949 11
12 9.51952 11
13 9.51954 11
14 9.51957 11
15 9.5196 11
16 9.51962 11
17 9.51963 11
18 9.51962 11
1 0.439889 12
0.439888 1 12
2 0.439878 12
3 0.439877 12
4 0.439879 12
5 0.439881 12
6 0.439888 12
7 0.439888 12
8 0.439891 12
9 0.439895 12
10 0.439898 12
11 0.439902 12
12 0.439905 12
13 0.439909 12
14 0.439911 12
15 0.439913 12
16 0.439915 12
17 0.439917 12
18 0.439918 12
18.5601 1 12
0.438864 2 12
0.431216 2 11
18.5611 2 12
0.440636 3 12
0.431564 3 11
18.5593 3 12
0.444873 4 12
0.434437 4 11
18.5551 4 12
0.451415 5 12
0.439716 5 11
18.5485 5 12
0.46006 6 12
0.447249 6 11
18.5399 6 12
0.470541 7 12
0.456839 7 11
18.5294 7 12
0.482558 8 12
0.468245 8 11
18.5174 8 12
0.495227 9 12
0.480553 9 11
18.505 9 12
1 9.50473 12
2 9.50477 12
3 9.50484 12
4 9.50489 12
5 9.50487 12
6 9.50487 12
7 9.50485 12
8 9.50483 12
9 9.50482 12
10 9.50484 12
11 9.50485 12
12 9.50484 12
13 9.50485 12
14 9.50488 12
15 9.50493 12
16 9.50496 12
17 9.50496 12
18 9.50495 12
1 0.444523 13
0.444523 1 13
0.439888 1 12
2 0.444497 13
3 0.444508 13
4 0.444508 13
5 0.444511 13
6 0.44453 13
7 0.444519 13
8 0.444529 13
9 0.444528 13
10 0.444532 13
11 0.444545 13
12 0.444544 13
13 0.444546 13
14 0.444549 13
15 0.444552 13
16 0.444555 13
17 0.444558 13
18 0.444559 13
18.5554 1 13
0.444659 2 13
0.438864 2 12
18.5554 2 13
0.447466 3 13
0.440636 3 12
18.5527 3 13
0.452699 4 13
0.444873 4 12
18.5475 4 13
0.460155 5 13
0.451415 5 12
18.5402 5 13
0.469581 6 13
0.46006 6 12
18.5308 6 13
0.480631 7 13
18.5197 7 13
0.492827 8 13
0.482558 8 12
18.5074 8 13
0.505517 9 13
18.4947 9 13
1 9.49444 13
2 9.4944 13
3 9.49375 13
4 9.49417 13
5 9.49452 13
6 9.49457 13
7 9.49439 13
8 9.49452 13
9 9.49459 13
10 9.49445 13
11 9.49452 13
12 9.4943 13
13 9.49449 13
14 9.49429 13
15 9.49451 13
16 9.49467 13
17 9.49469 13
18 9.49469 13
1 1 13.5555
0.444523 1 13
2 1 13.5555
3 1 13.5555
4 1 13.5555
5 1 13.5555
6 1 13.5555
7 1 13.5555
8 1 13.5555
9 1 13.5555
10 1 13.5555
11 1 13.5554
12 1 13.5555
13 1 13.5554
14 1 13.5554
15 1 13.5554
16 1 13.5554
17 1 13.5554
18 1 13.5554
0.444659 2 13
1 2 13.5553
2 2 13.5554
3 2 13.5554
4 2 13.5554
5 2 13.5554
6 2 13.5554
7 2 13.5554
8 2 13.5554
9 2 13.5554
10 2 13.5554
10 2 13.5554
11 2 13.5554
11 2 13.5554
12 2 13.5554
13 2 13.5554
14 2 13.5554
15 2 13.5554
16 2 13.5554
17 2 13.5554
18 2 13.5554
0.447466 3 13
1 3 13.5525
2 3 13.5527
3 3 13.5527
4 3 13.5526
5 3 13.5527
6 3 13.5526
7 3 13.5526
8 3 13.5527
9 3 13.5526
10 3 13.5527
11 3 13.5527
12 3 13.5527
13 3 13.5526
14 3 13.5526
14 3 13.5526
15 3 13.5527
16 3 13.5527
17 3 13.5527
18 3 13.5527
0.452699 4 13
1 4 13.5473
1 4 13.5473
2 4 13.5475
3 4 13.5475
4 4 13.5474
5 4 13.5475
6 4 13.5474
7 4 13.5475
8 4 13.5475
9 4 13.5475
9 4 13.5475
10 4 13.5475
11 4 13.5475
12 4 13.5475
13 4 13.5474
14 4 13.5475
15 4 13.5475
16 4 13.5475
17 4 13.5475
18 4 13.5475
0.460155 5 13
1 5 13.5398
2 5 13.5401
3 5 13.5402
4 5 13.54
5 5 13.5401
6 5 13.5399
7 5 13.5401
8 5 13.5402
9 5 13.5402
10 5 13.54
11 5 13.5401
12 5 13.5401
13 5 13.54
14 5 13.5401
15 5 13.5401
16 5 13.5401
17 5 13.5401
18 5 13.5401
0.469581 6 13
1 6 13.5304
2 6 13.5307
2 6 13.5307
3 6 13.5308
4 6 13.5306
5 6 13.5307
6 6 13.5306
7 6 13.5307
8 6 13.5308
9 6 13.5308
10 6 13.5308
11 6 13.5306
12 6 13.5307
13 6 13.5307
14 6 13.5307
15 6 13.5307
16 6 13.5307
17 6 13.5308
18 6 13.5308
0.480631 7 13
1 7 13.5193
2 7 13.5196
3 7 13.5197
4 7 13.5193
5 7 13.5195
6 7 13.5197
7 7 13.5197
8 7 13.5197
9 7 13.5197
10 7 13.5197
11 7 13.5195
12 7 13.5195
13 7 13.5196
14 7 13.5196
15 7 13.5197
16 7 13.5197
17 7 13.5197
18 7 13.5197
18 7 13.5197
0.492827 8 13
1 8 13.5071
2 8 13.5073
3 8 13.507
4 8 13.5068
5 8 13.5072
6 8 13.5073
7 8 13.5072
8 8 13.5073
9 8 13.5073
10 8 13.5073
11 8 13.5072
12 8 13.5072
13 8 13.5072
14 8 13.5071
15 8 13.5073
16 8 13.5073
17 8 13.5073
18 8 13.5073
0.505517 9 13
1 9 13.4945
2 9 13.4944
3 9 13.4938
4 9 13.4942
5 9 13.4945
6 9 13.4946
7 9 13.4944
8 9 13.4945
9 9 13.4946
10 9 13.4945
11 9 13.4945
12 9 13.4943
13 9 13.4945
14 9 13.4943
15 9 13.4945
16 9 13.4947
17 9 13.4947
17 9 13.4947
18 9 13.4947
3 0 1 2
3 2 3 4
3 4 3 5
3 4 5 6
3 6 5 7
3 6 8 9
3 9 8 10
3 9 11 12
3 12 11 13
3 12 13 14
3 14 13 15
3 14 15 16
3 16 15 17
3 16 17 18
3 18 17 19
3 18 19 20
3 20 19 21
3 20 22 23
3 23 22 24
3 23 25 26
3 26 25 27
3 26 27 28
3 28 27 29
3 28 29 30
3 30 29 31
3 30 31 32
3 32 31 33
3 32 33 34
3 34 33 35
3 34 36 37
3 37 36 38
3 37 38 39
3 39 38 40
3 39 41 42
3 42 41 43
3 43 44 42
3 45 46 0
3 0 46 1
3 46 5 3
3 47 5 46
3 48 7 5
3 49 7 48
3 50 10 8
3 51 10 50
3 52 13 11
3 53 13 52
3 53 15 13
3 54 15 53
3 55 17 15
3 56 17 55
3 56 19 17
3 57 19 56
3 57 21 19
3 58 21 57
3 59 24 22
3 60 24 59
3 61 27 25
3 62 27 61
3 62 29 27
3 63 29 62
3 63 31 29
3 64 31 63
3 65 33 31
3 66 33 65
3 66 35 33
3 67 35 66
3 68 38 36
3 69 38 68
3 70 40 38
3 71 40 70
3 72 43 41
3 73 43 72
3 73 74 43
3 43 74 44
3 75 76 45
3 45 76 46
3 76 47 46
3 77 47 76
3 78 49 48
3 79 49 78
3 80 51 50
3 81 51 80
3 82 53 52
3 83 53 82
3 83 54 53
3 84 54 83
3 84 56 55
3 85 56 84
3 85 57 56
3 86 57 85
3 86 58 57
3 87 58 86
3 88 60 59
3 89 60 88
3 89 62 61
3 90 62 89
3 90 63 62
3 91 63 90
3 92 64 63
3 93 64 92
3 94 66 65
3 95 66 94
3 95 67 66
3 96 67 95
3 97 69 68
3 98 69 97
3 98 71 70
3 99 71 98
3 99 73 72
3 100 73 99
3 101 102 73
3 73 102 74
3 103 104 75
3 75 104 76
3 104 77 76
3 105 77 104
3 106 79 78
3 107 79 106
3 108 81 80
3 109 81 108
3 109 83 82
3 110 83 109
3 111 84 83
3 112 84 111
3 113 85 84
3 114 85 113
3 114 86 85
3 115 86 114
3 116 87 86
3 117 87 116
3 117 89 88
3 118 89 117
3 119 90 89
3 120 90 119
3 121 91 90
3 122 91 121
3 123 93 92
3 124 93 123
3 125 95 94
3 126 95 125
3 127 96 95
3 128 96 127
3 129 98 97
3 130 98 129
3 130 99 98
3 131 99 130
3 132 100 99
3 133 100 132
3 134 135 101
3 101 135 102
3 136 137 103
3 103 137 104
3 138 105 104
3 139 105 138
3 139 107 106
3 140 107 139
3 141 109 108
3 142 109 141
3 143 110 109
3 144 110 143
3 145 112 111
3 146 112 145
3 147 114 113
3 148 114 147
3 149 115 114
3 150 115 149
3 151 117 116
3 152 117 151
3 153 118 117
3 154 118 153
3 155 120 119
3 156 120 155
3 157 122 121
3 158 122 157
3 159 124 123
3 160 124 159
3 161 126 125
3 162 126 161
3 163 128 127
3 164 128 163
3 165 130 129
3 166 130 165
3 166 131 130
3 167 131 166
3 168 133 132
3 169 133 168
3 170 171 134
3 134 171 135
3 172 173 136
3 136 173 137
3 174 139 138
3 175 139 174
3 176 140 139
3 177 140 176
3 178 142 141
3 179 142 178
3 180 144 143
3 181 144 180
3 182 146 145
3 183 146 182
3 184 148 147
3 185 148 184
3 185 150 149
3 186 150 185
3 187 152 151
3 188 152 187
3 188 154 153
3 189 154 188
3 189 156 155
3 190 156 189
3 190 158 157
3 191 158 190
3 192 160 159
3 193 160 192
3 193 162 161
3 194 162 193
3 195 164 163
3 196 164 195
3 197 166 165
3 198 166 197
3 199 167 166
3 200 167 199
3 200 169 168
3 201 169 200
3 201 202 170
3 170 202 171
3 203 204 172
3 172 204 173
3 204 175 174
3 205 175 204
3 206 177 176
3 207 177 206
3 208 179 178
3 209 179 208
3 210 181 180
3 211 181 210
3 212 183 182
3 213 183 212
3 214 185 184
3 215 185 214
3 215 186 185
3 216 186 215
3 217 188 187
3 218 188 217
3 219 189 188
3 220 189 219
3 221 190 189
3 222 190 221
3 222 191 190
3 223 191 222
3 224 193 192
3 225 193 224
3 225 194 193
3 226 194 225
3 227 196 195
3 228 196 227
3 229 198 197
3 230 198 229
3 230 200 199
3 231 200 230
3 232 201 200
3 233 201 232
3 234 235 201
3 201 235 202
3 236 237 203
3 203 237 204
3 237 205 204
3 238 205 237
3 239 207 206
3 240 207 239
3 241 209 208
3 242 209 241
3 243 211 210
3 244 211 243
3 244 213 212
3 245 213 244
3 245 215 214
3 246 215 245
3 247 216 215
3 248 216 247
3 249 218 217
3 250 218 249
3 250 220 219
3 251 220 250
3 252 222 221
3 253 222 252
3 254 223 222
3 255 223 254
3 256 225 224
3 257 225 256
3 258 226 225
3 259 226 258
3 260 228 227
3 261 228 260
3 262 230 229
3 263 230 262
3 264 231 230
3 265 231 264
3 265 233 232
3 266 233 265
3 267 268 234
3 234 268 235
3 269 270 236
3 236 270 237
3 271 238 237
3 272 238 271
3 273 240 239
3 274 240 273
3 275 242 241
3 276 242 275
3 276 244 243
3 277 244 276
3 278 245 244
3 279 245 278
3 280 246 245
3 281 246 280
3 281 248 247
3 282 248 281
3 283 250 249
3 284 250 283
3 284 251 250
3 285 251 284
3 286 253 252
3 287 253 286
3 288 255 254
3 289 255 288
3 289 257 256
3 290 257 289
3 290 259 258
3 291 259 290
3 292 261 260
3 293 261 292
3 293 263 262
3 294 263 293
3 295 265 264
3 296 265 295
3 297 266 265
3 298 266 297
3 299 300 267
3 267 300 268
3 301 302 269
3 269 302 270
3 302 272 271
3 303 272 302
3 304 274 273
3 305 274 304
3 306 276 275
3 307 276 306
3 307 277 276
3 308 277 307
3 309 279 278
3 310 279 309
3 311 281 280
3 312 281 311
3 313 282 281
3 314 282 313
3 315 284 283
3 316 284 315
3 317 285 284
3 318 285 317
3 319 287 286
3 320 287 319
3 320 289 288
3 321 289 320
3 322 290 289
3 323 290 322
3 323 291 290
3 324 291 323
3 325 293 292
3 326 293 325
3 326 294 293
3 327 294 326
3 328 296 295
3 329 296 328
3 330 298 297
3 331 298 330
3 332 333 299
3 299 333 300
3 334 302 301
3 335 303 334
3 334 303 302
3 336 305 335
3 335 305 304
3 337 307 336
3 336 307 306
3 338 308 337
3 337 308 307
3 339 310 338
3 338 310 309
3 340 312 339
3 339 312 311
3 341 314 340
3 340 314 313
3 342 316 341
3 341 316 315
3 343 318 342
3 342 318 317
3 344 320 343
3 343 320 319
3 345 321 344
3 344 321 320
3 346 323 345
3 345 323 322
3 347 324 346
3 346 324 323
3 348 326 347
3 347 326 325
3 349 327 348
3 348 327 326
3 350 329 349
3 349 329 328
3 351 331 350
3 350 331 330
3 351 333 332
3 352 353 2
3 2 353 354
3 2 355 352
3 2 4 355
3 4 356 355
3 4 6 356
3 6 357 356
3 6 9 357
3 9 358 357
3 9 12 358
3 12 359 358
3 12 14 359
3 14 360 359
3 14 16 360
3 16 361 360
3 16 18 361
3 18 362 361
3 18 20 362
3 20 363 362
3 20 23 363
3 23 364 363
3 23 26 364
3 26 365 364
3 26 28 365
3 28 366 365
3 28 30 366
3 30 367 366
3 30 32 367
3 32 368 367
3 32 34 368
3 34 369 368
3 34 37 369
3 37 370 369
3 37 39 370
3 39 371 370
3 39 42 371
3 42 44 371
3 371 44 372
3 373 354 353
3 373 374 354
3 44 375 372
3 74 375 44
3 376 374 373
3 376 377 374
3 74 378 375
3 102 378 74
3 379 377 376
3 379 380 377
3 102 381 378
3 135 381 102
3 382 380 379
3 382 383 380
3 135 384 381
3 171 384 135
3 385 383 382
3 385 172 383
3 171 386 384
3 202 386 171
3 387 172 385
3 387 388 172
3 202 389 386
3 235 389 202
3 390 388 387
3 390 236 388
3 235 391 389
3 268 391 235
3 392 236 390
3 392 393 236
3 268 394 391
3 300 394 268
3 395 393 392
3 395 301 393
3 300 396 394
3 333 396 300
3 395 397 301
3 301 397 334
3 398 334 397
3 335 334 398
3 399 335 398
3 336 335 399
3 400 336 399
3 337 336 400
3 401 337 400
3 338 337 401
3 402 338 401
3 339 338 402
3 403 339 402
3 340 339 403
3 404 340 403
3 341 340 404
3 405 341 404
3 342 341 405
3 406 342 405
3 343 342 406
3 407 343 406
3 344 343 407
3 408 344 407
3 345 344 408
3 409 345 408
3 346 345 409
3 410 346 409
3 347 346 410
3 411 347 410
3 348 347 411
3 412 348 411
3 349 348 412
3 413 349 412
3 350 349 413
3 414 350 413
3 351 350 414
3 333 351 396
3 396 351 414
3 415 416 352
3 352 416 417
3 352 418 415
3 352 355 418
3 355 419 418
3 355 356 419
3 356 420 419
3 356 357 420
3 357 421 420
3 357 358 421
3 358 422 421
3 358 359 422
3 359 423 422
3 359 360 423
3 360 424 423
3 360 361 424
3 361 425 424
3 361 362 425
3 362 426 425
3 362 363 426
3 363 427 426
3 363 364 427
3 364 428 427
3 364 365 428
3 365 429 428
3 365 366 429
3 366 430 429
3 366 367 430
3 367 431 430
3 367 368 431
3 368 432 431
3 368 369 432
3 369 433 432
3 369 370 433
3 370 434 433
3 370 371 434
3 371 372 434
3 434 372 435
3 436 417 416
3 436 437 417
3 372 438 435
3 375 438 372
3 439 437 436
3 439 376 437
3 375 440 438
3 378 440 375
3 441 376 439
3 441 442 376
3 378 443 440
3 381 443 378
3 444 442 441
3 444 445 442
3 381 446 443
3 384 446 381
3 447 445 444
3 447 448 445
3 384 449 446
3 386 449 384
3 450 448 447
3 450 451 448
3 386 452 449
3 389 452 386
3 453 451 450
3 453 454 451
3 389 455 452
3 391 455 389
3 456 454 453
3 456 392 454
3 391 457 455
3 394 457 391
3 458 392 456
3 458 459 392
3 394 460 457
3 396 460 394
3 458 461 459
3 459 461 397
3 462 397 461
3 398 397 462
3 463 398 462
3 399 398 463
3 464 399 463
3 400 399 464
3 465 400 464
3 401 400 465
3 466 401 465
3 402 401 466
3 467 402 466
3 403 402 467
3 468 403 467
3 404 403 468
3 469 404 468
3 405 404 469
3 470 405 469
3 406 405 470
3 471 406 470
3 407 406 471
3 472 407 471
3 408 407 472
3 473 408 472
3 409 408 473
3 474 409 473
3 410 409 474
3 475 410 474
3 411 410 475
3 476 411 475
3 412 411 476
3 477 412 476
3 413 412 477
3 478 413 477
3 414 413 478
3 396 414 460
3 460 414 478
3 479 480 415
3 415 480 481
3 415 482 479
3 415 418 482
3 418 483 482
3 418 419 483
3 419 484 483
3 419 420 484
3 420 485 484
3 420 421 485
3 421 486 485
3 421 422 486
3 422 487 486
3 422 423 487
3 423 488 487
3 423 424 488
3 424 489 488
3 424 425 489
3 425 490 489
3 425 426 490
3 426 491 490
3 426 427 491
3 427 492 491
3 427 428 492
3 428 493 492
3 428 429 493
3 429 494 493
3 429 430 494
3 430 495 494
3 430 431 495
3 431 496 495
3 431 432 496
3 432 497 496
3 432 433 497
3 433 498 497
3 433 434 498
3 434 435 498
3 498 435 499
3 500 481 480
3 500 436 481
3 435 501 499
3 438 501 435
3 502 436 500
3 502 503 436
3 438 504 501
3 440 504 438
3 505 503 502
3 505 506 503
3 440 507 504
3 443 507 440
3 508 506 505
3 508 444 506
3 443 509 507
3 446 509 443
3 510 444 508
3 510 511 444
3 446 512 509
3 449 512 446
3 513 511 510
3 513 514 511
3 449 515 512
3 452 515 449
3 516 514 513
3 516 453 514
3 452 517 515
3 455 517 452
3 518 453 516
3 518 519 453
3 455 520 517
3 457 520 455
3 521 519 518
3 521 458 519
3 457 522 520
3 460 522 457
3 521 523 458
3 458 523 461
3 524 461 523
3 462 461 524
3 525 462 524
3 463 462 525
3 526 463 525
3 464 463 526
3 527 464 526
3 465 464 527
3 528 465 527
3 466 465 528
3 529 466 528
3 467 466 529
3 530 467 529
3 468 467 530
3 531 468 530
3 469 468 531
3 532 469 531
3 470 469 532
3 533 470 532
3 471 470 533
3 534 471 533
3 472 471 534
3 535 472 534
3 473 472 535
3 536 473 535
3 474 473 536
3 537 474 536
3 475 474 537
3 538 475 537
3 476 475 538
3 539 476 538
3 477 476 539
3 540 477 539
3 478 477 540
3 460 478 522
3 522 478 540
3 541 542 479
3 479 542 480
3 479 543 541
3 479 482 543
3 482 544 543
3 482 483 544
3 483 545 544
3 483 484 545
3 484 546 545
3 484 485 546
3 485 547 546
3 485 486 547
3 486 548 547
3 486 487 548
3 487 549 548
3 487 488 549
3 488 550 549
3 488 489 550
3 489 551 550
3 489 490 551
3 490 552 551
3 490 491 552
3 491 553 552
3 491 492 553
3 492 554 553
3 492 493 554
3 493 555 554
3 493 494 555
3 494 556 555
3 494 495 556
3 495 557 556
3 495 496 557
3 496 558 557
3 496 497 558
3 497 559 558
3 497 498 559
3 498 499 559
3 559 499 560
3 561 480 542
3 561 562 480
3 499 563 560
3 501 563 499
3 564 562 561
3 564 565 562
3 501 566 563
3 504 566 501
3 567 565 564
3 567 505 565
3 504 568 566
3 507 568 504
3 569 505 567
3 569 570 505
3 507 571 568
3 509 571 507
3 572 570 569
3 572 573 570
3 509 574 571
3 512 574 509
3 575 573 572
3 575 576 573
3 512 577 574
3 515 577 512
3 578 576 575
3 578 579 576
3 515 580 577
3 517 580 515
3 581 579 578
3 581 518 579
3 517 582 580
3 520 582 517
3 583 518 581
3 583 521 518
3 520 584 582
3 522 584 520
3 583 585 521
3 521 585 523
3 586 523 585
3 524 523 586
3 587 524 586
3 525 524 587
3 588 525 587
3 526 525 588
3 589 526 588
3 527 526 589
3 590 527 589
3 528 527 590
3 591 528 590
3 529 528 591
3 592 529 591
3 530 529 592
3 593 530 592
3 531 530 593
3 594 531 593
3 532 531 594
3 595 532 594
3 533 532 595
3 596 533 595
3 534 533 596
3 597 534 596
3 535 534 597
3 598 535 597
3 536 535 598
3 599 536 598
3 537 536 599
3 600 537 599
3 538 537 600
3 601 538 600
3 539 538 601
3 602 539 601
3 540 539 602
3 522 540 584
3 584 540 602
3 603 604 541
3 541 604 542
3 541 605 603
3 541 543 605
3 543 606 605
3 543 544 606
3 544 607 606
3 544 545 607
3 545 608 607
3 545 546 608
3 546 609 608
3 546 547 609
3 547 610 609
3 547 548 610
3 548 611 610
3 548 549 611
3 549 612 611
3 549 550 612
3 550 613 612
3 550 551 613
3 551 614 613
3 551 552 614
3 552 615 614
3 552 553 615
3 553 616 615
3 553 554 616
3 554 617 616
3 554 555 617
3 555 618 617
3 555 556 618
3 556 619 618
3 556 557 619
3 557 620 619
3 557 558 620
3 558 621 620
3 558 559 621
3 559 560 621
3 621 560 622
3 623 542 604
3 623 561 542
3 560 624 622
3 563 624 560
3 625 561 623
3 625 626 561
3 563 627 624
3 566 627 563
3 628 626 625
3 628 629 626
3 566 630 627
3 568 630 566
3 631 629 628
3 631 569 629
3 568 632 630
3 571 632 568
3 633 569 631
3 633 572 569
3 571 634 632
3 574 634 571
3 635 572 633
3 635 575 572
3 574 636 634
3 577 636 574
3 637 575 635
3 637 578 575
3 577 638 636
3 580 638 577
3 639 578 637
3 639 581 578
3 580 640 638
3 582 640 580
3 641 583 642
3 583 639 642
3 583 581 639
3 641 642 643
3 641 643 644
3 644 643 645
3 644 645 646
3 646 645 647
3 646 647 648
3 648 647 649
3 648 649 650
3 650 649 651
3 650 651 652
3 652 651 653
3 652 653 654
3 654 653 655
3 654 655 656
3 656 655 657
3 656 657 658
3 658 657 659
3 658 659 660
3 660 659 661
3 660 661 662
3 662 661 663
3 662 663 664
3 664 663 665
3 664 665 666
3 666 665 667
3 666 667 668
3 668 667 669
3 668 669 670
3 671 669 672
3 671 672 673
3 673 672 674
3 673 674 675
3 676 674 677
3 676 677 678
3 677 640 678
3 640 584 678
3 640 582 584
3 641 585 583
3 644 586 641
3 641 586 585
3 646 587 644
3 644 587 586
3 648 588 646
3 646 588 587
3 650 589 648
3 648 589 588
3 652 590 650
3 650 590 589
3 654 591 652
3 652 591 590
3 656 592 654
3 654 592 591
3 658 593 656
3 656 593 592
3 660 594 658
3 658 594 593
3 662 595 660
3 660 595 594
3 664 596 662
3 662 596 595
3 666 597 664
3 664 597 596
3 668 598 666
3 666 598 597
3 670 599 668
3 668 599 598
3 673 600 671
3 671 600 599
3 675 601 673
3 673 601 600
3 678 602 676
3 676 602 601
3 584 602 678
3 679 680 603
3 603 680 604
3 603 681 679
3 603 605 681
3 605 682 681
3 605 606 682
3 606 683 682
3 606 607 683
3 607 684 683
3 607 608 684
3 608 685 684
3 608 609 685
3 609 686 685
3 609 610 686
3 610 687 686
3 610 611 687
3 611 688 687
3 611 612 688
3 612 689 688
3 612 613 689
3 613 690 689
3 613 614 690
3 614 691 690
3 614 615 691
3 615 692 691
3 615 616 692
3 616 693 692
3 616 617 693
3 617 694 693
3 617 618 694
3 618 695 694
3 618 619 695
3 619 696 695
3 619 620 696
3 620 697 696
3 620 621 697
3 621 622 697
3 697 622 698
3 699 604 680
3 699 700 604
3 622 701 698
3 624 701 622
3 702 700 699
3 702 703 700
3 624 704 701
3 627 704 624
3 705 703 702
3 705 628 703
3 627 706 704
3 630 706 627
3 707 628 705
3 707 631 628
3 630 708 706
3 632 708 630
3 709 631 707
3 709 633 631
3 632 710 708
3 634 710 632
3 711 633 709
3 711 712 633
3 634 713 710
3 636 713 634
3 714 712 711
3 714 637 712
3 636 715 713
3 638 715 636
3 716 637 714
3 716 717 637
3 638 718 715
3 640 718 638
3 716 719 717
3 717 719 642
3 720 642 719
3 643 642 720
3 721 643 720
3 645 643 721
3 722 645 721
3 647 645 722
3 723 647 722
3 649 647 723
3 724 649 723
3 651 649 724
3 725 651 724
3 653 651 725
3 726 653 725
3 655 653 726
3 727 655 726
3 657 655 727
3 728 657 727
3 659 657 728
3 729 659 728
3 661 659 729
3 730 661 729
3 663 661 730
3 731 663 730
3 665 663 731
3 732 665 731
3 667 665 732
3 733 667 732
3 669 667 733
3 734 669 733
3 672 669 734
3 735 672 734
3 674 672 735
3 736 674 735
3 677 674 736
3 640 677 718
3 718 677 736
3 737 738 679
3 679 738 680
3 679 739 737
3 679 681 739
3 681 740 739
3 681 682 740
3 682 741 740
3 682 683 741
3 683 742 741
3 683 684 742
3 684 743 742
3 684 685 743
3 685 744 743
3 685 686 744
3 686 745 744
3 686 687 745
3 687 746 745
3 687 688 746
3 688 747 746
3 688 689 747
3 689 748 747
3 689 690 748
3 690 749 748
3 690 691 749
3 691 750 749
3 691 692 750
3 692 751 750
3 692 693 751
3 693 752 751
3 693 694 752
3 694 753 752
3 694 695 753
3 695 754 753
3 695 696 754
3 696 755 754
3 696 697 755
3 697 698 755
3 755 698 756
3 757 680 738
3 757 758 680
3 698 759 756
3 701 759 698
3 760 758 757
3 760 702 758
3 701 761 759
3 704 761 701
3 762 702 760
3 762 763 702
3 704 764 761
3 706 764 704
3 765 763 762
3 765 707 763
3 706 766 764
3 708 766 706
3 767 707 765
3 767 768 707
3 708 769 766
3 710 769 708
3 770 768 767
3 770 711 768
3 710 771 769
3 713 771 710
3 772 711 770
3 772 773 711
3 713 774 771
3 715 774 713
3 775 773 772
3 775 716 773
3 715 776 774
3 718 776 715
3 775 777 716
3 716 777 719
3 778 719 777
3 720 719 778
3 779 720 778
3 721 720 779
3 780 721 779
3 722 721 780
3 781 722 780
3 723 722 781
3 782 723 781
3 724 723 782
3 783 724 782
3 725 724 783
3 784 725 783
3 726 725 784
3 785 726 784
3 727 726 785
3 786 727 785
3 728 727 786
3 787 728 786
3 729 728 787
3 788 729 787
3 730 729 788
3 789 730 788
3 731 730 789
3 790 731 789
3 732 731 790
3 791 732 790
3 733 732 791
3 792 733 791
3 734 733 792
3 793 734 792
3 735 734 793
3 794 735 793
3 736 735 794
3 718 736 776
3 776 736 794
3 795 796 737
3 737 796 738
3 737 797 795
3 737 739 797
3 739 798 797
3 739 740 798
3 740 799 798
3 740 741 799
3 741 800 799
3 741 742 800
3 742 801 800
3 742 743 801
3 743 802 801
3 743 744 802
3 744 803 802
3 744 745 803
3 745 804 803
3 745 746 804
3 746 805 804
3 746 747 805
3 747 806 805
3 747 748 806
3 748 807 806
3 748 749 807
3 749 808 807
3 749 750 808
3 750 809 808
3 750 751 809
3 751 810 809
3 751 752 810
3 752 811 810
3 752 753 811
3 753 812 811
3 753 754 812
3 754 813 812
3 754 755 813
3 755 756 813
3 813 756 814
3 815 738 796
3 815 757 738
3 756 816 814
3 759 816 756
3 817 757 815
3 817 818 757
3 759 819 816
3 761 819 759
3 820 818 817
3 820 762 818
3 761 821 819
3 764 821 761
3 822 762 820
3 822 823 762
3 764 824 821
3 766 824 764
3 825 823 822
3 825 826 823
3 766 827 824
3 769 827 766
3 828 826 825
3 828 829 826
3 769 830 827
3 771 830 769
3 831 829 828
3 831 772 829
3 771 832 830
3 774 832 771
3 833 772 831
3 833 775 772
3 774 834 832
3 776 834 774
3 833 835 775
3 775 835 777
3 836 777 835
3 778 777 836
3 837 778 836
3 779 778 837
3 838 779 837
3 780 779 838
3 839 780 838
3 781 780 839
3 840 781 839
3 782 781 840
3 841 782 840
3 783 782 841
3 842 783 841
3 784 783 842
3 843 784 842
3 785 784 843
3 844 785 843
3 786 785 844
3 845 786 844
3 787 786 845
3 846 787 845
3 788 787 846
3 847 788 846
3 789 788 847
3 848 789 847
3 790 789 848
3 849 790 848
3 791 790 849
3 850 791 849
3 792 791 850
3 851 792 850
3 793 792 851
3 852 793 851
3 794 793 852
3 776 794 834
3 834 794 852
3 853 854 795
3 795 854 855
3 795 856 853
3 795 797 856
3 797 857 856
3 797 798 857
3 798 858 857
3 798 799 858
3 799 859 858
3 799 800 859
3 800 860 859
3 800 801 860
3 801 861 860
3 801 802 861
3 802 862 861
3 802 803 862
3 803 863 862
3 803 804 863
3 804 864 863
3 804 805 864
3 805 865 864
3 805 806 865
3 806 866 865
3 806 807 866
3 807 867 866
3 807 808 867
3 808 868 867
3 808 809 868
3 809 869 868
3 809 810 869
3 810 870 869
3 810 811 870
3 811 871 870
3 811 812 871
3 812 872 871
3 812 813 872
3 813 814 872
3 872 814 873
3 874 855 854
3 874 875 855
3 814 876 873
3 816 876 814
3 877 875 874
3 877 878 875
3 816 879 876
3 819 879 816
3 880 878 877
3 880 881 878
3 819 882 879
3 821 882 819
3 883 881 880
3 883 884 881
3 821 885 882
3 824 885 821
3 886 884 883
3 886 887 884
3 824 888 885
3 827 888 824
3 889 887 886
3 889 828 887
3 827 890 888
3 830 890 827
3 891 828 889
3 891 892 828
3 830 893 890
3 832 893 830
3 894 892 891
3 894 895 892
3 832 896 893
3 834 896 832
3 894 897 895
3 895 897 835
3 898 835 897
3 836 835 898
3 899 836 898
3 837 836 899
3 900 837 899
3 838 837 900
3 901 838 900
3 839 838 901
3 902 839 901
3 840 839 902
3 903 840 902
3 841 840 903
3 904 841 903
3 842 841 904
3 905 842 904
3 843 842 905
3 906 843 905
3 844 843 906
3 907 844 906
3 845 844 907
3 908 845 907
3 846 845 908
3 909 846 908
3 847 846 909
3 910 847 909
3 848 847 910
3 911 848 910
3 849 848 911
3 912 849 911
3 850 849 912
3 913 850 912
3 851 850 913
3 914 851 913
3 852 851 914
3 834 852 896
3 896 852 914
3 915 916 853
3 853 916 854
3 853 917 915
3 853 856 917
3 856 918 917
3 856 857 918
3 857 919 918
3 857 858 919
3 858 920 919
3 858 859 920
3 859 921 920
3 859 860 921
3 860 922 921
3 860 861 922
3 861 923 922
3 861 862 923
3 862 924 923
3 862 863 924
3 863 925 924
3 863 864 925
3 864 926 925
3 864 865 926
3 865 927 926
3 865 866 927
3 866 928 927
3 866 867 928
3 867 929 928
3 867 868 929
3 868 930 929
3 868 869 930
3 869 931 930
3 869 870 931
3 870 932 931
3 870 871 932
3 871 933 932
3 871 872 933
3 872 873 933
3 933 873 934
3 935 854 916
3 935 936 854
3 873 937 934
3 876 937 873
3 938 936 935
3 938 939 936
3 876 940 937
3 879 940 876
3 941 939 938
3 941 942 939
3 879 943 940
3 882 943 879
3 944 942 941
3 944 945 942
3 882 946 943
3 885 946 882
3 947 945 944
3 947 948 945
3 885 949 946
3 888 949 885
3 950 948 947
3 950 951 948
3 888 952 949
3 890 952 888
3 953 951 950
3 953 954 951
3 890 955 952
3 893 955 890
3 956 954 953
3 956 894 954
3 893 957 955
3 896 957 893
3 956 958 894
3 894 958 897
3 959 897 958
3 898 897 959
3 960 898 959
3 899 898 960
3 961 899 960
3 900 899 961
3 962 900 961
3 901 900 962
3 963 901 962
3 902 901 963
3 964 902 963
3 903 902 964
3 965 903 964
3 904 903 965
3 966 904 965
3 905 904 966
3 967 905 966
3 906 905 967
3 968 906 967
3 907 906 968
3 969 907 968
3 908 907 969
3 970 908 969
3 909 908 970
3 971 909 970
3 910 909 971
3 972 910 971
3 911 910 972
3 973 911 972
3 912 911 973
3 974 912 973
3 913 912 974
3 975 913 974
3 914 913 975
3 896 914 957
3 957 914 975
3 976 977 915
3 915 977 916
3 915 978 976
3 915 917 978
3 917 979 978
3 917 918 979
3 918 980 979
3 918 919 980
3 919 981 980
3 919 920 981
3 920 982 981
3 920 921 982
3 921 983 982
3 921 922 983
3 922 984 983
3 922 923 984
3 923 985 984
3 923 924 985
3 924 986 985
3 924 925 986
3 925 987 986
3 925 926 987
3 926 988 987
3 926 927 988
3 927 989 988
3 927 928 989
3 928 990 989
3 928 929 990
3 929 991 990
3 929 930 991
3 930 992 991
3 930 931 992
3 931 993 992
3 931 932 993
3 932 994 993
3 932 933 994
3 933 934 994
3 994 934 995
3 996 916 977
3 996 997 916
3 934 998 995
3 937 998 934
3 999 997 996
3 999 1000 997
3 937 1001 998
3 940 1001 937
3 1002 1000 999
3 1002 1003 1000
3 940 1004 1001
3 943 1004 940
3 1005 1003 1002
3 1005 1006 1003
3 943 1007 1004
3 946 1007 943
3 1008 1006 1005
3 1008 1009 1006
3 946 1010 1007
3 949 1010 946
3 1011 1009 1008
3 1011 1012 1009
3 949 1013 1010
3 952 1013 949
3 1014 1012 1011
3 1014 1015 1012
3 952 1016 1013
3 955 1016 952
3 1017 1015 1014
3 1017 1018 1015
3 955 1019 1016
3 957 1019 955
3 1017 1020 1018
3 1018 1020 958
3 1021 958 1020
3 959 958 1021
3 1022 959 1021
3 960 959 1022
3 1023 960 1022
3 961 960 1023
3 1024 961 1023
3 962 961 1024
3 1025 962 1024
3 963 962 1025
3 1026 963 1025
3 964 963 1026
3 1027 964 1026
3 965 964 1027
3 1028 965 1027
3 966 965 1028
3 1029 966 1028
3 967 966 1029
3 1030 967 1029
3 968 967 1030
3 1031 968 1030
3 969 968 1031
3 1032 969 1031
3 970 969 1032
3 1033 970 1032
3 971 970 1033
3 1034 971 1033
3 972 971 1034
3 1035 972 1034
3 973 972 1035
3 1036 973 1035
3 974 973 1036
3 1037 974 1036
3 975 974 1037
3 957 975 1019
3 1019 975 1037
3 1038 1039 976
3 976 1039 1040
3 976 1041 1038
3 976 978 1041
3 978 1042 1041
3 978 979 1042
3 979 1043 1042
3 979 980 1043
3 980 1044 1043
3 980 981 1044
3 981 1045 1044
3 981 982 1045
3 982 1046 1045
3 982 983 1046
3 983 1047 1046
3 983 984 1047
3 984 1048 1047
3 984 985 1048
3 985 1049 1048
3 985 986 1049
3 986 1050 1049
3 986 987 1050
3 987 1051 1050
3 987 988 1051
3 988 1052 1051
3 988 989 1052
3 989 1053 1052
3 989 990 1053
3 990 1054 1053
3 990 991 1054
3 991 1055 1054
3 991 992 1055
3 992 1056 1055
3 992 993 1056
3 993 1057 1056
3 993 994 1057
3 994 995 1057
3 1057 995 1058
3 1059 1040 1039
3 1059 1060 1040
3 995 1061 1058
3 998 1061 995
3 1062 1060 1059
3 1062 1063 1060
3 998 1064 1061
3 1001 1064 998
3 1065 1063 1062
3 1065 1066 1063
3 1001 1067 1064
3 1004 1067 1001
3 1068 1066 1065
3 1068 1069 1066
3 1004 1070 1067
3 1007 1070 1004
3 1071 1069 1068
3 1071 1072 1069
3 1007 1073 1070
3 1010 1073 1007
3 1074 1072 1071
3 1074 1011 1072
3 1010 1075 1073
3 1013 1075 1010
3 1076 1011 1074
3 1076 1077 1011
3 1013 1078 1075
3 1016 1078 1013
3 1079 1077 1076
3 1079 1017 1077
3 1016 1080 1078
3 1019 1080 1016
3 1079 1081 1017
3 1017 1081 1020
3 1082 1020 1081
3 1021 1020 1082
3 1083 1021 1082
3 1022 1021 1083
3 1084 1022 1083
3 1023 1022 1084
3 1085 1023 1084
3 1024 1023 1085
3 1086 1024 1085
3 1025 1024 1086
3 1087 1025 1086
3 1026 1025 1087
3 1088 1026 1087
3 1027 1026 1088
3 1089 1027 1088
3 1028 1027 1089
3 1090 1028 1089
3 1029 1028 1090
3 1091 1029 1090
3 1030 1029 1091
3 1092 1030 1091
3 1031 1030 1092
3 1093 1031 1092
3 1032 1031 1093
3 1094 1032 1093
3 1033 1032 1094
3 1095 1033 1094
3 1034 1033 1095
3 1096 1034 1095
3 1035 1034 1096
3 1097 1035 1096
3 1036 1035 1097
3 1098 1036 1097
3 1037 1036 1098
3 1019 1037 1080
3 1080 1037 1098
3 1038 1099 1100
3 1099 1038 1101
3 1101 1038 1041
3 1101 1041 1102
3 1102 1041 1042
3 1102 1042 1103
3 1103 1042 1043
3 1103 1043 1104
3 1104 1043 1044
3 1104 1044 1105
3 1105 1044 1045
3 1105 1045 1106
3 1106 1045 1046
3 1106 1046 1107
3 1107 1046 1047
3 1107 1047 1108
3 1108 1047 1048
3 1108 1048 1109
3 1109 1048 1049
3 1109 1049 1110
3 1110 1049 1050
3 1110 1050 1111
3 1111 1050 1051
3 1111 1051 1112
3 1112 1051 1052
3 1112 1052 1113
3 1113 1052 1053
3 1113 1053 1114
3 1114 1053 1054
3 1114 1054 1115
3 1115 1054 1055
3 1115 1055 1116
3 1116 1055 1056
3 1116 1056 1117
3 1117 1056 1057
3 1057 1058 1117
3 1100 1099 1118
3 1118 1099 1119
3 1101 1119 1099
3 1101 1120 1119
3 1102 1120 1101
3 1102 1121 1120
3 1103 1121 1102
3 1103 1122 1121
3 1104 1122 1103
3 1104 1123 1122
3 1105 1123 1104
3 1105 1124 1123
3 1106 1124 1105
3 1106 1125 1124
3 1107 1125 1106
3 1107 1126 1125
3 1108 1126 1107
3 1108 1127 1126
3 1109 1127 1108
3 1109 1128 1127
3 1110 1129 1109
3 1110 1130 1129
3 1111 1131 1110
3 1111 1132 1131
3 1112 1132 1111
3 1112 1133 1132
3 1113 1133 1112
3 1113 1134 1133
3 1114 1134 1113
3 1114 1135 1134
3 1115 1135 1114
3 1115 1136 1135
3 1116 1136 1115
3 1116 1137 1136
3 1117 1137 1116
3 1117 1138 1137
3 1117 1058 1138
3 1138 1058 1061
3 1118 1119 1139
3 1139 1119 1140
3 1120 1140 1119
3 1120 1141 1140
3 1121 1141 1120
3 1121 1142 1141
3 1122 1142 1121
3 1122 1143 1142
3 1123 1143 1122
3 1123 1144 1143
3 1124 1144 1123
3 1124 1145 1144
3 1125 1145 1124
3 1125 1146 1145
3 1126 1146 1125
3 1126 1147 1146
3 1127 1147 1126
3 1127 1148 1147
3 1128 1148 1127
3 1128 1149 1148
3 1130 1149 1129
3 1130 1150 1149
3 1132 1150 1131
3 1132 1151 1150
3 1133 1151 1132
3 1133 1152 1151
3 1134 1152 1133
3 1134 1153 1152
3 1135 1154 1134
3 1135 1155 1154
3 1136 1155 1135
3 1136 1156 1155
3 1137 1156 1136
3 1137 1157 1156
3 1138 1157 1137
3 1138 1158 1157
3 1138 1061 1158
3 1158 1061 1064
3 1139 1140 1159
3 1159 1140 1160
3 1141 1161 1140
3 1141 1162 1161
3 1142 1162 1141
3 1142 1163 1162
3 1143 1163 1142
3 1143 1164 1163
3 1144 1164 1143
3 1144 1165 1164
3 1145 1165 1144
3 1145 1166 1165
3 1146 1166 1145
3 1146 1167 1166
3 1147 1167 1146
3 1147 1168 1167
3 1148 1168 1147
3 1148 1169 1168
3 1149 1170 1148
3 1149 1171 1170
3 1150 1171 1149
3 1150 1172 1171
3 1151 1172 1150
3 1151 1173 1172
3 1152 1173 1151
3 1152 1174 1173
3 1153 1174 1152
3 1153 1175 1174
3 1155 1175 1154
3 1155 1176 1175
3 1156 1176 1155
3 1156 1177 1176
3 1157 1177 1156
3 1157 1178 1177
3 1158 1178 1157
3 1158 1179 1178
3 1158 1064 1179
3 1179 1064 1067
3 1159 1160 1180
3 1180 1160 1181
3 1162 1181 1161
3 1162 1182 1181
3 1163 1182 1162
3 1163 1183 1182
3 1164 1183 1163
3 1164 1184 1183
3 1165 1184 1164
3 1165 1185 1184
3 1166 1185 1165
3 1166 1186 1185
3 1167 1186 1166
3 1167 1187 1186
3 1168 1187 1167
3 1168 1188 1187
3 1169 1188 1168
3 1169 1189 1188
3 1171 1189 1170
3 1171 1190 1189
3 1172 1190 1171
3 1172 1191 1190
3 1173 1191 1172
3 1173 1192 1191
3 1174 1192 1173
3 1174 1193 1192
3 1175 1193 1174
3 1175 1194 1193
3 1176 1194 1175
3 1176 1195 1194
3 1177 1195 1176
3 1177 1196 1195
3 1178 1196 1177
3 1178 1197 1196
3 1179 1197 1178
3 1179 1198 1197
3 1179 1067 1198
3 1198 1067 1070
3 1180 1181 1199
3 1199 1181 1200
3 1182 1200 1181
3 1182 1201 1200
3 1183 1202 1182
3 1183 1203 1202
3 1184 1203 1183
3 1184 1204 1203
3 1185 1204 1184
3 1185 1205 1204
3 1186 1205 1185
3 1186 1206 1205
3 1187 1206 1186
3 1187 1207 1206
3 1188 1207 1187
3 1188 1208 1207
3 1189 1208 1188
3 1189 1209 1208
3 1190 1209 1189
3 1190 1210 1209
3 1191 1210 1190
3 1191 1211 1210
3 1192 1211 1191
3 1192 1212 1211
3 1193 1212 1192
3 1193 1213 1212
3 1194 1213 1193
3 1194 1214 1213
3 1195 1214 1194
3 1195 1215 1214
3 1196 1215 1195
3 1196 1216 1215
3 1197 1216 1196
3 1197 1217 1216
3 1198 1217 1197
3 1198 1218 1217
3 1198 1070 1218
3 1218 1070 1073
3 1199 1200 1219
3 1219 1200 1220
3 1201 1220 1200
3 1201 1221 1220
3 1203 1221 1202
3 1203 1222 1221
3 1204 1222 1203
3 1204 1223 1222
3 1205 1223 1204
3 1205 1224 1223
3 1206 1224 1205
3 1206 1225 1224
3 1207 1225 1206
3 1207 1226 1225
3 1208 1226 1207
3 1208 1227 1226
3 1209 1227 1208
3 1209 1228 1227
3 1210 1228 1209
3 1210 1229 1228
3 1211 1229 1210
3 1211 1230 1229
3 1212 1230 1211
3 1212 1231 1230
3 1213 1231 1212
3 1213 1232 1231
3 1214 1232 1213
3 1214 1233 1232
3 1215 1233 1214
3 1215 1234 1233
3 1216 1234 1215
3 1216 1235 1234
3 1217 1235 1216
3 1217 1236 1235
3 1218 1236 1217
3 1218 1237 1236
3 1218 1073 1238
3 1238 1073 1075
3 1219 1220 1239
3 1239 1220 1240
3 1221 1240 1220
3 1221 1241 1240
3 1222 1241 1221
3 1222 1242 1241
3 1223 1242 1222
3 1223 1243 1242
3 1224 1243 1223
3 1224 1244 1243
3 1225 1244 1224
3 1225 1245 1244
3 1226 1245 1225
3 1226 1246 1245
3 1227 1246 1226
3 1227 1247 1246
3 1228 1247 1227
3 1228 1248 1247
3 1229 1248 1228
3 1229 1249 1248
3 1230 1249 1229
3 1230 1250 1249
3 1231 1250 1230
3 1231 1251 1250
3 1232 1251 1231
3 1232 1252 1251
3 1233 1252 1232
3 1233 1253 1252
3 1234 1253 1233
3 1234 1254 1253
3 1235 1254 1234
3 1235 1255 1254
3 1236 1255 1235
3 1236 1256 1255
3 1237 1256 1236
3 1237 1257 1256
3 1238 1075 1257
3 1257 1075 1078
3 1239 1240 1258
3 1258 1240 1259
3 1241 1259 1240
3 1241 1260 1259
3 1242 1260 1241
3 1242 1261 1260
3 1243 1261 1242
3 1243 1262 1261
3 1244 1262 1243
3 1244 1263 1262
3 1245 1263 1244
3 1245 1264 1263
3 1246 1264 1245
3 1246 1265 1264
3 1247 1265 1246
3 1247 1266 1265
3 1248 1266 1247
3 1248 1267 1266
3 1249 1267 1248
3 1249 1268 1267
3 1250 1268 1249
3 1250 1269 1268
3 1251 1269 1250
3 1251 1270 1269
3 1252 1270 1251
3 1252 1271 1270
3 1253 1271 1252
3 1253 1272 1271
3 1254 1272 1253
3 1254 1273 1272
3 1255 1273 1254
3 1255 1274 1273
3 1256 1274 1255
3 1256 1275 1274
3 1257 1276 1256
3 1257 1277 1276
3 1257 1078 1277
3 1277 1078 1080
3 1259 1081 1258
3 1260 1082 1259
3 1259 1082 1081
3 1261 1083 1260
3 1260 1083 1082
3 1262 1084 1261
3 1261 1084 1083
3 1263 1085 1262
3 1262 1085 1084
3 1264 1086 1263
3 1263 1086 1085
3 1265 1087 1264
3 1264 1087 1086
3 1266 1088 1265
3 1265 1088 1087
3 1267 1089 1266
3 1266 1089 1088
3 1268 1090 1267
3 1267 1090 1089
3 1269 1091 1268
3 1268 1091 1090
3 1270 1092 1269
3 1269 1092 1091
3 1271 1093 1270
3 1270 1093 1092
3 1272 1094 1271
3 1271 1094 1093
3 1273 1095 1272
3 1272 1095 1094
3 1274 1096 1273
3 1273 1096 1095
3 1275 1097 1274
3 1274 1097 1096
3 1277 1098 1276
3 1276 1098 1097
3 1080 1098 1277
