ply
format ascii 1.0
element vertex 1242
property float x
property float y
property float z
element face 2128
property list uchar int vertex_index
end_header
0.566844 1 1
1 1 0.566844
1 0.56688 1
1 1 0.566844
2 0.566878 1
2 1 0.566842
2 1 0.566842
3 0.566876 1
3 1 0.566841
4 0.566875 1
4 1 0.56684
5 0.566874 1
5 1 0.566839
5 1 0.566839
6 0.566874 1
6 1 0.566839
6 1 0.566839
7 0.566874 1
7 1 0.566839
7 1 0.566839
8 0.566874 1
8 1 0.566839
9 0.566875 1
9 1 0.566839
9 1 0.566839
10 0.566875 1
10 1 0.56684
10 1 0.56684
11 0.566876 1
11 1 0.566841
11 1 0.566841
12 0.566876 1
12 1 0.566841
13 0.566877 1
13 1 0.566842
13 1 0.566842
14 0.566877 1
14 1 0.566842
15 0.566878 1
15 1 0.566843
16 0.566878 1
16 1 0.566843
16 1 0.566843
17 0.566879 1
17 1 0.566844
17 1 0.566844
18 0.566879 1
18 1 0.566844
18 1 0.566844
18.4332 1 1
0.554092 2 1
1 2 0.554092
2 2 0.554089
2 2 0.554089
3 2 0.554087
3 2 0.554087
4 2 0.554085
5 2 0.554083
6 2 0.554082
7 2 0.554081
7 2 0.554081
8 2 0.554081
9 2 0.554082
9 2 0.554082
10 2 0.554082
10 2 0.554082
11 2 0.554082
12 2 0.554083
13 2 0.554083
13 2 0.554083
14 2 0.554084
15 2 0.554084
15 2 0.554084
16 2 0.554085
17 2 0.554085
18 2 0.554085
18 2 0.554085
18.4459 2 1
0.540293 3 1
1 3 0.540293
2 3 0.540289
3 3 0.540284
3 3 0.540284
4 3 0.54028
5 3 0.540277
5 3 0.540277
6 3 0.540275
7 3 0.540274
8 3 0.540274
8 3 0.540274
9 3 0.540274
9 3 0.540274
10 3 0.540274
11 3 0.540275
12 3 0.540275
13 3 0.540276
13 3 0.540276
14 3 0.540276
15 3 0.540277
15 3 0.540277
16 3 0.540277
16 3 0.540277
17 3 0.540278
18 3 0.540278
18.4597 3 1
0.524903 4 1
1 4 0.524903
2 4 0.524896
2 4 0.524896
3 4 0.524889
4 4 0.524882
5 4 0.524877
5 4 0.524877
6 4 0.524874
7 4 0.524872
8 4 0.524872
8 4 0.524872
9 4 0.524872
9 4 0.524872
10 4 0.524872
10 4 0.524872
11 4 0.524872
11 4 0.524872
12 4 0.524873
12 4 0.524873
13 4 0.524873
13 4 0.524873
14 4 0.524874
14 4 0.524874
15 4 0.524874
16 4 0.524875
17 4 0.524875
18 4 0.524876
18 4 0.524876
18.4751 4 1
0.507163 5 1
1 5 0.507163
2 5 0.507149
2 5 0.507149
3 5 0.507133
3 5 0.507133
4 5 0.507121
5 5 0.507113
6 5 0.507108
6 5 0.507108
7 5 0.507106
7 5 0.507106
8 5 0.507106
8 5 0.507106
9 5 0.507106
9 5 0.507106
10 5 0.507106
10 5 0.507106
11 5 0.507107
11 5 0.507107
12 5 0.507108
13 5 0.507108
13 5 0.507108
14 5 0.507109
14 5 0.507109
15 5 0.50711
16 5 0.50711
16 5 0.50711
17 5 0.50711
18 5 0.507111
18.4929 5 1
0.485864 6 1
1 6 0.485864
2 6 0.485833
3 6 0.485798
3 6 0.485798
4 6 0.485774
4 6 0.485774
5 6 0.485761
5 6 0.485761
6 6 0.485755
6 6 0.485755
7 6 0.485754
7 6 0.485754
8 6 0.485754
9 6 0.485754
9 6 0.485754
10 6 0.485756
10 6 0.485756
11 6 0.485757
12 6 0.485758
13 6 0.485758
13 6 0.485758
14 6 0.485759
14 6 0.485759
15 6 0.48576
15 6 0.48576
16 6 0.48576
17 6 0.485761
17 6 0.485761
18 6 0.485761
18.5142 6 1
0.458839 7 1
1 7 0.458839
2 7 0.458758
2 7 0.458758
3 7 0.458669
4 7 0.458618
4 7 0.458618
5 7 0.4586
5 7 0.4586
6 7 0.458595
6 7 0.458595
7 7 0.458596
7 7 0.458596
8 7 0.458598
9 7 0.4586
9 7 0.4586
10 7 0.458602
10 7 0.458602
11 7 0.458604
11 7 0.458604
12 7 0.458605
12 7 0.458605
13 7 0.458606
14 7 0.458607
15 7 0.458608
15 7 0.458608
16 7 0.458609
16 7 0.458609
17 7 0.458609
18 7 0.458609
18 7 0.458609
18.5414 7 1
0.422217 8 1
1 8 0.422217
1 8 0.422217
2 8 0.421958
2 8 0.421958
3 8 0.421671
3 8 0.421671
4 8 0.421552
5 8 0.421533
5 8 0.421533
6 8 0.421538
6 8 0.421538
7 8 0.421546
7 8 0.421546
8 8 0.421553
8 8 0.421553
9 8 0.421558
10 8 0.421562
10 8 0.421562
11 8 0.421564
11 8 0.421564
12 8 0.421566
12 8 0.421566
13 8 0.421568
14 8 0.421569
14 8 0.421569
15 8 0.42157
16 8 0.421571
17 8 0.421571
17 8 0.421571
18 8 0.421571
18.5784 8 1
0.363143 9 1
1 9 0.363143
2 9 0.362728
3 9 0.36245
4 9 0.362493
4 9 0.362493
5 9 0.362571
6 9 0.362614
6 9 0.362614
7 9 0.362639
7 9 0.362639
8 9 0.362653
8 9 0.362653
9 9 0.362661
9 9 0.362661
10 9 0.362667
10 9 0.362667
11 9 0.362671
11 9 0.362671
12 9 0.362673
12 9 0.362673
13 9 0.362675
13 9 0.362675
14 9 0.362676
14 9 0.362676
15 9 0.362677
15 9 0.362677
16 9 0.362678
16 9 0.362678
17 9 0.362678
18 9 0.362678
18.6373 9 1
0.638739 10 1
1 10 0.638739
1 10 0.638739
2 10 0.637665
2 10 0.637665
3 10 0.635431
4 10 0.635205
4 10 0.635205
5 10 0.63544
6 10 0.63551
7 10 0.635539
8 10 0.635552
9 10 0.635559
10 10 0.635563
11 10 0.635566
12 10 0.635567
13 10 0.635568
13 10 0.635568
14 10 0.635569
14 10 0.635569
15 10 0.635569
16 10 0.63557
17 10 0.63557
17 10 0.63557
18 10 0.63557
18.3644 10 1
1 10.3494 1
2 10.3505 1
3 10.3528 1
4 10.353 1
5 10.3528 1
6 10.3527 1
7 10.3527 1
8 10.3527 1
9 10.3526 1
10 10.3526 1
11 10.3526 1
12 10.3526 1
13 10.3526 1
14 10.3526 1
15 10.3526 1
16 10.3526 1
17 10.3526 1
18 10.3526 1
1 0.5782 2
0.578166 1 2
0.566844 1 1
2 0.578198 2
3 0.578197 2
4 0.578196 2
5 0.578195 2
6 0.578195 2
7 0.578196 2
8 0.578196 2
9 0.578197 2
10 0.578198 2
11 0.578198 2
12 0.578199 2
13 0.5782 2
14 0.5782 2
15 0.578201 2
16 0.578201 2
17 0.578202 2
18 0.578202 2
18.4218 1 2
0.565566 2 2
0.554092 2 1
18.4344 2 2
0.552306 3 2
0.540293 3 1
18.4477 3 2
0.537909 4 2
0.524903 4 1
18.4621 4 2
0.521799 5 2
18.4782 5 2
0.503165 6 2
18.4969 6 2
0.480754 7 2
18.5193 7 2
0.452974 8 2
0.422217 8 1
18.5471 8 2
0.414056 9 2
18.5857 9 2
0.702736 10 2
18.307 10 2
1 10.2868 2
2 10.2894 2
3 10.2954 2
4 10.2967 2
5 10.2968 2
6 10.2968 2
7 10.2968 2
8 10.2968 2
9 10.2968 2
10 10.2968 2
11 10.2968 2
12 10.2968 2
13 10.2968 2
14 10.2968 2
15 10.2968 2
16 10.2968 2
17 10.2968 2
18 10.2968 2
1 0.588577 3
0.588547 1 3
0.578166 1 2
2 0.588576 3
3 0.588575 3
4 0.588574 3
5 0.588574 3
6 0.588574 3
7 0.588575 3
8 0.588575 3
9 0.588576 3
10 0.588577 3
11 0.588578 3
12 0.588578 3
13 0.588579 3
14 0.58858 3
15 0.58858 3
16 0.588581 3
17 0.588581 3
18 0.588581 3
18.4114 1 3
0.576478 2 3
0.565566 2 2
18.4235 2 3
0.564135 3 3
0.552306 3 2
18.4359 3 3
0.551155 4 3
0.537909 4 2
18.4489 4 3
0.537198 5 3
0.521799 5 2
18.4628 5 3
0.521896 6 3
18.4781 6 3
0.50489 7 3
0.480754 7 2
18.4951 7 3
0.486279 8 3
0.452974 8 2
18.5136 8 3
0.465227 9 3
0.414056 9 2
18.5346 9 3
1 10 2.50021
1 9.65125 3
2 9.65203 3
2 10 2.50342
3 9.65393 3
3 10 2.51069
4 9.65444 3
4 10 2.51239
5 9.65448 3
5 10 2.51252
6 9.65447 3
6 10 2.51255
7 9.65445 3
7 10 2.5125
8 9.65443 3
8 10 2.51248
9 9.65442 3
9 10 2.51246
10 9.65441 3
10 10 2.51246
11 9.65441 3
11 10 2.51245
12 9.65441 3
12 10 2.51245
13 9.6544 3
13 10 2.51244
14 9.6544 3
14 10 2.51244
15 9.6544 3
15 10 2.51244
16 9.6544 3
16 10 2.51244
17 9.6544 3
17 10 2.51244
18 9.6544 3
18 10 2.51244
1 0.597745 4
0.597719 1 4
2 0.597743 4
3 0.597742 4
4 0.597742 4
5 0.597742 4
6 0.597742 4
7 0.597743 4
8 0.597744 4
9 0.597744 4
10 0.597745 4
11 0.597746 4
12 0.597746 4
13 0.597747 4
14 0.597748 4
15 0.597748 4
16 0.597749 4
17 0.597749 4
18 0.597749 4
18.4023 1 4
0.586469 2 4
18.4135 2 4
0.575268 3 4
0.564135 3 3
18.4247 3 4
0.563869 4 4
18.4361 4 4
0.552119 5 4
0.537198 5 3
18.4479 5 4
0.539945 6 4
0.521896 6 3
18.46 6 4
0.527454 7 4
18.4725 7 4
0.515301 8 4
0.486279 8 3
18.4846 8 4
0.503958 9 4
0.465227 9 3
18.496 9 4
1 9.50572 4
2 9.50574 4
3 9.50595 4
4 9.50604 4
5 9.50604 4
6 9.50605 4
7 9.50605 4
8 9.50604 4
9 9.50603 4
10 9.50602 4
11 9.50602 4
12 9.50602 4
13 9.50602 4
14 9.50601 4
15 9.50601 4
16 9.50601 4
17 9.50601 4
18 9.50601 4
1 0.605611 5
0.60559 1 5
0.597719 1 4
2 0.60561 5
3 0.605609 5
4 0.605609 5
5 0.605609 5
6 0.60561 5
7 0.60561 5
8 0.605611 5
9 0.605611 5
10 0.605612 5
11 0.605613 5
12 0.605613 5
13 0.605614 5
14 0.605614 5
15 0.605615 5
16 0.605615 5
17 0.605616 5
18 0.605616 5
18.3944 1 5
0.595367 2 5
18.4046 2 5
0.58543 3 5
0.575268 3 4
18.4146 3 5
0.575627 4 5
18.4244 4 5
0.565923 5 5
0.552119 5 4
18.4341 5 5
18.4479 5 4
0.556392 6 5
0.539945 6 4
18.4436 6 5
0.54729 7 5
18.4527 7 5
0.539273 8 5
18.4606 8 5
0.532799 9 5
0.503958 9 4
18.4672 9 5
1 9.46753 5
2 9.46749 5
3 9.46751 5
4 9.46752 5
5 9.46752 5
6 9.46752 5
7 9.46753 5
8 9.46754 5
9 9.46754 5
10 9.46753 5
11 9.46753 5
12 9.46752 5
13 9.46752 5
14 9.46752 5
15 9.46752 5
16 9.46752 5
17 9.46752 5
18 9.46752 5
1 0.612195 6
0.612179 1 6
0.60559 1 5
2 0.612194 6
3 0.612194 6
4 0.612193 6
5 0.612193 6
6 0.612194 6
7 0.612194 6
8 0.612195 6
9 0.612195 6
10 0.612196 6
11 0.612196 6
12 0.612197 6
13 0.612197 6
14 0.612198 6
15 0.612198 6
16 0.612199 6
17 0.612199 6
18 0.612199 6
18.3878 1 6
0.603109 2 6
18.3969 2 6
0.594479 3 6
0.58543 3 5
18.4055 3 6
0.586204 4 6
18.4138 4 6
0.57831 5 6
0.565923 5 5
18.4217 5 6
18.4341 5 5
0.570917 6 6
18.4291 6 6
0.564283 7 6
18.4357 7 6
0.558909 8 6
18.441 8 6
0.555057 9 6
18.4449 9 6
1 9.44495 6
2 9.44492 6
3 9.44493 6
4 9.44493 6
5 9.44494 6
6 9.44494 6
7 9.44494 6
8 9.44494 6
9 9.44495 6
10 9.44496 6
11 9.44496 6
12 9.44495 6
13 9.44495 6
14 9.44495 6
15 9.44495 6
16 9.44495 6
17 9.44494 6
18 9.44494 6
1 0.61759 7
0.617578 1 7
2 0.617589 7
3 0.617589 7
4 0.617589 7
5 0.617589 7
6 0.617589 7
7 0.617589 7
8 0.61759 7
9 0.61759 7
10 0.617591 7
11 0.617591 7
12 0.617591 7
13 0.617592 7
14 0.617592 7
15 0.617593 7
16 0.617593 7
17 0.617593 7
18 0.617593 7
18.3824 1 7
0.609723 2 7
18.3903 2 7
0.60239 3 7
0.594479 3 6
18.3976 3 7
0.595538 4 7
18.4045 4 7
0.589217 5 7
0.57831 5 6
18.4108 5 7
0.583543 6 7
0.570917 6 6
18.4164 6 7
0.57872 7 7
18.4213 7 7
0.575092 8 7
0.558909 8 6
18.4249 8 7
0.572764 9 7
0.555057 9 6
18.4272 9 7
1 9.42724 7
2 9.42721 7
3 9.42722 7
4 9.42721 7
5 9.42724 7
6 9.42724 7
7 9.42724 7
8 9.42723 7
9 9.42723 7
10 9.42724 7
11 9.42725 7
12 9.42725 7
13 9.42725 7
14 9.42725 7
15 9.42724 7
16 9.42724 7
17 9.42724 7
18 9.42724 7
1 0.621931 8
0.621923 1 8
0.617578 1 7
2 0.621931 8
3 0.62193 8
4 0.62193 8
5 0.62193 8
6 0.62193 8
7 0.621931 8
8 0.621931 8
9 0.621931 8
10 0.621931 8
11 0.621932 8
12 0.621932 8
13 0.621932 8
14 0.621933 8
15 0.621933 8
16 0.621933 8
17 0.621934 8
18 0.621934 8
18.3781 1 8
0.615292 2 8
0.609723 2 7
18.3847 2 8
0.609215 3 8
0.60239 3 7
18.3908 3 8
0.603675 4 8
0.595538 4 7
18.3963 4 8
0.598722 5 8
18.4013 5 8
0.594448 6 8
0.583543 6 7
18.4055 6 8
0.590995 7 8
0.57872 7 7
18.409 7 8
0.58858 8 8
0.575092 8 7
18.4114 8 8
0.587213 9 8
18.4128 9 8
1 9.41279 8
2 9.41277 8
3 9.41278 8
4 9.41278 8
5 9.41279 8
6 9.41279 8
7 9.41278 8
8 9.41278 8
9 9.41278 8
10 9.41278 8
11 9.41279 8
12 9.41281 8
13 9.41281 8
14 9.4128 8
15 9.4128 8
16 9.4128 8
17 9.4128 8
18 9.4128 8
1 0.625365 9
0.62536 1 9
0.621923 1 8
2 0.625365 9
3 0.625365 9
4 0.625365 9
5 0.625365 9
6 0.625365 9
7 0.625365 9
8 0.625365 9
9 0.625365 9
10 0.625365 9
11 0.625366 9
12 0.625366 9
13 0.625366 9
14 0.625366 9
15 0.625367 9
16 0.625367 9
17 0.625367 9
18 0.625367 9
18.3746 1 9
0.619931 2 9
18.3801 2 9
0.615054 3 9
0.609215 3 8
18.3849 3 9
0.610722 4 9
0.603675 4 8
18.3893 4 9
0.606973 5 9
0.598722 5 8
18.393 5 9
0.60387 6 9
18.3961 6 9
0.601498 7 9
0.590995 7 8
18.3985 7 9
0.59998 8 9
0.58858 8 8
18.4 8 9
0.599274 9 9
0.587213 9 8
18.4007 9 9
1 9.40073 9
2 9.40072 9
3 9.40073 9
4 9.40073 9
5 9.40073 9
6 9.40072 9
7 9.40072 9
8 9.40073 9
9 9.40073 9
10 9.40073 9
11 9.40073 9
12 9.40074 9
13 9.40074 9
14 9.40074 9
15 9.40074 9
16 9.40074 9
17 9.40074 9
18 9.40074 9
1 0.628032 10
0.628029 1 10
0.62536 1 9
2 0.628032 10
3 0.628032 10
4 0.628032 10
5 0.628032 10
6 0.628032 10
7 0.628032 10
8 0.628032 10
9 0.628032 10
10 0.628032 10
11 0.628032 10
12 0.628032 10
13 0.628033 10
14 0.628033 10
15 0.628033 10
16 0.628033 10
17 0.628033 10
18 0.628034 10
18.372 1 10
0.623762 2 10
18.3762 2 10
0.620027 3 10
0.615054 3 9
18.38 3 10
0.616814 4 10
0.610722 4 9
18.3832 4 10
0.614146 5 10
18.3858 5 10
0.612053 6 10
0.60387 6 9
18.3879 6 10
0.610576 7 10
0.601498 7 9
18.3894 7 10
0.609772 8 10
0.59998 8 9
18.3902 8 10
0.609565 9 10
0.599274 9 9
18.3904 9 10
1 9.39044 10
2 9.39043 10
3 9.39045 10
4 9.39045 10
5 9.39044 10
6 9.39043 10
7 9.39044 10
8 9.39044 10
9 9.39044 10
10 9.39044 10
11 9.39044 10
12 9.39044 10
13 9.39045 10
14 9.39045 10
15 9.39045 10
16 9.39045 10
17 9.39045 10
18 9.39045 10
1 0.630054 11
0.630052 1 11
0.628029 1 10
2 0.630053 11
3 0.630053 11
4 0.630053 11
5 0.630053 11
6 0.630053 11
7 0.630053 11
8 0.630053 11
9 0.630053 11
10 0.630053 11
11 0.630054 11
12 0.630054 11
13 0.630054 11
14 0.630054 11
15 0.630054 11
16 0.630054 11
17 0.630054 11
18 0.630055 11
18.3699 1 11
0.626902 2 11
0.623762 2 10
18.3731 2 11
0.624254 3 11
18.3757 3 11
0.62209 4 11
0.616814 4 10
18.3779 4 11
0.620413 5 11
18.3796 5 11
0.619226 6 11
0.612053 6 10
18.3808 6 11
0.61853 7 11
0.610576 7 10
18.3815 7 11
0.618333 8 11
0.609772 8 10
18.3817 8 11
0.61854 9 11
0.609565 9 10
18.3815 9 11
1 9.38146 11
2 9.38146 11
3 9.38148 11
4 9.38148 11
5 9.38147 11
6 9.38147 11
7 9.38147 11
8 9.38147 11
9 9.38147 11
10 9.38147 11
11 9.38147 11
12 9.38147 11
13 9.38148 11
14 9.38148 11
15 9.38148 11
16 9.38148 11
17 9.38148 11
18 9.38148 11
1 0.631524 12
0.631523 1 12
2 0.631524 12
3 0.631524 12
4 0.631524 12
5 0.631523 12
6 0.631523 12
7 0.631523 12
8 0.631524 12
9 0.631524 12
10 0.631524 12
11 0.631523 12
12 0.631524 12
13 0.631524 12
14 0.631524 12
15 0.631524 12
16 0.631524 12
17 0.631524 12
18 0.631524 12
18.3685 1 12
0.629448 2 12
18.3706 2 12
0.627843 3 12
0.624254 3 11
18.3722 3 12
0.626678 4 12
0.62209 4 11
18.3733 4 12
0.625935 5 12
18.3741 5 12
0.625588 6 12
18.3744 6 12
0.625607 7 12
0.61853 7 11
18.3744 7 12
0.625963 8 12
18.374 8 12
0.626544 9 12
18.3735 9 12
1 9.37346 12
2 9.37346 12
3 9.37348 12
4 9.37349 12
5 9.37347 12
6 9.37347 12
7 9.37347 12
8 9.37347 12
9 9.37346 12
10 9.37346 12
11 9.37346 12
12 9.37347 12
13 9.37347 12
14 9.37347 12
15 9.37348 12
16 9.37347 12
17 9.37347 12
18 9.37347 12
1 0.632534 13
0.632534 1 13
2 0.632534 13
3 0.632535 13
4 0.632535 13
5 0.632533 13
6 0.632534 13
7 0.632534 13
8 0.632535 13
9 0.632535 13
10 0.632534 13
11 0.632534 13
12 0.632534 13
13 0.632534 13
14 0.632535 13
15 0.632535 13
16 0.632535 13
17 0.632535 13
18 0.632535 13
18.3675 1 13
0.631474 2 13
18.3685 2 13
0.630857 3 13
18.3691 3 13
0.630632 4 13
18.3694 4 13
0.630763 5 13
18.3692 5 13
0.631201 6 13
18.3688 6 13
0.631887 7 13
0.625607 7 12
18.3681 7 13
0.632763 8 13
18.3672 8 13
0.633701 9 13
18.3663 9 13
1 9.3663 13
2 9.36631 13
3 9.36632 13
4 9.36632 13
5 9.36631 13
6 9.36632 13
7 9.36632 13
8 9.36632 13
9 9.36631 13
10 9.36631 13
11 9.36631 13
12 9.36631 13
13 9.36632 13
14 9.36632 13
15 9.36632 13
16 9.36632 13
17 9.36632 13
18 9.36632 13
1 1 13.3675
0.632534 1 13
2 1 13.3675
3 1 13.3675
4 1 13.3675
5 1 13.3675
6 1 13.3675
7 1 13.3675
8 1 13.3675
9 1 13.3675
10 1 13.3675
11 1 13.3675
12 1 13.3675
13 1 13.3675
14 1 13.3675
15 1 13.3675
16 1 13.3675
17 1 13.3675
18 1 13.3675
1 2 13.3685
2 2 13.3685
3 2 13.3685
4 2 13.3685
4 2 13.3685
5 2 13.3685
6 2 13.3685
7 2 13.3685
8 2 13.3685
9 2 13.3685
10 2 13.3685
11 2 13.3685
12 2 13.3685
13 2 13.3685
14 2 13.3685
15 2 13.3685
16 2 13.3685
17 2 13.3685
18 2 13.3685
0.630857 3 13
1 3 13.3691
2 3 13.3691
3 3 13.3691
4 3 13.3691
5 3 13.3691
6 3 13.3691
7 3 13.3691
8 3 13.3691
8 3 13.3691
9 3 13.3691
10 3 13.3691
11 3 13.3691
12 3 13.3691
13 3 13.3691
14 3 13.3691
15 3 13.3691
16 3 13.3691
17 3 13.3691
18 3 13.3691
0.630632 4 13
1 4 13.3694
2 4 13.3694
3 4 13.3694
4 4 13.3694
5 4 13.3694
6 4 13.3694
7 4 13.3694
8 4 13.3694
9 4 13.3694
10 4 13.3694
11 4 13.3694
12 4 13.3694
13 4 13.3694
14 4 13.3694
15 4 13.3694
16 4 13.3694
17 4 13.3694
18 4 13.3694
1 5 13.3692
2 5 13.3692
3 5 13.3692
4 5 13.3692
5 5 13.3692
6 5 13.3692
7 5 13.3692
7 5 13.3692
8 5 13.3692
9 5 13.3692
10 5 13.3692
11 5 13.3692
12 5 13.3692
13 5 13.3692
14 5 13.3692
15 5 13.3692
16 5 13.3692
17 5 13.3692
18 5 13.3692
1 6 13.3688
2 6 13.3688
3 6 13.3688
4 6 13.3688
5 6 13.3688
6 6 13.3688
7 6 13.3688
8 6 13.3688
9 6 13.3688
10 6 13.3688
11 6 13.3688
12 6 13.3688
13 6 13.3688
14 6 13.3688
15 6 13.3688
16 6 13.3688
17 6 13.3688
18 6 13.3688
1 7 13.3681
1 7 13.3681
2 7 13.3681
3 7 13.3681
4 7 13.3681
5 7 13.3681
6 7 13.3681
7 7 13.3681
8 7 13.3681
9 7 13.3681
10 7 13.3681
10 7 13.3681
11 7 13.3681
12 7 13.3681
13 7 13.3681
14 7 13.3681
15 7 13.3681
16 7 13.3681
17 7 13.3681
18 7 13.3681
18.3681 7 13
1 8 13.3672
2 8 13.3672
3 8 13.3672
4 8 13.3673
5 8 13.3672
6 8 13.3672
7 8 13.3672
8 8 13.3672
9 8 13.3672
10 8 13.3672
11 8 13.3672
12 8 13.3672
13 8 13.3672
14 8 13.3672
15 8 13.3672
16 8 13.3672
17 8 13.3672
18 8 13.3672
1 9 13.3663
2 9 13.3663
3 9 13.3663
4 9 13.3663
5 9 13.3663
6 9 13.3663
6 9 13.3663
7 9 13.3663
8 9 13.3663
9 9 13.3663
10 9 13.3663
11 9 13.3663
12 9 13.3663
13 9 13.3663
14 9 13.3663
15 9 13.3663
16 9 13.3663
17 9 13.3663
18 9 13.3663
3 0 1 2
3 2 3 4
3 4 3 5
3 4 6 7
3 7 6 8
3 7 8 9
3 9 8 10
3 9 10 11
3 11 10 12
3 11 13 14
3 14 13 15
3 14 16 17
3 17 16 18
3 17 19 20
3 20 19 21
3 20 21 22
3 22 21 23
3 22 24 25
3 25 24 26
3 25 27 28
3 28 27 29
3 28 30 31
3 31 30 32
3 31 32 33
3 33 32 34
3 33 35 36
3 36 35 37
3 36 37 38
3 38 37 39
3 38 39 40
3 40 39 41
3 40 42 43
3 43 42 44
3 43 45 46
3 46 45 47
3 48 49 46
3 50 51 0
3 0 51 1
3 51 5 3
3 52 5 51
3 53 8 6
3 54 8 53
3 55 10 8
3 56 10 55
3 56 12 10
3 57 12 56
3 57 15 13
3 58 15 57
3 58 18 16
3 59 18 58
3 60 21 19
3 61 21 60
3 61 23 21
3 62 23 61
3 63 26 24
3 64 26 63
3 65 29 27
3 66 29 65
3 66 32 30
3 67 32 66
3 67 34 32
3 68 34 67
3 69 37 35
3 70 37 69
3 70 39 37
3 71 39 70
3 72 41 39
3 73 41 72
3 73 44 42
3 74 44 73
3 74 47 45
3 75 47 74
3 76 77 48
3 48 77 49
3 78 79 50
3 50 79 51
3 79 52 51
3 80 52 79
3 80 54 53
3 81 54 80
3 82 56 55
3 83 56 82
3 83 57 56
3 84 57 83
3 85 58 57
3 86 58 85
3 86 59 58
3 87 59 86
3 87 61 60
3 88 61 87
3 89 62 61
3 90 62 89
3 91 64 63
3 92 64 91
3 92 66 65
3 93 66 92
3 93 67 66
3 94 67 93
3 94 68 67
3 95 68 94
3 96 70 69
3 97 70 96
3 97 71 70
3 98 71 97
3 99 73 72
3 100 73 99
3 101 74 73
3 102 74 101
3 102 75 74
3 103 75 102
3 103 104 76
3 76 104 77
3 105 106 78
3 78 106 79
3 106 80 79
3 107 80 106
3 108 81 80
3 109 81 108
3 109 83 82
3 110 83 109
3 110 84 83
3 111 84 110
3 112 86 85
3 113 86 112
3 113 87 86
3 114 87 113
3 114 88 87
3 115 88 114
3 116 90 89
3 117 90 116
3 118 92 91
3 119 92 118
3 120 93 92
3 121 93 120
3 122 94 93
3 123 94 122
3 124 95 94
3 125 95 124
3 126 97 96
3 127 97 126
3 128 98 97
3 129 98 128
3 129 100 99
3 130 100 129
3 130 102 101
3 131 102 130
3 131 103 102
3 132 103 131
3 133 134 103
3 103 134 104
3 135 136 105
3 105 136 106
3 136 107 106
3 137 107 136
3 138 109 108
3 139 109 138
3 140 110 109
3 141 110 140
3 141 111 110
3 142 111 141
3 142 113 112
3 143 113 142
3 144 114 113
3 145 114 144
3 146 115 114
3 147 115 146
3 148 117 116
3 149 117 148
3 150 119 118
3 151 119 150
3 152 121 120
3 153 121 152
3 154 123 122
3 155 123 154
3 155 125 124
3 156 125 155
3 157 127 126
3 158 127 157
3 159 129 128
3 160 129 159
3 160 130 129
3 161 130 160
3 162 131 130
3 163 131 162
3 163 132 131
3 164 132 163
3 164 165 133
3 133 165 134
3 166 167 135
3 135 167 136
3 167 137 136
3 168 137 167
3 168 139 138
3 169 139 168
3 170 141 140
3 171 141 170
3 172 142 141
3 173 142 172
3 174 143 142
3 175 143 174
3 176 145 144
3 177 145 176
3 178 147 146
3 179 147 178
3 179 149 148
3 180 149 179
3 181 151 150
3 182 151 181
3 183 153 152
3 184 153 183
3 184 155 154
3 185 155 184
3 185 156 155
3 186 156 185
3 187 158 157
3 188 158 187
3 189 160 159
3 190 160 189
3 191 161 160
3 192 161 191
3 192 163 162
3 193 163 192
3 194 164 163
3 195 164 194
3 195 196 164
3 164 196 165
3 197 198 166
3 166 198 167
3 198 168 167
3 199 168 198
3 200 169 168
3 201 169 200
3 201 171 170
3 202 171 201
3 203 173 172
3 204 173 203
3 205 175 174
3 206 175 205
3 207 177 176
3 208 177 207
3 209 179 178
3 210 179 209
3 210 180 179
3 211 180 210
3 212 182 181
3 213 182 212
3 214 184 183
3 215 184 214
3 216 185 184
3 217 185 216
3 218 186 185
3 219 186 218
3 219 188 187
3 220 188 219
3 220 190 189
3 221 190 220
3 222 192 191
3 223 192 222
3 224 193 192
3 225 193 224
3 225 195 194
3 226 195 225
3 227 228 195
3 195 228 196
3 229 230 197
3 197 230 198
3 231 199 198
3 232 199 231
3 233 201 200
3 234 201 233
3 235 202 201
3 236 202 235
3 236 204 203
3 237 204 236
3 238 206 205
3 239 206 238
3 240 208 207
3 241 208 240
3 242 210 209
3 243 210 242
3 244 211 210
3 245 211 244
3 245 213 212
3 246 213 245
3 247 215 214
3 248 215 247
3 249 217 216
3 250 217 249
3 251 219 218
3 252 219 251
3 252 220 219
3 253 220 252
3 254 221 220
3 255 221 254
3 255 223 222
3 256 223 255
3 256 225 224
3 257 225 256
3 258 226 225
3 259 226 258
3 259 260 227
3 227 260 228
3 261 262 229
3 229 262 230
3 262 232 231
3 263 232 262
3 263 234 233
3 264 234 263
3 264 236 235
3 265 236 264
3 266 237 236
3 267 237 266
3 267 239 238
3 268 239 267
3 269 241 240
3 270 241 269
3 271 243 242
3 272 243 271
3 273 245 244
3 274 245 273
3 275 246 245
3 276 246 275
3 277 248 247
3 278 248 277
3 279 250 249
3 280 250 279
3 281 252 251
3 282 252 281
3 283 253 252
3 284 253 283
3 285 255 254
3 286 255 285
3 287 256 255
3 288 256 287
3 289 257 256
3 290 257 289
3 290 259 258
3 291 259 290
3 291 292 259
3 259 292 260
3 293 294 261
3 261 294 262
3 295 263 262
3 296 263 295
3 297 264 263
3 298 264 297
3 298 265 264
3 299 265 298
3 300 267 266
3 301 267 300
3 301 268 267
3 302 268 301
3 302 270 269
3 303 270 302
3 303 272 271
3 304 272 303
3 304 274 273
3 305 274 304
3 305 276 275
3 306 276 305
3 306 278 277
3 307 278 306
3 307 280 279
3 308 280 307
3 308 282 281
3 309 282 308
3 310 284 283
3 311 284 310
3 312 286 285
3 313 286 312
3 313 288 287
3 314 288 313
3 314 290 289
3 315 290 314
3 316 291 290
3 317 291 316
3 317 318 291
3 291 318 292
3 319 294 293
3 320 296 319
3 319 296 295
3 321 298 320
3 320 298 297
3 322 299 321
3 321 299 298
3 323 301 322
3 322 301 300
3 324 302 323
3 323 302 301
3 325 303 324
3 324 303 302
3 326 304 325
3 325 304 303
3 327 305 326
3 326 305 304
3 328 306 327
3 327 306 305
3 329 307 328
3 328 307 306
3 330 308 329
3 329 308 307
3 331 309 330
3 330 309 308
3 332 311 331
3 331 311 310
3 333 313 332
3 332 313 312
3 334 314 333
3 333 314 313
3 335 315 334
3 334 315 314
3 336 317 335
3 335 317 316
3 336 318 317
3 337 338 2
3 2 338 339
3 2 340 337
3 2 4 340
3 4 341 340
3 4 7 341
3 7 342 341
3 7 9 342
3 9 343 342
3 9 11 343
3 11 344 343
3 11 14 344
3 14 345 344
3 14 17 345
3 17 346 345
3 17 20 346
3 20 347 346
3 20 22 347
3 22 348 347
3 22 25 348
3 25 349 348
3 25 28 349
3 28 350 349
3 28 31 350
3 31 351 350
3 31 33 351
3 33 352 351
3 33 36 352
3 36 353 352
3 36 38 353
3 38 354 353
3 38 40 354
3 40 355 354
3 40 43 355
3 43 356 355
3 43 46 356
3 46 49 356
3 356 49 357
3 358 339 338
3 358 359 339
3 49 360 357
3 77 360 49
3 361 359 358
3 361 362 359
3 77 363 360
3 104 363 77
3 364 362 361
3 364 365 362
3 104 366 363
3 134 366 104
3 367 365 364
3 367 135 365
3 134 368 366
3 165 368 134
3 369 135 367
3 369 166 135
3 165 370 368
3 196 370 165
3 371 166 369
3 371 197 166
3 196 372 370
3 228 372 196
3 373 197 371
3 373 374 197
3 228 375 372
3 260 375 228
3 376 374 373
3 376 261 374
3 260 377 375
3 292 377 260
3 378 261 376
3 378 293 261
3 292 379 377
3 318 379 292
3 378 380 293
3 293 380 319
3 381 319 380
3 320 319 381
3 382 320 381
3 321 320 382
3 383 321 382
3 322 321 383
3 384 322 383
3 323 322 384
3 385 323 384
3 324 323 385
3 386 324 385
3 325 324 386
3 387 325 386
3 326 325 387
3 388 326 387
3 327 326 388
3 389 327 388
3 328 327 389
3 390 328 389
3 329 328 390
3 391 329 390
3 330 329 391
3 392 330 391
3 331 330 392
3 393 331 392
3 332 331 393
3 394 332 393
3 333 332 394
3 395 333 394
3 334 333 395
3 396 334 395
3 335 334 396
3 397 335 396
3 336 335 397
3 318 336 379
3 379 336 397
3 398 399 337
3 337 399 400
3 337 401 398
3 337 340 401
3 340 402 401
3 340 341 402
3 341 403 402
3 341 342 403
3 342 404 403
3 342 343 404
3 343 405 404
3 343 344 405
3 344 406 405
3 344 345 406
3 345 407 406
3 345 346 407
3 346 408 407
3 346 347 408
3 347 409 408
3 347 348 409
3 348 410 409
3 348 349 410
3 349 411 410
3 349 350 411
3 350 412 411
3 350 351 412
3 351 413 412
3 351 352 413
3 352 414 413
3 352 353 414
3 353 415 414
3 353 354 415
3 354 416 415
3 354 355 416
3 355 417 416
3 355 356 417
3 356 357 417
3 417 357 418
3 419 400 399
3 419 420 400
3 357 421 418
3 360 421 357
3 422 420 419
3 422 423 420
3 360 424 421
3 363 424 360
3 425 423 422
3 425 426 423
3 363 427 424
3 366 427 363
3 428 426 425
3 428 429 426
3 366 430 427
3 368 430 366
3 431 429 428
3 431 369 429
3 368 432 430
3 370 432 368
3 433 369 431
3 433 434 369
3 370 435 432
3 372 435 370
3 436 434 433
3 436 437 434
3 372 438 435
3 375 438 372
3 439 437 436
3 439 440 437
3 375 441 438
3 377 441 375
3 442 378 443
3 378 439 443
3 378 440 439
3 442 443 444
3 442 444 445
3 445 444 446
3 445 446 447
3 447 446 448
3 447 448 449
3 449 448 450
3 449 450 451
3 451 450 452
3 451 452 453
3 453 452 454
3 453 454 455
3 455 454 456
3 455 456 457
3 457 456 458
3 457 458 459
3 459 458 460
3 459 460 461
3 461 460 462
3 461 462 463
3 463 462 464
3 463 464 465
3 465 464 466
3 465 466 467
3 467 466 468
3 467 468 469
3 469 468 470
3 469 470 471
3 471 470 472
3 471 472 473
3 473 472 474
3 473 474 475
3 475 474 476
3 475 476 477
3 476 441 477
3 441 379 477
3 441 377 379
3 442 380 378
3 445 381 442
3 442 381 380
3 447 382 445
3 445 382 381
3 449 383 447
3 447 383 382
3 451 384 449
3 449 384 383
3 453 385 451
3 451 385 384
3 455 386 453
3 453 386 385
3 457 387 455
3 455 387 386
3 459 388 457
3 457 388 387
3 461 389 459
3 459 389 388
3 463 390 461
3 461 390 389
3 465 391 463
3 463 391 390
3 467 392 465
3 465 392 391
3 469 393 467
3 467 393 392
3 471 394 469
3 469 394 393
3 473 395 471
3 471 395 394
3 475 396 473
3 473 396 395
3 477 397 475
3 475 397 396
3 379 397 477
3 478 479 398
3 398 479 399
3 398 480 478
3 398 401 480
3 401 481 480
3 401 402 481
3 402 482 481
3 402 403 482
3 403 483 482
3 403 404 483
3 404 484 483
3 404 405 484
3 405 485 484
3 405 406 485
3 406 486 485
3 406 407 486
3 407 487 486
3 407 408 487
3 408 488 487
3 408 409 488
3 409 489 488
3 409 410 489
3 410 490 489
3 410 411 490
3 411 491 490
3 411 412 491
3 412 492 491
3 412 413 492
3 413 493 492
3 413 414 493
3 414 494 493
3 414 415 494
3 415 495 494
3 415 416 495
3 416 496 495
3 416 417 496
3 417 418 496
3 496 418 497
3 498 399 479
3 498 419 399
3 418 499 497
3 421 499 418
3 500 419 498
3 500 501 419
3 421 502 499
3 424 502 421
3 503 501 500
3 503 425 501
3 424 504 502
3 427 504 424
3 505 425 503
3 505 506 425
3 427 507 504
3 430 507 427
3 508 506 505
3 508 509 506
3 430 510 507
3 432 510 430
3 511 509 508
3 511 433 509
3 432 512 510
3 435 512 432
3 513 433 511
3 513 514 433
3 435 515 512
3 438 515 435
3 516 514 513
3 516 517 514
3 438 518 515
3 441 518 438
3 516 519 517
3 517 519 443
3 520 443 519
3 444 443 520
3 521 444 520
3 446 444 521
3 522 446 521
3 448 446 522
3 523 448 522
3 450 448 523
3 524 450 523
3 452 450 524
3 525 452 524
3 454 452 525
3 526 454 525
3 456 454 526
3 527 456 526
3 458 456 527
3 528 458 527
3 460 458 528
3 529 460 528
3 462 460 529
3 530 462 529
3 464 462 530
3 531 464 530
3 466 464 531
3 532 466 531
3 468 466 532
3 533 468 532
3 470 468 533
3 534 470 533
3 472 470 534
3 535 472 534
3 474 472 535
3 536 474 535
3 476 474 536
3 441 476 518
3 518 476 536
3 537 538 478
3 478 538 539
3 478 540 537
3 478 480 540
3 480 541 540
3 480 481 541
3 481 542 541
3 481 482 542
3 482 543 542
3 482 483 543
3 483 544 543
3 483 484 544
3 484 545 544
3 484 485 545
3 485 546 545
3 485 486 546
3 486 547 546
3 486 487 547
3 487 548 547
3 487 488 548
3 488 549 548
3 488 489 549
3 489 550 549
3 489 490 550
3 490 551 550
3 490 491 551
3 491 552 551
3 491 492 552
3 492 553 552
3 492 493 553
3 493 554 553
3 493 494 554
3 494 555 554
3 494 495 555
3 495 556 555
3 495 496 556
3 496 497 556
3 556 497 557
3 558 539 538
3 558 498 539
3 497 559 557
3 499 559 497
3 560 498 558
3 560 561 498
3 499 562 559
3 502 562 499
3 563 561 560
3 563 503 561
3 502 564 562
3 504 564 502
3 565 503 563
3 565 566 503
3 504 567 564
3 568 567 504
3 569 566 565
3 569 570 566
3 568 571 567
3 510 571 568
3 572 570 569
3 572 511 570
3 510 573 571
3 512 573 510
3 574 511 572
3 574 513 511
3 512 575 573
3 515 575 512
3 576 513 574
3 576 577 513
3 515 578 575
3 518 578 515
3 576 579 577
3 577 579 519
3 580 519 579
3 520 519 580
3 581 520 580
3 521 520 581
3 582 521 581
3 522 521 582
3 583 522 582
3 523 522 583
3 584 523 583
3 524 523 584
3 585 524 584
3 525 524 585
3 586 525 585
3 526 525 586
3 587 526 586
3 527 526 587
3 588 527 587
3 528 527 588
3 589 528 588
3 529 528 589
3 590 529 589
3 530 529 590
3 591 530 590
3 531 530 591
3 592 531 591
3 532 531 592
3 593 532 592
3 533 532 593
3 594 533 593
3 534 533 594
3 595 534 594
3 535 534 595
3 596 535 595
3 536 535 596
3 518 536 578
3 578 536 596
3 597 598 537
3 537 598 599
3 537 600 597
3 537 540 600
3 540 601 600
3 540 541 601
3 541 602 601
3 541 542 602
3 542 603 602
3 542 543 603
3 543 604 603
3 543 544 604
3 544 605 604
3 544 545 605
3 545 606 605
3 545 546 606
3 546 607 606
3 546 547 607
3 547 608 607
3 547 548 608
3 548 609 608
3 548 549 609
3 549 610 609
3 549 550 610
3 550 611 610
3 550 551 611
3 551 612 611
3 551 552 612
3 552 613 612
3 552 553 613
3 553 614 613
3 553 554 614
3 554 615 614
3 554 555 615
3 555 616 615
3 555 556 616
3 556 557 616
3 616 557 617
3 618 599 598
3 618 558 599
3 557 619 617
3 559 619 557
3 620 558 618
3 620 621 558
3 559 622 619
3 562 622 559
3 623 621 620
3 623 563 621
3 562 624 622
3 564 624 562
3 625 563 623
3 625 626 563
3 564 627 624
3 628 627 564
3 629 626 625
3 629 569 626
3 628 630 627
3 571 630 628
3 631 569 629
3 631 572 569
3 571 632 630
3 573 632 571
3 633 572 631
3 633 574 572
3 573 634 632
3 575 634 573
3 635 574 633
3 635 576 574
3 575 636 634
3 578 636 575
3 635 637 576
3 576 637 579
3 638 579 637
3 580 579 638
3 639 580 638
3 581 580 639
3 640 581 639
3 582 581 640
3 641 582 640
3 583 582 641
3 642 583 641
3 584 583 642
3 643 584 642
3 585 584 643
3 644 585 643
3 586 585 644
3 645 586 644
3 587 586 645
3 646 587 645
3 588 587 646
3 647 588 646
3 589 588 647
3 648 589 647
3 590 589 648
3 649 590 648
3 591 590 649
3 650 591 649
3 592 591 650
3 651 592 650
3 593 592 651
3 652 593 651
3 594 593 652
3 653 594 652
3 595 594 653
3 654 595 653
3 596 595 654
3 578 596 636
3 636 596 654
3 655 656 597
3 597 656 598
3 597 657 655
3 597 600 657
3 600 658 657
3 600 601 658
3 601 659 658
3 601 602 659
3 602 660 659
3 602 603 660
3 603 661 660
3 603 604 661
3 604 662 661
3 604 605 662
3 605 663 662
3 605 606 663
3 606 664 663
3 606 607 664
3 607 665 664
3 607 608 665
3 608 666 665
3 608 609 666
3 609 667 666
3 609 610 667
3 610 668 667
3 610 611 668
3 611 669 668
3 611 612 669
3 612 670 669
3 612 613 670
3 613 671 670
3 613 614 671
3 614 672 671
3 614 615 672
3 615 673 672
3 615 616 673
3 616 617 673
3 673 617 674
3 675 598 656
3 675 618 598
3 617 676 674
3 619 676 617
3 677 618 675
3 677 678 618
3 619 679 676
3 622 679 619
3 680 678 677
3 680 623 678
3 622 681 679
3 624 681 622
3 682 623 680
3 682 683 623
3 624 684 681
3 627 684 624
3 685 683 682
3 685 686 683
3 627 687 684
3 630 687 627
3 688 686 685
3 688 631 686
3 630 689 687
3 632 689 630
3 690 631 688
3 690 691 631
3 632 692 689
3 634 692 632
3 693 691 690
3 693 694 691
3 634 695 692
3 636 695 634
3 693 696 694
3 694 696 637
3 697 637 696
3 638 637 697
3 698 638 697
3 639 638 698
3 699 639 698
3 640 639 699
3 700 640 699
3 641 640 700
3 701 641 700
3 642 641 701
3 702 642 701
3 643 642 702
3 703 643 702
3 644 643 703
3 704 644 703
3 645 644 704
3 705 645 704
3 646 645 705
3 706 646 705
3 647 646 706
3 707 647 706
3 648 647 707
3 708 648 707
3 649 648 708
3 709 649 708
3 650 649 709
3 710 650 709
3 651 650 710
3 711 651 710
3 652 651 711
3 712 652 711
3 653 652 712
3 713 653 712
3 654 653 713
3 636 654 695
3 695 654 713
3 714 715 655
3 655 715 716
3 655 717 714
3 655 657 717
3 657 718 717
3 657 658 718
3 658 719 718
3 658 659 719
3 659 720 719
3 659 660 720
3 660 721 720
3 660 661 721
3 661 722 721
3 661 662 722
3 662 723 722
3 662 663 723
3 663 724 723
3 663 664 724
3 664 725 724
3 664 665 725
3 665 726 725
3 665 666 726
3 666 727 726
3 666 667 727
3 667 728 727
3 667 668 728
3 668 729 728
3 668 669 729
3 669 730 729
3 669 670 730
3 670 731 730
3 670 671 731
3 671 732 731
3 671 672 732
3 672 733 732
3 672 673 733
3 673 674 733
3 733 674 734
3 735 716 715
3 735 736 716
3 674 737 734
3 676 737 674
3 738 736 735
3 738 739 736
3 676 740 737
3 679 740 676
3 741 739 738
3 741 742 739
3 679 743 740
3 681 743 679
3 744 742 741
3 744 682 742
3 681 745 743
3 684 745 681
3 746 682 744
3 746 747 682
3 684 748 745
3 687 748 684
3 749 747 746
3 749 750 747
3 687 751 748
3 689 751 687
3 752 750 749
3 752 753 750
3 689 754 751
3 692 754 689
3 755 753 752
3 755 693 753
3 692 756 754
3 695 756 692
3 755 757 693
3 693 757 696
3 758 696 757
3 697 696 758
3 759 697 758
3 698 697 759
3 760 698 759
3 699 698 760
3 761 699 760
3 700 699 761
3 762 700 761
3 701 700 762
3 763 701 762
3 702 701 763
3 764 702 763
3 703 702 764
3 765 703 764
3 704 703 765
3 766 704 765
3 705 704 766
3 767 705 766
3 706 705 767
3 768 706 767
3 707 706 768
3 769 707 768
3 708 707 769
3 770 708 769
3 709 708 770
3 771 709 770
3 710 709 771
3 772 710 771
3 711 710 772
3 773 711 772
3 712 711 773
3 774 712 773
3 713 712 774
3 695 713 756
3 756 713 774
3 775 776 714
3 714 776 777
3 714 778 775
3 714 717 778
3 717 779 778
3 717 718 779
3 718 780 779
3 718 719 780
3 719 781 780
3 719 720 781
3 720 782 781
3 720 721 782
3 721 783 782
3 721 722 783
3 722 784 783
3 722 723 784
3 723 785 784
3 723 724 785
3 724 786 785
3 724 725 786
3 725 787 786
3 725 726 787
3 726 788 787
3 726 727 788
3 727 789 788
3 727 728 789
3 728 790 789
3 728 729 790
3 729 791 790
3 729 730 791
3 730 792 791
3 730 731 792
3 731 793 792
3 731 732 793
3 732 794 793
3 732 733 794
3 733 734 794
3 794 734 795
3 796 777 776
3 796 735 777
3 734 797 795
3 737 797 734
3 798 735 796
3 798 799 735
3 737 800 797
3 740 800 737
3 801 799 798
3 801 802 799
3 740 803 800
3 743 803 740
3 804 802 801
3 804 805 802
3 743 806 803
3 745 806 743
3 807 805 804
3 807 746 805
3 745 808 806
3 748 808 745
3 809 746 807
3 809 810 746
3 748 811 808
3 751 811 748
3 812 810 809
3 812 813 810
3 751 814 811
3 754 814 751
3 815 813 812
3 815 816 813
3 754 817 814
3 756 817 754
3 815 818 816
3 816 818 757
3 819 757 818
3 758 757 819
3 820 758 819
3 759 758 820
3 821 759 820
3 760 759 821
3 822 760 821
3 761 760 822
3 823 761 822
3 762 761 823
3 824 762 823
3 763 762 824
3 825 763 824
3 764 763 825
3 826 764 825
3 765 764 826
3 827 765 826
3 766 765 827
3 828 766 827
3 767 766 828
3 829 767 828
3 768 767 829
3 830 768 829
3 769 768 830
3 831 769 830
3 770 769 831
3 832 770 831
3 771 770 832
3 833 771 832
3 772 771 833
3 834 772 833
3 773 772 834
3 835 773 834
3 774 773 835
3 756 774 817
3 817 774 835
3 836 837 775
3 775 837 838
3 775 839 836
3 775 778 839
3 778 840 839
3 778 779 840
3 779 841 840
3 779 780 841
3 780 842 841
3 780 781 842
3 781 843 842
3 781 782 843
3 782 844 843
3 782 783 844
3 783 845 844
3 783 784 845
3 784 846 845
3 784 785 846
3 785 847 846
3 785 786 847
3 786 848 847
3 786 787 848
3 787 849 848
3 787 788 849
3 788 850 849
3 788 789 850
3 789 851 850
3 789 790 851
3 790 852 851
3 790 791 852
3 791 853 852
3 791 792 853
3 792 854 853
3 792 793 854
3 793 855 854
3 793 794 855
3 794 795 855
3 855 795 856
3 857 838 837
3 857 796 838
3 795 858 856
3 797 858 795
3 859 796 857
3 859 860 796
3 797 861 858
3 800 861 797
3 862 860 859
3 862 863 860
3 800 864 861
3 803 864 800
3 865 863 862
3 865 804 863
3 803 866 864
3 806 866 803
3 867 804 865
3 867 868 804
3 806 869 866
3 808 869 806
3 870 868 867
3 870 871 868
3 808 872 869
3 811 872 808
3 873 871 870
3 873 874 871
3 811 875 872
3 814 875 811
3 876 874 873
3 876 877 874
3 814 878 875
3 817 878 814
3 876 879 877
3 877 879 818
3 880 818 879
3 819 818 880
3 881 819 880
3 820 819 881
3 882 820 881
3 821 820 882
3 883 821 882
3 822 821 883
3 884 822 883
3 823 822 884
3 885 823 884
3 824 823 885
3 886 824 885
3 825 824 886
3 887 825 886
3 826 825 887
3 888 826 887
3 827 826 888
3 889 827 888
3 828 827 889
3 890 828 889
3 829 828 890
3 891 829 890
3 830 829 891
3 892 830 891
3 831 830 892
3 893 831 892
3 832 831 893
3 894 832 893
3 833 832 894
3 895 833 894
3 834 833 895
3 896 834 895
3 835 834 896
3 817 835 878
3 878 835 896
3 897 898 836
3 836 898 899
3 836 900 897
3 836 839 900
3 839 901 900
3 839 840 901
3 840 902 901
3 840 841 902
3 841 903 902
3 841 842 903
3 842 904 903
3 842 843 904
3 843 905 904
3 843 844 905
3 844 906 905
3 844 845 906
3 845 907 906
3 845 846 907
3 846 908 907
3 846 847 908
3 847 909 908
3 847 848 909
3 848 910 909
3 848 849 910
3 849 911 910
3 849 850 911
3 850 912 911
3 850 851 912
3 851 913 912
3 851 852 913
3 852 914 913
3 852 853 914
3 853 915 914
3 853 854 915
3 854 916 915
3 854 855 916
3 855 856 916
3 916 856 917
3 918 899 898
3 918 919 899
3 856 920 917
3 858 920 856
3 921 919 918
3 921 859 919
3 858 922 920
3 861 922 858
3 923 859 921
3 923 924 859
3 861 925 922
3 864 925 861
3 926 924 923
3 926 865 924
3 864 927 925
3 866 927 864
3 928 865 926
3 928 929 865
3 866 930 927
3 869 930 866
3 931 929 928
3 931 932 929
3 869 933 930
3 872 933 869
3 934 932 931
3 934 935 932
3 872 936 933
3 875 936 872
3 937 935 934
3 937 938 935
3 875 939 936
3 878 939 875
3 937 940 938
3 938 940 879
3 941 879 940
3 880 879 941
3 942 880 941
3 881 880 942
3 943 881 942
3 882 881 943
3 944 882 943
3 883 882 944
3 945 883 944
3 884 883 945
3 946 884 945
3 885 884 946
3 947 885 946
3 886 885 947
3 948 886 947
3 887 886 948
3 949 887 948
3 888 887 949
3 950 888 949
3 889 888 950
3 951 889 950
3 890 889 951
3 952 890 951
3 891 890 952
3 953 891 952
3 892 891 953
3 954 892 953
3 893 892 954
3 955 893 954
3 894 893 955
3 956 894 955
3 895 894 956
3 957 895 956
3 896 895 957
3 878 896 939
3 939 896 957
3 958 959 897
3 897 959 898
3 897 960 958
3 897 900 960
3 900 961 960
3 900 901 961
3 901 962 961
3 901 902 962
3 902 963 962
3 902 903 963
3 903 964 963
3 903 904 964
3 904 965 964
3 904 905 965
3 905 966 965
3 905 906 966
3 906 967 966
3 906 907 967
3 907 968 967
3 907 908 968
3 908 969 968
3 908 909 969
3 909 970 969
3 909 910 970
3 910 971 970
3 910 911 971
3 911 972 971
3 911 912 972
3 912 973 972
3 912 913 973
3 913 974 973
3 913 914 974
3 914 975 974
3 914 915 975
3 915 976 975
3 915 916 976
3 916 917 976
3 976 917 977
3 978 898 959
3 978 918 898
3 917 979 977
3 920 979 917
3 980 918 978
3 980 981 918
3 920 982 979
3 922 982 920
3 983 981 980
3 983 984 981
3 922 985 982
3 925 985 922
3 986 984 983
3 986 926 984
3 925 987 985
3 927 987 925
3 988 926 986
3 988 928 926
3 927 989 987
3 930 989 927
3 990 928 988
3 990 991 928
3 930 992 989
3 933 992 930
3 993 991 990
3 993 934 991
3 933 994 992
3 936 994 933
3 995 934 993
3 995 937 934
3 936 996 994
3 939 996 936
3 995 997 937
3 937 997 940
3 998 940 997
3 941 940 998
3 999 941 998
3 942 941 999
3 1000 942 999
3 943 942 1000
3 1001 943 1000
3 944 943 1001
3 1002 944 1001
3 945 944 1002
3 1003 945 1002
3 946 945 1003
3 1004 946 1003
3 947 946 1004
3 1005 947 1004
3 948 947 1005
3 1006 948 1005
3 949 948 1006
3 1007 949 1006
3 950 949 1007
3 1008 950 1007
3 951 950 1008
3 1009 951 1008
3 952 951 1009
3 1010 952 1009
3 953 952 1010
3 1011 953 1010
3 954 953 1011
3 1012 954 1011
3 955 954 1012
3 1013 955 1012
3 956 955 1013
3 1014 956 1013
3 957 956 1014
3 939 957 996
3 996 957 1014
3 1015 1016 958
3 958 1016 959
3 958 1017 1015
3 958 960 1017
3 960 1018 1017
3 960 961 1018
3 961 1019 1018
3 961 962 1019
3 962 1020 1019
3 962 963 1020
3 963 1021 1020
3 963 964 1021
3 964 1022 1021
3 964 965 1022
3 965 1023 1022
3 965 966 1023
3 966 1024 1023
3 966 967 1024
3 967 1025 1024
3 967 968 1025
3 968 1026 1025
3 968 969 1026
3 969 1027 1026
3 969 970 1027
3 970 1028 1027
3 970 971 1028
3 971 1029 1028
3 971 972 1029
3 972 1030 1029
3 972 973 1030
3 973 1031 1030
3 973 974 1031
3 974 1032 1031
3 974 975 1032
3 975 1033 1032
3 975 976 1033
3 976 977 1033
3 1033 977 1034
3 1035 959 1016
3 1035 978 959
3 977 1036 1034
3 979 1036 977
3 1037 978 1035
3 1037 980 978
3 979 1038 1036
3 982 1038 979
3 1039 980 1037
3 1039 983 980
3 982 1040 1038
3 985 1040 982
3 1041 983 1039
3 1041 986 983
3 985 1042 1040
3 987 1042 985
3 1043 986 1041
3 1043 988 986
3 987 1044 1042
3 989 1044 987
3 1045 988 1043
3 1045 1046 988
3 989 1047 1044
3 992 1047 989
3 1048 1046 1045
3 1048 993 1046
3 992 1049 1047
3 994 1049 992
3 1050 993 1048
3 1050 995 993
3 994 1051 1049
3 996 1051 994
3 1050 1052 995
3 995 1052 997
3 1053 997 1052
3 998 997 1053
3 1054 998 1053
3 999 998 1054
3 1055 999 1054
3 1000 999 1055
3 1056 1000 1055
3 1001 1000 1056
3 1057 1001 1056
3 1002 1001 1057
3 1058 1002 1057
3 1003 1002 1058
3 1059 1003 1058
3 1004 1003 1059
3 1060 1004 1059
3 1005 1004 1060
3 1061 1005 1060
3 1006 1005 1061
3 1062 1006 1061
3 1007 1006 1062
3 1063 1007 1062
3 1008 1007 1063
3 1064 1008 1063
3 1009 1008 1064
3 1065 1009 1064
3 1010 1009 1065
3 1066 1010 1065
3 1011 1010 1066
3 1067 1011 1066
3 1012 1011 1067
3 1068 1012 1067
3 1013 1012 1068
3 1069 1013 1068
3 1014 1013 1069
3 996 1014 1051
3 1051 1014 1069
3 1015 1070 1071
3 1070 1015 1072
3 1072 1015 1017
3 1072 1017 1073
3 1073 1017 1018
3 1073 1018 1074
3 1074 1018 1019
3 1074 1019 1075
3 1075 1019 1020
3 1075 1020 1076
3 1076 1020 1021
3 1076 1021 1077
3 1077 1021 1022
3 1077 1022 1078
3 1078 1022 1023
3 1078 1023 1079
3 1079 1023 1024
3 1079 1024 1080
3 1080 1024 1025
3 1080 1025 1081
3 1081 1025 1026
3 1081 1026 1082
3 1082 1026 1027
3 1082 1027 1083
3 1083 1027 1028
3 1083 1028 1084
3 1084 1028 1029
3 1084 1029 1085
3 1085 1029 1030
3 1085 1030 1086
3 1086 1030 1031
3 1086 1031 1087
3 1087 1031 1032
3 1087 1032 1088
3 1088 1032 1033
3 1033 1034 1088
3 1071 1070 1035
3 1035 1070 1089
3 1072 1089 1070
3 1072 1090 1089
3 1073 1090 1072
3 1073 1091 1090
3 1074 1091 1073
3 1074 1092 1091
3 1075 1093 1074
3 1075 1094 1093
3 1076 1094 1075
3 1076 1095 1094
3 1077 1095 1076
3 1077 1096 1095
3 1078 1096 1077
3 1078 1097 1096
3 1079 1097 1078
3 1079 1098 1097
3 1080 1098 1079
3 1080 1099 1098
3 1081 1099 1080
3 1081 1100 1099
3 1082 1100 1081
3 1082 1101 1100
3 1083 1101 1082
3 1083 1102 1101
3 1084 1102 1083
3 1084 1103 1102
3 1085 1103 1084
3 1085 1104 1103
3 1086 1104 1085
3 1086 1105 1104
3 1087 1105 1086
3 1087 1106 1105
3 1088 1106 1087
3 1088 1107 1106
3 1088 1034 1107
3 1107 1034 1036
3 1035 1089 1108
3 1108 1089 1109
3 1090 1109 1089
3 1090 1110 1109
3 1091 1110 1090
3 1091 1111 1110
3 1092 1111 1091
3 1092 1112 1111
3 1094 1112 1093
3 1094 1113 1112
3 1095 1113 1094
3 1095 1114 1113
3 1096 1114 1095
3 1096 1115 1114
3 1097 1115 1096
3 1097 1116 1115
3 1098 1117 1097
3 1098 1118 1117
3 1099 1118 1098
3 1099 1119 1118
3 1100 1119 1099
3 1100 1120 1119
3 1101 1120 1100
3 1101 1121 1120
3 1102 1121 1101
3 1102 1122 1121
3 1103 1122 1102
3 1103 1123 1122
3 1104 1123 1103
3 1104 1124 1123
3 1105 1124 1104
3 1105 1125 1124
3 1106 1125 1105
3 1106 1126 1125
3 1107 1126 1106
3 1107 1127 1126
3 1107 1036 1127
3 1127 1036 1038
3 1108 1109 1128
3 1128 1109 1129
3 1110 1129 1109
3 1110 1130 1129
3 1111 1130 1110
3 1111 1131 1130
3 1112 1131 1111
3 1112 1132 1131
3 1113 1132 1112
3 1113 1133 1132
3 1114 1133 1113
3 1114 1134 1133
3 1115 1134 1114
3 1115 1135 1134
3 1116 1135 1115
3 1116 1136 1135
3 1118 1136 1117
3 1118 1137 1136
3 1119 1137 1118
3 1119 1138 1137
3 1120 1138 1119
3 1120 1139 1138
3 1121 1139 1120
3 1121 1140 1139
3 1122 1140 1121
3 1122 1141 1140
3 1123 1141 1122
3 1123 1142 1141
3 1124 1142 1123
3 1124 1143 1142
3 1125 1143 1124
3 1125 1144 1143
3 1126 1144 1125
3 1126 1145 1144
3 1127 1145 1126
3 1127 1146 1145
3 1127 1038 1146
3 1146 1038 1040
3 1128 1129 1041
3 1041 1129 1147
3 1130 1147 1129
3 1130 1148 1147
3 1131 1148 1130
3 1131 1149 1148
3 1132 1149 1131
3 1132 1150 1149
3 1133 1150 1132
3 1133 1151 1150
3 1134 1151 1133
3 1134 1152 1151
3 1135 1152 1134
3 1135 1153 1152
3 1136 1154 1135
3 1136 1155 1154
3 1137 1155 1136
3 1137 1156 1155
3 1138 1156 1137
3 1138 1157 1156
3 1139 1157 1138
3 1139 1158 1157
3 1140 1158 1139
3 1140 1159 1158
3 1141 1159 1140
3 1141 1160 1159
3 1142 1160 1141
3 1142 1161 1160
3 1143 1161 1142
3 1143 1162 1161
3 1144 1162 1143
3 1144 1163 1162
3 1145 1163 1144
3 1145 1164 1163
3 1146 1164 1145
3 1146 1165 1164
3 1146 1040 1165
3 1165 1040 1042
3 1041 1147 1043
3 1043 1147 1166
3 1148 1166 1147
3 1148 1167 1166
3 1149 1167 1148
3 1149 1168 1167
3 1150 1168 1149
3 1150 1169 1168
3 1151 1169 1150
3 1151 1170 1169
3 1152 1170 1151
3 1152 1171 1170
3 1153 1171 1152
3 1153 1172 1171
3 1155 1172 1154
3 1155 1173 1172
3 1156 1173 1155
3 1156 1174 1173
3 1157 1174 1156
3 1157 1175 1174
3 1158 1175 1157
3 1158 1176 1175
3 1159 1176 1158
3 1159 1177 1176
3 1160 1177 1159
3 1160 1178 1177
3 1161 1178 1160
3 1161 1179 1178
3 1162 1179 1161
3 1162 1180 1179
3 1163 1180 1162
3 1163 1181 1180
3 1164 1181 1163
3 1164 1182 1181
3 1165 1182 1164
3 1165 1183 1182
3 1165 1042 1183
3 1183 1042 1044
3 1043 1166 1045
3 1045 1166 1184
3 1167 1185 1166
3 1167 1186 1185
3 1168 1186 1167
3 1168 1187 1186
3 1169 1187 1168
3 1169 1188 1187
3 1170 1188 1169
3 1170 1189 1188
3 1171 1189 1170
3 1171 1190 1189
3 1172 1190 1171
3 1172 1191 1190
3 1173 1191 1172
3 1173 1192 1191
3 1174 1192 1173
3 1174 1193 1192
3 1175 1193 1174
3 1175 1194 1193
3 1176 1195 1175
3 1176 1196 1195
3 1177 1196 1176
3 1177 1197 1196
3 1178 1197 1177
3 1178 1198 1197
3 1179 1198 1178
3 1179 1199 1198
3 1180 1199 1179
3 1180 1200 1199
3 1181 1200 1180
3 1181 1201 1200
3 1182 1201 1181
3 1182 1202 1201
3 1183 1202 1182
3 1183 1203 1202
3 1183 1044 1203
3 1203 1044 1204
3 1045 1184 1048
3 1048 1184 1205
3 1186 1205 1185
3 1186 1206 1205
3 1187 1206 1186
3 1187 1207 1206
3 1188 1207 1187
3 1188 1208 1207
3 1189 1208 1188
3 1189 1209 1208
3 1190 1209 1189
3 1190 1210 1209
3 1191 1210 1190
3 1191 1211 1210
3 1192 1211 1191
3 1192 1212 1211
3 1193 1212 1192
3 1193 1213 1212
3 1194 1213 1193
3 1194 1214 1213
3 1196 1214 1195
3 1196 1215 1214
3 1197 1215 1196
3 1197 1216 1215
3 1198 1216 1197
3 1198 1217 1216
3 1199 1217 1198
3 1199 1218 1217
3 1200 1218 1199
3 1200 1219 1218
3 1201 1219 1200
3 1201 1220 1219
3 1202 1220 1201
3 1202 1221 1220
3 1203 1221 1202
3 1203 1222 1221
3 1203 1204 1222
3 1222 1204 1049
3 1048 1205 1050
3 1050 1205 1223
3 1206 1223 1205
3 1206 1224 1223
3 1207 1224 1206
3 1207 1225 1224
3 1208 1225 1207
3 1208 1226 1225
3 1209 1226 1208
3 1209 1227 1226
3 1210 1227 1209
3 1210 1228 1227
3 1211 1229 1210
3 1211 1230 1229
3 1212 1230 1211
3 1212 1231 1230
3 1213 1231 1212
3 1213 1232 1231
3 1214 1232 1213
3 1214 1233 1232
3 1215 1233 1214
3 1215 1234 1233
3 1216 1234 1215
3 1216 1235 1234
3 1217 1235 1216
3 1217 1236 1235
3 1218 1236 1217
3 1218 1237 1236
3 1219 1237 1218
3 1219 1238 1237
3 1220 1238 1219
3 1220 1239 1238
3 1221 1239 1220
3 1221 1240 1239
3 1222 1240 1221
3 1222 1241 1240
3 1222 1049 1241
3 1241 1049 1051
3 1223 1052 1050
3 1224 1053 1223
3 1223 1053 1052
3 1225 1054 1224
3 1224 1054 1053
3 1226 1055 1225
3 1225 1055 1054
3 1227 1056 1226
3 1226 1056 1055
3 1228 1057 1227
3 1227 1057 1056
3 1230 1058 1229
3 1229 1058 1057
3 1231 1059 1230
3 1230 1059 1058
3 1232 1060 1231
3 1231 1060 1059
3 1233 1061 1232
3 1232 1061 1060
3 1234 1062 1233
3 1233 1062 1061
3 1235 1063 1234
3 1234 1063 1062
3 1236 1064 1235
3 1235 1064 1063
3 1237 1065 1236
3 1236 1065 1064
3 1238 1066 1237
3 1237 1066 1065
3 1239 1067 1238
3 1238 1067 1066
3 1240 1068 1239
3 1239 1068 1067
3 1241 1069 1240
3 1240 1069 1068
3 1051 1069 1241
