ply
format ascii 1.0
element vertex 1280
property float x
property float y
property float z
element face 2132
property list uchar int vertex_index
end_header
0.56211 1 1
1 1 0.56211
1 0.563627 1
1 1 0.56211
2 0.563564 1
2 1 0.562046
2 1 0.562046
3 0.563505 1
3 1 0.561986
4 0.563453 1
4 1 0.561933
4 1 0.561933
5 0.563411 1
5 1 0.56189
6 0.563381 1
6 1 0.561859
7 0.563363 1
7 1 0.56184
8 0.563356 1
8 1 0.561831
8 1 0.561831
9 0.563358 1
9 1 0.561832
10 0.563367 1
10 1 0.561841
10 1 0.561841
11 0.563383 1
11 1 0.561855
11 1 0.561855
12 0.563402 1
12 1 0.561875
13 0.563426 1
13 1 0.561897
14 0.563452 1
14 1 0.561923
15 0.563481 1
15 1 0.561952
15 1 0.561952
16 0.563511 1
16 1 0.561981
16 1 0.561981
17 0.563546 1
17 1 0.562016
17 1 0.562016
18 0.563563 1
18 1 0.562033
18.438 1 1
0.479015 2 1
1 2 0.479015
1 2 0.479015
2 2 0.478949
2 2 0.478949
3 2 0.478873
4 2 0.478796
4 2 0.478796
5 2 0.478723
5 2 0.478723
6 2 0.478659
7 2 0.478607
7 2 0.478607
8 2 0.478568
8 2 0.478568
9 2 0.478541
9 2 0.478541
10 2 0.478526
10 2 0.478526
11 2 0.478519
11 2 0.478519
12 2 0.47852
12 2 0.47852
13 2 0.478526
13 2 0.478526
14 2 0.478538
14 2 0.478538
15 2 0.478554
15 2 0.478554
16 2 0.478574
16 2 0.478574
17 2 0.478599
17 2 0.478599
18 2 0.478612
18 2 0.478612
18.5214 2 1
0.384914 3 1
1 3 0.384914
1 3 0.384914
2 3 0.384835
2 3 0.384835
3 3 0.38473
3 3 0.38473
4 3 0.384613
4 3 0.384613
5 3 0.384497
5 3 0.384497
6 3 0.384389
6 3 0.384389
7 3 0.384296
7 3 0.384296
8 3 0.384221
8 3 0.384221
9 3 0.384163
9 3 0.384163
10 3 0.384121
10 3 0.384121
11 3 0.384093
11 3 0.384093
12 3 0.384076
12 3 0.384076
13 3 0.384068
14 3 0.384067
15 3 0.384072
15 3 0.384072
16 3 0.384082
16 3 0.384082
17 3 0.3841
17 3 0.3841
18 3 0.38411
18.6159 3 1
0.646671 4 1
1 4 0.646671
2 4 0.646543
3 4 0.646416
3 4 0.646416
4 4 0.646304
4 4 0.646304
5 4 0.646215
5 4 0.646215
6 4 0.64615
6 4 0.64615
7 4 0.646109
8 4 0.64609
8 4 0.64609
9 4 0.646088
9 4 0.646088
10 4 0.646099
11 4 0.646119
11 4 0.646119
12 4 0.646145
13 4 0.646176
13 4 0.646176
14 4 0.646211
14 4 0.646211
15 4 0.646249
15 4 0.646249
16 4 0.646289
17 4 0.646338
17 4 0.646338
18 4 0.646362
18 4 0.646362
18.3536 4 1
0.604654 5 1
1 5 0.604654
1 5 0.604654
2 5 0.604466
3 5 0.604249
3 5 0.604249
4 5 0.604037
4 5 0.604037
5 5 0.603848
5 5 0.603848
6 5 0.603694
6 5 0.603694
7 5 0.603579
7 5 0.603579
8 5 0.603502
9 5 0.603455
10 5 0.603431
11 5 0.603423
12 5 0.603428
13 5 0.603441
13 5 0.603441
14 5 0.603461
15 5 0.603487
15 5 0.603487
16 5 0.603517
16 5 0.603517
17 5 0.603558
18 5 0.603579
18.3964 5 1
0.506343 6 1
1 6 0.506343
2 6 0.506049
3 6 0.505657
4 6 0.505252
4 6 0.505252
5 6 0.504872
5 6 0.504872
6 6 0.50455
7 6 0.504303
8 6 0.504129
8 6 0.504129
9 6 0.504014
9 6 0.504014
10 6 0.503941
11 6 0.503899
12 6 0.503876
12 6 0.503876
13 6 0.503869
13 6 0.503869
14 6 0.503873
14 6 0.503873
15 6 0.503886
16 6 0.503906
16 6 0.503906
17 6 0.503937
17 6 0.503937
18 6 0.503954
18.496 6 1
0.369931 7 1
1 7 0.369931
1 7 0.369931
2 7 0.36944
2 7 0.36944
3 7 0.368721
3 7 0.368721
4 7 0.367988
5 7 0.367297
6 7 0.36672
7 7 0.366293
7 7 0.366293
8 7 0.366006
8 7 0.366006
9 7 0.365825
10 7 0.365715
11 7 0.365651
11 7 0.365651
12 7 0.365617
13 7 0.365603
14 7 0.365604
14 7 0.365604
15 7 0.365614
15 7 0.365614
16 7 0.365632
17 7 0.365659
18 7 0.365673
18 7 0.365673
18.6343 7 1
0.635308 8 1
1 8 0.635308
1 8 0.635308
2 8 0.634511
3 8 0.633709
3 8 0.633709
4 8 0.633072
4 8 0.633072
5 8 0.632562
5 8 0.632562
6 8 0.632237
6 8 0.632237
7 8 0.632089
7 8 0.632089
8 8 0.63206
8 8 0.63206
9 8 0.63209
10 8 0.632145
10 8 0.632145
11 8 0.632205
12 8 0.632267
13 8 0.632329
13 8 0.632329
14 8 0.63239
15 8 0.632449
15 8 0.632449
16 8 0.632509
16 8 0.632509
17 8 0.632575
18 8 0.632609
18 8 0.632609
18.3674 8 1
0.494074 9 1
1 9 0.494473
1 9 0.494473
2 9 0.492545
2 9 0.492545
3 9 0.48993
3 9 0.48993
4 9 0.48795
5 9 0.486315
5 9 0.486315
6 9 0.485231
6 9 0.485231
7 9 0.484696
7 9 0.484696
8 9 0.484506
8 9 0.484506
9 9 0.48448
10 9 0.484527
10 9 0.484527
11 9 0.484596
11 9 0.484596
12 9 0.484675
12 9 0.484675
13 9 0.484757
13 9 0.484757
14 9 0.484837
14 9 0.484837
15 9 0.484911
16 9 0.484978
16 9 0.484978
17 9 0.485041
18 9 0.485071
18 9 0.485071
18.5152 9 1
0.658555 10 1
1 10 0.670021
2 10 0.666722
3 10 0.664469
3 10 0.664469
4 10 0.664065
5 10 0.663622
6 10 0.663872
6 10 0.663872
7 10 0.66448
7 10 0.66448
8 10 0.665087
9 10 0.665562
10 10 0.66592
10 10 0.66592
11 10 0.666179
12 10 0.666382
13 10 0.666547
14 10 0.666681
14 10 0.666681
15 10 0.666792
15 10 0.666792
16 10 0.666885
17 10 0.666973
18 10 0.667016
18 10 0.667016
18.3448 10 1
0.322303 11 1
1 11 0.322293
1 11 0.322293
2 11 0.316765
2 11 0.316765
3 11 0.309475
3 11 0.309475
4 11 0.307819
4 11 0.307819
5 11 0.307352
6 11 0.308179
6 11 0.308179
7 11 0.309419
7 11 0.309419
8 11 0.310596
8 11 0.310596
9 11 0.311534
9 11 0.311534
10 11 0.312244
10 11 0.312244
11 11 0.312787
11 11 0.312787
12 11 0.313213
12 11 0.313213
13 11 0.313549
14 11 0.313812
14 11 0.313812
15 11 0.314015
15 11 0.314015
16 11 0.314168
16 11 0.314168
17 11 0.314281
17 11 0.314281
18 11 0.314325
18 11 0.314325
18.6857 11 1
1 11.6777 1
2 11.6832 1
3 11.6905 1
4 11.6922 1
5 11.6926 1
6 11.6918 1
7 11.6906 1
8 11.6894 1
9 11.6885 1
10 11.6878 1
11 11.6872 1
12 11.6868 1
13 11.6865 1
14 11.6862 1
15 11.686 1
16 11.6858 1
17 11.6857 1
18 11.6857 1
1 0.606807 2
0.605266 1 2
2 0.606739 2
3 0.606677 2
4 0.606624 2
5 0.606582 2
6 0.606554 2
7 0.606538 2
8 0.606533 2
9 0.606539 2
10 0.606552 2
11 0.606571 2
12 0.606595 2
13 0.606623 2
14 0.606653 2
15 0.606685 2
16 0.606719 2
17 0.606758 2
18 0.606777 2
18.3948 1 2
0.51664 2 2
0.479015 2 1
18.4837 2 2
18.5214 2 1
0.419122 3 2
18.5816 3 2
0.704276 4 2
18.2959 4 2
0.658733 5 2
0.604654 5 1
18.3423 5 2
0.558115 6 2
18.4441 6 2
0.420145 7 2
18.5839 7 2
0.710102 8 2
0.635308 8 1
18.2924 8 2
0.457791 9 2
18.5443 9 2
0.324015 10 2
18.6828 10 2
0.559948 11 2
18.4637 11 2
1 11.4316 2
2 11.4394 2
3 11.445 2
4 11.4486 2
5 11.4561 2
6 11.4594 2
7 11.4591 2
8 11.4583 2
9 11.4578 2
10 11.4573 2
11 11.457 2
12 11.4567 2
13 11.4565 2
14 11.4563 2
15 11.4561 2
16 11.456 2
17 11.4559 2
18 11.4559 2
1 0.622214 3
0.620938 1 3
2 0.622149 3
3 0.622087 3
4 0.622034 3
5 0.621991 3
6 0.621961 3
7 0.621942 3
8 0.621935 3
9 0.621937 3
10 0.621947 3
11 0.621964 3
12 0.621985 3
13 0.62201 3
14 0.622039 3
15 0.62207 3
16 0.622103 3
17 0.622142 3
18 0.622161 3
18.3791 1 3
0.533663 2 3
0.51664 2 2
18.4667 2 3
0.438579 3 3
0.419122 3 2
18.5621 3 3
0.488687 4 3
18.5109 4 3
0.48565 5 3
0.658733 5 2
18.514 5 3
0.456658 6 3
0.558115 6 2
18.5434 6 3
0.398283 7 3
0.420145 7 2
18.6025 7 3
0.603733 8 3
0.710102 8 2
18.3944 8 3
0.622064 9 3
0.457791 9 2
18.3779 9 3
0.526786 10 3
18.4751 10 3
1 11 2.68667
1 10.7079 3
1.4332 11 3
18.2669 11 3
2 11.2552 3
3 11.2536 3
4 11.2569 3
5 11.2609 3
6 11.2655 3
7 11.2657 3
8 11.2643 3
9 11.2638 3
10 11.2629 3
11 11.2627 3
12 11.2625 3
13 11.2623 3
14 11.2622 3
15 11.2621 3
16 11.262 3
17 11.2619 3
18 11.2618 3
1 0.471664 4
0.470879 1 4
0.620938 1 3
2 0.47163 4
3 0.471607 4
4 0.471596 4
5 0.471596 4
6 0.471607 4
7 0.471626 4
8 0.471652 4
9 0.471682 4
10 0.471716 4
11 0.471751 4
12 0.471786 4
13 0.47182 4
14 0.471853 4
15 0.471885 4
16 0.471915 4
17 0.471946 4
18 0.47196 4
18.5288 1 4
0.416476 2 4
0.533663 2 3
18.5834 2 4
0.35682 3 4
0.438579 3 3
18.6432 3 4
0.559067 4 4
18.4404 4 4
0.576423 5 4
0.48565 5 3
18.4231 5 4
0.555643 6 4
0.456658 6 3
18.4441 6 4
0.505003 7 4
18.4953 7 4
0.427404 8 4
0.603733 8 3
18.5735 8 4
0.711127 9 4
18.2884 9 4
0.512814 10 4
18.4875 10 4
1 10.5065 4
2 10.593 4
2 11 3.43096
3 10.5931 4
3 11 3.42885
4 10.5936 4
4 11 3.43281
5 10.5935 4
5 11 3.43709
6 10.5946 4
6 11 3.44275
7 10.5945 4
7 11 3.44296
8 10.5934 4
8 11 3.4409
8 11 3.4409
9 10.5923 4
9 11 3.43983
10 10.5916 4
10 11 3.43857
11 10.5922 4
11 11 3.43853
12 10.5924 4
12 11 3.43847
13 10.5927 4
13 11 3.4384
14 10.5929 4
14 11 3.43832
15 10.5931 4
15 11 3.43829
16 10.5932 4
16 11 3.43825
17 10.5932 4
17 11 3.43817
18 10.5932 4
18 11 3.43813
1 0.529412 5
0.528723 1 5
0.470879 1 4
2 0.529379 5
3 0.529357 5
4 0.529345 5
5 0.529343 5
6 0.529352 5
7 0.529369 5
8 0.529392 5
9 0.529421 5
10 0.529453 5
11 0.529486 5
12 0.52952 5
13 0.529554 5
14 0.529587 5
15 0.529619 5
16 0.529649 5
17 0.529681 5
18 0.529696 5
18.471 1 5
0.474768 2 5
0.416476 2 4
18.5251 2 5
0.416236 3 5
18.5837 3 5
0.354353 4 5
18.6457 4 5
0.641589 5 5
0.576423 5 4
18.3579 5 5
0.640166 6 5
18.3595 6 5
0.597286 7 5
18.4027 7 5
0.521918 8 5
18.4784 8 5
0.370853 9 5
0.711127 9 4
18.628 9 5
0.355562 10 5
0.512814 10 4
18.664 10 5
1 10.6445 5
2 10.6522 5
3 10.6543 5
4 10.6575 5
5 10.649 5
6 10.6459 5
7 10.6477 5
8 10.6519 5
9 10.6547 5
10 10.6506 5
11 10.6597 5
12 10.6631 5
13 10.6634 5
14 10.6634 5
15 10.6637 5
16 10.6638 5
17 10.6639 5
18 10.664 5
1 0.574985 6
0.574413 1 6
2 0.574954 6
3 0.574931 6
4 0.574918 6
5 0.574913 6
6 0.574917 6
7 0.574929 6
8 0.574947 6
9 0.57497 6
10 0.574996 6
11 0.575024 6
12 0.575054 6
13 0.575084 6
14 0.575114 6
15 0.575143 6
16 0.575172 6
17 0.575203 6
18 0.575217 6
18.4254 1 6
0.522765 2 6
0.474768 2 5
18.4771 2 6
0.467895 3 6
18.532 3 6
0.409815 4 6
18.5902 4 6
0.698871 5 6
0.641589 5 5
18.3008 5 6
0.701765 6 6
0.640166 6 5
18.298 6 6
0.657777 7 6
0.597286 7 5
18.3421 7 6
0.456565 8 6
0.521918 8 5
18.542 8 6
0.480389 9 6
18.5185 9 6
0.483094 10 6
18.5365 10 6
1 10.5169 6
2 10.525 6
3 10.5273 6
4 10.5281 6
5 10.5253 6
6 10.5226 6
7 10.5246 6
8 10.5253 6
9 10.5225 6
10 10.5261 6
11 10.523 6
12 10.5244 6
13 10.5313 6
14 10.5331 6
15 10.5352 6
16 10.5361 6
17 10.5364 6
18 10.5365 6
1 0.606931 7
0.606482 1 7
0.574413 1 6
2 0.606903 7
3 0.606881 7
4 0.606866 7
5 0.606858 7
6 0.606857 7
7 0.606863 7
8 0.606873 7
9 0.606889 7
10 0.606908 7
11 0.606929 7
12 0.606952 7
13 0.606975 7
14 0.607 7
15 0.607024 7
16 0.607049 7
17 0.607077 7
18 0.60709 7
18.3934 1 7
0.558977 2 7
0.522765 2 6
18.4409 2 7
0.509147 3 7
0.467895 3 6
18.4908 3 7
0.456793 4 7
0.409815 4 6
18.5432 4 7
0.715766 5 7
18.284 5 7
0.713747 6 7
18.2862 6 7
0.491366 7 7
18.5078 7 7
0.532266 8 7
18.4668 8 7
0.568443 9 7
18.4312 9 7
18.5185 9 6
0.585359 10 7
18.4325 10 7
1 10.4146 7
2 10.4228 7
3 10.425 7
4 10.423 7
5 10.4222 7
6 10.4245 7
7 10.4242 7
8 10.4218 7
9 10.4237 7
10 10.4273 7
11 10.4222 7
12 10.4202 7
13 10.422 7
14 10.4231 7
15 10.4255 7
16 10.4286 7
17 10.4317 7
18 10.4325 7
1 0.626534 8
0.626204 1 8
0.606482 1 7
2 0.62651 8
3 0.626489 8
4 0.626474 8
5 0.626464 8
6 0.626459 8
7 0.626459 8
8 0.626463 8
9 0.626471 8
10 0.626483 8
11 0.626496 8
12 0.626512 8
13 0.626528 8
14 0.626546 8
15 0.626565 8
16 0.626584 8
17 0.626607 8
18 0.626618 8
18.3737 1 8
0.584425 2 8
0.558977 2 7
18.4155 2 8
0.540185 3 8
0.509147 3 7
18.4598 3 8
0.483017 4 8
0.456793 4 7
18.5169 4 8
0.293429 5 8
0.715766 5 7
18.7061 5 8
0.290057 6 8
0.713747 6 7
18.7094 6 8
0.525215 7 8
18.4743 7 8
0.587714 8 8
0.532266 8 7
18.4118 8 8
0.631497 9 8
0.568443 9 7
18.3686 9 8
0.658118 10 8
18.3594 10 8
1 10.3418 8
2 10.3504 8
3 10.3499 8
4 10.3445 8
5 10.3485 8
6 10.355 8
7 10.3492 8
8 10.3445 8
9 10.3468 8
10 10.3523 8
11 10.3512 8
12 10.3461 8
13 10.3453 8
14 10.348 8
15 10.3494 8
16 10.3539 8
17 10.3572 8
18 10.3594 8
1 0.628116 9
0.627957 1 9
0.626204 1 8
2 0.628095 9
3 0.628078 9
4 0.628065 9
5 0.628055 9
6 0.628049 9
7 0.628047 9
8 0.628047 9
9 0.628052 9
10 0.628059 9
11 0.628067 9
12 0.628078 9
13 0.628089 9
14 0.628101 9
15 0.628114 9
16 0.628129 9
17 0.628147 9
18 0.628156 9
18.3737 1 8
18.372 1 9
0.593832 2 9
0.584425 2 8
18.4061 2 9
0.552064 3 9
18.4479 3 9
0.349685 4 9
0.483017 4 8
18.65 4 9
0.349344 5 9
0.293429 5 8
18.6503 5 9
0.352079 6 9
18.6475 6 9
0.357111 7 9
0.525215 7 8
18.6424 7 9
0.608992 8 9
18.3908 8 9
0.662547 9 9
0.631497 9 8
18.3378 9 9
0.70275 10 9
18.3116 10 9
1 10.2968 9
2 10.3052 9
3 10.3023 9
4 10.3 9
5 10.3049 9
6 10.3076 9
7 10.3027 9
8 10.3006 9
9 10.3043 9
10 10.3079 9
11 10.31 9
12 10.3062 9
13 10.3015 9
14 10.301 9
15 10.3025 9
16 10.3056 9
17 10.309 9
18 10.3114 9
1 0.403679 10
0.40365 1 10
0.627957 1 9
2 0.403669 10
3 0.403666 10
4 0.403672 10
5 0.403684 10
6 0.4037 10
7 0.403716 10
8 0.403735 10
9 0.403757 10
10 0.403781 10
11 0.403805 10
12 0.40383 10
13 0.403853 10
14 0.403873 10
15 0.403891 10
16 0.403907 10
17 0.403922 10
18 0.403928 10
18.5961 1 10
0.393738 2 10
0.593832 2 9
18.606 2 10
0.390601 3 10
18.6091 3 10
0.392065 4 10
0.349685 4 9
18.6077 4 10
0.398 5 10
0.349344 5 9
18.6017 5 10
0.40678 6 10
18.5929 6 10
0.416886 7 10
0.357111 7 9
18.5828 7 10
0.427575 8 10
0.608992 8 9
18.5722 8 10
0.433595 9 10
18.5668 9 10
1 10 9.53026
1 9.68318 10
2 9.68587 10
2 10 9.54038
2 10 9.54038
3 9.68522 10
3 10 9.53702
4 9.68447 10
4 10 9.53424
5 9.68598 10
5 10 9.54017
6 9.68681 10
6 10 9.54328
7 9.68547 10
7 10 9.53756
7 10 9.53756
8 9.68476 10
8 10 9.53505
9 9.68569 10
9 10 9.53938
10 9.6867 10
10 10 9.54358
11 9.68747 10
11 10 9.54608
12 9.68642 10
12 10 9.54177
13 9.6849 10
13 10 9.53606
14 9.68466 10
14 10 9.53533
15 9.68516 10
15 10 9.5372
16 9.68622 10
16 10 9.54089
17 9.68746 10
17 10 9.545
18 9.68836 10
18 10 9.54794
1 0.42577 11
0.425759 1 11
0.40365 1 10
2 0.425757 11
3 0.425754 11
4 0.425761 11
5 0.425775 11
6 0.425792 11
7 0.425804 11
8 0.425818 11
9 0.425838 11
10 0.425858 11
11 0.425881 11
12 0.425902 11
13 0.425923 11
14 0.425938 11
15 0.425951 11
16 0.425964 11
17 0.425976 11
18 0.425981 11
18.574 1 11
0.419742 2 11
0.393738 2 10
18.58 2 11
0.420812 3 11
18.579 3 11
0.427408 4 11
0.392065 4 10
18.5724 4 11
0.438665 5 11
0.398 5 10
18.5611 5 11
18.6017 5 10
0.453161 6 11
18.5466 6 11
0.469269 7 11
0.416886 7 10
18.5305 7 11
0.485112 8 11
0.427575 8 10
18.5147 8 11
0.497174 9 11
0.433595 9 10
18.5031 9 11
1 9.51355 11
2 9.51397 11
3 9.51424 11
4 9.5139 11
5 9.51389 11
6 9.51419 11
7 9.51419 11
8 9.51377 11
9 9.5137 11
10 9.51408 11
11 9.51434 11
12 9.51429 11
13 9.51395 11
14 9.51389 11
15 9.51384 11
16 9.51402 11
17 9.51425 11
18 9.51441 11
1 0.440186 12
0.440184 1 12
0.425759 1 11
2 0.440134 12
3 0.440123 12
4 0.440134 12
5 0.440157 12
6 0.440196 12
7 0.440188 12
8 0.440193 12
9 0.440208 12
10 0.440226 12
11 0.440251 12
12 0.440267 12
13 0.44029 12
14 0.440296 12
15 0.4403 12
16 0.440309 12
17 0.440319 12
18 0.440323 12
18.5597 1 12
0.438015 2 12
0.419742 2 11
18.5618 2 12
0.443119 3 12
0.420812 3 11
18.5567 3 12
0.453993 4 12
0.427408 4 11
18.5459 4 12
0.470264 5 12
0.438665 5 11
18.5296 5 12
0.489934 6 12
0.453161 6 11
18.5099 6 12
0.511542 7 12
0.469269 7 11
18.4882 7 12
0.533396 8 12
0.485112 8 11
18.4664 8 12
0.551141 9 12
18.4491 9 12
1 9.44936 12
2 9.44947 12
3 9.44943 12
4 9.44921 12
5 9.44929 12
6 9.44961 12
7 9.44953 12
8 9.44924 12
9 9.44947 12
10 9.44978 12
11 9.44966 12
12 9.44955 12
13 9.44933 12
14 9.44945 12
15 9.44938 12
16 9.44948 12
17 9.44958 12
18 9.44967 12
1 1 12.5598
0.440184 1 12
2 1 12.5598
3 1 12.5598
4 1 12.5598
5 1 12.5598
6 1 12.5597
7 1 12.5598
8 1 12.5598
9 1 12.5597
10 1 12.5597
11 1 12.5597
12 1 12.5597
13 1 12.5597
14 1 12.5596
15 1 12.5596
16 1 12.5596
17 1 12.5596
18 1 12.5596
1 2 12.5619
2 2 12.5619
3 2 12.5619
4 2 12.5619
5 2 12.5619
6 2 12.5619
7 2 12.5619
8 2 12.5619
9 2 12.5618
10 2 12.5618
11 2 12.5618
12 2 12.5618
13 2 12.5618
14 2 12.5618
15 2 12.5618
16 2 12.5618
17 2 12.5617
18 2 12.5617
18.5618 2 12
0.443119 3 12
1 3 12.5567
2 3 12.5568
3 3 12.5568
4 3 12.5568
5 3 12.5568
6 3 12.5567
7 3 12.5567
8 3 12.5568
9 3 12.5567
10 3 12.5567
11 3 12.5567
12 3 12.5567
12 3 12.5567
13 3 12.5566
13 3 12.5566
14 3 12.5566
15 3 12.5566
16 3 12.5566
17 3 12.5566
18 3 12.5566
1 4 12.5458
2 4 12.5459
3 4 12.5459
4 4 12.5458
5 4 12.5458
6 4 12.5458
7 4 12.5458
8 4 12.5458
9 4 12.5458
10 4 12.5458
11 4 12.5457
12 4 12.5457
13 4 12.5457
14 4 12.5457
15 4 12.5457
16 4 12.5457
17 4 12.5457
18 4 12.5457
0.470264 5 12
1 5 12.5295
2 5 12.5295
3 5 12.5295
4 5 12.5294
5 5 12.5294
6 5 12.5295
7 5 12.5295
8 5 12.5295
9 5 12.5295
10 5 12.5294
11 5 12.5294
12 5 12.5294
13 5 12.5294
14 5 12.5293
15 5 12.5293
16 5 12.5293
17 5 12.5293
18 5 12.5293
0.489934 6 12
1 6 12.5097
2 6 12.5097
3 6 12.5096
4 6 12.5096
5 6 12.5097
6 6 12.5097
7 6 12.5097
8 6 12.5097
9 6 12.5097
10 6 12.5096
11 6 12.5096
12 6 12.5096
13 6 12.5096
14 6 12.5096
15 6 12.5096
16 6 12.5096
17 6 12.5096
18 6 12.5096
0.511542 7 12
1 7 12.488
2 7 12.4879
3 7 12.4878
4 7 12.4878
5 7 12.4879
6 7 12.4879
7 7 12.4879
8 7 12.4879
9 7 12.4879
10 7 12.4879
11 7 12.4879
12 7 12.4879
13 7 12.4878
14 7 12.4878
15 7 12.4878
16 7 12.4878
17 7 12.4878
18 7 12.4878
18 7 12.4878
0.533396 8 12
1 8 12.4661
2 8 12.466
3 8 12.4659
4 8 12.466
5 8 12.4659
6 8 12.4659
7 8 12.466
8 8 12.4659
9 8 12.4658
10 8 12.4659
11 8 12.466
12 8 12.466
13 8 12.466
13 8 12.466
14 8 12.4659
15 8 12.4659
16 8 12.4659
17 8 12.4659
18 8 12.4658
18.4664 8 12
1 9 12.4482
2 9 12.4483
3 9 12.4483
4 9 12.448
5 9 12.4481
6 9 12.4484
7 9 12.4484
8 9 12.4481
9 9 12.4483
10 9 12.4486
11 9 12.4485
12 9 12.4484
13 9 12.4482
14 9 12.4483
15 9 12.4482
16 9 12.4483
17 9 12.4484
18 9 12.4485
3 0 1 2
3 2 3 4
3 4 3 5
3 4 6 7
3 7 6 8
3 7 8 9
3 9 8 10
3 9 11 12
3 12 11 13
3 12 13 14
3 14 13 15
3 14 15 16
3 16 15 17
3 16 17 18
3 18 17 19
3 18 20 21
3 21 20 22
3 21 22 23
3 23 22 24
3 23 25 26
3 26 25 27
3 26 28 29
3 29 28 30
3 29 30 31
3 31 30 32
3 31 32 33
3 33 32 34
3 33 34 35
3 35 34 36
3 35 37 38
3 38 37 39
3 38 40 41
3 41 40 42
3 41 43 44
3 44 43 45
3 45 46 44
3 47 48 0
3 0 48 1
3 49 5 3
3 50 5 49
3 51 8 6
3 52 8 51
3 52 10 8
3 53 10 52
3 54 13 11
3 55 13 54
3 56 15 13
3 57 15 56
3 57 17 15
3 58 17 57
3 59 19 17
3 60 19 59
3 61 22 20
3 62 22 61
3 63 24 22
3 64 24 63
3 65 27 25
3 66 27 65
3 67 30 28
3 68 30 67
3 69 32 30
3 70 32 69
3 71 34 32
3 72 34 71
3 73 36 34
3 74 36 73
3 75 39 37
3 76 39 75
3 77 42 40
3 78 42 77
3 79 45 43
3 80 45 79
3 81 82 45
3 45 82 46
3 83 84 47
3 47 84 48
3 85 50 49
3 86 50 85
3 87 52 51
3 88 52 87
3 89 53 52
3 90 53 89
3 91 55 54
3 92 55 91
3 93 57 56
3 94 57 93
3 95 58 57
3 96 58 95
3 97 60 59
3 98 60 97
3 99 62 61
3 100 62 99
3 101 64 63
3 102 64 101
3 103 66 65
3 104 66 103
3 105 68 67
3 106 68 105
3 107 70 69
3 108 70 107
3 108 72 71
3 109 72 108
3 109 74 73
3 110 74 109
3 111 76 75
3 112 76 111
3 113 78 77
3 114 78 113
3 115 80 79
3 116 80 115
3 116 117 81
3 81 117 82
3 118 119 83
3 83 119 84
3 119 86 85
3 120 86 119
3 120 88 87
3 121 88 120
3 122 90 89
3 123 90 122
3 124 92 91
3 125 92 124
3 126 94 93
3 127 94 126
3 128 96 95
3 129 96 128
3 129 98 97
3 130 98 129
3 131 100 99
3 132 100 131
3 133 102 101
3 134 102 133
3 134 104 103
3 135 104 134
3 136 106 105
3 137 106 136
3 137 108 107
3 138 108 137
3 139 109 108
3 140 109 139
3 141 110 109
3 142 110 141
3 143 112 111
3 144 112 143
3 144 114 113
3 145 114 144
3 146 116 115
3 147 116 146
3 148 149 116
3 116 149 117
3 150 151 118
3 118 151 119
3 152 120 119
3 153 120 152
3 153 121 120
3 154 121 153
3 155 123 122
3 156 123 155
3 157 125 124
3 158 125 157
3 159 127 126
3 160 127 159
3 161 129 128
3 162 129 161
3 163 130 129
3 164 130 163
3 164 132 131
3 165 132 164
3 165 134 133
3 166 134 165
3 166 135 134
3 167 135 166
3 167 137 136
3 168 137 167
3 168 138 137
3 169 138 168
3 170 140 139
3 171 140 170
3 171 142 141
3 172 142 171
3 173 144 143
3 174 144 173
3 175 145 144
3 176 145 175
3 176 147 146
3 177 147 176
3 177 178 148
3 148 178 149
3 179 180 150
3 150 180 151
3 180 153 152
3 181 153 180
3 181 154 153
3 182 154 181
3 182 156 155
3 183 156 182
3 184 158 157
3 185 158 184
3 186 160 159
3 187 160 186
3 187 162 161
3 188 162 187
3 188 164 163
3 189 164 188
3 190 165 164
3 191 165 190
3 192 166 165
3 193 166 192
3 193 167 166
3 194 167 193
3 194 168 167
3 195 168 194
3 196 169 168
3 197 169 196
3 198 171 170
3 199 171 198
3 200 172 171
3 201 172 200
3 201 174 173
3 202 174 201
3 203 176 175
3 204 176 203
3 205 177 176
3 206 177 205
3 206 207 177
3 177 207 178
3 208 209 179
3 179 209 180
3 210 181 180
3 211 181 210
3 212 182 181
3 213 182 212
3 214 183 182
3 215 183 214
3 215 185 184
3 216 185 215
3 216 187 186
3 217 187 216
3 217 188 187
3 218 188 217
3 219 189 188
3 220 189 219
3 221 191 190
3 222 191 221
3 222 193 192
3 223 193 222
3 223 194 193
3 224 194 223
3 225 195 194
3 226 195 225
3 226 197 196
3 227 197 226
3 227 199 198
3 228 199 227
3 229 201 200
3 230 201 229
3 231 202 201
3 232 202 231
3 232 204 203
3 233 204 232
3 233 206 205
3 234 206 233
3 235 236 206
3 206 236 207
3 237 238 208
3 208 238 209
3 239 211 210
3 240 211 239
3 240 213 212
3 241 213 240
3 242 215 214
3 243 215 242
3 244 216 215
3 245 216 244
3 246 217 216
3 247 217 246
3 248 218 217
3 249 218 248
3 250 220 219
3 251 220 250
3 252 222 221
3 253 222 252
3 253 223 222
3 254 223 253
3 255 224 223
3 256 224 255
3 256 226 225
3 257 226 256
3 257 227 226
3 258 227 257
3 259 228 227
3 260 228 259
3 260 230 229
3 261 230 260
3 262 232 231
3 263 232 262
3 264 233 232
3 265 233 264
3 265 234 233
3 266 234 265
3 267 268 235
3 235 268 236
3 269 270 237
3 237 270 238
3 271 240 239
3 272 240 271
3 273 241 240
3 274 241 273
3 275 243 242
3 276 243 275
3 276 245 244
3 277 245 276
3 278 247 246
3 279 247 278
3 280 249 248
3 281 249 280
3 282 251 250
3 283 251 282
3 284 253 252
3 285 253 284
3 285 254 253
3 286 254 285
3 287 256 255
3 288 256 287
3 289 257 256
3 290 257 289
3 291 258 257
3 292 258 291
3 293 260 259
3 294 260 293
3 295 261 260
3 296 261 295
3 296 263 262
3 297 263 296
3 298 265 264
3 299 265 298
3 299 266 265
3 300 266 299
3 301 302 267
3 267 302 268
3 303 304 269
3 269 304 270
3 304 272 271
3 305 272 304
3 305 274 273
3 306 274 305
3 307 276 275
3 308 276 307
3 308 277 276
3 309 277 308
3 309 279 278
3 310 279 309
3 311 281 280
3 312 281 311
3 313 283 282
3 314 283 313
3 314 285 284
3 315 285 314
3 315 286 285
3 316 286 315
3 317 288 287
3 318 288 317
3 318 290 289
3 319 290 318
3 319 292 291
3 320 292 319
3 320 294 293
3 321 294 320
3 322 296 295
3 323 296 322
3 324 297 296
3 325 297 324
3 325 299 298
3 326 299 325
3 326 300 299
3 327 300 326
3 328 329 301
3 301 329 302
3 330 331 303
3 303 331 304
3 332 305 304
3 333 305 332
3 334 306 305
3 335 306 334
3 336 308 307
3 337 308 336
3 338 309 308
3 339 309 338
3 339 310 309
3 340 310 339
3 341 312 311
3 342 312 341
3 343 314 313
3 344 314 343
3 345 315 314
3 346 315 345
3 347 316 315
3 348 316 347
3 349 318 317
3 350 318 349
3 351 319 318
3 352 319 351
3 353 320 319
3 354 320 353
3 354 321 320
3 355 321 354
3 356 323 322
3 357 323 356
3 358 325 324
3 359 325 358
3 360 326 325
3 361 326 360
3 362 327 326
3 363 327 362
3 364 365 328
3 328 365 329
3 366 331 330
3 367 333 366
3 366 333 332
3 368 335 367
3 367 335 334
3 369 337 368
3 368 337 336
3 370 339 369
3 369 339 338
3 371 340 370
3 370 340 339
3 372 342 371
3 371 342 341
3 373 344 372
3 372 344 343
3 374 346 373
3 373 346 345
3 375 348 374
3 374 348 347
3 376 350 375
3 375 350 349
3 377 352 376
3 376 352 351
3 378 354 377
3 377 354 353
3 379 355 378
3 378 355 354
3 380 357 379
3 379 357 356
3 381 359 380
3 380 359 358
3 382 361 381
3 381 361 360
3 383 363 382
3 382 363 362
3 383 365 364
3 384 385 2
3 2 385 0
3 2 386 384
3 2 4 386
3 4 387 386
3 4 7 387
3 7 388 387
3 7 9 388
3 9 389 388
3 9 12 389
3 12 390 389
3 12 14 390
3 14 391 390
3 14 16 391
3 16 392 391
3 16 18 392
3 18 393 392
3 18 21 393
3 21 394 393
3 21 23 394
3 23 395 394
3 23 26 395
3 26 396 395
3 26 29 396
3 29 397 396
3 29 31 397
3 31 398 397
3 31 33 398
3 33 399 398
3 33 35 399
3 35 400 399
3 35 38 400
3 38 401 400
3 38 41 401
3 41 402 401
3 41 44 402
3 44 46 402
3 402 46 403
3 404 0 385
3 404 405 0
3 46 406 403
3 407 406 46
3 408 405 404
3 408 83 405
3 407 409 406
3 117 409 407
3 410 83 408
3 410 118 83
3 117 411 409
3 149 411 117
3 412 118 410
3 412 413 118
3 149 414 411
3 178 414 149
3 415 413 412
3 415 179 413
3 178 416 414
3 207 416 178
3 417 179 415
3 417 208 179
3 207 418 416
3 236 418 207
3 419 208 417
3 419 420 208
3 236 421 418
3 268 421 236
3 422 420 419
3 422 269 420
3 268 423 421
3 302 423 268
3 424 269 422
3 424 303 269
3 302 425 423
3 329 425 302
3 426 303 424
3 426 330 303
3 329 427 425
3 365 427 329
3 426 428 330
3 330 428 366
3 429 366 428
3 367 366 429
3 430 367 429
3 368 367 430
3 431 368 430
3 369 368 431
3 432 369 431
3 370 369 432
3 433 370 432
3 371 370 433
3 434 371 433
3 372 371 434
3 435 372 434
3 373 372 435
3 436 373 435
3 374 373 436
3 437 374 436
3 375 374 437
3 438 375 437
3 376 375 438
3 439 376 438
3 377 376 439
3 440 377 439
3 378 377 440
3 441 378 440
3 379 378 441
3 442 379 441
3 380 379 442
3 443 380 442
3 381 380 443
3 444 381 443
3 382 381 444
3 445 382 444
3 383 382 445
3 365 383 427
3 427 383 445
3 446 447 384
3 384 447 385
3 384 448 446
3 384 386 448
3 386 449 448
3 386 387 449
3 387 450 449
3 387 388 450
3 388 451 450
3 388 389 451
3 389 452 451
3 389 390 452
3 390 453 452
3 390 391 453
3 391 454 453
3 391 392 454
3 392 455 454
3 392 393 455
3 393 456 455
3 393 394 456
3 394 457 456
3 394 395 457
3 395 458 457
3 395 396 458
3 396 459 458
3 396 397 459
3 397 460 459
3 397 398 460
3 398 461 460
3 398 399 461
3 399 462 461
3 399 400 462
3 400 463 462
3 400 401 463
3 401 464 463
3 401 402 464
3 402 403 464
3 464 403 465
3 466 385 447
3 466 467 385
3 403 468 465
3 406 468 403
3 469 467 466
3 469 470 467
3 406 471 468
3 409 471 406
3 472 470 469
3 472 410 470
3 409 473 471
3 411 473 409
3 474 410 472
3 474 475 410
3 411 476 473
3 414 476 411
3 477 475 474
3 477 478 475
3 414 479 476
3 416 479 414
3 480 478 477
3 480 481 478
3 416 482 479
3 418 482 416
3 483 481 480
3 483 484 481
3 418 485 482
3 421 485 418
3 486 484 483
3 486 487 484
3 421 488 485
3 423 488 421
3 489 487 486
3 489 424 487
3 423 490 488
3 425 490 423
3 491 426 492
3 426 489 492
3 426 424 489
3 493 491 492
3 425 494 490
3 427 494 425
3 491 428 426
3 493 495 491
3 495 428 491
3 495 429 428
3 496 429 495
3 430 429 496
3 497 430 496
3 431 430 497
3 498 431 497
3 432 431 498
3 499 432 498
3 433 432 499
3 500 433 499
3 434 433 500
3 501 434 500
3 435 434 501
3 502 435 501
3 436 435 502
3 503 436 502
3 437 436 503
3 504 437 503
3 438 437 504
3 505 438 504
3 439 438 505
3 506 439 505
3 440 439 506
3 507 440 506
3 441 440 507
3 508 441 507
3 442 441 508
3 509 442 508
3 443 442 509
3 510 443 509
3 444 443 510
3 511 444 510
3 445 444 511
3 427 445 494
3 494 445 511
3 512 513 446
3 446 513 514
3 446 515 512
3 446 448 515
3 448 516 515
3 448 449 516
3 449 517 516
3 449 450 517
3 450 518 517
3 450 451 518
3 451 519 518
3 451 452 519
3 452 520 519
3 452 453 520
3 453 521 520
3 453 454 521
3 454 522 521
3 454 455 522
3 455 523 522
3 455 456 523
3 456 524 523
3 456 457 524
3 457 525 524
3 457 458 525
3 458 526 525
3 458 459 526
3 459 527 526
3 459 460 527
3 460 528 527
3 460 461 528
3 461 529 528
3 461 462 529
3 462 530 529
3 462 463 530
3 463 531 530
3 463 464 531
3 464 465 531
3 531 465 532
3 533 514 513
3 533 534 514
3 465 535 532
3 468 535 465
3 536 534 533
3 536 537 534
3 468 538 535
3 471 538 468
3 539 537 536
3 539 472 537
3 471 540 538
3 473 540 471
3 541 472 539
3 541 542 472
3 473 543 540
3 476 543 473
3 544 542 541
3 544 545 542
3 476 546 543
3 479 546 476
3 547 545 544
3 547 480 545
3 479 548 546
3 482 548 479
3 549 480 547
3 549 550 480
3 482 551 548
3 485 551 482
3 552 550 549
3 552 486 550
3 485 553 551
3 488 553 485
3 554 486 552
3 554 489 486
3 488 555 553
3 490 555 488
3 554 556 489
3 489 556 492
3 557 558 493
3 492 557 493
3 556 557 492
3 558 557 559
3 558 559 560
3 560 559 561
3 560 561 562
3 562 561 563
3 562 563 564
3 564 563 565
3 564 565 566
3 566 565 567
3 566 567 568
3 568 567 569
3 568 569 570
3 571 569 572
3 571 572 573
3 573 572 574
3 573 574 575
3 575 574 576
3 575 576 577
3 577 576 578
3 577 578 579
3 579 578 580
3 579 580 581
3 581 580 582
3 581 582 583
3 583 582 584
3 583 584 585
3 585 584 586
3 585 586 587
3 587 586 588
3 587 588 589
3 589 588 590
3 589 590 591
3 590 555 591
3 555 494 591
3 555 490 494
3 558 495 493
3 560 496 558
3 558 496 495
3 562 497 560
3 560 497 496
3 564 498 562
3 562 498 497
3 566 499 564
3 564 499 498
3 568 500 566
3 566 500 499
3 570 501 568
3 568 501 500
3 573 502 571
3 571 502 501
3 575 503 573
3 573 503 502
3 577 504 575
3 575 504 503
3 579 505 577
3 577 505 504
3 581 506 579
3 579 506 505
3 583 507 581
3 581 507 506
3 585 508 583
3 583 508 507
3 587 509 585
3 585 509 508
3 589 510 587
3 587 510 509
3 591 511 589
3 589 511 510
3 494 511 591
3 592 593 512
3 512 593 594
3 512 595 592
3 512 515 595
3 515 596 595
3 515 516 596
3 516 597 596
3 516 517 597
3 517 598 597
3 517 518 598
3 518 599 598
3 518 519 599
3 519 600 599
3 519 520 600
3 520 601 600
3 520 521 601
3 521 602 601
3 521 522 602
3 522 603 602
3 522 523 603
3 523 604 603
3 523 524 604
3 524 605 604
3 524 525 605
3 525 606 605
3 525 526 606
3 526 607 606
3 526 527 607
3 527 608 607
3 527 528 608
3 528 609 608
3 528 529 609
3 529 610 609
3 529 530 610
3 530 611 610
3 530 531 611
3 531 532 611
3 611 532 612
3 613 594 593
3 613 614 594
3 532 615 612
3 535 615 532
3 616 614 613
3 616 536 614
3 535 617 615
3 538 617 535
3 618 536 616
3 618 539 536
3 538 619 617
3 540 619 538
3 620 539 618
3 620 621 539
3 540 622 619
3 543 622 540
3 623 621 620
3 623 544 621
3 543 624 622
3 546 624 543
3 625 544 623
3 625 547 544
3 546 626 624
3 548 626 546
3 627 547 625
3 627 549 547
3 548 628 626
3 551 628 548
3 629 549 627
3 629 630 549
3 551 631 628
3 553 631 551
3 632 630 629
3 632 633 630
3 553 634 631
3 555 634 553
3 632 635 633
3 633 635 556
3 636 556 635
3 557 556 636
3 637 557 636
3 559 557 637
3 638 559 637
3 561 559 638
3 639 561 638
3 563 561 639
3 640 563 639
3 565 563 640
3 641 565 640
3 567 565 641
3 642 567 641
3 569 567 642
3 643 569 642
3 572 569 643
3 644 572 643
3 574 572 644
3 645 574 644
3 576 574 645
3 646 576 645
3 578 576 646
3 647 578 646
3 580 578 647
3 648 580 647
3 582 580 648
3 649 582 648
3 584 582 649
3 650 584 649
3 586 584 650
3 651 586 650
3 588 586 651
3 652 588 651
3 590 588 652
3 555 590 634
3 634 590 652
3 653 654 592
3 592 654 593
3 592 655 653
3 592 595 655
3 595 656 655
3 595 596 656
3 596 657 656
3 596 597 657
3 597 658 657
3 597 598 658
3 598 659 658
3 598 599 659
3 599 660 659
3 599 600 660
3 600 661 660
3 600 601 661
3 601 662 661
3 601 602 662
3 602 663 662
3 602 603 663
3 603 664 663
3 603 604 664
3 604 665 664
3 604 605 665
3 605 666 665
3 605 606 666
3 606 667 666
3 606 607 667
3 607 668 667
3 607 608 668
3 608 669 668
3 608 609 669
3 609 670 669
3 609 610 670
3 610 671 670
3 610 611 671
3 611 612 671
3 671 612 672
3 673 593 654
3 673 674 593
3 612 675 672
3 615 675 612
3 676 674 673
3 676 616 674
3 615 677 675
3 617 677 615
3 678 616 676
3 678 618 616
3 617 679 677
3 619 679 617
3 680 618 678
3 680 681 618
3 619 682 679
3 622 682 619
3 683 681 680
3 683 684 681
3 622 685 682
3 624 685 622
3 686 684 683
3 686 687 684
3 624 688 685
3 626 688 624
3 689 687 686
3 689 690 687
3 626 691 688
3 628 691 626
3 692 690 689
3 692 629 690
3 628 693 691
3 631 693 628
3 694 629 692
3 694 632 629
3 631 695 693
3 634 695 631
3 694 696 632
3 632 696 635
3 697 635 696
3 636 635 697
3 698 636 697
3 637 636 698
3 699 637 698
3 638 637 699
3 700 638 699
3 639 638 700
3 701 639 700
3 640 639 701
3 702 640 701
3 641 640 702
3 703 641 702
3 642 641 703
3 704 642 703
3 643 642 704
3 705 643 704
3 644 643 705
3 706 644 705
3 645 644 706
3 707 645 706
3 646 645 707
3 708 646 707
3 647 646 708
3 709 647 708
3 648 647 709
3 710 648 709
3 649 648 710
3 711 649 710
3 650 649 711
3 712 650 711
3 651 650 712
3 713 651 712
3 652 651 713
3 634 652 695
3 695 652 713
3 714 715 653
3 653 715 716
3 653 717 714
3 653 655 717
3 655 718 717
3 655 656 718
3 656 719 718
3 656 657 719
3 657 720 719
3 657 658 720
3 658 721 720
3 658 659 721
3 659 722 721
3 659 660 722
3 660 723 722
3 660 661 723
3 661 724 723
3 661 662 724
3 662 725 724
3 662 663 725
3 663 726 725
3 663 664 726
3 664 727 726
3 664 665 727
3 665 728 727
3 665 666 728
3 666 729 728
3 666 667 729
3 667 730 729
3 667 668 730
3 668 731 730
3 668 669 731
3 669 732 731
3 669 670 732
3 670 733 732
3 670 671 733
3 671 672 733
3 733 672 734
3 735 716 715
3 735 736 716
3 672 737 734
3 675 737 672
3 738 736 735
3 738 739 736
3 675 740 737
3 677 740 675
3 741 739 738
3 741 742 739
3 677 743 740
3 679 743 677
3 744 742 741
3 744 680 742
3 679 745 743
3 682 745 679
3 746 680 744
3 746 683 680
3 682 747 745
3 685 747 682
3 748 683 746
3 748 686 683
3 685 749 747
3 688 749 685
3 750 686 748
3 750 689 686
3 688 751 749
3 691 751 688
3 752 689 750
3 752 692 689
3 691 753 751
3 754 753 691
3 755 692 752
3 755 694 692
3 754 756 753
3 695 756 754
3 755 757 694
3 694 757 696
3 758 696 757
3 697 696 758
3 759 697 758
3 698 697 759
3 760 698 759
3 699 698 760
3 761 699 760
3 700 699 761
3 762 700 761
3 701 700 762
3 763 701 762
3 702 701 763
3 764 702 763
3 703 702 764
3 765 703 764
3 704 703 765
3 766 704 765
3 705 704 766
3 767 705 766
3 706 705 767
3 768 706 767
3 707 706 768
3 769 707 768
3 708 707 769
3 770 708 769
3 709 708 770
3 771 709 770
3 710 709 771
3 772 710 771
3 711 710 772
3 773 711 772
3 712 711 773
3 774 712 773
3 713 712 774
3 695 713 756
3 756 713 774
3 775 776 714
3 714 776 777
3 714 778 775
3 714 717 778
3 717 779 778
3 717 718 779
3 718 780 779
3 718 719 780
3 719 781 780
3 719 720 781
3 720 782 781
3 720 721 782
3 721 783 782
3 721 722 783
3 722 784 783
3 722 723 784
3 723 785 784
3 723 724 785
3 724 786 785
3 724 725 786
3 725 787 786
3 725 726 787
3 726 788 787
3 726 727 788
3 727 789 788
3 727 728 789
3 728 790 789
3 728 729 790
3 729 791 790
3 729 730 791
3 730 792 791
3 730 731 792
3 731 793 792
3 731 732 793
3 732 794 793
3 732 733 794
3 733 734 794
3 794 734 795
3 796 777 776
3 796 797 777
3 734 798 795
3 737 798 734
3 799 797 796
3 799 800 797
3 737 801 798
3 740 801 737
3 802 800 799
3 802 803 800
3 740 804 801
3 743 804 740
3 805 803 802
3 805 806 803
3 743 807 804
3 745 807 743
3 808 806 805
3 808 809 806
3 745 810 807
3 747 810 745
3 811 809 808
3 811 748 809
3 747 812 810
3 749 812 747
3 813 748 811
3 813 814 748
3 749 815 812
3 751 815 749
3 816 814 813
3 816 817 814
3 751 818 815
3 753 818 751
3 819 817 816
3 819 755 817
3 753 820 818
3 756 820 753
3 819 821 755
3 755 821 757
3 822 757 821
3 758 757 822
3 823 758 822
3 759 758 823
3 824 759 823
3 760 759 824
3 825 760 824
3 761 760 825
3 826 761 825
3 762 761 826
3 827 762 826
3 763 762 827
3 828 763 827
3 764 763 828
3 829 764 828
3 765 764 829
3 830 765 829
3 766 765 830
3 831 766 830
3 767 766 831
3 832 767 831
3 768 767 832
3 833 768 832
3 769 768 833
3 834 769 833
3 770 769 834
3 835 770 834
3 771 770 835
3 836 771 835
3 772 771 836
3 837 772 836
3 773 772 837
3 838 773 837
3 774 773 838
3 756 774 820
3 820 774 838
3 839 840 775
3 775 840 841
3 775 842 839
3 775 778 842
3 778 843 842
3 778 779 843
3 779 844 843
3 779 780 844
3 780 845 844
3 780 781 845
3 781 846 845
3 781 782 846
3 782 847 846
3 782 783 847
3 783 848 847
3 783 784 848
3 784 849 848
3 784 785 849
3 785 850 849
3 785 786 850
3 786 851 850
3 786 787 851
3 787 852 851
3 787 788 852
3 788 853 852
3 788 789 853
3 789 854 853
3 789 790 854
3 790 855 854
3 790 791 855
3 791 856 855
3 791 792 856
3 792 857 856
3 792 793 857
3 793 858 857
3 793 794 858
3 794 859 858
3 858 859 860
3 861 841 840
3 861 862 841
3 859 863 860
3 798 863 859
3 864 862 861
3 864 799 862
3 798 865 863
3 801 865 798
3 866 799 864
3 866 867 799
3 801 868 865
3 804 868 801
3 869 867 866
3 869 870 867
3 804 871 868
3 807 871 804
3 872 870 869
3 872 808 870
3 807 873 871
3 810 873 807
3 874 808 872
3 874 875 808
3 810 876 873
3 812 876 810
3 877 875 874
3 877 813 875
3 812 878 876
3 815 878 812
3 879 813 877
3 879 880 813
3 815 881 878
3 818 881 815
3 882 880 879
3 882 819 880
3 818 883 881
3 820 883 818
3 882 884 819
3 819 884 821
3 885 821 884
3 822 821 885
3 886 822 885
3 823 822 886
3 887 823 886
3 824 823 887
3 888 824 887
3 825 824 888
3 889 825 888
3 826 825 889
3 890 826 889
3 827 826 890
3 891 827 890
3 828 827 891
3 892 828 891
3 829 828 892
3 893 829 892
3 830 829 893
3 894 830 893
3 831 830 894
3 895 831 894
3 832 831 895
3 896 832 895
3 833 832 896
3 897 833 896
3 834 833 897
3 898 834 897
3 835 834 898
3 899 835 898
3 836 835 899
3 900 836 899
3 837 836 900
3 901 837 900
3 838 837 901
3 820 838 883
3 883 838 901
3 902 903 839
3 839 903 904
3 839 905 902
3 839 842 905
3 842 906 905
3 842 843 906
3 843 907 906
3 843 844 907
3 844 908 907
3 844 845 908
3 845 909 908
3 845 846 909
3 846 910 909
3 846 847 910
3 847 911 910
3 847 848 911
3 848 912 911
3 848 849 912
3 849 913 912
3 849 850 913
3 850 914 913
3 850 851 914
3 851 915 914
3 851 852 915
3 852 916 915
3 852 853 916
3 853 917 916
3 853 854 917
3 854 918 917
3 854 855 918
3 855 919 918
3 855 856 919
3 856 920 919
3 856 857 920
3 857 921 920
3 857 858 921
3 858 860 921
3 921 860 922
3 923 904 903
3 923 924 904
3 860 925 922
3 863 925 860
3 926 924 923
3 926 864 924
3 863 927 925
3 865 927 863
3 928 864 926
3 928 929 864
3 865 930 927
3 868 930 865
3 931 929 928
3 931 932 929
3 868 933 930
3 871 933 868
3 934 932 931
3 934 872 932
3 871 935 933
3 873 935 871
3 936 872 934
3 936 937 872
3 873 938 935
3 876 938 873
3 939 937 936
3 939 940 937
3 876 941 938
3 878 941 876
3 942 940 939
3 942 879 940
3 878 943 941
3 881 943 878
3 944 882 945
3 882 942 945
3 882 879 942
3 944 945 946
3 944 946 947
3 948 946 949
3 948 949 950
3 950 949 951
3 950 951 952
3 952 951 953
3 952 953 954
3 954 953 955
3 954 955 956
3 956 955 957
3 956 957 958
3 959 957 960
3 959 960 961
3 961 960 962
3 961 962 963
3 963 962 964
3 963 964 965
3 965 964 966
3 965 966 967
3 967 966 968
3 967 968 969
3 969 968 970
3 969 970 971
3 971 970 972
3 971 972 973
3 973 972 974
3 973 974 975
3 975 974 976
3 975 976 977
3 977 976 978
3 977 978 979
3 979 978 980
3 979 980 981
3 980 943 981
3 943 883 981
3 943 881 883
3 944 884 882
3 947 885 944
3 944 885 884
3 950 886 948
3 948 886 885
3 952 887 950
3 950 887 886
3 954 888 952
3 952 888 887
3 956 889 954
3 954 889 888
3 958 890 956
3 956 890 889
3 961 891 959
3 959 891 890
3 963 892 961
3 961 892 891
3 965 893 963
3 963 893 892
3 967 894 965
3 965 894 893
3 969 895 967
3 967 895 894
3 971 896 969
3 969 896 895
3 973 897 971
3 971 897 896
3 975 898 973
3 973 898 897
3 977 899 975
3 975 899 898
3 979 900 977
3 977 900 899
3 981 901 979
3 979 901 900
3 883 901 981
3 982 983 902
3 902 983 984
3 902 985 982
3 902 905 985
3 905 986 985
3 905 906 986
3 906 987 986
3 906 907 987
3 907 988 987
3 907 908 988
3 908 989 988
3 908 909 989
3 909 990 989
3 909 910 990
3 910 991 990
3 910 911 991
3 911 992 991
3 911 912 992
3 912 993 992
3 912 913 993
3 913 994 993
3 913 914 994
3 914 995 994
3 914 915 995
3 915 996 995
3 915 916 996
3 916 997 996
3 916 917 997
3 917 998 997
3 917 918 998
3 918 999 998
3 918 919 999
3 919 1000 999
3 919 920 1000
3 920 1001 1000
3 920 921 1001
3 921 922 1001
3 1001 922 1002
3 1003 984 983
3 1003 1004 984
3 922 1005 1002
3 925 1005 922
3 1006 1004 1003
3 1006 926 1004
3 925 1007 1005
3 927 1007 925
3 1008 926 1006
3 1008 1009 926
3 927 1010 1007
3 930 1010 927
3 1011 1009 1008
3 1011 1012 1009
3 930 1013 1010
3 1014 1013 930
3 1015 1012 1011
3 1015 934 1012
3 1014 1016 1013
3 935 1016 1014
3 1017 934 1015
3 1017 1018 934
3 935 1019 1016
3 938 1019 935
3 1020 1018 1017
3 1020 1021 1018
3 938 1022 1019
3 941 1022 938
3 1023 1021 1020
3 1023 1024 1021
3 941 1025 1022
3 943 1025 941
3 1023 1026 1024
3 1024 1026 945
3 1027 945 1026
3 946 945 1027
3 1028 946 1027
3 949 946 1028
3 1029 949 1028
3 951 949 1029
3 1030 951 1029
3 953 951 1030
3 1031 953 1030
3 955 953 1031
3 1032 955 1031
3 957 955 1032
3 1033 957 1032
3 960 957 1033
3 1034 960 1033
3 962 960 1034
3 1035 962 1034
3 964 962 1035
3 1036 964 1035
3 966 964 1036
3 1037 966 1036
3 968 966 1037
3 1038 968 1037
3 970 968 1038
3 1039 970 1038
3 972 970 1039
3 1040 972 1039
3 974 972 1040
3 1041 974 1040
3 976 974 1041
3 1042 976 1041
3 978 976 1042
3 1043 978 1042
3 980 978 1043
3 943 980 1025
3 1025 980 1043
3 1044 1045 982
3 982 1045 1046
3 982 1047 1044
3 982 985 1047
3 985 1048 1047
3 985 986 1048
3 986 1049 1048
3 986 987 1049
3 987 1050 1049
3 987 988 1050
3 988 1051 1050
3 988 989 1051
3 989 1052 1051
3 989 990 1052
3 990 1053 1052
3 990 991 1053
3 991 1054 1053
3 991 992 1054
3 992 1055 1054
3 992 993 1055
3 993 1056 1055
3 993 994 1056
3 994 1057 1056
3 994 995 1057
3 995 1058 1057
3 995 996 1058
3 996 1059 1058
3 996 997 1059
3 997 1060 1059
3 997 998 1060
3 998 1061 1060
3 998 999 1061
3 999 1062 1061
3 999 1000 1062
3 1000 1063 1062
3 1000 1001 1063
3 1001 1002 1063
3 1063 1002 1064
3 1065 1046 1045
3 1065 1066 1046
3 1002 1067 1064
3 1005 1067 1002
3 1068 1066 1065
3 1068 1069 1066
3 1005 1070 1067
3 1007 1070 1005
3 1071 1069 1068
3 1071 1072 1069
3 1007 1073 1070
3 1010 1073 1007
3 1074 1072 1071
3 1074 1075 1072
3 1010 1076 1073
3 1013 1076 1010
3 1077 1075 1074
3 1077 1078 1075
3 1013 1079 1076
3 1016 1079 1013
3 1080 1078 1077
3 1080 1081 1078
3 1016 1082 1079
3 1019 1082 1016
3 1083 1081 1080
3 1083 1084 1081
3 1019 1085 1082
3 1022 1085 1019
3 1086 1084 1083
3 1086 1023 1084
3 1022 1087 1085
3 1025 1087 1022
3 1086 1088 1023
3 1023 1088 1026
3 1089 1026 1088
3 1027 1026 1089
3 1090 1027 1089
3 1028 1027 1090
3 1091 1028 1090
3 1029 1028 1091
3 1092 1029 1091
3 1030 1029 1092
3 1093 1030 1092
3 1031 1030 1093
3 1094 1031 1093
3 1032 1031 1094
3 1095 1032 1094
3 1033 1032 1095
3 1096 1033 1095
3 1034 1033 1096
3 1097 1034 1096
3 1035 1034 1097
3 1098 1035 1097
3 1036 1035 1098
3 1099 1036 1098
3 1037 1036 1099
3 1100 1037 1099
3 1038 1037 1100
3 1101 1038 1100
3 1039 1038 1101
3 1102 1039 1101
3 1040 1039 1102
3 1103 1040 1102
3 1041 1040 1103
3 1104 1041 1103
3 1042 1041 1104
3 1105 1042 1104
3 1043 1042 1105
3 1025 1043 1087
3 1087 1043 1105
3 1044 1106 1107
3 1106 1044 1108
3 1108 1044 1047
3 1108 1047 1109
3 1109 1047 1048
3 1109 1048 1110
3 1110 1048 1049
3 1110 1049 1111
3 1111 1049 1050
3 1111 1050 1112
3 1112 1050 1051
3 1112 1051 1113
3 1113 1051 1052
3 1113 1052 1114
3 1114 1052 1053
3 1114 1053 1115
3 1115 1053 1054
3 1115 1054 1116
3 1116 1054 1055
3 1116 1055 1117
3 1117 1055 1056
3 1117 1056 1118
3 1118 1056 1057
3 1118 1057 1119
3 1119 1057 1058
3 1119 1058 1120
3 1120 1058 1059
3 1120 1059 1121
3 1121 1059 1060
3 1121 1060 1122
3 1122 1060 1061
3 1122 1061 1123
3 1123 1061 1062
3 1123 1062 1124
3 1124 1062 1063
3 1063 1064 1124
3 1107 1106 1065
3 1065 1106 1125
3 1108 1125 1106
3 1108 1126 1125
3 1109 1126 1108
3 1109 1127 1126
3 1110 1127 1109
3 1110 1128 1127
3 1111 1128 1110
3 1111 1129 1128
3 1112 1129 1111
3 1112 1130 1129
3 1113 1130 1112
3 1113 1131 1130
3 1114 1131 1113
3 1114 1132 1131
3 1115 1132 1114
3 1115 1133 1132
3 1116 1133 1115
3 1116 1134 1133
3 1117 1134 1116
3 1117 1135 1134
3 1118 1135 1117
3 1118 1136 1135
3 1119 1136 1118
3 1119 1137 1136
3 1120 1137 1119
3 1120 1138 1137
3 1121 1138 1120
3 1121 1139 1138
3 1122 1139 1121
3 1122 1140 1139
3 1123 1140 1122
3 1123 1141 1140
3 1124 1141 1123
3 1124 1142 1141
3 1124 1064 1142
3 1142 1064 1143
3 1065 1125 1144
3 1144 1125 1145
3 1126 1145 1125
3 1126 1146 1145
3 1127 1146 1126
3 1127 1147 1146
3 1128 1147 1127
3 1128 1148 1147
3 1129 1148 1128
3 1129 1149 1148
3 1130 1149 1129
3 1130 1150 1149
3 1131 1150 1130
3 1131 1151 1150
3 1132 1151 1131
3 1132 1152 1151
3 1133 1152 1132
3 1133 1153 1152
3 1134 1153 1133
3 1134 1154 1153
3 1135 1154 1134
3 1135 1155 1154
3 1136 1155 1135
3 1136 1156 1155
3 1137 1157 1136
3 1137 1158 1157
3 1138 1159 1137
3 1138 1160 1159
3 1139 1160 1138
3 1139 1161 1160
3 1140 1161 1139
3 1140 1162 1161
3 1141 1162 1140
3 1141 1163 1162
3 1142 1163 1141
3 1142 1164 1163
3 1142 1143 1164
3 1164 1143 1070
3 1144 1145 1071
3 1071 1145 1165
3 1146 1165 1145
3 1146 1166 1165
3 1147 1166 1146
3 1147 1167 1166
3 1148 1167 1147
3 1148 1168 1167
3 1149 1168 1148
3 1149 1169 1168
3 1150 1169 1149
3 1150 1170 1169
3 1151 1170 1150
3 1151 1171 1170
3 1152 1171 1151
3 1152 1172 1171
3 1153 1172 1152
3 1153 1173 1172
3 1154 1173 1153
3 1154 1174 1173
3 1155 1174 1154
3 1155 1175 1174
3 1156 1175 1155
3 1156 1176 1175
3 1158 1176 1157
3 1158 1177 1176
3 1160 1177 1159
3 1160 1178 1177
3 1161 1178 1160
3 1161 1179 1178
3 1162 1179 1161
3 1162 1180 1179
3 1163 1180 1162
3 1163 1181 1180
3 1164 1181 1163
3 1164 1182 1181
3 1164 1070 1182
3 1182 1070 1073
3 1071 1165 1183
3 1183 1165 1184
3 1166 1184 1165
3 1166 1185 1184
3 1167 1185 1166
3 1167 1186 1185
3 1168 1186 1167
3 1168 1187 1186
3 1169 1187 1168
3 1169 1188 1187
3 1170 1188 1169
3 1170 1189 1188
3 1171 1189 1170
3 1171 1190 1189
3 1172 1190 1171
3 1172 1191 1190
3 1173 1191 1172
3 1173 1192 1191
3 1174 1192 1173
3 1174 1193 1192
3 1175 1193 1174
3 1175 1194 1193
3 1176 1194 1175
3 1176 1195 1194
3 1177 1195 1176
3 1177 1196 1195
3 1178 1196 1177
3 1178 1197 1196
3 1179 1197 1178
3 1179 1198 1197
3 1180 1198 1179
3 1180 1199 1198
3 1181 1199 1180
3 1181 1200 1199
3 1182 1200 1181
3 1182 1201 1200
3 1182 1073 1201
3 1201 1073 1076
3 1183 1184 1202
3 1202 1184 1203
3 1185 1203 1184
3 1185 1204 1203
3 1186 1204 1185
3 1186 1205 1204
3 1187 1205 1186
3 1187 1206 1205
3 1188 1206 1187
3 1188 1207 1206
3 1189 1207 1188
3 1189 1208 1207
3 1190 1208 1189
3 1190 1209 1208
3 1191 1209 1190
3 1191 1210 1209
3 1192 1210 1191
3 1192 1211 1210
3 1193 1211 1192
3 1193 1212 1211
3 1194 1212 1193
3 1194 1213 1212
3 1195 1213 1194
3 1195 1214 1213
3 1196 1214 1195
3 1196 1215 1214
3 1197 1215 1196
3 1197 1216 1215
3 1198 1216 1197
3 1198 1217 1216
3 1199 1217 1198
3 1199 1218 1217
3 1200 1218 1199
3 1200 1219 1218
3 1201 1219 1200
3 1201 1220 1219
3 1201 1076 1220
3 1220 1076 1079
3 1202 1203 1221
3 1221 1203 1222
3 1204 1222 1203
3 1204 1223 1222
3 1205 1223 1204
3 1205 1224 1223
3 1206 1224 1205
3 1206 1225 1224
3 1207 1225 1206
3 1207 1226 1225
3 1208 1226 1207
3 1208 1227 1226
3 1209 1227 1208
3 1209 1228 1227
3 1210 1228 1209
3 1210 1229 1228
3 1211 1229 1210
3 1211 1230 1229
3 1212 1230 1211
3 1212 1231 1230
3 1213 1231 1212
3 1213 1232 1231
3 1214 1232 1213
3 1214 1233 1232
3 1215 1233 1214
3 1215 1234 1233
3 1216 1234 1215
3 1216 1235 1234
3 1217 1235 1216
3 1217 1236 1235
3 1218 1236 1217
3 1218 1237 1236
3 1219 1237 1218
3 1219 1238 1237
3 1220 1238 1219
3 1220 1239 1238
3 1220 1079 1240
3 1240 1079 1082
3 1221 1222 1241
3 1241 1222 1242
3 1223 1242 1222
3 1223 1243 1242
3 1224 1243 1223
3 1224 1244 1243
3 1225 1244 1224
3 1225 1245 1244
3 1226 1245 1225
3 1226 1246 1245
3 1227 1246 1226
3 1227 1247 1246
3 1228 1247 1227
3 1228 1248 1247
3 1229 1248 1228
3 1229 1249 1248
3 1230 1249 1229
3 1230 1250 1249
3 1231 1250 1230
3 1231 1251 1250
3 1232 1251 1231
3 1232 1252 1251
3 1233 1252 1232
3 1233 1253 1252
3 1234 1253 1233
3 1234 1254 1253
3 1235 1255 1234
3 1235 1256 1255
3 1236 1256 1235
3 1236 1257 1256
3 1237 1257 1236
3 1237 1258 1257
3 1238 1258 1237
3 1238 1259 1258
3 1239 1259 1238
3 1239 1260 1259
3 1240 1082 1260
3 1260 1082 1261
3 1241 1242 1086
3 1086 1242 1262
3 1243 1262 1242
3 1243 1263 1262
3 1244 1263 1243
3 1244 1264 1263
3 1245 1264 1244
3 1245 1265 1264
3 1246 1265 1245
3 1246 1266 1265
3 1247 1266 1246
3 1247 1267 1266
3 1248 1267 1247
3 1248 1268 1267
3 1249 1268 1248
3 1249 1269 1268
3 1250 1269 1249
3 1250 1270 1269
3 1251 1270 1250
3 1251 1271 1270
3 1252 1271 1251
3 1252 1272 1271
3 1253 1272 1252
3 1253 1273 1272
3 1254 1273 1253
3 1254 1274 1273
3 1256 1274 1255
3 1256 1275 1274
3 1257 1275 1256
3 1257 1276 1275
3 1258 1276 1257
3 1258 1277 1276
3 1259 1277 1258
3 1259 1278 1277
3 1260 1278 1259
3 1260 1279 1278
3 1260 1261 1279
3 1279 1261 1087
3 1262 1088 1086
3 1263 1089 1262
3 1262 1089 1088
3 1264 1090 1263
3 1263 1090 1089
3 1265 1091 1264
3 1264 1091 1090
3 1266 1092 1265
3 1265 1092 1091
3 1267 1093 1266
3 1266 1093 1092
3 1268 1094 1267
3 1267 1094 1093
3 1269 1095 1268
3 1268 1095 1094
3 1270 1096 1269
3 1269 1096 1095
3 1271 1097 1270
3 1270 1097 1096
3 1272 1098 1271
3 1271 1098 1097
3 1273 1099 1272
3 1272 1099 1098
3 1274 1100 1273
3 1273 1100 1099
3 1275 1101 1274
3 1274 1101 1100
3 1276 1102 1275
3 1275 1102 1101
3 1277 1103 1276
3 1276 1103 1102
3 1278 1104 1277
3 1277 1104 1103
3 1279 1105 1278
3 1278 1105 1104
3 1087 1105 1279
